<svg xmlns="http://www.w3.org/2000/svg" fill="none" viewBox="0 0 24 24"><path fill="#090404" d="M10.75 11.567a.5.5 0 0 0 .25-.433V2.29a.5.5 0 0 0-.75-.434l-6.91 3.99a2 2 0 0 0-1 1.731v7.98a.5.5 0 0 0 .75.433z"/><path fill="#090404" d="M21.66 7.577a2 2 0 0 0-1-1.732l-6.91-3.989a.5.5 0 0 0-.75.433v8.845a.5.5 0 0 0 .25.433l7.66 4.423a.5.5 0 0 0 .75-.433z"/><path fill="#090404" d="M19.91 18.588a.5.5 0 0 0 0-.866l-7.66-4.423a.5.5 0 0 0-.5 0l-7.66 4.423a.5.5 0 0 0 0 .866L11 22.577a2 2 0 0 0 2 0z"/></svg>