<svg xmlns="http://www.w3.org/2000/svg" fill="none" viewBox="0 0 24 24"><path fill="#090404" d="M10.75 12.433a.5.5 0 0 1 .25.433v8.844a.5.5 0 0 1-.75.433l-6.91-3.989a2 2 0 0 1-1-1.732V8.443a.5.5 0 0 1 .75-.433z"/><path fill="#090404" d="M21.66 16.422a2 2 0 0 1-1 1.732l-6.91 3.99a.5.5 0 0 1-.75-.434v-8.844a.5.5 0 0 1 .25-.433l7.66-4.423a.5.5 0 0 1 .75.433z"/><path fill="#090404" d="M19.91 5.412a.5.5 0 0 1 0 .866L12.25 10.7a.5.5 0 0 1-.5 0L4.09 6.278a.5.5 0 0 1 0-.866L11 1.422a2 2 0 0 1 2 .001z"/></svg>