<svg xmlns="http://www.w3.org/2000/svg" fill="none" viewBox="0 0 24 24"><path fill="#090404" d="M2.34 8.443a.5.5 0 0 1 .75-.432l7.66 4.422a.5.5 0 0 1 .25.433v8.845a.5.5 0 0 1-.75.432l-6.91-3.988a2 2 0 0 1-1-1.732z"/><path fill="#090404" d="M20.91 8.01a.5.5 0 0 1 .75.433v7.98a2 2 0 0 1-1 1.732l-6.91 3.988a.5.5 0 0 1-.75-.432v-8.845a.5.5 0 0 1 .25-.433z"/><path fill="#090404" d="M15.33 8.922 12.25 10.7a.5.5 0 0 1-.5 0L4.09 6.278a.5.5 0 0 1 0-.866l2.579-1.49z"/><path fill="#090404" d="M11 1.424a2 2 0 0 1 2 0l6.91 3.988a.5.5 0 0 1 0 .866l-2.58 1.49-8.66-5z"/></svg>