<svg xmlns="http://www.w3.org/2000/svg" fill="none" viewBox="0 0 24 24"><path fill="#090404" d="M10 12c0-2.975.33-5.632.843-7.515.26-.949.55-1.644.83-2.079.2-.31.327-.39.36-.406 5.496.018 9.95 4.47 9.967 9.967-.017.033-.095.16-.406.36-.435.28-1.13.57-2.079.83-1.883.513-4.54.843-7.515.843q-1.003 0-1.952-.048A39 39 0 0 1 10 12"/><path fill="#090404" d="M8.039 13.794c-1.355-.147-2.562-.367-3.554-.637-.949-.26-1.644-.55-2.079-.83-.31-.2-.39-.327-.406-.36.015-4.634 3.183-8.527 7.47-9.644a13 13 0 0 0-.556 1.636C8.342 6.057 8 8.899 8 12q0 .915.039 1.794"/><path fill="#090404" d="M8.18 15.82c.157 1.588.408 3.026.734 4.221.162.593.347 1.146.557 1.636a10.02 10.02 0 0 1-7.148-7.148c.49.21 1.043.395 1.636.557 1.195.326 2.633.577 4.222.733"/><path fill="#090404" d="M12.033 22c4.634-.015 8.527-3.183 9.644-7.47-.49.21-1.043.394-1.636.556-2.098.572-4.94.914-8.041.914q-.915 0-1.794-.039c.147 1.355.367 2.562.637 3.554.26.949.55 1.644.83 2.079.2.31.327.39.36.406"/></svg>