<svg xmlns="http://www.w3.org/2000/svg" fill="none" viewBox="0 0 24 24"><path fill="#090404" d="M13.5 12a1.5 1.5 0 1 1-3 0 1.5 1.5 0 0 1 3 0"/><path fill="#090404" d="M13.5 16a1.5 1.5 0 1 1-3 0 1.5 1.5 0 0 1 3 0"/><path fill="#090404" d="M9 8a1 1 0 1 1-2 0 1 1 0 0 1 2 0"/><path fill="#090404" d="M5 12a1 1 0 1 1-2 0 1 1 0 0 1 2 0"/><path fill="#090404" d="M21 12a1 1 0 1 1-2 0 1 1 0 0 1 2 0"/><path fill="#090404" d="M13 4a1 1 0 1 1-2 0 1 1 0 0 1 2 0"/><path fill="#090404" d="M13 20a1 1 0 1 1-2 0 1 1 0 0 1 2 0"/><path fill="#090404" d="M8.75 4a.75.75 0 1 1-1.5 0 .75.75 0 0 1 1.5 0"/><path fill="#090404" d="M16.75 4a.75.75 0 1 1-1.5 0 .75.75 0 0 1 1.5 0"/><path fill="#090404" d="M4.5 4a.5.5 0 1 1-1 0 .5.5 0 0 1 1 0"/><path fill="#090404" d="M20.5 4a.5.5 0 1 1-1 0 .5.5 0 0 1 1 0"/><path fill="#090404" d="M4.75 8a.75.75 0 1 1-1.5 0 .75.75 0 0 1 1.5 0"/><path fill="#090404" d="M20.75 8a.75.75 0 1 1-1.5 0 .75.75 0 0 1 1.5 0"/><path fill="#090404" d="M4.75 16a.75.75 0 1 1-1.5 0 .75.75 0 0 1 1.5 0"/><path fill="#090404" d="M20.75 16a.75.75 0 1 1-1.5 0 .75.75 0 0 1 1.5 0"/><path fill="#090404" d="M4.5 20a.5.5 0 1 1-1 0 .5.5 0 0 1 1 0"/><path fill="#090404" d="M20.5 20a.5.5 0 1 1-1 0 .5.5 0 0 1 1 0"/><path fill="#090404" d="M13.5 8a1.5 1.5 0 1 1-3 0 1.5 1.5 0 0 1 3 0"/><path fill="#090404" d="M17 8a1 1 0 1 1-2 0 1 1 0 0 1 2 0"/><path fill="#090404" d="M17.5 12a1.5 1.5 0 1 1-3 0 1.5 1.5 0 0 1 3 0"/><path fill="#090404" d="M9.5 12a1.5 1.5 0 1 1-3 0 1.5 1.5 0 0 1 3 0"/><path fill="#090404" d="M17 16a1 1 0 1 1-2 0 1 1 0 0 1 2 0"/><path fill="#090404" d="M16.75 20a.75.75 0 1 1-1.5 0 .75.75 0 0 1 1.5 0"/><path fill="#090404" d="M9 16a1 1 0 1 1-2 0 1 1 0 0 1 2 0"/><path fill="#090404" d="M8.75 20a.75.75 0 1 1-1.5 0 .75.75 0 0 1 1.5 0"/></svg>