<svg xmlns="http://www.w3.org/2000/svg" fill="none" viewBox="0 0 24 24"><path fill="#090404" fill-rule="evenodd" d="m21.084 13.604.695-3.834h.01c.16-.92-.54-1.77-1.48-1.77h-2.22l-1.75-4.37a.994.994 0 0 0-1.3-.56c-.52.21-.77.79-.56 1.3L15.93 8H7.88l1.45-3.63c.2-.51-.05-1.09-.56-1.3-.51-.2-1.09.05-1.3.56L5.72 8H3.5c-.94 0-1.65.85-1.48 1.77l1.75 9.59c.18.95 1 1.64 1.97 1.64h6.064a6 6 0 0 1 9.28-7.396" clip-rule="evenodd"/><path fill="#090404" fill-rule="evenodd" d="M17 14a1 1 0 0 1 1 1v2h2a1 1 0 1 1 0 2h-2v2a1 1 0 1 1-2 0v-2h-2a1 1 0 1 1 0-2h2v-2a1 1 0 0 1 1-1" clip-rule="evenodd"/></svg>