<svg xmlns="http://www.w3.org/2000/svg" fill="none" viewBox="0 0 24 24"><path fill="#090404" d="M12 2.2A1.1 1.1 0 1 0 12 0a1.1 1.1 0 0 0 0 2.2"/><path fill="#090404" d="M3.515 3.515A1.1 1.1 0 1 1 5.07 5.07a1.1 1.1 0 0 1-1.555-1.555"/><path fill="#090404" d="M2.2 12A1.1 1.1 0 1 1 0 12a1.1 1.1 0 0 1 2.2 0"/><path fill="#090404" d="M24 12a1.1 1.1 0 1 1-2.2 0 1.1 1.1 0 0 1 2.2 0"/><path fill="#090404" d="M20.485 18.93a1.1 1.1 0 1 0-1.555 1.556 1.1 1.1 0 0 0 1.555-1.556"/><path fill="#090404" d="M18.93 3.515a1.1 1.1 0 1 0 1.556 1.555 1.1 1.1 0 0 0-1.556-1.555"/><path fill="#090404" d="M3.515 20.485A1.1 1.1 0 1 1 5.07 18.93a1.1 1.1 0 0 1-1.555 1.555"/><path fill="#090404" d="M12 4a8 8 0 0 0-6.312 12.916q.046-.065.105-.123l5.5-5.5a1 1 0 0 1 1.414 1.414l-5.5 5.5q-.058.059-.123.105A8 8 0 1 0 12 4"/></svg>