<svg xmlns="http://www.w3.org/2000/svg" fill="none" viewBox="0 0 24 24"><path fill="#090404" d="M21.365 14.417c-1.461-1.518-5.452-.9-6.408-.787-1.405-1.349-2.36-2.98-2.698-3.541.506-1.518.843-3.036.9-4.666 0-1.405-.563-2.923-2.137-2.923-.562 0-1.068.337-1.349.787-.675 1.18-.393 3.541.675 5.959-.619 1.742-1.18 3.429-2.755 6.408-1.63.674-5.059 2.248-5.34 3.935-.112.506.056 1.012.45 1.405.393.337.9.506 1.405.506 2.08 0 4.104-2.867 5.509-5.284 1.18-.394 3.035-.956 4.89-1.293 2.193 1.911 4.104 2.192 5.116 2.192 1.349 0 1.855-.562 2.023-1.068.281-.562.113-1.18-.28-1.63m-1.405.956c-.056.393-.562.787-1.462.562a7.7 7.7 0 0 1-2.866-1.462c.73-.112 2.36-.28 3.541-.056.45.113.9.394.787.956m-9.388-11.58c.113-.169.282-.281.45-.281.506 0 .618.618.618 1.124a12.4 12.4 0 0 1-.674 3.485c-.843-2.248-.675-3.822-.393-4.328m-.112 10.905c.45-.9 1.068-2.473 1.293-3.148.506.843 1.35 1.855 1.799 2.305 0 .056-1.743.393-3.092.843m-3.317 2.249c-1.292 2.136-2.642 3.485-3.372 3.485-.113 0-.225-.056-.338-.112q-.252-.17-.168-.506c.168-.787 1.63-1.855 3.878-2.867"/></svg>