<svg xmlns="http://www.w3.org/2000/svg" fill="none" viewBox="0 0 24 24"><path fill="#090404" fill-rule="evenodd" d="M14.157 12.3c.687-1.631 2.999-1.631 3.686 0l3.078 7.312a1 1 0 1 1-1.843.776L18.493 19h-4.987l-.585 1.388a1 1 0 1 1-1.843-.776zm.19 4.7h3.305l-1.653-3.923z" clip-rule="evenodd"/><path fill="#090404" fill-rule="evenodd" d="M7 4a1 1 0 0 1 1 1v1h3a1 1 0 1 1 0 2h-.628c-.312 1.912-.929 3.525-1.935 4.82.75.524 1.674.927 2.805 1.21a1 1 0 1 1-.485 1.94c-1.46-.365-2.717-.928-3.758-1.725-1.04.797-2.296 1.36-3.757 1.725a1 1 0 0 1-.485-1.94c1.132-.283 2.055-.687 2.806-1.212C4.556 11.524 3.94 9.912 3.627 8H3a1 1 0 0 1 0-2h3V5a1 1 0 0 1 1-1M5.656 8c.266 1.414.716 2.527 1.342 3.401.627-.874 1.077-1.987 1.343-3.401z" clip-rule="evenodd"/><path fill="#090404" d="M17.5 3c.211 0 .4.13.476.327l.59 1.533a1 1 0 0 0 .574.575l1.533.59a.51.51 0 0 1 0 .95l-1.533.59a1 1 0 0 0-.574.575l-.59 1.533a.51.51 0 0 1-.951 0l-.59-1.533a1 1 0 0 0-.574-.575l-1.535-.59a.51.51 0 0 1 0-.95l1.535-.59a1 1 0 0 0 .574-.575l.59-1.533A.51.51 0 0 1 17.5 3"/></svg>