<svg xmlns="http://www.w3.org/2000/svg" fill="none" viewBox="0 0 24 24"><path fill="#090404" d="M4.253 2.016A1 1 0 0 0 3.08 3.072l.257 3.542-.351.246c-.434.302-.73.764-.824 1.284l-.113.625a3.005 3.005 0 0 0 2.48 3.505l2.47.396a2.003 2.003 0 0 0 1.465 2.811l1.334.238a2 2 0 0 0 1.203-.16l3.39-1.596 4.132.736a2.96 2.96 0 0 0 3.081-1.435 2.965 2.965 0 0 0-.51-3.614l-1.443-1.393c-.436-.42-.987-.7-1.585-.8-1.696-.286-6.457-1.09-8.483-1.45a1.01 1.01 0 0 1-.697-.491l-1.247-2.17a2 2 0 0 0-1.384-.974z"/><path fill="#090404" d="M3 18a1 1 0 1 0 0 2h18a1 1 0 0 0 0-2z"/></svg>