<svg xmlns="http://www.w3.org/2000/svg" fill="none" viewBox="0 0 24 24"><path fill="#090404" fill-rule="evenodd" d="M10.947 14.731a1.5 1.5 0 0 1 2.106 0l.118.132 2.96 3.7.07.094c.67.978-.024 2.343-1.242 2.343H9.04c-1.257 0-1.956-1.455-1.17-2.437l2.958-3.7z" clip-rule="evenodd"/><path fill="#090404" d="M4.929 4.928c3.905-3.905 10.237-3.905 14.142 0 3.654 3.654 3.889 9.43.706 13.359l-.068.077a1.001 1.001 0 0 1-1.486-1.336l.231-.299a8.001 8.001 0 1 0-12.908 0l.231.299.06.083a1 1 0 0 1-1.546 1.253l-.068-.077-.288-.373C1.058 14 1.389 8.468 4.929 4.928"/><path fill="#090404" d="M12 6a6 6 0 0 1 5.362 8.694 1 1 0 0 1-1.787-.899 4 4 0 1 0-7.247-.206l.097.207.04.092a1.001 1.001 0 0 1-1.776.895l-.051-.089-.145-.309A6 6 0 0 1 12 6"/></svg>