<svg xmlns="http://www.w3.org/2000/svg" fill="none" viewBox="0 0 24 24"><path fill="#090404" d="M18.092 4.179a3 3 0 0 0-1.77.1c-1.61.6-6.13 2.284-8.062 2.984-.28.102-.59.074-.847-.075l-2.16-1.251a2 2 0 0 0-1.684-.15l-1.91.692a1 1 0 0 0-.486 1.502l1.987 2.928-.182.386a2 2 0 0 0-.071 1.523l.213.596a3 3 0 0 0 3.895 1.791l2.332-.89a2 2 0 0 0 2.672 1.694l1.273-.46a2 2 0 0 0 .96-.739l2.137-3.072 3.942-1.427a2.957 2.957 0 0 0-.296-5.65z"/><path fill="#090404" d="M3 18a1 1 0 1 0 0 2h18a1 1 0 1 0 0-2z"/></svg>