<svg xmlns="http://www.w3.org/2000/svg" fill="none" viewBox="0 0 24 24"><path fill="#090404" fill-rule="evenodd" d="M7.25 13A2.75 2.75 0 0 1 10 15.75c0 .742-.296 1.414-.774 1.91.477.595.662 1.316.733 1.983l.024.294.001.103A1 1 0 0 1 8 20.164l-.012-.102-.018-.22c-.053-.487-.171-.781-.324-.958-.124-.143-.377-.328-.982-.372l-.282-.01-.041-.002H6V20a1 1 0 1 1-2 0v-6l.005-.102A1 1 0 0 1 5 13zM6 16.5h1.25a.75.75 0 0 0 0-1.5H6z" clip-rule="evenodd"/><path fill="#090404" d="M15 3a5 5 0 0 1 5 5v11.5a1.5 1.5 0 0 1-1.5 1.5h-1a1.5 1.5 0 0 1-1.5-1.5v-6.6q-.486.1-1 .1a4.99 4.99 0 0 1-3.565-1.494c-.303-.309-.435-.74-.435-1.173V5.667c0-.433.132-.864.435-1.173A4.99 4.99 0 0 1 15 3"/></svg>