<svg xmlns="http://www.w3.org/2000/svg" fill="none" viewBox="0 0 24 24"><path fill="#090404" fill-rule="evenodd" d="M6.158 7.73C5.432 8.853 5.014 10.408 5 12.008c-.013 1.601.379 3.15 1.093 4.265C6.792 17.363 7.761 18 9 18c.675 0 1.351-.339 2.043-1.093.697-.76 1.33-1.86 1.882-3.16q.114-.267.22-.541-.107-.497-.218-.983c-.4-1.753-.85-3.37-1.52-4.54C10.759 6.55 10.01 6 9 6c-1.168 0-2.127.625-2.842 1.73m8.137 1.79c-.303-1.012-.672-1.991-1.151-2.829C12.292 5.201 10.99 4 9 4 6.987 4 5.461 5.125 4.479 6.645 3.507 8.147 3.017 10.092 3 11.992c-.016 1.899.441 3.85 1.41 5.36C5.391 18.887 6.937 20 9 20c1.427 0 2.599-.74 3.517-1.741.508-.553.961-1.21 1.366-1.924q.12.421.248.802c.239.695.54 1.374.964 1.893.445.546 1.075.97 1.905.97.641 0 1.198-.189 1.65-.53.438-.331.726-.765.915-1.183.368-.816.435-1.732.435-2.287a1 1 0 1 0-2 0c0 .445-.062 1.029-.258 1.463-.094.207-.198.335-.297.41-.087.066-.215.127-.445.127-.069 0-.175-.014-.355-.233-.2-.247-.41-.661-.622-1.279-.299-.873-.537-1.943-.797-3.131.921-2.53 1.493-5.288 1.764-7.218a1 1 0 1 0-1.98-.278 37 37 0 0 1-.715 3.66" clip-rule="evenodd"/></svg>