<svg xmlns="http://www.w3.org/2000/svg" fill="none" viewBox="0 0 24 24"><path fill="#090404" d="m2.842 9.301 1.705.461L11.3 11.59c.236.064.597.15.818.227.036.038.06.062.075.114.103.37.198.746.295 1.117l2.177 8.267c-.645.2-1.33.358-1.98.548-.075.022-.424.11-.465.136h-.08c-.103-.339-.19-.71-.28-1.053l-1.135-4.298c-.1-.377-.223-.806-.31-1.183-.09.13-.358.384-.484.51l-.841.846-2.283 2.322-.722.728c-.104.104-.293.303-.403.39-.3-.27-.636-.653-.922-.944-.302-.307-.616-.616-.912-.926.068-.088.25-.26.335-.346l.623-.625 1.915-1.956L7.977 14.2c.13-.132.468-.503.591-.6-.149-.031-.374-.098-.524-.14l-5.076-1.377c-.204-.055-.65-.162-.83-.235v-.063c.032-.049.102-.352.122-.43l.362-1.396c.028-.107.14-.605.19-.65z"/><path fill="#090404" d="M6.397 5.643c.07.005.604.159.7.184l6.757 1.827 1.663.449c.084.022.17.054.245.1.074.124.389 1.418.451 1.656l1.8 6.849c.055.206.215.757.238.95-.027.037-.94.272-1.054.302-.42.136-1.015.277-1.454.4-.038-.116-.079-.296-.11-.417l-1.625-6.16c-.11-.414-.29-1.027-.367-1.433-.092-.017-.26-.069-.354-.095L6.919 8.527c-.182-.05-1.051-.26-1.168-.327.015-.16.086-.399.129-.564l.424-1.63c.029-.11.058-.26.093-.363"/><path fill="#090404" d="M10.074 2.002c.046.037 1.982.547 2.197.605l5.34 1.445q.55.146 1.1.299c.172.047.5.118.645.194.068.167.193.693.247.896l2.257 8.587c-.076.008-.218.053-.296.075l-.437.12c-.582.16-1.216.349-1.797.494-.155-.666-.356-1.376-.532-2.042l-1.06-4.023q-.262-.971-.508-1.947c-.625-.19-1.35-.368-1.985-.54L9.897 4.714c-.088-.024-.5-.128-.548-.154-.017-.048.013-.146.027-.197.215-.782.395-1.582.62-2.361z"/></svg>