<svg xmlns="http://www.w3.org/2000/svg" fill="none" viewBox="0 0 24 24"><path fill="#090404" d="M18.5 4a3.5 3.5 0 1 1-2.204 6.219c-1.4 1.813-2.222 3.894-2.695 5.612-.26.943-.413 1.762-.499 2.34a15 15 0 0 0-.1.844l-.003.04-.001.008-.002.012-.007.065-.003.024-.003.01-.012.06-.01.036a1 1 0 0 1-.051.142l-.02.04-.019.035-.027.048-.019.029-.035.046q-.01.016-.023.03-.02.025-.041.046l-.023.024-.032.03a1 1 0 0 1-.114.09l-.029.018a1 1 0 0 1-.312.128l-.05.008-.053.01-.012.001q-.021.002-.042.002l-.038.001h-.084l-.016-.002-.067-.008-.028-.005a1 1 0 0 1-.161-.042l-.03-.01q-.027-.011-.053-.024l-.045-.021-.035-.02-.043-.026-.043-.03-.035-.025a1 1 0 0 1-.178-.183l-.02-.025-.043-.067-.008-.015-.025-.046q-.01-.02-.02-.042-.014-.03-.025-.062l-.01-.026-.018-.063-.01-.035-.01-.057-.006-.04-.003-.022v-.006l-.003-.02-.009-.088-.04-.338a44 44 0 0 0-.17-1.217 39 39 0 0 0-.736-3.685c-.344-1.346-.775-2.622-1.291-3.539C8.2 9.222 7.753 9 7.5 9s-.701.222-1.256 1.209c-.516.917-.947 2.193-1.291 3.539a39 39 0 0 0-.736 3.685 44 44 0 0 0-.21 1.555l-.01.087-.002.02v.007a1 1 0 0 1-1.99-.204v-.01l.004-.026a19 19 0 0 1 .053-.458c.039-.308.097-.748.178-1.274.161-1.05.413-2.46.775-3.878.36-1.404.843-2.878 1.487-4.023C5.107 8.153 6.066 7 7.5 7s2.393 1.153 2.998 2.229c.644 1.145 1.127 2.62 1.486 4.023q.075.297.145.593c.61-1.725 1.554-3.663 3.009-5.373A3.5 3.5 0 0 1 18.5 4"/></svg>