<svg xmlns="http://www.w3.org/2000/svg" fill="none" viewBox="0 0 24 24"><path fill="#090404" fill-rule="evenodd" d="M5.016 19.973v-.012l-.001-.037a36 36 0 0 1-.011-.713 85 85 0 0 1 .005-2.008c.023-1.656.1-3.826.314-5.91.218-2.114.566-4.031 1.087-5.245.266-.62.515-.903.674-1.003l.003-.002c.06-.039.153-.097.445.063 2.273 1.246 3.986 2.034 5.86 2.496 1.87.462 3.84.584 6.608.584a1 1 0 1 0 0-2c-2.727 0-4.502-.124-6.129-.525-1.622-.4-3.155-1.09-5.378-2.309-.827-.453-1.704-.486-2.477.001-.674.426-1.124 1.163-1.443 1.906-.65 1.513-1.02 3.692-1.24 5.83-.222 2.165-.3 4.4-.324 6.086a87 87 0 0 0 .006 2.796l.001.041v.014l1-.026-1 .027a1 1 0 0 0 2-.054" clip-rule="evenodd"/></svg>