<svg xmlns="http://www.w3.org/2000/svg" fill="none" viewBox="0 0 24 24"><path fill="#090404" fill-rule="evenodd" d="M20.998 3.939a1 1 0 0 1-.937 1.06c-3.433.21-4.988 1.194-5.797 2.33-.87 1.22-1.063 2.825-1.27 4.776l-.012.118c-.19 1.803-.413 3.921-1.617 5.61-1.29 1.809-3.536 2.934-7.304 3.165a1 1 0 0 1-.122-1.996c3.433-.21 4.988-1.195 5.797-2.33.87-1.22 1.063-2.826 1.27-4.777l.012-.118c.19-1.803.413-3.921 1.617-5.61 1.29-1.809 3.536-2.934 7.304-3.165a1 1 0 0 1 1.06.937" clip-rule="evenodd"/></svg>