<svg xmlns="http://www.w3.org/2000/svg" fill="none" viewBox="0 0 24 24"><path fill="#090404" fill-rule="evenodd" d="M8.707 15.293a1 1 0 0 1 0 1.414l-5 5a1 1 0 0 1-1.414-1.414l5-5a1 1 0 0 1 1.414 0" clip-rule="evenodd"/><path fill="#090404" fill-rule="evenodd" d="M13.207 17.793a1 1 0 0 1 0 1.414l-2.5 2.5a1 1 0 0 1-1.414-1.414l2.5-2.5a1 1 0 0 1 1.414 0" clip-rule="evenodd"/><path fill="#090404" fill-rule="evenodd" d="M6.207 10.793a1 1 0 0 1 0 1.414l-2.5 2.5a1 1 0 0 1-1.414-1.414l2.5-2.5a1 1 0 0 1 1.414 0" clip-rule="evenodd"/><path fill="#090404" d="M15 2a7 7 0 1 0 0 14 7 7 0 0 0 0-14"/></svg>