<svg xmlns="http://www.w3.org/2000/svg" fill="none" viewBox="0 0 24 24"><path fill="#090404" fill-rule="evenodd" d="M8.778 19.974C8.259 20.562 7.563 21 6.667 21c-.802 0-1.458-.295-1.954-.798-.463-.47-.74-1.073-.928-1.636-.19-.57-.317-1.19-.425-1.752l-.052-.273c-.09-.475-.172-.9-.274-1.283a1 1 0 0 1 1.932-.516c.123.461.22.97.31 1.442l.048.252c.108.563.215 1.067.358 1.498.146.437.302.708.455.864.121.122.265.202.53.202.17 0 .358-.062.61-.349.274-.31.553-.813.848-1.531.292-.708.568-1.547.871-2.49l.091-.281c.274-.853.57-1.773.908-2.693.746-2.036 1.736-4.192 3.295-5.843C14.885 4.125 17.043 3 20 3a1 1 0 1 1 0 2c-2.376 0-4.017.875-5.256 2.187-1.274 1.349-2.151 3.193-2.871 5.157a68 68 0 0 0-.883 2.62l-.09.28c-.3.933-.6 1.844-.925 2.636-.321.782-.7 1.53-1.197 2.094" clip-rule="evenodd"/></svg>