<svg xmlns="http://www.w3.org/2000/svg" fill="none" viewBox="0 0 24 24"><path fill="#090404" fill-rule="evenodd" d="M5 20a1 1 0 1 1-2 0h1-1v-.186l.006-.515c.006-.442.018-1.073.041-1.83.048-1.512.142-3.534.332-5.562.19-2.016.477-4.088.924-5.678.221-.787.5-1.526.87-2.09C5.533 3.593 6.124 3 7 3c.576 0 1.033.262 1.363.585.315.307.549.697.731 1.07.32.654.585 1.486.827 2.248l.094.291c.286.891.553 1.661.872 2.208.33.566.538.598.613.598.321 0 .646-.129 1.099-.452.228-.163.46-.354.734-.58l.022-.017c.259-.214.55-.455.866-.687.656-.48 1.455-.952 2.476-1.18 1.026-.228 2.201-.192 3.59.225a1 1 0 0 1-.574 1.915c-1.111-.333-1.936-.33-2.582-.187-.651.145-1.195.45-1.727.84a18 18 0 0 0-.793.63l-.006.005c-.263.217-.55.454-.845.664-.593.424-1.331.824-2.26.824-1.175 0-1.905-.843-2.34-1.59-.447-.765-.773-1.745-1.05-2.604q-.046-.147-.092-.288c-.253-.792-.471-1.473-.721-1.986a2.2 2.2 0 0 0-.303-.487 1.3 1.3 0 0 0-.148.191c-.205.311-.417.822-.618 1.535-.397 1.41-.671 3.338-.857 5.322a90 90 0 0 0-.325 5.438 102 102 0 0 0-.045 2.296v.13L5 19.99zM7.064 4.988l-.01.004z" clip-rule="evenodd"/></svg>