<svg xmlns="http://www.w3.org/2000/svg" fill="none" viewBox="0 0 24 24"><path fill="#090404" d="M12.58 3.195q.514.01 1.018.109-.097.332-.098.696v2a2.5 2.5 0 0 0-1.768 4.268l2.5 2.5a2.5 2.5 0 0 0 3.536 0l2.5-2.5q.263-.265.432-.58c.468 1.074.758 2.2.796 3.3.04 1.163-.201 2.325-.842 3.349-.582.93-1.459 1.689-2.63 2.23-.549 1.16-1.318 2.026-2.255 2.6-1.032.631-2.201.868-3.371.829-2.313-.078-4.738-1.234-6.579-2.819-1.825-1.572-3.275-3.744-3.318-6.006-.04-2.11 1.137-3.985 3.632-5.303a6.3 6.3 0 0 1-.756-1.89C5.15 4.92 5.23 3.838 5.588 2.7a1 1 0 0 1 1.908.6c-.272.863-.307 1.59-.164 2.256q.073.339.215.683c1.312-2.1 3.077-3.081 5.033-3.044"/><path fill="#090404" d="M16 3a1 1 0 0 1 1 1v4.586l.793-.793a1 1 0 1 1 1.414 1.414l-2.5 2.5a1 1 0 0 1-1.414 0l-2.5-2.5a1 1 0 0 1 1.414-1.414l.793.793V4a1 1 0 0 1 1-1"/></svg>