<svg xmlns="http://www.w3.org/2000/svg" fill="none" viewBox="0 0 24 24"><path fill="#090404" d="M15.097 3.358c-.704.853-1.895 1.49-2.843 1.49-.108 0-.217-.014-.284-.028a2 2 0 0 1-.04-.379c0-1.083.554-2.166 1.15-2.843C13.838.704 15.11.04 16.167 0c.027.122.04.27.04.42 0 1.083-.46 2.153-1.11 2.938m.745 1.72c.596 0 2.749.054 4.157 2.084-.122.095-2.261 1.3-2.261 3.995 0 3.114 2.721 4.224 2.802 4.251-.013.068-.433 1.503-1.435 2.979-.893 1.286-1.841 2.586-3.263 2.586-1.435 0-1.8-.84-3.439-.84-1.611 0-2.18.867-3.48.867-1.313 0-2.22-1.205-3.263-2.667-1.218-1.733-2.193-4.414-2.193-6.96 0-4.075 2.654-6.241 5.267-6.241 1.38 0 2.532.907 3.412.907.826 0 2.112-.962 3.696-.962"/></svg>