<svg xmlns="http://www.w3.org/2000/svg" fill="none" viewBox="0 0 24 24"><path fill="#090404" fill-rule="evenodd" d="M8.498 4.728c-.707-.142-1.389-.191-2.016-.122-.88.096-1.724.437-2.3 1.16-.577.722-.721 1.621-.62 2.5.073.627.273 1.281.569 1.938-.551.464-1.016.967-1.353 1.5-.473.748-.733 1.62-.527 2.522.205.9.818 1.574 1.57 2.042.535.335 1.17.586 1.869.765.019.72.122 1.396.329 1.992.29.837.81 1.584 1.643 1.985.832.401 1.74.342 2.575.047.595-.21 1.188-.551 1.763-.985.575.434 1.168.774 1.763.985.834.295 1.742.354 2.575-.047s1.353-1.148 1.643-1.985c.206-.596.31-1.272.329-1.992.698-.179 1.334-.43 1.87-.765.75-.468 1.363-1.141 1.569-2.042.206-.902-.054-1.774-.527-2.522-.338-.533-.802-1.036-1.353-1.5.295-.657.495-1.311.568-1.938.102-.879-.042-1.778-.619-2.5-.576-.723-1.42-1.064-2.3-1.16-.627-.07-1.31-.02-2.016.122-.33-.64-.716-1.205-1.161-1.653C13.717 2.448 12.924 2 12 2s-1.717.448-2.341 1.075c-.445.448-.832 1.012-1.161 1.653m1.955.592q.21.084.42.174c.717.31 1.537.31 2.254 0q.21-.09.42-.174a4.2 4.2 0 0 0-.625-.835C12.549 4.11 12.238 4 12 4s-.55.11-.922.485q-.317.317-.625.835m3.877 1.841q-.201.08-.408.169c-1.224.53-2.62.53-3.844 0a13 13 0 0 0-.409-.169q-.063.207-.122.425A4.84 4.84 0 0 1 7.15 10.59q-.199.105-.386.214.12.18.255.36a4.84 4.84 0 0 1 .855 3.748q-.041.222-.073.436.215.016.44.025c1.333.054 2.591.66 3.464 1.668q.147.17.295.33.147-.16.295-.33a4.84 4.84 0 0 1 3.463-1.668q.225-.009.44-.025a13 13 0 0 0-.073-.436 4.84 4.84 0 0 1 .856-3.747q.133-.182.255-.36a13 13 0 0 0-.387-.215 4.84 4.84 0 0 1-2.396-3.005 13 13 0 0 0-.123-.425m1.928-.535q.065.216.126.437a2.84 2.84 0 0 0 1.405 1.762q.202.108.397.22.214-.564.264-1.01c.061-.525-.047-.837-.195-1.023s-.429-.36-.955-.418a4.2 4.2 0 0 0-1.042.032m2.598 5.353q-.128.185-.263.37a2.84 2.84 0 0 0-.502 2.198q.042.226.077.447a4.2 4.2 0 0 0 .953-.422c.449-.28.625-.56.678-.791.053-.232.015-.56-.268-1.008a4.2 4.2 0 0 0-.675-.794m-2.565 5.369q-.224.015-.453.025c-.78.03-1.52.387-2.03.978q-.15.173-.303.338c.333.224.644.383.924.482.499.176.827.14 1.041.037.215-.103.448-.337.62-.837a4.2 4.2 0 0 0 .2-1.023m-5.796 1.342q-.152-.165-.303-.34a2.84 2.84 0 0 0-2.03-.977 15 15 0 0 1-.453-.026q.051.601.2 1.024c.173.5.406.734.62.837s.543.14 1.041-.037q.422-.147.925-.482m-4.663-3.696q.034-.222.076-.447a2.84 2.84 0 0 0-.501-2.198q-.137-.185-.263-.37a4.2 4.2 0 0 0-.676.795c-.283.447-.32.775-.268 1.007.053.231.23.51.679.79.252.158.57.302.953.423m-.019-5.95q.195-.111.398-.219a2.84 2.84 0 0 0 1.405-1.762q.06-.221.125-.437A4.2 4.2 0 0 0 6.7 6.594c-.526.057-.806.232-.954.418s-.257.498-.196 1.024c.035.295.12.634.264 1.008" clip-rule="evenodd"/></svg>