<svg xmlns="http://www.w3.org/2000/svg" fill="none" viewBox="0 0 24 24"><path fill="#090404" fill-rule="evenodd" d="M9.88 5.449c.5.095 1.918.587 1.457 1.239a.43.43 0 0 1-.481.159C9.789 6.34 9 6.205 7.83 6.633c-1.794.68-3.19 2.565-3.06 4.524.061.93.671 1.998 1.578 2.359 1.846-3.63 7.128-8.228 10.891-7.976.592.07 1.136.325 1.51.8 1.519 1.928-.964 4.288-2.378 5.386a18.8 18.8 0 0 1-4.455 2.521c-1.467.582-3.06 1.022-4.647.887-.34.9-.612 1.945-.196 2.87.544 1.211 1.817 1.456 3.01 1.433a8.3 8.3 0 0 0 2.103-.463l.046-.016c-.613-1.773.306-3.554 1.643-4.72.772-.673 1.869-1.323 2.933-1.25.506.034.953.245 1.289.628.336.384.512.888.463 1.396-.196 2.071-2.572 3.584-4.295 4.572 2.191.957 5.038-1.549 5.08-3.72-.001-.373-.05-.744.378-.9.607-.162.777.324.777.839 0 3.32-4.488 6.816-7.43 4.387l-.04-.035c-2.66 1.01-5.931 1.36-7.303-1.502-.594-1.254-.386-2.648.063-3.91l-.026-.013c-1.583-.85-2.453-2.55-2.23-4.34.375-2.988 3.28-5.522 6.346-4.941m6.996 8.83c-.396-.124-.95.104-1.3.287-1.308.667-2.778 2.35-2.227 3.932 1.397-.555 3.437-2.001 3.87-3.317.114-.343.047-.782-.343-.903m.317-7.195c-1.11-.242-3.01.802-3.96 1.402-1.91 1.232-4.18 3.163-5.263 5.294 2.087-.112 3.897-1 5.796-2.059 1.23-.742 3.547-2.403 3.883-3.807.091-.382-.051-.742-.456-.83" clip-rule="evenodd"/><path fill="#090404" fill-rule="evenodd" d="M15.97 0c.32 0 .548.198.578.523.206 2.23-1.512 4.594-3.81 4.954-.04.157-.26.39-.474.44a.674.674 0 0 1-.835-.534C11.092 2.63 13.379.131 15.969 0m-3.234 4.619c1.583-.4 2.584-1.858 2.75-3.428-1.578.463-2.666 1.833-2.75 3.428" clip-rule="evenodd"/></svg>