<svg xmlns="http://www.w3.org/2000/svg" fill="none" viewBox="0 0 24 24"><path fill="#090404" fill-rule="evenodd" d="M21.25 8.536v7.059q0 .266-.002.53 0 .28-.008.559c-.01.404-.035.814-.107 1.214a4.1 4.1 0 0 1-.38 1.156 3.9 3.9 0 0 1-1.7 1.699c-.369.188-.747.307-1.154.38-.4.072-.81.096-1.215.107q-.28.007-.559.009H7.874a25 25 0 0 1-.558-.009 8 8 0 0 1-1.215-.107 4.1 4.1 0 0 1-1.155-.38 3.9 3.9 0 0 1-1.7-1.699 4.1 4.1 0 0 1-.38-1.156c-.072-.4-.096-.809-.107-1.214a25 25 0 0 1-.008-.559l-.001-.662V8.537l.001-.663q.001-.279.008-.558a8 8 0 0 1 .107-1.214c.073-.407.193-.786.38-1.156a3.9 3.9 0 0 1 1.7-1.699c.37-.188.748-.307 1.155-.38.4-.073.81-.096 1.215-.108q.279-.007.558-.008l.663-.001h6.926l.663.001q.279.001.558.008a8 8 0 0 1 1.215.107c.407.074.786.193 1.155.38a3.9 3.9 0 0 1 1.7 1.7c.187.37.307.748.38 1.155.072.4.096.81.107 1.215q.007.279.008.558zM15.34 5.66c.049-.01.446-.08.49-.085.298-.025.465.17.464.487v8.726c0 .234-.002.446-.051.681a1.7 1.7 0 0 1-.27.635q-.203.29-.506.468c-.202.12-.415.188-.642.234-.427.086-.719.105-.992.05a1.4 1.4 0 0 1-.668-.339 1.45 1.45 0 0 1-.467-.916 1.46 1.46 0 0 1 .394-1.15c.153-.16.344-.287.6-.386.268-.104.563-.166 1.018-.257l.359-.073c.158-.032.292-.072.401-.205s.112-.297.112-.458V8.998c0-.312-.14-.396-.438-.34l-4.784.964c-.258.063-.348.147-.348.467v5.969c0 .234-.012.446-.061.681a1.7 1.7 0 0 1-.27.635q-.203.29-.506.468c-.202.12-.415.191-.642.237-.427.086-.719.105-.993.05a1.4 1.4 0 0 1-.667-.342 1.44 1.44 0 0 1-.456-.916c-.043-.403.08-.833.383-1.15.153-.16.344-.287.6-.386.268-.104.563-.166 1.018-.257l.359-.073c.158-.032.292-.072.401-.205s.122-.29.122-.45V7.468c0-.093.008-.155.012-.186a.56.56 0 0 1 .185-.357.8.8 0 0 1 .343-.154h.002z" clip-rule="evenodd"/></svg>