<svg xmlns="http://www.w3.org/2000/svg" fill="none" viewBox="0 0 24 24"><path fill="#090404" fill-rule="evenodd" d="M6.487 2.75H17.51a3.74 3.74 0 0 1 3.739 3.737v11.026a3.737 3.737 0 0 1-3.736 3.737H6.487a3.735 3.735 0 0 1-3.737-3.735V6.487A3.735 3.735 0 0 1 6.487 2.75m5.808 3.603L11.92 7l-.367-.65a.844.844 0 0 0-1.462.842l.858 1.49-2.747 4.761H6.056a.84.84 0 0 0-.841.842c0 .467.374.841.841.841h7.654c.367-.689-.107-1.683-.953-1.683h-2.61l3.61-6.248a.843.843 0 1 0-1.462-.842m-4.43 11.044.809-1.403c-.437-.528-.99-.69-1.67-.479l-.6 1.04a.843.843 0 1 0 1.46.842m9.968-3.95h-2.19l-.484-.837q-1.296-2.246-1.997-3.452c-.497.414-1.001 1.635-.296 2.851l1.123 1.946 1.987 3.442a.844.844 0 0 0 1.461-.841l-.82-1.425h1.215a.84.84 0 0 0 .842-.842.84.84 0 0 0-.841-.841" clip-rule="evenodd"/></svg>