<svg xmlns="http://www.w3.org/2000/svg" fill="none" viewBox="0 0 24 24"><path fill="#090404" fill-rule="evenodd" d="M12 2.5a1 1 0 0 1 1 1V6a1 1 0 1 1-2 0V3.5a1 1 0 0 1 1-1m8.366 4.789A1 1 0 0 1 20 8.655l-2.098 1.211a1 1 0 1 1-1-1.732L19 6.923a1 1 0 0 1 1.366.366m-16.732 0A1 1 0 0 1 5 6.923l2.098 1.211a1 1 0 0 1-1 1.732L4 8.655a1 1 0 0 1-.366-1.366m3.83 7.211a1 1 0 0 1-.366 1.366L5 17.077a1 1 0 0 1-1-1.732l2.098-1.211a1 1 0 0 1 1.366.366m9.072 0a1 1 0 0 1 1.366-.366L20 15.345a1 1 0 1 1-1 1.732l-2.098-1.211a1 1 0 0 1-.366-1.366M12 17a1 1 0 0 1 1 1v2.5a1 1 0 1 1-2 0V18a1 1 0 0 1 1-1" clip-rule="evenodd"/><path fill="#090404" fill-rule="evenodd" d="m12 4.147 1.689.95a1 1 0 1 0 .98-1.743l-1.811-1.019a1.75 1.75 0 0 0-1.716 0l-1.811 1.02a1 1 0 1 0 .98 1.742zm4.871 1.593a1 1 0 0 1 1.362-.381l1.875 1.054c.551.31.892.893.892 1.526V10a1 1 0 1 1-2 0V8.085l-1.748-.983a1 1 0 0 1-.381-1.362m-9.742 0a1 1 0 0 1-.381 1.362L5 8.085V10a1 1 0 1 1-2 0V7.939c0-.632.34-1.215.892-1.525l1.875-1.055a1 1 0 0 1 1.362.381M4 13a1 1 0 0 1 1 1v1.915l1.748.983a1 1 0 0 1-.98 1.743l-1.876-1.054A1.75 1.75 0 0 1 3 16.06V14a1 1 0 0 1 1-1m16 0a1 1 0 0 1 1 1v2.061a1.75 1.75 0 0 1-.892 1.526l-1.875 1.054a1 1 0 1 1-.98-1.743L19 15.915V14a1 1 0 0 1 1-1M8.95 19.284a1 1 0 0 1 1.361-.381l1.689.95 1.689-.95a1 1 0 0 1 .98 1.743l-1.811 1.019c-.533.3-1.183.3-1.716 0l-1.811-1.02a1 1 0 0 1-.382-1.361" clip-rule="evenodd"/><path fill="#090404" fill-rule="evenodd" d="M14.598 10.5a1 1 0 0 1-.366 1.366L13 12.577V14a1 1 0 1 1-2 0v-1.423l-1.232-.711a1 1 0 1 1 1-1.732l1.232.711 1.232-.711a1 1 0 0 1 1.366.366" clip-rule="evenodd"/></svg>