<svg xmlns="http://www.w3.org/2000/svg" fill="none" viewBox="0 0 24 24"><path fill="#090404" d="M2.75 4a1.25 1.25 0 1 0 2.5 0 1.25 1.25 0 0 0-2.5 0"/><path fill="#090404" d="M18.75 4a1.25 1.25 0 1 0 2.5 0 1.25 1.25 0 0 0-2.5 0"/><path fill="#090404" d="M11.008 5.701a2 2 0 0 1 1.984 0l4 2.286.008.004-5 2.857-5-2.857.008-.004z"/><path fill="#090404" d="M6 9.723v4.554a2 2 0 0 0 1.008 1.736L11 18.294V12.58z"/><path fill="#090404" d="m13 18.295 3.992-2.282A2 2 0 0 0 18 14.277V9.723l-5 2.857z"/><path fill="#090404" d="M18.75 20a1.25 1.25 0 1 0 2.5 0 1.25 1.25 0 0 0-2.5 0"/><path fill="#090404" d="M2.75 20a1.25 1.25 0 1 0 2.5 0 1.25 1.25 0 0 0-2.5 0"/></svg>