<svg xmlns="http://www.w3.org/2000/svg" fill="none" viewBox="0 0 24 24"><path fill="#090404" d="M3 19a2 2 0 0 0 2 2h3a1 1 0 1 0 0-2H5v-3a1 1 0 1 0-2 0z"/><path fill="#090404" d="M3 8a1 1 0 1 0 2 0V5h3a1 1 0 1 0 0-2H5a2 2 0 0 0-2 2z"/><path fill="#090404" d="M16 19a1 1 0 1 0 0 2h3a2 2 0 0 0 2-2v-3a1 1 0 1 0-2 0v3z"/><path fill="#090404" d="M16 3a1 1 0 1 0 0 2h3v3a1 1 0 1 0 2 0V5a2 2 0 0 0-2-2z"/><path fill="#090404" d="M12.744 7.274a1.5 1.5 0 0 0-1.488 0L8.5 8.848l3.5 2 3.5-2z"/><path fill="#090404" d="M7.5 13.71v-3.13l3.5 2v4l-2.744-1.568A1.5 1.5 0 0 1 7.5 13.71"/><path fill="#090404" d="M15.744 15.012 13 16.58v-4l3.5-2v3.13a1.5 1.5 0 0 1-.756 1.302"/></svg>