<svg xmlns="http://www.w3.org/2000/svg" fill="none" viewBox="0 0 24 24"><path fill="#090404" fill-rule="evenodd" d="M21 18.433c0 .252 0 .498-.017.706a2 2 0 0 1-.2.77 2 2 0 0 1-.875.873 2 2 0 0 1-.77.201c-.208.017-.454.017-.706.017H5.568c-.252 0-.499 0-.707-.017a2 2 0 0 1-.77-.2 2 2 0 0 1-.873-.875 2 2 0 0 1-.201-.77C3 18.93 3 18.685 3 18.433V9h18zm-6.363-6.07a.9.9 0 0 0-1.274 0L12 13.727l-1.363-1.364a.9.9 0 0 0-1.274 1.274L10.727 15l-1.364 1.363a.9.9 0 0 0 1.274 1.274L12 16.273l1.363 1.364a.9.9 0 0 0 1.274-1.274L13.273 15l1.364-1.363a.9.9 0 0 0 0-1.274" clip-rule="evenodd"/><path fill="#090404" d="M21 3a1 1 0 0 1 1 1v2a1 1 0 0 1-1 1H3a1 1 0 0 1-1-1V4a1 1 0 0 1 1-1z"/></svg>