<svg xmlns="http://www.w3.org/2000/svg" fill="none" viewBox="0 0 24 24"><path fill="#090404" d="m23.278 14.733-3.188-2.506c-.196-.153-.196-.404 0-.557l3.188-2.506c.196-.153.278-.412.182-.575s-.363-.22-.593-.128l-3.792 1.51c-.23.093-.447-.034-.482-.28l-.57-4.047c-.035-.247-.22-.448-.412-.448-.19 0-.376.201-.41.447l-.57 4.048c-.035.247-.252.373-.483.28L12.42 8.486a1.3 1.3 0 0 0-.838 0L7.85 9.971c-.23.093-.447-.033-.482-.28L6.8 5.643c-.035-.246-.22-.447-.41-.447-.192 0-.377.201-.412.447l-.57 4.048c-.035.247-.252.373-.482.28l-3.792-1.51C.903 8.37.636 8.427.54 8.59s-.014.422.181.575l3.19 2.505c.195.153.195.404 0 .557L.72 14.733c-.195.153-.276.428-.181.61.096.181.363.254.593.162l3.757-1.509c.231-.092.446.033.478.28l.542 4.083c.033.245.248.447.477.447.23 0 .445-.201.478-.447l.543-4.083c.032-.247.247-.372.477-.28l3.696 1.483c.23.093.607.093.838 0l3.695-1.483c.23-.092.445.033.477.28l.543 4.083c.033.245.248.447.477.447.23 0 .444-.201.477-.447l.543-4.083c.033-.247.248-.372.478-.28l3.758 1.509c.229.092.497.02.592-.163.096-.181.015-.455-.18-.609zm-8.112-2.474-2.808 2.162a.62.62 0 0 1-.715 0l-2.809-2.162c-.196-.152-.198-.4-.003-.555l2.814-2.216a.6.6 0 0 1 .71 0l2.814 2.217c.195.153.194.402-.003.554"/></svg>