<svg xmlns="http://www.w3.org/2000/svg" fill="none" viewBox="0 0 24 24"><path fill="#090404" fill-rule="evenodd" d="M4 7.99v9.801c.085.058.227.138.447.23.566.234 1.435.457 2.553.63V8.689l-.003-.004a.05.05 0 0 0-.029-.015C5.817 8.503 4.794 8.276 4 7.991m16 0v9.801a2.5 2.5 0 0 1-.447.23c-.566.234-1.435.457-2.553.63V8.689l.003-.004a.05.05 0 0 1 .029-.015c1.151-.166 2.174-.393 2.968-.678M22 6v12c0 .576-.328.993-.62 1.248-.296.259-.673.46-1.062.62-.785.325-1.847.582-3.059.767-1.224.188-2.259-.781-2.259-1.96v-1.558A37 37 0 0 0 12 17a37 37 0 0 0-3 .117v1.559c0 1.178-1.035 2.147-2.259 1.96-1.212-.186-2.274-.443-3.06-.768-.388-.16-.765-.361-1.061-.62C2.328 18.993 2 18.576 2 18V6c0-.464.216-.83.447-1.08.226-.246.512-.435.795-.584.569-.298 1.326-.537 2.177-.726C7.138 3.228 9.464 3 12 3s4.862.228 6.58.61c.852.189 1.61.428 2.178.726.283.15.569.338.795.584.23.25.447.616.447 1.08" clip-rule="evenodd"/></svg>