<svg xmlns="http://www.w3.org/2000/svg" fill="none" viewBox="0 0 24 24"><path fill="#090404" d="M13.237 2.573a1.75 1.75 0 0 0-2.475 0l-2.47 2.47a1 1 0 0 0 1.415 1.414L11 5.164V11H5.164l1.293-1.293a1 1 0 1 0-1.414-1.414l-2.47 2.47a1.75 1.75 0 0 0 0 2.474l2.47 2.47a1 1 0 0 0 1.414-1.414L5.164 13H11v5.836l-1.293-1.293a1 1 0 0 0-1.414 1.414l2.47 2.47a1.75 1.75 0 0 0 2.474 0l2.47-2.47a1 1 0 0 0-1.414-1.414L13 18.836V13h5.836l-1.293 1.293a1 1 0 0 0 1.414 1.414l2.47-2.47a1.75 1.75 0 0 0 0-2.475l-2.47-2.47a1 1 0 1 0-1.414 1.415L18.836 11H13V5.164l1.293 1.293a1 1 0 1 0 1.414-1.414z"/></svg>