<svg xmlns="http://www.w3.org/2000/svg" fill="none" viewBox="0 0 24 24"><path fill="#090404" fill-rule="evenodd" d="M2.293 2.293a1 1 0 0 1 1.414 0l18 18a1 1 0 0 1-1.414 1.414L17.586 19H6.414l1.293 1.293a1 1 0 1 1-1.414 1.414l-3-3a1 1 0 0 1 0-1.414l3-3a1 1 0 0 1 1.414 1.414L6.414 17h9.172l-10-10H5v4a1 1 0 1 1-2 0V7c0-.702.362-1.32.91-1.677L2.292 3.707a1 1 0 0 1 0-1.414m14 0a1 1 0 0 1 1.414 0l3 3a1 1 0 0 1 0 1.414l-3 3a1 1 0 0 1-1.414-1.414L17.586 7H11a1 1 0 1 1 0-2h6.586l-1.293-1.293a1 1 0 0 1 0-1.414M21 13v2a1 1 0 1 1-2 0v-2a1 1 0 1 1 2 0" clip-rule="evenodd"/></svg>