<svg xmlns="http://www.w3.org/2000/svg" fill="none" viewBox="0 0 24 24"><path fill="#090404" d="M11.37 12.975a1 1 0 0 1 1.337.068l2.5 2.5a1 1 0 1 1-1.414 1.414L13 16.164V20a1 1 0 1 1-2 0v-3.836l-.793.793a1 1 0 1 1-1.414-1.414l2.5-2.5z"/><path fill="#090404" d="M7 4a1 1 0 0 1 0 2H4v12h3a1 1 0 1 1 0 2H4a2 2 0 0 1-2-2V6a2 2 0 0 1 2-2z"/><path fill="#090404" d="M20 4a2 2 0 0 1 2 2v12a2 2 0 0 1-2 2h-3a1 1 0 1 1 0-2h3V6h-3a1 1 0 1 1 0-2z"/><path fill="#090404" d="M12 3a1 1 0 0 1 1 1v3.836l.793-.793a1 1 0 1 1 1.414 1.414l-2.5 2.5a1 1 0 0 1-1.414 0l-2.5-2.5a1 1 0 1 1 1.414-1.414l.793.793V4a1 1 0 0 1 1-1"/></svg>