<svg xmlns="http://www.w3.org/2000/svg" fill="none" viewBox="0 0 24 24"><path fill="#090404" d="M12 14a1 1 0 0 1 1 1v3.586l.793-.793a1 1 0 1 1 1.414 1.414l-2.5 2.5a1 1 0 0 1-1.414 0l-2.5-2.5a1 1 0 0 1 1.414-1.414l.793.793V15a1 1 0 0 1 1-1"/><path fill="#090404" d="M7 8a1 1 0 1 1 0 2H4v4h3a1 1 0 1 1 0 2H4a2 2 0 0 1-1.99-1.796L2 14v-4a2 2 0 0 1 2-2z"/><path fill="#090404" d="M20 8a2 2 0 0 1 2 2v4a2 2 0 0 1-2 2h-3a1 1 0 0 1 0-2h3v-4h-3a1 1 0 0 1 0-2z"/><path fill="#090404" d="M11.37 2.224a1 1 0 0 1 1.337.069l2.5 2.5a1 1 0 0 1-1.414 1.414L13 5.414V9a1 1 0 0 1-2 0V5.414l-.793.793a1 1 0 0 1-1.414-1.414l2.5-2.5z"/></svg>