<svg xmlns="http://www.w3.org/2000/svg" fill="none" viewBox="0 0 24 24"><path fill="#090404" fill-rule="evenodd" d="M10.293 1.293a1 1 0 0 1 1.414 0l3 3a1 1 0 0 1 0 1.414l-3 3a1 1 0 1 1-1.414-1.414L11.586 6H10a6 6 0 0 0-4.286 10.2 1 1 0 1 1-1.428 1.399A8 8 0 0 1 10 4h1.586l-1.293-1.293a1 1 0 0 1 0-1.414M18.3 6.387a1 1 0 0 1 1.414.014A8 8 0 0 1 14 20h-1.586l1.293 1.293a1 1 0 0 1-1.414 1.414l-3-3a1 1 0 0 1 0-1.414l3-3a1 1 0 0 1 1.414 1.414L12.414 18H14a6 6 0 0 0 4.286-10.2 1 1 0 0 1 .014-1.413" clip-rule="evenodd"/></svg>