<svg xmlns="http://www.w3.org/2000/svg" fill="none" viewBox="0 0 24 24"><path fill="#090404" d="M8.793 13.793a1 1 0 1 1 1.414 1.414L7.414 18H9a1 1 0 1 1 0 2H5a1 1 0 0 1-1-1v-4a1 1 0 1 1 2 0v1.586z"/><path fill="#090404" d="M13.793 13.793a1 1 0 0 1 1.414 0L18 16.586V15a1 1 0 1 1 2 0v4a1 1 0 0 1-1 1h-4a1 1 0 1 1 0-2h1.586l-2.793-2.793a1 1 0 0 1 0-1.414"/><path fill="#090404" d="M9 4a1 1 0 0 1 0 2H7.414l2.793 2.793a1 1 0 1 1-1.414 1.414L6 7.414V9a1 1 0 0 1-2 0V5a1 1 0 0 1 1-1z"/><path fill="#090404" d="M19 4a1 1 0 0 1 1 1v4a1 1 0 1 1-2 0V7.414l-2.793 2.793a1 1 0 1 1-1.414-1.414L16.586 6H15a1 1 0 1 1 0-2z"/></svg>