<svg xmlns="http://www.w3.org/2000/svg" fill="none" viewBox="0 0 24 24"><path fill="#090404" fill-rule="evenodd" d="M6.17 5.004c-.553-.029-.814.107-.937.23-.123.122-.258.383-.23.936.03.552.222 1.28.611 2.15.282.628.655 1.304 1.112 2.005a28 28 0 0 1 1.72-1.88 28 28 0 0 1 1.88-1.719 15 15 0 0 0-2.007-1.112c-.869-.39-1.597-.581-2.15-.61m5.83.44c-.985-.688-1.953-1.247-2.863-1.655-.999-.447-1.978-.736-2.863-.782s-1.792.148-2.455.812c-.664.664-.859 1.57-.813 2.455s.336 1.865.783 2.864c.408.91.967 1.877 1.655 2.862-.688.985-1.247 1.953-1.655 2.863-.448.998-.736 1.978-.783 2.863-.046.885.15 1.791.813 2.455.663.663 1.57.859 2.455.813s1.864-.336 2.863-.783c.91-.408 1.878-.967 2.863-1.655.985.688 1.952 1.247 2.862 1.655 1 .447 1.979.736 2.864.783.885.046 1.791-.15 2.455-.813.663-.664.859-1.57.812-2.455s-.335-1.865-.782-2.863c-.408-.91-.967-1.878-1.655-2.863.688-.985 1.247-1.952 1.654-2.862.448-1 .737-1.979.783-2.864s-.149-1.791-.812-2.455c-.664-.663-1.57-.859-2.455-.812s-1.865.335-2.864.782c-.91.408-1.877.967-2.862 1.655m0 2.497A26 26 0 0 0 9.86 9.86 26 26 0 0 0 7.94 12c.569.711 1.211 1.431 1.92 2.14A26 26 0 0 0 12 16.06a26 26 0 0 0 2.14-1.92A26 26 0 0 0 16.06 12a26 26 0 0 0-1.92-2.14A26 26 0 0 0 12 7.94m5.274 2.384a28 28 0 0 0-1.72-1.88 28 28 0 0 0-1.88-1.719 15 15 0 0 1 2.007-1.112c.868-.39 1.597-.581 2.15-.61s.813.107.936.23c.122.122.258.383.23.936-.03.552-.222 1.28-.611 2.15a15 15 0 0 1-1.112 2.005m0 3.35a28 28 0 0 1-1.72 1.88 28 28 0 0 1-1.88 1.719c.702.457 1.378.83 2.007 1.112.868.39 1.597.581 2.15.61s.813-.106.936-.23c.122-.122.258-.383.23-.935-.03-.553-.222-1.282-.611-2.15a15 15 0 0 0-1.112-2.006m-6.949 3.599a28 28 0 0 1-1.88-1.72 28 28 0 0 1-1.719-1.88 15 15 0 0 0-1.112 2.007c-.39.868-.581 1.597-.61 2.15s.106.813.23.936c.122.123.383.258.935.23.553-.03 1.281-.222 2.15-.611a15 15 0 0 0 2.006-1.112" clip-rule="evenodd"/></svg>