<svg xmlns="http://www.w3.org/2000/svg" fill="none" viewBox="0 0 24 24"><path fill="#090404" d="M12 15a6 6 0 0 1 5.883 4.809c.261 1.298-.847 2.19-1.882 2.191H8c-1.036 0-2.144-.893-1.882-2.191A6 6 0 0 1 12 15"/><path fill="#090404" d="M4.998 13.387a1 1 0 0 1 1 1.732l-.844.487a1 1 0 0 1-1-1.732z"/><path fill="#090404" d="M17.635 13.753A1 1 0 0 1 19 13.387l.843.487a1 1 0 0 1-1 1.732l-.843-.487a1 1 0 0 1-.367-1.366"/><path fill="#090404" d="M12 7a3.5 3.5 0 1 1 0 7 3.5 3.5 0 0 1 0-7"/><path fill="#090404" d="M2.636 8.85a1 1 0 0 1 1.159-.812l.987.174a1 1 0 1 1-.347 1.97l-.988-.174a1 1 0 0 1-.81-1.158"/><path fill="#090404" d="M20.204 8.038a1 1 0 0 1 .348 1.97l-.989.174a1 1 0 1 1-.346-1.97z"/><path fill="#090404" d="M5.901 3.234a1 1 0 0 1 1.41.123l.634.757A1 1 0 0 1 6.413 5.4l-.635-.756a1 1 0 0 1 .123-1.409"/><path fill="#090404" d="M16.688 3.357a1 1 0 0 1 1.532 1.286l-.634.756a1 1 0 0 1-1.533-1.285z"/><path fill="#090404" d="M12 1a1 1 0 0 1 1 1v1a1 1 0 0 1-2 0V2a1 1 0 0 1 1-1"/></svg>