<svg xmlns="http://www.w3.org/2000/svg" fill="none" viewBox="0 0 24 24"><path fill="#090404" d="M19 14c.24 0 .457.148.544.373l.696 1.813c.102.263.31.472.575.574l1.812.696a.583.583 0 0 1 0 1.088l-1.812.696c-.264.102-.473.31-.575.575l-.696 1.812a.583.583 0 0 1-1.088 0l-.696-1.812a1 1 0 0 0-.575-.575l-1.812-.696a.583.583 0 0 1 0-1.088l1.813-.696c.263-.102.472-.31.574-.575l.696-1.812A.58.58 0 0 1 19 14"/><path fill="#090404" d="M4 12a1 1 0 0 1 1 1v5h7a1 1 0 1 1 0 2H5a2 2 0 0 1-2-2v-5a1 1 0 0 1 1-1"/><path fill="#090404" d="M19 4a2 2 0 0 1 2 2v5a1 1 0 1 1-2 0V6h-7a1 1 0 1 1 0-2z"/><path fill="#090404" d="M5 2c.24 0 .457.148.544.373l.696 1.813a1 1 0 0 0 .574.574l1.813.696a.583.583 0 0 1 0 1.088l-1.813.696a1 1 0 0 0-.574.574l-.696 1.813a.583.583 0 0 1-1.088 0L3.76 7.814a1 1 0 0 0-.574-.574l-1.813-.696a.583.583 0 0 1 0-1.088l1.813-.696a1 1 0 0 0 .574-.574l.696-1.813A.58.58 0 0 1 5 2"/></svg>