<svg xmlns="http://www.w3.org/2000/svg" fill="none" viewBox="0 0 24 24"><path fill="#090404" d="M14.002 2.401c0-1.484-1.925-2.066-2.748-.832L3.188 13.668c-.665.997.05 2.332 1.248 2.332h5.566V21.6c0 1.484 1.925 2.067 2.748.832l8.066-12.099C21.48 9.335 20.766 8 19.568 8h-5.566z"/><path fill="#090404" fill-rule="evenodd" d="M21.43 14.016a1 1 0 0 1 .798.774l1.5 7a1 1 0 0 1-1.956.42l-.152-.71h-3.36l-.669 1.04a1 1 0 0 1-1.682-1.08l4.5-7a1 1 0 0 1 1.02-.444M19.545 19.5h1.646l-.412-1.92z" clip-rule="evenodd"/></svg>