<svg xmlns="http://www.w3.org/2000/svg" fill="none" viewBox="0 0 24 24"><path fill="#090404" fill-rule="evenodd" d="M12 2a4 4 0 0 1 4 4v1h.642c.987 0 1.827.72 1.977 1.696l.72 4.68a2.58 2.58 0 0 0-3.67 1.097l-.079.182-.538 1.397-1.396.538a2.582 2.582 0 0 0 0 4.82l1.396.537.02.053H5.665a2 2 0 0 1-1.976-2.304l1.692-11A2 2 0 0 1 7.358 7H8V6a4 4 0 0 1 4-4m0 2a2 2 0 0 0-2 2v1h4V6a2 2 0 0 0-2-2" clip-rule="evenodd"/><path fill="#090404" d="m14.373 18.456.49-.19 1.038-.397z"/><path fill="#090404" d="m18.505 15.292-.009-.012z"/><path fill="#090404" d="m19.24 17.185-.696-1.812a.583.583 0 0 0-1.088 0l-.696 1.812a1 1 0 0 1-.575.575l-1.812.696a.583.583 0 0 0 0 1.088l1.812.697a1 1 0 0 1 .575.574l.696 1.812a.583.583 0 0 0 1.088 0l.697-1.812a1 1 0 0 1 .574-.575l1.812-.696a.582.582 0 0 0 0-1.088l-1.812-.697a1 1 0 0 1-.575-.574"/></svg>