<svg xmlns="http://www.w3.org/2000/svg" fill="none" viewBox="0 0 24 24"><path fill="#090404" fill-rule="evenodd" d="M20 4a2 2 0 0 1 2 2v12a2 2 0 0 1-2 2H4a2 2 0 0 1-2-2V6a2 2 0 0 1 2-2zM8.794 8.427a1 1 0 0 0-1.393-.246c-.966.675-1.539 1.469-1.514 2.435.02.822.504 1.529.756 1.922.335.525.439.738.443.896 0 .013.035.26-.661.747a1 1 0 1 0 1.145 1.638c.966-.675 1.54-1.469 1.515-2.435-.02-.822-.505-1.529-.757-1.922-.335-.525-.438-.738-.442-.896 0-.013-.036-.26.66-.747a1 1 0 0 0 .248-1.392m4.515 0a1 1 0 0 0-1.393-.246c-.966.675-1.539 1.469-1.515 2.435.021.822.505 1.529.756 1.922.336.525.44.738.444.896 0 .013.034.26-.662.747a1 1 0 1 0 1.146 1.638c.966-.675 1.539-1.47 1.515-2.435-.021-.822-.506-1.529-.757-1.922-.336-.525-.438-.738-.443-.896 0-.013-.035-.26.662-.747a1 1 0 0 0 .247-1.392m4.5 0a1 1 0 0 0-1.393-.246c-.966.675-1.539 1.469-1.515 2.435.021.822.505 1.529.756 1.922.336.525.44.738.444.896 0 .013.034.26-.661.747a1 1 0 1 0 1.145 1.638c.966-.675 1.539-1.47 1.515-2.435-.021-.822-.506-1.529-.757-1.922-.336-.525-.438-.738-.443-.896 0-.013-.035-.26.662-.747a1 1 0 0 0 .247-1.392" clip-rule="evenodd"/></svg>