<svg xmlns="http://www.w3.org/2000/svg" fill="none" viewBox="0 0 24 24"><path fill="#090404" fill-rule="evenodd" d="M5.676 3.259C7.333 1.777 9.581 1 12 1s4.667.777 6.324 2.259C19.992 4.752 21 6.909 21 9.529c0 3.283-1.38 5.897-3.169 7.683a10.5 10.5 0 0 1-2.938 2.075l.403.604C16.182 21.22 15.229 23 13.632 23h-3.264c-1.597 0-2.55-1.78-1.664-3.11l.403-.603a10.5 10.5 0 0 1-2.938-2.075A10.73 10.73 0 0 1 3 9.529c0-2.62 1.008-4.777 2.676-6.27m5.412 16.662L10.368 21h3.264l-.72-1.079A5.5 5.5 0 0 1 12 20q-.443 0-.912-.079m.888-14.03a1 1 0 0 1-.758 1.193c-1.085.242-1.892.987-2.139 2.127a1 1 0 1 1-1.955-.422c.423-1.954 1.865-3.257 3.658-3.657a1 1 0 0 1 1.194.758" clip-rule="evenodd"/></svg>