<svg xmlns="http://www.w3.org/2000/svg" fill="none" viewBox="0 0 24 24"><path fill="#090404" d="M4.618 3.307A1.95 1.95 0 0 1 6.95 5.219v2.75c.237 4.125 1.996 6.184 4.244 6.89 2.366.745 5.604.107 8.925-1.927l.11-.062a1.54 1.54 0 0 1 1.659.175l.1.09.102.108c.229.271.379.64.349 1.052-.15 2.056-1.743 4.165-3.957 5.528-2.26 1.39-5.32 2.11-8.65 1.264a11.16 11.16 0 0 1-7.238-5.82c-1.233-2.483-1.438-5.391-.044-7.563V5.319c0-.93.657-1.73 1.568-1.912z"/><path fill="#090404" d="M18.21 8.452c.379-.309.907-.404 1.382-.212l.102.046.164.096c.366.253.603.681.584 1.163-.013.31-.049.854-.145 1.494l-.623.4c-3.188 2.05-6.066 2.559-7.931 2.02a3.8 3.8 0 0 1-2.152-1.556c-.337-.492-.638-1.144-.85-1.993 2.89 1.85 6.621 1.233 9.39-1.39z"/></svg>