<svg xmlns="http://www.w3.org/2000/svg" fill="none" viewBox="0 0 24 24"><path fill="#090404" fill-rule="evenodd" d="M17.552 3c1.33 0 2.477 1.026 2.533 2.404.043 1.06.064 2.56-.094 3.73-.117.87-.383 1.925-.608 2.733-.072.257-.144.493-.205.697.627.423 1.128.99 1.467 1.675.977 1.978.412 4.534-1.709 6.297a2.05 2.05 0 0 1-1.312.464c-.871 0-1.534-.5-1.893-1.115a2.6 2.6 0 0 1-.232-2.077l.028-.104c-3.182 2.313-7.32 3.933-11.415 1.813-.73-.379-1.112-1.13-1.112-1.87 0-1.188.928-2.077 1.996-2.216 1.932-.253 3.543-.981 4.91-2.177q-.482.007-.968.078c-.804.119-1.705-.179-2.218-.95-.572-.857-.494-2.153.522-2.82 1.505-.988 3.65-1.722 5.429-1.412q.467.08.904.269l1.598-3.833A2.58 2.58 0 0 1 17.552 3m-1.135 10.734c.36.491.654.98.863 1.483.43 1.03.482 2.068.127 3.192a.6.6 0 0 0 .05.467c.066.113.127.124.167.124q.027-.001.037-.005c1.515-1.261 1.698-2.843 1.19-3.87-.351-.711-1.141-1.35-2.434-1.39M17.552 5a.58.58 0 0 0-.533.355l-1.88 4.51c.289.547.437 1.185.455 1.906a6.2 6.2 0 0 1 1.717.053c.044-.152.096-.317.145-.494.22-.792.455-1.738.553-2.464.133-.982.12-2.333.078-3.38A.52.52 0 0 0 17.552 5m-5.226 5.12c-1.085-.19-2.699.276-3.963 1.098l.001.01a.1.1 0 0 0 .02.045c.024.036.108.103.262.08 1.728-.255 3.365.012 4.946.388-.022-.474-.129-.794-.255-1.005-.19-.316-.508-.528-1.01-.616" clip-rule="evenodd"/></svg>