<svg xmlns="http://www.w3.org/2000/svg" fill="none" viewBox="0 0 24 24"><path fill="#090404" fill-rule="evenodd" d="M2 6a2 2 0 0 1 2-2h3a1 1 0 0 1 0 2H4v3a1 1 0 0 1-2 0zm14-1a1 1 0 0 1 1-1h3a2 2 0 0 1 2 2v3a1 1 0 1 1-2 0V6h-3a1 1 0 0 1-1-1M8 9a1 1 0 0 1 1 1v4a1 1 0 1 1-2 0v-4a1 1 0 0 1 1-1m4 0a1 1 0 0 1 1 1v2a1 1 0 1 1-2 0v-2a1 1 0 0 1 1-1m4 0a1 1 0 0 1 1 1v4a1 1 0 1 1-2 0v-4a1 1 0 0 1 1-1M3 14a1 1 0 0 1 1 1v3h3a1 1 0 1 1 0 2H4a2 2 0 0 1-2-2v-3a1 1 0 0 1 1-1m18 0a1 1 0 0 1 1 1v3a2 2 0 0 1-2 2h-3a1 1 0 1 1 0-2h3v-3a1 1 0 0 1 1-1" clip-rule="evenodd"/></svg>