<svg xmlns="http://www.w3.org/2000/svg" fill="none" viewBox="0 0 24 24"><path fill="#090404" d="M4.113 5.85A9.95 9.95 0 0 0 2.047 11h4.889a8 8 0 0 0-2.823-5.15"/><path fill="#090404" d="M2.047 13a9.95 9.95 0 0 0 2.066 5.152A8 8 0 0 0 6.936 13z"/><path fill="#090404" d="M5.498 4.4a9.98 9.98 0 0 1 3.45 6.6h2.05V2.05a9.96 9.96 0 0 0-5.5 2.35"/><path fill="#090404" d="M12.998 2.05V11h2.05a9.98 9.98 0 0 1 3.45-6.6 9.96 9.96 0 0 0-5.5-2.35"/><path fill="#090404" d="M19.882 5.85A8 8 0 0 0 17.059 11h4.888a9.95 9.95 0 0 0-2.065-5.15"/><path fill="#090404" d="M21.947 13H17.06a8 8 0 0 0 2.822 5.152A9.95 9.95 0 0 0 21.947 13"/><path fill="#090404" d="M18.498 19.6a9.96 9.96 0 0 1-5.5 2.351v-8.95h2.05a9.98 9.98 0 0 0 3.45 6.599"/><path fill="#090404" d="M10.998 21.951v-8.95h-2.05a9.98 9.98 0 0 1-3.45 6.599 9.96 9.96 0 0 0 5.5 2.351"/></svg>