<svg xmlns="http://www.w3.org/2000/svg" fill="none" viewBox="0 0 24 24"><path fill="#090404" d="M19.635 4.168C15.986.648 9.75 1.59 5.67 5.67 2.154 9.189.967 14.31 2.966 17.995c.927-2.084 2.117-3.505 3.482-4.529 1.654-1.24 3.505-1.846 5.185-2.396l.059-.02c1.74-.57 3.3-1.089 4.67-2.115 1.256-.94 2.408-2.354 3.274-4.766"/><path fill="#090404" d="M4.378 19.845c3.652 3.505 9.877 2.558 13.95-1.516 3.513-3.513 4.701-8.624 2.716-12.306-.93 2.075-2.12 3.49-3.484 4.512-1.654 1.239-3.506 1.845-5.185 2.395l-.062.02c-1.739.57-3.297 1.089-4.666 2.115-1.256.942-2.406 2.359-3.269 4.78"/></svg>