<svg xmlns="http://www.w3.org/2000/svg" fill="none" viewBox="0 0 24 24"><path fill="#090404" d="M8.143 2.765a1 1 0 0 1 1.715-1.03l1.5 2.5a1 1 0 0 1 .12.304 3.5 3.5 0 0 1 1.044 0 1 1 0 0 1 .12-.303l1.5-2.5a1 1 0 1 1 1.716 1.029l-1.5 2.5a1 1 0 0 1-.063.092A3.5 3.5 0 0 1 15.5 8a3.5 3.5 0 0 1-1.041 2.49 3.5 3.5 0 0 1-2.03.984 3.5 3.5 0 0 1-.859 0 3.5 3.5 0 0 1-2.439-1.469A3.5 3.5 0 0 1 8.501 8c0-1.055.466-2.001 1.204-2.643a1 1 0 0 1-.062-.092z"/><path fill="#090404" d="M7 10.294c-3.066.804-4.525 3.214-4.9 6.71-.118 1.098.805 2.025 1.892 1.828 3.427-.621 5.102-2.912 5.491-5.94A5.52 5.52 0 0 1 7 10.294"/><path fill="#090404" d="M11.38 13.466c-.247 1.39-.747 2.702-1.578 3.84a7.7 7.7 0 0 1-1.764 1.745q.322.584.73 1.067c.599.706 1.358 1.253 2.232 1.496V22a1 1 0 1 0 2 0v-.386c.874-.243 1.633-.79 2.232-1.496a6.5 6.5 0 0 0 .73-1.067 7.7 7.7 0 0 1-1.764-1.746c-.831-1.137-1.33-2.45-1.578-3.84a5.6 5.6 0 0 1-1.24 0"/><path fill="#090404" d="M14.517 12.892c.389 3.028 2.064 5.319 5.492 5.94 1.086.197 2.008-.73 1.907-1.83-.336-3.642-1.71-5.987-4.901-6.74a5.52 5.52 0 0 1-2.498 2.63"/></svg>