<svg xmlns="http://www.w3.org/2000/svg" fill="none" viewBox="0 0 24 24"><path fill="#090404" fill-rule="evenodd" d="M9.792 2.59a5 5 0 0 1 1.414 0l2.653.38q.211.03.424.03h1.73c.95 0 1.838.475 2.366 1.266l.101.153c.38.57.502 1.273.336 1.937A2.4 2.4 0 0 1 18 7.642v.357a4 4 0 0 1 0 8v3a2 2 0 0 1-2 2h-10a2 2 0 0 1-2-2V7.751a2.3 2.3 0 0 1-.219-.277l-.199-.299A2.687 2.687 0 0 1 5.815 3h.976q.137 0 .273-.018zM17.999 14a2 2 0 0 0 0-4zm-7.075-9.43a3 3 0 0 0-.849 0l-2.727.39Q7.07 5 6.79 5h-.976a.686.686 0 0 0-.57 1.066l.2.299a.3.3 0 0 0 .251.134A2.303 2.303 0 0 1 8 8.802v.253c0 .521.423.944.944.944H9a1 1 0 0 0 1-1v-.056a2.647 2.647 0 0 1 3.081-2.61l.563.093c.18.03.367.016.542-.042l.557-.185a2.6 2.6 0 0 1 1.451-.057l.162.041a.43.43 0 0 0 .461-.654l-.101-.154A.85.85 0 0 0 16.013 5h-1.73q-.355 0-.707-.05z" clip-rule="evenodd"/></svg>