<svg xmlns="http://www.w3.org/2000/svg" fill="none" viewBox="0 0 24 24"><path fill="#090404" fill-rule="evenodd" d="M7 8.5A5.5 5.5 0 0 1 12.5 3c3.073 0 4.953 2.164 5.16 4.408.102 1.117-.209 2.283-1.025 3.174l-.086.09q.684.357 1.196.875c.964.976 1.361 2.271 1.257 3.535C18.792 17.633 16.578 20 13 20a5.98 5.98 0 0 1-4-1.528V19a3 3 0 0 1-3 3 1 1 0 1 1 0-2 1 1 0 0 0 1-1zM9 14a4 4 0 0 0 4 4c2.604 0 3.89-1.633 4.01-3.082.06-.736-.17-1.441-.688-1.965-.515-.521-1.405-.953-2.822-.953a1 1 0 0 1-.138-.01Q13.183 12 13 12a1 1 0 1 1 0-2c1.116 0 1.783-.357 2.16-.77.386-.42.566-1.005.508-1.638C15.552 6.336 14.5 5 12.5 5A3.5 3.5 0 0 0 9 8.5z" clip-rule="evenodd"/></svg>