<svg xmlns="http://www.w3.org/2000/svg" fill="none" viewBox="0 0 24 24"><path fill="#090404" fill-rule="evenodd" d="M12.293 12.293a1 1 0 0 1 .982-.254l7 2a1 1 0 0 1 .2 1.842l-2.987 1.607-1.607 2.986a1 1 0 0 1-1.842-.2l-2-7a1 1 0 0 1 .254-.981m2.163 2.163.83 2.904.584-1.084a1 1 0 0 1 .406-.406l1.084-.584z" clip-rule="evenodd"/><path fill="#090404" d="M4.5 3A1.5 1.5 0 0 0 3 4.5v3A1.5 1.5 0 0 0 4.5 9H5v6h-.5A1.5 1.5 0 0 0 3 16.5v3A1.5 1.5 0 0 0 4.5 21h3A1.5 1.5 0 0 0 9 19.5V19h1a1 1 0 1 0 0-2H9v-.5A1.5 1.5 0 0 0 7.5 15H7V9h.5A1.5 1.5 0 0 0 9 7.5V7h6v.5A1.5 1.5 0 0 0 16.5 9h.5v1a1 1 0 1 0 2 0V9h.5A1.5 1.5 0 0 0 21 7.5v-3A1.5 1.5 0 0 0 19.5 3h-3A1.5 1.5 0 0 0 15 4.5V5H9v-.5A1.5 1.5 0 0 0 7.5 3z"/></svg>