<svg xmlns="http://www.w3.org/2000/svg" fill="none" viewBox="0 0 24 24"><path fill="#090404" fill-rule="evenodd" d="M16.793 13.46a2.65 2.65 0 1 1 3.747 3.747l-3.5 3.5a1 1 0 0 1-.707.293H14a1 1 0 0 1-1-1v-2.333a1 1 0 0 1 .293-.707z" clip-rule="evenodd"/><path fill="#090404" d="M4.5 3A1.5 1.5 0 0 0 3 4.5v3A1.5 1.5 0 0 0 4.5 9H5v6h-.5A1.5 1.5 0 0 0 3 16.5v3A1.5 1.5 0 0 0 4.5 21h3A1.5 1.5 0 0 0 9 19.5V19h1a1 1 0 1 0 0-2H9v-.5A1.5 1.5 0 0 0 7.5 15H7V9h.5A1.5 1.5 0 0 0 9 7.5V7h6v.5A1.5 1.5 0 0 0 16.5 9h.5v1a1 1 0 1 0 2 0V9h.5A1.5 1.5 0 0 0 21 7.5v-3A1.5 1.5 0 0 0 19.5 3h-3A1.5 1.5 0 0 0 15 4.5V5H9v-.5A1.5 1.5 0 0 0 7.5 3z"/></svg>