<svg xmlns="http://www.w3.org/2000/svg" fill="none" viewBox="0 0 24 24"><path fill="#090404" fill-rule="evenodd" d="M9.879 7.121a3 3 0 0 1 0-4.242l1.414-1.414a1 1 0 0 1 1.414 0l1.414 1.414A3 3 0 0 1 13 7.829V9h5.5a2 2 0 0 1 2 2v3.323c0 .498-.184.965-.5 1.323V20a2 2 0 0 1-2 2H6a2 2 0 0 1-2-2v-4.354a2 2 0 0 1-.5-1.323V11a2 2 0 0 1 2-2H11V7.83a3 3 0 0 1-1.121-.709M5.5 11.001h13v3.322l-1.5.6-1.757-.703a2 2 0 0 0-1.486 0L12 14.923l-1.757-.703a2 2 0 0 0-1.486 0L7 14.923l-1.5-.6z" clip-rule="evenodd"/></svg>