<svg xmlns="http://www.w3.org/2000/svg" fill="none" viewBox="0 0 24 24"><path fill="#090404" d="M10.732 14.588c.896.236 2.852.753 3.163-.497.319-1.278-1.579-1.704-2.505-1.912l-.27-.062-.602 2.415q.093.023.214.056"/><path fill="#090404" d="M11.576 11.058c.747.2 2.375.634 2.659-.502.29-1.162-1.293-1.513-2.066-1.684q-.132-.028-.226-.052l-.546 2.191z"/><path fill="#090404" fill-rule="evenodd" d="M9.58 21.7c5.357 1.337 10.783-1.924 12.118-7.28 1.336-5.358-1.924-10.785-7.281-12.12C9.06.963 3.635 4.223 2.3 9.581.963 14.939 4.224 20.365 9.58 21.701m4.623-13.648c1.385.478 2.398 1.193 2.199 2.524-.144.973-.684 1.445-1.4 1.61.983.513 1.484 1.299 1.007 2.661-.592 1.693-1.999 1.835-3.87 1.481l-.454 1.82-1.097-.273.448-1.796q-.426-.105-.874-.227l-.45 1.804-1.096-.273.454-1.823-.31-.08q-.233-.062-.472-.122l-1.428-.356.545-1.256s.808.215.797.199c.311.077.449-.126.503-.26l.718-2.877.079.02.037.008a1 1 0 0 0-.114-.036l.511-2.054c.014-.233-.066-.527-.51-.638.016-.011-.798-.198-.798-.198l.292-1.172 1.513.378v.006q.341.084.7.164l.45-1.801 1.096.273-.44 1.767c.294.067.59.135.878.206l.438-1.755 1.097.274z" clip-rule="evenodd"/></svg>