<svg xmlns="http://www.w3.org/2000/svg" fill="none" viewBox="0 0 24 24"><path fill="#090404" d="M14.577 2.813 7.704 8.595c-3.202 2.695-3.62 7.482-.933 10.694a7.556 7.556 0 0 0 10.665.935l1.718-1.445c1.068-.899 1.07-2.657.311-3.565-.597-.714-2.238-1.419-3.34-.492l1.504-1.265a2.535 2.535 0 0 0 .31-3.565 2.52 2.52 0 0 0-3.554-.311l3.436-2.892a2.535 2.535 0 0 0 .311-3.564 2.52 2.52 0 0 0-3.555-.312"/><path fill="#090404" d="M7.144 3.687a.75.75 0 0 1 .255-.706l.379-.319c1.33-1.118 3.266-.754 4.157.598L7.691 6.722z"/></svg>