<svg xmlns="http://www.w3.org/2000/svg" fill="none" viewBox="0 0 24 24"><path fill="#090404" fill-rule="evenodd" d="M2 7.5a5.5 5.5 0 0 1 10-3.163A5.5 5.5 0 1 1 19.663 12 5.5 5.5 0 1 1 12 19.663 5.5 5.5 0 1 1 4.337 12 5.5 5.5 0 0 1 2 7.5M7.5 11A3.5 3.5 0 1 1 11 7.5v.626c-.367.094-.714.24-1.032.428l-1.26-1.261a1 1 0 0 0-1.415 1.414l1.26 1.261A4 4 0 0 0 8.127 11zm.626 2H7.5a3.5 3.5 0 1 0 3.5 3.5v-.626a4 4 0 0 1-1.032-.428l-1.26 1.261a1 1 0 0 1-1.415-1.414l1.26-1.261A4 4 0 0 1 8.127 13M13 15.874v.626a3.5 3.5 0 1 0 3.5-3.5h-.626c-.095.367-.24.714-.428 1.032l1.261 1.26a1 1 0 0 1-1.414 1.415l-1.261-1.26a4 4 0 0 1-1.032.427M15.874 11h.626A3.5 3.5 0 1 0 13 7.5v.626c.367.094.714.24 1.032.428l1.26-1.261a1 1 0 1 1 1.415 1.414l-1.26 1.261c.187.318.333.665.427 1.032" clip-rule="evenodd"/></svg>