<svg xmlns="http://www.w3.org/2000/svg" fill="none" viewBox="0 0 24 24"><path fill="#090404" fill-rule="evenodd" d="M9.91 3.54c0-1.304 1.508-2.03 2.527-1.214l5.297 4.237a1.556 1.556 0 0 1 0 2.43L13.974 12l3.76 3.008a1.556 1.556 0 0 1 0 2.429l-5.297 4.237c-1.019.815-2.527.09-2.527-1.214v-5.208l-3.563 2.85a1.056 1.056 0 1 1-1.319-1.648l4.882-3.906v-1.096L5.028 7.547a1.056 1.056 0 1 1 1.319-1.649l3.563 2.85zm2.375 7.108-.264-.21V4.695l3.852 3.082zm0 2.704-.264.211v5.74l3.852-3.08z" clip-rule="evenodd"/></svg>