<svg xmlns="http://www.w3.org/2000/svg" fill="none" viewBox="0 0 24 24"><path fill="#090404" d="M12.001 11.454C11.08 9.539 8.566 5.97 6.23 4.212c-1.686-1.27-4.417-2.252-4.417.874 0 .624.356 5.244.566 5.994.727 2.608 3.377 3.273 5.735 2.87-4.121.704-5.17 3.035-2.905 5.366 4.3 4.426 6.18-1.11 6.662-2.53.089-.262.13-.383.13-.276 0-.107.042.014.13.276.482 1.42 2.363 6.956 6.663 2.53 2.264-2.331 1.215-4.662-2.906-5.365 2.358.402 5.009-.263 5.736-2.87.21-.75.566-5.371.566-5.995 0-3.126-2.731-2.144-4.417-.874-2.336 1.76-4.85 5.327-5.772 7.242"/></svg>