<svg xmlns="http://www.w3.org/2000/svg" fill="none" viewBox="0 0 24 24"><path fill="#090404" d="M11.078 2.097c1.321-.829 2.923.19 2.923 1.67V16h6.15c1.89 0 2.724 2.38 1.248 3.562l-2.5 2A2 2 0 0 1 17.65 22H6.351a2 2 0 0 1-1.249-.438l-2.5-2C1.126 18.38 1.961 16 3.852 16H12v-2.429c-2.331-.028-4.666.048-6.867.255-1.355.128-2.66-1.205-2-2.682l.184-.395c1.95-4.044 5.62-7.098 7.633-8.566z"/><path fill="#090404" d="M16 5.596a14.56 14.56 0 0 1 3.975 5.657c.562 1.438-.676 2.72-2.01 2.608a83 83 0 0 0-1.964-.142z"/></svg>