<svg xmlns="http://www.w3.org/2000/svg" fill="none" viewBox="0 0 24 24"><path fill="#090404" fill-rule="evenodd" d="M5 5.875C5 4.38 6.178 3 7.833 3h5c3.037 0 5.334 2.556 5.334 5.5 0 1.083-.311 2.114-.855 2.984A5.6 5.6 0 0 1 19 15.5c0 2.945-2.297 5.5-5.333 5.5H7.833C6.178 21 5 19.62 5 18.125z" clip-rule="evenodd"/><path fill="#090404" fill-rule="evenodd" d="M12.833 10c.646 0 1.334-.578 1.334-1.5 0-.921-.688-1.5-1.334-1.5H9v3z" clip-rule="evenodd"/><path fill="#090404" fill-rule="evenodd" d="M9 14h4.667c.645 0 1.333.579 1.333 1.5 0 .922-.688 1.5-1.333 1.5H9z" clip-rule="evenodd"/></svg>