<svg xmlns="http://www.w3.org/2000/svg" fill="none" viewBox="0 0 24 24"><path fill="#090404" fill-rule="evenodd" d="M8 3a1.5 1.5 0 0 0-1.5 1.5v15A1.5 1.5 0 0 0 8 21h4a1.5 1.5 0 0 0 1.5-1.5v-15A1.5 1.5 0 0 0 12 3zm0 4.5a.5.5 0 0 1 .5-.5h3a.5.5 0 0 1 .5.5v1a.5.5 0 0 1-.5.5h-3a.5.5 0 0 1-.5-.5zm.5 7.5a.5.5 0 0 0-.5.5v1a.5.5 0 0 0 .5.5h3a.5.5 0 0 0 .5-.5v-1a.5.5 0 0 0-.5-.5z" clip-rule="evenodd"/><path fill="#090404" d="M3.5 5A1.5 1.5 0 0 0 2 6.5v13A1.5 1.5 0 0 0 3.5 21H4a1.5 1.5 0 0 0 1.5-1.5v-13A1.5 1.5 0 0 0 4 5z"/><path fill="#090404" fill-rule="evenodd" d="M13.664 8.442a1.5 1.5 0 0 1 1.028-1.855l1.922-.552a1.5 1.5 0 0 1 1.856 1.029l3.307 11.535a1.5 1.5 0 0 1-1.028 1.855l-1.922.552a1.5 1.5 0 0 1-1.856-1.029z" clip-rule="evenodd"/></svg>