<svg xmlns="http://www.w3.org/2000/svg" fill="none" viewBox="0 0 24 24"><path fill="#090404" d="M10 2a2 2 0 0 0-2 2v1a1 1 0 0 0 2 0V4h1a1 1 0 1 0 0-2z"/><path fill="#090404" d="M14 2a1 1 0 1 0 0 2h2a1 1 0 1 0 0-2z"/><path fill="#090404" d="M19 2a1 1 0 1 0 0 2h1v1a1 1 0 1 0 2 0V4a2 2 0 0 0-2-2z"/><path fill="#090404" d="M22 8a1 1 0 1 0-2 0v2a1 1 0 1 0 2 0z"/><path fill="#090404" fill-rule="evenodd" d="M9 8h5a2 2 0 0 1 2 2v5a1 1 0 0 1-1 1h-5a2 2 0 0 1-2-2V9a1 1 0 0 1 1-1" clip-rule="evenodd"/><path fill="#090404" d="M22 13a1 1 0 1 0-2 0v1h-1a1 1 0 1 0 0 2h1a2 2 0 0 0 2-2z"/><path fill="#090404" d="M4 8a2 2 0 0 0-2 2v1a1 1 0 1 0 2 0v-1h1a1 1 0 0 0 0-2z"/><path fill="#090404" d="M4 14a1 1 0 1 0-2 0v2a1 1 0 1 0 2 0z"/><path fill="#090404" d="M4 19a1 1 0 1 0-2 0v1a2 2 0 0 0 2 2h1a1 1 0 1 0 0-2H4z"/><path fill="#090404" d="M16 19a1 1 0 1 0-2 0v1h-1a1 1 0 1 0 0 2h1a2 2 0 0 0 2-2z"/><path fill="#090404" d="M8 20a1 1 0 1 0 0 2h2a1 1 0 1 0 0-2z"/></svg>