<svg xmlns="http://www.w3.org/2000/svg" fill="none" viewBox="0 0 24 24"><path fill="#090404" d="M10 2a2 2 0 0 0-2 2v1a1 1 0 1 0 2 0V4h1a1 1 0 1 0 0-2z"/><path fill="#090404" d="M14 2a1 1 0 1 0 0 2h2a1 1 0 1 0 0-2z"/><path fill="#090404" d="M19 2a1 1 0 1 0 0 2h1v1a1 1 0 1 0 2 0V4a2 2 0 0 0-2-2z"/><path fill="#090404" d="M22 8a1 1 0 1 0-2 0v2a1 1 0 1 0 2 0z"/><path fill="#090404" d="M10 9a1 1 0 0 0-1-1H4a2 2 0 0 0-2 2v10a2 2 0 0 0 2 2h10a2 2 0 0 0 2-2v-5a1 1 0 0 0-1-1h-5z"/><path fill="#090404" d="M22 13a1 1 0 1 0-2 0v1h-1a1 1 0 1 0 0 2h1a2 2 0 0 0 2-2z"/></svg>