<svg xmlns="http://www.w3.org/2000/svg" fill="none" viewBox="0 0 24 24"><path fill="#090404" d="M11 2.613 9.763 2.2a2 2 0 0 0-1.692.202L4.94 4.358A2 2 0 0 0 4 6.054V7.5l-1.2.9A2 2 0 0 0 2 10v3a2 2 0 0 0 .8 1.6l1.2.9v2.446a2 2 0 0 0 .94 1.696l3.13 1.956a2 2 0 0 0 1.693.202L11 21.387v-3.973l-1.482-1.482a2 2 0 1 1 1.414-1.414L12.414 16A2 2 0 0 1 13 17.414v3.973l1.237.413a2 2 0 0 0 1.692-.202l3.131-1.956a2 2 0 0 0 .94-1.696V15.5l1.2-.9A2 2 0 0 0 22 13v-3a2 2 0 0 0-.8-1.6L20 7.5V6.054a2 2 0 0 0-.94-1.696l-3.13-1.956a2 2 0 0 0-1.693-.202L13 2.613v3.973l1.482 1.482A2.002 2.002 0 0 1 17 10a2 2 0 1 1-3.932-.518L11.586 8A2 2 0 0 1 11 6.586z"/></svg>