<svg xmlns="http://www.w3.org/2000/svg" fill="none" viewBox="0 0 24 24"><path fill="#090404" d="M12.578 3c1.326.017 2.367.464 3.216 1.335l.013.003c.05.008.111.014.202.02.076.006.207.014.32.027h.003c1.523.175 2.521 1.104 3.132 2.298l.117.242c.12.264.328.433.81.829.436.357 1.053.882 1.353 1.793.245.741.368 1.603.125 2.476l-.001.003a1 1 0 0 0-.018.366c.009.086.022.177.04.293.017.11.04.25.056.391.155 1.326-.182 2.558-1.11 3.557l-.002.002c-.345.368-.818.717-1.055.916-.617.52-1.363.936-2.259 1.055a3.83 3.83 0 0 1-1.918-.209c-.53.303-1.127.64-1.76.818-.813.228-1.665.2-2.646-.206a.3.3 0 0 0-.058.02c-.103.045-.261.157-.46.367-.395.42-.759 1.021-1.005 1.487A2.08 2.08 0 0 1 7.847 22h-.685c-1.274 0-2.131-1.145-1.878-2.339.056-.265.09-.484.095-.642l-.001-.025c-.34-.395-.617-.718-.93-.98h-.001c-1.268-1.057-1.858-2.448-1.758-4.123l-.007-.022-.037-.111-.06-.172c-.067-.193-.14-.344-.253-.623a4 4 0 0 1-.272-.911c-.245-1.59.284-2.954 1.358-4.02l.003-.003a.8.8 0 0 0 .181-.258c.381-1.105.964-2.029 1.768-2.72.807-.693 1.788-1.108 2.897-1.269l.16-.018a5 5 0 0 1 1.001.026c.325.036.537.068.764.085.703-.511 1.524-.86 2.355-.875z"/></svg>