<svg xmlns="http://www.w3.org/2000/svg" fill="none" viewBox="0 0 24 24"><path fill="#090404" d="M9.5 2c.385 0 .755.062 1.101.177.35.116.55.466.55.834v17.615c0 .32-.15.625-.426.784A4.5 4.5 0 0 1 4 17.5h.063a3.998 3.998 0 0 1-.782-6.435A4.5 4.5 0 0 1 6.01 5.254 3.5 3.5 0 0 1 9.5 2"/><path fill="#090404" d="M14.5 2a3.5 3.5 0 0 1 3.49 3.254 4.5 4.5 0 0 1 2.728 5.811 3.998 3.998 0 0 1-.781 6.435H20a4.5 4.5 0 0 1-6.725 3.91c-.277-.159-.425-.465-.425-.784V3.011c0-.368.199-.718.549-.834A3.5 3.5 0 0 1 14.5 2"/></svg>