<svg xmlns="http://www.w3.org/2000/svg" fill="none" viewBox="0 0 24 24"><path fill="#090404" fill-rule="evenodd" d="M4.263 5.135C5.696 3.259 7.83 2 10.643 2c1.462 0 2.564.175 3.403.535.878.377 1.42.935 1.772 1.578.26.473.418 1.01.541 1.429l.075.248c.15.488.3.854.562 1.168.148.176.382.309.83.439.175.05.35.092.552.14l.195.048c.273.067.583.147.893.26.636.23 1.317.615 1.816 1.374.485.74.718 1.717.718 2.979 0 1.266-.01 2.54-.13 3.696-.119 1.148-.353 2.27-.854 3.2-.52.966-1.325 1.712-2.501 2.054-1.132.328-2.506.253-4.143-.181-.665-.177-1.467-.003-2.504.33q-.2.064-.416.135c-.364.12-.752.249-1.112.347-.51.139-1.085.255-1.657.219-2.397-.152-4.152-1.606-5.238-3.53-1.078-1.908-1.547-4.338-1.427-6.707s.835-4.78 2.245-6.626M11 16.5a3.5 3.5 0 1 0 0-7 3.5 3.5 0 0 0 0 7" clip-rule="evenodd"/></svg>