<svg xmlns="http://www.w3.org/2000/svg" fill="none" viewBox="0 0 24 24"><path fill="#090404" d="M12 1a1 1 0 0 1 1 1v1a1 1 0 1 1-2 0V2a1 1 0 0 1 1-1"/><path fill="#090404" d="M4.222 4.222a1 1 0 0 1 1.414 0l.707.707A1 1 0 0 1 4.93 6.343l-.707-.707a1 1 0 0 1 0-1.414"/><path fill="#090404" d="M19.778 5.636a1 1 0 0 0-1.414-1.414l-.707.707a1 1 0 0 0 1.414 1.414z"/><path fill="#090404" d="M1 12a1 1 0 0 1 1-1h1a1 1 0 1 1 0 2H2a1 1 0 0 1-1-1"/><path fill="#090404" d="M21 11a1 1 0 1 0 0 2h1a1 1 0 1 0 0-2z"/><path fill="#090404" d="M17.657 17.657a1 1 0 0 1 1.414 0l.707.707a1 1 0 0 1-1.414 1.414l-.707-.707a1 1 0 0 1 0-1.414"/><path fill="#090404" d="M6.343 19.071a1 1 0 1 0-1.414-1.414l-.707.707a1 1 0 1 0 1.414 1.414z"/><path fill="#090404" d="M12 20a1 1 0 0 1 1 1v1a1 1 0 1 1-2 0v-1a1 1 0 0 1 1-1"/><path fill="#090404" d="M6 12a6 6 0 1 1 12 0 6 6 0 0 1-12 0"/></svg>