<svg xmlns="http://www.w3.org/2000/svg" fill="none" viewBox="0 0 24 24"><path fill="#090404" fill-rule="evenodd" d="M5.757 1.03a1 1 0 0 1 1.213.728l.5 2a1 1 0 1 1-1.94.485l-.5-2a1 1 0 0 1 .727-1.213m12.778 4.436a5.003 5.003 0 0 0-7.076 0l-.005.004-.752.742a1 1 0 1 1-1.404-1.423l.749-.74a7.003 7.003 0 0 1 9.904 9.905l-.002.002-.737.747a1 1 0 1 1-1.424-1.405l.747-.756a5.003 5.003 0 0 0 0-7.076M1.03 5.758a1 1 0 0 1 1.213-.728l2 .5a1 1 0 0 1-.486 1.94l-2-.5a1 1 0 0 1-.727-1.212m5.172 3.53a1 1 0 0 1 .01 1.415l-.747.756a5.004 5.004 0 0 0 7.076 7.076l.005-.005.752-.742a1 1 0 1 1 1.404 1.424l-.746.737-.003.002a7.003 7.003 0 0 1-9.904-9.904l.74-.75a1 1 0 0 1 1.413-.008m12.828 7.97a1 1 0 0 1 1.212-.728l2 .5a1 1 0 1 1-.485 1.94l-2-.5a1 1 0 0 1-.727-1.212m-1.773 1.772a1 1 0 0 1 1.213.728l.5 2a1 1 0 1 1-1.94.485l-.5-2a1 1 0 0 1 .727-1.213" clip-rule="evenodd"/></svg>