<svg xmlns="http://www.w3.org/2000/svg" fill="none" viewBox="0 0 24 24"><path fill="#090404" fill-rule="evenodd" d="M8.553 1.106a1 1 0 0 1 1.341.447l1 2a1 1 0 1 1-1.788.894l-1-2a1 1 0 0 1 .447-1.341m6.894 0a1 1 0 0 1 .447 1.341l-1 2a1 1 0 1 1-1.788-.894l1-2a1 1 0 0 1 1.341-.447M1 8a2 2 0 0 1 2-2h5a1 1 0 1 1 0 2H3v8h5a1 1 0 1 1 0 2H3a2 2 0 0 1-2-2zm14-1a1 1 0 0 1 1-1h5a2 2 0 0 1 2 2v8a2 2 0 0 1-2 2h-5a1 1 0 1 1 0-2h5V8h-5a1 1 0 0 1-1-1m-4.553 12.106a1 1 0 0 1 .447 1.341l-1 2a1 1 0 1 1-1.788-.894l1-2a1 1 0 0 1 1.341-.447m3.106 0a1 1 0 0 1 1.341.447l1 2a1 1 0 1 1-1.788.894l-1-2a1 1 0 0 1 .447-1.341" clip-rule="evenodd"/></svg>