<svg xmlns="http://www.w3.org/2000/svg" fill="none" viewBox="0 0 24 24"><path fill="#090404" fill-rule="evenodd" d="M12 2a8.25 8.25 0 1 1 0 16.5A8.25 8.25 0 0 1 12 2m-.02 4.25q-.823 0-1.468.295a2.5 2.5 0 0 0-1.015.816 2 2 0 0 0-.191.328c-.208.45.216.873.71.873.457 0 .585 0 1.018-.458a.95.95 0 0 1 .39-.306q.251-.109.556-.109.291 0 .511.109.225.108.348.306.126.194.123.45a.77.77 0 0 1-.143.47.95.95 0 0 1-.406.313q-.256.111-.597.112h-.085a.656.656 0 0 0 0 1.313h.085q.389 0 .672.115.288.116.444.325t.153.477a.8.8 0 0 1-.139.477.97.97 0 0 1-.394.324q-.25.116-.578.117-.33 0-.586-.109a1 1 0 0 1-.358-.242q-.05-.056-.103-.107c-.425-.393-.556-.393-1.008-.393-.525 0-.975.452-.741.922q.077.155.181.298.389.53 1.06.83.675.3 1.547.299.894 0 1.585-.29.693-.296 1.08-.806.393-.514.392-1.179.004-.704-.45-1.174-.444-.461-1.31-.57a.034.034 0 0 1-.03-.034c0-.017.013-.031.03-.034q.643-.102 1.055-.51.426-.418.422-1.063 0-.623-.346-1.115a2.35 2.35 0 0 0-.97-.783Q12.8 6.25 11.98 6.25" clip-rule="evenodd"/><path fill="#090404" d="M16.5 22a1 1 0 0 1-1.274.962L12 22.04l-3.226.922A1 1 0 0 1 7.5 22v-3.382A9.46 9.46 0 0 0 12 19.75c1.628 0 3.16-.41 4.5-1.132z"/></svg>