<svg xmlns="http://www.w3.org/2000/svg" fill="none" viewBox="0 0 24 24"><path fill="#090404" d="m20.574 6.829-2.54 4.563 1.209.668a2 2 0 0 1 .782 2.719l-.354.636a1 1 0 0 1-1.357.389l-9.96-5.508a1 1 0 0 1-.39-1.362l.352-.632a2 2 0 0 1 2.715-.779l1.247.69 2.606-4.568a3.27 3.27 0 0 1 4.418-1.237 3.245 3.245 0 0 1 1.272 4.42"/><path fill="#090404" d="M7.364 12.03c-.45.366-.905.613-1.375.767-.774.254-1.677.282-2.798.044a1 1 0 0 0-1.197 1.124c.574 3.814 4.081 6.801 7.478 7.726 1.724.47 3.575.454 5.109-.393 1.32-.729 2.267-1.998 2.704-3.78z"/></svg>