<svg xmlns="http://www.w3.org/2000/svg" fill="none" viewBox="0 0 24 24"><path fill="#090404" fill-rule="evenodd" d="M5.002 3h14a2 2 0 0 1 2 2v12.036a2 2 0 0 1-2 2h-3.626l-2.74 2.27a1 1 0 0 1-1.28-.004l-2.704-2.266h-3.65a2 2 0 0 1-2-2V5a2 2 0 0 1 2-2M12 7c.315 0 .571.256.571.571 0 1.121.248 1.798.654 2.204.406.405 1.083.654 2.203.654a.571.571 0 1 1 0 1.142c-1.12 0-1.797.249-2.203.655-.406.405-.654 1.082-.654 2.203a.571.571 0 0 1-1.143 0c0-1.121-.248-1.798-.654-2.203-.406-.406-1.082-.655-2.203-.655a.571.571 0 1 1 0-1.142c1.12 0 1.797-.249 2.203-.654.406-.406.654-1.083.654-2.204 0-.315.256-.571.572-.571" clip-rule="evenodd"/></svg>