<svg xmlns="http://www.w3.org/2000/svg" fill="none" viewBox="0 0 24 24"><path fill="#090404" d="m20.24 4.185-.696-1.812a.582.582 0 0 0-1.088 0l-.697 1.812a1 1 0 0 1-.574.575l-1.812.696a.582.582 0 0 0 0 1.088l1.812.696a1 1 0 0 1 .575.575l.696 1.812a.582.582 0 0 0 1.088 0l.697-1.812a1 1 0 0 1 .574-.575l1.812-.696a.582.582 0 0 0 0-1.088l-1.812-.696a1 1 0 0 1-.575-.575"/><path fill="#090404" d="M16.052 3.052 13 4.227v3.546l3.052 1.174L17.227 12h3.546l1.174-3.053.055-.021v8.11a2 2 0 0 1-2 2h-4.627l-2.74 2.27a1 1 0 0 1-1.28-.004l-2.703-2.266h-4.65a2 2 0 0 1-2-2V5a2 2 0 0 1 2-2h12.07z"/></svg>