<svg xmlns="http://www.w3.org/2000/svg" fill="none" viewBox="0 0 24 24"><path fill="#090404" fill-rule="evenodd" d="M19.002 3a2 2 0 0 1 2 2v12.036a2 2 0 0 1-2 2h-3.626l-2.74 2.27a1 1 0 0 1-1.28-.004l-2.704-2.266h-3.65a2 2 0 0 1-2-2V5a2 2 0 0 1 2-2zM12 7a.58.58 0 0 0-.544.373l-.696 1.813a1 1 0 0 1-.575.574l-1.812.696a.583.583 0 0 0 0 1.088l1.812.696c.264.102.473.31.575.575l.696 1.812a.583.583 0 0 0 1.087 0l.698-1.812a1 1 0 0 1 .574-.575l1.811-.696a.583.583 0 0 0 0-1.088l-1.811-.696a1 1 0 0 1-.574-.574l-.698-1.813A.58.58 0 0 0 12 7" clip-rule="evenodd"/></svg>