<svg xmlns="http://www.w3.org/2000/svg" fill="none" viewBox="0 0 24 24"><path fill="#090404" fill-rule="evenodd" d="M4.002 3h16a2 2 0 0 1 2 2v12.036a2 2 0 0 1-2 2h-4.626l-2.74 2.27a1 1 0 0 1-1.28-.004l-2.704-2.266h-4.65a2 2 0 0 1-2-2V5a2 2 0 0 1 2-2M7.5 10.033C7.5 8.91 8.406 8 9.523 8c1.113 0 2.017.904 2.023 2.02.059 1.15-.184 1.986-.658 2.66-.462.656-1.12 1.12-1.79 1.57a.45.45 0 0 1-.624-.126.453.453 0 0 1 .125-.626c.679-.455 1.201-.838 1.554-1.34q.084-.12.157-.251a2.028 2.028 0 0 1-2.81-1.874m4.945 0c0-1.123.906-2.033 2.023-2.033 1.114 0 2.017.904 2.023 2.02.059 1.15-.184 1.986-.658 2.66-.462.656-1.12 1.12-1.79 1.57a.45.45 0 0 1-.623-.126.453.453 0 0 1 .125-.626c.678-.455 1.2-.838 1.554-1.34q.084-.12.156-.251c-.242.102-.507.16-.787.16a2.03 2.03 0 0 1-2.023-2.034" clip-rule="evenodd"/></svg>