<svg xmlns="http://www.w3.org/2000/svg" fill="none" viewBox="0 0 24 24"><path fill="#090404" fill-rule="evenodd" d="m7.917 5.686.091.196C5.06 7.262 3 10.127 3 13.5c0 4.754 4.092 8.5 9 8.5 4.91 0 9-3.746 9-8.5 0-3.373-2.06-6.239-5.009-7.619l.091-.195C16.656 4.502 17.272 4 17.922 4c.386 0 .637.188.835.462a2 2 0 0 1 .27.526l.008.025a1 1 0 0 0 1.932-.518v-.002l-.001-.002-.002-.004-.002-.01-.009-.03-.027-.085a4.009 4.009 0 0 0-.55-1.074C19.94 2.687 19.154 2 17.924 2c-1.887 0-3.003 1.498-3.64 2.814q-.1.206-.191.418a9.5 9.5 0 0 0-4.185 0q-.09-.211-.19-.418C9.078 3.498 7.962 2 6.076 2c-1.231 0-2.018.687-2.455 1.288a4 4 0 0 0-.576 1.16l-.009.029-.003.01v.004l-.001.002v.002a1 1 0 1 0 1.939.493q.013-.041.047-.126c.048-.114.12-.26.222-.4.199-.274.45-.462.835-.462.652 0 1.267.502 1.84 1.686M10.5 13.75c0 .966-.672 1.75-1.5 1.75s-1.5-.784-1.5-1.75S8.172 12 9 12s1.5.784 1.5 1.75m3 3.25c0 .552-.672 1-1.5 1s-1.5-.448-1.5-1 .672-1 1.5-1 1.5.448 1.5 1m1.5-1.5c.828 0 1.5-.784 1.5-1.75S15.828 12 15 12s-1.5.784-1.5 1.75.672 1.75 1.5 1.75" clip-rule="evenodd"/></svg>