<svg xmlns="http://www.w3.org/2000/svg" fill="none" viewBox="0 0 24 24"><path fill="#090404" d="M7.355 10.627a.652.652 0 0 1 .848.853.651.651 0 1 1-.848-.853"/><path fill="#090404" d="M15.14 10.627a.652.652 0 0 1 .848.853.65.65 0 0 1-.603.4h-.006a.651.651 0 0 1-.24-1.253"/><path fill="#090404" fill-rule="evenodd" d="M12 2.25c1.515 0 2.81 1.298 6.217 3.143C21.114 6.945 23 9.563 23 12.527c0 4.78-4.925 8.655-11 8.655S1 17.307 1 12.527c0-2.964 1.886-5.582 4.783-7.134S10.485 2.25 12 2.25m-1.91 12.316a.226.226 0 0 0-.252.255c.138.577.454 1.095.905 1.48.353.34.81.548 1.298.591a2.14 2.14 0 0 0 1.257-.59c.455-.384.777-.903.918-1.48a.23.23 0 0 0-.148-.243.2.2 0 0 0-.1-.013zm-1.613-4.495a1.733 1.733 0 1 0-.678 3.398 1.733 1.733 0 0 0 .678-3.398m7.797.001a1.733 1.733 0 0 0-1.572 2.918 1.732 1.732 0 1 0 1.572-2.918" clip-rule="evenodd"/></svg>