<svg xmlns="http://www.w3.org/2000/svg" fill="none" viewBox="0 0 24 24"><path fill="#090404" d="M12 3c-1.455 0-3.651.405-5.517 1.588C4.778 5.669 3.35 7.41 3.056 10c-.063.55.392.999.944.999h16c.553 0 1.007-.45.945-.999-.293-2.591-1.722-4.332-3.427-5.413C15.652 3.405 13.456 3 12 3"/><path fill="#090404" d="M3 18a1 1 0 0 1 1-1h16a1 1 0 0 1 1 1v.442c0 .248 0 .49-.016.694-.019.225-.061.49-.195.758a2 2 0 0 1-.895.895 2 2 0 0 1-.758.195c-.205.016-.447.016-.694.016H5.558c-.248 0-.49 0-.694-.016a2 2 0 0 1-.758-.195 2 2 0 0 1-.895-.895 2 2 0 0 1-.195-.758A9 9 0 0 1 3 18.44z"/><path fill="#090404" d="M2.5 13a.5.5 0 0 0-.5.5v1a.5.5 0 0 0 .5.5h19a.5.5 0 0 0 .5-.5v-1a.5.5 0 0 0-.5-.5z"/></svg>