<svg xmlns="http://www.w3.org/2000/svg" fill="none" viewBox="0 0 24 24"><path fill="#090404" d="M11 22v-2a1 1 0 1 1 2 0v2a1 1 0 1 1-2 0m-4.207-6.207a1 1 0 1 1 1.414 1.414l-2.5 2.5a1 1 0 1 1-1.414-1.414zm9 0a1 1 0 0 1 1.414 0l2.5 2.5a1 1 0 1 1-1.414 1.414l-2.5-2.5a1 1 0 0 1 0-1.414M4 11a1 1 0 1 1 0 2H2a1 1 0 1 1 0-2zm18 0a1 1 0 1 1 0 2h-2a1 1 0 1 1 0-2zM4.293 4.293a1 1 0 0 1 1.414 0l2.5 2.5a1 1 0 1 1-1.414 1.414l-2.5-2.5a1 1 0 0 1 0-1.414m14 0a1 1 0 1 1 1.414 1.414l-2.5 2.5a1 1 0 1 1-1.414-1.414zM11 4V2a1 1 0 1 1 2 0v2a1 1 0 1 1-2 0"/></svg>