<svg xmlns="http://www.w3.org/2000/svg" fill="none" viewBox="0 0 24 24"><path fill="#090404" fill-rule="evenodd" d="M21 5a2 2 0 0 0-2-2H5a2 2 0 0 0-2 2v2H2a1 1 0 0 0 0 2h1v2.5h18V9h1a1 1 0 1 0 0-2h-1zM9 5.5a.9.9 0 0 0 .9.9h4.2a.9.9 0 1 0 0-1.8H9.9a.9.9 0 0 0-.9.9" clip-rule="evenodd"/><path fill="#090404" fill-rule="evenodd" d="M21 13H3v7a1 1 0 0 0 1 1h2a1 1 0 0 0 1-1v-1h10v1a1 1 0 0 0 1 1h2a1 1 0 0 0 1-1zM9 16a1 1 0 0 1-1 1H7a1 1 0 1 1 0-2h1a1 1 0 0 1 1 1m6 0a1 1 0 0 0 1 1h1a1 1 0 1 0 0-2h-1a1 1 0 0 0-1 1" clip-rule="evenodd"/></svg>