<svg xmlns="http://www.w3.org/2000/svg" fill="none" viewBox="0 0 24 24"><path fill="#090404" fill-rule="evenodd" d="M13.49 2.55a3 3 0 0 0-2.98 0l-6 3.434A3 3 0 0 0 3 8.587v6.824a3 3 0 0 0 1.51 2.604l6 3.434a3 3 0 0 0 2.98 0l6-3.434A3 3 0 0 0 21 15.41V8.587a3 3 0 0 0-1.51-2.603zm3.94 10.022h1.514v-.944H17.43V10.12h-.945v1.508h-1.522v.944h1.522v1.502h.945zm-3.199 0h-1.515v1.502h-.945v-1.502H10.25v-.944h1.522V10.12h.945v1.508h1.515zm-6.756 1.1c-.75 0-1.282-.654-1.282-1.672s.532-1.672 1.282-1.672c.555 0 .953.349 1.08.914l1.178-.387c-.33-.973-1.095-1.605-2.25-1.605-1.478 0-2.543 1.137-2.543 2.75s1.065 2.75 2.543 2.75c1.155 0 1.92-.632 2.25-1.605l-1.178-.387c-.127.565-.525.914-1.08.914" clip-rule="evenodd"/></svg>