<svg xmlns="http://www.w3.org/2000/svg" fill="none" viewBox="0 0 24 24"><path fill="#090404" fill-rule="evenodd" d="M9 14a7 7 0 1 1 14 0 7 7 0 0 1-14 0m7-3a1 1 0 0 1 1 1v1.586l1.374 1.374a1 1 0 0 1-1.415 1.414l-1.666-1.667A1 1 0 0 1 15 14v-2a1 1 0 0 1 1-1" clip-rule="evenodd"/><path fill="#090404" d="M1.248 7.378A2 2 0 0 1 2.87 5.061l10.833-1.91a2 2 0 0 1 2.317 1.623l.04.226h-.058a8.98 8.98 0 0 0-6.698 2.989l-7.71 1.359z"/><path fill="#090404" d="m7.802 10.284-5.86 1.034 1.042 5.908a2 2 0 0 0 2.317 1.623l2.82-.498A8.96 8.96 0 0 1 7.002 14c0-1.325.287-2.583.801-3.716"/></svg>