<svg xmlns="http://www.w3.org/2000/svg" fill="none" viewBox="0 0 24 24"><path fill="#090404" d="M8 2a1 1 0 0 1 1 1v1h6V3a1 1 0 1 1 2 0v1h2a2 2 0 0 1 2 2v3a1 1 0 0 1-1 1H5v9h5a1 1 0 1 1 0 2H5a2 2 0 0 1-2-2V6a2 2 0 0 1 2-2h2V3a1 1 0 0 1 1-1"/><path fill="#090404" d="M17 14.375c-.333 0-.654.062-.951.174l.597.597a.5.5 0 0 1-.353.854H14a1 1 0 0 1-1-1v-2.293a.5.5 0 0 1 .854-.353l.706.706a4.7 4.7 0 0 1 2.44-.685 4.63 4.63 0 0 1 4.447 3.35 1 1 0 0 1-1.923.55 2.63 2.63 0 0 0-2.524-1.9"/><path fill="#090404" d="M14.476 17.725a1 1 0 1 0-1.923.55A4.63 4.63 0 0 0 17 21.625c.887 0 1.727-.25 2.44-.685l.706.706a.5.5 0 0 0 .854-.353V19a1 1 0 0 0-1-1h-2.293a.5.5 0 0 0-.353.854l.597.597a2.7 2.7 0 0 1-.951.174 2.63 2.63 0 0 1-2.524-1.9"/></svg>