<svg xmlns="http://www.w3.org/2000/svg" fill="none" viewBox="0 0 24 24"><path fill="#090404" d="M9 3a1 1 0 0 0-2 0v1H5a2 2 0 0 0-2 2v13a2 2 0 0 0 2 2h6a1 1 0 1 0 0-2H5v-9h14v1a1 1 0 1 0 2 0V6a2 2 0 0 0-2-2h-2V3a1 1 0 1 0-2 0v1H9z"/><path fill="#090404" d="m19.24 16.185-.696-1.812a.582.582 0 0 0-1.088 0l-.697 1.812a1 1 0 0 1-.574.575l-1.812.696a.582.582 0 0 0 0 1.088l1.812.697a1 1 0 0 1 .575.574l.696 1.812a.582.582 0 0 0 1.088 0l.697-1.812a1 1 0 0 1 .574-.575l1.812-.696a.582.582 0 0 0 0-1.088l-1.812-.697a1 1 0 0 1-.575-.574"/></svg>