<svg xmlns="http://www.w3.org/2000/svg" fill="none" viewBox="0 0 24 24"><path fill="#090404" d="M20.707 4.707a1 1 0 0 0-1.414-1.414l-8.457 8.457c-.49-.58-.927-1.206-1.302-1.872l.75-.749a2 2 0 0 0 .5-1.988L9.97 4.425A2 2 0 0 0 8.055 3H4.999c-1.089 0-2.04.895-1.968 2.062a16.93 16.93 0 0 0 4.261 10.232l-4 3.999a1 1 0 1 0 1.415 1.414z"/><path fill="#090404" d="M18.937 20.967a16.9 16.9 0 0 1-8.65-3.012l3.617-3.616q.107.064.216.125l.75-.749a2 2 0 0 1 1.988-.501l2.715.814a2 2 0 0 1 1.425 1.916V19c0 1.088-.895 2.04-2.061 1.967"/></svg>