<svg xmlns="http://www.w3.org/2000/svg" fill="none" viewBox="0 0 24 24"><path fill="#090404" d="M4.999 3c-1.089 0-2.04.895-1.968 2.062.527 8.543 7.362 15.378 15.906 15.905 1.166.072 2.061-.879 2.061-1.967v-3.056a2 2 0 0 0-1.425-1.916l-2.715-.814a2 2 0 0 0-1.989.501l-.749.75a12.06 12.06 0 0 1-4.586-4.587l.75-.749a2 2 0 0 0 .5-1.988L9.97 4.425A2 2 0 0 0 8.055 3z"/><path fill="#090404" d="M20 9a1 1 0 0 1-1 1h-4a1 1 0 0 1-1-1V5a1 1 0 1 1 2 0v1.586l3.293-3.293a1 1 0 1 1 1.414 1.414L17.414 8H19a1 1 0 0 1 1 1"/></svg>