<svg xmlns="http://www.w3.org/2000/svg" fill="none" viewBox="0 0 24 24"><path fill="#090404" fill-rule="evenodd" d="M13.965 3c.435 0 .85.144 1.19.396l-.5.194a2.582 2.582 0 0 0 0 4.82l1.397.537.538 1.398a2.582 2.582 0 0 0 4.82 0l.537-1.398.053-.02V19a2 2 0 0 1-2 2H4a2 2 0 0 1-2-2V8a2 2 0 0 1 2-2h2.965L8.37 3.89A2 2 0 0 1 10.035 3zM12 10a3.5 3.5 0 1 0 0 7 3.5 3.5 0 0 0 0-7" clip-rule="evenodd"/><path fill="#090404" d="m16.407 5.059-1.034.397a1 1 0 0 0-.08.04l-.001-.002a1 1 0 0 1 .081-.038l.49-.19.543-.208z"/><path fill="#090404" d="m20.24 4.185-.696-1.812a.582.582 0 0 0-1.088 0l-.697 1.812a1 1 0 0 1-.574.575l-1.812.696a.583.583 0 0 0 0 1.088l1.812.696a1 1 0 0 1 .575.575l.696 1.812a.582.582 0 0 0 1.088 0l.697-1.812a1 1 0 0 1 .574-.575l1.812-.696a.582.582 0 0 0 0-1.088l-1.812-.696a1 1 0 0 1-.575-.575"/></svg>