<svg xmlns="http://www.w3.org/2000/svg" fill="none" viewBox="0 0 24 24"><path fill="#090404" fill-rule="evenodd" d="M11.535 4A4 4 0 0 0 11 6v5a4 4 0 0 0 4 4h5c.729 0 1.412-.195 2-.535V19a2 2 0 0 1-2 2H4a2 2 0 0 1-2-2V6a2 2 0 0 1 2-2zM5 17a1 1 0 0 1 1-1h2a1 1 0 1 1 0 2H6a1 1 0 0 1-1-1" clip-rule="evenodd"/><path fill="#090404" fill-rule="evenodd" d="M15 4a2 2 0 0 0-2 2v5a2 2 0 0 0 2 2h5a2 2 0 0 0 2-2V6a2 2 0 0 0-2-2zm1.25 4.5a1.25 1.25 0 1 0 2.5 0 1.25 1.25 0 0 0-2.5 0" clip-rule="evenodd"/></svg>