<svg xmlns="http://www.w3.org/2000/svg" fill="none" viewBox="0 0 24 24"><path fill="#090404" d="M5.914 14.287a6.52 6.52 0 0 0 3.798 3.798c-.217 1.175-.57 2.345-1.095 3.285-.496.889-1.662.836-2.381.116l-3.723-3.722c-.72-.72-.772-1.886.116-2.382.94-.525 2.11-.877 3.285-1.095"/><path fill="#090404" d="M12 7a5 5 0 1 1 0 10 5 5 0 0 1 0-10"/><path fill="#090404" d="M15.382 2.63c.496-.889 1.661-.836 2.38-.116l3.724 3.722c.72.72.772 1.886-.117 2.382-.94.525-2.111.876-3.286 1.094a6.52 6.52 0 0 0-3.797-3.797c.218-1.175.571-2.345 1.096-3.285"/></svg>