<svg xmlns="http://www.w3.org/2000/svg" fill="none" viewBox="0 0 24 24"><path fill="#090404" fill-rule="evenodd" d="M9.516 5.393A8 8 0 0 0 4 13v.473a24 24 0 0 1 3.752-1.183c.042-2.694.892-5.21 1.764-6.897m2.234.124c-.779 1.194-1.855 3.68-1.987 6.429a19 19 0 0 1 3.971-.053c-.143-2.728-1.21-5.19-1.984-6.376m3.996 6.668c1.399.276 2.812.705 4.254 1.288V13c0-3.765-2.6-6.923-6.104-7.774.89 1.663 1.786 4.215 1.85 6.959M2 13C2 7.477 6.477 3 12 3s10 4.477 10 10v5.43c0 1.484-1.52 2.39-2.814 1.872-4.947-1.985-9.425-1.985-14.372 0C3.521 20.82 2 19.914 2 18.429z" clip-rule="evenodd"/></svg>