<svg xmlns="http://www.w3.org/2000/svg" fill="none" viewBox="0 0 24 24"><path fill="#090404" fill-rule="evenodd" d="M7.712 4c-1.893 0-3.596.735-4.817 2.091C1.679 7.441 1 9.34 1 11.581V16a2 2 0 0 0 2 2h.837a3.5 3.5 0 0 0 6.326 0h3.674a3.5 3.5 0 0 0 6.326 0h.91A1.926 1.926 0 0 0 23 16.074v-1.507a6.57 6.57 0 0 0-5.282-6.443.4.4 0 0 1-.237-.15L15.4 5.2A3 3 0 0 0 13 4zM5.5 16.5a1.5 1.5 0 1 1 3 0 1.5 1.5 0 0 1-3 0m10 0a1.5 1.5 0 1 1 3 0 1.5 1.5 0 0 1-3 0M11.917 10h2.076a.25.25 0 0 1 .199.402l-2.949 3.846c-.156.204-.481.068-.446-.186L11.084 12H9.007a.25.25 0 0 1-.199-.402l2.95-3.846c.155-.204.48-.068.445.186z" clip-rule="evenodd"/></svg>