<svg xmlns="http://www.w3.org/2000/svg" fill="none" viewBox="0 0 24 24"><path fill="#090404" d="M13.5 4a2 2 0 0 1 1.6.8l2.47 3.295 3.823.763A2 2 0 0 1 23 10.82V16a2 2 0 0 1-2 2h-.837a3.5 3.5 0 0 1-6.326 0h-3.674a3.5 3.5 0 0 1-6.326 0H3a2 2 0 0 1-2-2v-5.465a2 2 0 0 1 .89-1.664L4.28 7.28 5.87 4.891A2 2 0 0 1 7.535 4zM7 15a1.5 1.5 0 1 0 0 3 1.5 1.5 0 0 0 0-3m10 0a1.5 1.5 0 1 0 0 3 1.5 1.5 0 0 0 0-3m-4.797-7.062c.035-.254-.29-.39-.446-.186l-2.948 3.846a.25.25 0 0 0 .198.402h2.076l-.286 2.062c-.035.254.29.39.446.186l2.948-3.846a.25.25 0 0 0-.198-.402h-2.076z"/></svg>