<svg xmlns="http://www.w3.org/2000/svg" fill="none" viewBox="0 0 24 24"><path fill="#090404" fill-rule="evenodd" d="M4.847 4a2 2 0 0 0-1.973 1.671l-1.667 10A2 2 0 0 0 3.18 18h.657a3.5 3.5 0 0 0 6.326 0h3.674a3.5 3.5 0 0 0 6.326 0H21a2 2 0 0 0 2-2v-2.43a5 5 0 0 0-1.336-3.402l-4.245-4.57A5 5 0 0 0 13.755 4zM5.5 16.5a1.5 1.5 0 1 1 3 0 1.5 1.5 0 0 1-3 0m10 0a1.5 1.5 0 1 1 3 0 1.5 1.5 0 0 1-3 0M11.917 10h2.076a.25.25 0 0 1 .199.402l-2.95 3.846c-.155.204-.48.068-.445-.186L11.083 12H9.007a.25.25 0 0 1-.199-.402l2.949-3.846c.156-.204.481-.068.446.186z" clip-rule="evenodd"/></svg>