<svg xmlns="http://www.w3.org/2000/svg" fill="none" viewBox="0 0 24 24"><path fill="#090404" fill-rule="evenodd" d="M4.847 4H12.5a2 2 0 0 1 1.6.8l2.46 3.28 4.768.794A2 2 0 0 1 23 10.847V16a2 2 0 0 1-2 2h-.837a3.5 3.5 0 0 1-6.326 0h-3.674a3.5 3.5 0 0 1-6.326 0H3.18a2 2 0 0 1-1.973-2.329l1.667-10A2 2 0 0 1 4.847 4M5.5 16.5a1.5 1.5 0 1 1 3 0 1.5 1.5 0 0 1-3 0M17 15a1.5 1.5 0 1 0 0 3 1.5 1.5 0 0 0 0-3m-5.083-5h2.076a.25.25 0 0 1 .199.402l-2.95 3.846c-.155.204-.48.068-.445-.186L11.083 12H9.007a.25.25 0 0 1-.199-.402l2.949-3.846c.156-.204.481-.068.446.186z" clip-rule="evenodd"/></svg>