<svg xmlns="http://www.w3.org/2000/svg" fill="none" viewBox="0 0 24 24"><path fill="#090404" fill-rule="evenodd" d="M1 6v10a2 2 0 0 0 2 2h.837a3.5 3.5 0 0 0 6.326 0h3.674a3.5 3.5 0 0 0 6.326 0H21a2 2 0 0 0 2-2v-4.323a2 2 0 0 0-1.257-1.857l-2.719-1.088-1.344-3.457A2 2 0 0 0 15.816 4H3a2 2 0 0 0-2 2m6 9a1.5 1.5 0 1 1 0 3 1.5 1.5 0 0 1 0-3m10 0a1.5 1.5 0 1 1 0 3 1.5 1.5 0 0 1 0-3m-5.083-5h2.076a.25.25 0 0 1 .199.402l-2.949 3.846c-.156.204-.481.068-.446-.186L11.084 12H9.007a.25.25 0 0 1-.199-.402l2.95-3.846c.155-.204.48-.068.445.186z" clip-rule="evenodd"/></svg>