<svg xmlns="http://www.w3.org/2000/svg" fill="none" viewBox="0 0 24 24"><path fill="#090404" fill-rule="evenodd" d="M7.414 4A2 2 0 0 0 6 4.586L1.586 9A2 2 0 0 0 1 10.414V16a2 2 0 0 0 2 2h.837a3.5 3.5 0 0 0 6.326 0h3.674a3.5 3.5 0 0 0 6.326 0H21a2 2 0 0 0 2-2v-5.18a2 2 0 0 0-1.608-1.961l-3.821-.765L15.1 4.8a2 2 0 0 0-1.6-.8zM5.5 16.5a1.5 1.5 0 1 1 3 0 1.5 1.5 0 0 1-3 0m10 0a1.5 1.5 0 1 1 3 0 1.5 1.5 0 0 1-3 0M11.917 10h2.076a.25.25 0 0 1 .199.402l-2.949 3.846c-.156.204-.481.068-.446-.186L11.084 12H9.007a.25.25 0 0 1-.199-.402l2.95-3.846c.155-.204.48-.068.445.186z" clip-rule="evenodd"/></svg>