<svg xmlns="http://www.w3.org/2000/svg" fill="none" viewBox="0 0 24 24"><path fill="#090404" fill-rule="evenodd" d="M11 4a1 1 0 0 1 1 1v11h2V7a1 1 0 0 1 1-1h2.98c.652 0 1.264.319 1.638.854l3.02 4.314.084.129A2 2 0 0 1 23 12.315V16a2 2 0 0 1-2 2h-.837a3.5 3.5 0 0 1-6.326 0h-3.674a3.5 3.5 0 0 1-6.326 0H3a2 2 0 0 1-2-2V6a2 2 0 0 1 2-2zM8.5 16.5a1.5 1.5 0 1 0-3 0 1.5 1.5 0 0 0 3 0M17 15a1.5 1.5 0 1 1 0 3 1.5 1.5 0 0 1 0-3M6.88 9.104h1.892c.189 0 .295.213.18.36l-2.686 3.448c-.143.182-.439.06-.407-.168l.261-1.848H4.228a.224.224 0 0 1-.18-.36l2.686-3.447c.143-.183.439-.061.407.167z" clip-rule="evenodd"/></svg>