<svg xmlns="http://www.w3.org/2000/svg" fill="none" viewBox="0 0 24 24"><path fill="#090404" fill-rule="evenodd" d="M9 4a1 1 0 0 0-1 1v4H3a2 2 0 0 0-2 2v5a2 2 0 0 0 2 2h.837a3.5 3.5 0 0 0 6.326 0h3.674a3.5 3.5 0 0 0 6.326 0H21a2 2 0 0 0 2-2v-5.22a2 2 0 0 0-1.515-1.94l-2.898-.724L16.1 4.8a2 2 0 0 0-1.6-.8zM5.5 16.5a1.5 1.5 0 1 1 3 0 1.5 1.5 0 0 1-3 0m10 0a1.5 1.5 0 1 1 3 0 1.5 1.5 0 0 1-3 0m-1.62-6.396h1.892c.189 0 .295.213.18.36l-2.686 3.448c-.143.182-.439.06-.407-.168l.261-1.848h-1.892a.224.224 0 0 1-.18-.36l2.686-3.447c.143-.183.439-.061.407.167z" clip-rule="evenodd"/></svg>