<svg xmlns="http://www.w3.org/2000/svg" fill="none" viewBox="0 0 24 24"><path fill="#090404" fill-rule="evenodd" d="M18.586 3.066c-1-.316-1.929-.316-3.786-.316H9.2c-1.857 0-2.786 0-3.785.316a3.93 3.93 0 0 0-2.349 2.349C2.75 6.414 2.75 7.343 2.75 9.2v5.6c0 1.857 0 2.786.316 3.785a3.93 3.93 0 0 0 2.349 2.349c.999.316 1.928.316 3.785.316h5.6c1.857 0 2.786 0 3.785-.316a3.93 3.93 0 0 0 2.349-2.349c.316-1 .316-1.928.316-3.785V9.2c0-1.857 0-2.786-.316-3.785a3.93 3.93 0 0 0-2.349-2.349m-3.894 6.793c-.56-.497-1.417-.86-2.312-.86-.7 0-1.4.251-1.4.885 0 .6.64.83 1.42 1.112l.197.071c1.517.517 2.768 1.151 2.768 2.651 0 1.631-1.255 2.745-3.305 2.872l-.186.886a.35.35 0 0 1-.344.278l-1.29-.01a.35.35 0 0 1-.339-.422l.197-.922a4.73 4.73 0 0 1-2.073-1.154.35.35 0 0 1-.002-.502l.716-.706a.347.347 0 0 1 .489 0c.692.683 1.584.964 2.435.964.934 0 1.567-.383 1.567-1.034 0-.573-.518-.764-1.506-1.128l-.327-.122c-1.267-.45-2.468-1.1-2.468-2.618 0-1.752 1.451-2.607 3.163-2.692l.188-.885a.35.35 0 0 1 .342-.277h1.287a.35.35 0 0 1 .342.421l-.209.995c.74.242 1.34.62 1.787 1.005.152.13.157.364.016.507l-.666.676a.35.35 0 0 1-.487.01" clip-rule="evenodd"/></svg>