<svg xmlns="http://www.w3.org/2000/svg" fill="none" viewBox="0 0 24 24"><path fill="#090404" d="M13.29 16.006c.57-.153.883-.832.7-1.516s-.795-1.115-1.365-.962c-.57.152-.884.831-.7 1.515.183.684.794 1.115 1.364.963"/><path fill="#090404" d="M18.068 16.496c.123.456-.333.974-1.017 1.157s-1.338-.037-1.46-.494c-.123-.456.333-.974 1.017-1.157s1.338.037 1.46.494"/><path fill="#090404" fill-rule="evenodd" d="M5 3a2 2 0 0 0-2 2v14a2 2 0 0 0 2 2h14a2 2 0 0 0 2-2V5a2 2 0 0 0-2-2zm9.877 6.319a9.7 9.7 0 0 0-2.392.994L8.98 9.499a.5.5 0 0 0-.605.575l.744 4.117c-.324.944-.385 1.936-.126 2.902A4.8 4.8 0 0 0 10.01 19H19v-4.658c-.398-.108-.75-.468-.88-.959-.184-.684.13-1.362.7-1.515a1 1 0 0 1 .18-.03V7.735a.1.1 0 0 0-.169-.073l-1.386 1.323a9.7 9.7 0 0 0-2.568.335" clip-rule="evenodd"/></svg>