<svg xmlns="http://www.w3.org/2000/svg" fill="none" viewBox="0 0 24 24"><path fill="#090404" fill-rule="evenodd" d="M12 2c5.523 0 10 4.477 10 10s-4.477 10-10 10S2 17.523 2 12 6.477 2 12 2m5.49 11.068a1 1 0 0 0-1.297.568 4.52 4.52 0 0 1-2.557 2.557 1 1 0 0 0 .727 1.864 6.52 6.52 0 0 0 3.694-3.694 1 1 0 0 0-.568-1.295M12 10a2 2 0 1 0 0 4 2 2 0 0 0 0-4m-1.068-3.49a1 1 0 0 0-1.296-.567 6.52 6.52 0 0 0-3.693 3.693 1 1 0 0 0 1.864.727 4.52 4.52 0 0 1 2.556-2.556c.515-.201.77-.782.569-1.296" clip-rule="evenodd"/></svg>