<svg xmlns="http://www.w3.org/2000/svg" fill="none" viewBox="0 0 24 24"><path fill="#090404" d="M13.844 1.014a1 1 0 0 1 1.152.816v.002l.001.002c.041.246.064.496.079.745.024.42.027 1.009-.082 1.598-.127.689-.447 1.308-.7 1.724a7 7 0 0 1-.512.729l-.001.001-.001.002a.999.999 0 0 1-1.533-1.28l.002-.003q.186-.234.34-.489c.198-.325.378-.704.442-1.047.068-.37.071-.78.051-1.118a6 6 0 0 0-.054-.528v-.003a1 1 0 0 1 .816-1.15"/><path fill="#090404" d="M19.093 2.557a1 1 0 0 1 .601 1.277l-.449 1.248a.998.998 0 0 1-1.879-.676l.45-1.248a1 1 0 0 1 1.277-.601"/><path fill="#090404" d="M21.894 7.043a1 1 0 0 1-.446 1.34l-.999.499a.998.998 0 0 1-.893-1.786l.999-.5a1 1 0 0 1 1.34.447"/><path fill="#090404" d="M17.214 6.784a1 1 0 0 1 0 1.412l-.998.998a.998.998 0 0 1-1.412-1.412l.998-.998a1 1 0 0 1 1.412 0"/><path fill="#090404" d="M17.009 10.942a1 1 0 0 1 1.04-.956h.006q.278.017.554.054a7 7 0 0 1 1.199.263c.422.135.86.351 1.166.515q.28.149.55.313l.002.002h.002a1 1 0 0 1-1.053 1.698 8 8 0 0 0-.442-.252 5.5 5.5 0 0 0-.834-.375 5 5 0 0 0-.855-.185 5 5 0 0 0-.38-.037h-.002a1 1 0 0 1-.953-1.04"/><path fill="#090404" d="M6.55 7.126a1.997 1.997 0 0 1 3.29-.73l7.765 7.765a1.997 1.997 0 0 1-.73 3.289L4.682 21.876c-1.592.578-3.136-.966-2.558-2.558z"/></svg>