<svg xmlns="http://www.w3.org/2000/svg" fill="none" viewBox="0 0 24 24"><path fill="#090404" fill-rule="evenodd" d="M14.63 4.909q.235-.369.552-.687c1.168-1.168 2.885-1.478 4.754-1.24a1.25 1.25 0 0 1 1.082 1.082c.238 1.869-.072 3.586-1.24 4.754a4 4 0 0 1-.686.552l.312.2a2.25 2.25 0 0 1 .379 3.486l-.527.527a4.24 4.24 0 0 1-1.997 1.123 2.23 2.23 0 0 1-.658 1.532l-.527.527a4.24 4.24 0 0 1-1.997 1.123 2.23 2.23 0 0 1-.658 1.532l-.527.527a4.25 4.25 0 0 1-5.294.575l-1.435-.917-1.057 1.057a1.25 1.25 0 0 1-1.768-1.768l1.057-1.057-.917-1.435a4.25 4.25 0 0 1 .575-5.294l.527-.527c.43-.43.98-.644 1.532-.658a4.24 4.24 0 0 1 1.123-1.997l.527-.526c.43-.43.98-.645 1.532-.659a4.24 4.24 0 0 1 1.124-1.997l.526-.526a2.25 2.25 0 0 1 3.486.379zm1.74 2.72c.837-.035 1.346-.284 1.64-.579.295-.295.544-.803.58-1.64-.837.036-1.345.285-1.64.58-.295.294-.544.803-.58 1.64M6.129 12.57l-.307.306a1.75 1.75 0 0 0-.237 2.18l.621.972.307-.307a1.75 1.75 0 0 0 .237-2.18zm2.152 4.92-.307.306.972.62a1.75 1.75 0 0 0 2.18-.236l.306-.307-.971-.62a1.75 1.75 0 0 0-2.18.236m2.875-2.876.971.62a1.75 1.75 0 0 0 2.18-.236l.307-.306-.971-.622a1.75 1.75 0 0 0-2.18.237zm3.182-3.182.971.621a1.75 1.75 0 0 0 2.18-.237l.307-.306-.971-.622a1.75 1.75 0 0 0-2.18.237zm-1.461-2.074a1.75 1.75 0 0 0 .237-2.18l-.621-.972-.307.307a1.75 1.75 0 0 0-.237 2.18l.621.971zm-3.566.03.62.972a1.75 1.75 0 0 1-.236 2.18l-.307.306-.62-.971a1.75 1.75 0 0 1 .236-2.18z" clip-rule="evenodd"/></svg>