<svg xmlns="http://www.w3.org/2000/svg" fill="none" viewBox="0 0 24 24"><path fill="#090404" fill-rule="evenodd" d="M6.464 9.122a5 5 0 0 1 7.072 0l.343.343a5 5 0 0 1 1.425 2.911 1 1 0 1 1-1.984.249 3 3 0 0 0-.856-1.746l-.343-.343a3 3 0 0 0-4.242 0l-3.343 3.343a3 3 0 0 0 0 4.243l.343.343a3 3 0 0 0 4.242 0l.172-.172a1 1 0 1 1 1.414 1.414l-.171.172a5 5 0 0 1-7.072 0l-.343-.343a5 5 0 0 1 0-7.071z" clip-rule="evenodd"/><path fill="#090404" fill-rule="evenodd" d="M13.464 5.122a5 5 0 0 1 7.071 0l.344.343a5 5 0 0 1 0 7.07l-3.344 3.344a5 5 0 0 1-7.07 0l-.344-.343a5 5 0 0 1-1.425-2.911 1 1 0 0 1 1.984-.249c.08.639.364 1.255.856 1.746l.343.343a3 3 0 0 0 4.242 0l3.343-3.343a3 3 0 0 0 0-4.243l-.343-.343a3 3 0 0 0-4.242 0l-.172.171a1 1 0 1 1-1.414-1.414z" clip-rule="evenodd"/></svg>