<svg xmlns="http://www.w3.org/2000/svg" fill="none" viewBox="0 0 24 24"><path fill="#090404" d="M21 18a1 1 0 1 1 0 2H3a1 1 0 1 1 0-2z"/><path fill="#090404" d="M4 11a1 1 0 0 1 1 1v2a1 1 0 1 1-2 0v-2a1 1 0 0 1 1-1"/><path fill="#090404" d="M20 4a1 1 0 0 1 1 1v9a1 1 0 1 1-2 0V5a1 1 0 0 1 1-1"/><path fill="#090404" d="M8 6a1 1 0 0 1 1 1v5a1 1 0 1 1-2 0V7a1 1 0 0 1 1-1"/><path fill="#090404" d="M12 9a1 1 0 0 1 1 1v2a1 1 0 1 1-2 0v-2a1 1 0 0 1 1-1"/><path fill="#090404" d="M16 5a1 1 0 0 1 1 1v3a1 1 0 1 1-2 0V6a1 1 0 0 1 1-1"/></svg>