<svg xmlns="http://www.w3.org/2000/svg" fill="none" viewBox="0 0 24 24"><path fill="#090404" d="M8.592 6.654c.243-.303.723-.128.723.263v1.75h1.177c.343 0 .533.408.315.68l-2.4 3c-.241.302-.722.127-.722-.264v-1.75H6.508c-.344 0-.533-.408-.315-.68z"/><path fill="#090404" fill-rule="evenodd" d="M3 5a2 2 0 0 1 2-2h7a2 2 0 0 1 2 2v14h6a1 1 0 1 1 0 2H4a1 1 0 0 1-1-1zm9 0H5v9h7z" clip-rule="evenodd"/><path fill="#090404" d="M17.64 3.732a1 1 0 0 0-1.28 1.536l2.64 2.2V15h-1v-4a1 1 0 1 0-2 0v4a2 2 0 0 0 2 2h1a2 2 0 0 0 2-2V7.468a2 2 0 0 0-.72-1.536z"/></svg>