<svg xmlns="http://www.w3.org/2000/svg" fill="none" viewBox="0 0 24 24"><path fill="#090404" d="M15.5 10c3.498 0 6.5 2.599 6.5 6a5.65 5.65 0 0 1-1.013 3.22.3.3 0 0 0-.026.044q-.002.005-.003.01c.094.347.215.698.36 1.061a1 1 0 0 1-.988 1.37 12 12 0 0 1-1.973-.282.2.2 0 0 0-.106.016A6.9 6.9 0 0 1 15.5 22C12.002 22 9 19.401 9 16s3.002-6 6.5-6"/><path fill="#090404" d="M10 2c3.936 0 7.301 2.696 7.903 6.331A9 9 0 0 0 15.5 8C11.081 8 7 11.32 7 16q0 .23.013.454a8 8 0 0 1-.562-.233c-.842.21-1.708.34-2.613.395a1 1 0 0 1-.991-1.362c.209-.535.382-1.056.51-1.576A7.14 7.14 0 0 1 2 9.5C2 5.29 5.653 2 10 2"/></svg>