<svg xmlns="http://www.w3.org/2000/svg" fill="none" viewBox="0 0 24 24"><path fill="#090404" fill-rule="evenodd" d="M13.05 4.369A4 4 0 0 1 17 1h1a2 2 0 0 1 2 2v1a4 4 0 0 1-4 4h-.349c.514.997.919 2.066 1.198 3.21 1.066-.206 2.165-.117 3.107.455 1.35.819 2.044 2.418 2.044 4.585 0 3.38-2.755 5.75-6 5.75-1.544 0-2.977-.537-4.056-1.463-1.468 1.346-3.588 1.83-5.647 1.277-1.905-.51-3.147-1.7-3.783-3.137-.623-1.407-.647-3.001-.248-4.369.394-1.354 1.251-2.63 2.55-3.234 1-.464 2.125-.469 3.27.02q.024-.056.056-.108c1.495-2.494 1.705-4.847.896-7.714A1 1 0 0 1 10.6 2.2a19.5 19.5 0 0 1 2.45 2.169m-2.968 7.257a4.9 4.9 0 0 1 1.488.38q.222-.189.474-.341c.828-.503 1.777-.632 2.718-.517-.615-2.118-1.751-3.949-3.282-5.527.133 2.065-.294 4.02-1.398 6.005" clip-rule="evenodd"/></svg>