<svg xmlns="http://www.w3.org/2000/svg" fill="none" viewBox="0 0 24 24"><path fill="#090404" d="M14 14h-4v-4h4z"/><path fill="#090404" fill-rule="evenodd" d="M14 1a1 1 0 0 1 1 1v1h4a2 2 0 0 1 2 2v4h1l.102.005a1 1 0 0 1 0 1.99L22 11h-1v2h1l.102.005a1 1 0 0 1 0 1.99L22 15h-1v4a2 2 0 0 1-2 2h-4v1a1 1 0 1 1-2 0v-1h-2v1a1 1 0 1 1-2 0v-1H5a2 2 0 0 1-2-2v-4H2a1 1 0 1 1 0-2h1v-2H2a1 1 0 1 1 0-2h1V5a2 2 0 0 1 2-2h4V2a1 1 0 1 1 2 0v1h2V2a1 1 0 0 1 1-1M9 8a1 1 0 0 0-.995.897L8 9v6a1 1 0 0 0 1 1h6a1 1 0 0 0 1-1V9a1 1 0 0 0-.898-.995L15 8z" clip-rule="evenodd"/></svg>