<svg xmlns="http://www.w3.org/2000/svg" fill="none" viewBox="0 0 24 24"><path fill="#090404" fill-rule="evenodd" d="M10.325 2.14a10 10 0 0 1 3.35 0 1 1 0 0 1-.333 1.972 8 8 0 0 0-2.684 0 1 1 0 0 1-.333-1.972m6.068 1.94a1 1 0 0 1 1.395-.236c.915.651 1.717 1.452 2.368 2.368a1 1 0 0 1-1.63 1.159 8 8 0 0 0-1.897-1.897 1 1 0 0 1-.236-1.394m-8.786 0a1 1 0 0 1-.236 1.394 8 8 0 0 0-1.897 1.897 1 1 0 0 1-1.63-1.159 10 10 0 0 1 2.368-2.368 1 1 0 0 1 1.395.236m13.1 5.426a1 1 0 0 1 1.153.82 10 10 0 0 1 0 3.349 1 1 0 1 1-1.972-.333 8 8 0 0 0 0-2.684 1 1 0 0 1 .82-1.152m-17.415 0a1 1 0 0 1 .82 1.152 8 8 0 0 0 0 2.684 1 1 0 0 1-1.972.333 10 10 0 0 1 0-3.35 1 1 0 0 1 1.152-.82m16.628 6.887a1 1 0 0 1 .236 1.395 10 10 0 0 1-2.368 2.368 1 1 0 0 1-1.159-1.63 8 8 0 0 0 1.897-1.897 1 1 0 0 1 1.394-.236m-15.84 0a1 1 0 0 1 1.394.236 8 8 0 0 0 1.897 1.897 1 1 0 0 1-1.159 1.63 10 10 0 0 1-2.368-2.368 1 1 0 0 1 .236-1.395m5.426 4.315a1 1 0 0 1 1.152-.82 8 8 0 0 0 2.684 0 1 1 0 0 1 .333 1.972 10 10 0 0 1-3.35 0 1 1 0 0 1-.82-1.152" clip-rule="evenodd"/><path fill="#090404" d="M18 12a6 6 0 1 1-12 0 6 6 0 0 1 12 0"/></svg>