<svg xmlns="http://www.w3.org/2000/svg" fill="none" viewBox="0 0 24 24"><path fill="#090404" d="M13 3a1 1 0 1 1-2 0 1 1 0 0 1 2 0"/><path fill="#090404" d="M13 21a1 1 0 1 1-2 0 1 1 0 0 1 2 0"/><path fill="#090404" d="M9.48 3.302a1 1 0 1 1-1.848.766 1 1 0 0 1 1.848-.766"/><path fill="#090404" d="M16.368 19.932a1 1 0 1 1-1.848.766 1 1 0 0 1 1.848-.766"/><path fill="#090404" d="M6.343 4.93A1 1 0 1 1 4.93 6.342 1 1 0 0 1 6.343 4.93"/><path fill="#090404" d="M19.071 17.657a1 1 0 1 1-1.414 1.414 1 1 0 0 1 1.414-1.414"/><path fill="#090404" d="M4.068 7.632a1 1 0 1 1-.765 1.848 1 1 0 0 1 .765-1.848"/><path fill="#090404" d="M20.698 14.52a1 1 0 1 1-.766 1.848 1 1 0 0 1 .766-1.847"/><path fill="#090404" d="M3 11a1 1 0 1 1 0 2 1 1 0 0 1 0-2"/><path fill="#090404" d="M21 11a1 1 0 1 1 0 2 1 1 0 0 1 0-2"/><path fill="#090404" d="M3.303 14.52a1 1 0 1 1 .765 1.848 1 1 0 0 1-.765-1.848"/><path fill="#090404" d="M19.933 7.632a1 1 0 1 1 .765 1.848 1 1 0 0 1-.765-1.848"/><path fill="#090404" d="M4.93 17.657a1 1 0 1 1 1.413 1.414 1 1 0 0 1-1.414-1.414"/><path fill="#090404" d="M17.657 4.929a1 1 0 1 1 1.414 1.414 1 1 0 0 1-1.414-1.414"/><path fill="#090404" d="M7.632 19.932a1 1 0 1 1 1.848.765 1 1 0 0 1-1.848-.765"/><path fill="#090404" d="M14.52 3.302a1 1 0 1 1 1.848.765 1 1 0 0 1-1.847-.765"/><path fill="#090404" d="M18 12a6 6 0 1 1-12 0 6 6 0 0 1 12 0"/></svg>