<svg xmlns="http://www.w3.org/2000/svg" fill="none" viewBox="0 0 24 24"><path fill="#090404" d="M9.946 2.213c9.845-2.095 14.055 11.835 8.73 19.393a.95.95 0 0 1-.781.394h-8.74a.82.82 0 0 1-.512-.164c-.457-.358-1.45-1.3-1.619-2.827a.88.88 0 0 1 .313-.748l3.5-3.102c.176-.156.292-.37.326-.603l.45-3.067a1 1 0 0 0-.164-.71l-.642-.937a1 1 0 0 1-.143-.814l.268-1.044a1 1 0 0 0-.424-1.087l-.438-.284a1 1 0 0 1-.408-1.14l.102-.32c.073-.232.06-.483-.037-.705l-.41-.932c-.238-.544.049-1.18.63-1.303"/><path fill="#090404" d="M4.547 7.873c.72 0 1.35.491 1.524 1.19l.136.541a1 1 0 0 0 .653.707l.703.234c.299.1.533.334.632.633l.262.784a1 1 0 0 0 .577.612l.598.239a1 1 0 0 1 .618 1.073l-.023.162a1 1 0 0 1-.327.603l-2.765 2.453a.97.97 0 0 1-1.349-.047c-.931-.992-1.994-2.32-2.411-3.576-.459-1.38-.41-3.142-.3-4.319.07-.752.717-1.289 1.472-1.289"/><path fill="#090404" d="M6 2c.18 0 .342.112.407.28l.484 1.255a1 1 0 0 0 .574.574l1.255.484a.437.437 0 0 1 0 .815l-1.255.483a1 1 0 0 0-.574.574L6.407 7.72a.436.436 0 0 1-.814 0l-.484-1.256a1 1 0 0 0-.574-.574L3.28 5.408a.438.438 0 0 1 0-.815l1.255-.484a1 1 0 0 0 .574-.574l.484-1.255A.44.44 0 0 1 6 2"/></svg>