<svg xmlns="http://www.w3.org/2000/svg" fill="none" viewBox="0 0 24 24"><path fill="#090404" fill-rule="evenodd" d="M15 2a2 2 0 0 1 2 2h2a2 2 0 0 1 2 2v9.071l-.053-.02-.537-1.396-.078-.182a2.582 2.582 0 0 0-4.664 0l-.078.182-.538 1.397-1.397.538a2.582 2.582 0 0 0 0 4.82l1.397.537.405 1.053H5a2 2 0 0 1-2-2V6a2 2 0 0 1 2-2h2a2 2 0 0 1 2-2zM9 6h6V4H9z" clip-rule="evenodd"/><path fill="#090404" d="M18 14c.24 0 .457.148.544.373l.696 1.813c.102.263.31.472.575.574l1.812.696a.583.583 0 0 1 0 1.088l-1.812.696c-.264.102-.473.31-.575.575l-.696 1.812a.583.583 0 0 1-1.088 0l-.696-1.812a1 1 0 0 0-.575-.575l-1.812-.696a.583.583 0 0 1-.153-1l.073-.049h-.001a1 1 0 0 1 .081-.039l.49-.19 1.323-.506.095-.043a1 1 0 0 0 .479-.531l.696-1.813A.58.58 0 0 1 18 14"/></svg>