<svg xmlns="http://www.w3.org/2000/svg" fill="none" viewBox="0 0 24 24"><path fill="#090404" d="M13.342 19.888a1 1 0 0 1 .333 1.972 10.1 10.1 0 0 1-3.35 0 1 1 0 0 1 .333-1.972 8 8 0 0 0 2.684 0"/><path fill="#090404" d="M4.08 16.394a1 1 0 0 1 1.395.235 8 8 0 0 0 1.896 1.896 1 1 0 0 1-1.16 1.63 10 10 0 0 1-2.366-2.367 1 1 0 0 1 .235-1.394"/><path fill="#090404" d="M18.525 16.629a1 1 0 0 1 1.63 1.16 10 10 0 0 1-2.367 2.366 1 1 0 0 1-1.16-1.63 8 8 0 0 0 1.897-1.896"/><path fill="#090404" d="M14.293 8.293a1 1 0 1 1 1.414 1.414L13.414 12l2.293 2.293a1 1 0 1 1-1.414 1.414L12 13.414l-2.293 2.293a1 1 0 1 1-1.414-1.414L10.586 12 8.293 9.707a1 1 0 1 1 1.414-1.414L12 10.586z"/><path fill="#090404" d="M2.14 10.325a1 1 0 0 1 1.972.333 8 8 0 0 0 0 2.684 1 1 0 0 1-1.972.333 10 10 0 0 1 0-3.35"/><path fill="#090404" d="M20.708 9.506a1 1 0 0 1 1.152.82 10.1 10.1 0 0 1 0 3.349 1 1 0 0 1-1.972-.333 8 8 0 0 0 0-2.684 1 1 0 0 1 .82-1.152"/><path fill="#090404" d="M6.212 3.845a1 1 0 0 1 1.16 1.63A8 8 0 0 0 5.474 7.37a1 1 0 0 1-1.63-1.16 10 10 0 0 1 2.367-2.366"/><path fill="#090404" d="M16.394 4.08a1 1 0 0 1 1.394-.235c.915.65 1.717 1.451 2.367 2.367a1 1 0 0 1-1.63 1.16 8 8 0 0 0-1.896-1.897 1 1 0 0 1-.235-1.395"/><path fill="#090404" d="M12 2q.856.001 1.675.14a1 1 0 0 1-.333 1.972 8 8 0 0 0-2.684 0 1 1 0 0 1-.333-1.972Q11.144 2 12 2"/></svg>