<svg xmlns="http://www.w3.org/2000/svg" fill="none" viewBox="0 0 24 24"><path fill="#090404" d="M4.003 4a2 2 0 0 0-2 1.999l-.003 6A2 2 0 0 0 4 14h1l.003 5a1 1 0 0 0 1.352.936h.002l.002-.001.006-.002.016-.007a3 3 0 0 0 .209-.09c.132-.06.314-.148.529-.27.428-.24.997-.613 1.568-1.149 1.155-1.082 2.316-2.832 2.316-5.417V5.999a2 2 0 0 0-2-1.999z"/><path fill="#090404" d="M15.004 4a2 2 0 0 0-2 2v6a2 2 0 0 0 2 2h1v5a1 1 0 0 0 1.351.936h.002l.002-.001.006-.002.016-.007a3 3 0 0 0 .21-.09 8.163 8.163 0 0 0 2.098-1.42c1.153-1.081 2.315-2.83 2.315-5.416V5.999a2 2 0 0 0-2-1.999z"/></svg>