<svg xmlns="http://www.w3.org/2000/svg" fill="none" viewBox="0 0 24 24"><path fill="#090404" d="M6.5 5a4.5 4.5 0 1 0 1.75 8.647 6 6 0 0 1-.348.557c-.785 1.11-1.947 1.958-3.457 2.964a1 1 0 0 0 1.11 1.664c1.49-.994 2.953-2.022 3.98-3.473 1.056-1.492 1.595-3.343 1.465-5.886A4.5 4.5 0 0 0 6.5 5"/><path fill="#090404" d="M17.5 5a4.5 4.5 0 1 0 1.75 8.647 6 6 0 0 1-.348.557c-.785 1.11-1.947 1.958-3.457 2.964a1 1 0 0 0 1.11 1.664c1.49-.994 2.953-2.022 3.98-3.473C21.59 13.867 22.13 12.016 22 9.473A4.5 4.5 0 0 0 17.5 5"/></svg>