<svg xmlns="http://www.w3.org/2000/svg" fill="none" viewBox="0 0 24 24"><path fill="#090404" d="M9.5 3a6.5 6.5 0 0 0 0 13H16a5 5 0 1 0-.674-9.955c-.191.026-.36-.065-.426-.165A6.5 6.5 0 0 0 9.5 3"/><path fill="#090404" d="M6 17a1 1 0 1 0 0 2h.01a1 1 0 1 0 0-2z"/><path fill="#090404" d="M12 17a1 1 0 1 0 0 2h.01a1 1 0 1 0 0-2z"/><path fill="#090404" d="M18 17a1 1 0 1 0 0 2h.01a1 1 0 1 0 0-2z"/><path fill="#090404" d="M9 19a1 1 0 1 0 0 2h.01a1 1 0 1 0 0-2z"/><path fill="#090404" d="M15 19a1 1 0 1 0 0 2h.01a1 1 0 1 0 0-2z"/></svg>