<svg xmlns="http://www.w3.org/2000/svg" fill="none" viewBox="0 0 24 24"><path fill="#090404" fill-rule="evenodd" d="M1 12a8 8 0 0 1 14.884-4.079c.045.077.168.152.314.132Q16.592 8 17 8a6 6 0 0 1 2.4 11.5 1 1 0 0 1-.8-1.832 4.001 4.001 0 0 0-2.137-7.632c-.881.117-1.815-.278-2.3-1.094a6 6 0 1 0-8.592 7.983 1 1 0 0 1-1.143 1.64A7.99 7.99 0 0 1 1 12m8.293 3.293a1 1 0 0 1 1.414 0L12 16.586l1.293-1.293a1 1 0 0 1 1.414 1.414L13.414 18l1.293 1.293a1 1 0 0 1-1.414 1.414L12 19.414l-1.293 1.293a1 1 0 0 1-1.414-1.414L10.586 18l-1.293-1.293a1 1 0 0 1 0-1.414" clip-rule="evenodd"/></svg>