<svg xmlns="http://www.w3.org/2000/svg" fill="none" viewBox="0 0 24 24"><path fill="#090404" d="m13.24 16.185-.696-1.812a.582.582 0 0 0-1.088 0l-.697 1.812a1 1 0 0 1-.574.575l-1.812.696a.582.582 0 0 0 0 1.088l1.812.697a1 1 0 0 1 .574.574l.697 1.812a.582.582 0 0 0 1.088 0l.697-1.812a1 1 0 0 1 .574-.575l1.812-.696a.582.582 0 0 0 0-1.088l-1.812-.697a1 1 0 0 1-.574-.574"/><path fill="#090404" d="M9 4a8 8 0 0 1 6.979 4.087 6 6 0 1 1 1.073 11.911 2.58 2.58 0 0 0-.707-4.408l-1.398-.538-.537-1.397-.078-.182a2.582 2.582 0 0 0-4.664 0l-.078.182-.538 1.397-1.397.538a2.582 2.582 0 0 0-1.078 4.035A8 8 0 0 1 9 4"/><path fill="#090404" d="M8.373 17.456a1 1 0 0 0-.08.04l-.001-.002a1 1 0 0 1 .081-.038l.49-.19 1.322-.506z"/><path fill="#090404" d="m15.136 17.267.49.19-1.811-.698z"/></svg>