<svg xmlns="http://www.w3.org/2000/svg" fill="none" viewBox="0 0 24 24"><path fill="#090404" d="M9.9 14.1v.825a.825.825 0 1 1-.825-.825z"/><path fill="#090404" d="M14.925 14.1a.826.826 0 1 1-.825.825V14.1z"/><path fill="#090404" d="M12.6 11.4v1.2h-1.2v-1.2z"/><path fill="#090404" d="M9.075 8.25c.456 0 .825.37.825.825V9.9h-.825a.826.826 0 0 1 0-1.65"/><path fill="#090404" d="M14.925 8.25a.825.825 0 0 1 0 1.65H14.1v-.825c0-.455.37-.825.825-.825"/><path fill="#090404" fill-rule="evenodd" d="M19 3a2 2 0 0 1 2 2v14a2 2 0 0 1-2 2H5a2 2 0 0 1-2-2V5a2 2 0 0 1 2-2zm-4.075 3.75A2.325 2.325 0 0 0 12.6 9.075V9.9h-1.2v-.825A2.325 2.325 0 1 0 9.075 11.4H9.9v1.2h-.825a2.325 2.325 0 1 0 2.325 2.325V14.1h1.2v.825a2.325 2.325 0 1 0 2.325-2.325H14.1v-1.2h.825a2.325 2.325 0 0 0 0-4.65" clip-rule="evenodd"/></svg>