<svg xmlns="http://www.w3.org/2000/svg" fill="none" viewBox="0 0 24 24"><path fill="#090404" fill-rule="evenodd" d="M15.187 3a1.98 1.98 0 0 0-.687 1.502l.009.187c.088.927.813 1.68 1.755 1.787l.182.026c.4.071.622.206.746.328.134.13.284.37.328.858l.026.19c.174.932.99 1.623 1.956 1.622l.191-.01c.519-.05.981-.3 1.307-.676V19a2 2 0 0 1-2 2H5a2 2 0 0 1-2-2V5a2 2 0 0 1 2-2zM8 15.1a.9.9 0 0 0 0 1.8h5l.092-.005a.9.9 0 0 0 0-1.79L13 15.1zm0-4a.9.9 0 0 0 0 1.8h2l.092-.005a.9.9 0 0 0 0-1.79L10 11.1zm5 0a.9.9 0 0 0 0 1.8h3l.092-.005a.9.9 0 0 0 0-1.79L16 11.1zm-5-4a.9.9 0 0 0 0 1.8h4l.092-.004a.9.9 0 0 0 0-1.792L12 7.1z" clip-rule="evenodd"/><path fill="#090404" d="M19.985 1.433a.488.488 0 0 0-.97-.001c-.177 1.538-1.045 2.406-2.583 2.583a.488.488 0 0 0 0 .97c1.517.171 2.445 1.031 2.582 2.57a.488.488 0 0 0 .972 0c.131-1.518 1.05-2.438 2.568-2.569a.488.488 0 0 0 .001-.972c-1.539-.137-2.399-1.065-2.57-2.581"/></svg>