<svg xmlns="http://www.w3.org/2000/svg" fill="none" viewBox="0 0 24 24"><path fill="#090404" d="M14 19c0 1.105-2.686 2-6 2s-6-.895-6-2v-2.733a6.7 6.7 0 0 0 1.283.57c1.276.425 2.944.663 4.717.663s3.44-.238 4.717-.663c.447-.15.888-.337 1.283-.57z"/><path fill="#090404" d="M22 15c0 1.105-2.686 2-6 2q-.33 0-.65-.013v-3.09l-.004.001a2 2 0 0 0-.064-.413q.355.014.718.015c1.773 0 3.44-.238 4.717-.663.448-.15.889-.336 1.283-.57z"/><path fill="#090404" d="M8 12c3.314 0 6 .895 6 2s-2.686 2-6 2-6-.895-6-2 2.686-2 6-2"/><path fill="#090404" d="M22 10c0 1.105-2.686 2-6 2-.72 0-1.41-.046-2.05-.123a6.4 6.4 0 0 0-1.28-.572 12.3 12.3 0 0 0-2.14-.485c-.34-.25-.53-.527-.53-.82V7.267c.395.234.835.42 1.283.57 1.276.425 2.944.663 4.717.663s3.44-.238 4.717-.663c.448-.15.889-.336 1.283-.57z"/><path fill="#090404" d="M16 3c3.314 0 6 .895 6 2s-2.686 2-6 2-6-.895-6-2 2.686-2 6-2"/></svg>