<svg xmlns="http://www.w3.org/2000/svg" fill="none" viewBox="0 0 24 24"><path fill="#090404" fill-rule="evenodd" d="M12 2c5.523 0 10 4.477 10 10s-4.477 10-10 10S2 17.523 2 12 6.477 2 12 2m0 3.5a1 1 0 0 0-1 1v.36c-1.24.283-2.5 1.25-2.5 2.917 0 1.09.506 1.84 1.213 2.33.623.43 1.413.66 1.999.836.669.202 1.131.348 1.448.562.231.156.34.309.34.64 0 .398-.368.884-1.285 1.033-.851.138-1.511-.142-1.774-.543l-.097-.171a1 1 0 0 0-1.78.89l.041.093.077.143c.516.91 1.405 1.378 2.318 1.545v.365a1 1 0 1 0 2 0v-.452c1.22-.34 2.5-1.265 2.5-2.902 0-1.085-.517-1.823-1.223-2.3-.62-.418-1.408-.643-1.989-.818-.664-.2-1.124-.35-1.438-.567-.23-.16-.35-.325-.35-.684 0-.463.344-.87 1.04-.986.656-.11 1.239.125 1.515.565l.05.091.051.09a1 1 0 0 0 1.78-.89l-.041-.094-.152-.27A3.16 3.16 0 0 0 13 6.947V6.5a1 1 0 0 0-1-1" clip-rule="evenodd"/></svg>