<svg xmlns="http://www.w3.org/2000/svg" fill="none" viewBox="0 0 24 24"><path fill="#090404" fill-rule="evenodd" d="M12 2c5.523 0 10 4.477 10 10s-4.477 10-10 10S2 17.523 2 12 6.477 2 12 2m0 5.85a.9.9 0 0 0-.812.514l-.053.139L10 12.475 8.865 8.503a.9.9 0 1 0-1.73.494l.6 2.103H7a.9.9 0 0 0 0 1.8h1.25l.885 3.097a.9.9 0 0 0 1.73 0L12 12.025l1.135 3.972a.9.9 0 0 0 1.73 0l.885-3.097H17a.9.9 0 0 0 0-1.8h-.735l.6-2.103a.9.9 0 1 0-1.73-.494L14 12.475l-1.135-3.972A.9.9 0 0 0 12 7.85" clip-rule="evenodd"/></svg>