<svg xmlns="http://www.w3.org/2000/svg" fill="none" viewBox="0 0 24 24"><path fill="#090404" d="M13.395 11.4a2.1 2.1 0 0 1-1.895 1.2h-.6v-1.2z"/><path fill="#090404" d="M11.5 8.4c.837 0 1.557.491 1.895 1.2H10.9V8.4z"/><path fill="#090404" fill-rule="evenodd" d="M12 2c5.523 0 10 4.477 10 10s-4.477 10-10 10S2 17.523 2 12 6.477 2 12 2m-2 4.6a.9.9 0 0 0-.896.808L9.1 7.5v2.1H8a.9.9 0 0 0 0 1.8h1.1v5.1a.9.9 0 0 0 1.8 0v-2.1h.6a3.9 3.9 0 0 0 3.795-3H16l.092-.005a.9.9 0 0 0 0-1.79L16 9.6h-.705a3.9 3.9 0 0 0-3.795-3z" clip-rule="evenodd"/></svg>