<svg xmlns="http://www.w3.org/2000/svg" fill="none" viewBox="0 0 24 24"><path fill="#090404" fill-rule="evenodd" d="M12 2c5.523 0 10 4.477 10 10q-.001.931-.166 1.816c-.258 1.4-1.532 2.184-2.762 2.184H14a1 1 0 0 0-1 1v2c0 1.578-1.347 3.174-3.204 2.756C5.334 20.752 2 16.766 2 12 2 6.477 6.477 2 12 2m-4.95 9.9a1.35 1.35 0 1 0 0 2.7 1.35 1.35 0 0 0 0-2.7m10.2-2.6a1.35 1.35 0 1 0 0 2.699 1.35 1.35 0 0 0 0-2.7m-9-2.5a1.35 1.35 0 1 0 .001 2.7 1.35 1.35 0 0 0-.001-2.7m5.1-1.2a1.35 1.35 0 1 0 0 2.7 1.35 1.35 0 0 0 0-2.7" clip-rule="evenodd"/></svg>