<svg xmlns="http://www.w3.org/2000/svg" fill="none" viewBox="0 0 24 24"><path fill="#090404" d="M4 3a1 1 0 0 1 1 1v5.375l2.532-1.9a2 2 0 0 1 1.634-.351l3.704.823 5.683-2.842a1 1 0 0 1 .894 1.79l-5.682 2.84a2 2 0 0 1-1.328.164l-3.705-.823L5.1 11.8a1 1 0 0 1-.1.064V19h15a1 1 0 1 1 0 2H5a2 2 0 0 1-2-2V4a1 1 0 0 1 1-1"/><path fill="#090404" d="M8 12a1 1 0 0 1 1 1v4a1 1 0 1 1-2 0v-4a1 1 0 0 1 1-1"/><path fill="#090404" d="M13 13a1 1 0 0 1 1 1v3a1 1 0 1 1-2 0v-3a1 1 0 0 1 1-1"/><path fill="#090404" d="M18 11a1 1 0 0 1 1 1v5a1 1 0 1 1-2 0v-5a1 1 0 0 1 1-1"/></svg>