<svg xmlns="http://www.w3.org/2000/svg" fill="none" viewBox="0 0 24 24"><path fill="#090404" d="M13.414 2.25a2 2 0 0 0-2.828 0L8.5 4.336a2 2 0 0 0 0 2.828l2.086 2.086a2 2 0 0 0 2.828 0L15.5 7.164a2 2 0 0 0 0-2.828z"/><path fill="#090404" d="M7.164 8.5a2 2 0 0 0-2.828 0L2.25 10.586a2 2 0 0 0 0 2.828L4.336 15.5a2 2 0 0 0 2.828 0l2.086-2.086a2 2 0 0 0 0-2.828z"/><path fill="#090404" d="M19.664 8.5a2 2 0 0 0-2.828 0l-2.086 2.086a2 2 0 0 0 0 2.828l2.086 2.086a2 2 0 0 0 2.828 0l2.086-2.086a2 2 0 0 0 0-2.828z"/><path fill="#090404" d="M13.414 14.75a2 2 0 0 0-2.828 0L8.5 16.836a2 2 0 0 0 0 2.828l2.086 2.086a2 2 0 0 0 2.828 0l2.086-2.086a2 2 0 0 0 0-2.828z"/></svg>