<svg xmlns="http://www.w3.org/2000/svg" fill="none" viewBox="0 0 24 24"><path fill="#090404" d="M20.61 2.007c.41.061.693.443.632.853l-.872 5.88c.869.128 1.63.837 1.63 1.853 0 .56-.255 1.09-.692 1.44L17 15.48V20a1 1 0 0 1-1 1H8a1 1 0 0 1-1-1v-4.52l-4.308-3.446A1.85 1.85 0 0 1 2 10.594C2 9.1 3.641 8.267 4.855 8.968a26 26 0 0 0 3.38 1.656c1.313.518 2.64.874 3.765.874s2.452-.356 3.765-.874a25.5 25.5 0 0 0 3.025-1.458l.968-6.528a.75.75 0 0 1 .852-.632"/><path fill="#090404" d="M12 3a3.5 3.5 0 1 1 0 7 3.5 3.5 0 0 1 0-7"/></svg>