<svg xmlns="http://www.w3.org/2000/svg" fill="none" viewBox="0 0 24 24"><path fill="#090404" fill-rule="evenodd" d="M19 3a2 2 0 0 1 2 2v10.071l-.053-.02-.537-1.396-.078-.182a2.582 2.582 0 0 0-4.664 0l-.078.182-.538 1.397-1.397.538a2.582 2.582 0 0 0 0 4.82l1.397.537.02.053H5a2 2 0 0 1-2-2V5a2 2 0 0 1 2-2zM7.707 6.293a1 1 0 1 0-1.414 1.414L7.336 8.75 6.293 9.793a1 1 0 1 0 1.414 1.414l1.75-1.75a1 1 0 0 0 0-1.414zM11.5 9.5a1 1 0 1 0 0 2H13a1 1 0 1 0 0-2z" clip-rule="evenodd"/><path fill="#090404" d="M14.373 17.456a1 1 0 0 0-.08.04l-.001-.002a1 1 0 0 1 .081-.038l.49-.19 1.323-.506z"/><path fill="#090404" d="m19.24 16.185-.696-1.812a.582.582 0 0 0-1.088 0l-.697 1.812a1 1 0 0 1-.573.575l-1.813.696a.583.583 0 0 0 0 1.088l1.812.697a1 1 0 0 1 .575.574l.696 1.812a.582.582 0 0 0 1.088 0l.697-1.812a1 1 0 0 1 .574-.575l1.812-.696a.582.582 0 0 0 0-1.088l-1.812-.697a1 1 0 0 1-.575-.574"/></svg>