<svg xmlns="http://www.w3.org/2000/svg" fill="none" viewBox="0 0 24 24"><path fill="#090404" d="M11.465 8.753c-.728.128-1.383.564-1.879 1.046-.756.735-1.369 1.776-1.66 2.866-.293 1.09-.283 2.297.005 3.312.275.971.893 2.025 2.026 2.329 1.134.304 2.196-.3 2.92-1.004.756-.735 1.37-1.776 1.661-2.865.292-1.09.282-2.298-.005-3.313-.192-.676-.55-1.393-1.133-1.868l1.875-6.997a1 1 0 0 0-1.931-.518z"/><path fill="#090404" d="M16.502 13.47a1 1 0 0 1 1.055-.94c1.106.063 2.224.235 3.1.586.818.327 1.82.99 1.828 2.215.006.89-.473 1.559-1.037 2.014-.55.443-1.254.75-1.939.97-1.378.442-2.973.621-3.96.67a1 1 0 0 1-.098-1.998c.896-.044 2.3-.208 3.447-.577.578-.185 1.018-.4 1.295-.623.262-.21.293-.353.292-.443v-.006a.2.2 0 0 0-.045-.058c-.076-.078-.236-.191-.527-.308-.585-.234-1.455-.388-2.47-.446a1 1 0 0 1-.941-1.056"/><path fill="#090404" d="M5.943 13.964a1 1 0 0 1-.611 1.275C3.934 15.731 3.5 16.3 3.5 16.916c0 .548.35 1.121 1.395 1.674 1.035.546 2.531.939 4.255 1.17 3.448.462 7.435.233 9.59-.348a1 1 0 1 1 .52 1.931c-2.466.666-6.73.888-10.376.4-1.824-.245-3.587-.68-4.923-1.385-1.326-.7-2.461-1.807-2.461-3.442 0-1.986 1.606-3.014 3.168-3.564a1 1 0 0 1 1.275.612"/></svg>