<svg xmlns="http://www.w3.org/2000/svg" fill="none" viewBox="0 0 24 24"><path fill="#090404" fill-rule="evenodd" d="M3 12.027V6.5A3.5 3.5 0 0 1 6.5 3h8.75c.966 0 1.75.784 1.75 1.75V8h2a2 2 0 0 1 2 2v9a2 2 0 0 1-2 2h-7v-5.5a3 3 0 0 0-1.488-2.591l-3-1.75a3 3 0 0 0-3.024 0zM6.5 5a1.5 1.5 0 1 0 0 3H15V5zm9 11a1.5 1.5 0 1 0 0-3 1.5 1.5 0 0 0 0 3" clip-rule="evenodd"/><path fill="#090404" fill-rule="evenodd" d="M5.496 12.886a1 1 0 0 1 1.008 0l3 1.75A1 1 0 0 1 10 15.5V19a1 1 0 0 1-.496.864l-3 1.75a1 1 0 0 1-1.008 0l-3-1.75A1 1 0 0 1 2 19v-3.5a1 1 0 0 1 .496-.864zM4 16.074v2.352l2 1.166 2-1.166v-2.352l-2-1.166z" clip-rule="evenodd"/></svg>