<svg xmlns="http://www.w3.org/2000/svg" fill="none" viewBox="0 0 24 24"><path fill="#090404" d="M7 2a1 1 0 0 1 1 1v2a1 1 0 0 1-2 0V3a1 1 0 0 1 1-1"/><path fill="#090404" d="M11 2a1 1 0 0 1 1 1v2a1 1 0 1 1-2 0V3a1 1 0 0 1 1-1"/><path fill="#090404" d="M15 2a1 1 0 0 1 1 1v2a1 1 0 1 1-2 0V3a1 1 0 0 1 1-1"/><path fill="#090404" fill-rule="evenodd" d="M6 7a2 2 0 0 0-2 2v11a2 2 0 0 0 2 2h10a2 2 0 0 0 2-2v-4h.5a3.5 3.5 0 1 0 0-7H18a2 2 0 0 0-2-2zm12 4v3h.5a1.5 1.5 0 0 0 0-3z" clip-rule="evenodd"/></svg>