<svg xmlns="http://www.w3.org/2000/svg" fill="none" viewBox="0 0 24 24"><path fill="#090404" fill-rule="evenodd" d="M12 .5c.69 0 1.25.56 1.25 1.25v.834c1.843.231 3.672.96 4.935 2.286a1.25 1.25 0 1 1-1.81 1.724c-.726-.762-1.87-1.276-3.125-1.487v6.072c1.205.315 2.518.686 3.567 1.278.65.367 1.27.852 1.724 1.523.465.686.71 1.496.71 2.42 0 1.686-.887 2.96-2.104 3.783-1.1.744-2.494 1.142-3.897 1.268v.799a1.25 1.25 0 0 1-2.5 0v-.854a10.2 10.2 0 0 1-2.368-.603c-1.413-.556-2.73-1.488-3.482-2.885a1.25 1.25 0 0 1 2.2-1.186c.39.723 1.146 1.331 2.197 1.745.453.178.945.31 1.453.4V13.1c-1.078-.309-2.197-.697-3.122-1.283-1.373-.869-2.378-2.209-2.378-4.246 0-1.502.692-2.698 1.719-3.53.997-.807 2.293-1.265 3.605-1.447q.088-.011.176-.02V1.75c0-.69.56-1.25 1.25-1.25m1.25 18.441c1.008-.118 1.88-.413 2.496-.83.676-.457 1.004-1.017 1.004-1.71 0-.462-.115-.776-.28-1.02-.174-.257-.454-.505-.881-.746-.624-.352-1.414-.61-2.339-.866zm-2.5-13.843c-.925.15-1.691.468-2.208.886-.517.419-.792.932-.792 1.587 0 1.033.433 1.638 1.216 2.134.491.311 1.094.556 1.784.78z" clip-rule="evenodd"/></svg>