<svg xmlns="http://www.w3.org/2000/svg" fill="none" viewBox="0 0 24 24"><path fill="#090404" d="M12.9 2c2.624 0 4.943 1.27 6.545 3.22l.31.4.072.107a1.25 1.25 0 0 1-2.002 1.475l-.08-.098-.232-.298C16.323 5.356 14.677 4.5 12.9 4.5c-2.453 0-4.714 1.683-5.771 4.25h5.621a1.25 1.25 0 1 1 0 2.5H6.532a9 9 0 0 0 0 1.5h6.218a1.25 1.25 0 1 1 0 2.5H7.129c1.057 2.567 3.318 4.25 5.771 4.25 1.896 0 3.642-.974 4.844-2.604a1.25 1.25 0 0 1 2.012 1.485C18.15 20.556 15.698 22 12.9 22c-4.001 0-7.23-2.894-8.413-6.75H3.25a1.25 1.25 0 1 1 0-2.5h.777A11 11 0 0 1 4 12q0-.378.027-.75H3.25a1.25 1.25 0 1 1 0-2.5h1.237C5.67 4.894 8.9 2 12.9 2"/></svg>