<svg xmlns="http://www.w3.org/2000/svg" fill="none" viewBox="0 0 24 24"><path fill="#090404" d="M13.516 3c1.812 0 3.415.878 4.424 2.224l.194.275.065.11a1.25 1.25 0 0 1-2.076 1.37l-.075-.103-.108-.153A3.02 3.02 0 0 0 13.516 5.5c-1.668 0-3.05 1.376-3.05 3.11 0 .554.074 1.355.152 2.39h3.132l.128.007a1.25 1.25 0 0 1 0 2.486l-.128.007h-2.997c.012.594.007 1.197-.03 1.787-.067 1.083-.245 2.23-.677 3.213h7.704l.128.007a1.25 1.25 0 0 1 0 2.486L17.75 21H6.25a1.25 1.25 0 1 1 0-2.5h.1c.64 0 .992-.248 1.271-.73.333-.577.535-1.478.608-2.638a19 19 0 0 0 .023-1.632H6.25a1.25 1.25 0 1 1 0-2.5h1.86c-.07-.905-.143-1.779-.143-2.39 0-3.082 2.468-5.61 5.549-5.61"/></svg>