<svg xmlns="http://www.w3.org/2000/svg" fill="none" viewBox="0 0 24 24"><path fill="#090404" fill-rule="evenodd" d="M8.909 4H4a2 2 0 0 0-2 2v12a2 2 0 0 0 2 2h4a1 1 0 0 0 1-1h6v.018A1 1 0 0 0 16 20h4a2 2 0 0 0 2-2V6a2 2 0 0 0-2-2H8.909m7.115 2c-.111 1.909.165 3.286.815 4.317.593.94 1.576 1.713 3.161 2.313V6zM20 14.993V18h-2.92c.149-.806.499-1.51.986-2.029A3.12 3.12 0 0 1 20 14.993M6.92 18c-.149-.806-.499-1.51-.986-2.029A3.12 3.12 0 0 0 4 14.993V18zM4 12.63V6h3.976c.111 1.909-.165 3.286-.815 4.317-.593.94-1.576 1.713-3.161 2.313" clip-rule="evenodd"/></svg>