<svg xmlns="http://www.w3.org/2000/svg" fill="none" viewBox="0 0 24 24"><path fill="#090404" fill-rule="evenodd" d="M12 1a1 1 0 0 1 1 1v1h5a2 2 0 0 1 2 2v7a2 2 0 0 1-1 1.732v.854l1.707 1.707a1 1 0 0 1-1.414 1.414l-.612-.612a7.003 7.003 0 0 1-13.362 0l-.612.612a1 1 0 0 1-1.414-1.414L5 14.586v-.854A2 2 0 0 1 4 12V5a2 2 0 0 1 2-2h5V2a1 1 0 0 1 1-1M6 5v7h12V5z" clip-rule="evenodd"/><path fill="#090404" fill-rule="evenodd" d="M9 7a1 1 0 0 1 1 1v1a1 1 0 0 1-2 0V8a1 1 0 0 1 1-1m6 0a1 1 0 0 1 1 1v1a1 1 0 1 1-2 0V8a1 1 0 0 1 1-1" clip-rule="evenodd"/></svg>