<svg xmlns="http://www.w3.org/2000/svg" fill="none" viewBox="0 0 24 24"><path fill="#090404" fill-rule="evenodd" d="M12 1a1 1 0 0 1 1 1v4a1 1 0 1 1-2 0V2a1 1 0 0 1 1-1" clip-rule="evenodd"/><path fill="#090404" fill-rule="evenodd" d="M17.707 5.293a1 1 0 0 1 0 1.414l-1.465 1.465a1 1 0 1 1-1.414-1.415l1.464-1.464a1 1 0 0 1 1.414 0" clip-rule="evenodd"/><path fill="#090404" fill-rule="evenodd" d="M6.293 5.293a1 1 0 0 1 1.414 0l1.465 1.464a1 1 0 0 1-1.415 1.415L6.293 6.707a1 1 0 0 1 0-1.414" clip-rule="evenodd"/><path fill="#090404" fill-rule="evenodd" d="M10 11a2 2 0 1 1 4 0 2 2 0 0 1-4 0" clip-rule="evenodd"/><path fill="#090404" fill-rule="evenodd" d="M2 11a1 1 0 0 1 1-1h4a1 1 0 1 1 0 2H3a1 1 0 0 1-1-1" clip-rule="evenodd"/><path fill="#090404" fill-rule="evenodd" d="M16 11a1 1 0 0 1 1-1h4a1 1 0 1 1 0 2h-4a1 1 0 0 1-1-1" clip-rule="evenodd"/><path fill="#090404" fill-rule="evenodd" d="M9.226 13.887a1 1 0 0 1-.113 1.41c-2.157 1.838-3.388 4.122-4.147 6.961a1 1 0 1 1-1.932-.516c.836-3.127 2.243-5.804 4.782-7.968a1 1 0 0 1 1.41.113" clip-rule="evenodd"/><path fill="#090404" fill-rule="evenodd" d="M14.918 13.918a1 1 0 0 1 1.414 0l1.375 1.375a1 1 0 1 1-1.415 1.414l-1.374-1.374a1 1 0 0 1 0-1.415" clip-rule="evenodd"/><path fill="#090404" fill-rule="evenodd" d="M12 15.127a1 1 0 0 1 1 1V20a1 1 0 1 1-2 0v-3.873a1 1 0 0 1 1-1" clip-rule="evenodd"/></svg>