<svg xmlns="http://www.w3.org/2000/svg" fill="none" viewBox="0 0 24 24"><path fill="#090404" d="M12 3a2.5 2.5 0 1 0 0 5 2.5 2.5 0 0 0 0-5"/><path fill="#090404" d="M12 9.5a2.5 2.5 0 1 0 0 5 2.5 2.5 0 0 0 0-5"/><path fill="#090404" d="M18.5 3a2.5 2.5 0 1 0 0 5 2.5 2.5 0 0 0 0-5"/><path fill="#090404" d="M18.5 9.5a2.5 2.5 0 1 0 0 5 2.5 2.5 0 0 0 0-5"/><path fill="#090404" d="M12 16a2.5 2.5 0 1 0 0 5 2.5 2.5 0 0 0 0-5"/><path fill="#090404" d="M5.5 9.5a2.5 2.5 0 1 0 0 5 2.5 2.5 0 0 0 0-5"/><path fill="#090404" d="M5.5 16a2.5 2.5 0 1 0 0 5 2.5 2.5 0 0 0 0-5"/></svg>