<svg xmlns="http://www.w3.org/2000/svg" fill="none" viewBox="0 0 24 24"><path fill="#090404" fill-rule="evenodd" d="M8.626 3.644a2 2 0 0 1 2.372-1.54l1.956.415a2 2 0 0 1 1.54 2.372l-.415 1.957.978.208a2 2 0 0 1 1.54 2.372l-2.287 10.76a2 2 0 0 1-2.372 1.54l-7.825-1.663a2 2 0 0 1-1.54-2.373l2.286-10.76a2 2 0 0 1 2.373-1.54l.978.208zm1.54 2.372 1.956.416.416-1.956-1.956-.416zm-2.281 4.926a1 1 0 0 1 1.383.294l.61.94.941-.61a1 1 0 0 1 1.09 1.677l-.94.611.61.94a1 1 0 0 1-1.677 1.09l-.611-.94-.94.61a1 1 0 0 1-1.09-1.677l.94-.61-.61-.941a1 1 0 0 1 .294-1.384" clip-rule="evenodd"/><path fill="#090404" d="M17.5 5a1 1 0 1 1-2 0 1 1 0 0 1 2 0"/><path fill="#090404" d="M22.5 5a1 1 0 1 1-2 0 1 1 0 0 1 2 0"/><path fill="#090404" d="M20 3.75a1 1 0 1 1-2 0 1 1 0 0 1 2 0"/><path fill="#090404" d="M20 6.25a1 1 0 1 1-2 0 1 1 0 0 1 2 0"/><path fill="#090404" d="M22.5 2.5a1 1 0 1 1-2 0 1 1 0 0 1 2 0"/><path fill="#090404" d="M22.5 7.5a1 1 0 1 1-2 0 1 1 0 0 1 2 0"/></svg>