<svg xmlns="http://www.w3.org/2000/svg" fill="none" viewBox="0 0 24 24"><path fill="#090404" d="M14.555 19.583a1 1 0 1 1 .637 1.896 10.04 10.04 0 0 1-6.385 0 1 1 0 0 1 .637-1.896 8.04 8.04 0 0 0 5.111 0"/><path fill="#090404" d="M12 10a2 2 0 1 1 0 4 2 2 0 0 1 0-4"/><path fill="#090404" fill-rule="evenodd" d="M12 7a5 5 0 0 1 4.17 7.756l1.537 1.537.069.076a1 1 0 0 1-1.407 1.407l-.076-.069-1.537-1.537A5 5 0 1 1 12 7m0 2a3 3 0 1 0 0 6 3 3 0 0 0 0-6" clip-rule="evenodd"/><path fill="#090404" d="M2.558 8.712a1.001 1.001 0 0 1 1.858.732l-.097.313a8.04 8.04 0 0 0 .097 4.799 1 1 0 0 1-1.895.637 10.04 10.04 0 0 1 0-6.385z"/><path fill="#090404" d="M9.197 2.4a10.04 10.04 0 0 1 5.995.122 1 1 0 0 1-.637 1.895 8.04 8.04 0 0 0-5.111 0l-.099.027a1 1 0 0 1-.538-1.922z"/><path fill="#090404" d="M21.478 15.192a10.04 10.04 0 0 0 0-6.385 1 1 0 0 0-1.896.637 8.04 8.04 0 0 1 0 5.111 1 1 0 0 0 1.896.637"/></svg>