<svg xmlns="http://www.w3.org/2000/svg" fill="none" viewBox="0 0 24 24"><path fill="#090404" fill-rule="evenodd" d="M20.44 3.249a1 1 0 0 1 1.628.507c.634 2.508.536 4.414-.078 5.965-.607 1.536-1.672 2.594-2.69 3.48-2.071 1.804-3.87 2.936-3.905 5.96 1.598-.006 3.265-.32 5.143-1.297a1 1 0 0 1 .924 1.773c-3.906 2.032-7.111 1.608-9.972 1.131-2.863-.477-5.244-.959-8.06.385a1 1 0 0 1-.86-1.805c2.15-1.026 4.124-1.169 5.973-1.02-.15-1.054-.555-1.79-1.08-2.4-.735-.856-1.64-1.43-2.734-2.308-1.036-.834-2.113-1.865-2.724-3.466-.61-1.598-.704-3.626-.08-6.375a1 1 0 0 1 1.732-.433C5.055 4.961 6.378 5.391 7.794 5.72c1.242.289 2.741.513 4.206 1.519 1.465-1.006 2.964-1.23 4.207-1.519 1.415-.328 2.738-.758 4.136-2.373z" clip-rule="evenodd"/></svg>