<svg xmlns="http://www.w3.org/2000/svg" fill="none" viewBox="0 0 24 24"><path fill="#090404" d="M23.759 4.789c-.244-.12-.349.108-.491.223-.049.037-.09.086-.131.13-.357.38-.773.63-1.316.6-.795-.044-1.473.206-2.073.814-.127-.75-.55-1.197-1.196-1.484-.337-.15-.678-.299-.914-.623-.165-.231-.21-.488-.293-.742-.052-.153-.104-.31-.28-.335-.192-.03-.267.13-.342.264-.3.548-.416 1.152-.404 1.764.026 1.376.607 2.472 1.761 3.251.131.09.165.18.124.31-.079.268-.173.53-.255.798-.053.171-.131.208-.315.134a5.3 5.3 0 0 1-1.664-1.13c-.821-.794-1.563-1.67-2.489-2.356q-.324-.24-.66-.452c-.944-.917.124-1.67.372-1.76.258-.093.09-.413-.746-.41s-1.6.284-2.575.657a3 3 0 0 1-.447.13 9.2 9.2 0 0 0-2.762-.097c-1.807.202-3.25 1.055-4.31 2.513-1.275 1.753-1.575 3.744-1.207 5.82.386 2.19 1.503 4.001 3.22 5.418 1.78 1.47 3.83 2.189 6.17 2.051 1.42-.082 3.001-.272 4.786-1.782.45.223.922.313 1.705.38.603.056 1.184-.03 1.634-.123.705-.15.656-.802.401-.92-2.065-.963-1.611-.571-2.024-.888 1.05-1.242 2.631-2.532 3.25-6.712.049-.332.007-.54 0-.809-.004-.164.034-.227.221-.246a4 4 0 0 0 1.48-.455c1.339-.73 1.878-1.931 2.006-3.37.019-.22-.004-.448-.236-.563M12.098 17.742c-2.001-1.574-2.972-2.092-3.373-2.07-.375.023-.308.451-.225.731.086.276.198.466.356.708.109.16.184.4-.109.578-.645.4-1.765-.134-1.818-.16-1.304-.768-2.395-1.782-3.163-3.17-.742-1.334-1.173-2.766-1.245-4.295-.018-.369.09-.5.458-.566a4.5 4.5 0 0 1 1.465-.038c2.043.299 3.782 1.212 5.24 2.659.832.824 1.462 1.808 2.11 2.77.69 1.022 1.432 1.995 2.377 2.793.333.28.6.492.854.649-.768.085-2.05.104-2.927-.59m.96-6.171a.294.294 0 0 1 .397-.276.29.29 0 0 1 .191.276.293.293 0 0 1-.296.294.29.29 0 0 1-.292-.294m2.98 1.529c-.192.078-.383.145-.567.152-.284.015-.595-.1-.764-.242-.263-.22-.45-.343-.529-.727a1.7 1.7 0 0 1 .015-.563c.068-.313-.007-.515-.228-.697-.18-.15-.409-.19-.66-.19a.54.54 0 0 1-.244-.075c-.105-.052-.19-.183-.108-.343a1 1 0 0 1 .183-.201c.341-.194.735-.13 1.099.014.337.138.592.392.96.75.374.432.441.552.655.876.169.254.322.515.427.813.064.186-.018.34-.24.433"/></svg>