<svg xmlns="http://www.w3.org/2000/svg" fill="none" viewBox="0 0 24 24"><path fill="#090404" fill-rule="evenodd" d="M12 5a1 1 0 0 1 1-1h1.323a2 2 0 0 1 1.857 1.257l1.544 3.86A7 7 0 0 1 19 9a1 1 0 1 1 0 2 5 5 0 0 0-4.765 3.481c-.255.8-.994 1.519-1.998 1.519H10a4 4 0 0 1-8 0q0-.13.031-.25A2 2 0 0 1 1 14v-4a2 2 0 0 1 2-2h6a2 2 0 0 1 2 2v4h1.236l.02-.013a.24.24 0 0 0 .073-.112 7.02 7.02 0 0 1 3.498-4.116L14.323 6H13a1 1 0 0 1-1-1M8 16H4a2 2 0 1 0 4 0m11-2a2 2 0 1 0 0 4 2 2 0 0 0 0-4m-4 2a4 4 0 1 1 8 0 4 4 0 0 1-8 0" clip-rule="evenodd"/></svg>