<svg xmlns="http://www.w3.org/2000/svg" fill="none" viewBox="0 0 24 24"><path fill="#090404" d="M13 3a1 1 0 1 0-2 0v1a1 1 0 1 0 2 0z"/><path fill="#090404" d="M4.344 3.929A1 1 0 0 0 2.93 5.343l.707.707A1 1 0 0 0 5.05 4.636z"/><path fill="#090404" d="M21.072 5.343a1 1 0 0 0-1.414-1.414l-.707.707a1 1 0 0 0 1.414 1.414z"/><path fill="#090404" d="M8.446 7a2 2 0 0 0-1.487.662l-3.567 3.964a2 2 0 0 0-.266.374h17.75a2 2 0 0 0-.267-.374l-3.567-3.964A2 2 0 0 0 15.555 7z"/><path fill="#090404" d="M3.464 14.378A2 2 0 0 1 3.168 14h17.666q-.122.203-.297.378L13.415 21.5a2 2 0 0 1-2.829 0z"/></svg>