<svg xmlns="http://www.w3.org/2000/svg" fill="none" viewBox="0 0 24 24"><path fill="#090404" fill-rule="evenodd" d="M13.61 10.874a2 2 0 0 1-1.196-2.564l1.71-4.698a2 2 0 0 1 2.564-1.196l4.698 1.71a2 2 0 0 1 1.196 2.564l-1.71 4.698a2 2 0 0 1-2.564 1.196zm3.548-2.434a1 1 0 1 0 .684-1.88 1 1 0 0 0-.684 1.88" clip-rule="evenodd"/><path fill="#090404" fill-rule="evenodd" d="M2.004 10.995a2 2 0 0 0-.968 2.657l2.959 6.345a2 2 0 0 0 2.658.967l6.344-2.958a2 2 0 0 0 .967-2.658l-2.958-6.344a2 2 0 0 0-2.658-.968zm4.407 2.357a1 1 0 1 1-1.813.845 1 1 0 0 1 1.813-.845m3.504 2.78a1 1 0 1 0-.844-1.812 1 1 0 0 0 .844 1.812" clip-rule="evenodd"/></svg>