<svg xmlns="http://www.w3.org/2000/svg" fill="none" viewBox="0 0 24 24"><path fill="#090404" d="M5 17c.18 0 .342.112.407.28l.524 1.359a.75.75 0 0 0 .43.43l1.359.524a.436.436 0 0 1 0 .814l-1.359.524a.75.75 0 0 0-.43.43l-.524 1.359a.436.436 0 0 1-.814 0l-.524-1.359a.75.75 0 0 0-.43-.43l-1.359-.524a.436.436 0 0 1 0-.814l1.359-.524a.75.75 0 0 0 .43-.43l.524-1.359A.44.44 0 0 1 5 17"/><path fill="#090404" fill-rule="evenodd" d="M12 1a1 1 0 0 1 1 1v1.249c.369.191.681.474.935.778.464.555.836 1.3 1.13 2.13.29.824.521 1.787.681 2.843h4.38a1 1 0 0 1 .956.706A9.5 9.5 0 0 1 12 22c-.828 0-1.477-.478-1.935-1.027-.464-.555-.836-1.3-1.13-2.13-.29-.824-.521-1.787-.681-2.843h-4.38a1 1 0 0 1-.956-.706A9.5 9.5 0 0 1 2.5 12.5c0-4.909 3.723-8.949 8.5-9.448V2a1 1 0 0 1 1-1m3.746 15c-.16 1.056-.39 2.019-.681 2.843q-.111.31-.236.603A7.53 7.53 0 0 0 18.634 16zm-5.695-5q-.05.727-.051 1.5.002.773.05 1.5h3.9q.048-.727.05-1.5-.002-.773-.05-1.5zM9.17 5.553A7.53 7.53 0 0 0 5.366 9h2.888c.16-1.056.39-2.019.682-2.843q.109-.312.234-.604" clip-rule="evenodd"/><path fill="#090404" d="M19.5 1c.21 0 .4.13.476.327l.609 1.585a.88.88 0 0 0 .503.503l1.585.61a.51.51 0 0 1 0 .95l-1.585.61a.88.88 0 0 0-.503.503l-.61 1.585a.51.51 0 0 1-.95 0l-.61-1.585a.88.88 0 0 0-.503-.503l-1.585-.61a.51.51 0 0 1 0-.95l1.585-.61a.88.88 0 0 0 .503-.503l.61-1.585A.51.51 0 0 1 19.5 1"/></svg>