<svg xmlns="http://www.w3.org/2000/svg" fill="none" viewBox="0 0 24 24"><path fill="#090404" fill-rule="evenodd" d="M5 3a2 2 0 0 0-2 2v14a2 2 0 0 0 2 2h14a2 2 0 0 0 2-2V5a2 2 0 0 0-2-2zm7.35 5.642v.001l.002.002.007.007.026.025a10 10 0 0 1 .415.44c.266.294.621.709.978 1.194.355.483.719 1.046.995 1.634.274.584.477 1.224.477 1.855 0 1.652-1.45 3.2-3.25 3.2s-3.25-1.548-3.25-3.2c0-.63.203-1.271.477-1.855.276-.588.64-1.15.995-1.634a15 15 0 0 1 1.393-1.634l.026-.025.007-.007.002-.002a.5.5 0 0 1 .7 0M5 6.25a1.25 1.25 0 1 1 2.5 0 1.25 1.25 0 0 1-2.5 0" clip-rule="evenodd"/></svg>