<svg xmlns="http://www.w3.org/2000/svg" fill="none" viewBox="0 0 24 24"><path fill="#090404" d="M12 3a1 1 0 0 1 1 1v16a1 1 0 1 1-2 0V4a1 1 0 0 1 1-1"/><path fill="#090404" d="M15.2 16.4a1 1 0 0 1 1.4-.2l4 3a1 1 0 1 1-1.2 1.6l-4-3a1 1 0 0 1-.2-1.4"/><path fill="#090404" d="M8 15a1 1 0 1 1 0 2H3a1 1 0 1 1 0-2z"/><path fill="#090404" d="M8 11a1 1 0 1 1 0 2H3a1 1 0 1 1 0-2z"/><path fill="#090404" d="M21 11a1 1 0 1 1 0 2h-5a1 1 0 1 1 0-2z"/><path fill="#090404" d="M8 7a1 1 0 0 1 0 2H3a1 1 0 0 1 0-2z"/><path fill="#090404" d="M19.4 3.2a1 1 0 1 1 1.2 1.6l-4 3a1 1 0 1 1-1.2-1.6z"/></svg>