<svg xmlns="http://www.w3.org/2000/svg" fill="none" viewBox="0 0 24 24"><path fill="#090404" d="M3 12.53c1.8-1.175 3.223-1.415 4.444-1.268 1.096.131 2.108.58 3.202 1.15-.61 1.165-1.197 2.46-1.37 3.906-.175 1.454.07 2.99.94 4.682H5a2 2 0 0 1-2-2z"/><path fill="#090404" d="M12.412 13.354c1.165.61 2.46 1.197 3.906 1.37 1.454.175 2.99-.07 4.682-.94V19a2 2 0 0 1-2 2h-6.47c-1.175-1.8-1.415-3.223-1.268-4.444.131-1.097.579-2.108 1.15-3.203"/><path fill="#090404" d="M19 3a2 2 0 0 1 2 2v6.47c-1.8 1.174-3.223 1.415-4.444 1.268-1.097-.131-2.108-.58-3.203-1.151.61-1.165 1.198-2.458 1.372-3.905.174-1.454-.07-2.99-.942-4.682z"/><path fill="#090404" d="M11.47 3c1.175 1.8 1.415 3.223 1.268 4.444-.131 1.097-.58 2.108-1.151 3.202-1.165-.61-2.459-1.197-3.905-1.37-1.454-.175-2.99.068-4.682.94V5a2 2 0 0 1 2-2z"/></svg>