<svg xmlns="http://www.w3.org/2000/svg" fill="none" viewBox="0 0 24 24"><path fill="#090404" fill-rule="evenodd" d="M12 2c5.523 0 10 4.477 10 10s-4.477 10-10 10S2 17.523 2 12c0-1.11.182-2.179.517-3.177.122-.364.612-.428.933-.218.381.25.836.395 1.325.395a2.434 2.434 0 0 0 2.393-1.991.32.32 0 0 1 .31-.259 2.522 2.522 0 0 0 2.25-3.657c-.174-.345-.05-.829.329-.904Q11 2.002 12 2M9.707 16.293a1 1 0 1 0-1.414 1.414l.5.5a1 1 0 1 0 1.414-1.414zm6.5 0a1 1 0 0 0-1.414 0l-.5.5a1 1 0 1 0 1.414 1.414l.5-.5a1 1 0 0 0 0-1.414M12 9a3 3 0 1 0 0 6 3 3 0 0 0 0-6m-4.793 3.293a1 1 0 0 0-1.414 0l-.5.5a1 1 0 1 0 1.414 1.414l.5-.5a1 1 0 0 0 0-1.414m11.25-2a1 1 0 1 0-1.414 1.414l.5.5a1 1 0 1 0 1.414-1.414zm-3.75-5a1 1 0 1 0-1.414 1.414l.5.5a1 1 0 1 0 1.414-1.414z" clip-rule="evenodd"/></svg>