<svg xmlns="http://www.w3.org/2000/svg" fill="none" viewBox="0 0 24 24"><path fill="#090404" fill-rule="evenodd" d="M10 8a2 2 0 0 1-2 2H4a1 1 0 0 1 0-2h4V4a1 1 0 0 1 2 0z" clip-rule="evenodd"/><path fill="#090404" fill-rule="evenodd" d="M21 9a1 1 0 0 1-1 1h-4a2 2 0 0 1-2-2V4a1 1 0 1 1 2 0v4h4a1 1 0 0 1 1 1" clip-rule="evenodd"/><path fill="#090404" fill-rule="evenodd" d="M15 21a1 1 0 0 1-1-1v-4a2 2 0 0 1 2-2h4a1 1 0 1 1 0 2h-4v4a1 1 0 0 1-1 1" clip-rule="evenodd"/><path fill="#090404" fill-rule="evenodd" d="M9 21a1 1 0 0 1-1-1v-4H4a1 1 0 1 1 0-2h4a2 2 0 0 1 2 2v4a1 1 0 0 1-1 1" clip-rule="evenodd"/></svg>