<svg xmlns="http://www.w3.org/2000/svg" fill="none" viewBox="0 0 24 24"><path fill="#090404" fill-rule="evenodd" d="M11 9a2 2 0 0 1-2 2H4a1 1 0 1 1 0-2h5V4a1 1 0 0 1 2 0z" clip-rule="evenodd"/><path fill="#090404" fill-rule="evenodd" d="M21 10a1 1 0 0 1-1 1h-5a2 2 0 0 1-2-2V4a1 1 0 1 1 2 0v5h5a1 1 0 0 1 1 1" clip-rule="evenodd"/><path fill="#090404" fill-rule="evenodd" d="M14 21a1 1 0 0 1-1-1v-5a2 2 0 0 1 2-2h5a1 1 0 1 1 0 2h-5v5a1 1 0 0 1-1 1" clip-rule="evenodd"/><path fill="#090404" fill-rule="evenodd" d="M10 21a1 1 0 0 1-1-1v-5H4a1 1 0 1 1 0-2h5a2 2 0 0 1 2 2v5a1 1 0 0 1-1 1" clip-rule="evenodd"/></svg>