<svg xmlns="http://www.w3.org/2000/svg" fill="none" viewBox="0 0 24 24"><path fill="#090404" fill-rule="evenodd" d="M11.184 2.295C11.333 2.181 11.618 2 12 2s.667.18.816.295c.167.128.306.283.419.427.226.292.436.663.613 1.052.35.768.652 1.788.652 2.726a2.5 2.5 0 0 1-5 0c0-.938.303-1.958.652-2.726.177-.39.387-.76.613-1.052.112-.144.252-.3.419-.427m.789 2.306c-.276.607-.473 1.337-.473 1.899a.5.5 0 0 0 1 0c0-.562-.197-1.292-.473-1.899L12 4.543z" clip-rule="evenodd"/><path fill="#090404" d="M4 21a1 1 0 0 1 1-1h1.18l1.748-8.74 2.791 3.49L6.52 20h2.562L12 16.35 14.92 20h2.56l-4.2-5.25 2.792-3.49L17.82 20H19a1 1 0 1 1 0 2H5a1 1 0 0 1-1-1"/><path fill="#090404" d="M12 13.15 9.48 10h5.04z"/></svg>