<svg xmlns="http://www.w3.org/2000/svg" fill="none" viewBox="0 0 24 24"><path fill="#090404" d="M2.632 17.48a1.25 1.25 0 0 1 0-1.768l.177-.176a1.25 1.25 0 0 1 1.767 0l3.89 3.889a1.25 1.25 0 0 1 0 1.767l-.177.177a1.25 1.25 0 0 1-1.768 0z"/><path fill="#090404" d="M15.536 4.575a1.25 1.25 0 0 1 0-1.767l.177-.177a1.25 1.25 0 0 1 1.768 0l3.89 3.889a1.25 1.25 0 0 1 0 1.768l-.178.176a1.25 1.25 0 0 1-1.768 0z"/><path fill="#090404" d="M3.516 13.06a1.25 1.25 0 0 1 0-1.767l.53-.53a1.25 1.25 0 0 1 1.768 0l7.424 7.424a1.25 1.25 0 0 1 0 1.768l-.53.53a1.25 1.25 0 0 1-1.768 0z"/><path fill="#090404" d="M10.764 5.813a1.25 1.25 0 0 1 0-1.768l.53-.53a1.25 1.25 0 0 1 1.768 0l7.424 7.424a1.25 1.25 0 0 1 0 1.768l-.53.53a1.25 1.25 0 0 1-1.768 0z"/><path fill="#090404" d="m8.819 12.354 3.535-3.536 2.829 2.828-3.536 3.536z"/></svg>