<svg xmlns="http://www.w3.org/2000/svg" fill="none" viewBox="0 0 24 24"><path fill="#090404" fill-rule="evenodd" d="M5 9.5a7.5 7.5 0 1 1 15 0v.106a6.78 6.78 0 0 1-1.986 4.794l-2.389 2.39a7 7 0 0 0-1.311 1.818l-.395.79A4.708 4.708 0 0 1 5 17.291zM12.5 6A3.5 3.5 0 0 0 9 9.5c0 .582.074 1.085.158 1.53.036.192.07.355.102.506.048.23.09.434.127.672.101.66.11 1.357-.315 2.42a1 1 0 0 0 1.857.743c.574-1.436.583-2.498.434-3.467a18 18 0 0 0-.162-.856c-.029-.14-.056-.273-.078-.39A6 6 0 0 1 11 9.5a1.5 1.5 0 0 1 3 0 1 1 0 1 0 2 0A3.5 3.5 0 0 0 12.5 6" clip-rule="evenodd"/></svg>