<svg xmlns="http://www.w3.org/2000/svg" fill="none" viewBox="0 0 24 24"><path fill="#090404" fill-rule="evenodd" d="M22 12c0 5.523-4.477 10-10 10S2 17.523 2 12 6.477 2 12 2s10 4.477 10 10m-6.398 5c.227 0 .435-.13.537-.338l.798-1.625a.62.62 0 0 0-.202-.78l-2.965-2.03a.6.6 0 0 0-.296-.102l-1.9-.124a.6.6 0 0 0-.462.177l-.79.802a.62.62 0 0 0-.075.772l1.948 2.976c.111.17.298.272.5.272zM8.27 10.465a.5.5 0 0 1-.748.174L5.098 8.811a.48.48 0 0 1-.14-.61 8 8 0 0 1 8.498-4.069c.271.05.434.323.367.592l-.749 2.986a.5.5 0 0 1-.363.363l-3.483.876a.5.5 0 0 0-.325.26z" clip-rule="evenodd"/></svg>