<svg xmlns="http://www.w3.org/2000/svg" fill="none" viewBox="0 0 24 24"><path fill="#090404" fill-rule="evenodd" d="M5.568 3H11a1 1 0 1 1 0 2H5.6a8 8 0 0 0-.589.011v.014C5 5.14 5 5.303 5 5.6v12.8a8 8 0 0 0 .011.589h.014c.116.01.278.011.575.011h12.8c.297 0 .459 0 .575-.01l.014-.001v-.014c.01-.116.011-.279.011-.575V13a1 1 0 1 1 2 0v5.432c0 .252 0 .498-.017.706a2 2 0 0 1-.201.77 2 2 0 0 1-.874.874 2 2 0 0 1-.77.201c-.208.017-.454.017-.706.017H5.568c-.252 0-.498 0-.706-.017a2 2 0 0 1-.77-.201 2 2 0 0 1-.874-.874 2 2 0 0 1-.201-.77C3 18.93 3 18.684 3 18.432V5.568c0-.252 0-.498.017-.706.019-.229.063-.499.201-.77a2 2 0 0 1 .874-.874c.271-.138.541-.182.77-.201C5.07 3 5.316 3 5.568 3" clip-rule="evenodd"/><path fill="#090404" d="M19.664 2.75a2 2 0 0 0-2.828 0L8.586 11A2 2 0 0 0 8 12.414V15a1 1 0 0 0 1 1h2.586A2 2 0 0 0 13 15.414l8.25-8.25a2 2 0 0 0 0-2.828z"/></svg>