<svg xmlns="http://www.w3.org/2000/svg" fill="none" viewBox="0 0 24 24"><path fill="#090404" fill-rule="evenodd" d="M20.414 2a2 2 0 0 0-2.828 0l-5.293 5.293A1 1 0 0 0 12 8v3a1 1 0 0 0 1 1h3a1 1 0 0 0 .707-.293L22 6.414a2 2 0 0 0 0-2.828zM14 10V8.414l5-5L20.586 5l-5 5z" clip-rule="evenodd"/><path fill="#090404" d="M5.568 3h8.19l-2.88 2.879A3 3 0 0 0 10 8v3a3 3 0 0 0 3 3h3a3 3 0 0 0 2.121-.879L21 10.243v8.189c0 .252 0 .498-.017.706a2 2 0 0 1-.201.77 2 2 0 0 1-.874.874 2 2 0 0 1-.77.201c-.208.017-.454.017-.706.017H5.568c-.252 0-.498 0-.706-.017a2 2 0 0 1-.77-.201 2 2 0 0 1-.874-.874 2 2 0 0 1-.201-.77C3 18.93 3 18.684 3 18.432V5.568c0-.252 0-.498.017-.706.019-.229.063-.499.201-.77a2 2 0 0 1 .874-.874c.271-.138.541-.182.77-.201C5.07 3 5.316 3 5.568 3"/></svg>