<svg xmlns="http://www.w3.org/2000/svg" fill="none" viewBox="0 0 24 24"><path fill="#090404" d="M20.414 2a2 2 0 0 0-2.828 0l-5.293 5.293A1 1 0 0 0 12 8v3a1 1 0 0 0 1 1h3a1 1 0 0 0 .707-.293L22 6.414a2 2 0 0 0 0-2.828z"/><path fill="#090404" d="M5.568 3H11a1 1 0 1 1 0 2H5.6c-.297 0-.459 0-.575.01l-.014.001v.014C5 5.14 5 5.303 5 5.6v12.8c0 .296 0 .459.01.575l.001.013.014.002c.116.01.278.01.575.01h12.8c.297 0 .459 0 .575-.01l.014-.002v-.013c.01-.116.011-.279.011-.575V13a1 1 0 1 1 2 0v5.432c0 .252 0 .498-.017.706a2 2 0 0 1-.201.77 2 2 0 0 1-.874.874 2 2 0 0 1-.77.2c-.208.018-.454.018-.706.018H5.568c-.252 0-.498 0-.706-.017a2 2 0 0 1-.77-.201 2 2 0 0 1-.874-.874 2 2 0 0 1-.201-.77C3 18.93 3 18.684 3 18.432V5.568c0-.252 0-.498.017-.706.019-.229.063-.499.201-.77a2 2 0 0 1 .874-.874c.271-.138.541-.182.77-.201C5.07 3 5.316 3 5.568 3"/></svg>