<svg xmlns="http://www.w3.org/2000/svg" fill="none" viewBox="0 0 24 24"><path fill="#090404" d="M6.146 13.447c1.666-.985 3.76-1.083 5.807-.064a.18.18 0 0 0 .152.007c2.071-.91 4.143-.897 5.805.04 1.663.937 2.741 2.701 3.019 4.941.151 1.226-.862 2.13-1.937 2.13H17.97a2 2 0 0 1-1.537-.72l-.412-.496-.518.297a2 2 0 0 1-2.01-.013L12 18.69l-1.491.88a2 2 0 0 1-2.011.012l-.518-.297-.412.496c-.38.456-.943.72-1.537.72H5c-1.063 0-2.092-.895-1.926-2.132l.065-.401c.37-1.982 1.46-3.606 3.007-4.52"/><path fill="#090404" fill-rule="evenodd" d="M17 3a4 4 0 1 1-3.944 4.665 3 3 0 0 0-2.113 0 4 4 0 1 1-.184-2.035 5 5 0 0 1 2.481 0A4 4 0 0 1 17 3M7 5a2 2 0 1 0 0 4 2 2 0 0 0 0-4m10 0a2 2 0 1 0 0 4 2 2 0 0 0 0-4" clip-rule="evenodd"/></svg>