<svg xmlns="http://www.w3.org/2000/svg" fill="none" viewBox="0 0 24 24"><path fill="#090404" fill-rule="evenodd" d="M2 6.568q0-.186.002-.362l8.974 5.348a2 2 0 0 0 2.048 0l8.974-5.348q.002.175.002.362V14a3 3 0 1 0-6 0 3 3 0 1 0 0 6H4.568c-.252 0-.498 0-.706-.017a2 2 0 0 1-.77-.201 2 2 0 0 1-.874-.874 2 2 0 0 1-.201-.77C2 17.93 2 17.684 2 17.432zm18.908-2.35a2 2 0 0 1 .257.156L12 9.836 2.835 4.374a2 2 0 0 1 .257-.156c.271-.138.541-.182.77-.201C4.07 4 4.316 4 4.568 4h14.864c.252 0 .498 0 .706.017.229.019.499.063.77.201" clip-rule="evenodd"/><path fill="#090404" d="M20 14a1 1 0 1 0-2 0v2h-2a1 1 0 1 0 0 2h2v2a1 1 0 1 0 2 0v-2h2a1 1 0 1 0 0-2h-2z"/></svg>