<svg xmlns="http://www.w3.org/2000/svg" fill="none" viewBox="0 0 24 24"><path fill="#090404" fill-rule="evenodd" d="M2 6.568q0-.186.002-.362l8.974 5.348a2 2 0 0 0 2.048 0l8.974-5.348q.002.175.002.362v5.235A6 6 0 0 0 13.803 20H4.568c-.252 0-.498 0-.706-.017a2 2 0 0 1-.77-.201 2 2 0 0 1-.874-.874 2 2 0 0 1-.201-.77C2 17.93 2 17.684 2 17.432zm18.908-2.35a2 2 0 0 1 .257.156L12 9.836 2.835 4.374a2 2 0 0 1 .257-.156c.271-.138.541-.182.77-.201C4.07 4 4.316 4 4.568 4h14.864c.252 0 .498 0 .706.017.229.019.499.063.77.201" clip-rule="evenodd"/><path fill="#090404" fill-rule="evenodd" d="M19 12.75a1 1 0 0 1 1 1v.42c.351.125.672.313.95.55l.365-.211a1 1 0 1 1 1 1.732l-.365.21a3 3 0 0 1 0 1.097l.365.211a1 1 0 1 1-1 1.732l-.366-.21a3 3 0 0 1-.949.548v.421a1 1 0 1 1-2 0v-.42a3 3 0 0 1-.95-.55l-.365.211a1 1 0 1 1-1-1.732l.365-.21a3 3 0 0 1 0-1.097l-.365-.211a1 1 0 0 1 1-1.732l.366.21c.277-.236.598-.424.949-.548v-.421a1 1 0 0 1 1-1M19 16a1 1 0 1 0-.002 1.998A1 1 0 0 0 19 16" clip-rule="evenodd"/></svg>