<svg xmlns="http://www.w3.org/2000/svg" fill="none" viewBox="0 0 24 24"><path fill="#090404" fill-rule="evenodd" d="M20 2a4 4 0 1 0 0 8 4 4 0 0 0 0-8" clip-rule="evenodd"/><path fill="#090404" fill-rule="evenodd" d="M18 6a2 2 0 1 1 4 0 2 2 0 0 1-4 0" clip-rule="evenodd"/><path fill="#090404" d="M20 12a6 6 0 0 1-1.76-.262A15.95 15.95 0 0 1 12 13c-3.784 0-7.26-1.313-10-3.51V18a2 2 0 0 0 2 2h16a2 2 0 0 0 2-2v-6.341A6 6 0 0 1 20 12"/><path fill="#090404" d="M14 6c0-.701.12-1.374.341-2H4a2 2 0 0 0-2 2v.798A13.96 13.96 0 0 0 12 11c1.374 0 2.702-.198 3.957-.567A5.99 5.99 0 0 1 14 6"/></svg>