<svg xmlns="http://www.w3.org/2000/svg" fill="none" viewBox="0 0 24 24"><path fill="#090404" d="M21.987 5.972c.01.182.013.387.013.596v8.503l-.053-.02-.537-1.396-.078-.182a2.582 2.582 0 0 0-4.664 0l-.078.182-.538 1.397-1.397.538A2.582 2.582 0 0 0 13.95 20H4.57c-.253 0-.5 0-.708-.017a2 2 0 0 1-.77-.2 2 2 0 0 1-.873-.875 2 2 0 0 1-.201-.77C2 17.93 2 17.685 2 17.433V6.568c0-.209.002-.414.012-.596l8.811 6.409c.701.51 1.652.51 2.354 0z"/><path fill="#090404" d="M15.373 17.456a1 1 0 0 0-.08.04l-.001-.002a1 1 0 0 1 .081-.038l.49-.19 1.323-.506z"/><path fill="#090404" d="M19.432 4c.252 0 .498 0 .707.017.228.018.498.063.77.2l.051.03L12 10.764 3.04 4.247l.052-.03c.271-.137.54-.182.77-.2C4.068 4 4.315 4 4.567 4z"/><path fill="#090404" d="m20.24 16.185-.696-1.812a.582.582 0 0 0-1.088 0l-.696 1.812a1 1 0 0 1-.574.575l-1.813.696a.582.582 0 0 0 0 1.088l1.812.697a1 1 0 0 1 .575.574l.696 1.812a.582.582 0 0 0 1.088 0l.697-1.812a1 1 0 0 1 .574-.575l1.812-.696a.582.582 0 0 0 0-1.088l-1.812-.696a1 1 0 0 1-.575-.575"/></svg>