<svg xmlns="http://www.w3.org/2000/svg" fill="none" viewBox="0 0 24 24"><path fill="#090404" fill-rule="evenodd" d="M12 2c5.523 0 10 4.477 10 10s-4.477 10-10 10S2 17.523 2 12 6.477 2 12 2m4.127 12.1a.73.73 0 0 0-.544.002.84.84 0 0 0-.414.367 1 1 0 0 1-.077.094c-.227.245-.626.42-1.155.558-.524.137-1.131.191-1.751.214l-.209.007a.9.9 0 1 0 .046 1.799l.228-.007c.688-.027 1.397-.08 2.144-.272.72-.188 1.62-.612 2.051-1.53a2 2 0 0 0 .114-.3.84.84 0 0 0-.043-.553.73.73 0 0 0-.39-.378M9.25 7.5c-.828 0-1.5.796-1.5 1.9 0 1.105.672 1.85 1.5 1.85s1.5-.745 1.5-1.85-.672-1.9-1.5-1.9m5.5 0c-.828 0-1.5.796-1.5 1.9 0 1.105.672 1.85 1.5 1.85s1.5-.745 1.5-1.85-.672-1.9-1.5-1.9" clip-rule="evenodd"/></svg>