<svg xmlns="http://www.w3.org/2000/svg" fill="none" viewBox="0 0 24 24"><path fill="#090404" fill-rule="evenodd" d="M2 12C2 6.477 6.477 2 12 2s10 4.477 10 10-4.477 10-10 10S2 17.523 2 12m4.574-2.237a1 1 0 0 1 1.39.037l.005.004a1 1 0 0 0 .104.068c.103.056.283.128.552.128s.45-.072.552-.128a1 1 0 0 0 .104-.068l.005-.004a1 1 0 0 1 1.451 1.376L10 10.5c.737.676.738.675.737.676l-.001.001-.002.002-.002.003-.007.007-.015.016a2 2 0 0 1-.163.147c-.099.081-.236.18-.412.276a3.13 3.13 0 0 1-1.51.372 3.13 3.13 0 0 1-1.51-.372 2.7 2.7 0 0 1-.534-.383l-.04-.04-.016-.016-.006-.007-.003-.003-.002-.002s-.001-.001.736-.677l-.737.676a1 1 0 0 1 .061-1.413m8.14.037a1 1 0 0 0-1.451 1.376L14 10.5c-.737.676-.738.675-.737.676l.001.001.002.002.002.003.007.007.015.016a2 2 0 0 0 .163.147c.099.081.236.18.412.276.355.194.862.372 1.51.372s1.155-.178 1.51-.372a2.7 2.7 0 0 0 .534-.383l.04-.04.016-.016.006-.007.003-.003.002-.002s.001-.001-.736-.677l.737.676A1 1 0 0 0 16.036 9.8l-.005.004a1 1 0 0 1-.104.068 1.14 1.14 0 0 1-.552.128c-.269 0-.45-.072-.552-.128a1 1 0 0 1-.104-.068zm-4.28 4.799a1 1 0 1 0-.867 1.802c.8.385 1.6.599 2.433.599s1.633-.214 2.433-.599a1 1 0 1 0-.866-1.802C12.98 14.88 12.475 15 12 15s-.98-.12-1.567-.401" clip-rule="evenodd"/></svg>