<svg xmlns="http://www.w3.org/2000/svg" fill="none" viewBox="0 0 24 24"><path fill="#090404" fill-rule="evenodd" d="M12 2c5.523 0 10 4.477 10 10s-4.477 10-10 10S2 17.523 2 12 6.477 2 12 2m0 11c-1.105 0-2 .774-2 2.5s.895 2.5 2 2.5 2-.774 2-2.5-.895-2.5-2-2.5M9.25 9C8.56 9 8 9.672 8 10.5S8.56 12 9.25 12s1.25-.672 1.25-1.5S9.94 9 9.25 9m5.5 0c-.69 0-1.25.672-1.25 1.5s.56 1.5 1.25 1.5S16 11.328 16 10.5 15.44 9 14.75 9M9.946 6.9c-.552-1.23-3.936.657-3.385 1.888.266.594.93-.202 1.793-.661.845-.449 1.898-.545 1.592-1.227m7.493 1.888c.551-1.23-2.833-3.119-3.385-1.888-.306.682.747.778 1.592 1.227.863.459 1.527 1.255 1.793.661" clip-rule="evenodd"/></svg>