<svg xmlns="http://www.w3.org/2000/svg" fill="none" viewBox="0 0 24 24"><path fill="#090404" fill-rule="evenodd" d="M12 2c5.523 0 10 4.477 10 10s-4.477 10-10 10S2 17.523 2 12 6.477 2 12 2m4.318 10.059a.436.436 0 0 0-.636 0c-1.796 1.906-2.129 5.19.318 5.191s2.114-3.285.318-5.191M12 14.479c-1.38 0-2.5.884-2.5 1.5 0 .617 1.12-.015 2.5-.015.604 0 1.158.12 1.59.205a3.6 3.6 0 0 1-.083-1.024 4 4 0 0 1 .025-.284A3.3 3.3 0 0 0 12 14.48M9.25 7.75c-.828 0-1.5.69-1.5 1.646 0 .958.672 1.604 1.5 1.604s1.5-.646 1.5-1.604c0-.957-.672-1.646-1.5-1.646m5.5 0c-.828 0-1.5.69-1.5 1.646 0 .958.672 1.604 1.5 1.604s1.5-.646 1.5-1.604c0-.957-.672-1.646-1.5-1.646" clip-rule="evenodd"/></svg>