<svg xmlns="http://www.w3.org/2000/svg" fill="none" viewBox="0 0 24 24"><path fill="#090404" fill-rule="evenodd" d="M12 2c5.523 0 10 4.477 10 10s-4.477 10-10 10S2 17.523 2 12 6.477 2 12 2m3.852 11.615c-.918.155-2.62.41-3.852.41-1.233 0-2.935-.255-3.853-.41-.326-.055-.62.215-.56.54.967 5.135 7.857 5.118 8.825 0 .062-.325-.234-.595-.56-.54M9.25 7.5c-.828 0-1.5.796-1.5 1.9 0 1.105.672 1.85 1.5 1.85s1.5-.745 1.5-1.85-.672-1.9-1.5-1.9m5.5 0c-.828 0-1.5.796-1.5 1.9 0 1.105.672 1.85 1.5 1.85s1.5-.745 1.5-1.85-.672-1.9-1.5-1.9" clip-rule="evenodd"/></svg>