<svg xmlns="http://www.w3.org/2000/svg" fill="none" viewBox="0 0 24 24"><path fill="#090404" fill-rule="evenodd" d="M12 2c1.244 0 2.434.229 3.532.644A2 2 0 0 0 17 6h1v1a2 2 0 0 0 2 2 2 2 0 0 0 1.355-.533A10 10 0 0 1 22 12c0 5.523-4.477 10-10 10S2 17.523 2 12 6.477 2 12 2m3.452 12.037a.8.8 0 0 0-.48.294q-.11.138-.23.26c-.718.745-1.723 1.136-2.738 1.134-1.016 0-2.02-.393-2.741-1.136a4 4 0 0 1-.232-.26.8.8 0 0 0-.481-.292.74.74 0 0 0-.546.114.74.74 0 0 0-.309.465.8.8 0 0 0 .094.555q.127.213.276.415c.892 1.218 2.422 1.95 3.937 1.94 1.514.012 3.049-.72 3.938-1.941q.149-.201.276-.416a.8.8 0 0 0 .092-.555.74.74 0 0 0-.31-.465.74.74 0 0 0-.546-.112M9.25 7.5c-.828 0-1.5.796-1.5 1.9 0 1.105.672 1.85 1.5 1.85s1.5-.745 1.5-1.85-.672-1.9-1.5-1.9m5.5 0c-.828 0-1.5.796-1.5 1.9 0 1.105.672 1.85 1.5 1.85s1.5-.745 1.5-1.85-.672-1.9-1.5-1.9" clip-rule="evenodd"/><path fill="#090404" d="M20 0a1 1 0 0 1 1 1v2h2a1 1 0 1 1 0 2h-2v2a1 1 0 1 1-2 0V5h-2a1 1 0 1 1 0-2h2V1a1 1 0 0 1 1-1"/></svg>