<svg xmlns="http://www.w3.org/2000/svg" fill="none" viewBox="0 0 24 24"><path fill="#090404" fill-rule="evenodd" d="M12 2c5.523 0 10 4.477 10 10s-4.477 10-10 10S2 17.523 2 12 6.477 2 12 2m.002 11.85c-1.406-.005-2.811.564-3.795 1.54a5 5 0 0 0-.313.336.8.8 0 0 0-.19.529.74.74 0 0 0 .22.512.74.74 0 0 0 .517.209c.194 0 .38-.075.525-.202q.129-.111.264-.21a4.66 4.66 0 0 1 2.773-.914 4.63 4.63 0 0 1 3.033 1.123c.144.127.33.202.524.203.195 0 .38-.074.518-.207a.74.74 0 0 0 .222-.512.8.8 0 0 0-.188-.53 5 5 0 0 0-.313-.336c-.983-.98-2.391-1.549-3.797-1.541M7.237 7.705a.76.76 0 0 0-.543.08.74.74 0 0 0-.351.413.74.74 0 0 0 .033.541.76.76 0 0 0 .387.39l.146.061 1.195.506A1.6 1.6 0 0 0 8 10.27c0 .883.672 1.48 1.5 1.48s1.5-.597 1.5-1.48q-.002-.258-.073-.483.011-.026.021-.054c.09-.271.078-.564-.04-.8a.89.89 0 0 0-.592-.464l-.154-.04-2.77-.686zm9.526 0-.155.038-2.77.687-.154.039a.89.89 0 0 0-.591.464c-.119.236-.132.529-.041.8l.02.054q-.07.225-.072.482c0 .884.672 1.481 1.5 1.481s1.5-.597 1.5-1.48c0-.207-.039-.4-.105-.574l1.196-.506.146-.061a.76.76 0 0 0 .387-.39.74.74 0 0 0 .033-.54.74.74 0 0 0-.351-.414.76.76 0 0 0-.543-.08" clip-rule="evenodd"/></svg>