<svg xmlns="http://www.w3.org/2000/svg" fill="none" viewBox="0 0 24 24"><path fill="#090404" fill-rule="evenodd" d="M12 2c5.523 0 10 4.477 10 10s-4.477 10-10 10S2 17.523 2 12 6.477 2 12 2m3.852 11.865c-.918.155-2.62.41-3.852.41-1.233 0-2.935-.255-3.853-.41-.326-.055-.62.215-.56.54.967 5.135 7.857 5.118 8.825 0 .062-.325-.234-.595-.56-.54M8.47 6.606a.25.25 0 0 0-.428.03l-.633 1.242a.25.25 0 0 1-.15.125l-1.332.408a.25.25 0 0 0-.104.416l.985.986a.25.25 0 0 1 .073.181l-.024 1.394a.25.25 0 0 0 .364.227l1.242-.632a.25.25 0 0 1 .195-.013l1.318.452a.25.25 0 0 0 .329-.276l-.218-1.375a.25.25 0 0 1 .048-.19l.838-1.114a.25.25 0 0 0-.162-.397l-1.375-.22a.25.25 0 0 1-.165-.102zm7.49.03a.25.25 0 0 0-.427-.03l-.8 1.142a.25.25 0 0 1-.166.103l-1.376.22a.25.25 0 0 0-.16.396l.837 1.114a.25.25 0 0 1 .048.19l-.218 1.375a.25.25 0 0 0 .328.276l1.319-.452a.25.25 0 0 1 .194.013l1.243.632a.25.25 0 0 0 .363-.227l-.023-1.394a.25.25 0 0 1 .072-.18l.986-.987a.25.25 0 0 0-.104-.416l-1.333-.408a.25.25 0 0 1-.15-.125z" clip-rule="evenodd"/></svg>