<svg xmlns="http://www.w3.org/2000/svg" fill="none" viewBox="0 0 24 24"><path fill="#090404" fill-rule="evenodd" d="M12 2c5.523 0 10 4.477 10 10s-4.477 10-10 10S2 17.523 2 12 6.477 2 12 2m4.567 10.823a28.5 28.5 0 0 1-8.579 1.513c-.328.008-.567.324-.445.63 1.945 4.882 9.495 3.533 9.658-1.702.01-.33-.322-.546-.634-.44M7.078 9.038c-.441-.035-.643.49-.32.792l.681.639a.5.5 0 0 1 .105.59l-.422.835c-.2.395.17.817.572.633 1.006-.46 1.96-1.106 2.662-1.924a.435.435 0 0 0-.117-.666c-.94-.53-2.058-.81-3.16-.899m9.106-.87c.2-.395-.17-.819-.573-.635-1.006.46-1.96 1.107-2.662 1.925a.435.435 0 0 0 .117.666c.94.529 2.059.81 3.161.899.442.034.644-.489.32-.792l-.68-.64a.5.5 0 0 1-.105-.59z" clip-rule="evenodd"/></svg>