<svg xmlns="http://www.w3.org/2000/svg" fill="none" viewBox="0 0 24 24"><path fill="#090404" fill-rule="evenodd" d="M18.62 2.746c1.216-.215 2.38.705 2.38 1.98V12.5a9 9 0 0 1-18 0V4.727C3 3.45 4.164 2.53 5.38 2.747c4.48.792 8.76.792 13.24 0M15.791 14.07c.27-.397-.187-.835-.632-.653q-3.159 1.293-6.318 0c-.445-.182-.902.256-.632.653 2.028 2.991 5.554 2.991 7.582 0M9.25 9c-.966 0-1.75.719-1.75 1.605 0 .887.784 0 1.75 0s1.75.887 1.75 0C11 9.72 10.216 9 9.25 9m5.5 0c-.966 0-1.75.719-1.75 1.605 0 .537.287.425.727.252.287-.112.641-.252 1.023-.252s.736.14 1.023.252c.44.173.727.285.727-.252C16.5 9.72 15.716 9 14.75 9" clip-rule="evenodd"/></svg>