<svg xmlns="http://www.w3.org/2000/svg" fill="none" viewBox="0 0 24 24"><path fill="#090404" fill-rule="evenodd" d="M12 22c5.523 0 10-4.477 10-10S17.523 2 12 2 2 6.477 2 12s4.477 10 10 10M10.966 8.3c.562.88.284 2.323-1.614 3.83a.26.26 0 0 1-.24.042c-2.299-.766-3.053-2.027-2.826-3.048.11-.495.454-.897.91-1.083a1.56 1.56 0 0 1 1.326.082 1.56 1.56 0 0 1 1.218-.53c.492.019.953.278 1.226.706m3.925 3.872c2.298-.766 3.053-2.027 2.826-3.048a1.53 1.53 0 0 0-.911-1.082 1.56 1.56 0 0 0-1.326.081 1.56 1.56 0 0 0-1.217-.53 1.52 1.52 0 0 0-1.226.706c-.563.881-.285 2.325 1.613 3.83.068.054.158.07.24.043m.557 1.881c.296-.026.555.206.514.5a4 4 0 0 1-7.924 0c-.04-.294.218-.526.514-.5 2.309.206 4.587.206 6.896 0" clip-rule="evenodd"/></svg>