<svg xmlns="http://www.w3.org/2000/svg" fill="none" viewBox="0 0 24 24"><path fill="#090404" fill-rule="evenodd" d="M3 11a9 9 0 0 1 18 0c0 3.327-1.655 6.302-3.497 8.409-.928 1.06-1.931 1.933-2.855 2.548-.461.308-.916.56-1.345.74-.415.172-.867.303-1.303.303-.437 0-.889-.13-1.303-.304a8 8 0 0 1-1.345-.739c-.924-.615-1.927-1.488-2.855-2.549C4.655 17.303 3 14.329 3 11m4.382-1.073c2.774-.094 3.459 1.31 3.59 3.19a.89.89 0 0 1-.854.956c-2.774.094-3.459-1.31-3.59-3.19a.89.89 0 0 1 .854-.956m9.236 0c-2.774-.094-3.459 1.31-3.59 3.19a.89.89 0 0 0 .854.956c2.774.094 3.459-1.31 3.59-3.19a.89.89 0 0 0-.854-.956" clip-rule="evenodd"/></svg>