<svg xmlns="http://www.w3.org/2000/svg" fill="none" viewBox="0 0 24 24"><path fill="#090404" fill-rule="evenodd" d="M12.001 4c4.095 0 8.065 2.44 10.628 7.055a1.95 1.95 0 0 1 0 1.89C20.066 17.561 16.096 20 12 20c-4.096 0-8.065-2.44-10.628-7.055a1.96 1.96 0 0 1 0-1.89C3.936 6.439 7.906 4 12.001 4M12 8a.58.58 0 0 0-.544.373l-.696 1.813a1 1 0 0 1-.574.574l-1.813.696a.583.583 0 0 0 0 1.088l1.813.696a1 1 0 0 1 .574.575l.696 1.812a.583.583 0 0 0 1.088 0l.696-1.812a1 1 0 0 1 .575-.575l1.812-.696a.583.583 0 0 0 0-1.088l-1.812-.696a1 1 0 0 1-.575-.575l-.696-1.812A.58.58 0 0 0 12 8" clip-rule="evenodd"/></svg>