<svg xmlns="http://www.w3.org/2000/svg" fill="none" viewBox="0 0 24 24"><path fill="#090404" fill-rule="evenodd" d="M2.293 2.293a1 1 0 0 1 1.414 0L7.344 5.93l.007.006L18.064 16.65l.006.006 3.637 3.637a1 1 0 0 1-1.414 1.414l-3.09-3.09c-2.585 1.442-5.48 1.763-8.217.933-2.982-.903-5.693-3.144-7.615-6.607a1.94 1.94 0 0 1 0-1.884c1.04-1.877 2.313-3.395 3.737-4.536L2.293 3.707a1 1 0 0 1 0-1.414M8 12c0-.741.203-1.436.554-2.032l1.514 1.514a2 2 0 0 0 2.45 2.45l1.514 1.514A4 4 0 0 1 8 12" clip-rule="evenodd"/><path fill="#090404" d="M22.628 12.945a16.2 16.2 0 0 1-2.274 3.167L8.762 4.519A10.4 10.4 0 0 1 12 4c4.095 0 8.065 2.44 10.628 7.055a1.95 1.95 0 0 1 0 1.89"/></svg>