<svg xmlns="http://www.w3.org/2000/svg" fill="none" viewBox="0 0 24 24"><path fill="#090404" fill-rule="evenodd" d="M3.706 2.293a1 1 0 0 0-1.414 1.414l2.815 2.815a14 14 0 0 0-1.873 1.826 16.5 16.5 0 0 0-1.865 2.711 1.94 1.94 0 0 0 0 1.883c2.99 5.39 7.902 7.804 12.645 6.859a11 11 0 0 0 3.188-1.184l3.09 3.09a1 1 0 0 0 1.414-1.414l-2.815-2.815c1.42-1.14 2.695-2.657 3.737-4.533a1.95 1.95 0 0 0 0-1.89C20.066 6.44 16.096 4 12 4c-1.795 0-3.565.468-5.204 1.383zm6.628 6.628 4.745 4.745a3.5 3.5 0 0 0-4.745-4.745m-4.955.045q.56-.564 1.152-1.02l9.188 9.188a9 9 0 0 1-1.585.587zm-1.294 1.535 7.487 7.487c-3.114-.163-6.265-2.09-8.438-5.988q.45-.806.951-1.499" clip-rule="evenodd"/></svg>