<svg xmlns="http://www.w3.org/2000/svg" fill="none" viewBox="0 0 24 24"><path fill="#090404" fill-rule="evenodd" d="M5 4c.69 0 1.25.56 1.25 1.25v2.5a1.25 1.25 0 1 1-2.5 0v-2.5C3.75 4.56 4.31 4 5 4m14 0c.69 0 1.25.56 1.25 1.25v2.5a1.25 1.25 0 1 1-2.5 0v-2.5c0-.69.56-1.25 1.25-1.25m-6 1c.69 0 1.25.56 1.25 1.25v6A3.25 3.25 0 0 1 11 15.5a1.25 1.25 0 1 1 0-2.5.75.75 0 0 0 .75-.75v-6c0-.69.56-1.25 1.25-1.25M5.037 16.453a1.25 1.25 0 0 1 1.76-.166C8.66 17.828 10.38 18.5 12 18.5s3.34-.672 5.203-2.213a1.25 1.25 0 0 1 1.594 1.926C16.629 20.005 14.365 21 12 21s-4.63-.995-6.797-2.787a1.25 1.25 0 0 1-.166-1.76" clip-rule="evenodd"/></svg>