<svg xmlns="http://www.w3.org/2000/svg" fill="none" viewBox="0 0 24 24"><path fill="#090404" d="M13.34 4a2 2 0 0 1 1.994 2.153l-.597 7.755A4 4 0 0 0 12.532 17h-1.064a4 4 0 0 0-7.924-.098 2 2 0 0 1-1.378-2.055L2.385 12H5a1 1 0 1 0 0-2H2.54l.153-2H7a1 1 0 1 0 0-2H2.847l.012-.153A2 2 0 0 1 4.853 4z"/><path fill="#090404" d="M19.215 6a2 2 0 0 1 1.664.89l1.497 2.246a2 2 0 0 1 .32 1.357l-.594 4.755a2 2 0 0 1-1.638 1.72 4 4 0 0 0-4.26-3.456L16.83 6z"/><path fill="#090404" d="M5 17.5a2.5 2.5 0 1 0 5 0 2.5 2.5 0 0 0-5 0"/><path fill="#090404" d="M14 17.5a2.5 2.5 0 1 0 5 0 2.5 2.5 0 0 0-5 0"/></svg>