<svg xmlns="http://www.w3.org/2000/svg" fill="none" viewBox="0 0 24 24"><path fill="#090404" d="M13 2a1 1 0 1 0-2 0v6a1 1 0 1 0 2 0z"/><path fill="#090404" d="M6.707 5.293a1 1 0 0 0-1.414 1.414l1.5 1.5a1 1 0 0 0 1.414-1.414z"/><path fill="#090404" d="M18.707 6.707a1 1 0 0 0-1.414-1.414l-1.5 1.5a1 1 0 0 0 1.414 1.414z"/><path fill="#090404" d="M2 11a1 1 0 1 0 0 2h6a1 1 0 1 0 0-2z"/><path fill="#090404" d="M16 11a1 1 0 1 0 0 2h6a1 1 0 1 0 0-2z"/><path fill="#090404" d="M13 16a1 1 0 1 0-2 0v6a1 1 0 1 0 2 0z"/><path fill="#090404" d="M8.207 17.207a1 1 0 1 0-1.414-1.414l-1.5 1.5a1 1 0 1 0 1.414 1.414z"/><path fill="#090404" d="M17.207 15.793a1 1 0 0 0-1.414 1.414l1.5 1.5a1 1 0 0 0 1.414-1.414z"/></svg>