<svg xmlns="http://www.w3.org/2000/svg" fill="none" viewBox="0 0 24 24"><path fill="#090404" d="M19.957 8a2 2 0 0 0-.543-1L16 3.586a2 2 0 0 0-1-.543V8z"/><path fill="#090404" d="M13 3H6a2 2 0 0 0-2 2v7h16v-2h-5a2 2 0 0 1-2-2z"/><path fill="#090404" fill-rule="evenodd" d="M8.5 15a1 1 0 0 1 1-1h1.75a2.5 2.5 0 0 1 0 5h-.75v1a1 1 0 1 1-2 0zm2 2h.75a.5.5 0 0 0 0-1h-.75z" clip-rule="evenodd"/><path fill="#090404" fill-rule="evenodd" d="M6.5 14a1 1 0 0 1 1 1v3.5A2.5 2.5 0 0 1 5 21h-.5a1 1 0 1 1 0-2H5a.5.5 0 0 0 .5-.5V15a1 1 0 0 1 1-1" clip-rule="evenodd"/><path fill="#090404" fill-rule="evenodd" d="M17.706 15.99a1.4 1.4 0 0 0-.397-.038c-.392.024-1.059.516-1.059 1.582 0 1.055.595 1.514 1.135 1.517.288-.004.547-.069.74-.162v-.834a1 1 0 1 1 2 0v1.328a1 1 0 0 1-.265.677c-.676.735-1.686.982-2.458.99l-.012.001c-1.943 0-3.14-1.676-3.14-3.517 0-1.833 1.223-3.474 2.937-3.579.285-.017.64.006.997.093.347.086.785.255 1.139.6a1 1 0 0 1-1.394 1.434c-.001-.001-.016-.015-.055-.034a1 1 0 0 0-.168-.058" clip-rule="evenodd"/></svg>