<svg xmlns="http://www.w3.org/2000/svg" fill="none" viewBox="0 0 24 24"><path fill="#090404" d="M19.957 8a2 2 0 0 0-.543-1L16 3.586a2 2 0 0 0-1-.543V8z"/><path fill="#090404" d="M13 3H6a2 2 0 0 0-2 2v7h16v-2h-5a2 2 0 0 1-2-2z"/><path fill="#090404" fill-rule="evenodd" d="M3 15a1 1 0 0 1 1-1h1.75a2.5 2.5 0 0 1 0 5H5v1a1 1 0 1 1-2 0zm2 2h.75a.5.5 0 0 0 0-1H5z" clip-rule="evenodd"/><path fill="#090404" fill-rule="evenodd" d="M9 15a1 1 0 0 1 1-1h1.25c.666 0 1.572.149 2.343.673C14.421 15.235 15 16.17 15 17.5c0 1.33-.579 2.265-1.407 2.827-.771.524-1.677.673-2.343.673H10a1 1 0 0 1-1-1zm2 1v3h.25c.417 0 .886-.101 1.22-.327.276-.188.53-.502.53-1.173 0-.67-.254-.985-.53-1.173-.334-.226-.803-.327-1.22-.327z" clip-rule="evenodd"/><path fill="#090404" fill-rule="evenodd" d="M16 15a1 1 0 0 1 1-1h3a1 1 0 1 1 0 2h-2v1h1a1 1 0 1 1 0 2h-1v1a1 1 0 1 1-2 0z" clip-rule="evenodd"/></svg>