<svg xmlns="http://www.w3.org/2000/svg" fill="none" viewBox="0 0 24 24"><path fill="#090404" d="M12 8a2 2 0 0 0 2 2h6v10a2 2 0 0 1-2 2H8.543l.404-1.053 1.398-.537a2.582 2.582 0 0 0 0-4.82l-1.398-.538-.537-1.397-.078-.182A2.583 2.583 0 0 0 4 12.95V4a2 2 0 0 1 2-2h6z"/><path fill="#090404" d="m9.136 17.267.491.19-1.813-.697z"/><path fill="#090404" d="M19.414 8H14V2.586z"/><path fill="#090404" d="m7.24 16.185-.696-1.812a.582.582 0 0 0-1.088 0l-.696 1.812a1 1 0 0 1-.575.575l-1.812.696a.582.582 0 0 0 0 1.088l1.812.697a1 1 0 0 1 .575.574l.696 1.812a.582.582 0 0 0 1.088 0l.696-1.812a1 1 0 0 1 .575-.575l1.812-.696a.582.582 0 0 0 0-1.088l-1.813-.696a1 1 0 0 1-.574-.575"/></svg>