<svg xmlns="http://www.w3.org/2000/svg" fill="none" viewBox="0 0 24 24"><path fill="#090404" fill-rule="evenodd" d="M7 3a1 1 0 0 1 1 1v13.586l1.293-1.293a1 1 0 0 1 1.414 1.414l-3 3a1 1 0 0 1-1.414 0l-3-3a1 1 0 1 1 1.414-1.414L6 17.586V4a1 1 0 0 1 1-1" clip-rule="evenodd"/><path fill="#090404" fill-rule="evenodd" d="M17.5 3c.811 0 1.527.53 1.764 1.306l1.189 3.89.496 1.488a1 1 0 0 1-1.898.632L18.78 9.5h-2.558l-.272.816a1 1 0 0 1-1.898-.632l.496-1.488 1.189-3.89A1.84 1.84 0 0 1 17.5 3m0 2.377L16.851 7.5h1.298z" clip-rule="evenodd"/><path fill="#090404" fill-rule="evenodd" d="M14 14a1 1 0 0 1 1-1h5a1 1 0 0 1 .768 1.64L17.135 19H20a1 1 0 1 1 0 2h-5a1 1 0 0 1-.768-1.64L17.865 15H15a1 1 0 0 1-1-1" clip-rule="evenodd"/></svg>