<svg xmlns="http://www.w3.org/2000/svg" fill="none" viewBox="0 0 24 24"><path fill="#090404" d="M12.595 2.633a1 1 0 0 1 1.81.85C13.011 6.453 11.976 8.9 11.242 12h.559c1.26 0 2.162 1.132 2 2.32a23 23 0 0 0-.22 3.193c1.396-.276 2.834-.92 4.348-1.973a1 1 0 0 1 1.142 1.64c-1.788 1.246-3.58 2.044-5.397 2.35q.057.66.152 1.327a1.001 1.001 0 0 1-1.98.285 26 26 0 0 1-.17-1.477c-2.285-.075-4.518-.932-6.747-2.485a1 1 0 1 1 1.142-1.64c1.938 1.35 3.752 2.027 5.51 2.12a25 25 0 0 1 .238-3.611.1.1 0 0 0 0-.024.1.1 0 0 0-.012-.02L11.801 14h-1.19a1.494 1.494 0 0 1-1.463-1.81l.152-.669c.78-3.29 1.88-5.875 3.294-8.888"/><path fill="#090404" d="M7 6.5a1 1 0 0 1 1 1v2a1 1 0 0 1-2 0v-2a1 1 0 0 1 1-1"/><path fill="#090404" d="M17 6.5a1 1 0 0 1 1 1v2a1 1 0 0 1-2 0v-2a1 1 0 0 1 1-1"/></svg>