<svg xmlns="http://www.w3.org/2000/svg" fill="none" viewBox="0 0 24 24"><path fill="#090404" fill-rule="evenodd" d="M3.5 10.5a8.5 8.5 0 0 1 9.765-8.406 1 1 0 0 1-.295 1.978A6.5 6.5 0 0 0 5.5 10.5v.792a1 1 0 1 1-2 0zm12.508-6.418a1 1 0 0 1 1.408-.133A8.49 8.49 0 0 1 20.5 10.5v3a8.5 8.5 0 0 1-.907 3.824 1 1 0 1 1-1.785-.901c.442-.878.692-1.87.692-2.923v-3a6.49 6.49 0 0 0-2.359-5.01 1 1 0 0 1-.133-1.408m-6.212 2.43A5 5 0 0 1 17 11v1.999q0 .105-.004.21a1 1 0 0 1-1.999-.083Q15 13.063 15 13v-2a3 3 0 0 0-4.322-2.694 1 1 0 0 1-.882-1.795m-1.751 3.32a1 1 0 0 1 .958 1.041L9 11v2a3 3 0 0 0 4.322 2.694 1 1 0 0 1 .882 1.795A5 5 0 0 1 7 13v-2q0-.105.004-.21a1 1 0 0 1 1.04-.957M12 10a1 1 0 0 1 1 1v2a1 1 0 1 1-2 0v-2a1 1 0 0 1 1-1m-7.52 4.344a1 1 0 0 1 1.211.73 6.503 6.503 0 0 0 9.76 3.936 1 1 0 1 1 1.063 1.694A8.503 8.503 0 0 1 3.75 15.556a1 1 0 0 1 .729-1.212" clip-rule="evenodd"/></svg>