<svg xmlns="http://www.w3.org/2000/svg" fill="none" viewBox="0 0 24 24"><path fill="#090404" fill-rule="evenodd" d="M12 4c-1.1 0-2.138.253-3.062.703a1 1 0 1 1-.876-1.797A9 9 0 0 1 21.001 11c0 2.13-.196 4.217-.572 6.24a1 1 0 1 1-1.966-.364C18.816 14.972 19 13.008 19 11a7 7 0 0 0-7-7M6.085 5.524a1 1 0 0 1 .228 1.396A6.96 6.96 0 0 0 5.001 11c0 1.467-.176 2.893-.508 4.26a1 1 0 1 1-1.943-.471C2.845 13.575 3 12.307 3 11c0-1.957.626-3.77 1.688-5.247a1 1 0 0 1 1.396-.229M12 8a3 3 0 0 0-3 3c0 1.248-.104 2.473-.304 3.665a1 1 0 0 1-1.973-.33c.182-1.084.277-2.198.277-3.335a5 5 0 0 1 10 0q0 .956-.06 1.898a1 1 0 0 1-1.995-.125A29 29 0 0 0 15 11a3 3 0 0 0-3-3m0 2a1 1 0 0 1 1 1 26 26 0 0 1-2.065 10.172 1 1 0 1 1-1.84-.783q.376-.885.683-1.806A24 24 0 0 0 11 11a1 1 0 0 1 1-1m3.706 5.268a1 1 0 0 1 .803 1.163 30 30 0 0 1-1.226 4.596 1 1 0 0 1-1.885-.669 28 28 0 0 0 1.144-4.286 1 1 0 0 1 1.164-.804m-8.478 1.481a1 1 0 0 1 .63 1.267q-.243.72-.532 1.416a1 1 0 0 1-1.847-.767q.263-.633.483-1.287a1 1 0 0 1 1.266-.629" clip-rule="evenodd"/></svg>