<svg xmlns="http://www.w3.org/2000/svg" fill="none" viewBox="0 0 24 24"><path fill="#090404" d="M19.99 5.932a10 10 0 0 0-1.083-1.216 8 8 0 0 0-.798-.686 6.5 6.5 0 0 0-1.646-1.019A9.85 9.85 0 0 0 12.4 2.002c-2.321-.046-3.925.652-4.833 1.214q-.484.288-.89.677a8.4 8.4 0 0 1 5.25-.99c3.536.465 6.769 3.22 6.769 6.855 0 2.798-2.158 4.934-4.685 4.78-3.753-.225-4.7-4.081-2.747-5.748-.526-.113-1.516.109-2.205 1.14-.618.927-.583 2.358-.202 3.372a5.4 5.4 0 0 1-.49-1.586c-.495-3.344 1.747-6.195 3.802-6.9-1.109-.971-3.887-.905-5.955.619-1.2.884-2.06 2.14-2.516 3.635a9.5 9.5 0 0 1 1.034-3.374c-.692.359-1.574 1.494-2.009 2.545a10.4 10.4 0 0 0-.649 5.054l.013.114q.014.137.032.274a10.04 10.04 0 0 0 5.11 7.112 10 10 0 0 0 12.352-2.286 10.04 10.04 0 0 0 2.235-8.471 10.04 10.04 0 0 0-1.827-4.106"/></svg>