<svg xmlns="http://www.w3.org/2000/svg" fill="none" viewBox="0 0 24 24"><path fill="#090404" d="M3 5a2 2 0 0 1 2-2h4.25a2 2 0 0 1 2 2v1a2 2 0 0 1-2 2H5a2 2 0 0 1-2-2z"/><path fill="#090404" d="M8.5 11.5a2 2 0 0 1 2-2h3a2 2 0 0 1 2 2v1a2 2 0 0 1-2 2h-3a2 2 0 0 1-2-2z"/><path fill="#090404" d="M3 11.375a1.875 1.875 0 0 1 3.75 0v1.25a1.875 1.875 0 0 1-3.75 0z"/><path fill="#090404" d="M17.2 11.375a1.875 1.875 0 0 1 3.75 0v1.25a1.875 1.875 0 0 1-3.75 0z"/><path fill="#090404" d="M12.75 5a2 2 0 0 1 2-2H19a2 2 0 0 1 2 2v1a2 2 0 0 1-2 2h-4.25a2 2 0 0 1-2-2z"/><path fill="#090404" d="M3 18a2 2 0 0 1 2-2h4.25a2 2 0 0 1 2 2v1a2 2 0 0 1-2 2H5a2 2 0 0 1-2-2z"/><path fill="#090404" d="M12.75 18a2 2 0 0 1 2-2H19a2 2 0 0 1 2 2v1a2 2 0 0 1-2 2h-4.25a2 2 0 0 1-2-2z"/></svg>