<svg xmlns="http://www.w3.org/2000/svg" fill="none" viewBox="0 0 24 24"><path fill="#090404" fill-rule="evenodd" d="M9.25 1.5A2.75 2.75 0 0 1 12 4.25V5h1.684a2 2 0 0 1 1.459-1.133l3.5-.637A2 2 0 0 1 21 5.198v1.604a2 2 0 0 1-2.358 1.968l-3.5-.637A2 2 0 0 1 13.685 7H12v1.126c1.725.444 3 2.01 3 3.874v8a2 2 0 0 1-2 2H9a2 2 0 0 1-2-2v-8a4 4 0 0 1 3-3.874V7a4.555 4.555 0 0 0-4.347 3.28 1 1 0 0 1-1.92-.56 6.56 6.56 0 0 1 3.222-3.957A2.75 2.75 0 0 1 9.25 1.5m0 2a.75.75 0 0 0 0 1.5H10v-.75a.75.75 0 0 0-.75-.75" clip-rule="evenodd"/></svg>