<svg xmlns="http://www.w3.org/2000/svg" fill="none" viewBox="0 0 24 24"><path fill="#090404" d="M12.75 3.75a.75.75 0 0 0-1.5 0v2.5a.75.75 0 0 0 1.5 0z"/><path fill="#090404" d="M7.266 5.198a.75.75 0 1 0-1.15.964l1.608 1.915a.75.75 0 1 0 1.149-.964z"/><path fill="#090404" d="M17.873 6.162a.75.75 0 1 0-1.15-.964l-1.606 1.915a.75.75 0 1 0 1.149.964z"/><path fill="#090404" d="M5.22 9c-.89 0-1.693.536-2.036 1.358l-.396.95c-.174.419-.584.692-1.038.692a.75.75 0 0 0-.75.75V19a1 1 0 0 0 1 1h5.39a3.89 3.89 0 0 0 3.874-3.528l.162-1.726A3.883 3.883 0 0 0 7.559 10.5a.3.3 0 0 1-.245-.131l-.258-.387A2.2 2.2 0 0 0 5.221 9"/><path fill="#090404" d="M18.722 9c-.738 0-1.426.369-1.835.982l-.258.387a.3.3 0 0 1-.245.131 3.884 3.884 0 0 0-3.867 4.246l.162 1.726A3.89 3.89 0 0 0 16.553 20h5.39a1 1 0 0 0 1-1v-6.25a.75.75 0 0 0-.75-.75c-.454 0-.864-.273-1.039-.692l-.396-.95A2.21 2.21 0 0 0 18.722 9"/></svg>