<svg xmlns="http://www.w3.org/2000/svg" fill="none" viewBox="0 0 24 24"><path fill="#090404" d="M5 3a2 2 0 0 0-2 2v3a1 1 0 0 0 2 0V5h3a1 1 0 0 0 0-2z"/><path fill="#090404" d="M16 3a1 1 0 1 0 0 2h3v3a1 1 0 1 0 2 0V5a2 2 0 0 0-2-2z"/><path fill="#090404" d="M10.431 9.431C10.892 9.158 11.431 9 12 9c1.396 0 2.573.955 2.906 2.25a1 1 0 0 0 1.936-.5A5 5 0 0 0 12 7a5.07 5.07 0 0 0-3.01.99l-.636-.636a.5.5 0 0 0-.854.353V10a1 1 0 0 0 1 1h2.293a.5.5 0 0 0 .353-.854z"/><path fill="#090404" d="M9.094 12.75a1 1 0 1 0-1.936.5A5 5 0 0 0 12 17a5.07 5.07 0 0 0 3.01-.99l.636.636a.5.5 0 0 0 .854-.353V14a1 1 0 0 0-1-1h-2.293a.5.5 0 0 0-.353.854l.715.715c-.461.274-1 .431-1.569.431a3 3 0 0 1-2.906-2.25"/><path fill="#090404" d="M5 16a1 1 0 1 0-2 0v3a2 2 0 0 0 2 2h3a1 1 0 1 0 0-2H5z"/><path fill="#090404" d="M21 16a1 1 0 1 0-2 0v3h-3a1 1 0 1 0 0 2h3a2 2 0 0 0 2-2z"/></svg>