<svg xmlns="http://www.w3.org/2000/svg" fill="none" viewBox="0 0 24 24"><path fill="#090404" d="M5 3a2 2 0 0 0-2 2v3a1 1 0 0 0 2 0V5h3a1 1 0 0 0 0-2z"/><path fill="#090404" d="M16 3a1 1 0 1 0 0 2h3v3a1 1 0 1 0 2 0V5a2 2 0 0 0-2-2z"/><path fill="#090404" d="M5 16a1 1 0 1 0-2 0v3a2 2 0 0 0 2 2h3a1 1 0 1 0 0-2H5z"/><path fill="#090404" d="M21 16a1 1 0 1 0-2 0v3h-3a1 1 0 1 0 0 2h3a2 2 0 0 0 2-2z"/><path fill="#090404" d="M12.8 8.6a1 1 0 1 0-1.6-1.2l-3 4A1 1 0 0 0 9 13h4l-1.8 2.4a1 1 0 0 0 1.6 1.2l3-4A1 1 0 0 0 15 11h-4z"/></svg>