<svg xmlns="http://www.w3.org/2000/svg" fill="none" viewBox="0 0 24 24"><path fill="#090404" d="M5 3a2 2 0 0 0-2 2v3a1 1 0 0 0 2 0V5h3a1 1 0 0 0 0-2z"/><path fill="#090404" d="M16 3a1 1 0 1 0 0 2h3v3a1 1 0 1 0 2 0V5a2 2 0 0 0-2-2z"/><path fill="#090404" d="M5 16a1 1 0 1 0-2 0v3a2 2 0 0 0 2 2h3a1 1 0 1 0 0-2H5z"/><path fill="#090404" d="M21 16a1 1 0 1 0-2 0v3h-3a1 1 0 1 0 0 2h3a2 2 0 0 0 2-2z"/><path fill="#090404" fill-rule="evenodd" d="M12.91 8.836a1 1 0 0 0-1.82 0l-2.5 5.5a1 1 0 0 0 1.82.828l.416-.914h2.348l.416.914a1 1 0 0 0 1.82-.828zm-.645 3.414h-.53l.265-.583z" clip-rule="evenodd"/></svg>