<svg xmlns="http://www.w3.org/2000/svg" fill="none" viewBox="0 0 24 24"><path fill="#090404" d="M5 3a2 2 0 0 0-2 2v3a1 1 0 0 0 2 0V5h3a1 1 0 0 0 0-2z"/><path fill="#090404" d="M16 3a1 1 0 1 0 0 2h3v3a1 1 0 1 0 2 0V5a2 2 0 0 0-2-2z"/><path fill="#090404" d="M5 16a1 1 0 1 0-2 0v3a2 2 0 0 0 2 2h3a1 1 0 1 0 0-2H5z"/><path fill="#090404" d="M21 16a1 1 0 1 0-2 0v3h-3a1 1 0 1 0 0 2h3a2 2 0 0 0 2-2z"/><path fill="#090404" d="M12.408 9.066a.5.5 0 0 1-.223.224l-1.29.645a.5.5 0 0 0 0 .894l1.29.645a.5.5 0 0 1 .223.224l.645 1.29a.5.5 0 0 0 .894 0l.645-1.29a.5.5 0 0 1 .224-.224l1.29-.645a.5.5 0 0 0 0-.894l-1.29-.645a.5.5 0 0 1-.224-.224l-.645-1.29a.5.5 0 0 0-.894 0z"/><path fill="#090404" d="M8.712 13.46a.3.3 0 0 1-.134.133l-1.041.52a.3.3 0 0 0 0 .537l1.04.52a.3.3 0 0 1 .135.135l.52 1.04a.3.3 0 0 0 .537 0l.52-1.04a.3.3 0 0 1 .134-.134l1.04-.52a.3.3 0 0 0 0-.537l-1.04-.52a.3.3 0 0 1-.134-.135l-.52-1.04a.3.3 0 0 0-.537 0z"/></svg>