<svg xmlns="http://www.w3.org/2000/svg" fill="none" viewBox="0 0 24 24"><path fill="#090404" d="M3 5a2 2 0 0 1 2-2h3a1 1 0 0 1 0 2H5v3a1 1 0 0 1-2 0z"/><path fill="#090404" d="M15 4a1 1 0 0 1 1-1h3a2 2 0 0 1 2 2v3a1 1 0 1 1-2 0V5h-3a1 1 0 0 1-1-1"/><path fill="#090404" d="M4 15a1 1 0 0 1 1 1v3h3a1 1 0 1 1 0 2H5a2 2 0 0 1-2-2v-3a1 1 0 0 1 1-1"/><path fill="#090404" d="M20 15a1 1 0 0 1 1 1v3a2 2 0 0 1-2 2h-3a1 1 0 1 1 0-2h3v-3a1 1 0 0 1 1-1"/><path fill="#090404" d="M13 14.874c1.725-.444 3-2.01 3-3.874V8.75a1 1 0 0 0-1.394-.92l-1.128.484-.77-.771a1 1 0 0 0-1.415 0l-.771.771-1.128-.483A1 1 0 0 0 8 8.75V11a4 4 0 0 0 3 3.874V16a1 1 0 1 0 2 0z"/></svg>