<svg xmlns="http://www.w3.org/2000/svg" fill="none" viewBox="0 0 24 24"><path fill="#090404" d="M18.287 11.298a.5.5 0 0 1 .426 0l3.5 1.642a.5.5 0 0 1 .287.453v2.812a4.5 4.5 0 0 1-3.104 4.278l-.74.243a.5.5 0 0 1-.311 0l-.741-.243a4.5 4.5 0 0 1-3.104-4.278v-2.812l.005-.072a.5.5 0 0 1 .282-.38z"/><path fill="#090404" d="M9.465 3a2 2 0 0 1 1.664.89l.812 1.22a2 2 0 0 0 1.664.89H20a2 2 0 0 1 2 2v2.63l-2.437-1.143a2.5 2.5 0 0 0-2.125 0l-3.5 1.643a2.5 2.5 0 0 0-1.438 2.263v2.812c0 1.397.446 2.715 1.223 3.795H4a2 2 0 0 1-2-2V5a2 2 0 0 1 2-2z"/></svg>