<svg xmlns="http://www.w3.org/2000/svg" fill="none" viewBox="0 0 24 24"><path fill="#090404" d="M7 14V5a1 1 0 0 1 1-1h3.086a1 1 0 0 1 .707.293l1.414 1.414a1 1 0 0 0 .707.293H20a1 1 0 0 1 1 1v7a1 1 0 0 1-1 1H8a1 1 0 0 1-1-1"/><path fill="#090404" d="M6 14V5a2 2 0 0 1 2-2h3.086a2 2 0 0 1 1.414.586L13.914 5H20a2 2 0 0 1 2 2v7a2 2 0 0 1-2 2H8a2 2 0 0 1-2-2m2 0h12V7h-6.086a2 2 0 0 1-1.267-.453l-.147-.133L11.086 5H8z"/><path fill="#090404" d="M2 18V8a1 1 0 0 1 2 0v10h13a1 1 0 1 1 0 2H4a2 2 0 0 1-2-2"/></svg>