<svg xmlns="http://www.w3.org/2000/svg" fill="none" viewBox="0 0 24 24"><path fill="#090404" d="M2 5a2 2 0 0 1 2-2h5.465a2 2 0 0 1 1.664.89L12.535 6H20a2 2 0 0 1 2 2v10a2 2 0 0 1-2 2h-5v-5.5a3.5 3.5 0 0 0-3.5-3.5H2z"/><path fill="#090404" fill-rule="evenodd" d="M5 17a1 1 0 0 1 1-1h2a1 1 0 1 1 0 2H6a1 1 0 0 1-1-1" clip-rule="evenodd"/><path fill="#090404" d="M3 13a2 2 0 0 0-2 2v4a2 2 0 0 0 2 2h2a1 1 0 1 0 0-2H3v-4h2a1 1 0 1 0 0-2z"/><path fill="#090404" d="M11 13a2 2 0 0 1 2 2v4a2 2 0 0 1-2 2H9a1 1 0 1 1 0-2h2v-4H9a1 1 0 1 1 0-2z"/></svg>