<svg xmlns="http://www.w3.org/2000/svg" fill="none" viewBox="0 0 24 24"><path fill="#090404" d="M9.465 3a2 2 0 0 1 1.664.89L12.535 6H20a2 2 0 0 1 2 2v10a2 2 0 0 1-2 2H7.927l.02-.053 1.398-.537a2.582 2.582 0 0 0 0-4.82l-1.398-.538-.537-1.397-.078-.182a2.583 2.583 0 0 0-4.664 0l-.078.182-.538 1.397-.052.02V5a2 2 0 0 1 2-2z"/><path fill="#090404" d="m8.136 16.267.491.19-1.813-.697z"/><path fill="#090404" d="m6.24 15.185-.696-1.812a.582.582 0 0 0-1.088 0l-.696 1.812a1 1 0 0 1-.575.574l-1.812.697a.582.582 0 0 0 0 1.088l1.812.697a1 1 0 0 1 .575.574l.696 1.812a.582.582 0 0 0 1.088 0l.696-1.812a1 1 0 0 1 .575-.575l1.812-.696a.582.582 0 0 0 0-1.088l-1.813-.696a1 1 0 0 1-.574-.575"/></svg>