<svg xmlns="http://www.w3.org/2000/svg" fill="none" viewBox="0 0 24 24"><path fill="#090404" d="M16.25 3a1 1 0 0 1 .895.553l1.267 2.535 2.535 1.268a1 1 0 0 1 0 1.788l-2.535 1.268-1.267 2.535a1 1 0 0 1-1.79 0l-1.267-2.535-2.535-1.268a1 1 0 0 1 0-1.788l2.535-1.268 1.268-2.535A1 1 0 0 1 16.25 3"/><path fill="#090404" d="M7.259 8.517a.5.5 0 0 0 .224.224l1.623.812a.5.5 0 0 1 0 .894l-1.623.812a.5.5 0 0 0-.224.223l-.812 1.624a.5.5 0 0 1-.894 0l-.812-1.624a.5.5 0 0 0-.223-.223l-1.623-.812a.5.5 0 0 1 0-.894l1.623-.812a.5.5 0 0 0 .223-.224l.812-1.623a.5.5 0 0 1 .894 0z"/><path fill="#090404" d="M9.5 3a1.5 1.5 0 1 0 0 3 1.5 1.5 0 0 0 0-3"/><path fill="#090404" d="M4 15a1 1 0 0 0-1 1v.086c0 .212.065.419.198.584C4.613 18.428 6.82 19.347 9 19.743V20a1 1 0 0 0 1 1h4a1 1 0 0 0 1-1v-.256c2.155-.392 4.429-1.307 5.812-3.079a.92.92 0 0 0 .188-.57V16a1 1 0 0 0-1-1z"/></svg>