<svg xmlns="http://www.w3.org/2000/svg" fill="none" viewBox="0 0 24 24"><path fill="#090404" d="M10 16c.027-.82-.63-1.5-1.45-1.5H5.55c-.837 0-1.523.664-1.551 1.5a3 3 0 1 0 6 0"/><path fill="#090404" d="M10.425 11.94c-.239.679-.92 1.06-1.638 1.06H5.213c-.719 0-1.399-.381-1.638-1.06C2.293 8.296 3.037 2 7 2s4.707 6.295 3.425 9.94"/><path fill="#090404" d="M20.425 14.94c-.239.679-.92 1.06-1.638 1.06h-3.574c-.719 0-1.399-.381-1.637-1.06C12.293 11.296 13.035 5 17 5s4.707 6.295 3.425 9.94"/><path fill="#090404" d="M20 19a1.5 1.5 0 0 0-1.5-1.5h-3A1.5 1.5 0 0 0 14 19a3 3 0 1 0 6 0"/></svg>