<svg xmlns="http://www.w3.org/2000/svg" fill="none" viewBox="0 0 24 24"><path fill="#090404" d="M7.367 3.007c0-.52-.376-.954-.864-.997l-.075-.006c-.518-.046-.973.363-1.016.913l-.905 11.538a2.07 2.07 0 0 0 .545 1.58l2.63 2.793c.353.376.551.884.551 1.415V21c0 .552.422 1 .942 1h5.65c.52 0 .942-.448.942-1v-.757c0-.53.198-1.04.551-1.415l2.63-2.793c.392-.416.591-.994.546-1.58l-.906-11.538c-.043-.55-.498-.96-1.016-.913l-.075.006c-.488.043-.864.477-.864.997v9.033c0 .53-.405.96-.904.96-.5 0-.904-.43-.904-.96V3c0-.552-.422-1-.942-1s-.941.448-.941 1v9c0 .552-.422 1-.942 1s-.942-.448-.942-1V3c0-.552-.421-1-.941-1s-.942.448-.942 1v9.04c0 .53-.405.96-.904.96-.5 0-.904-.43-.904-.96z"/></svg>