<svg xmlns="http://www.w3.org/2000/svg" fill="none" viewBox="0 0 24 24"><path fill="#090404" d="M17 2.75c-1.287 0-2.37.708-3.096 1.668-.727.96-1.154 2.238-1.154 3.582 0 2.273 1.283 4.34 3.25 4.87V20a1 1 0 1 0 2 0v-7.13c1.967-.53 3.25-2.597 3.25-4.87 0-1.344-.427-2.621-1.154-3.582S18.287 2.75 17 2.75"/><path fill="#090404" d="M5 4a1 1 0 0 0-2 0v5a4 4 0 0 0 3 3.874V20a1 1 0 1 0 2 0v-7.126c1.725-.444 3-2.01 3-3.874V4a1 1 0 1 0-2 0v5a2 2 0 1 1-4 0z"/><path fill="#090404" d="M8 4a1 1 0 0 0-2 0v5a1 1 0 0 0 2 0z"/></svg>