<svg xmlns="http://www.w3.org/2000/svg" fill="none" viewBox="0 0 24 24"><path fill="#090404" d="M5 3a1 1 0 0 1 1 1v5.5a.5.5 0 0 0 1 0V4a1 1 0 0 1 2 0v5.5a.5.5 0 0 0 1 0V4a1 1 0 1 1 2 0v6.664a1.5 1.5 0 0 1-.6 1.2l-.8.6a1.5 1.5 0 0 0-.6 1.2V19.5A1.5 1.5 0 0 1 8.5 21h-1A1.5 1.5 0 0 1 6 19.5v-5.836a1.5 1.5 0 0 0-.6-1.2l-.8-.6a1.5 1.5 0 0 1-.6-1.2V4a1 1 0 0 1 1-1"/><path fill="#090404" fill-rule="evenodd" d="M19 3a1 1 0 0 1 1 1v15.5a1.5 1.5 0 0 1-1.5 1.5h-1a1.5 1.5 0 0 1-1.5-1.5V16h-2a1 1 0 0 1-.999-1.052c.216-4.142 1.256-7.059 2.428-8.97.584-.954 1.206-1.665 1.783-2.15.288-.241.576-.437.855-.577.26-.131.587-.251.933-.251" clip-rule="evenodd"/></svg>