<svg xmlns="http://www.w3.org/2000/svg" fill="none" viewBox="0 0 24 24"><path fill="#090404" d="M12 1.5c.836 0 1.453.537 1.86 1.08.42.56.758 1.309 1.03 2.149.01.03.035.065.086.085s.092.016.122.001c.785-.402 1.555-.693 2.249-.793.629-.09 1.385-.045 1.964.449l.114.104.104.113c.494.58.538 1.337.448 1.965-.1.694-.391 1.463-.793 2.248a.14.14 0 0 0 0 .122c.021.05.055.076.086.086.84.272 1.59.61 2.15 1.03.543.407 1.08 1.025 1.08 1.861s-.537 1.453-1.08 1.86c-.56.42-1.31.758-2.15 1.03a.14.14 0 0 0-.085.086.14.14 0 0 0 0 .122c.402.785.692 1.555.792 2.249.096.67.04 1.486-.552 2.078s-1.408.648-2.078.552c-.694-.1-1.464-.39-2.25-.792a.14.14 0 0 0-.121 0 .14.14 0 0 0-.086.085c-.272.84-.61 1.59-1.03 2.15-.407.543-1.023 1.08-1.86 1.08-.836 0-1.454-.537-1.86-1.08-.42-.56-.76-1.31-1.03-2.15a.14.14 0 0 0-.087-.085.14.14 0 0 0-.122-.001c-.785.402-1.554.693-2.248.793-.67.096-1.486.04-2.078-.552s-.649-1.408-.553-2.078c.1-.694.391-1.464.793-2.25a.14.14 0 0 0 0-.121.14.14 0 0 0-.086-.086c-.84-.272-1.59-.61-2.15-1.03C2.037 13.452 1.5 12.835 1.5 12l.006-.154c.06-.758.564-1.325 1.072-1.705.56-.42 1.31-.76 2.15-1.032a.14.14 0 0 0 .086-.086.14.14 0 0 0 .001-.122c-.401-.785-.692-1.554-.792-2.248-.096-.67-.04-1.486.552-2.078l.113-.104c.58-.494 1.337-.538 1.965-.448.694.1 1.463.39 2.248.792.03.015.072.02.122 0a.14.14 0 0 0 .086-.086c.272-.84.612-1.59 1.032-2.15C10.547 2.035 11.164 1.5 12 1.5"/></svg>