<svg xmlns="http://www.w3.org/2000/svg" fill="none" viewBox="0 0 24 24"><path fill="#090404" fill-rule="evenodd" d="M12 2c4.975 0 9 4.05 9 9.036a9.03 9.03 0 0 1-3.024 6.756q.111.146.195.313l.5 1A2 2 0 0 1 16.88 22H7.119a2 2 0 0 1-1.789-2.895l.5-1a2 2 0 0 1 .195-.313A9.03 9.03 0 0 1 3 11.036C3 6.05 7.025 2 12 2M7.118 20h9.764l-.5-1H7.618zM15.5 9.25a.33.33 0 0 0-.306.21l-.392 1.02a.56.56 0 0 1-.322.322l-1.02.392a.328.328 0 0 0 0 .612l1.02.392a.56.56 0 0 1 .322.322l.392 1.02a.328.328 0 0 0 .612 0l.392-1.02a.56.56 0 0 1 .322-.322l1.02-.392a.328.328 0 0 0 0-.612l-1.02-.392a.56.56 0 0 1-.322-.322l-.392-1.02a.33.33 0 0 0-.306-.21m-2.5-3c-.105 0-.2.065-.238.163l-.305.793a.44.44 0 0 1-.25.251l-.794.305a.255.255 0 0 0 0 .476l.793.305a.44.44 0 0 1 .251.251l.305.793a.255.255 0 0 0 .476 0l.305-.793a.44.44 0 0 1 .25-.251l.794-.305a.255.255 0 0 0 0-.476l-.793-.305a.44.44 0 0 1-.251-.25l-.305-.794A.255.255 0 0 0 13 6.25" clip-rule="evenodd"/></svg>