<svg xmlns="http://www.w3.org/2000/svg" fill="none" viewBox="0 0 24 24"><path fill="#090404" d="M14.191 3c.875 0 1.678.577 1.908 1.452l.039.179.079.518c.241 1.731.28 3.665-.025 5.504a16 16 0 0 0-2.003-.152c.32-1.773.272-3.734-.018-5.501h-2.004c.225 1.815.208 3.76-.147 5.624-.75.096-1.47.245-2.147.443.497-1.929.553-4.067.275-6.067H7.852c-.306 2.207-.205 4.578.444 6.65a10 10 0 0 0-.704.358c-.364.204-.72.438-1.052.702-.866-2.447-1.016-5.205-.705-7.71H3.837c-.497 3.188-.092 6.395 1.467 9.002-.493.712-.804 1.546-.804 2.498q0 .255.03.5H3a1 1 0 0 1 0-2h.57C1.723 11.897 1.308 8.176 1.866 4.647l.037-.18A1.97 1.97 0 0 1 3.817 3z"/><path fill="#090404" d="M19.376 14.5c0-.652-.458-1.357-1.448-1.935l-.047-.027C16.723 12.191 15.395 12 14 12c-1.395 0-2.723.191-3.88.538l-.048.027c-.99.578-1.448 1.283-1.448 1.935s.458 1.357 1.448 1.935c.974.568 2.361.94 3.928.94s2.953-.372 3.927-.94c.99-.578 1.447-1.283 1.447-1.935"/><path fill="#090404" d="M6 16.5c0-1.091.611-1.976 1.452-2.644a2.7 2.7 0 0 0-.077.644c0 1.281.886 2.325 2.068 3.015 1.197.698 2.81 1.11 4.558 1.11s3.36-.412 4.557-1.11c1.182-.69 2.067-1.734 2.067-3.015q0-.333-.076-.644c.84.668 1.451 1.553 1.451 2.644 0 1.55-1.23 2.683-2.603 3.37-1.433.715-3.342 1.13-5.396 1.13-2.055 0-3.964-.415-5.397-1.13C7.231 19.182 6 18.05 6 16.5"/></svg>