<svg xmlns="http://www.w3.org/2000/svg" fill="none" viewBox="0 0 24 24"><path fill="#090404" d="M11.047 5.022a1 1 0 0 0-.094-1.997c-3.234.15-6.19 1-8.461 2.341a1 1 0 1 0 1.017 1.722c1.95-1.151 4.58-1.927 7.538-2.066"/><path fill="#090404" d="M21.509 18.634a1 1 0 1 0-1.018-1.722c-1.95 1.152-4.58 1.927-7.538 2.066a1 1 0 0 0 .094 1.998c3.234-.152 6.19-1 8.462-2.342"/><path fill="#090404" d="M6.34 7.48C4.898 8.246 4.25 9.173 4.25 10s.647 1.755 2.09 2.52c1.41.746 3.41 1.23 5.66 1.23s4.25-.484 5.66-1.23c1.443-.765 2.09-1.692 2.09-2.52s-.647-1.755-2.09-2.52c-1.41-.746-3.41-1.23-5.66-1.23s-4.25.484-5.66 1.23"/><path fill="#090404" d="M1 12c0-1.501.915-2.736 2.202-3.663A3.33 3.33 0 0 0 2.75 10c0 1.657 1.256 2.98 2.889 3.845 1.666.882 3.916 1.405 6.361 1.405s4.695-.523 6.361-1.405c1.633-.865 2.889-2.188 2.889-3.845 0-.6-.165-1.156-.452-1.663C22.085 9.264 23 10.5 23 12c0 1.964-1.566 3.472-3.482 4.43C17.542 17.418 14.883 18 12 18s-5.543-.582-7.518-1.57C2.566 15.472 1 13.964 1 12"/></svg>