<svg xmlns="http://www.w3.org/2000/svg" fill="none" viewBox="0 0 24 24"><path fill="#090404" fill-rule="evenodd" d="M12 2q.232 0 .46.01l.178.011a10 10 0 0 1 .81.084l.114.017q.19.03.377.067.047.01.094.018.222.046.439.1l.151.043a10 10 0 0 1 .894.287q.137.052.272.108l.128.052a10 10 0 0 1 1.967 1.119l.169.125q.135.102.265.209l.131.11a10 10 0 0 1 .841.798l.126.135q.141.156.275.316l.12.15q.078.096.153.194l.118.16q.078.106.151.214l.101.148.12.186q.066.102.128.205.099.165.19.331l.06.113q.081.15.156.306.04.082.077.164a10 10 0 0 1 .28.66l.071.188q.04.114.077.23C21.82 9.847 22 10.902 22 12a9.98 9.98 0 0 1-3.822 7.86l-.06.047q-.325.25-.669.475l-.142.093-.212.13-.147.084q-.158.09-.32.173l-.2.104a10 10 0 0 1-.493.227l-.135.057a10 10 0 0 1-1.77.543l-.06.012q-.195.039-.395.07l-.106.016a10 10 0 0 1-.427.054l-.062.006a10 10 0 0 1-.534.037A10 10 0 0 1 12 22C6.477 22 2 17.523 2 12S6.477 2 12 2m-2 10.6a2.4 2.4 0 1 0 0 4.8 2.4 2.4 0 0 0 0-4.8m9.525-3.319a4 4 0 0 0-.782 7.02A7.96 7.96 0 0 0 20 12c0-.955-.168-1.87-.475-2.719M7.6 8.5a1.1 1.1 0 1 0 0 2.2 1.1 1.1 0 0 0 0-2.2M12.5 6a1.5 1.5 0 1 0 0 3 1.5 1.5 0 0 0 0-3" clip-rule="evenodd"/></svg>