<svg xmlns="http://www.w3.org/2000/svg" fill="none" viewBox="0 0 24 24"><path fill="#090404" fill-rule="evenodd" d="M10.947 8.005c-3.258-.097-6.184 1.2-7.038 3.539a1.5 1.5 0 1 1-2.818-1.03c1.522-4.165 6.196-5.62 9.945-5.508 1.937.057 3.882.523 5.394 1.429 1.525.913 2.77 2.395 2.77 4.425 0 1.28-.625 2.274-1.438 2.952-.784.654-1.77 1.048-2.704 1.258a8.1 8.1 0 0 1-2.843.135c-.83-.116-1.864-.424-2.535-1.207-.619-.723-.548-1.607-.215-2.21q.053-.096.114-.184c-.62.142-1.112.374-1.419.63-.282.235-.36.438-.36.647 0 .683.4 1.382 1.444 2.005 1.049.626 2.557 1.035 4.185 1.104 1.625.068 3.22-.209 4.438-.802 1.197-.584 1.935-1.415 2.168-2.479a1.5 1.5 0 1 1 2.93.643c-.479 2.188-1.997 3.662-3.784 4.532-1.766.861-3.881 1.187-5.878 1.103-1.994-.084-4.018-.583-5.597-1.525-1.583-.944-2.906-2.473-2.906-4.58 0-1.28.626-2.274 1.439-2.952.784-.654 1.77-1.048 2.704-1.258a8.1 8.1 0 0 1 2.843-.136c.83.116 1.864.425 2.534 1.208.62.723.549 1.607.216 2.21a2 2 0 0 1-.114.183c.62-.141 1.112-.373 1.419-.63.281-.234.36-.438.36-.647 0-.637-.358-1.28-1.312-1.852-.967-.578-2.377-.957-3.942-1.003" clip-rule="evenodd"/></svg>