<svg xmlns="http://www.w3.org/2000/svg" fill="none" viewBox="0 0 24 24"><path fill="#090404" d="M9.75 2A1.75 1.75 0 0 0 8 3.75v2.69c0 .463.184.909.513 1.237l2.426 2.427a1.5 1.5 0 0 0 2.122 0l2.426-2.427A1.75 1.75 0 0 0 16 6.439V3.75A1.75 1.75 0 0 0 14.25 2z"/><path fill="#090404" d="M3.75 8A1.75 1.75 0 0 0 2 9.75v4.5c0 .966.784 1.75 1.75 1.75h2.69c.463 0 .909-.184 1.237-.513l2.427-2.426a1.5 1.5 0 0 0 0-2.122L7.677 8.513A1.75 1.75 0 0 0 6.439 8z"/><path fill="#090404" d="M17.56 8c-.463 0-.909.184-1.237.513l-2.427 2.426a1.5 1.5 0 0 0 0 2.122l2.427 2.426a1.75 1.75 0 0 0 1.238.513h2.689A1.75 1.75 0 0 0 22 14.25v-4.5A1.75 1.75 0 0 0 20.25 8z"/><path fill="#090404" d="M13.06 13.896a1.5 1.5 0 0 0-2.12 0l-2.427 2.427A1.75 1.75 0 0 0 8 17.561v2.689c0 .966.784 1.75 1.75 1.75h4.5A1.75 1.75 0 0 0 16 20.25v-2.69c0-.463-.184-.909-.513-1.237z"/></svg>