<svg xmlns="http://www.w3.org/2000/svg" fill="none" viewBox="0 0 24 24"><path fill="#090404" fill-rule="evenodd" d="M4 5a3 3 0 0 0-3 3v8a3 3 0 0 0 3 3h16a3 3 0 0 0 3-3V8a3 3 0 0 0-3-3z" clip-rule="evenodd"/><path fill="#090404" fill-rule="evenodd" d="M8 9a1 1 0 0 1 1 1v1h1a1 1 0 1 1 0 2H9v1a1 1 0 1 1-2 0v-1H6a1 1 0 1 1 0-2h1v-1a1 1 0 0 1 1-1" clip-rule="evenodd"/><path fill="#090404" fill-rule="evenodd" d="M17.75 11.75a1.25 1.25 0 1 1 0-2.5 1.25 1.25 0 0 1 0 2.5" clip-rule="evenodd"/><path fill="#090404" fill-rule="evenodd" d="M14.75 14.75a1.25 1.25 0 1 1 0-2.5 1.25 1.25 0 0 1 0 2.5" clip-rule="evenodd"/></svg>