<svg xmlns="http://www.w3.org/2000/svg" fill="none" viewBox="0 0 24 24"><path fill="#090404" fill-rule="evenodd" d="M13.136 4c1.121 0 2.016 0 2.747.053.743.054 1.383.168 1.994.428a6 6 0 0 1 2.494 1.984c.391.536.645 1.135.865 1.847.216.7.417 1.572.67 2.665l1.032 4.475a3.755 3.755 0 0 1-6.971 2.612L15.399 17H8.601l-.568 1.064a3.755 3.755 0 0 1-6.972-2.612l1.034-4.475c.252-1.093.452-1.966.669-2.665.22-.712.474-1.31.865-1.847A6 6 0 0 1 6.123 4.48c.61-.26 1.251-.374 1.994-.428C8.847 3.999 9.743 4 10.864 4zM8.5 7.85a.85.85 0 0 0-.85.85v.95H6.7a.85.85 0 1 0 0 1.7h.95v.95a.85.85 0 1 0 1.7 0v-.95h.95a.851.851 0 0 0 0-1.7h-.95V8.7a.85.85 0 0 0-.85-.85M17 10.7a1.2 1.2 0 1 0 0 2.4 1.2 1.2 0 0 0 0-2.4m-2-2.8a1.2 1.2 0 1 0 0 2.4 1.2 1.2 0 0 0 0-2.4" clip-rule="evenodd"/></svg>