<svg xmlns="http://www.w3.org/2000/svg" fill="none" viewBox="0 0 24 24"><path fill="#090404" fill-rule="evenodd" d="M8 3.75C8 2.784 8.784 2 9.75 2h4.5c.966 0 1.75.784 1.75 1.75v2.69c0 .463-.184.909-.513 1.237l-2.426 2.427a1.5 1.5 0 0 1-2.122 0L8.513 7.677A1.75 1.75 0 0 1 8 6.439zM10 4v2.336l2 2 2-2V4z" clip-rule="evenodd"/><path fill="#090404" d="M20.25 8h-2.69c-.463 0-.909.184-1.237.513l-2.427 2.426a1.5 1.5 0 0 0 0 2.122l2.427 2.426a1.75 1.75 0 0 0 1.238.513h2.689A1.75 1.75 0 0 0 22 14.25v-4.5A1.75 1.75 0 0 0 20.25 8"/><path fill="#090404" d="M14.25 22A1.75 1.75 0 0 0 16 20.25v-2.69c0-.463-.184-.909-.513-1.237l-2.426-2.427a1.5 1.5 0 0 0-2.122 0l-2.426 2.427A1.75 1.75 0 0 0 8 17.561v2.689c0 .966.784 1.75 1.75 1.75z"/><path fill="#090404" d="M2 14.25c0 .966.784 1.75 1.75 1.75h2.69c.463 0 .909-.184 1.237-.513l2.427-2.426a1.5 1.5 0 0 0 0-2.122L7.677 8.513A1.75 1.75 0 0 0 6.439 8H3.75A1.75 1.75 0 0 0 2 9.75z"/></svg>