<svg xmlns="http://www.w3.org/2000/svg" fill="none" viewBox="0 0 24 24"><path fill="#090404" d="M11.398 1.55c1.248-.451 2.4.432 2.697 1.473.585 2.05 2.211 3.529 4.025 5.338 1.732 1.728 3.607 3.75 3.827 6.733l.003.07c0 1.47-.338 3.365-1.51 4.773-.99 1.188-2.47 1.903-4.492 1.854.217-.44.352-.925.434-1.401.189-1.106.135-2.402-.031-3.667-.333-2.53-1.154-5.199-1.764-6.52a.95.95 0 0 0-1.726.794c.522 1.132 1.296 3.615 1.606 5.974.155 1.179.185 2.261.042 3.098-.148.865-.437 1.25-.713 1.394-.555.29-1.283.465-2.015.457-.734-.008-1.39-.197-1.855-.537-.177-.132-.411-.481-.581-1.186-.163-.674-.233-1.53-.213-2.458.04-1.875.433-3.832.927-4.901a.95.95 0 1 0-1.725-.796c-.638 1.384-1.059 3.622-1.102 5.657-.021 1.027.052 2.059.266 2.945.097.403.235.813.427 1.19-1.213.08-2.402-.202-3.4-.843-1.505-.965-2.475-2.676-2.475-4.894 0-1.595.318-2.88.858-3.955.538-1.07 1.27-1.883 2.03-2.564.727-.652 1.575-1.26 2.227-1.781.692-.554 1.262-1.082 1.675-1.706.244-.37.414-1.085.434-1.815V3.81c.03-.782.461-1.658 1.37-1.987z"/></svg>