<svg xmlns="http://www.w3.org/2000/svg" fill="none" viewBox="0 0 24 24"><path fill="#090404" fill-rule="evenodd" d="M12 2c4.472 0 7.944 3.663 8.03 8.063.06 3.026.297 5.963.97 8.894.342 1.485-1.044 2.918-2.593 2.427l-2.591-.823-3.077 1.222a2 2 0 0 1-1.477 0l-3.077-1.222-2.59.823c-1.55.492-2.936-.942-2.594-2.427.673-2.93.91-5.868.97-8.894C4.056 5.663 7.528 2 12 2M9.7 7.5c-.718 0-1.3.896-1.3 2s.582 2 1.3 2 1.3-.895 1.3-2-.582-2-1.3-2m4.6 0c-.718 0-1.3.895-1.3 2s.582 2 1.3 2 1.3-.896 1.3-2-.582-2-1.3-2" clip-rule="evenodd"/></svg>