<svg xmlns="http://www.w3.org/2000/svg" fill="none" viewBox="0 0 24 24"><path fill="#090404" d="M14.716 16c-.194 1.31-.478 2.477-.827 3.436-.34.932-.719 1.615-1.09 2.047-.374.436-.648.517-.799.517s-.425-.081-.799-.517c-.371-.432-.75-1.115-1.09-2.047-.348-.959-.633-2.125-.827-3.436z"/><path fill="#090404" d="M7.264 16c.21 1.545.54 2.946.967 4.12.177.486.376.943.594 1.362A10.02 10.02 0 0 1 2.835 16z"/><path fill="#090404" d="M21.165 16a10.02 10.02 0 0 1-5.991 5.482c.218-.419.418-.876.595-1.362.426-1.174.757-2.575.967-4.12z"/><path fill="#090404" d="M7.065 10a31 31 0 0 0 0 4H2.2a10.05 10.05 0 0 1 0-4z"/><path fill="#090404" d="M14.93 10a29 29 0 0 1 0 4H9.07a29 29 0 0 1 0-4z"/><path fill="#090404" d="M21.8 10a10 10 0 0 1 0 4h-4.865a31 31 0 0 0 0-4z"/><path fill="#090404" d="M8.825 2.517c-.218.42-.417.877-.594 1.363-.426 1.174-.757 2.575-.967 4.12H2.835a10.03 10.03 0 0 1 5.99-5.483"/><path fill="#090404" d="M12 2c.151 0 .425.081.799.517.371.432.75 1.115 1.09 2.046.349.96.633 2.126.827 3.437H9.284c.194-1.31.479-2.477.827-3.437.34-.931.719-1.614 1.09-2.046C11.575 2.08 11.85 2 12 2"/><path fill="#090404" d="M15.174 2.517c2.688.899 4.865 2.907 5.991 5.483h-4.429c-.21-1.545-.54-2.946-.967-4.12a11 11 0 0 0-.595-1.363"/></svg>