<svg xmlns="http://www.w3.org/2000/svg" fill="none" viewBox="0 0 24 24"><path fill="#090404" d="M14.983 13c-.086 2.544-.496 4.794-1.093 6.436-.34.932-.719 1.615-1.09 2.047-.374.436-.648.517-.799.517s-.425-.081-.799-.517c-.371-.432-.751-1.115-1.09-2.047C9.515 17.795 9.105 15.545 9.02 13z"/><path fill="#090404" d="M7.018 13c.086 2.733.525 5.223 1.214 7.12.177.486.376.943.594 1.362-3.663-1.225-6.38-4.51-6.775-8.482z"/><path fill="#090404" d="M21.951 13c-.394 3.972-3.113 7.257-6.776 8.482.218-.419.418-.876.595-1.362.69-1.897 1.128-4.387 1.214-7.12z"/><path fill="#090404" d="M8.826 2.517c-.218.42-.417.877-.594 1.363-.69 1.897-1.128 4.387-1.214 7.12H2.05c.394-3.972 3.112-7.258 6.775-8.483"/><path fill="#090404" d="M12.001 2c.151 0 .425.081.799.517.371.432.75 1.115 1.09 2.046.597 1.643 1.007 3.893 1.093 6.437H9.02c.086-2.544.496-4.794 1.093-6.437.339-.931.719-1.614 1.09-2.046.374-.436.648-.517.799-.517"/><path fill="#090404" d="M15.175 2.517C18.838 3.742 21.557 7.028 21.95 11h-4.967c-.086-2.733-.525-5.223-1.215-7.12a11 11 0 0 0-.594-1.363"/></svg>