<svg xmlns="http://www.w3.org/2000/svg" fill="none" viewBox="0 0 24 24"><path fill="#090404" d="M16.657 2.52c1.378-.566 2.972-.652 4.656-.258a.5.5 0 0 1 .116.93l-.005.003-.022.012q-.031.016-.092.052a8.626 8.626 0 0 0-1.448 1.078c-.826.764-1.661 1.856-1.868 3.237-.049.327-.003.493.041.575.04.073.111.14.263.193q.241.085.665.094c.28.008.583-.007.908-.021.315-.013.654-.026.965-.006.306.02.64.073.926.227.311.167.546.444.629.84.076.365.013.786-.143 1.254-.442 1.326-1.507 2.165-2.516 2.67-.776.387-1.566.6-2.12.69-.048.46-.116 1.09-.258 1.659-.096.382-.234.778-.445 1.107-.166.26-.393.498-.694.644a9.5 9.5 0 0 1-1.349 2.648c-.687.937-1.677 1.853-2.866 1.853s-2.18-.916-2.867-1.853A9.5 9.5 0 0 1 7.784 17.5a1.74 1.74 0 0 1-.694-.644c-.21-.33-.349-.725-.444-1.107-.143-.57-.211-1.2-.26-1.66a7.7 7.7 0 0 1-2.12-.69c-1.008-.504-2.073-1.342-2.515-2.669-.156-.468-.218-.889-.143-1.253.083-.397.318-.674.63-.841.285-.154.62-.207.925-.227.312-.02.65-.007.965.006.325.014.627.029.908.021q.424-.01.665-.094c.152-.054.223-.12.263-.193.044-.082.09-.248.04-.575-.206-1.382-1.041-2.473-1.866-3.237a8.6 8.6 0 0 0-1.449-1.078l-.091-.052-.023-.012q-.004-.002-.005-.003a.5.5 0 0 1 .117-.93c1.683-.394 3.276-.307 4.653.26 1.38.568 2.51 1.606 3.277 3.058.37.7.902.98 1.37.98s1.005-.282 1.381-.985c.775-1.45 1.908-2.487 3.29-3.055"/></svg>