<svg xmlns="http://www.w3.org/2000/svg" fill="none" viewBox="0 0 24 24"><path fill="#090404" d="M16.5 22a1 1 0 0 1-1.274.962L12 22.04l-3.226.922A1 1 0 0 1 7.5 22v-3.382A9.46 9.46 0 0 0 12 19.75c1.628 0 3.16-.41 4.5-1.132z"/><path fill="#090404" fill-rule="evenodd" d="M12 2a8.25 8.25 0 1 1 0 16.5A8.25 8.25 0 0 1 12 2m-.183 4.25c-.373 0-.74.105-1.056.302l-1.15.715a.716.716 0 0 0 .75 1.216l.693-.423a.04.04 0 0 1 .02-.005c.02 0 .035.016.035.036v5.194a.965.965 0 0 0 1.93 0V7.25a1 1 0 0 0-1-1z" clip-rule="evenodd"/></svg>