<svg xmlns="http://www.w3.org/2000/svg" fill="none" viewBox="0 0 24 24"><path fill="#090404" d="M8.498 12a2 2 0 0 1 1.882 1.322l1.08 3A2 2 0 0 1 9.578 19H3.424a2 2 0 0 1-1.882-2.678l1.08-3A2 2 0 0 1 4.504 12z"/><path fill="#090404" d="M19.498 12a2 2 0 0 1 1.882 1.322l1.08 3A2 2 0 0 1 20.578 19h-6.154a2 2 0 0 1-1.882-2.678l1.08-3A2 2 0 0 1 15.504 12z"/><path fill="#090404" d="M13.998 4a2 2 0 0 1 1.882 1.322l1.08 3A2 2 0 0 1 15.078 11H8.924a2 2 0 0 1-1.882-2.678l1.08-3A2 2 0 0 1 10.004 4z"/></svg>