<svg xmlns="http://www.w3.org/2000/svg" fill="none" viewBox="0 0 24 24"><path fill="#090404" fill-rule="evenodd" d="M18 3.9a1 1 0 0 1 1 1c0 1.34 1.204 2.69 3.163 3.014a1 1 0 0 1-.326 1.973A6.5 6.5 0 0 1 19 8.688V15h3a1 1 0 1 1 0 2h-3v2a1 1 0 1 1-2 0v-2H7v2a1 1 0 1 1-2 0v-2H2a1 1 0 1 1 0-2h3V8.688a6.5 6.5 0 0 1-2.837 1.199 1 1 0 0 1-.326-1.973C3.797 7.59 5 6.24 5 4.9a1 1 0 1 1 2 0l-.002.063L7 5c0 2.046 2.06 4 5 4s5-1.954 5-4l.001-.037L17 4.9a1 1 0 0 1 1-1M17 9.2c-1.069.927-2.476 1.545-4 1.736V15h4zM7 15h4v-4.063c-1.524-.19-2.931-.81-4-1.736z" clip-rule="evenodd"/></svg>