<svg xmlns="http://www.w3.org/2000/svg" fill="none" viewBox="0 0 24 24"><path fill="#090404" fill-rule="evenodd" d="M12 2a7.5 7.5 0 1 0 0 15 7.5 7.5 0 0 0 0-15m2.75 6.675a1 1 0 0 0 .975-1.225 1 1 0 1 1-1.2 1.2q.11.025.225.025m-1.025.974a1 1 0 0 1-1.225.975 1 1 0 1 0 1.2-1.2q.024.11.025.225m-2 2a1 1 0 0 1-1.225.975 1 1 0 1 0 1.2-1.2q.024.11.025.225m1.525 1.5a1 1 0 0 0 .975-1.224 1 1 0 1 1-1.2 1.199q.11.025.225.025m1.975-2a1 1 0 0 0 .974-1.224 1 1 0 1 1-1.199 1.2q.108.024.225.024" clip-rule="evenodd"/><path fill="#090404" d="M13 21a2 2 0 0 1 2-2 1 1 0 1 0 0-2 4 4 0 0 0-3 1.354A4 4 0 0 0 9 17a1 1 0 1 0 0 2 2 2 0 0 1 2 2 1 1 0 1 0 2 0"/></svg>