<svg xmlns="http://www.w3.org/2000/svg" fill="none" viewBox="0 0 24 24"><path fill="#090404" d="M10.192 4.85H6.93a2.456 2.456 0 0 0-2.456 2.455V17.62a2.457 2.457 0 0 0 2.456 2.456h10.318a2.456 2.456 0 0 0 2.457-2.456v-4.318l1.473-1.011v5.33a3.93 3.93 0 0 1-3.93 3.93H6.93A3.93 3.93 0 0 1 3 17.622V7.305a3.93 3.93 0 0 1 2.426-3.632 3.9 3.9 0 0 1 1.504-.298h4.127z"/><path fill="#090404" d="M17.362 1.039c.132 0 .244.094.272.223a6.36 6.36 0 0 0 1.725 3.164 6.36 6.36 0 0 0 3.165 1.726.28.28 0 0 1 .223.272.28.28 0 0 1-.223.27 6.36 6.36 0 0 0-3.164 1.727 6.36 6.36 0 0 0-1.737 3.21.27.27 0 0 1-.261.216.27.27 0 0 1-.262-.216 6.36 6.36 0 0 0-1.735-3.21 6.36 6.36 0 0 0-3.21-1.736.27.27 0 0 1-.216-.262c0-.127.09-.236.216-.261a6.36 6.36 0 0 0 3.21-1.736 6.36 6.36 0 0 0 1.725-3.164.28.28 0 0 1 .272-.223"/></svg>