<svg xmlns="http://www.w3.org/2000/svg" fill="none" viewBox="0 0 24 24"><path fill="#090404" d="M12.139 2c2.7 0 4.954.991 6.69 2.61l-2.863 2.863c-1.045-.982-2.355-1.491-3.827-1.492-2.597 0-4.804 1.75-5.598 4.11v.009c-1.24 3.721 1.477 7.927 5.598 7.927 2.474 0 4.892-1.381 5.384-3.972H12.14v-3.873h9.418c.118.654.181 1.336.181 2.045 0 3.046-1.09 5.61-2.981 7.355h-.002l-.317.278C16.818 21.217 14.67 22 12.139 22c-3.91 0-7.282-2.245-8.928-5.509v-.014a9.98 9.98 0 0 1 .001-8.957v-.001C4.856 4.246 8.23 2 12.138 2"/></svg>