<svg xmlns="http://www.w3.org/2000/svg" fill="none" viewBox="0 0 24 24"><path fill="#090404" fill-rule="evenodd" d="M6.99 3.352a7.12 7.12 0 0 0-2.115 5.686c.29 3.674 3.755 6.663 6.897 6.663 2.922 0 4.066-2.551 3.784-4.283a3.6 3.6 0 0 0-.792-1.728 7.4 7.4 0 0 1 1.508 1.083c1.266 1.18 2.033 2.691 2.156 4.25C18.7 18.47 16.15 22 11.885 22c-1.413 0-2.9-.36-4.15-.953A10 10 0 0 1 2 12.003a9.99 9.99 0 0 1 4.99-8.65M12.113 2c1.414 0 2.901.36 4.15.953A10 10 0 0 1 22 11.998a9.99 9.99 0 0 1-4.99 8.65 7.12 7.12 0 0 0 2.115-5.686c-.29-3.674-3.755-6.663-6.897-6.663-2.922 0-4.066 2.551-3.784 4.284.104.636.379 1.233.794 1.727a7.3 7.3 0 0 1-1.508-1.083c-1.267-1.18-2.033-2.69-2.158-4.25C5.3 5.53 7.85 2 12.115 2" clip-rule="evenodd"/></svg>