<svg xmlns="http://www.w3.org/2000/svg" fill="none" viewBox="0 0 24 24"><path fill="#090404" fill-rule="evenodd" d="M19.595 21.19c.924-.2 1.904-.747 1.904-.747l-1.715-1.412a9.6 9.6 0 0 1-2.134-2.479 9.6 9.6 0 0 0-3.142-3.205l-.63-.366a.88.88 0 0 1-.385-.645.67.67 0 0 1 .121-.455c.327-.46 2.018-2.466 2.328-2.723.398-.33.843-.604 1.256-.918q.088-.066.174-.134l.008-.006c.132-.104.257-.215.356-.347.358-.415.445-.782.467-.944-.049-.156-.193-.506-.596-.909.252.016.558.215.836.45.186-.297.38-.611.575-.926.13-.211-.063-.369-.068-.373v-.002c-.006-.005-.164-.198-.373-.068-.45.277-.898.556-1.298.808 0 0-.473-.01-1.033.474a2 2 0 0 0-.347.357l-.005.007q-.068.086-.135.175c-.314.412-.588.857-.918 1.256-.256.31-2.262 2-2.723 2.328a.67.67 0 0 1-.455.12.88.88 0 0 1-.645-.386l-.366-.628a9.6 9.6 0 0 0-3.205-3.143 9.6 9.6 0 0 1-2.478-2.134L3.554 2.5s-.545.98-.745 1.904c.278.339 1.005 1.18 1.852 1.822a57 57 0 0 1-2.114-1.034c-.081.605-.05 1.52.034 2.229.575.25 1.553.638 2.549.844-.797.187-1.67.22-2.344.207.118.439.283.886.506 1.336q.142.313.31.61c.357.099 1.758.303 2.504.135l-1.987.71a22 22 0 0 0 2.014 2.158c1.608-.864 1.974-.982 3.18-1.771-1.952 1.59-2.46 2.239-3.008 2.905l-.382.537a5.5 5.5 0 0 0-.515.884c-.483 1.037-1.163 3.246-1.163 3.246-.122.384.16.666.533.533 0 0 2.209-.681 3.246-1.163a5.6 5.6 0 0 0 .885-.515l.536-.382c.18-.148.359-.293.555-.464 0 0 1.35 1.599 2.737 2.651l.71-1.988c-.167.746.036 2.147.134 2.504q.3.168.611.31c.45.222.898.388 1.337.507-.013-.675.02-1.548.206-2.345.206.996.594 1.974.845 2.549.709.084 1.624.115 2.23.034a59 59 0 0 1-1.036-2.114c.642.847 1.483 1.574 1.822 1.852" clip-rule="evenodd"/></svg>