<svg xmlns="http://www.w3.org/2000/svg" fill="none" viewBox="0 0 24 24"><path fill="#090404" d="M12 7.601c1.381 0 2.5.627 2.5 1.4q-.002.164-.068.318l2.996 1.664a5 5 0 0 1 2.573 4.371v2.281a1 1 0 0 1 .5.866V21a1 1 0 0 1-1 1h-1a1 1 0 0 1-1-1v-2.5c0-.37.201-.693.5-.866v-2.28a3 3 0 0 0-1.543-2.623l-4.21-2.339a5 5 0 0 1-.247.008c-1.38 0-2.5-.627-2.5-1.4 0-.774 1.12-1.4 2.5-1.4"/><path fill="#090404" d="M11.132 15.801c.552.251 1.186.251 1.738 0l3.703-1.684c.273.347.428.78.428 1.236v1.824c-.31.352-.5.814-.5 1.323v.98c-1.327.634-3.08 1.02-5 1.02-4.142 0-7.5-1.791-7.5-4v-3.94z"/><path fill="#090404" d="M11.656 3.065c.224-.074.466-.074.69 0l.11.043 10.759 4.89c.858.392.858 1.611 0 2.003l-3.532 1.604a6 6 0 0 0-1.77-1.497l-2.43-1.35c-.103-.779-.685-1.318-1.225-1.62-.628-.352-1.428-.539-2.257-.539s-1.63.187-2.257.538c-.558.313-1.162.877-1.235 1.696L8.5 9c0 .91.648 1.528 1.243 1.862.628.352 1.428.538 2.257.538l.002-.001 3.66 2.034-3.207 1.458a1.1 1.1 0 0 1-.91 0l-10.76-4.89c-.858-.391-.858-1.611 0-2.002l10.76-4.891z"/></svg>