<svg xmlns="http://www.w3.org/2000/svg" fill="none" viewBox="0 0 24 24"><path fill="#090404" d="M6.515 4.974c-.193-.384.142-.824.553-.699C13.155 6.125 14.5 11.72 14.5 18h1c0-4.143 1.15-7.12 5.347-9.03.41-.187.815.248.648.667-1.068 2.67-1.46 5.612-1.495 8.363h3v2H1v-2h3c-.035-2.75-.427-5.692-1.495-8.363-.167-.419.238-.854.648-.667C7.35 10.88 8.5 13.857 8.5 18h1c-.037-4.305-.867-8.804-2.985-13.026"/><path fill="#090404" d="M17.932 3.275c.41-.125.746.316.553.7-1.267 2.527-2.071 5.154-2.522 7.778a8.6 8.6 0 0 0-.774 1.613c-.258-1.698-.7-3.306-1.421-4.74a11 11 0 0 0-1.01-1.634c1.134-1.69 2.789-2.992 5.174-3.717"/></svg>