<svg xmlns="http://www.w3.org/2000/svg" fill="none" viewBox="0 0 24 24"><path fill="#090404" d="M9 2a4.5 4.5 0 1 0 0 9 4.5 4.5 0 0 0 0-9"/><path fill="#090404" d="M15 2a1 1 0 1 0 0 2 2.5 2.5 0 0 1 0 5 1 1 0 1 0 0 2 4.5 4.5 0 1 0 0-9"/><path fill="#090404" d="M9 12C4.57 12 .739 14.879.093 18.843-.113 20.107.948 21 2 21h14c1.052 0 2.112-.893 1.907-2.157C17.26 14.88 13.429 12 9 12"/><path fill="#090404" d="M18.334 12.566a1 1 0 1 0-.668 1.885c2.247.797 3.841 2.535 4.237 4.549H20.5a1 1 0 1 0 0 2H22c1.052 0 2.112-.893 1.907-2.157-.476-2.918-2.693-5.257-5.573-6.277"/></svg>