<svg xmlns="http://www.w3.org/2000/svg" fill="none" viewBox="0 0 24 24"><path fill="#090404" d="M3.5 7a4 4 0 1 1 8 0 4 4 0 0 1-8 0"/><path fill="#090404" d="M12.5 7a4 4 0 1 1 8 0 4 4 0 0 1-8 0"/><path fill="#090404" d="M7.5 12c3.178 0 6.14 2.414 6.861 6.767.206 1.24-.798 2.233-1.934 2.233H2.573c-1.136 0-2.14-.993-1.935-2.233C1.36 14.414 4.321 12 7.5 12"/><path fill="#090404" d="M16.335 18.44c-.389-2.342-1.358-4.3-2.706-5.739A6.2 6.2 0 0 1 16.5 12c3.179 0 6.14 2.414 6.862 6.767.205 1.24-.8 2.233-1.935 2.233h-5.538c.416-.72.605-1.596.446-2.56"/></svg>