<svg xmlns="http://www.w3.org/2000/svg" fill="none" viewBox="0 0 24 24"><path fill="#090404" d="M8 3a4 4 0 1 0 0 8 4 4 0 0 0 0-8"/><path fill="#090404" d="M17 4a3.5 3.5 0 1 0 0 7 3.5 3.5 0 0 0 0-7"/><path fill="#090404" d="M8 12c3.178 0 6.14 2.414 6.861 6.767.206 1.24-.798 2.233-1.934 2.233H3.073c-1.136 0-2.14-.993-1.935-2.233C1.86 14.414 4.821 12 8 12"/><path fill="#090404" d="M14.194 12.772c1.314 1.431 2.259 3.364 2.64 5.667A3.9 3.9 0 0 1 16.788 20h4.283c1.13 0 2.153-.993 1.922-2.25C22.318 14.067 19.761 12 17 12a5.5 5.5 0 0 0-2.806.771"/></svg>