<svg xmlns="http://www.w3.org/2000/svg" fill="none" viewBox="0 0 24 24"><path fill="#090404" d="M8.69 13.441q.43.486.906.963.477.475.962.906c-.517.36-1.008.66-1.46.885-.59.295-1.064.446-1.402.486-.229.027-.329-.003-.36-.017-.014-.031-.044-.131-.017-.36.04-.338.192-.812.487-1.402.226-.452.523-.944.883-1.46"/><path fill="#090404" d="M15.31 13.441c.36.517.658 1.01.884 1.461.295.59.447 1.064.487 1.402.027.229-.003.329-.017.36-.031.014-.131.044-.36.017-.337-.04-.812-.19-1.402-.486a12 12 0 0 1-1.46-.885q.485-.43.962-.906.476-.477.906-.963"/><path fill="#090404" d="M12 9.817A21 21 0 0 1 14.182 12 21 21 0 0 1 12 14.182 21 21 0 0 1 9.817 12 21 21 0 0 1 12 9.817"/><path fill="#090404" d="M7.695 7.318c.338.04.812.192 1.403.487.452.226.944.524 1.46.884a23 23 0 0 0-.962.907q-.476.477-.908.963a12 12 0 0 1-.883-1.461c-.295-.59-.447-1.065-.487-1.403-.027-.23.003-.329.017-.36.031-.014.13-.044.36-.017"/><path fill="#090404" d="M16.305 7.318c.23-.027.329.003.36.017.014.031.044.13.017.36-.04.338-.192.812-.487 1.403a12 12 0 0 1-.885 1.46 23 23 0 0 0-.906-.962q-.477-.476-.963-.907c.517-.36 1.01-.658 1.461-.884.59-.295 1.065-.447 1.403-.487"/><path fill="#090404" fill-rule="evenodd" d="M19.793 2.793a1 1 0 1 1 1.414 1.414l-1.821 1.82A9.5 9.5 0 0 1 6.028 19.385l-1.821 1.822a1 1 0 1 1-1.414-1.414l1.82-1.821A9.5 9.5 0 0 1 17.971 4.614zM17.84 5.968c-.512-.439-1.176-.504-1.747-.437-.623.074-1.306.32-1.995.664A14.4 14.4 0 0 0 12 7.511a14.4 14.4 0 0 0-2.098-1.316c-.689-.344-1.372-.59-1.995-.664-.571-.067-1.236-.002-1.747.437l-.1.092c-.523.522-.6 1.238-.529 1.847.074.623.32 1.306.664 1.995.331.662.777 1.37 1.316 2.097a14.4 14.4 0 0 0-1.316 2.099c-.344.689-.589 1.372-.663 1.995-.072.61.006 1.324.529 1.846.522.523 1.237.6 1.846.529.623-.074 1.306-.319 1.995-.663A14.4 14.4 0 0 0 12 16.488c.726.54 1.436.986 2.098 1.317.689.344 1.372.589 1.995.663.61.072 1.324-.006 1.846-.529.523-.522.6-1.237.529-1.846-.074-.623-.319-1.306-.663-1.995a14.4 14.4 0 0 0-1.317-2.099 14.4 14.4 0 0 0 1.317-2.097c.344-.689.59-1.372.664-1.995.072-.61-.006-1.325-.529-1.847z" clip-rule="evenodd"/></svg>