<svg xmlns="http://www.w3.org/2000/svg" fill="none" viewBox="0 0 24 24"><path fill="#090404" d="m12.5 15-5.25 5.25a2.475 2.475 0 0 1-3.5-3.5L9 11.5z"/><path fill="#090404" d="M8.64 2.114c1.966-.31 3.815-.198 5.509.422 1.812.664 3.374 1.885 4.68 3.652.102.14.194.262.293.44.376.676.375 1.403.395 1.798.023.466.063.649.172.8.062.086.127.153.218.243h.593l.099.005a1 1 0 0 1 .608.288c.215.215.507.487.671.818.277.56.277 1.217 0 1.777-.123.248-.318.463-.498.646l-2.466 2.466a2 2 0 0 1-2.828 0l-.151-.151a1.49 1.49 0 0 1-.435-1.05.45.45 0 0 0-.537-.44l-.767.154c-.33.065-.67-.039-.907-.278l-3-3.032a1 1 0 0 1-.273-.88c.242-1.35.144-2.205-.17-2.849-.317-.652-.934-1.25-2.078-1.923a1.55 1.55 0 0 1-.754-1.127L7 3.686l.006-.134a1.525 1.525 0 0 1 1.24-1.37z"/></svg>