<svg xmlns="http://www.w3.org/2000/svg" fill="none" viewBox="0 0 24 24"><path fill="#090404" d="M9.81 5.098c.402-.421.363-1.103-.145-1.384C7.43 2.48 4.6 2.847 2.72 4.818.553 7.091.405 10.686 2.438 12.984c2.602 2.942 5.346 5.905 8.258 8.592.738.68 1.87.68 2.604-.004 1.894-1.768 3.716-3.684 5.474-5.554a1 1 0 0 0-.003-1.372l-2.578-2.72a1 1 0 0 0-1.448-.003l-.265.277c-1.797 1.884-4.71 1.887-6.507.003l-1.151-1.196a2 2 0 0 1-.007-2.767zm11.47-.28c-2.312-2.424-6.062-2.424-8.374 0l-3.92 4.11a1 1 0 0 0 .008 1.389l.394.403a2.517 2.517 0 0 0 3.678 0l.954-1a2 2 0 0 1 2.898.003l3.148 3.314a.996.996 0 0 0 1.466-.019l.03-.034c2.033-2.298 1.885-5.893-.282-8.166"/></svg>