<svg xmlns="http://www.w3.org/2000/svg" fill="none" viewBox="0 0 24 24"><path fill="#090404" fill-rule="evenodd" d="M19.611 4.389a1.328 1.328 0 0 0-1.989.126l-3.41 4.405a5.3 5.3 0 0 1 .868.868l4.405-3.41c.633-.49.692-1.423.126-1.989m-3.606 7.212L20.71 7.96a3.328 3.328 0 1 0-4.668-4.668l-3.642 4.704a5.23 5.23 0 0 0-5.122 1.334l-1.701 1.7H4.41a1.997 1.997 0 0 0-1.412 3.41l.821.82a3.492 3.492 0 0 0 4.921 4.922l.822.821a1.997 1.997 0 0 0 3.409-1.412v-1.166l1.7-1.7a5.23 5.23 0 0 0 1.334-5.123m-8.691 7.153-2.068-2.068a1.492 1.492 0 0 0 2.068 2.068" clip-rule="evenodd"/></svg>