<svg xmlns="http://www.w3.org/2000/svg" fill="none" viewBox="0 0 24 24"><path fill="#090404" d="M19 21a2 2 0 0 1-2 2H7a2 2 0 0 1-2-2v-4.18a8.49 8.49 0 0 0 7 3.68 8.49 8.49 0 0 0 7-3.68z"/><path fill="#090404" fill-rule="evenodd" d="M12 8.5a3.5 3.5 0 1 1 0 7 3.5 3.5 0 0 1 0-7m0 2a1.5 1.5 0 1 0 0 3 1.5 1.5 0 0 0 0-3" clip-rule="evenodd"/><path fill="#090404" fill-rule="evenodd" d="M12 5a7 7 0 1 1 0 14 7 7 0 0 1 0-14m0 2a5 5 0 1 0 0 10 5 5 0 0 0 0-10" clip-rule="evenodd"/><path fill="#090404" d="M17 1a2 2 0 0 1 2 2v4.18a8.49 8.49 0 0 0-7-3.68 8.49 8.49 0 0 0-7 3.68V3a2 2 0 0 1 2-2z"/></svg>