<svg xmlns="http://www.w3.org/2000/svg" fill="none" viewBox="0 0 24 24"><path fill="#090404" fill-rule="evenodd" d="M4.58 9.583C4.135 9.805 3.597 10 3 10a1 1 0 0 1 0-2c.164 0 .383-.055.69-.208.31-.154.633-.367 1.018-.624l.035-.023c.354-.237.768-.513 1.192-.726C6.375 6.198 6.908 6 7.5 6c.594 0 1.13.196 1.574.418.433.216.852.496 1.21.735l.023.015c.386.258.708.47 1.016.625.307.154.52.207.677.207.153 0 .364-.053.67-.206.308-.155.629-.368 1.016-.626l.017-.011c.36-.24.782-.522 1.219-.74.445-.222.982-.417 1.578-.417.59 0 1.123.198 1.561.42.421.212.832.486 1.185.722l.04.026c.384.257.707.47 1.018.624.308.152.53.208.696.208a1 1 0 1 1 0 2c-.597 0-1.136-.194-1.584-.417-.442-.219-.869-.503-1.232-.745l-.008-.006c-.388-.259-.708-.472-1.015-.627C16.856 8.052 16.647 8 16.5 8c-.162 0-.38.055-.687.208-.31.154-.632.367-1.017.624l-.032.02c-.355.238-.77.515-1.196.73-.442.22-.976.418-1.568.418-.594 0-1.129-.197-1.572-.418-.43-.216-.848-.494-1.205-.733l-.026-.017c-.386-.258-.708-.47-1.017-.625C7.874 8.054 7.658 8 7.5 8c-.15 0-.361.052-.666.206-.308.155-.628.367-1.016.626l-.013.009c-.362.241-.786.524-1.224.742m0 8C4.135 17.805 3.597 18 3 18a1 1 0 1 1 0-2c.164 0 .383-.055.69-.208.31-.154.633-.367 1.018-.624l.035-.023c.354-.237.768-.512 1.192-.726.44-.221.973-.419 1.565-.419.594 0 1.13.196 1.574.418.433.216.852.496 1.21.735l.023.015c.386.258.708.47 1.016.625.307.154.52.207.677.207.153 0 .364-.053.67-.206.308-.155.629-.368 1.016-.626l.017-.011c.36-.24.782-.522 1.219-.74.445-.222.982-.417 1.578-.417.59 0 1.123.198 1.561.42.421.212.832.486 1.185.722l.04.026c.384.257.707.47 1.018.624.308.152.53.208.696.208a1 1 0 1 1 0 2c-.597 0-1.136-.194-1.584-.417-.442-.219-.869-.503-1.232-.745l-.008-.006c-.388-.259-.708-.472-1.015-.627-.305-.153-.514-.205-.661-.205-.162 0-.38.055-.687.208-.31.154-.632.367-1.017.624l-.032.02c-.355.238-.77.515-1.196.73-.442.22-.976.418-1.568.418-.594 0-1.129-.197-1.572-.418-.43-.216-.848-.494-1.205-.733l-.026-.017c-.386-.258-.708-.47-1.017-.625-.306-.153-.522-.207-.68-.207-.15 0-.361.052-.666.206-.308.154-.628.367-1.016.626l-.013.009c-.362.241-.786.524-1.224.742" clip-rule="evenodd"/></svg>