<svg xmlns="http://www.w3.org/2000/svg" fill="none" viewBox="0 0 24 24"><path fill="#090404" d="M11 20a1 1 0 0 1 1 1v1a1 1 0 1 1-2 0v-1a1 1 0 0 1 1-1"/><path fill="#090404" d="M3.929 17.656a1 1 0 0 1 1.414 1.415l-.707.707a1 1 0 0 1-1.414-1.415z"/><path fill="#090404" d="M9.636 9.083a1 1 0 1 1 1.817.834A5 5 0 0 0 11 12c0 .762.17 1.483.473 2.127a1 1 0 1 1-1.81.851A7 7 0 0 1 9 12c0-1.04.228-2.028.636-2.917"/><path fill="#090404" fill-rule="evenodd" d="M16 5a7 7 0 1 1-2.501 13.538 7 7 0 1 1 0-13.077A7 7 0 0 1 16 5m-5 2a5 5 0 1 0 0 10 5 5 0 0 0 0-10" clip-rule="evenodd"/><path fill="#090404" d="M2 11a1 1 0 0 1 0 2H1a1 1 0 0 1 0-2z"/><path fill="#090404" d="M3.222 4.222a1 1 0 0 1 1.414 0l.707.707a1 1 0 0 1-1.414 1.414l-.707-.707a1 1 0 0 1 0-1.414"/><path fill="#090404" d="M11 1a1 1 0 0 1 1 1v1a1 1 0 0 1-2 0V2a1 1 0 0 1 1-1"/></svg>