<svg xmlns="http://www.w3.org/2000/svg" fill="none" viewBox="0 0 24 24"><path fill="#090404" d="M12.584 3.872a7 7 0 0 0-.584.356A7.118 7.118 0 0 0 8 3a5.7 5.7 0 0 0-4.167 1.816C2.696 6.03 2 7.786 2 10c0 3.345 2.373 6.102 4.582 7.927a21.7 21.7 0 0 0 3.21 2.193c.462.257.877.462 1.212.605q.252.11.466.178c.108.035.314.097.53.097s.422-.062.53-.097c.141-.045.3-.106.466-.178.335-.143.75-.348 1.212-.605a21.7 21.7 0 0 0 3.21-2.193C19.628 16.102 22 13.345 22 10c0-2.214-.696-3.971-1.833-5.184A5.7 5.7 0 0 0 16 3a7.1 7.1 0 0 0-3.416.872"/></svg>