<svg xmlns="http://www.w3.org/2000/svg" fill="none" viewBox="0 0 24 24"><path fill="#090404" fill-rule="evenodd" d="M12 4.425c1.617-1.283 3.472-1.664 5.17-1.286 1.928.43 3.563 1.822 4.342 3.764 1.604 4-.495 9.69-9.023 14.47a1 1 0 0 1-.977 0C2.984 16.593.885 10.903 2.489 6.903c.779-1.942 2.414-3.334 4.342-3.764 1.697-.378 3.553.003 5.17 1.286m0 3.076a.8.8 0 0 0-.8.8v.287c-.452.078-.914.257-1.282.584-.4.355-.652.857-.652 1.461 0 .841.398 1.42.945 1.791.48.327 1.087.5 1.532.632.511.152.857.26 1.094.417.168.112.238.212.238.437 0 .123-.043.214-.177.307-.158.111-.428.203-.776.22a2.3 2.3 0 0 1-.984-.168c-.29-.125-.467-.292-.55-.456a.8.8 0 0 0-1.426.725c.297.585.812.971 1.343 1.2.222.096.457.167.695.217v.546a.8.8 0 0 0 1.6 0v-.544c.36-.079.712-.216 1.016-.429.497-.348.859-.9.859-1.618 0-.838-.407-1.407-.953-1.77-.478-.317-1.084-.487-1.525-.618-.507-.15-.853-.26-1.087-.42-.167-.113-.245-.223-.245-.469 0-.126.04-.2.114-.265.093-.082.263-.168.518-.207.531-.083 1.134.075 1.468.376a.8.8 0 0 0 1.07-1.19 3.1 3.1 0 0 0-1.235-.665V8.3a.8.8 0 0 0-.8-.8" clip-rule="evenodd"/></svg>