<svg xmlns="http://www.w3.org/2000/svg" fill="none" viewBox="0 0 24 24"><path fill="#090404" fill-rule="evenodd" d="M21.51 6.903c1.604 4-.494 9.69-9.022 14.47a1 1 0 0 1-.977 0C2.983 16.592.884 10.902 2.489 6.902c.778-1.942 2.413-3.334 4.341-3.764 1.698-.378 3.553.003 5.17 1.287 1.616-1.284 3.471-1.665 5.169-1.287 1.928.43 3.562 1.822 4.341 3.764M11.348 9.47a1 1 0 0 0-1.696 0L8.696 11H8a1 1 0 1 0 0 2h1.25a1 1 0 0 0 .848-.47l.402-.643 1.652 2.643a1 1 0 0 0 1.648.07L15 13h1a1 1 0 1 0 0-2h-1.5a1 1 0 0 0-.8.4l-.625.833z" clip-rule="evenodd"/></svg>