<svg xmlns="http://www.w3.org/2000/svg" fill="none" viewBox="0 0 24 24"><path fill="#090404" d="M19.414 3a2 2 0 0 0-2.828 0l-2.8 2.8c-3.396-2.01-7.45-2.357-9.897.09-1.57 1.57-1.983 3.844-1.558 6.108.426 2.27 1.7 4.64 3.68 6.62a14 14 0 0 0 3.542 2.562c.53.267 1.01.465 1.404.597.35.118.74.223 1.043.223a1 1 0 1 0 0-2q.027.001-.008-.006a4 4 0 0 1-.397-.112c-.297-.1-.69-.26-1.14-.487a12 12 0 0 1-3.03-2.192c-1.731-1.731-2.786-3.749-3.128-5.573-.344-1.831.039-3.359 1.006-4.327 1.426-1.425 4.16-1.568 7.016-.036L10.586 9A2 2 0 0 0 10 10.414V13a1 1 0 0 0 1 1h2.602a2 2 0 0 0 1.416-.587l1.974-1.98c1.037 1.328 1.726 2.586 2.007 3.655.323 1.236.082 2.067-.624 2.631-.447.358-.964.385-1.647.103-.712-.294-1.435-.871-2.016-1.432a1 1 0 0 0-1.39 1.439c.645.622 1.584 1.404 2.642 1.841 1.088.45 2.45.58 3.66-.389 1.51-1.207 1.765-2.96 1.31-4.7-.389-1.48-1.303-3.053-2.52-4.573l2.589-2.595A2 2 0 0 0 21 4.587z"/></svg>