<svg xmlns="http://www.w3.org/2000/svg" fill="none" viewBox="0 0 24 24"><path fill="#090404" d="M11.508 2.041a2 2 0 0 1 .984 0c.374.095.695.327.95.512l.072.05 6.061 4.34.013.01 2.494 1.785a1 1 0 1 1-1.164 1.626L20 9.707v.174a1 1 0 1 1-2 0V8.275L12.35 4.23a7 7 0 0 0-.343-.238L12 3.988l-.007.004c-.07.044-.164.11-.342.238L6 8.275V18.4c0 .297 0 .459.01.575v.014h.014c.116.01.279.011.575.011H12a1 1 0 1 1 0 2H6.568c-.252 0-.498 0-.706-.017a2 2 0 0 1-.77-.2 2 2 0 0 1-.874-.875 2 2 0 0 1-.201-.77C4 18.93 4 18.684 4 18.432V9.707l-.918.657a1 1 0 1 1-1.164-1.626l8.569-6.134.07-.051c.256-.185.577-.417.951-.512"/><path fill="#090404" d="M18.115 13.692c.303-.379.904-.16.904.33v2.186h1.47c.43 0 .667.511.395.851l-2.999 3.749c-.303.379-.903.16-.903-.33v-2.186H15.51c-.43 0-.666-.511-.394-.851z"/><path fill="#090404" d="M12 9a3 3 0 1 0 0 6 3 3 0 0 0 0-6"/></svg>