<svg xmlns="http://www.w3.org/2000/svg" fill="none" viewBox="0 0 24 24"><path fill="#090404" d="M11.508 2.291a2 2 0 0 1 .984 0c.374.095.695.327.95.512l.072.05 8.568 6.135a1 1 0 1 1-1.164 1.626L20 9.957v8.475c0 .252 0 .498-.017.706a2 2 0 0 1-.2.77 2 2 0 0 1-.875.874 2 2 0 0 1-.77.201c-.208.017-.454.017-.706.017H16a1 1 0 1 1 0-2h1.4c.297 0 .459 0 .576-.01l.013-.001v-.014c.01-.116.011-.279.011-.575V8.525L12.35 4.48a7 7 0 0 0-.343-.238L12 4.238l-.007.004c-.07.044-.164.11-.342.238L6 8.525V18.4c0 .297 0 .459.01.575v.014h.014c.116.01.279.011.575.011H8a1 1 0 1 1 0 2H6.568c-.252 0-.498 0-.706-.017a2 2 0 0 1-.77-.201 2 2 0 0 1-.874-.874 2 2 0 0 1-.201-.77C4 18.93 4 18.684 4 18.432V9.957l-.918.657a1 1 0 1 1-1.164-1.626l8.569-6.134.07-.051c.256-.185.577-.417.951-.512"/><path fill="#090404" d="M11 10v1h2v-1a1 1 0 1 1 2 0v1.268A2 2 0 0 1 16 13v2a2 2 0 0 1-2 2h-1v3a1 1 0 1 1-2 0v-3h-1a2 2 0 0 1-2-2v-2a2 2 0 0 1 1-1.732V10a1 1 0 0 1 2 0"/></svg>