<svg xmlns="http://www.w3.org/2000/svg" fill="none" viewBox="0 0 24 24"><path fill="#090404" d="M15.915 2c.642 0 1.207.426 1.382 1.044l3.323 11.704a1 1 0 0 0 .382.542l.496.353a1 1 0 0 1 .409.966l-.68 4.413a1 1 0 0 1-1.506.704l-2.653-1.607a2 2 0 0 0-.493-.23 2.8 2.8 0 0 0-.78-.112A2.795 2.795 0 0 1 13 16.982v-4.786c0-1.213.984-2.196 2.197-2.196a.48.48 0 0 1 .47.386l.843 4.212.03.097a.5.5 0 0 0 .96-.192l-.01-.1-.842-4.213A1.48 1.48 0 0 0 15.197 9c-.423 0-.827.082-1.197.231V3.915C14 2.857 14.858 2 15.915 2"/><path fill="#090404" d="M3.05 14.828q-.05.33-.05.672a4.5 4.5 0 0 0 4.094 4.48l-2.993 1.843a1 1 0 0 1-1.48-.557l-1.385-4.5c-.138-.448.053-.931.46-1.163z"/><path fill="#090404" d="M8.56 2C9.357 2 10 2.644 10 3.44v8.318A4.5 4.5 0 0 0 7.5 11a4.5 4.5 0 0 0-2.539.784l1.721-8.257A1.92 1.92 0 0 1 8.561 2"/><path fill="#090404" fill-rule="evenodd" d="M7.5 12a3.5 3.5 0 1 1 0 7 3.5 3.5 0 0 1 0-7m0 2.5a1 1 0 1 0 0 2 1 1 0 0 0 0-2" clip-rule="evenodd"/></svg>