<svg xmlns="http://www.w3.org/2000/svg" fill="none" viewBox="0 0 24 24"><path fill="#090404" fill-rule="evenodd" d="M1.62 7.586c-.483.445-.62.81-.62 1.08s.137.637.62 1.081c.484.445 1.24.892 2.257 1.287 2.03.79 4.901 1.3 8.123 1.3s6.093-.51 8.123-1.3c1.018-.395 1.773-.842 2.257-1.287.483-.444.62-.81.62-1.08s-.137-.636-.62-1.08c-.484-.446-1.24-.892-2.257-1.288C18.093 5.509 15.222 5 12 5s-6.093.51-8.123 1.299c-1.018.396-1.773.842-2.257 1.287M23 11.798c-.616.42-1.347.787-2.152 1.1-2.314.9-5.442 1.435-8.848 1.435-3.405 0-6.534-.535-8.848-1.434-.805-.313-1.536-.68-2.152-1.101v3.535c0 .27.137.636.62 1.08.484.446 1.24.892 2.257 1.288C5.907 18.491 8.778 19 12 19s6.093-.51 8.123-1.299c1.018-.396 1.773-.842 2.257-1.287.483-.445.62-.81.62-1.08z" clip-rule="evenodd"/></svg>