<svg xmlns="http://www.w3.org/2000/svg" fill="none" viewBox="0 0 24 24"><path fill="#090404" d="m13.228 8.406 1.029.257a.5.5 0 0 1 .364.607l-.242.97a.5.5 0 0 1-.606.362l-1.03-.256a.5.5 0 0 1-.364-.607l.242-.97a.5.5 0 0 1 .606-.363"/><path fill="#090404" d="M6.416 7.228a.5.5 0 0 1 .693.138l.446.667a.5.5 0 0 1-.139.695l-.832.553a.5.5 0 0 1-.693-.138l-.446-.667a.5.5 0 0 1 .139-.695z"/><path fill="#090404" d="M16.277 7.089a.5.5 0 0 1 .694-.139l.668.445c.23.153.291.464.138.694l-.554.83a.5.5 0 0 1-.694.14l-.668-.445a.5.5 0 0 1-.138-.694z"/><path fill="#090404" d="M10.606 6.333a.5.5 0 0 1 .67.224l.448.895a.5.5 0 0 1-.224.67l-1.105.554a.5.5 0 0 1-.671-.224l-.448-.895a.5.5 0 0 1 .224-.67z"/><path fill="#090404" fill-rule="evenodd" d="M12 3.5c2.856 0 5.488.461 7.442 1.243.975.39 1.83.88 2.46 1.474C22.531 6.813 23 7.584 23 8.5v1c0 6.075-4.925 11-11 11S1 15.575 1 9.5v-1c0-.916.468-1.687 1.099-2.283.628-.595 1.484-1.084 2.459-1.474C6.512 3.961 9.144 3.5 12 3.5m0 2c-2.666 0-5.035.434-6.7 1.1-.834.334-1.444.707-1.827 1.07C3.09 8.03 3 8.31 3 8.5s.091.47.473.83c.383.363.993.736 1.828 1.07 1.664.666 4.033 1.1 6.699 1.1s5.035-.434 6.7-1.1c.834-.334 1.444-.707 1.827-1.07.381-.36.473-.641.473-.83s-.091-.47-.473-.83c-.383-.363-.993-.736-1.828-1.07-1.664-.666-4.033-1.1-6.699-1.1" clip-rule="evenodd"/></svg>