<svg xmlns="http://www.w3.org/2000/svg" fill="none" viewBox="0 0 24 24"><path fill="#090404" fill-rule="evenodd" d="M20 4a2 2 0 0 1 2 2v12a2 2 0 0 1-2 2H4a2 2 0 0 1-2-2V6a2 2 0 0 1 2-2zm-2.047 9.838c-1.6-.9-3.523 2.556-1.216 3.137 1.264.317 2.51-2.423 1.216-3.137m-2.822-5.719c-.114-.906-.992-1.287-1.99-1.05-3.754.894-1.348 3.086-2.874 3.907-.847-.16-.004-1.969-1.392-2.09-2.217-.192.084 3.243-.778 3.88a1 1 0 0 1-.133.086c-.459-.085-.815-3.911-1.939-2.744-1.247 1.296.067 2.564.448 3.548-.177.43-.309.692-.49 1.005-.134.232-.065.528.174.65 1.53.785 5.014 1.922 5.93.895.124-.253.133-.31.077-.587-.553-1.07-2.553-.173-3.146-1.195-.278-1.935 4.913.54 6.282-.713.455-2.188-3.356-1.125-3.906-1.603.6-1.674 7.445.149 6.745-2.103-1.905-1.886-4.485.93-6.001.427-.755-.975 2.803-1.877 2.993-2.313" clip-rule="evenodd"/></svg>