<svg xmlns="http://www.w3.org/2000/svg" fill="none" viewBox="0 0 24 24"><path fill="#090404" d="M12 4a1 1 0 0 1-1 1H5v8.586l2.293-2.293a1 1 0 0 1 1.414 0L12 14.586l1.293-1.293a1 1 0 0 1 1.414 0L19 17.586V13a1 1 0 1 1 2 0v6a2 2 0 0 1-.088.589A1 1 0 0 1 20 21H4a1 1 0 0 1-1-1V5a2 2 0 0 1 2-2h6a1 1 0 0 1 1 1"/><path fill="#090404" d="m19.24 4.185-.696-1.812a.582.582 0 0 0-1.088 0l-.697 1.812a1 1 0 0 1-.574.575l-1.812.696a.582.582 0 0 0 0 1.088l1.812.696a1 1 0 0 1 .575.575l.696 1.812a.582.582 0 0 0 1.088 0l.697-1.812a1 1 0 0 1 .574-.575l1.812-.696a.582.582 0 0 0 0-1.088l-1.812-.696a1 1 0 0 1-.575-.575"/></svg>