<svg xmlns="http://www.w3.org/2000/svg" fill="none" viewBox="0 0 24 24"><path fill="#090404" d="M3.875 10.99a1 1 0 0 1 1.222.711c.134.508.399 1.04.76 1.625.376.608.774 1.151 1.215 1.818.805 1.215 1.71 2.757 1.415 4.521l-.006.031-.3 1.5a1.001 1.001 0 0 1-1.961-.391l.295-1.475c.149-.91-.292-1.845-1.11-3.082-.372-.561-.859-1.24-1.249-1.871-.403-.653-.786-1.38-.993-2.166a1 1 0 0 1 .712-1.222"/><path fill="#090404" d="M11.534 2.01c1.936.065 3.413.49 4.516 1.271 1.115.791 1.738 1.87 2.11 3.023.139.428.44.77.927 1.1.514.346 1.114.602 1.813.932.873.412 1.098 1.502.548 2.235l-.84 1.12c.511 1.671.657 2.943.444 3.935-.258 1.197-.995 1.838-1.769 2.222a9 9 0 0 1-1.046.413c-.332.113-.595.202-.83.311-.422.196-.634.397-.734.788l-.457 1.877a1 1 0 0 1-1.944-.473l.46-1.888.003-.012c.298-1.165 1.073-1.755 1.829-2.106.352-.164.727-.288 1.029-.39.323-.11.579-.201.802-.311.388-.193.606-.405.702-.85.119-.556.063-1.566-.545-3.39a1 1 0 0 1 .15-.917l.769-1.027c-.486-.227-1.026-.49-1.503-.811-.705-.476-1.388-1.143-1.711-2.145-.28-.868-.697-1.53-1.364-2.004-.681-.483-1.733-.849-3.425-.905a1 1 0 0 1 .066-1.998"/><path fill="#090404" d="M6 2c.24 0 .457.148.544.373l.537 1.398A2 2 0 0 0 8.23 4.919l1.398.537a.583.583 0 0 1 0 1.088l-1.398.537A2 2 0 0 0 7.081 8.23l-.537 1.398a.583.583 0 0 1-1.088 0L4.92 8.229a2 2 0 0 0-1.148-1.148l-1.398-.537a.583.583 0 0 1 0-1.088l1.398-.537a2 2 0 0 0 1.148-1.148l.537-1.398A.58.58 0 0 1 6 2"/></svg>