<svg xmlns="http://www.w3.org/2000/svg" fill="none" viewBox="0 0 24 24"><path fill="#090404" d="M14.5 6.5c.18 0 .342.112.407.28l.524 1.359a.75.75 0 0 0 .43.43l1.359.524a.436.436 0 0 1 0 .814l-1.359.524a.75.75 0 0 0-.43.43l-.524 1.359a.436.436 0 0 1-.814 0l-.524-1.359a.75.75 0 0 0-.43-.43l-1.359-.524a.436.436 0 0 1 0-.814l1.359-.524a.75.75 0 0 0 .43-.43l.524-1.359a.44.44 0 0 1 .407-.28"/><path fill="#090404" fill-rule="evenodd" d="M19 3a2 2 0 0 1 2 2v14a2 2 0 0 1-2 2H5a2 2 0 0 1-2-2V5a2 2 0 0 1 2-2zM5 13.586 6.586 12a2 2 0 0 1 2.828 0l7 7H19V5H5z" clip-rule="evenodd"/></svg>