<svg xmlns="http://www.w3.org/2000/svg" fill="none" viewBox="0 0 24 24"><path fill="#090404" fill-rule="evenodd" d="M11 2a8 8 0 0 1 7.976 7.403c.013.184.07.363.172.516l1.684 2.526A1 1 0 0 1 20.6 13.8l-1.2.9a1 1 0 0 0-.4.799V17a2 2 0 0 1-2 2h-3v2a1 1 0 0 1-1 1H7a1 1 0 0 1-1-1v-4.278c0-.303-.14-.588-.365-.791A7.98 7.98 0 0 1 3 10a8 8 0 0 1 8-8m0 4.5c-.21 0-.4.13-.476.327l-.59 1.533a1 1 0 0 1-.574.575l-1.533.59a.51.51 0 0 0 0 .95l1.533.59a1 1 0 0 1 .575.575l.59 1.533a.51.51 0 0 0 .95 0l.59-1.533a1 1 0 0 1 .575-.575l1.533-.59a.51.51 0 0 0 0-.95l-1.533-.59a1 1 0 0 1-.575-.575l-.59-1.533A.51.51 0 0 0 11 6.5" clip-rule="evenodd"/></svg>