<svg xmlns="http://www.w3.org/2000/svg" fill="none" viewBox="0 0 24 24"><path fill="#090404" d="M9.5 3.5a3.5 3.5 0 1 0 0 7 3.5 3.5 0 0 0 0-7"/><path fill="#090404" d="m21.372 16.968.973-.23a1 1 0 0 0-.024-.086l.012.037c.1.3.195.587.253.836.062.27.106.602.015.964a2.02 2.02 0 0 1-.864 1.198c-.318.203-.653.264-.93.29-.258.024-.568.024-.894.024H4.015c-.305 0-.603 0-.855-.026a2 2 0 0 1-.918-.3 2.06 2.06 0 0 1-.858-1.238 2 2 0 0 1 .034-.942c.06-.237.16-.502.259-.764l.013-.037c.342-.91.83-2.018 1.46-2.918.588-.842 1.512-1.804 2.788-1.804 1.243 0 2.266.672 2.974 1.14l.128.085c.331.22.597.395.858.53.286.147.472.193.602.193.019-.006.173-.05.51-.414.273-.292.542-.652.865-1.082l.357-.474c.88-1.152 2.197-2.773 4.185-2.938 1.342-.111 2.45.803 3.324 2.031.903 1.27 1.762 3.15 2.58 5.61z"/></svg>