<svg xmlns="http://www.w3.org/2000/svg" fill="none" viewBox="0 0 24 24"><path fill="#090404" fill-rule="evenodd" d="M19 3a2 2 0 0 1 2 2v14a2 2 0 0 1-2 2H5a2 2 0 0 1-2-2V5a2 2 0 0 1 2-2zm-2.898 10.135-.804.095a4 4 0 0 0-3.21 2.397l-.088.207-.089-.207a4 4 0 0 0-3.209-2.398l-.804-.094a.75.75 0 0 0-.803.969l.028.09A4 4 0 0 0 10.94 17h2.12a4 4 0 0 0 3.817-2.807l.028-.09a.75.75 0 0 0-.803-.968m-3.956-5.93a.25.25 0 0 0-.293 0l-.949.684a.25.25 0 0 1-.302-.007l-.696-.557a.25.25 0 0 0-.406.196V9.75a2.5 2.5 0 0 0 5 0V7.52a.25.25 0 0 0-.406-.195l-.696.557a.25.25 0 0 1-.302.007z" clip-rule="evenodd"/></svg>