<svg xmlns="http://www.w3.org/2000/svg" fill="none" viewBox="0 0 24 24"><path fill="#090404" d="M13.5 19.23a1 1 0 0 1 1 1.73l-1.5.867a2 2 0 0 1-2 0l-1.5-.866a1 1 0 1 1 1-1.732l1.5.866z"/><path fill="#090404" d="M4 13.25a1 1 0 0 1 1 1v1.799l1.502.872a1 1 0 0 1-1.004 1.73l-1.502-.872A2 2 0 0 1 3 16.049v-1.8a1 1 0 0 1 1-1"/><path fill="#090404" d="M20 13.25a1 1 0 0 1 1 1v1.799c0 .712-.38 1.372-.996 1.73l-1.502.871a1 1 0 1 1-1.004-1.73L19 16.049V14.25a1 1 0 0 1 1-1"/><path fill="#090404" d="M12 7.5c.27 0 .514.167.611.42l.645 1.675a2 2 0 0 0 1.148 1.149l1.676.644a.656.656 0 0 1 0 1.224l-1.676.643a2 2 0 0 0-1.148 1.15l-.645 1.675a.655.655 0 0 1-1.222 0l-.645-1.675a2 2 0 0 0-1.148-1.15l-1.676-.643a.656.656 0 0 1 0-1.224l1.676-.644a2 2 0 0 0 1.148-1.149l.645-1.675A.655.655 0 0 1 12 7.5"/><path fill="#090404" d="M5.498 5.35a1 1 0 0 1 1.004 1.729L5 7.95V9.75a1 1 0 1 1-2 0v-1.8c0-.712.38-1.372.996-1.73z"/><path fill="#090404" d="M17.135 5.712a1 1 0 0 1 1.367-.363l1.502.871c.616.358.996 1.018.996 1.73v1.8a1 1 0 1 1-2 0v-1.8l-1.502-.871a1 1 0 0 1-.363-1.367"/><path fill="#090404" d="M11 2.173a2 2 0 0 1 2 0l1.5.866a1 1 0 0 1-1 1.731L12 3.904l-1.5.866a1 1 0 0 1-1-1.731z"/></svg>