<svg xmlns="http://www.w3.org/2000/svg" fill="none" viewBox="0 0 24 24"><path fill="#090404" d="M11 3a1 1 0 1 1 0 2H5v14h2.1a5.002 5.002 0 0 1 9.8 0H19v-7a1 1 0 1 1 2 0v7a2 2 0 0 1-2 2H5a2 2 0 0 1-2-2V5a2 2 0 0 1 2-2z"/><path fill="#090404" d="M12 7a3.5 3.5 0 1 1 0 7 3.5 3.5 0 0 1 0-7"/><path fill="#090404" d="M18 1c.24 0 .457.148.544.373l.696 1.813a1 1 0 0 0 .575.574l1.812.696a.583.583 0 0 1 0 1.088l-1.812.696a1 1 0 0 0-.575.574l-.696 1.813a.583.583 0 0 1-1.088 0l-.696-1.813a1 1 0 0 0-.575-.574l-1.812-.696a.583.583 0 0 1 0-1.088l1.813-.696a1 1 0 0 0 .574-.574l.696-1.813A.58.58 0 0 1 18 1"/></svg>