<svg xmlns="http://www.w3.org/2000/svg" fill="none" viewBox="0 0 24 24"><path fill="#090404" fill-rule="evenodd" d="M17.455 2.25a4.295 4.295 0 0 1 4.295 4.295v10.91a4.295 4.295 0 0 1-4.295 4.295H6.545a4.295 4.295 0 0 1-4.295-4.295V6.545A4.295 4.295 0 0 1 6.545 2.25zM12 5.626c-1.898 0-3.719.628-5.06 1.746-1.343 1.118-2.097 2.634-2.097 4.215.002 1.029.323 2.04.932 2.934.61.894 1.486 1.642 2.545 2.17a5.7 5.7 0 0 1-1.252 1.753 7.7 7.7 0 0 0 2.907-1.142c.658.162 1.34.246 2.025.247 1.898 0 3.719-.628 5.061-1.746s2.096-2.635 2.096-4.216c0-1.58-.754-3.097-2.096-4.215s-3.163-1.746-5.06-1.746" clip-rule="evenodd"/></svg>