<svg xmlns="http://www.w3.org/2000/svg" fill="none" viewBox="0 0 24 24"><path fill="#090404" fill-rule="evenodd" d="M18.048 3.664a1 1 0 0 1 .289 1.384l-6.552 10a1 1 0 0 1-1.6.098l-3.448-4.074A1 1 0 0 1 8.263 9.78l2.583 3.051 5.817-8.879a1 1 0 0 1 1.385-.288M4 14a1 1 0 0 1 1 1v3.4a8 8 0 0 0 .011.589h.014c.116.01.278.011.575.011h12.8c.297 0 .459 0 .575-.01l.014-.001v-.014c.01-.116.011-.278.011-.575V15a1 1 0 1 1 2 0v3.432c0 .252 0 .498-.017.706a2 2 0 0 1-.201.77 2 2 0 0 1-.874.874 2 2 0 0 1-.77.201c-.208.017-.454.017-.706.017H5.568c-.252 0-.498 0-.706-.017a2 2 0 0 1-.77-.2 2 2 0 0 1-.874-.875 2 2 0 0 1-.201-.77C3 18.93 3 18.684 3 18.432V15a1 1 0 0 1 1-1" clip-rule="evenodd"/></svg>