<svg xmlns="http://www.w3.org/2000/svg" fill="none" viewBox="0 0 24 24"><path fill="#090404" d="M15.293 15.293a1 1 0 0 1 1.414 0l3 3a1 1 0 0 1 .235.374l.014.04.016.062A1 1 0 0 1 20 19a1 1 0 0 1-.016.165 1 1 0 0 1-.028.127l-.014.04a1 1 0 0 1-.235.375l-3 3a1 1 0 0 1-1.414-1.414L16.586 20H9a1 1 0 1 1 0-2h7.586l-1.293-1.293a1 1 0 0 1 0-1.414"/><path fill="#090404" d="M5.02 4.001q.027 0 .053.002l.053.005q.017.002.035.006a1 1 0 0 1 .546.279l3 3a1 1 0 0 1-1.414 1.414L6 7.414V15a1 1 0 0 1-2 0V7.414L2.707 8.707a1 1 0 1 1-1.414-1.414l3-3a1 1 0 0 1 .45-.259l.049-.013.033-.005A1 1 0 0 1 4.98 4L5 4z"/><path fill="#090404" d="M19 10a1 1 0 0 1 1 1v2a1 1 0 1 1-2 0v-2a1 1 0 0 1 1-1"/><path fill="#090404" d="M18 4a2 2 0 0 1 2 2v1a1 1 0 0 1-2 0V6h-1a1 1 0 0 1 0-2z"/><path fill="#090404" d="M13 4a1 1 0 0 1 0 2h-2a1 1 0 0 1 0-2z"/></svg>