<svg xmlns="http://www.w3.org/2000/svg" fill="none" viewBox="0 0 24 24"><g clip-path="url(#a)"><path fill="#090404" fill-rule="evenodd" d="M1.632 8.107a5.597 5.597 0 0 1 7.849 0L12 10.595l2.52-2.488a5.597 5.597 0 0 1 7.848 0 5.46 5.46 0 0 1 0 7.787 5.597 5.597 0 0 1-7.849 0L12 13.406l-2.52 2.487a5.597 5.597 0 0 1-7.848 0 5.46 5.46 0 0 1 0-7.786M10.577 12 8.075 9.53a3.597 3.597 0 0 0-5.038 0 3.46 3.46 0 0 0 0 4.94 3.597 3.597 0 0 0 5.038 0zm2.846 0 2.502 2.47a3.597 3.597 0 0 0 5.038 0 3.46 3.46 0 0 0 0-4.94 3.597 3.597 0 0 0-5.039 0z" clip-rule="evenodd"/></g><defs><clipPath id="a"><path fill="#fff" d="M0 0h24v24H0z"/></clipPath></defs></svg>