<svg xmlns="http://www.w3.org/2000/svg" fill="none" viewBox="0 0 24 24"><path fill="#090404" fill-rule="evenodd" d="M17.293 2.293a1 1 0 0 1 1.338-.069l.076.069 3 3 .068.076a1 1 0 0 1-1.406 1.406l-.076-.068-.793-.793L17.914 7.5l2.793 2.793.068.076a1 1 0 0 1-1.406 1.406l-.076-.068-.793-.793-7.586 7.586a2 2 0 0 1-2.677.137l-.151-.137-.586-.586-3.793 3.793a1 1 0 0 1-1.414-1.414L6.086 16.5l-.586-.586a2 2 0 0 1 0-2.828L13.086 5.5l-.793-.793-.068-.076a1 1 0 0 1 1.406-1.407l.076.069L16.5 6.086 18.086 4.5l-.793-.793-.069-.076a1 1 0 0 1 .069-1.338" clip-rule="evenodd"/></svg>