<svg xmlns="http://www.w3.org/2000/svg" fill="none" viewBox="0 0 24 24"><path fill="#090404" d="M20 8a2 2 0 1 1-.339 3.969l-2.786 3.342a2 2 0 1 1-3.845.35l-3.342-2.786a2 2 0 0 1-.881.114l-2.989 4.183a2 2 0 1 1-1.626-1.162l2.989-4.184a2 2 0 1 1 3.788-.488l3.342 2.786a2 2 0 0 1 1.026-.094l2.786-3.343A2 2 0 0 1 20 8"/><path fill="#090404" d="M4.5 7a1.5 1.5 0 1 1 0 3 1.5 1.5 0 0 1 0-3"/><path fill="#090404" d="M16.646 6.146a.5.5 0 0 1 0 .707l-1.792 1.793a.5.5 0 0 1-.708 0l-1.792-1.793a.5.5 0 0 1 0-.707l1.792-1.793a.5.5 0 0 1 .708 0z"/></svg>