<svg xmlns="http://www.w3.org/2000/svg" fill="none" viewBox="0 0 24 24"><path fill="#090404" d="M12.168 20.37h-.003l-.004-.002zm5.05-9.618a12 12 0 0 0-.046-1.045q-.007-.077-.015-.15a10 10 0 0 0-.234-1.346q-.023-.088-.048-.174a8 8 0 0 0-.192-.596l-.042-.113a6.506 6.506 0 0 0-.53-1.073q-.05-.082-.1-.16l-.073-.11a6 6 0 0 0-.826-.96 5.7 5.7 0 0 0-.867-.664l-.014-.01a5.5 5.5 0 0 0-1.21-.552 4 4 0 0 0-.208-.058 5 5 0 0 0-.832-.08c-4.268 0-8.33 3.539-8.33 8.353 0 2.47.994 4.438 2.428 5.841l-.027-.062a8 8 0 0 1-.248-.607 9 9 0 0 1-.173-.527l-.036-.132-.032-.112q-.062-.237-.116-.486l-.016-.076q-.014-.069-.027-.139l-.032-.165-.035-.217-.012-.072-.025-.18a13.5 13.5 0 0 1-.116-1.794c0-4.822 3.692-7.658 7.065-6.495q.075.027.142.067c.61.279 3.105 1.64 3.106 5.185l-.01.359c-.072 1.45-.584 2.509-1.176 3.26.36-.146.725-.36 1.074-.652 1.022-.855 1.834-2.31 1.834-4.258m-5.556 6.492.01.005-.035-.015-.014-.006h.001zm-1.537-5.22c0 2.17 1.26 3.177 1.855 3.534.594-.357 1.864-1.368 1.864-3.515 0-2.183-1.275-3.19-1.866-3.54-.203.124-.474.32-.746.599-.542.557-1.107 1.47-1.107 2.922m11.876-.03C22 17.786 17.13 22 12.018 22l-.02-.002-.017.002c-4.313 0-9.808-3.422-9.978-9.686l-.005-.3c0-5.792 4.87-10.005 9.983-10.005h.01c.217-.019.47-.009.747.033 4.25.36 9.263 3.846 9.263 9.952m-10.388 5.228c-.551-.244-3.14-1.588-3.14-5.198 0-1.624.544-2.808 1.19-3.632-1.485.53-2.827 2.142-2.827 4.894 0 .63.044 1.204.122 1.724q.03.201.067.39l.019.101q.04.2.09.389l.016.07q.027.097.056.19.036.13.075.253.03.09.063.177.04.116.083.227.037.089.074.175.041.097.084.19.045.096.094.19.04.081.082.16.048.087.098.169.043.075.087.146.056.087.113.17.04.06.082.12.07.095.139.183l.057.075q.072.087.145.167l.074.084q.07.075.14.146l.073.073q.072.069.143.133l.074.066a5 5 0 0 0 .63.468 5.5 5.5 0 0 0 2.22.81l.16.013.028.002c4.265-.003 8.325-3.54 8.325-8.353 0-2.456-.985-4.416-2.406-5.817l.063.135a9 9 0 0 1 .423 1.15 10 10 0 0 1 .276 1.214l.02.12q.03.191.054.39l.006.058q.02.182.037.37l.009.098a13 13 0 0 1 .04 1.04l-.012.45c-.118 2.215-1.098 3.974-2.415 5.075-1.37 1.145-3.188 1.627-4.735.987v.001l-.018-.008-.013-.005-.007-.003-.01-.005z"/></svg>