<svg xmlns="http://www.w3.org/2000/svg" fill="none" viewBox="0 0 24 24"><path fill="#090404" d="M17.914 3.5a2 2 0 0 0-2.828 0L10 8.586a2 2 0 0 0 0 2.828l1.086 1.086a2 2 0 0 0 2.828 0l1.836-1.836 4.043 4.043a1 1 0 0 0 1.414-1.414L17.164 9.25 19 7.414a2 2 0 0 0 0-2.828z"/><path fill="#090404" d="M5.72 16a2 2 0 0 0-1.897 1.367L3.28 19H3a1 1 0 1 0 0 2h13a1 1 0 1 0 0-2h-.28l-.543-1.633A2 2 0 0 0 13.279 16z"/><path fill="#090404" d="M4 12a1 1 0 1 1 0 2H2a1 1 0 1 1 0-2z"/><path fill="#090404" d="M3.293 7.293a1 1 0 0 1 1.414 0l1.5 1.5a1 1 0 1 1-1.414 1.414l-1.5-1.5a1 1 0 0 1 0-1.414"/></svg>