<svg xmlns="http://www.w3.org/2000/svg" fill="none" viewBox="0 0 24 24"><path fill="#090404" fill-rule="evenodd" d="M12 22c5.523 0 10-4.477 10-10S17.523 2 12 2 2 6.477 2 12s4.477 10 10 10M10.5 7a1.5 1.5 0 0 1 .436.064 1.5 1.5 0 1 0-1.872 1.872A1.5 1.5 0 0 1 10.5 7m-3 3a1.5 1.5 0 0 1 .436.064 1.5 1.5 0 1 0-1.872 1.872A1.5 1.5 0 0 1 7.5 10m2.436 3.064a1.5 1.5 0 0 0-1.872 1.872 1.5 1.5 0 1 1 1.872-1.872M12.5 10a1.5 1.5 0 0 1 .436.064 1.5 1.5 0 1 0-1.872 1.872A1.5 1.5 0 0 1 12.5 10" clip-rule="evenodd"/></svg>