<svg xmlns="http://www.w3.org/2000/svg" fill="none" viewBox="0 0 24 24"><path fill="#090404" fill-rule="evenodd" d="M7 7a1 1 0 0 1 1-1h8a1 1 0 1 1 0 2v2.64q.319.374.711.8l.129.142c.312.342.649.711.974 1.092.732.857 1.488 1.866 1.89 2.99.182.511.296 1.059.296 1.634A4.7 4.7 0 0 1 15.298 22H8.702A4.7 4.7 0 0 1 4 17.298c0-.575.114-1.122.297-1.634.401-1.124 1.158-2.133 1.89-2.99a45 45 0 0 1 1.102-1.233c.26-.286.5-.55.711-.8V8a1 1 0 0 1-1-1m3 1v3a1 1 0 0 1-.22.625 25 25 0 0 1-1.143 1.306c-.315.345-.628.688-.93 1.042q-.3.35-.56.692c.763-.101 1.637-.184 2.38-.165 1.135.03 2 .303 2.746.538l.027.008c.752.237 1.385.432 2.227.454.744.02 1.736-.093 2.581-.222l.16-.025c-.271-.419-.603-.845-.975-1.28-.302-.354-.615-.697-.93-1.042l-.13-.143c-.352-.386-.707-.78-1.014-1.163A1 1 0 0 1 14 11V8z" clip-rule="evenodd"/><path fill="#090404" d="M11 4a1 1 0 1 1-2 0 1 1 0 0 1 2 0"/><path fill="#090404" d="M15 2.5a1.5 1.5 0 1 1-3 0 1.5 1.5 0 0 1 3 0"/></svg>