<svg xmlns="http://www.w3.org/2000/svg" fill="none" viewBox="0 0 24 24"><path fill="#090404" d="M8 11.75a1.5 1.5 0 1 1 0 3 1.5 1.5 0 0 1 0-3"/><path fill="#090404" d="M16 11.75a1.5 1.5 0 1 1 0 3 1.5 1.5 0 0 1 0-3"/><path fill="#090404" fill-rule="evenodd" d="M14.793 1.793a1 1 0 1 1 1.414 1.414l-.472.47a4.98 4.98 0 0 1 1.263 3.27C19.401 8.48 21 11.09 21 14.091c0 3.3-1.504 6.294-4.492 7.726-1.032.495-2.126-.062-2.542-.949l-.042-.089c-.624.113-1.267.175-1.924.175-.658 0-1.301-.062-1.925-.175l-.04.09c-.417.886-1.511 1.443-2.543.948C4.504 20.384 3 17.391 3 14.091c0-3 1.598-5.61 4.001-7.144a4.98 4.98 0 0 1 1.263-3.27l-.471-.47a1 1 0 1 1 1.414-1.414l.676.676c.643-.301 1.36-.47 2.117-.47a5 5 0 0 1 2.116.47zM11 7.567c-3.428.46-6 3.245-6 6.524 0 2.652 1.162 4.815 3.249 5.869L11 14.098zm2 6.53 2.75 5.863c2.088-1.054 3.25-3.216 3.25-5.87 0-3.278-2.572-6.063-6-6.523z" clip-rule="evenodd"/></svg>