<svg xmlns="http://www.w3.org/2000/svg" fill="none" viewBox="0 0 24 24"><path fill="#090404" d="M13 3a1 1 0 1 0-2 0v1h-.763a2 2 0 0 0-.895.211L7.765 5H3a1 1 0 0 0 0 2h1.112l-2.3 6.903c-.294.88.05 1.955 1.018 2.383 1.802.795 3.538.795 5.34 0 .967-.428 1.311-1.503 1.018-2.383L6.89 7h.876a2 2 0 0 0 .894-.211L10.237 6H11v13H7a1 1 0 1 0 0 2h10a1 1 0 1 0 0-2h-4V6h.764l1.577.789a2 2 0 0 0 .895.211h.876l-2.3 6.903c-.294.88.05 1.955 1.018 2.383 1.802.795 3.538.795 5.34 0 .967-.428 1.311-1.503 1.018-2.383L19.89 7H21a1 1 0 1 0 0-2h-4.764l-1.578-.789A2 2 0 0 0 13.765 4H13z"/></svg>