<svg xmlns="http://www.w3.org/2000/svg" fill="none" viewBox="0 0 24 24"><path fill="#090404" d="m20.757 13.88-8.074 2.935a2 2 0 0 1-1.367 0L3.242 13.88c-1.139-.414-1.539-1.604-1.2-2.564L12 14.935l9.957-3.62c.339.96-.061 2.15-1.2 2.565"/><path fill="#090404" d="m20.757 17.88-8.074 2.935a2 2 0 0 1-1.367 0L3.242 17.88c-1.139-.414-1.539-1.604-1.2-2.564L12 18.935l9.957-3.62c.339.96-.061 2.15-1.2 2.565"/><path fill="#090404" d="M12.683 3.184a2 2 0 0 0-1.367 0L3.242 6.12c-1.755.639-1.755 3.121 0 3.76l8.074 2.935a2 2 0 0 0 1.367 0l8.074-2.936c1.755-.638 1.755-3.12 0-3.759z"/></svg>