<svg xmlns="http://www.w3.org/2000/svg" fill="none" viewBox="0 0 24 24"><path fill="#090404" fill-rule="evenodd" d="m9.63 14.275 5.378 2.48a2.75 2.75 0 0 1 1.391 1.417c.642 1.5-.236 3.033-1.614 3.585-1.38.55-2.85.195-3.517-1.364l-2.34-5.475c-.181-.424.275-.841.703-.643m.324-1.605 5.55-2.094c1.845-.696 3.86.62 3.833 2.533l-.001.075c-.04 1.864-2 3.116-3.804 2.457L9.96 13.605a.495.495 0 0 1-.005-.935m-.311-.725 5.456-2.314c1.813-.768 2.273-3.076.853-4.408l-.056-.053c-1.392-1.29-3.694-.835-4.486.864L8.96 11.28c-.194.418.248.85.683.665m-1.405-.915 1.984-5.426a2.62 2.62 0 0 0-.054-1.952c-.644-1.5-2.387-1.983-3.766-1.43-1.377.553-2.156 1.808-1.486 3.366l2.355 5.468c.183.424.81.408.968-.025" clip-rule="evenodd"/></svg>