<svg xmlns="http://www.w3.org/2000/svg" fill="none" viewBox="0 0 24 24"><path fill="#090404" d="M15.1 21.508A10 10 0 0 1 12 22a9.95 9.95 0 0 1-5.1-1.398l8.2-4.734z"/><path fill="#090404" d="M21.784 14.07a10.01 10.01 0 0 1-4.884 6.646v-9.467z"/><path fill="#090404" d="m10.2 16.618-4.884 2.82A9.97 9.97 0 0 1 2 12l.002-.114z"/><path fill="#090404" d="M15.1 10.209v3.581L12 15.578 8.9 13.79v-3.58l3.1-1.79z"/><path fill="#090404" d="m7.1 12.749-4.885-2.82A10.01 10.01 0 0 1 7.1 3.284z"/><path fill="#090404" d="M18.683 4.562A9.97 9.97 0 0 1 22 12l-.003.112L13.8 7.381z"/><path fill="#090404" d="M12 2c1.863 0 3.605.51 5.099 1.397L8.9 8.131V2.49A10 10 0 0 1 12 2"/></svg>