<svg xmlns="http://www.w3.org/2000/svg" fill="none" viewBox="0 0 24 24"><path fill="#090404" d="m11.977 9.565.99 3.258h-1.998l.96-3.258z"/><path fill="#090404" fill-rule="evenodd" d="M19 3a2 2 0 0 1 2 2v14a2 2 0 0 1-2 2H5a2 2 0 0 1-2-2V5a2 2 0 0 1 2-2zm-7.035 4.644c-.838 0-1.36.392-1.67 1.253l-2.086 5.73c-.094.259-.152.522-.152.704 0 .639.416 1.025 1.095 1.025.575 0 .897-.293 1.102-1.007l.287-.903h2.894l.288.938c.187.691.51.972 1.13.972.627 0 1.079-.427 1.079-1.03a1.9 1.9 0 0 0-.141-.698l-2.104-5.73c-.322-.88-.837-1.254-1.722-1.254" clip-rule="evenodd"/></svg>