<svg xmlns="http://www.w3.org/2000/svg" fill="none" viewBox="0 0 24 24"><path fill="#090404" d="m11.977 9.338.99 3.258h-1.998l.96-3.258z"/><path fill="#090404" fill-rule="evenodd" d="M12 2c5.523 0 10 4.477 10 10s-4.477 10-10 10S2 17.523 2 12 6.477 2 12 2m-.035 5.416c-.838 0-1.36.393-1.67 1.254L8.209 14.4c-.094.258-.152.522-.152.704 0 .638.416 1.025 1.095 1.025.575 0 .897-.293 1.102-1.008l.287-.902h2.894l.288.937c.187.692.51.973 1.13.973.627 0 1.079-.428 1.079-1.031a1.9 1.9 0 0 0-.141-.698l-2.104-5.73c-.322-.879-.837-1.254-1.722-1.254" clip-rule="evenodd"/></svg>