<svg xmlns="http://www.w3.org/2000/svg" fill="none" viewBox="0 0 24 24"><path fill="#090404" d="M9 3a1 1 0 1 0-2 0v.072c0 1.354 0 2.742-.318 3.876q-.235.841-.667 1.318c-.278.306-.656.545-1.22.66C3.92 9.105 3 9.85 3 11v4h8v-2h-1a1 1 0 1 1 0-2h1V5.727a3 3 0 0 1-1.098-.583C9.38 4.694 9 4.008 9 3.004z"/><path fill="#090404" d="M13 5.727V11h1a1 1 0 1 1 0 2h-1v2h8v-4c0-1.15-.92-1.895-1.795-2.074-.564-.115-.942-.354-1.22-.66q-.433-.477-.667-1.318C17 5.814 17 4.426 17 3.072V3a1 1 0 1 0-2 0v.004c-.001 1.004-.38 1.69-.902 2.14A3 3 0 0 1 13 5.727"/><path fill="#090404" d="M21 17h-8v4h6a2 2 0 0 0 2-2z"/><path fill="#090404" d="M11 21v-4H3v2a2 2 0 0 0 2 2z"/></svg>