<svg xmlns="http://www.w3.org/2000/svg" fill="none" viewBox="0 0 24 24"><path fill="#090404" d="M12 2a8 8 0 0 0-4 14.93V17h8v-.07l.124-.073A8 8 0 0 0 12 2"/><path fill="#090404" d="M12 23a4 4 0 0 1-4-4h8a4 4 0 0 1-4 4"/><path fill="#090404" d="M2.28 12.111a1 1 0 0 1 .519 1.93l-.951.309a1 1 0 0 1-.618-1.903l.95-.308z"/><path fill="#090404" d="M.588 6.291a1 1 0 0 1 1.161-.669l.099.027.95.31.097.035a1 1 0 0 1-.615 1.893l-.1-.028-.95-.308-.095-.036A1 1 0 0 1 .588 6.29"/><path fill="#090404" d="M22.252 5.622a1 1 0 0 1 .52 1.929l-.952.31-.098.026a1 1 0 0 1-.52-1.929l.951-.309z"/><path fill="#090404" d="M23.413 13.707a1 1 0 0 0-.642-1.26l-.95-.309a1 1 0 0 0-.619 1.902l.951.309a1 1 0 0 0 1.26-.642"/></svg>