<svg xmlns="http://www.w3.org/2000/svg" fill="none" viewBox="0 0 24 24"><path fill="#090404" d="M16 10.004c1.105.01 2 .905 2 2V13.5a3 3 0 0 1-3 3h-4.75a.5.5 0 0 0-.5.5c0 .241-.224.423-.441.32a1.86 1.86 0 0 1-1.059-1.677c0-.631.512-1.143 1.143-1.143H15a1 1 0 0 0 1-1v-2.496a1 1 0 0 0-.309-.723.17.17 0 0 1-.054-.122c0-.086.07-.155.155-.155z"/><path fill="#090404" fill-rule="evenodd" d="M16 3.5a2 2 0 0 1 2 2v2.314A6.5 6.5 0 0 1 16 20.5h-4.5a6.5 6.5 0 0 1-6.001-4H3.5a2 2 0 0 1-2-2v-9a2 2 0 0 1 2-2zm-4.5 6a4.5 4.5 0 1 0 0 9H16a4.5 4.5 0 1 0 0-9zm-8 5h1.521a6.5 6.5 0 0 1 6.479-7H16v-2H3.5z" clip-rule="evenodd"/></svg>