<svg xmlns="http://www.w3.org/2000/svg" fill="none" viewBox="0 0 24 24"><path fill="#090404" fill-rule="evenodd" d="M12.006 2.945a1 1 0 0 1 1.104-.884C18.11 2.614 22 6.85 22 12c0 5.523-4.477 10-10 10S2 17.523 2 12a9.99 9.99 0 0 1 4.444-8.316 1 1 0 1 1 1.112 1.662 8 8 0 1 0 5.334-1.298 1 1 0 0 1-.884-1.103" clip-rule="evenodd"/><path fill="#090404" fill-rule="evenodd" d="M12.017 6.41a1 1 0 0 1 1.164-.803A6.502 6.502 0 0 1 12 18.5a6.5 6.5 0 0 1-6.057-8.864 1 1 0 0 1 1.863.728 4.5 4.5 0 1 0 5.013-2.79 1 1 0 0 1-.802-1.164" clip-rule="evenodd"/><path fill="#090404" fill-rule="evenodd" d="M12.135 9.767a1 1 0 0 1 1.366-.365A3 3 0 0 1 12 15a3 3 0 0 1-2.599-1.5 1 1 0 1 1 1.731-1.001 1 1 0 1 0 1.367-1.366 1 1 0 0 1-.365-1.366" clip-rule="evenodd"/></svg>