<svg xmlns="http://www.w3.org/2000/svg" fill="none" viewBox="0 0 24 24"><path fill="#090404" d="M7.5 9.5a1 1 0 0 1 1 1v.5H12a1 1 0 1 1 0 2h-.637c-.356 2.032-1.078 3.726-2.272 5.057q-.026.027-.054.055c.684.387 1.479.691 2.403.916a1 1 0 0 1-.472 1.944c-1.367-.333-2.544-.829-3.536-1.502-1.05.683-2.288 1.175-3.705 1.504a1 1 0 0 1-.454-1.949c1.008-.233 1.863-.55 2.588-.947-.67-.773-1.202-1.687-1.595-2.754a1 1 0 0 1 1.877-.691c.32.871.754 1.612 1.319 2.235q.07-.073.14-.147c.824-.919 1.4-2.129 1.725-3.721H3a1 1 0 1 1 0-2h3.5v-.5a1 1 0 0 1 1-1"/><path fill="#090404" d="M17.5 3a1 1 0 0 1 1 1v12a1 1 0 1 1-2 0V4a1 1 0 0 1 1-1"/><path fill="#090404" d="M21 8a1 1 0 0 1 1 1v2a1 1 0 1 1-2 0V9a1 1 0 0 1 1-1"/><path fill="#090404" d="M14 6a1 1 0 0 1 1 1v2a1 1 0 1 1-2 0V7a1 1 0 0 1 1-1"/><path fill="#090404" d="M10.5 4a1 1 0 0 1 1 1v2.5a1 1 0 1 1-2 0V5a1 1 0 0 1 1-1"/></svg>