<svg xmlns="http://www.w3.org/2000/svg" fill="none" viewBox="0 0 24 24"><path fill="#090404" d="M9.172 9.171a1 1 0 1 0-1.415-1.414A5.98 5.98 0 0 0 6 12c0 1.656.673 3.158 1.757 4.243a1 1 0 1 0 1.415-1.415A3.98 3.98 0 0 1 8 12c0-1.105.447-2.104 1.172-2.829"/><path fill="#090404" d="M16.243 7.757a1 1 0 1 0-1.415 1.414A3.98 3.98 0 0 1 16 12a3.98 3.98 0 0 1-1.172 2.828 1 1 0 0 0 1.415 1.415A5.98 5.98 0 0 0 18 12a5.98 5.98 0 0 0-1.757-4.243"/><path fill="#090404" d="M9.879 14.122a1 1 0 0 1 0-1.415l.707-.707-.708-.707a1 1 0 1 1 1.415-1.414l.707.707.707-.707a1 1 0 1 1 1.414 1.414l-.707.707.707.707a1 1 0 0 1-1.414 1.414L12 13.414l-.707.707a1 1 0 0 1-1.414 0"/></svg>