<svg xmlns="http://www.w3.org/2000/svg" fill="none" viewBox="0 0 24 24"><path fill="#090404" fill-rule="evenodd" d="M9.172 7.757a1 1 0 0 1 0 1.414A3.98 3.98 0 0 0 8 12c0 1.105.447 2.103 1.172 2.828a1 1 0 1 1-1.415 1.415A5.98 5.98 0 0 1 6 12c0-1.657.673-3.158 1.757-4.243a1 1 0 0 1 1.415 0m5.656 0a1 1 0 0 1 1.415 0A5.98 5.98 0 0 1 18 12a5.98 5.98 0 0 1-1.757 4.243 1 1 0 1 1-1.415-1.415A3.98 3.98 0 0 0 16 12a3.98 3.98 0 0 0-1.172-2.829 1 1 0 0 1 0-1.414M10 12a2 2 0 1 1 4 0 2 2 0 0 1-4 0" clip-rule="evenodd"/></svg>