<svg xmlns="http://www.w3.org/2000/svg" fill="none" viewBox="0 0 24 24"><path fill="#090404" fill-rule="evenodd" d="M6.343 4.93a1 1 0 0 1 0 1.413A7.97 7.97 0 0 0 4 12c0 2.21.894 4.208 2.343 5.657a1 1 0 0 1-1.414 1.414A9.97 9.97 0 0 1 2 12.001a9.97 9.97 0 0 1 2.929-7.072 1 1 0 0 1 1.414 0m11.314 0a1 1 0 0 1 1.414 0A9.97 9.97 0 0 1 22 12a9.97 9.97 0 0 1-2.929 7.071 1 1 0 0 1-1.414-1.414A7.97 7.97 0 0 0 20 12c0-2.21-.894-4.208-2.343-5.657a1 1 0 0 1 0-1.414M9.172 7.757a1 1 0 0 1 0 1.414A3.98 3.98 0 0 0 8 12c0 1.105.447 2.104 1.172 2.829a1 1 0 1 1-1.415 1.414A5.98 5.98 0 0 1 6 12c0-1.656.673-3.158 1.757-4.242a1 1 0 0 1 1.415 0m5.656 0a1 1 0 0 1 1.415 0A5.98 5.98 0 0 1 18 12a5.98 5.98 0 0 1-1.757 4.243 1 1 0 1 1-1.415-1.414A3.98 3.98 0 0 0 16 12a3.98 3.98 0 0 0-1.172-2.828 1 1 0 0 1 0-1.414M10 12a2 2 0 1 1 4 0 2 2 0 0 1-4 0" clip-rule="evenodd"/></svg>