<svg xmlns="http://www.w3.org/2000/svg" fill="none" viewBox="0 0 24 24"><path fill="#090404" d="M7 3a1 1 0 0 1 1 1v2h3a1 1 0 1 1 0 2H8v7a1 1 0 0 1-1 1H5.5a1.5 1.5 0 0 0 0 3H19v-4a1 1 0 1 1 2 0v4a2 2 0 0 1-2 2H5.5A3.5 3.5 0 0 1 2 17.5v-11A3.5 3.5 0 0 1 5.5 3z"/><path fill="#090404" d="M18 4c.24 0 .457.148.544.373l.696 1.813a1 1 0 0 0 .575.574l1.812.696a.583.583 0 0 1 0 1.088l-1.812.696a1 1 0 0 0-.575.574l-.696 1.813a.583.583 0 0 1-1.088 0l-.696-1.813a1 1 0 0 0-.575-.574l-1.812-.696a.583.583 0 0 1 0-1.088l1.813-.696a1 1 0 0 0 .574-.574l.696-1.813A.58.58 0 0 1 18 4"/></svg>