<svg xmlns="http://www.w3.org/2000/svg" fill="none" viewBox="0 0 24 24"><path fill="#090404" fill-rule="evenodd" d="M9.046 3.817c.668-1.32 1.833-2.659 3.588-2.382.68.107 1.295.376 1.774.852.478.476.74 1.078.85 1.714.21 1.222-.11 2.713-.71 4.28-.862 2.246-2.422 4.96-4.518 7.882.217 1.058.521 1.89.879 2.421 2.065 3.066 5.297 1.762 5.717-.256a1.1 1.1 0 0 1 2.154.45c-.872 4.18-6.693 5.493-9.696 1.036a6.8 6.8 0 0 1-.715-1.437 76 76 0 0 1-1.225 1.525 1.1 1.1 0 1 1-1.697-1.4 70 70 0 0 0 2.256-2.882q-.046-.315-.082-.635c-.214-1.885-.195-3.993.037-5.95.23-1.943.682-3.826 1.388-5.218m.632 8.962c1.283-1.982 2.237-3.778 2.815-5.285.558-1.456.705-2.49.596-3.118-.05-.288-.145-.441-.233-.53-.087-.086-.246-.188-.564-.238-.237-.037-.706.064-1.284 1.204-.54 1.067-.95 2.663-1.165 4.481a25 25 0 0 0-.165 3.486" clip-rule="evenodd"/></svg>