<svg xmlns="http://www.w3.org/2000/svg" fill="none" viewBox="0 0 24 24"><path fill="#090404" fill-rule="evenodd" d="M6.748 3.044C7.29 3 7.954 3 8.758 3h6.483c.805 0 1.47 0 2.01.044.563.046 1.08.145 1.565.392a4 4 0 0 1 1.748 1.748c.247.485.346 1.002.392 1.564C21 7.29 21 7.954 21 8.758v6.483c0 .805 0 1.47-.044 2.01-.046.563-.145 1.08-.392 1.565a4 4 0 0 1-1.748 1.748c-.485.247-1.002.346-1.564.392-.541.044-1.206.044-2.01.044H8.758c-.805 0-1.47 0-2.01-.044-.563-.046-1.08-.145-1.565-.392a4 4 0 0 1-1.748-1.748c-.247-.485-.346-1.002-.392-1.564C3 16.71 3 16.046 3 15.242V8.758c0-.805 0-1.47.044-2.01.046-.563.145-1.08.392-1.565a4 4 0 0 1 1.748-1.748c.485-.247 1.002-.346 1.564-.392m6.701 6.933a3 3 0 0 0-.293-.028 1.3 1.3 0 0 0-.426.07 4 4 0 0 0-.359.137.7.7 0 0 1-.281.07.7.7 0 0 1-.281-.066 5 5 0 0 0-.328-.129 1 1 0 0 0-.376-.066q-.375 0-.726.207a1.55 1.55 0 0 0-.57.605q-.223.398-.223.989 0 .55.184 1.093.187.54.449.914.226.316.441.543a.67.67 0 0 0 .5.227q.188 0 .324-.062.141-.063.293-.126.157-.062.387-.062.238 0 .379.063.141.059.273.12a.85.85 0 0 0 .34.06.7.7 0 0 0 .528-.235q.222-.234.414-.512.218-.32.312-.582.098-.261.102-.277l-.133-.07a1.7 1.7 0 0 1-.281-.208 1.4 1.4 0 0 1-.278-.379 1.3 1.3 0 0 1-.117-.57 1.23 1.23 0 0 1 .313-.855q.125-.14.226-.211a2 2 0 0 0 .113-.086 1.24 1.24 0 0 0-.453-.418 1.4 1.4 0 0 0-.453-.156m-.89-.215a1.3 1.3 0 0 0 .382-.309 1.5 1.5 0 0 0 .23-.39q.09-.223.09-.458a.6.6 0 0 0-.011-.12q-.227.007-.477.136a1.3 1.3 0 0 0-.414.324 1.5 1.5 0 0 0-.23.367 1.07 1.07 0 0 0-.098.52q.004.03.008.043a.4.4 0 0 0 .082.008q.207 0 .438-.121" clip-rule="evenodd"/></svg>