<svg xmlns="http://www.w3.org/2000/svg" fill="none" viewBox="0 0 24 24"><path fill="#090404" d="M21.5 7c.828 0 1.515.68 1.337 1.488-.84 3.817-4.786 6.795-8.496 7.398a5 5 0 0 1 2.005 2.878C16.687 20.106 15.512 21 14.5 21h-7c-1.012 0-2.187-.894-1.846-2.236l.056-.201A5 5 0 0 1 7.5 16h-.009A3.49 3.49 0 0 1 4 12.509V11a1 1 0 1 0-2 0c0 .245.047.415.118.56a1 1 0 0 1-1.797.88C.112 12.01 0 11.54 0 11a3 3 0 0 1 5.628-1.444 3.48 3.48 0 0 1 1.88-.54L15 9.054c2.917-.039 3.973-.581 4.524-1.26.359-.44.835-.793 1.403-.793z"/><path fill="#090404" d="M11 3a1 1 0 0 1 1 1v.104c2.225.433 3.5 2.164 3.5 3.896h-9c0-1.781 1.19-3.562 3.5-3.93V4a1 1 0 0 1 1-1"/></svg>