<svg xmlns="http://www.w3.org/2000/svg" fill="none" viewBox="0 0 24 24"><path fill="#090404" d="M9.437 2.457a.5.5 0 0 0 .223-.224l.479-.957a.5.5 0 0 1 .894 0l.478.957a.5.5 0 0 0 .224.224l.956.478a.5.5 0 0 1 0 .894l-.956.478a.5.5 0 0 0-.224.224l-.478.957a.5.5 0 0 1-.894 0L9.66 4.53a.5.5 0 0 0-.223-.224L8.48 3.83a.5.5 0 0 1 0-.894z"/><path fill="#090404" d="M18.437 13.457a.5.5 0 0 0 .223-.224l.479-.957a.5.5 0 0 1 .894 0l.478.957a.5.5 0 0 0 .224.223l.956.479a.5.5 0 0 1 0 .894l-.956.478a.5.5 0 0 0-.224.224l-.478.957a.5.5 0 0 1-.894 0l-.479-.957a.5.5 0 0 0-.223-.224l-.957-.478a.5.5 0 0 1 0-.894z"/><path fill="#090404" d="M4.437 7.457a.5.5 0 0 0 .223-.224l.479-.957a.5.5 0 0 1 .894 0l.478.957a.5.5 0 0 0 .224.224l.956.478a.5.5 0 0 1 0 .894l-.956.478a.5.5 0 0 0-.224.224l-.478.957a.5.5 0 0 1-.894 0L4.66 9.53a.5.5 0 0 0-.223-.224L3.48 8.83a.5.5 0 0 1 0-.894z"/><path fill="#090404" fill-rule="evenodd" d="M16.672 3.382a2 2 0 0 1 2.828 0l1.086 1.086a2 2 0 0 1 0 2.828L6.5 21.382a2 2 0 0 1-2.828 0l-1.086-1.086a2 2 0 0 1 0-2.828zm-.922 3.75 1.086 1.086 2.336-2.336-1.086-1.086z" clip-rule="evenodd"/></svg>