<svg xmlns="http://www.w3.org/2000/svg" fill="none" viewBox="0 0 24 24"><path fill="#090404" d="M12 5a7 7 0 0 0-6.254 3.852 1 1 0 0 1-1.785-.901A9 9 0 0 1 12 3a9 9 0 0 1 8.039 4.95 1 1 0 1 1-1.786.902A7 7 0 0 0 12 5"/><path fill="#090404" d="M12 8c-1.459 0-2.736.78-3.436 1.951a1 1 0 1 1-1.717-1.026A6 6 0 0 1 12 6a6 6 0 0 1 5.154 2.925 1 1 0 1 1-1.717 1.026A4 4 0 0 0 12 8"/><path fill="#090404" d="M3.757 11.528a3.25 3.25 0 0 0-1.943 4.166l.599 1.644a4 4 0 0 0 7.517-2.736l-.085-.235a1.75 1.75 0 0 0-2.01-1.113 3.25 3.25 0 0 0-4.078-1.726"/><path fill="#090404" d="M20.244 11.528a3.25 3.25 0 0 1 1.943 4.166l-.599 1.644a4 4 0 1 1-7.517-2.736l.085-.235a1.75 1.75 0 0 1 2.01-1.113 3.25 3.25 0 0 1 4.078-1.726"/></svg>