<svg xmlns="http://www.w3.org/2000/svg" fill="none" viewBox="0 0 24 24"><path fill="#090404" fill-rule="evenodd" d="M12 1.5c1.239 0 2.667.011 3.786.578 1.674.849 1.982 2.351 2.11 3.939.29 3.603.17 7.212.081 10.82-.1 4.08-.977 5.653-5.869 5.652h-.216c-4.892-.023-5.768-1.571-5.87-5.652-.09-3.608-.207-7.217.082-10.82.128-1.588.437-3.09 2.11-3.939C9.335 1.511 10.762 1.5 12 1.5m.668 13.846c-.263 0-.479.16-.617.16-.145 0-.338-.15-.57-.15-.435 0-.878.36-.878 1.04.008.414.135.817.366 1.16.174.244.326.444.544.444.217 0 .313-.142.58-.143.275 0 .337.138.575.138s.394-.215.544-.43q.157-.23.241-.498a.77.77 0 0 1-.47-.707.8.8 0 0 1 .38-.667.83.83 0 0 0-.695-.347m.055-.846a.785.785 0 0 0-.708.74q0 .03.006.063a.3.3 0 0 0 .048.005.68.68 0 0 0 .474-.25.78.78 0 0 0 .186-.488.3.3 0 0 0-.006-.07" clip-rule="evenodd"/></svg>