<svg xmlns="http://www.w3.org/2000/svg" fill="none" viewBox="0 0 24 24"><path fill="#090404" d="M4.755 5.158a.285.285 0 0 0-.51 0l-.653 1.306a.3.3 0 0 1-.128.128l-1.306.653a.285.285 0 0 0 0 .51l1.306.653q.084.044.128.128l.653 1.306c.105.21.405.21.51 0l.653-1.306a.3.3 0 0 1 .128-.128l1.306-.653a.285.285 0 0 0 0-.51l-1.306-.653a.3.3 0 0 1-.128-.128z"/><path fill="#090404" d="M9.264 2.163a.296.296 0 0 0-.528 0l-.48.96a.3.3 0 0 1-.133.133l-.96.48a.296.296 0 0 0 0 .528l.96.48a.3.3 0 0 1 .133.133l.48.96c.108.217.42.217.528 0l.48-.96a.3.3 0 0 1 .133-.133l.96-.48a.296.296 0 0 0 0-.528l-.96-.48a.3.3 0 0 1-.133-.133z"/><path fill="#090404" d="M18.755 15.158a.285.285 0 0 0-.51 0l-.653 1.306a.3.3 0 0 1-.128.128l-1.306.653a.285.285 0 0 0 0 .51l1.306.653q.084.044.128.128l.653 1.306c.105.21.405.21.51 0l.653-1.306a.3.3 0 0 1 .128-.128l1.306-.653a.285.285 0 0 0 0-.51l-1.306-.653a.3.3 0 0 1-.128-.128z"/><path fill="#090404" d="M17.914 3.5a2 2 0 0 0-2.828 0L3.586 15A2 2 0 0 0 3 16.414V20a1 1 0 0 0 1 1h3.586A2 2 0 0 0 9 20.414l11.5-11.5a2 2 0 0 0 0-2.828z"/></svg>