<svg xmlns="http://www.w3.org/2000/svg" fill="none" viewBox="0 0 24 24"><path fill="#090404" fill-rule="evenodd" d="M12 9c.998 0 1.947.268 2.676.754C15.398 10.235 16 11.009 16 12v10a1 1 0 0 1-1 1H9a1 1 0 0 1-1-1V12c0-.99.603-1.765 1.324-2.246C10.053 9.268 11.002 9 12 9m2 5.608c-.6.255-1.287.392-2 .392s-1.4-.137-2-.392V18c0 .114.07.34.434.582.357.238.908.418 1.566.418.659 0 1.21-.18 1.566-.418.364-.243.434-.468.434-.582zM12 11c-.659 0-1.21.18-1.566.418-.364.243-.434.468-.434.582s.07.34.434.582c.357.238.908.418 1.566.418.659 0 1.21-.18 1.566-.418.364-.243.434-.468.434-.582s-.07-.34-.434-.582C13.21 11.18 12.658 11 12 11" clip-rule="evenodd"/><path fill="#090404" d="M5 5c.18 0 .342.112.407.28l.524 1.359a.75.75 0 0 0 .43.43l1.359.524a.436.436 0 0 1 0 .814l-1.359.524a.75.75 0 0 0-.43.43l-.524 1.359a.436.436 0 0 1-.814 0L4.069 9.36a.75.75 0 0 0-.43-.43L2.28 8.407a.436.436 0 0 1 0-.814l1.359-.524a.75.75 0 0 0 .43-.43l.524-1.359A.44.44 0 0 1 5 5"/><path fill="#090404" d="M19 5c.18 0 .342.112.407.28l.524 1.359a.75.75 0 0 0 .43.43l1.359.524a.436.436 0 0 1 0 .814l-1.359.524a.75.75 0 0 0-.43.43l-.524 1.359a.436.436 0 0 1-.814 0l-.524-1.359a.75.75 0 0 0-.43-.43l-1.359-.524a.436.436 0 0 1 0-.814l1.359-.524a.75.75 0 0 0 .43-.43l.524-1.359A.44.44 0 0 1 19 5"/><path fill="#090404" d="M12 1c.18 0 .342.112.407.28l.524 1.359a.75.75 0 0 0 .43.43l1.359.524a.436.436 0 0 1 0 .814l-1.359.524a.75.75 0 0 0-.43.43l-.524 1.359a.436.436 0 0 1-.814 0l-.524-1.359a.75.75 0 0 0-.43-.43L9.28 4.407a.436.436 0 0 1 0-.814l1.359-.524a.75.75 0 0 0 .43-.43l.524-1.359A.44.44 0 0 1 12 1"/></svg>