<svg xmlns="http://www.w3.org/2000/svg" fill="none" viewBox="0 0 24 24"><path fill="#090404" fill-rule="evenodd" d="M21.997 4A1.997 1.997 0 0 0 20 2.002h-2A1.997 1.997 0 0 0 16.002 4v2c0 1.103.895 1.997 1.998 1.997h2A1.997 1.997 0 0 0 21.997 6zm-1.996-.003v.001l.001.001v2.003h-2.004V3.998h2.003" clip-rule="evenodd"/><path fill="#090404" fill-rule="evenodd" d="M9.295 4.81c.78-.78 2.044-.78 2.825 0l1.06 1.06c.78.78.78 2.045 0 2.825l-4.242 4.243a1.504 1.504 0 0 0 2.125 2.125l4.242-4.243c.78-.78 2.045-.78 2.825 0l1.06 1.06c.78.78.78 2.045 0 2.825l-4.242 4.243A6.987 6.987 0 0 1 10 20.998a7 7 0 0 1-6.197-10.252c.32-.61.737-1.182 1.249-1.694l1.414-1.414.01-.01zm2.475 2.474L10.354 8.7 9.289 7.636l1.416-1.416h.003l1.062 1.06v.004m6.01 6.01-1.416 1.417-1.064-1.065 1.416-1.416h.002l1.062 1.061v.004" clip-rule="evenodd"/></svg>