<svg xmlns="http://www.w3.org/2000/svg" fill="none" viewBox="0 0 24 24"><path fill="#090404" fill-rule="evenodd" d="M16.226 8.379a1 1 0 0 1 1.083-.91l2.757.242a3.214 3.214 0 1 1-.56 6.403l-1.761-.154-.106 1.21a1 1 0 1 1-1.992-.174l.076-.873a4.322 4.322 0 0 1-8.015-1.377 3.2 3.2 0 0 1-2.04 1.272l-1.74.307.21 1.196a1 1 0 0 1-1.97.347L1.016 9.327a1 1 0 0 1 .811-1.159l2.726-.48A3.215 3.215 0 0 1 8.18 9.9a4.323 4.323 0 0 1 7.856.643zM3.58 12.356l1.74-.307a1.214 1.214 0 1 0-.42-2.392l-1.742.307zm14.34-.388 1.76.154a1.214 1.214 0 0 0 .212-2.419L18.13 9.55zM11.962 9.67a2.321 2.321 0 1 0 0 4.643 2.321 2.321 0 0 0 0-4.643" clip-rule="evenodd"/><path fill="#090404" d="M7.514 17.774a.4.4 0 0 1 .717-.062l.56.943a.4.4 0 0 0 .32.195l1.091.064a.4.4 0 0 1 .283.657l-.725.86a.4.4 0 0 0-.082.358l.281 1.092a.4.4 0 0 1-.545.467l-.994-.426a.4.4 0 0 0-.377.034l-.905.594a.4.4 0 0 1-.619-.366l.091-1.12a.4.4 0 0 0-.142-.34l-.86-.718a.4.4 0 0 1 .163-.695l1.07-.258a.4.4 0 0 0 .28-.247z"/><path fill="#090404" d="M14.767.712a.4.4 0 0 1 .717.062l.393 1.032a.4.4 0 0 0 .28.247l1.07.258a.4.4 0 0 1 .162.696l-.86.718a.4.4 0 0 0-.141.34l.09 1.119a.4.4 0 0 1-.618.366l-.905-.594a.4.4 0 0 0-.377-.034l-.994.426a.4.4 0 0 1-.545-.467l.28-1.092a.4.4 0 0 0-.08-.357l-.726-.861a.4.4 0 0 1 .283-.657l1.09-.064a.4.4 0 0 0 .32-.195z"/><path fill="#090404" d="M9.999 4.5a1.5 1.5 0 1 1-3 0 1.5 1.5 0 0 1 3 0"/><path fill="#090404" d="M16.999 19.5a1.5 1.5 0 1 1-3 0 1.5 1.5 0 0 1 3 0"/></svg>