<svg xmlns="http://www.w3.org/2000/svg" fill="none" viewBox="0 0 24 24"><path fill="#090404" fill-rule="evenodd" d="M15.968 17.244c2.506-.3 4.688-1.843 4.962-3.254.433-2.223.397-5.424.397-5.424 0-4.338-2.843-5.61-2.843-5.61-1.433-.658-3.894-.935-6.451-.956h-.063c-2.557.02-5.016.298-6.45.956 0 0-2.842 1.272-2.842 5.61l-.003.828c-.004.8-.008 1.687.015 2.613.103 4.243.778 8.425 4.7 9.463 1.81.48 3.362.58 4.613.51 2.268-.125 3.541-.809 3.541-.809l-.074-1.646s-1.621.512-3.442.45c-1.803-.063-3.707-.195-3.999-2.41a5 5 0 0 1-.04-.62s1.77.432 4.014.535c1.372.063 2.659-.08 3.965-.236m2.006-3.088V8.903q0-1.611-.822-2.558c-.567-.631-1.308-.955-2.229-.955-1.065 0-1.871.41-2.405 1.228l-.518.87-.519-.87c-.533-.819-1.34-1.228-2.404-1.228-.921 0-1.663.324-2.229.955q-.823.947-.822 2.558v5.253h2.081V9.057c0-1.075.452-1.62 1.357-1.62 1 0 1.501.647 1.501 1.927v2.79h2.07v-2.79c0-1.28.5-1.927 1.5-1.927.905 0 1.358.545 1.358 1.62v5.1z" clip-rule="evenodd"/></svg>