<svg xmlns="http://www.w3.org/2000/svg" fill="none" viewBox="0 0 24 24"><path fill="#090404" d="M13 4a1 1 0 1 0-2 0v7H4a1 1 0 1 0 0 2h6.265c-.709 1.189-1.421 2.264-2.24 3.123C6.912 17.293 5.658 18 4 18a1 1 0 1 0 0 2c2.343 0 4.09-1.044 5.474-2.498A15 15 0 0 0 11 15.578V20a1 1 0 1 0 2 0v-7h7a1 1 0 1 0 0-2h-6.264c.708-1.189 1.42-2.264 2.238-3.123C17.09 6.707 18.343 6 20 6a1 1 0 1 0 0-2c-2.343 0-4.09 1.044-5.474 2.498A15 15 0 0 0 13 8.422z"/><path fill="#090404" d="M4.793 4.793a1 1 0 0 1 1.414 0L7 5.586l.793-.793a1 1 0 0 1 1.414 1.414L8 7.414V9a1 1 0 0 1-2 0V7.414L4.793 6.207a1 1 0 0 1 0-1.414"/><path fill="#090404" d="M16.457 15.043a1 1 0 0 0-1.414 1.414l.793.793-.793.793a1 1 0 0 0 1.414 1.414l.793-.793.793.793a1 1 0 0 0 1.414-1.414l-.793-.793.793-.793a1 1 0 0 0-1.414-1.414l-.793.793z"/></svg>