<svg xmlns="http://www.w3.org/2000/svg" fill="none" viewBox="0 0 24 24"><path fill="#090404" fill-rule="evenodd" d="M7 3a1 1 0 0 1 1 1v2h2a1 1 0 1 1 0 2H8v2a1 1 0 1 1-2 0V8H4a1 1 0 0 1 0-2h2V4a1 1 0 0 1 1-1" clip-rule="evenodd"/><path fill="#090404" fill-rule="evenodd" d="M3.793 13.793a1 1 0 0 1 1.414 0L7 15.586l1.793-1.793a1 1 0 0 1 1.414 1.414L8.414 17l1.793 1.793a1 1 0 0 1-1.414 1.414L7 18.414l-1.793 1.793a1 1 0 0 1-1.414-1.414L5.586 17l-1.793-1.793a1 1 0 0 1 0-1.414" clip-rule="evenodd"/><path fill="#090404" fill-rule="evenodd" d="M13 7a1 1 0 0 1 1-1h6a1 1 0 1 1 0 2h-6a1 1 0 0 1-1-1" clip-rule="evenodd"/><path fill="#090404" fill-rule="evenodd" d="M13 17a1 1 0 0 1 1-1h6a1 1 0 1 1 0 2h-6a1 1 0 0 1-1-1" clip-rule="evenodd"/><path fill="#090404" fill-rule="evenodd" d="M15.9 14a1.1 1.1 0 1 1 2.2 0 1.1 1.1 0 0 1-2.2 0" clip-rule="evenodd"/><path fill="#090404" fill-rule="evenodd" d="M15.9 20a1.1 1.1 0 1 1 2.2 0 1.1 1.1 0 0 1-2.2 0" clip-rule="evenodd"/></svg>