<svg xmlns="http://www.w3.org/2000/svg" fill="none" viewBox="0 0 24 24"><path fill="#090404" fill-rule="evenodd" d="M7 7a1.36 1.36 0 0 0-1.342 1.137L5.43 9.5H6.5a1 1 0 0 1 0 2H5.097l-.782 4.692A3.36 3.36 0 0 1 1 19a1 1 0 1 1 0-2 1.36 1.36 0 0 0 1.342-1.137L3.07 11.5H2.5a1 1 0 1 1 0-2h.903l.282-1.692A3.36 3.36 0 0 1 7 5a1 1 0 0 1 0 2m4.36-.933a1 1 0 0 1 .573 1.294c-1.244 3.217-1.244 6.062 0 9.278a1 1 0 1 1-1.866.722c-1.423-3.681-1.423-7.04 0-10.722a1 1 0 0 1 1.294-.572m10.28 0a1 1 0 0 1 1.293.572c1.423 3.681 1.423 7.04 0 10.722a1 1 0 1 1-1.866-.722c1.244-3.216 1.244-6.061 0-9.278a1 1 0 0 1 .572-1.294M13.874 8.72a1 1 0 0 1 1.406.156L16.5 10.4l1.22-1.524a1 1 0 0 1 1.56 1.25L17.78 12l1.5 1.875a1 1 0 1 1-1.56 1.25L16.5 13.6l-1.22 1.524a1 1 0 1 1-1.56-1.25L15.22 12l-1.5-1.875a1 1 0 0 1 .155-1.406" clip-rule="evenodd"/></svg>