<svg xmlns="http://www.w3.org/2000/svg" fill="none" viewBox="0 0 24 24"><path fill="#090404" d="M17.479 3.631a5.57 5.57 0 0 0-7.876 0L7.32 5.913l2.973 2.974a8.42 8.42 0 0 1 5.237-1.815c1.276 0 2.486.282 3.571.788a5.55 5.55 0 0 0-1.623-4.229"/><path fill="#090404" d="M8.887 10.295 5.913 7.32 3.631 9.603a5.57 5.57 0 0 0 4.23 9.5 8.4 8.4 0 0 1-.79-3.572c0-1.977.68-3.796 1.816-5.237"/><path fill="#090404" d="M13.301 9.457a6.469 6.469 0 0 0 2.508 12.537z"/><path fill="#090404" d="M17.76 21.605a6.471 6.471 0 0 0-2.507-12.537z"/></svg>