<svg xmlns="http://www.w3.org/2000/svg" fill="none" viewBox="0 0 24 24"><path fill="#090404" d="M20.124 11.944q.466-.313.835-.678C21.564 10.663 22 9.896 22 9c0-.897-.436-1.663-1.041-2.266-.601-.598-1.42-1.091-2.353-1.484C16.736 4.463 14.223 4 11.5 4c-2.104 0-4.082.276-5.735.765z"/><path fill="#090404" d="M3.321 5.779a6.2 6.2 0 0 0-1.28.955C1.436 7.337 1 8.104 1 9c0 .897.436 1.663 1.041 2.266.601.598 1.42 1.091 2.353 1.484C6.264 13.537 8.776 14 11.5 14c2.37 0 4.58-.35 6.345-.96z"/><path fill="#090404" d="M1 13.026c.774.667 1.692 1.177 2.618 1.567C5.788 15.507 8.576 16 11.5 16s5.712-.493 7.882-1.407c.926-.39 1.844-.9 2.618-1.568V15c0 .897-.436 1.663-1.041 2.266-.601.598-1.42 1.092-2.353 1.484-1.87.787-4.383 1.25-7.106 1.25-2.724 0-5.236-.463-7.106-1.25-.932-.392-1.752-.886-2.353-1.484C1.436 16.663 1 15.896 1 15z"/></svg>