<svg xmlns="http://www.w3.org/2000/svg" fill="none" viewBox="0 0 24 24"><path fill="#090404" d="M8.248 15.426c1.577 0 2.61 2.202 2.61 3.86 0 1.414-.734 2.964-2.04 2.964-1.522 0-2.61-2.12-2.61-3.888 0-1.44.735-2.936 2.04-2.936"/><path fill="#090404" d="M13.876 16.296c1.957 0 4.268 1.713 4.268 3.453 0 1.142-1.006 1.767-2.175 1.767-1.93 0-4.214-1.686-4.214-3.48 0-1.17.979-1.74 2.12-1.74"/><path fill="#090404" d="M5.692 10.83c1.115 0 1.767.735 1.767 1.822 0 1.958-2.066 4.106-3.942 4.106-1.087 0-1.794-.734-1.794-1.849 0-1.903 2.066-4.078 3.97-4.078"/><path fill="#090404" d="M19.966 11.429c1.387 0 2.311.734 2.311 1.849 0 1.794-2.447 3.154-4.296 3.154-1.414 0-2.31-.816-2.31-1.876 0-1.74 2.392-3.127 4.295-3.127"/><path fill="#090404" d="M18.117 4.306c1.25 0 1.903 1.305 1.903 2.61 0 1.74-1.169 4.105-2.882 4.105-1.25 0-1.93-1.25-1.93-2.583 0-1.794 1.223-4.132 2.91-4.132"/><path fill="#090404" d="M5.882 5.284c1.795 0 3.644.98 3.644 2.42 0 1.36-1.632 2.148-3.236 2.148-1.794 0-3.643-.979-3.643-2.392 0-1.305 1.55-2.176 3.235-2.176"/><path fill="#090404" d="M10.912 1.75c1.876 0 3.67 2.338 3.67 4.269 0 1.114-.597 1.93-1.712 1.93-1.876 0-3.698-2.338-3.698-4.241 0-1.088.598-1.958 1.74-1.958"/></svg>