<svg xmlns="http://www.w3.org/2000/svg" fill="none" viewBox="0 0 24 24"><path fill="#090404" d="m17.24 5.185-.696-1.812a.582.582 0 0 0-1.088 0l-.697 1.812a1 1 0 0 1-.574.575l-1.812.696a.582.582 0 0 0 0 1.088l1.812.696a1 1 0 0 1 .574.575l.697 1.812a.582.582 0 0 0 1.088 0l.696-1.812a1 1 0 0 1 .575-.575l1.812-.696a.582.582 0 0 0 0-1.088l-1.812-.696a1 1 0 0 1-.575-.575"/><path fill="#090404" d="M18.148 14.456a1 1 0 0 1 1.677 1.088c-1.123 1.731-3.271 4.032-6.825 4.402V21a1 1 0 0 1-2 0v-1.054c-3.553-.37-5.7-2.67-6.824-4.402a1 1 0 0 1 1.678-1.088C6.894 16.058 8.8 18 12 18c3.2 0 5.108-1.942 6.148-3.544"/><path fill="#090404" d="M12 2c.616 0 1.205.112 1.75.315a3 3 0 0 0-.082.158l-.078.182-.538 1.397-1.397.538a2.582 2.582 0 0 0 0 4.82l1.397.537.538 1.398a2.58 2.58 0 0 0 3.025 1.579A5 5 0 0 1 7 11V7a5 5 0 0 1 5-5"/><path fill="#090404" d="m12.373 6.456.49-.19L13.9 5.87z"/></svg>