<svg xmlns="http://www.w3.org/2000/svg" fill="none" viewBox="0 0 24 24"><path fill="#090404" d="M3.851 19.03C3.294 18.19 3 17.178 3 16c.45-3.15 2.52-5.49 4.753-7.75h8.6C18.44 10.466 20.545 12.82 21 16c0 1.178-.294 2.19-.851 3.03-.553.834-1.326 1.439-2.195 1.872C16.247 21.756 14.06 22 12 22s-4.247-.245-5.954-1.098c-.869-.433-1.642-1.038-2.195-1.872"/><path fill="#090404" d="M16.046 4.743c.335-.895-.003-1.93-.905-2.246C14.178 2.16 13.129 2 12 2s-2.178.16-3.14.497c-.903.316-1.241 1.35-.905 2.246l.747 1.994-.035.013h6.666l-.035-.013z"/></svg>