<svg xmlns="http://www.w3.org/2000/svg" fill="none" viewBox="0 0 24 24"><path fill="#090404" d="M14.563 13.58c.037-.32-.134-.648-.455-.678l-.018-.001-4.893-.388a4.2 4.2 0 0 0-1.597.182l-3.902 1.237a1 1 0 0 0-.698.953v5.135a1 1 0 0 0 1 1h.838l.013.004a27.392 27.392 0 0 0 2.02.532c1.22.27 2.854.54 4.228.41 1.47-.14 3.289-.83 4.859-1.542a49 49 0 0 0 3.894-2.005A2.24 2.24 0 0 0 21 16.472c0-1.546-1.443-1.916-3-1.472l-2.5.75c-1 1.25-1.55 1.566-3.125 1.903l-1.258.269a.715.715 0 0 1-.3-1.398l1.229-.263c1.356-.29 2.367-1.367 2.517-2.681"/><path fill="#090404" d="M18 7.5a3.5 3.5 0 1 1-7 0 3.5 3.5 0 0 1 7 0"/><path fill="#090404" d="M9.204 8.988A5.497 5.497 0 0 1 11.69 2.77a3.5 3.5 0 1 0-2.487 6.217"/></svg>