<svg xmlns="http://www.w3.org/2000/svg" fill="none" viewBox="0 0 24 24"><path fill="#090404" d="M5.1 18.9a1.1 1.1 0 1 1 0 2.201 1.1 1.1 0 0 1 0-2.2"/><path fill="#090404" d="M15 19a1 1 0 1 1 0 2H8.5a1 1 0 1 1 0-2z"/><path fill="#090404" d="M5.1 14.9a1.1 1.1 0 1 1 0 2.201 1.1 1.1 0 0 1 0-2.2"/><path fill="#090404" d="M18 15a1 1 0 1 1 0 2H8.5a1 1 0 1 1 0-2z"/><path fill="#090404" fill-rule="evenodd" d="M12 6.5a5.5 5.5 0 0 1 5.408 4.5H22a1 1 0 1 1 0 2H2a1 1 0 1 1 0-2h4.592A5.5 5.5 0 0 1 12 6.5" clip-rule="evenodd"/><path fill="#090404" d="M4.222 4.222a1 1 0 0 1 1.414 0L7.05 5.636A1 1 0 1 1 5.636 7.05L4.222 5.636a1 1 0 0 1 0-1.414"/><path fill="#090404" d="M18.364 4.222a1 1 0 0 1 1.414 1.414L18.364 7.05a1 1 0 0 1-1.414-1.414z"/><path fill="#090404" d="M12 1a1 1 0 0 1 1 1v2a1 1 0 1 1-2 0V2a1 1 0 0 1 1-1"/></svg>