<svg xmlns="http://www.w3.org/2000/svg" fill="none" viewBox="0 0 24 24"><path fill="#090404" d="M15.178 4.022c1.265-.13 2.425.343 3.39.995.966.653 1.82 1.541 2.519 2.4a22 22 0 0 1 1.672 2.389c.198.327.355.601.462.796.347.63.294.985.03 1.533a16.657 16.657 0 0 1-2.5 3.719C18.932 17.886 16.057 20 11.999 20c-4.057 0-6.932-2.114-8.75-4.146a16.7 16.7 0 0 1-2.501-3.72c-.254-.526-.32-.867-.009-1.484.093-.184.229-.445.403-.756.346-.622.85-1.457 1.478-2.297.624-.836 1.396-1.71 2.283-2.383.884-.67 1.955-1.197 3.159-1.197 1.016 0 2.154.384 2.954.71.38.154.713.307.964.43.198-.105.447-.23.726-.36.665-.307 1.612-.686 2.472-.775m-3.179 6.228c-2.427 0-5.58.537-8.184 1.094q-.42.09-.816.179.45.178.934.36c2.58.964 5.667 1.867 8.066 1.867s5.486-.903 8.066-1.867q.485-.181.934-.36a79 79 0 0 0-.815-.18c-2.604-.556-5.758-1.093-8.185-1.093"/></svg>