<svg xmlns="http://www.w3.org/2000/svg" fill="none" viewBox="0 0 24 24"><path fill="#090404" fill-rule="evenodd" d="M3.793 14.793a1 1 0 0 1 1.414 0l.5.5a1 1 0 1 1-1.414 1.414l-.5-.5a1 1 0 0 1 0-1.414" clip-rule="evenodd"/><path fill="#090404" fill-rule="evenodd" d="M5.793 18.793a1 1 0 0 1 1.414 0l.5.5a1 1 0 1 1-1.414 1.414l-.5-.5a1 1 0 0 1 0-1.414" clip-rule="evenodd"/><path fill="#090404" fill-rule="evenodd" d="M18.207 18.793a1 1 0 0 0-1.414 0l-.5.5a1 1 0 0 0 1.414 1.414l.5-.5a1 1 0 0 0 0-1.414" clip-rule="evenodd"/><path fill="#090404" fill-rule="evenodd" d="M20.207 14.793a1 1 0 0 0-1.414 0l-.5.5a1 1 0 0 0 1.414 1.414l.5-.5a1 1 0 0 0 0-1.414" clip-rule="evenodd"/><path fill="#090404" d="M6.99 2a1 1 0 0 0 0 2H8a2 2 0 0 1 2 2v12.684a2 2 0 0 0 .297 1.048l1.277 2.076a.5.5 0 0 0 .852 0l1.277-2.076A2 2 0 0 0 14 18.684V6a2 2 0 0 1 2-2h1.01a1 1 0 1 0 0-2z"/></svg>