<svg xmlns="http://www.w3.org/2000/svg" fill="none" viewBox="0 0 24 24"><path fill="#090404" fill-rule="evenodd" d="M12.605 2.053a1 1 0 0 1 1.414.045c2.47 2.634 3.98 6.1 3.98 9.902s-1.51 7.267-3.98 9.902a1 1 0 1 1-1.459-1.369C14.71 18.243 16 15.258 16 12s-1.29-6.243-3.44-8.534a1 1 0 0 1 .045-1.413m-2.822 2.11a1 1 0 0 1 1.41.123A11.96 11.96 0 0 1 13.998 12c0 2.936-1.055 5.628-2.807 7.713a1 1 0 0 1-1.531-1.286A9.96 9.96 0 0 0 11.999 12a9.96 9.96 0 0 0-2.338-6.427 1 1 0 0 1 .122-1.41M6.553 6.59a1 1 0 0 1 1.411.079A7.97 7.97 0 0 1 10 11.999c0 2.048-.77 3.918-2.035 5.332a1 1 0 0 1-1.49-1.333A5.97 5.97 0 0 0 7.998 12a5.97 5.97 0 0 0-1.526-3.998 1 1 0 0 1 .08-1.412" clip-rule="evenodd"/></svg>