<svg xmlns="http://www.w3.org/2000/svg" fill="none" viewBox="0 0 24 24"><path fill="#090404" d="M9 8.25a1.75 1.75 0 1 1-3.5 0 1.75 1.75 0 0 1 3.5 0"/><path fill="#090404" fill-rule="evenodd" d="M3 7.25A4.25 4.25 0 0 1 7.25 3h4.25v18H7.25A4.25 4.25 0 0 1 3 16.75zM7.25 4.5A2.75 2.75 0 0 0 4.5 7.25v9.5a2.75 2.75 0 0 0 2.75 2.75H10v-15z" clip-rule="evenodd"/><path fill="#090404" fill-rule="evenodd" d="M16.75 3A4.25 4.25 0 0 1 21 7.25v9.5A4.25 4.25 0 0 1 16.75 21H12.5V3zm1.75 10a1.75 1.75 0 1 1-3.5 0 1.75 1.75 0 0 1 3.5 0" clip-rule="evenodd"/></svg>