<svg xmlns="http://www.w3.org/2000/svg" fill="none" viewBox="0 0 24 24"><path fill="#090404" fill-rule="evenodd" d="M12 4.25C6.2 4.25 1.5 9.017 1.5 14.9V20h1.936v-.508c0-2.387 1.905-4.32 4.257-4.32s4.258 1.933 4.258 4.32V20h1.935v-.508c0-3.47-2.773-6.282-6.193-6.282a6.1 6.1 0 0 0-3.575 1.153c1.057-2.131 3.233-3.594 5.747-3.594 3.55 0 6.429 2.92 6.429 6.521V20h1.935v-2.71c0-4.685-3.745-8.486-8.365-8.486-2 0-3.933.724-5.44 2.04C5.861 8.09 8.714 6.214 12 6.214c4.73 0 8.564 3.89 8.564 8.688V20H22.5v-5.1c0-5.883-4.701-10.65-10.5-10.65" clip-rule="evenodd"/></svg>