<svg xmlns="http://www.w3.org/2000/svg" fill="none" viewBox="0 0 24 24"><path fill="#090404" d="M5.776 5.571c.616.5.848.463 2.004.385l10.906-.654c.231 0 .039-.231-.038-.27l-1.811-1.309c-.347-.27-.81-.578-1.696-.5l-10.56.77c-.385.038-.462.23-.309.385zm.655 2.542v11.475c0 .616.308.847 1.002.809l11.985-.694c.694-.038.772-.462.772-.963V7.342c0-.5-.193-.77-.618-.731l-12.525.731c-.462.04-.616.27-.616.77m11.832.615c.077.347 0 .694-.347.733l-.578.115v8.471c-.501.27-.964.424-1.349.424-.617 0-.771-.193-1.233-.77l-3.778-5.93v5.737l1.196.27s0 .693-.965.693l-2.658.154c-.078-.154 0-.539.27-.616l.693-.192V10.23l-.963-.077c-.077-.347.115-.848.655-.886l2.852-.193 3.931 6.008V9.768l-1.002-.115c-.077-.424.23-.732.616-.77zM3.694 2.953l10.985-.81c1.348-.115 1.696-.037 2.543.579l3.507 2.464c.578.424.771.54.771 1.001v13.516c0 .847-.309 1.348-1.387 1.425l-12.756.77c-.81.039-1.196-.076-1.62-.616l-2.582-3.35c-.463-.617-.655-1.078-.655-1.618V4.3c0-.693.309-1.27 1.194-1.347"/></svg>