<svg xmlns="http://www.w3.org/2000/svg" fill="none" viewBox="0 0 24 24"><path fill="#090404" d="M11.994 12.618c.809 0 1.365.486 1.365 1.16 0 .686-.556 1.184-1.365 1.184-.803 0-1.36-.498-1.36-1.184 0-.674.557-1.16 1.36-1.16"/><path fill="#090404" d="M11.994 9.032c.691 0 1.196.428 1.196 1.055 0 .621-.499 1.055-1.196 1.055-.691 0-1.184-.434-1.184-1.055 0-.627.499-1.055 1.184-1.055"/><path fill="#090404" fill-rule="evenodd" d="M12 2c5.523 0 10 4.477 10 10s-4.477 10-10 10S2 17.523 2 12 6.477 2 12 2m-.006 5.562c-1.957 0-3.31.966-3.31 2.302 0 .938.72 1.659 1.752 1.887v.041c-1.19.205-2.057 1.002-2.057 2.145 0 1.494 1.47 2.502 3.615 2.502 2.139 0 3.621-1.008 3.621-2.497 0-1.142-.861-1.945-2.05-2.15v-.041c1.025-.228 1.74-.961 1.74-1.88 0-1.343-1.348-2.31-3.31-2.31" clip-rule="evenodd"/></svg>