<svg xmlns="http://www.w3.org/2000/svg" fill="none" viewBox="0 0 24 24"><path fill="#090404" fill-rule="evenodd" d="M12 2c5.523 0 10 4.477 10 10s-4.477 10-10 10S2 17.523 2 12 6.477 2 12 2m-.041 5.217c-1.541 0-2.666.744-3.035 1.717a1.2 1.2 0 0 0-.088.468c0 .528.334.85.89.85.434 0 .686-.17.956-.586.31-.562.691-.832 1.248-.832.674 0 1.142.434 1.142 1.043 0 .55-.27.938-1.26 1.84l-2.414 2.191c-.421.364-.591.65-.591 1.055 0 .533.316.92 1.007.92h4.688c.545 0 .861-.334.861-.826 0-.504-.316-.827-.861-.827h-2.924v-.04l1.682-1.536c1.342-1.213 1.892-1.834 1.892-2.918 0-1.494-1.265-2.52-3.193-2.52" clip-rule="evenodd"/></svg>