<svg xmlns="http://www.w3.org/2000/svg" fill="none" viewBox="0 0 24 24"><path fill="#090404" fill-rule="evenodd" d="M6.526 3.65A1 1 0 0 1 7 4.5v5a1 1 0 1 1-2 0V6.118l-.553.276a1 1 0 1 1-.894-1.788l2-1a1 1 0 0 1 .973.043m0 0A1 1 0 0 1 7 4.5v5a1 1 0 1 1-2 0V6.118l-.553.276M6.526 3.65A1 1 0 0 1 7 4.5v5a1 1 0 1 1-2 0V6.118l-.553.276" clip-rule="evenodd"/><path fill="#090404" d="M12 6a1 1 0 1 0 0 2h8a1 1 0 1 0 0-2z"/><path fill="#090404" d="M12 16a1 1 0 1 0 0 2h8a1 1 0 1 0 0-2z"/><path fill="#090404" d="M4.86 15.793h-.002l-.001.002-.002.001-.001.001a1 1 0 0 1-1.214-1.59l.059-.043.118-.08c.098-.064.235-.146.402-.23.317-.157.818-.354 1.392-.354C6.931 13.5 8 14.57 8 15.889c0 .765-.331 1.353-.733 1.79-.306.332-.678.603-1.002.821h.985a1 1 0 1 1 0 2H4a1 1 0 0 1-1-1c0-.754.392-1.299.779-1.668.327-.312.742-.581 1.068-.793l.106-.07c.384-.25.657-.443.842-.645.161-.175.205-.3.205-.435a.39.39 0 0 0-.389-.389c-.137 0-.317.053-.502.145a2 2 0 0 0-.25.148"/></svg>