<svg xmlns="http://www.w3.org/2000/svg" fill="none" viewBox="0 0 24 24"><path fill="#090404" fill-rule="evenodd" d="M11 2c4.97 0 9 4.477 9 10s-4.03 10-9 10-9-4.477-9-10S6.03 2 11 2m-.058 5.562c-1.497 0-2.394.796-2.695 1.617a1.3 1.3 0 0 0-.095.51c0 .492.27.843.796.843.427 0 .66-.17.876-.62.232-.505.585-.75 1.128-.75.66 0 1.04.38 1.04.978 0 .615-.455 1.02-1.198 1.02h-.174c-.458 0-.701.298-.701.726 0 .44.242.732.701.732h.185c.843 0 1.318.381 1.318 1.09 0 .61-.464 1.043-1.128 1.043-.722 0-1.065-.31-1.345-.838-.19-.34-.427-.486-.796-.486-.528 0-.85.34-.85.879 0 .152.032.328.096.492.305.82 1.233 1.64 2.852 1.64 1.91 0 3.138-1.02 3.138-2.601 0-1.143-.727-1.863-1.877-1.992v-.041c.87-.194 1.577-.885 1.577-1.969 0-1.435-1.192-2.273-2.848-2.273" clip-rule="evenodd"/></svg>