<svg xmlns="http://www.w3.org/2000/svg" fill="none" viewBox="0 0 24 24"><path fill="#090404" fill-rule="evenodd" d="M19 3a2 2 0 0 1 2 2v14a2 2 0 0 1-2 2H5a2 2 0 0 1-2-2V5a2 2 0 0 1 2-2zm-7.065 4.562c-1.664 0-2.66.796-2.994 1.617a1.2 1.2 0 0 0-.105.51c0 .492.299.843.885.843.474 0 .732-.17.972-.62.258-.505.65-.75 1.254-.75.733 0 1.155.38 1.155.978 0 .615-.504 1.02-1.33 1.02h-.194c-.51 0-.78.298-.78.726 0 .44.27.732.78.732h.205c.938 0 1.465.381 1.465 1.09 0 .61-.516 1.043-1.254 1.043-.803 0-1.184-.31-1.494-.838-.21-.34-.475-.486-.885-.486-.586 0-.943.34-.943.879 0 .152.035.328.105.492.34.82 1.371 1.64 3.17 1.64 2.121 0 3.487-1.02 3.487-2.601 0-1.143-.809-1.863-2.086-1.992v-.041c.966-.194 1.752-.885 1.752-1.969 0-1.436-1.325-2.273-3.165-2.273" clip-rule="evenodd"/></svg>