<svg xmlns="http://www.w3.org/2000/svg" fill="none" viewBox="0 0 24 24"><path fill="#090404" d="M11.883 9.208a1.33 1.33 0 0 1 1.348 1.348c0 .75-.586 1.283-1.366 1.283-.767 0-1.342-.54-1.342-1.313 0-.744.598-1.318 1.36-1.318"/><path fill="#090404" fill-rule="evenodd" d="M12 2c5.523 0 10 4.477 10 10s-4.477 10-10 10S2 17.523 2 12 6.477 2 12 2m-.146 5.562c-1.963 0-3.399 1.26-3.399 3.052 0 1.67 1.266 2.742 2.807 2.742 1.13 0 1.916-.562 2.197-1.365h.035v.088c.024 1.547-.44 2.713-1.605 2.713-.54 0-.873-.187-1.26-.58-.299-.287-.533-.475-.961-.475-.563 0-.867.37-.867.826 0 .153.035.3.105.457.364.82 1.46 1.419 2.889 1.419 2.344 0 3.756-1.682 3.756-4.477 0-1.02-.2-1.899-.545-2.555-.668-1.26-1.77-1.845-3.152-1.845" clip-rule="evenodd"/></svg>