<svg xmlns="http://www.w3.org/2000/svg" fill="none" viewBox="0 0 24 24"><path fill="#090404" fill-rule="evenodd" d="M12 2c5.523 0 10 4.477 10 10s-4.477 10-10 10S2 17.523 2 12 6.477 2 12 2m-1.588 5.795c-.72 0-1.142.322-1.201 1.096l-.223 2.97v.03c-.035.568.287 1.06.996 1.06.47 0 .686-.105 1.014-.392.27-.24.639-.452 1.102-.452.808 0 1.377.545 1.377 1.319 0 .79-.592 1.377-1.395 1.377-.68 0-1.09-.323-1.418-.815-.258-.322-.516-.457-.92-.457-.545 0-.867.317-.867.844 0 .205.053.404.146.592.434.861 1.676 1.494 3.077 1.494 2.01 0 3.404-1.225 3.404-3.082 0-1.606-1.149-2.73-2.748-2.73-.885 0-1.57.369-1.899.925h-.04l.163-2.127h3.235c.515 0 .844-.322.844-.826s-.334-.826-.844-.826z" clip-rule="evenodd"/></svg>