<svg xmlns="http://www.w3.org/2000/svg" fill="none" viewBox="0 0 24 24"><path fill="#090404" d="M12.003 9.196c.885 0 1.377 1.008 1.377 2.795v.012c0 1.787-.492 2.8-1.377 2.8s-1.377-1.013-1.377-2.8v-.012c0-1.787.492-2.795 1.377-2.795"/><path fill="#090404" fill-rule="evenodd" d="M12 2c5.523 0 10 4.477 10 10s-4.477 10-10 10S2 17.523 2 12 6.477 2 12 2m.003 5.544c-2.203 0-3.557 1.705-3.557 4.447v.012c0 2.742 1.354 4.453 3.557 4.453s3.55-1.71 3.55-4.453v-.012c0-2.742-1.347-4.447-3.55-4.447" clip-rule="evenodd"/></svg>