<svg xmlns="http://www.w3.org/2000/svg" fill="none" viewBox="0 0 24 24"><path fill="#090404" d="M12.242 9.255v3.937H9.8v-.058c.685-1.319 1.383-2.403 2.402-3.88z"/><path fill="#090404" fill-rule="evenodd" d="M19 3a2 2 0 0 1 2 2v14a2 2 0 0 1-2 2H5a2 2 0 0 1-2-2V5a2 2 0 0 1 2-2zm-6.559 4.638c-.85 0-1.347.34-1.998 1.347-.779 1.178-1.453 2.245-2.015 3.258-.3.527-.428.932-.428 1.342 0 .715.527 1.201 1.3 1.201h2.884v.55c0 .687.427 1.026 1.02 1.026.585 0 1.013-.34 1.013-1.025v-.55h.328c.562 0 .855-.347.855-.833s-.287-.838-.855-.838h-.328V9.15c0-.92-.697-1.511-1.776-1.511" clip-rule="evenodd"/></svg>