<svg xmlns="http://www.w3.org/2000/svg" fill="none" viewBox="0 0 24 24"><path fill="#090404" d="M12.14 12.158c.762 0 1.342.545 1.337 1.319-.006.738-.598 1.312-1.354 1.312-.762 0-1.353-.58-1.353-1.342 0-.756.591-1.289 1.37-1.289"/><path fill="#090404" fill-rule="evenodd" d="M19 3a2 2 0 0 1 2 2v14a2 2 0 0 1-2 2H5a2 2 0 0 1-2-2V5a2 2 0 0 1 2-2zm-6.883 4.559c-2.262 0-3.668 1.699-3.668 4.476 0 1.02.2 1.899.551 2.555.668 1.26 1.764 1.851 3.152 1.851 1.963 0 3.399-1.265 3.399-3.058 0-1.582-1.084-2.73-2.73-2.73-1.143 0-1.952.556-2.274 1.347h-.041v-.094c-.012-1.588.504-2.695 1.611-2.695.51 0 .867.17 1.242.574.3.299.54.475.961.475.563 0 .873-.37.873-.826 0-.159-.035-.305-.105-.463-.357-.774-1.4-1.412-2.97-1.412" clip-rule="evenodd"/></svg>