<svg xmlns="http://www.w3.org/2000/svg" fill="none" viewBox="0 0 24 24"><path fill="#090404" d="M11.994 12.612c.815 0 1.371.492 1.371 1.166v.012c0 .68-.568 1.172-1.37 1.172-.804 0-1.366-.492-1.366-1.172v-.012c0-.674.55-1.166 1.365-1.166"/><path fill="#090404" d="M11.994 9.032c.697 0 1.196.422 1.196 1.043v.012c0 .621-.493 1.055-1.196 1.055-.697 0-1.19-.434-1.19-1.055v-.012c0-.62.499-1.043 1.19-1.043"/><path fill="#090404" fill-rule="evenodd" d="M19 3a2 2 0 0 1 2 2v14a2 2 0 0 1-2 2H5a2 2 0 0 1-2-2V5a2 2 0 0 1 2-2zm-7.006 4.562c-1.963 0-3.31.966-3.31 2.302v.012c0 .932.72 1.652 1.746 1.875v.041c-1.184.205-2.057.996-2.057 2.133v.011c0 1.489 1.465 2.503 3.621 2.503 2.162 0 3.627-1.014 3.627-2.502v-.012c0-1.137-.873-1.928-2.056-2.133v-.041c1.019-.228 1.745-.943 1.745-1.875v-.012c0-1.336-1.353-2.302-3.316-2.302" clip-rule="evenodd"/></svg>