<svg xmlns="http://www.w3.org/2000/svg" fill="none" viewBox="0 0 24 24"><path fill="#090404" fill-rule="evenodd" d="M12 4a8 8 0 1 0 0 16 1 1 0 1 1 0 2C6.477 22 2 17.523 2 12S6.477 2 12 2a1 1 0 1 1 0 2m3.634-.297a1 1 0 0 1 1.367-.365c.92.533 1.748 1.208 2.452 1.995a1 1 0 1 1-1.49 1.334A8 8 0 0 0 16 5.07a1 1 0 0 1-.365-1.367m-3.341 6.004a1 1 0 0 1 1.414-1.414l3 3a1 1 0 0 1 0 1.414l-3 3a1 1 0 0 1-1.414-1.414L13.586 13H8a1 1 0 1 1 0-2h5.586zm8.343-.439a1 1 0 0 1 1.175.788 10 10 0 0 1 0 3.888 1 1 0 0 1-1.962-.387 8 8 0 0 0 0-3.114 1 1 0 0 1 .787-1.175m-1.26 7.987a1 1 0 0 1 .077 1.412 10 10 0 0 1-2.452 1.995 1 1 0 0 1-1.002-1.732 8 8 0 0 0 1.964-1.597 1 1 0 0 1 1.412-.078" clip-rule="evenodd"/></svg>