<svg xmlns="http://www.w3.org/2000/svg" fill="none" viewBox="0 0 24 24"><path fill="#090404" d="M9.201 6.3a.5.5 0 1 1 0 1.002.5.5 0 0 1 0-1.001"/><path fill="#090404" d="M15.2 6.3a.5.5 0 1 1 0 1 .5.5 0 0 1 0-1"/><path fill="#090404" fill-rule="evenodd" d="M16.623 1.379c.549-.256 1.08-.307 1.531-.036a.3.3 0 1 1-.309.515c-.215-.13-.518-.146-.968.064q-.502.232-1.17.821c2.712 1.182 4.38 3.613 5.008 6.068 2.439-.473 3.2 1.358 2.285 3.19-.55 1.098-1.399 1.29-2.22.91-.743 3.294-3.261 6.25-5.78 7.09v2h-2v-2c-.997.398-1.993.002-2 0v2H9v-2c-2.52-.84-5.039-3.796-5.781-7.09-.821.38-1.67.188-2.22-.91C.085 10.17.847 8.34 3.285 8.811c.627-2.455 2.297-4.885 5.007-6.068-.445-.394-.834-.665-1.168-.821-.45-.21-.754-.193-.969-.064a.3.3 0 1 1-.308-.515c.45-.27.982-.22 1.53.036.465.217.977.595 1.536 1.12A9.4 9.4 0 0 1 12 2c1.136 0 2.165.181 3.087.5.559-.525 1.071-.904 1.536-1.121M9 5.801a1.2 1.2 0 1 0 0 2.4 1.2 1.2 0 0 0 0-2.4M15 5.8a1.2 1.2 0 1 0 0 2.4 1.2 1.2 0 0 0 0-2.4" clip-rule="evenodd"/></svg>