<svg xmlns="http://www.w3.org/2000/svg" fill="none" viewBox="0 0 24 24"><path fill="#090404" fill-rule="evenodd" d="M9.37 2.186a5.42 5.42 0 0 1 4.953 1.136 5.428 5.428 0 0 1 6.354 6.352 5.426 5.426 0 0 1-2.327 8.677 5.423 5.423 0 0 1-8.675 2.325 5.428 5.428 0 0 1-6.354-6.353 5.427 5.427 0 0 1 2.327-8.676 5.43 5.43 0 0 1 3.723-3.461m5.77 6.21a.8.8 0 0 0-.529.004l-6.784 2.462a.8.8 0 0 0-.49 1.004.79.79 0 0 0 .54.503l2.527.684a.79.79 0 0 1 .556.555l.678 2.53a.79.79 0 0 0 .5.54.8.8 0 0 0 1.007-.487l2.47-6.764a.803.803 0 0 0-.474-1.03" clip-rule="evenodd"/></svg>