<svg xmlns="http://www.w3.org/2000/svg" fill="none" viewBox="0 0 24 24"><path fill="#090404" d="M8 5a1 1 0 0 0-1.351-.936L7 5l-.352-.936h-.001l-.002.001-.006.003-.016.006a3 3 0 0 0-.21.09 8.163 8.163 0 0 0-2.098 1.42c-1.153 1.081-2.315 2.83-2.315 5.416v7.001C2 19.107 2.897 20 4 20h5a2 2 0 0 0 2-2v-6a2 2 0 0 0-2-2H8z"/><path fill="#090404" d="M19 5a1 1 0 0 0-1.351-.936L18 5l-.352-.936h-.001l-.002.001-.006.003-.016.006a4 4 0 0 0-.21.09 8.163 8.163 0 0 0-2.098 1.42c-1.153 1.081-2.315 2.83-2.315 5.416v7.001c0 1.106.897 1.999 2 1.999h5a2 2 0 0 0 2-1.999l.003-6a2 2 0 0 0-2-2.001h-1z"/></svg>