<svg xmlns="http://www.w3.org/2000/svg" fill="none" viewBox="0 0 24 24"><path fill="#090404" d="M17.507 19a4.5 4.5 0 0 0 4.496-4.5 4.498 4.498 0 0 0-6.245-4.147q.16-.293.348-.557c.785-1.11 1.946-1.958 3.454-2.964a1 1 0 0 0-1.109-1.664c-1.489.994-2.95 2.022-3.976 3.473-1.055 1.492-1.593 3.343-1.464 5.887A4.5 4.5 0 0 0 17.507 19"/><path fill="#090404" d="M6.515 19a4.5 4.5 0 0 0 4.495-4.5 4.498 4.498 0 0 0-6.244-4.147q.16-.293.348-.557c.785-1.11 1.946-1.958 3.453-2.964A1 1 0 0 0 7.46 5.168c-1.49.994-2.95 2.022-3.977 3.473-1.054 1.492-1.593 3.343-1.463 5.887A4.5 4.5 0 0 0 6.515 19"/><path fill="#090404" d="M11.01 14.5C11.01 16.984 9 19 6.516 19a4.5 4.5 0 0 1-4.491-4.268l-.006-.232c-.125-2.53.413-4.372 1.464-5.858 1.025-1.452 2.487-2.48 3.976-3.474a1 1 0 0 1 1.11 1.664C7.06 7.838 5.898 8.685 5.113 9.796a6 6 0 0 0-.345.555 4.498 4.498 0 0 1 6.242 4.15m10.99 0a4.497 4.497 0 0 1-8.991.053l-.019-.472c-.047-2.316.488-4.036 1.48-5.44 1.025-1.45 2.487-2.48 3.976-3.473a1 1 0 0 1 1.11 1.664c-1.507 1.006-2.669 1.853-3.453 2.964q-.187.262-.346.555a4.498 4.498 0 0 1 6.242 4.15"/></svg>