<svg xmlns="http://www.w3.org/2000/svg" fill="none" viewBox="0 0 24 24"><path fill="#090404" fill-rule="evenodd" d="M4 4a2 2 0 0 1 2-2h12a2 2 0 0 1 2 2v6.674A7 7 0 0 0 12.101 22H6a2 2 0 0 1-2-2zm3 2a1 1 0 0 1 1-1h6a1 1 0 1 1 0 2H8a1 1 0 0 1-1-1m0 4a1 1 0 0 1 1-1h2a1 1 0 1 1 0 2H8a1 1 0 0 1-1-1" clip-rule="evenodd"/><path fill="#090404" fill-rule="evenodd" d="M17 12a5 5 0 1 0 0 10 5 5 0 0 0 0-10m-3 5c0-1.306.835-2.418 2-2.83V17a1 1 0 0 0 .293.707l2 2A3 3 0 0 1 14 17m4-.414V14.17a3 3 0 0 1 1.708 4.123z" clip-rule="evenodd"/></svg>