<svg xmlns="http://www.w3.org/2000/svg" fill="none" viewBox="0 0 24 24"><path fill="#090404" fill-rule="evenodd" d="M3 4a2 2 0 0 1 2-2h13a2 2 0 0 1 2 2v8.802A6 6 0 0 0 12.528 22H5a2 2 0 0 1-2-2zm4 3a1 1 0 0 1 1-1h7a1 1 0 1 1 0 2H8a1 1 0 0 1-1-1m0 4a1 1 0 0 1 1-1h3a1 1 0 1 1 0 2H8a1 1 0 0 1-1-1m0 4a1 1 0 0 1 1-1h1a1 1 0 1 1 0 2H8a1 1 0 0 1-1-1" clip-rule="evenodd"/><path fill="#090404" fill-rule="evenodd" d="M19.828 15.172a4 4 0 1 0-.796 6.274l1.26 1.261a1 1 0 0 0 1.415-1.414l-1.26-1.26a4 4 0 0 0-.619-4.861m-4.242 1.414a2 2 0 1 1 2.828 2.828 2 2 0 0 1-2.828-2.828" clip-rule="evenodd"/></svg>