<svg xmlns="http://www.w3.org/2000/svg" fill="none" viewBox="0 0 24 24"><path fill="#090404" fill-rule="evenodd" d="M6 2a2 2 0 0 0-2 2v16a2 2 0 0 0 2 2h8.01a3 3 0 0 1 .747-3A3 3 0 1 1 19 14.757a3 3 0 0 1 1-.662V4a2 2 0 0 0-2-2zm2 3a1 1 0 0 0 0 2h6a1 1 0 1 0 0-2zm0 4a1 1 0 0 0 0 2h2a1 1 0 1 0 0-2z" clip-rule="evenodd"/><path fill="#090404" fill-rule="evenodd" d="M21.828 16.172a1 1 0 0 1 0 1.414L20.414 19l1.414 1.414a1 1 0 1 1-1.414 1.414L19 20.414l-1.414 1.414a1 1 0 1 1-1.414-1.414L17.586 19l-1.414-1.414a1 1 0 1 1 1.414-1.414L19 17.586l1.414-1.414a1 1 0 0 1 1.414 0" clip-rule="evenodd"/></svg>