<svg xmlns="http://www.w3.org/2000/svg" fill="none" viewBox="0 0 24 24"><path fill="#090404" fill-rule="evenodd" d="M6 2a2 2 0 0 0-2 2v16a2 2 0 0 0 2 2h5.17c-.11-.313-.17-.65-.17-1v-4c0-.98.47-1.852 1.198-2.399A5.002 5.002 0 0 1 20 12V4a2 2 0 0 0-2-2zm2 3a1 1 0 0 0 0 2h6a1 1 0 1 0 0-2zm0 4a1 1 0 0 0 0 2h3a1 1 0 1 0 0-2z" clip-rule="evenodd"/><path fill="#090404" fill-rule="evenodd" d="M20 16.268V16a3 3 0 1 0-6 0v.268A2 2 0 0 0 13 18v2a2 2 0 0 0 2 2h4a2 2 0 0 0 2-2v-2a2 2 0 0 0-1-1.732M16 16h2a1 1 0 1 0-2 0" clip-rule="evenodd"/></svg>