<svg xmlns="http://www.w3.org/2000/svg" fill="none" viewBox="0 0 24 24"><path fill="#090404" fill-rule="evenodd" d="M4 4a2 2 0 0 1 2-2h12a2 2 0 0 1 2 2v5.341A6 6 0 0 0 12 15v3c0 1.537.578 2.939 1.528 4H6a2 2 0 0 1-2-2zm3 2a1 1 0 0 1 1-1h6a1 1 0 1 1 0 2H8a1 1 0 0 1-1-1m0 4a1 1 0 0 1 1-1h2a1 1 0 1 1 0 2H8a1 1 0 0 1-1-1" clip-rule="evenodd"/><path fill="#090404" d="M16 15a2 2 0 1 1 4 0 1 1 0 1 0 2 0 4 4 0 0 0-8 0 1 1 0 1 0 2 0"/><path fill="#090404" d="M19 16a1 1 0 1 0-2 0v1a1 1 0 1 0 2 0z"/><path fill="#090404" d="M16 18a1 1 0 1 0-2 0 4 4 0 0 0 8 0 1 1 0 1 0-2 0 2 2 0 1 1-4 0"/></svg>