<svg xmlns="http://www.w3.org/2000/svg" fill="none" viewBox="0 0 24 24"><path fill="#090404" fill-rule="evenodd" d="M4 4a2 2 0 0 1 2-2h12a2 2 0 0 1 2 2v9.168A6.25 6.25 0 0 0 11.167 22H6a2 2 0 0 1-2-2zm3 2a1 1 0 0 1 1-1h6a1 1 0 1 1 0 2H8a1 1 0 0 1-1-1m0 4a1 1 0 0 1 1-1h2a1 1 0 1 1 0 2H8a1 1 0 0 1-1-1" clip-rule="evenodd"/><path fill="#090404" fill-rule="evenodd" d="M15.75 13.5a4.25 4.25 0 0 0 0 8.5h2.75a3.5 3.5 0 0 0 .523-6.961A4.24 4.24 0 0 0 15.75 13.5m-2.25 4.25a2.25 2.25 0 0 1 4.147-1.21 1 1 0 0 0 .844.46h.009a1.5 1.5 0 0 1 0 3h-2.75a2.25 2.25 0 0 1-2.25-2.25" clip-rule="evenodd"/></svg>