<svg xmlns="http://www.w3.org/2000/svg" fill="none" viewBox="0 0 24 24"><path fill="#090404" fill-rule="evenodd" d="M4 4a2 2 0 0 1 2-2h12a2 2 0 0 1 2 2v8.022A6.5 6.5 0 0 0 11.81 22H6a2 2 0 0 1-2-2zm3 2a1 1 0 0 1 1-1h6a1 1 0 1 1 0 2H8a1 1 0 0 1-1-1m0 4a1 1 0 0 1 1-1h3a1 1 0 1 1 0 2H8a1 1 0 0 1-1-1" clip-rule="evenodd"/><path fill="#090404" fill-rule="evenodd" d="M16.5 13a4.5 4.5 0 1 0 2.414 8.298l.867.897a1 1 0 0 0 1.438-1.39l-.898-.928A4.5 4.5 0 0 0 16.5 13M14 17.5a2.5 2.5 0 1 1 5 0 2.5 2.5 0 0 1-5 0" clip-rule="evenodd"/></svg>