<svg xmlns="http://www.w3.org/2000/svg" fill="none" viewBox="0 0 24 24"><path fill="#090404" fill-rule="evenodd" d="M4 4a2 2 0 0 1 2-2h12a2 2 0 0 1 2 2v7.878a4.65 4.65 0 0 0-4.621 1.168l-3.5 3.5a3 3 0 0 0-.879 2.12V21c0 .35.06.687.17 1H6a2 2 0 0 1-2-2zm4 3a1 1 0 0 1 1-1h6a1 1 0 1 1 0 2H9a1 1 0 0 1-1-1m1 3a1 1 0 1 0 0 2h2a1 1 0 1 0 0-2z" clip-rule="evenodd"/><path fill="#090404" fill-rule="evenodd" d="M19.126 15.874a.65.65 0 0 0-.919 0L15 19.08v.92h.92l3.206-3.208a.65.65 0 0 0 0-.919m-2.333-1.414a2.65 2.65 0 0 1 3.747 3.747l-3.5 3.5a1 1 0 0 1-.707.293H14a1 1 0 0 1-1-1v-2.333a1 1 0 0 1 .293-.707z" clip-rule="evenodd"/></svg>