<svg xmlns="http://www.w3.org/2000/svg" fill="none" viewBox="0 0 24 24"><path fill="#090404" d="M19.95 16.262a.44.44 0 0 1 .6 0c.613.564 1.95 1.95 1.95 3.338 0 1.326-1.007 2.4-2.25 2.4-1.242 0-2.25-1.074-2.25-2.4 0-1.387 1.337-2.774 1.95-3.338"/><path fill="#090404" d="M9.384 2.913a2 2 0 0 1 2.999-.195l8.29 8.29c.853.853.76 2.263-.195 3l-9.28 7.14a4 4 0 0 1-5.268-.342l-3.345-3.344a4 4 0 0 1-.342-5.269l1.548-2.014 6.422 3.042a1 1 0 0 0 .975-1.737L2.573 7.403a1 1 0 1 1 .856-1.807l2.85 1.35z"/></svg>