<svg xmlns="http://www.w3.org/2000/svg" fill="none" viewBox="0 0 24 24"><path fill="#090404" fill-rule="evenodd" d="M23.97 11.208a1 1 0 0 0-1.213-.729q-9.621 2.401-19.242 4.8a1 1 0 0 0-.729 1.214l.364 1.455a4 4 0 0 0 4.848 2.913l6.792-1.694a4 4 0 0 0 2.914-4.848l-.122-.488 5.66-1.41a1 1 0 0 0 .728-1.213" clip-rule="evenodd"/><path fill="#090404" d="M3.547 8.787a.9.9 0 0 0-1.096 1.427l1.304 1a.9.9 0 1 0 1.096-1.428z"/><path fill="#090404" d="M9 8.25a1 1 0 1 0 0 2.001 1 1 0 0 0 0-2"/><path fill="#090404" d="M13.5 6.25a1 1 0 1 0 0 2.001 1 1 0 0 0 0-2"/><path fill="#090404" d="M4.5 5a1 1 0 1 0 0 2.001 1 1 0 0 0 0-2"/><path fill="#090404" d="M9.902 2.696a.9.9 0 0 0-1.207.402l-.75 1.5a.9.9 0 0 0 1.609.805l.75-1.5a.9.9 0 0 0-.402-1.207"/></svg>