<svg xmlns="http://www.w3.org/2000/svg" fill="none" viewBox="0 0 24 24"><path fill="#090404" d="M3 5a1 1 0 0 1 1-1h16a1 1 0 1 1 0 2h-5a1 1 0 0 0-1 1v3.5a1.5 1.5 0 0 1-3 0v4a1.5 1.5 0 0 1-3 0V7a1 1 0 0 0-1-1H4a1 1 0 0 1-1-1"/><path fill="#090404" d="M21 8.5a1 1 0 0 0-1-1h-4v2h4a1 1 0 0 0 1-1"/><path fill="#090404" d="M15.965 11a3.5 3.5 0 0 1-1.015 2H21a1 1 0 1 0 0-2z"/><path fill="#090404" d="M6 7.5H3a1 1 0 0 0 0 2h3z"/><path fill="#090404" d="M6 11H4a1 1 0 1 0 0 2h2z"/><path fill="#090404" d="M6 14.5H4a1 1 0 1 0 0 2h2.627a3.5 3.5 0 0 1-.627-2"/><path fill="#090404" d="M12.373 16.5a3.5 3.5 0 0 0 .627-2h7a1 1 0 1 1 0 2z"/><path fill="#090404" d="M23 19a1 1 0 0 0-1-1H2a1 1 0 1 0 0 2h20a1 1 0 0 0 1-1"/></svg>