<svg xmlns="http://www.w3.org/2000/svg" fill="none" viewBox="0 0 24 24"><path fill="#090404" d="M10.112 13.494c-.272.23-.549.478-.813.737A27.4 27.4 0 0 1 7.052 7.5c-.238-1.265-.326-2.354-.27-3.151.028-.4.09-.684.159-.865a1 1 0 0 1 .062-.131c.03-.001.076 0 .145.012.192.03.468.118.828.294.719.35 1.618.971 2.594 1.81a27.4 27.4 0 0 1 4.707 5.312c-.356.099-.71.214-1.045.335-.834.302-1.63.668-2.178.985-.549.316-1.264.823-1.942 1.394"/><path fill="#090404" d="M4.77 5.087C1.773 8.216 1.062 13.06 3.337 17a1 1 0 0 0 1.7.05c.699-1.058 1.535-1.742 2.402-2.073a29.4 29.4 0 0 1-2.353-7.11c-.186-.992-.299-1.94-.318-2.781"/><path fill="#090404" d="M9.625 2.284c.72.437 1.484 1.008 2.25 1.666a29.4 29.4 0 0 1 4.98 5.592c.72-.585 1.731-.967 2.998-1.043A1 1 0 0 0 20.659 7c-2.275-3.94-6.827-5.747-11.034-4.717"/><path fill="#090404" d="M13.95 13.384a10 10 0 0 0-.895.447 10 10 0 0 0-.836.553l3.413 5.911a1 1 0 1 0 1.732-1z"/></svg>