<svg xmlns="http://www.w3.org/2000/svg" fill="none" viewBox="0 0 24 24"><path fill="#090404" d="M12 2a4.5 4.5 0 1 0 0 9 4.5 4.5 0 0 0 0-9"/><path fill="#090404" d="M12.001 12c-4.3 0-7.447 2.884-8.304 6.696-.29 1.29.767 2.304 1.902 2.304h9.151v-3.2A4.99 4.99 0 0 1 13 14c0-.672.133-1.313.373-1.898A9 9 0 0 0 12.001 12"/><path fill="#090404" fill-rule="evenodd" d="M18 11a3 3 0 0 0-1.25 5.728v3.532a.5.5 0 0 0 .188.39l.75.6a.5.5 0 0 0 .624 0l.75-.6a.5.5 0 0 0 .188-.39v-.833l-.75-.677.75-.75v-1.272A3 3 0 0 0 18 11m-1 3a1 1 0 1 1 2 0 1 1 0 0 1-2 0" clip-rule="evenodd"/></svg>