<svg xmlns="http://www.w3.org/2000/svg" fill="none" viewBox="0 0 24 24"><path fill="#090404" d="M12 1.5a3.5 3.5 0 0 0-3.487 3.201 9.02 9.02 0 0 0-5.064 5.487 1 1 0 0 0 1.9.624 7.02 7.02 0 0 1 3.592-4.11 3.5 3.5 0 1 0 3.06-5.202"/><path fill="#090404" d="M18.788 7.09a1 1 0 1 0-1.508 1.314 6.97 6.97 0 0 1 1.703 5.096 3.499 3.499 0 0 0-1.81 6.53 3.5 3.5 0 0 0 3.757-5.897Q21 13.575 21 13c0-2.261-.835-4.33-2.212-5.91"/><path fill="#090404" d="M8.101 15.25a3.5 3.5 0 1 0-1.544 4.918A8.97 8.97 0 0 0 12 22q.865-.001 1.687-.158a1 1 0 0 0-.373-1.965A7 7 0 0 1 12 20a6.96 6.96 0 0 1-3.926-1.203 3.5 3.5 0 0 0 .027-3.547"/></svg>