<svg xmlns="http://www.w3.org/2000/svg" fill="none" viewBox="0 0 24 24"><path fill="#090404" d="m19.249 12.664-8.322 8.322c-.288.287-.657.48-1.057.553l-5.192.944a1 1 0 0 1-1.162-1.162l.943-5.193c.073-.4.266-.769.554-1.056l8.322-8.323z"/><path fill="#090404" d="M15.542 4.542a4.183 4.183 0 0 1 5.914 5.915l-.793.792-5.914-5.914z"/><path fill="#090404" d="m7.24 4.185-.696-1.812a.582.582 0 0 0-1.088 0L4.76 4.185a1 1 0 0 1-.575.575l-1.812.696a.582.582 0 0 0 0 1.088l1.812.696a1 1 0 0 1 .575.575l.696 1.812a.582.582 0 0 0 1.088 0l.696-1.812a1 1 0 0 1 .575-.575l1.812-.696a.582.582 0 0 0 0-1.088L7.815 4.76a1 1 0 0 1-.575-.575"/></svg>