<svg xmlns="http://www.w3.org/2000/svg" fill="none" viewBox="0 0 24 24"><path fill="#090404" d="M20.367 3.952a2 2 0 0 0-2.727-.095l-8.465 7.361a6.51 6.51 0 0 1 4.607 4.607l7.36-8.465a2 2 0 0 0-.094-2.726z"/><path fill="#090404" d="M7.5 13A4.5 4.5 0 0 0 3 17.5V21a1 1 0 0 0 1 1h3.5a4.5 4.5 0 1 0 0-9"/><path fill="#090404" d="M4.184 7.408a.5.5 0 0 0 .224-.224l.645-1.29a.5.5 0 0 1 .894 0l.645 1.29a.5.5 0 0 0 .224.224l1.29.645a.5.5 0 0 1 0 .894l-1.29.645a.5.5 0 0 0-.224.224l-.645 1.29a.5.5 0 0 1-.894 0l-.645-1.29a.5.5 0 0 0-.224-.224l-1.29-.645a.5.5 0 0 1 0-.894z"/><path fill="#090404" d="M8.56 3.72a.36.36 0 0 0 .16-.16l.46-.921a.357.357 0 0 1 .64 0l.46.921q.054.106.16.16l.921.46a.357.357 0 0 1 0 .64l-.921.46a.36.36 0 0 0-.16.16l-.46.921a.357.357 0 0 1-.64 0l-.46-.921a.36.36 0 0 0-.16-.16l-.921-.46a.357.357 0 0 1 0-.64z"/></svg>