<svg xmlns="http://www.w3.org/2000/svg" fill="none" viewBox="0 0 24 24"><path fill="#090404" d="M7.5 6.5a4.5 4.5 0 1 1 9 0 4.5 4.5 0 0 1-9 0"/><path fill="#090404" d="M12 12c-4.758 0-8.083 3.521-8.496 7.906A1 1 0 0 0 4.5 21h8.51a3 3 0 0 1 .747-3 3 3 0 0 1 2.098-5.121C14.725 12.317 13.427 12 12 12"/><path fill="#090404" d="M16.707 15.293a1 1 0 0 0-1.414 1.414L16.586 18l-1.293 1.293a1 1 0 0 0 1.414 1.414L18 19.414l1.293 1.293a1 1 0 0 0 1.414-1.414L19.414 18l1.293-1.293a1 1 0 0 0-1.414-1.414L18 16.586z"/></svg>