<svg xmlns="http://www.w3.org/2000/svg" fill="none" viewBox="0 0 24 24"><path fill="#090404" fill-rule="evenodd" d="M19.15 13c.244 0 .457.166.516.402l.185.746a.53.53 0 0 0 .662.382l.74-.21a.53.53 0 0 1 .606.245l.647 1.12a.53.53 0 0 1-.09.648l-.553.534a.53.53 0 0 0 0 .764l.554.536c.175.17.212.436.09.647l-.647 1.122a.53.53 0 0 1-.607.245l-.74-.212a.53.53 0 0 0-.662.382l-.185.747a.53.53 0 0 1-.516.402h-1.296a.53.53 0 0 1-.514-.402l-.188-.746a.53.53 0 0 0-.661-.382l-.74.21a.53.53 0 0 1-.606-.244l-.647-1.122a.53.53 0 0 1 .09-.647l.554-.536a.53.53 0 0 0 0-.764l-.553-.534a.53.53 0 0 1-.09-.647l.647-1.121a.53.53 0 0 1 .607-.246l.738.211a.53.53 0 0 0 .661-.382l.186-.746a.53.53 0 0 1 .516-.402zm-.65 2.75a1.5 1.5 0 1 0 0 3 1.5 1.5 0 0 0 0-3" clip-rule="evenodd"/><path fill="#090404" d="M12.002 12c1.033 0 2 .168 2.885.475A5.744 5.744 0 0 0 13.734 21H5.599c-1.135 0-2.192-1.015-1.902-2.304C4.554 14.884 7.702 12 12.002 12"/><path fill="#090404" d="M12 2a4.5 4.5 0 1 1 0 9.001A4.5 4.5 0 0 1 12 2"/></svg>