<svg xmlns="http://www.w3.org/2000/svg" fill="none" viewBox="0 0 24 24"><path fill="#090404" d="M12 2a4.5 4.5 0 1 0 0 9 4.5 4.5 0 0 0 0-9"/><path fill="#090404" d="M3.696 18.696C4.553 14.884 7.7 12 12 12c1.386 0 2.653.3 3.762.834C13.278 13.31 12 15.719 12 17.75c0 1.242.472 2.353 1.099 3.25h-7.5c-1.136 0-2.193-1.014-1.903-2.304"/><path fill="#090404" fill-rule="evenodd" d="M16.667 14.75c-.685 0-1.369.275-1.876.816-.511.546-.791 1.303-.791 2.184 0 1.428.998 2.519 1.77 3.156.412.341.831.612 1.17.8.17.094.328.173.465.232q.104.045.215.081l.003.001c.045.015.197.063.377.063s.332-.048.377-.063h.003a3 3 0 0 0 .215-.082c.137-.059.296-.138.465-.232a8 8 0 0 0 1.17-.8c.772-.637 1.77-1.728 1.77-3.156 0-.88-.28-1.638-.791-2.184a2.57 2.57 0 0 0-1.876-.816c-.549 0-1 .146-1.333.308a3 3 0 0 0-1.333-.308" clip-rule="evenodd"/></svg>