<svg xmlns="http://www.w3.org/2000/svg" fill="none" viewBox="0 0 24 24"><path fill="#090404" d="M12.001 12c1.163 0 2.241.213 3.213.596l-.45 1.168-1.881.724a2.156 2.156 0 0 0 0 4.024l1.882.723.678 1.765H5.6c-1.136 0-2.192-1.014-1.903-2.304C4.554 14.884 7.702 12 12.001 12"/><path fill="#090404" d="M17.5 12c.271 0 .514.167.611.42l.784 2.038c.115.297.35.532.647.646l2.038.785a.655.655 0 0 1 0 1.222l-1.556.598-.482.186-.108.05a1.13 1.13 0 0 0-.539.597l-.784 2.038a.655.655 0 0 1-1.222 0l-.784-2.038a1.13 1.13 0 0 0-.647-.647l-2.038-.784a.655.655 0 0 1 0-1.222l2.038-.784c.297-.115.532-.35.647-.647l.784-2.038A.655.655 0 0 1 17.5 12"/><path fill="#090404" d="M4 7.5c.18 0 .342.112.407.28l.484 1.255a1 1 0 0 0 .574.574l1.255.484a.436.436 0 0 1 0 .814l-1.255.484a1 1 0 0 0-.574.574l-.484 1.255a.436.436 0 0 1-.814 0l-.484-1.255a1 1 0 0 0-.574-.574l-1.255-.484a.436.436 0 0 1 0-.814l1.255-.484a1 1 0 0 0 .574-.574l.484-1.255A.44.44 0 0 1 4 7.5"/><path fill="#090404" d="M12 2a4.5 4.5 0 1 1 0 9 4.5 4.5 0 0 1 0-9"/></svg>