<svg xmlns="http://www.w3.org/2000/svg" fill="none" viewBox="0 0 24 24"><path fill="#090404" d="M15.863 2.068a1 1 0 0 1 .57 1.294l-7 18a1 1 0 0 1-1.865-.724l7-18a1 1 0 0 1 1.295-.57"/><path fill="#090404" d="M17 9.5a3 3 0 1 0 0 6 3 3 0 0 0 0-6"/><path fill="#090404" d="M16.854 16c-2.366 0-4.11 1.572-4.748 3.635-.42 1.357.748 2.365 1.84 2.365h5.816c1.091 0 2.258-1.008 1.84-2.365C20.963 17.572 19.218 16 16.853 16"/><path fill="#090404" d="M6.854 8.5c1.541 0 2.82.668 3.699 1.704L8.883 14.5H3.944c-1.091 0-2.258-1.008-1.84-2.365C2.744 10.072 4.489 8.5 6.855 8.5"/><path fill="#090404" d="M7 2a3 3 0 1 0 0 6 3 3 0 0 0 0-6"/></svg>