<svg xmlns="http://www.w3.org/2000/svg" fill="none" viewBox="0 0 24 24"><path fill="#090404" d="M10.877 20.01c.136.535-.324.99-.877.99H4c-.552 0-1.013-.455-.876-.99a4.002 4.002 0 0 1 7.753 0"/><circle cx="7" cy="12" r="2" fill="#090404"/><path fill="#090404" d="M18 15V3a1 1 0 1 0-2 0v12a1 1 0 1 0 2 0m-4-3V6a1 1 0 1 0-2 0v6a1 1 0 1 0 2 0m8-2V8a1 1 0 1 0-2 0v2a1 1 0 1 0 2 0M10 6V4a1 1 0 1 0-2 0v2a1 1 0 1 0 2 0"/><path fill="#090404" d="M7 16c2.335 0 4.295 1.6 4.845 3.764C12.187 21.106 11.011 22 10 22H4c-1.012 0-2.187-.894-1.846-2.236l.056-.201A5 5 0 0 1 7 16m0 2a3 3 0 0 0-2.828 2h5.657a3 3 0 0 0-2.83-2"/><path fill="#090404" d="M8 12a1 1 0 1 0-2 0 1 1 0 0 0 2 0m2 0a3 3 0 1 1-6 0 3 3 0 0 1 6 0"/></svg>