<svg xmlns="http://www.w3.org/2000/svg" fill="none" viewBox="0 0 24 24"><path fill="#090404" d="M12.002 13c4.299 0 7.446 2.884 8.303 6.696.29 1.29-.767 2.304-1.902 2.304H5.599c-1.135 0-2.192-1.015-1.902-2.304C4.554 15.883 7.702 13 12.002 13"/><path fill="#090404" d="M12 3.5a4 4 0 1 1 0 8 4 4 0 0 1 0-8"/><path fill="#090404" d="M6.871 11.617a1 1 0 1 1-1-1.732 1 1 0 0 1 1 1.732"/><path fill="#090404" d="M8.588 1.879a1 1 0 1 1-1.532 1.285A1 1 0 0 1 8.588 1.88"/><path fill="#090404" d="M5.772 5.387a1 1 0 1 1-.347 1.97 1 1 0 0 1 .347-1.97"/><path fill="#090404" d="M13 1a1 1 0 1 1-2 0 1 1 0 0 1 2 0"/><path fill="#090404" d="M17.129 11.617a1 1 0 1 0 1-1.732 1 1 0 0 0-1 1.732"/><path fill="#090404" d="M15.412 1.879a1 1 0 1 0 1.532 1.285 1 1 0 0 0-1.532-1.285"/><path fill="#090404" d="M18.228 5.387a1 1 0 1 0 .347 1.97 1 1 0 0 0-.347-1.97"/></svg>