<svg xmlns="http://www.w3.org/2000/svg" fill="none" viewBox="0 0 24 24"><path fill="#090404" d="M12 13.75c2.214 0 4 1.802 4 4.015V19a1 1 0 0 1-1 1H3a1 1 0 0 1-1-1v-1.235a4.01 4.01 0 0 1 4-4.015z"/><path fill="#090404" d="M18 13.75c2.214 0 4 1.802 4 4.015v1.184a1 1 0 0 1-1 1h-3v-2.184l-.008-.309a6 6 0 0 0-1.528-3.706z"/><path fill="#090404" d="M9 4a4.5 4.5 0 1 1 0 9 4.5 4.5 0 0 1 0-9"/><path fill="#090404" d="M15 4a4.5 4.5 0 0 1 .602 8.958 6 6 0 0 0-1.274-.74A6.47 6.47 0 0 0 15.5 8.5a6.48 6.48 0 0 0-1.668-4.347Q14.392 4.002 15 4"/></svg>