<svg xmlns="http://www.w3.org/2000/svg" fill="none" viewBox="0 0 24 24"><path fill="#090404" d="M15 3.25a1 1 0 1 1-2 0 1 1 0 0 1 2 0"/><circle cx="14" cy="6.5" r="1" fill="#090404"/><circle cx="17" cy="5" r=".75" fill="#090404"/><circle cx="17" cy="8" r=".75" fill="#090404"/><circle cx="14" cy="9.75" r="1" fill="#090404"/><circle cx="14" cy="13" r="1" fill="#090404"/><circle cx="17" cy="13" r=".75" fill="#090404"/><circle cx="20" cy="16.5" r=".75" fill="#090404"/><circle cx="14" cy="16.5" r="1" fill="#090404"/><circle cx="17" cy="16.5" r="1" fill="#090404"/><circle cx="14" cy="20" r="1" fill="#090404"/><circle cx="17" cy="20" r="1" fill="#090404"/><circle cx="20" cy="20" r="1" fill="#090404"/><path fill="#090404" d="M12 20.5a.5.5 0 0 1-.5.5H5.401c-1.104 0-2.016-.905-1.78-1.984.739-3.374 3.342-6.77 7.879-7.003.275-.014.5.21.5.487z"/><path fill="#090404" d="M7.5 6.5a4.5 4.5 0 0 0 4 4.473c.275.03.5-.197.5-.473v-8c0-.276-.225-.503-.5-.473a4.5 4.5 0 0 0-4 4.473"/></svg>