<svg xmlns="http://www.w3.org/2000/svg" fill="none" viewBox="0 0 24 24"><path fill="#090404" d="M12 10c-1.051 0-2.142.598-3.049 1.318-.944.75-1.856 1.767-2.563 2.873-.7 1.097-1.244 2.353-1.364 3.585-.122 1.263.206 2.554 1.311 3.502.815.698 1.711.85 2.556.626.76-.201 1.408-.689 1.89-1.102l.037-.032.034-.034c.183-.19.596-.372 1.164-.372.559 0 1.045.178 1.313.42l.01.01.01.008c.457.392 1.078.89 1.81 1.098.841.238 1.707.062 2.505-.622 1.106-.948 1.434-2.239 1.311-3.502-.12-1.232-.663-2.488-1.364-3.585-.707-1.106-1.619-2.123-2.563-2.873C14.141 10.598 13.05 10 12 10"/><path fill="#090404" d="M11.495 5.593c.086 1.932-.961 3.457-2.34 3.406-1.377-.052-2.564-1.66-2.65-3.592s.961-3.457 2.34-3.406c1.377.052 2.564 1.66 2.65 3.592"/><path fill="#090404" d="M12.505 5.593c-.086 1.932.961 3.457 2.34 3.406 1.377-.052 2.564-1.66 2.65-3.592s-.961-3.457-2.34-3.406c-1.377.052-2.564 1.66-2.65 3.592"/><path fill="#090404" d="M6.892 8.917c.4 1.786-.348 3.382-1.669 3.566s-2.716-1.115-3.115-2.9c-.4-1.786.348-3.382 1.669-3.566s2.716 1.115 3.115 2.9"/><path fill="#090404" d="M21.892 9.583c-.399 1.785-1.794 3.083-3.115 2.9s-2.069-1.78-1.67-3.566c.4-1.785 1.795-3.083 3.116-2.9s2.069 1.78 1.67 3.566"/></svg>