<svg xmlns="http://www.w3.org/2000/svg" fill="none" viewBox="0 0 24 24"><path fill="#090404" fill-rule="evenodd" d="M6 5a2 2 0 0 1 2-2h8a2 2 0 0 1 2 2v14a2 2 0 0 1-2 2H8a2 2 0 0 1-2-2zm4 1a1 1 0 0 1 1-1h2a1 1 0 0 1 0 2h-2a1 1 0 0 1-1-1M4.207 7.293a1 1 0 0 1 0 1.414L2.82 10.094l.53.706a2 2 0 0 1 0 2.4l-.53.706 1.387 1.387a1 1 0 1 1-1.414 1.414L1.406 15.32a2 2 0 0 1-.186-2.614L1.75 12l-.53-.706a2 2 0 0 1 .186-2.614l1.387-1.387a1 1 0 0 1 1.414 0m15.586 0a1 1 0 0 1 1.414 0l1.387 1.387a2 2 0 0 1 .186 2.614l-.53.706.53.706a2 2 0 0 1-.186 2.614l-1.387 1.387a1 1 0 0 1-1.414-1.414l1.387-1.387-.53-.706a2 2 0 0 1 0-2.4l.53-.706-1.387-1.387a1 1 0 0 1 0-1.414" clip-rule="evenodd"/></svg>