<svg xmlns="http://www.w3.org/2000/svg" fill="none" viewBox="0 0 24 24"><path fill="#090404" d="M8.319 16.03c-.104-.672-.387-1.219-1.076-1.483-.269-.103-.502-.291-.768-.41a6 6 0 0 0-.927-.348c-.24-.064-.465.044-.608.255-.135.199-.037.386.076.552.128.187.27.365.412.54.238.292.489.571.72.867.22.282.408.595.376.969-.07.82-.442 1.5-1.04 2.052a.4.4 0 0 1-.267.094 1.7 1.7 0 0 1-1.008-.452c-.321-.306-.272-.666.112-.889.092-.052.187-.101.27-.166a.59.59 0 0 0 .186-.74c-.06-.126-.128-.263-.229-.354-.491-.447-.973-.909-1.5-1.316-1.274-.99-1.929-2.3-2.03-3.886a8.15 8.15 0 0 1 1.225-4.908c.352-.572.762-1.116 1.391-1.398.428-.192.897-.3 1.355-.42 1.26-.331 2.53-.58 3.841-.358 1.13.19 1.956.77 2.335 1.88.249.726.308 1.476.23 2.245-.152 1.51-1.267 2.859-2.72 3.258-.631.173-.975.076-1.354-.448-.272-.378-.498-.79-.741-1.187-.037-.06-.062-.128-.093-.191q-.046-.094-.093-.187c.091.655.244 1.285.6 1.847.194.306.452.531.83.565 1.39.125 2.562-.332 3.395-1.45.932-1.25 1.137-2.688.867-4.203-.052-.299-.141-.592-.204-.89-.043-.191.033-.333.223-.4.087-.03.178-.054.265-.072a11 11 0 0 1 3.446-.21c1.315.132 2.559.493 3.671 1.224 1.742 1.146 2.82 2.777 3.407 4.75.085.285.098.598.106.9.005.201-.124.254-.277.128a4 4 0 0 1-.47-.458c-.135-.153-.243-.328-.375-.49-.102-.126-.19-.107-.24.05q-.044.143-.085.286c-.304 1.085-.783 2.075-1.56 2.909a.82.82 0 0 0-.218.446c-.034.428-.058.865-.017 1.292.085.916.218 1.829.32 2.744.059.517-.107.821-.593 1a4 4 0 0 1-1.07.243c-.574.04-1.154.011-1.732.011-.015-.644.04-1.277-.566-1.623.118-.478.253-.932.334-1.396.067-.385.01-.764-.26-1.08-.254-.298-.572-.379-.864-.209-.877.512-1.79.515-2.72.18-.426-.155-.724-.068-.96.322-.254.419-.361.89-.333 1.365.037.6.14 1.192.22 1.79.045.333.007.42-.324.504-.736.187-1.485.208-2.238.147-.04-.003-.08-.02-.106-.027-.037-.625.029-1.275-.716-1.607.33-.7.285-1.426.171-2.152zm-4.45-2.452a.83.83 0 0 0 .228-.413c.077-.371-.201-.869-.524-1.006q-.258-.114-.442.088-.442.502-.876 1.011a1 1 0 0 0-.128.195c-.116.223-.048.385.2.446.15.037.304.045.458.067.4-.039.786-.106 1.084-.387zm.033-3.712a.495.495 0 0 0-.485-.488.503.503 0 0 0-.492.505c.012.267.233.481.499.476a.486.486 0 0 0 .48-.491z"/></svg>