<svg xmlns="http://www.w3.org/2000/svg" fill="none" viewBox="0 0 24 24"><path fill="#090404" d="m5.997 10.27-.41 2.466h.986c.74-.082 1.397-.328 1.48-1.726 0-.493-.412-.74-.987-.74z"/><path fill="#090404" d="m17.011 10.27-.411 2.466h.986c.74-.082 1.398-.328 1.48-1.726 0-.493-.411-.74-.986-.74z"/><path fill="#090404" fill-rule="evenodd" d="M24 11.997c0 3.45-5.373 6.246-12 6.246S0 15.446 0 11.997 5.373 5.75 12 5.75s12 2.797 12 6.247M4.682 9.037l-1.315 6.658H4.93l.329-1.726h1.479c1.397.082 2.959-1.068 2.959-3.04 0-1.152-.658-1.81-1.973-1.891zm6.023-1.725L9.39 13.969h1.562l.74-3.698h1.233c.575 0 .575.246.493.657l-.576 3.041h1.644l.576-3.37c.164-.822-.33-1.48-1.644-1.561h-1.48l.33-1.726zm4.991 1.726-1.315 6.657h1.562l.328-1.726h1.48c1.397.082 2.959-1.068 2.959-3.04 0-1.152-.658-1.81-1.973-1.891z" clip-rule="evenodd"/></svg>