<svg xmlns="http://www.w3.org/2000/svg" fill="none" viewBox="0 0 24 24"><path fill="#090404" fill-rule="evenodd" d="M12 22c5.523 0 10-4.477 10-10S17.523 2 12 2 2 6.477 2 12s4.477 10 10 10M11 8a1.1 1.1 0 1 1-2.2 0A1.1 1.1 0 0 1 11 8m2.1 4a1.1 1.1 0 1 1-2.2 0 1.1 1.1 0 0 1 2.2 0m-3.2 5.1a1.1 1.1 0 1 0 0-2.2 1.1 1.1 0 0 0 0 2.2M15.2 8A1.1 1.1 0 1 1 13 8a1.1 1.1 0 0 1 2.2 0m-1.1 9.1a1.1 1.1 0 1 0 0-2.2 1.1 1.1 0 0 0 0 2.2M8.35 12a1.1 1.1 0 1 1-2.2 0 1.1 1.1 0 0 1 2.2 0m8.395 1.1a1.1 1.1 0 1 0 0-2.2 1.1 1.1 0 0 0 0 2.2" clip-rule="evenodd"/></svg>