<svg xmlns="http://www.w3.org/2000/svg" fill="none" viewBox="0 0 24 24"><path fill="#090404" d="m16.173 2.3-.024-.007a4 4 0 0 0-.402-.098 1.5 1.5 0 0 0-.66.031c-.35.1-.671.344-.863.654a1.5 1.5 0 0 0-.21.648 5 5 0 0 0-.014.44v4.256c0 .119 0 .261.01.386.012.146.043.353.154.571a1.5 1.5 0 0 0 .655.656c.218.111.426.141.571.153.125.01.268.01.387.01h4.256c.132 0 .295 0 .44-.014.174-.017.41-.062.648-.21.31-.191.553-.512.653-.862.073-.255.061-.481.031-.66-.023-.14-.066-.29-.097-.403l-.007-.024A8.01 8.01 0 0 0 16.173 2.3"/><path fill="#090404" d="M11 4a9 9 0 1 0 9 9 1 1 0 0 0-1-1h-6.4c-.296 0-.459 0-.575-.01l-.014-.001v-.014A8 8 0 0 1 12 11.4V5a1 1 0 0 0-1-1"/></svg>