<svg xmlns="http://www.w3.org/2000/svg" fill="none" viewBox="0 0 24 24"><path fill="#090404" fill-rule="evenodd" d="M9 21a2 2 0 0 0 2-2h2a2 2 0 0 0 2 2h2a2 2 0 0 0 2-2v-2.11q.496-.507.883-1.105a3 3 0 0 0 3.714-4.286 1 1 0 1 0-1.731 1.002 1 1 0 0 1-1.146 1.46A7 7 0 0 0 14 5h-3.992a5 5 0 0 0-.508-.554c-.59-.549-1.51-1.13-2.839-1.353C5.391 2.88 4.5 3.954 4.5 5v2.084c-.519.56-.89 1.203-1.176 1.851H3a2 2 0 0 0-2 2V14a2 2 0 0 0 2 2h.448c.433.632.923 1.12 1.552 1.551v1.45a2 2 0 0 0 2 2zm-.75-9a1.25 1.25 0 1 0 0-2.5 1.25 1.25 0 0 0 0 2.5" clip-rule="evenodd"/></svg>