<svg xmlns="http://www.w3.org/2000/svg" fill="none" viewBox="0 0 24 24"><path fill="#090404" d="M2 6a3 3 0 0 1 4.729-2.452.9.9 0 0 0 .358.167C8.547 3.357 10.393 3 12 3s3.454.357 4.913.715c.017 0 .171-.035.358-.167A3 3 0 0 1 21.52 7.63a.9.9 0 0 0-.151.364C21.693 9.2 22 10.676 22 12s-.307 2.8-.632 4.006a.9.9 0 0 0 .15.364 3 3 0 0 1-4.241 4.086.9.9 0 0 0-.358-.165C15.47 20.647 13.632 21 12 21s-3.468-.353-4.92-.71a.9.9 0 0 0-.357.166 3 3 0 0 1-4.241-4.086.9.9 0 0 0 .15-.364C2.307 14.8 2 13.325 2 12s.307-2.8.632-4.006a.9.9 0 0 0-.15-.364A3 3 0 0 1 2 6"/></svg>