<svg xmlns="http://www.w3.org/2000/svg" fill="none" viewBox="0 0 24 24"><path fill="#090404" fill-rule="evenodd" d="M5 3a3 3 0 0 0-2.519 4.63c.127.195.153.35.151.364C2.307 9.2 2 10.676 2 12s.307 2.8.632 4.006a.9.9 0 0 1-.15.364 3 3 0 0 0 4.241 4.086.9.9 0 0 1 .358-.165C8.53 20.647 10.368 21 12 21s3.468-.353 4.92-.71a.9.9 0 0 1 .357.166 3 3 0 0 0 4.241-4.086.9.9 0 0 1-.15-.364C21.693 14.8 22 13.325 22 12s-.307-2.8-.632-4.006a.9.9 0 0 1 .15-.364 3 3 0 0 0-4.248-4.082.9.9 0 0 1-.357.167C15.453 3.357 13.607 3 12 3s-3.454.357-4.913.715a.9.9 0 0 1-.358-.167A3 3 0 0 0 5 3m5 5.5a1 1 0 0 0 0 2h1.92l-2.7 3.375A1 1 0 0 0 10 15.5h4a1 1 0 1 0 0-2h-1.92l2.7-3.375A1 1 0 0 0 14 8.5z" clip-rule="evenodd"/></svg>