<svg xmlns="http://www.w3.org/2000/svg" fill="none" viewBox="0 0 24 24"><path fill="#090404" d="M14 5a1 1 0 1 0 0 2 1 1 0 0 0 0-2"/><path fill="#090404" d="M11 6c0-.565.157-1.094.428-1.545l-4.258.73a14 14 0 0 0 4.995 8.675 4.002 4.002 0 0 1 7.306-.85l1.276-7.448a2 2 0 0 0-2.309-2.309l-2.527.433A3 3 0 1 1 11 6"/><path fill="#090404" d="m17.317 16.51.092-.09A2 2 0 1 0 14 15v.127a14 14 0 0 0 3.317 1.384"/><path fill="#090404" d="M18.477 18.802c-6.816-1.08-12.2-6.463-13.28-13.28l-1.367.235c-1.083.186-1.869 1.244-1.588 2.387a18.5 18.5 0 0 0 4.911 8.702 18.5 18.5 0 0 0 8.703 4.912c1.142.28 2.2-.505 2.386-1.588z"/></svg>