<svg xmlns="http://www.w3.org/2000/svg" fill="none" viewBox="0 0 24 24"><path fill="#090404" d="M12 15.5c1.127 0 2.008.973 1.896 2.095l-.351 3.507a1.553 1.553 0 0 1-3.09 0l-.35-3.507A1.905 1.905 0 0 1 12 15.5"/><path fill="#090404" d="M12 2c5.523 0 10 4.477 10 10a9.99 9.99 0 0 1-4.47 8.333 1 1 0 0 1-1.107-1.666 8 8 0 1 0-9.241-.28l.395.28.082.061a1 1 0 0 1-1.101 1.657l-.088-.052-.25-.172A9.99 9.99 0 0 1 2 12C2 6.477 6.477 2 12 2"/><path fill="#090404" d="M12 6a6 6 0 0 1 4.8 9.602 1 1 0 0 1-1.6-1.203 4 4 0 1 0-6.4 0 1 1 0 0 1-1.6 1.203A6 6 0 0 1 12 6"/><path fill="#090404" d="M12 10a2 2 0 1 1 0 4 2 2 0 0 1 0-4"/></svg>