<svg xmlns="http://www.w3.org/2000/svg" fill="none" viewBox="0 0 24 24"><path fill="#090404" d="M20.285 7a2.297 2.297 0 0 0-1.313-1.388l-.049-.02a2.3 2.3 0 0 1-.75-.49 2.3 2.3 0 0 1-.502-.736l-.02-.048a2.28 2.28 0 0 0-.98-1.094c-.44-.25-.952-.35-1.457-.285l-.056.008a2.36 2.36 0 0 1-1.713-.45l-.038-.029A2.34 2.34 0 0 0 12 2c-.509 0-1.003.164-1.407.468l-.044.033a2.33 2.33 0 0 1-1.707.448l-.058-.007a2.35 2.35 0 0 0-1.457.284c-.44.25-.785.635-.98 1.095l-.019.046a2.3 2.3 0 0 1-.501.737c-.215.21-.47.377-.752.49l-.047.02A2.3 2.3 0 0 0 3.715 7z"/><path fill="#090404" d="M4.189 9a.5.5 0 0 0-.496.564l1.37 10.69A2 2 0 0 0 7.047 22H8.44L7.675 9z"/><path fill="#090404" d="m9.679 9 .764 13h3.115l.764-13z"/><path fill="#090404" d="m16.325 9-.764 13h1.392a2 2 0 0 0 1.984-1.746l1.37-10.69A.5.5 0 0 0 19.813 9z"/></svg>