<svg xmlns="http://www.w3.org/2000/svg" fill="none" viewBox="0 0 24 24"><path fill="#090404" fill-rule="evenodd" d="M12 2.5c1.734 0 3.345.233 4.558.637.601.2 1.16.462 1.589.8.418.329.853.85.853 1.563v4.78l1.975 4.28c.677 1.468.843 3.631-.889 4.87-1.48 1.06-3.979 2.07-8.086 2.07s-6.607-1.01-8.087-2.07c-1.731-1.239-1.566-3.402-.89-4.87L5 10.28V5.5c0-.714.435-1.234.852-1.563.429-.338.988-.6 1.589-.8C8.653 2.733 10.265 2.5 12 2.5m5.562 9.439a6.5 6.5 0 0 1-1.004.424C15.345 12.767 13.734 13 12 13c-1.735 0-3.347-.233-4.56-.637a6.5 6.5 0 0 1-1.004-.425L4.839 15.4c-.509 1.104-.333 1.997.239 2.406 1.08.773 3.151 1.695 6.921 1.695s5.841-.922 6.922-1.695c.572-.41.748-1.302.239-2.406zM11.999 4.5c-1.579 0-2.967.215-3.926.534-.476.159-.793.327-.973.466.18.139.497.307.973.466.959.32 2.347.534 3.926.534s2.968-.215 3.927-.534c.475-.159.792-.327.972-.466-.18-.139-.497-.307-.972-.466C14.967 4.714 13.58 4.5 12 4.5" clip-rule="evenodd"/></svg>