<svg xmlns="http://www.w3.org/2000/svg" fill="none" viewBox="0 0 24 24"><path fill="#090404" fill-rule="evenodd" d="M2 6a2 2 0 0 1 2-2h2a1 1 0 0 1 0 2H4v2a1 1 0 0 1-2 0zm15-1a1 1 0 0 1 1-1h2a2 2 0 0 1 2 2v2a1 1 0 1 1-2 0V6h-2a1 1 0 0 1-1-1M7 10a1 1 0 0 1 1-1h8a1 1 0 1 1 0 2H8a1 1 0 0 1-1-1m0 4a1 1 0 0 1 1-1h6a1 1 0 1 1 0 2H8a1 1 0 0 1-1-1m-4 1a1 1 0 0 1 1 1v2h2a1 1 0 1 1 0 2H4a2 2 0 0 1-2-2v-2a1 1 0 0 1 1-1m18 0a1 1 0 0 1 1 1v2a2 2 0 0 1-2 2h-2a1 1 0 1 1 0-2h2v-2a1 1 0 0 1 1-1" clip-rule="evenodd"/></svg>