<svg xmlns="http://www.w3.org/2000/svg" fill="none" viewBox="0 0 24 24"><path fill="#090404" d="m18.32 12.594-7.37 7.371a2 2 0 0 1-1.167.57l-3.659.457a1 1 0 0 1-1.116-1.116l.457-3.659c.055-.441.256-.852.57-1.167l7.37-7.371z"/><path fill="#090404" d="M16.586 4.5a2 2 0 0 1 2.828 0L21.5 6.586a2 2 0 0 1 0 2.828l-1.906 1.906-4.915-4.914z"/><path fill="#090404" d="m7.24 4.185-.696-1.812a.582.582 0 0 0-1.088 0L4.76 4.185a1 1 0 0 1-.575.575l-1.812.696a.582.582 0 0 0 0 1.088l1.812.696a1 1 0 0 1 .575.575l.696 1.812a.582.582 0 0 0 1.088 0l.696-1.812a1 1 0 0 1 .575-.575l1.812-.696a.582.582 0 0 0 0-1.088L7.815 4.76a1 1 0 0 1-.575-.575"/></svg>