<svg xmlns="http://www.w3.org/2000/svg" fill="none" viewBox="0 0 24 24"><path fill="#090404" d="M8 4.5C8.514-1.671 21.145 3 19.5 6c-.823 1.5-2.78.853-4.5 2-.333.222-.623.425-.878.61a4 4 0 0 0-2.12-.61 4 4 0 0 0-2.695 1.042C8.762 7.873 7.894 5.778 8 4.5"/><path fill="#090404" d="M7.505 19.215C1.904 21.855-.366 8.58 3.055 8.505c1.71-.037 2.128 1.981 3.981 2.898q.538.264.967.455A4 4 0 0 0 8.536 14a4 4 0 0 0 2.25 1.812c-.74 1.057-2.12 2.856-3.28 3.403"/><path fill="#090404" d="M20.496 12.286c5.087 3.531-5.274 12.134-7.05 9.21-.887-1.463.652-2.834.519-4.898-.026-.4-.056-.752-.09-1.065a4 4 0 0 0 1.59-1.532c.518-.898.65-1.915.444-2.854 1.285.112 3.533.408 4.587 1.14"/><path fill="#090404" d="M14 12a2 2 0 1 1-4 0 2 2 0 0 1 4 0"/></svg>