<svg xmlns="http://www.w3.org/2000/svg" fill="none" viewBox="0 0 24 24"><path fill="#090404" fill-rule="evenodd" d="M12.632 3.442c2.101-1.19 4.817-1.698 8.44-1.44a1 1 0 0 1 .925.927c.26 3.622-.249 6.338-1.44 8.439-1.088 1.92-2.689 3.226-4.557 4.239v1.933a2 2 0 0 1-.698 1.518L12.15 21.76a1 1 0 0 1-1.599-.44l-.002-.007-.01-.027-.04-.113a24.106 24.106 0 0 0-.76-1.855c-.526-1.142-1.215-2.378-1.947-3.11s-1.968-1.421-3.11-1.948a24 24 0 0 0-1.968-.8l-.028-.01-.006-.001a1.002 1.002 0 0 1-.44-1.599l2.7-3.15a2 2 0 0 1 1.519-.7h1.933c1.013-1.867 2.318-3.468 4.239-4.557M15.5 10.5a2 2 0 1 0 0-4 2 2 0 0 0 0 4" clip-rule="evenodd"/><path fill="#090404" d="M5.207 16.793a1 1 0 0 1 0 1.414l-2.5 2.5a1 1 0 0 1-1.414-1.414l2.5-2.5a1 1 0 0 1 1.414 0"/><path fill="#090404" d="M7.207 20.207a1 1 0 1 0-1.414-1.414l-1.5 1.5a1 1 0 1 0 1.414 1.414z"/></svg>