<svg xmlns="http://www.w3.org/2000/svg" fill="none" viewBox="0 0 24 24"><path fill="#090404" fill-rule="evenodd" d="M6.189 7c.238.144.614.303 1.136.453C8.48 7.783 10.133 8 12 8s3.52-.217 4.675-.547c.523-.15.898-.31 1.136-.453-.238-.144-.613-.303-1.136-.453C15.52 6.217 13.867 6 12 6s-3.52.217-4.675.547c-.522.15-.898.31-1.136.453M18 9.118a9 9 0 0 1-.776.258C15.846 9.77 14 10 12 10s-3.846-.23-5.224-.624A9 9 0 0 1 6 9.118v4.75q.035.03.11.082c.23.156.63.336 1.215.503C8.48 14.783 10.133 15 12 15s3.52-.217 4.675-.547c.584-.167.984-.347 1.215-.503a1 1 0 0 0 .11-.083zM4 13.37V7c0-.784.548-1.308.99-1.607.478-.323 1.103-.574 1.786-.769C8.154 4.23 10 4 12 4s3.846.23 5.224.624c.683.195 1.308.446 1.786.769.442.299.99.823.99 1.607v6.37c.675.23 1.272.502 1.749.82.604.402 1.251 1.044 1.251 1.957 0 .902-.632 1.54-1.226 1.94-.63.426-1.474.77-2.428 1.042-1.922.55-4.519.875-7.346.875s-5.424-.326-7.346-.875c-.954-.273-1.799-.616-2.428-1.041C1.632 17.686 1 17.049 1 16.148c0-.914.647-1.556 1.251-1.959.477-.317 1.074-.589 1.749-.82m14.039-6.54q.005-.01.006-.01zm-12.078 0-.006-.01q0 0 .006.01" clip-rule="evenodd"/></svg>