<svg xmlns="http://www.w3.org/2000/svg" fill="none" viewBox="0 0 24 24"><path fill="#090404" fill-rule="evenodd" d="M3 5a2 2 0 0 1 2-2h4a2 2 0 0 1 2 2v4a2 2 0 0 1-2 2H5a2 2 0 0 1-2-2zm6 0H5v4h4z" clip-rule="evenodd"/><path fill="#090404" fill-rule="evenodd" d="M3 15a2 2 0 0 1 2-2h4a2 2 0 0 1 2 2v4a2 2 0 0 1-2 2H5a2 2 0 0 1-2-2zm6 0H5v4h4z" clip-rule="evenodd"/><path fill="#090404" fill-rule="evenodd" d="M13 5a2 2 0 0 1 2-2h4a2 2 0 0 1 2 2v4a2 2 0 0 1-2 2h-4a2 2 0 0 1-2-2zm6 0h-4v4h4z" clip-rule="evenodd"/><path fill="#090404" fill-rule="evenodd" d="M14 13a1 1 0 0 1 1 1v1h1a1 1 0 1 1 0 2h-2a1 1 0 0 1-1-1v-2a1 1 0 0 1 1-1m3 1a1 1 0 0 1 1-1h2a1 1 0 1 1 0 2h-2a1 1 0 0 1-1-1m0 4a1 1 0 0 1 1-1h2a1 1 0 1 1 0 2h-1v1a1 1 0 1 1-2 0z" clip-rule="evenodd"/><path fill="#090404" d="M15 20a1 1 0 1 1-2 0 1 1 0 0 1 2 0"/><path fill="#090404" d="M6 17a1 1 0 1 1 2 0 1 1 0 0 1-2 0"/><path fill="#090404" d="M6 7a1 1 0 1 1 2 0 1 1 0 0 1-2 0"/><path fill="#090404" d="M16 7a1 1 0 1 1 2 0 1 1 0 0 1-2 0"/></svg>