<svg xmlns="http://www.w3.org/2000/svg" fill="none" viewBox="0 0 24 24"><path fill="#090404" d="M12.03 2c2.319 0 4.453.79 6.152 2.11l.282-.28a1.25 1.25 0 0 1 1.767 1.767l-6.24 6.239Q14 11.917 14 12a2 2 0 1 1-1.729-1.98l1.387-1.386a3.75 3.75 0 1 0 1.999 4.201 1.25 1.25 0 0 1 2.438.553A6.251 6.251 0 0 1 5.75 12a6.25 6.25 0 0 1 9.731-5.19l.914-.914a7.53 7.53 0 1 0 2.979 4.459 1.25 1.25 0 0 1 2.439-.552c.162.717.248 1.463.248 2.227 0 5.54-4.491 10.03-10.03 10.03C6.49 22.06 2 17.57 2 12.03 2 6.49 6.49 2 12.03 2"/></svg>