<svg xmlns="http://www.w3.org/2000/svg" fill="none" viewBox="0 0 24 24"><path fill="#090404" d="M12 17a1 1 0 0 1 1 1v3a1 1 0 1 1-2 0v-3a1 1 0 0 1 1-1"/><path fill="#090404" d="M4.929 4.929a1 1 0 0 1 1.414 0l6.364 6.364.01.01.046.05.02.026q.02.024.036.05.012.014.023.032l.022.037.024.041.029.063a1 1 0 0 1 .064.59 1 1 0 0 1-.093.268l-.01.017q-.066.121-.163.22l-.008.01-6.364 6.364a1 1 0 0 1-1.414-1.414L9.586 13H3a1 1 0 1 1 0-2h6.586L4.929 6.343a1 1 0 0 1 0-1.414"/><path fill="#090404" d="M15.535 15.535a1 1 0 0 1 1.415 0l2.121 2.121a1 1 0 0 1-1.414 1.414l-2.122-2.12a1 1 0 0 1 0-1.415"/><path fill="#090404" d="M21 11a1 1 0 1 1 0 2h-3a1 1 0 1 1 0-2z"/><path fill="#090404" d="M17.657 4.929a1 1 0 0 1 1.414 1.414l-2.12 2.12a1.001 1.001 0 0 1-1.416-1.413z"/><path fill="#090404" d="M12 2a1 1 0 0 1 1 1v3a1 1 0 1 1-2 0V3a1 1 0 0 1 1-1"/></svg>