<svg xmlns="http://www.w3.org/2000/svg" fill="none" viewBox="0 0 24 24"><path fill="#090404" fill-rule="evenodd" d="M3 12a9 9 0 0 1 9-9 9.15 9.15 0 0 1 6.012 2.254V4a1 1 0 0 1 2 0v4a1 1 0 0 1-1 1h-4a1 1 0 0 1 0-2h1.945A7.15 7.15 0 0 0 12 5a7 7 0 0 0-7 7 1 1 0 1 1-2 0m8 0a1 1 0 0 1 1-1h.01a1 1 0 1 1 0 2H12a1 1 0 0 1-1-1m9-1a1 1 0 0 1 1 1 9 9 0 0 1-9 9 9.15 9.15 0 0 1-6-2.244V20a1 1 0 1 1-2 0v-4a1 1 0 0 1 1-1h4a1 1 0 1 1 0 2H7.043A7.15 7.15 0 0 0 12 19a7 7 0 0 0 7-7 1 1 0 0 1 1-1" clip-rule="evenodd"/></svg>