<svg xmlns="http://www.w3.org/2000/svg" fill="none" viewBox="0 0 24 24"><path fill="#090404" fill-rule="evenodd" d="M6 2a2 2 0 0 0-2 2v17a1 1 0 0 0 1.65.76l1.683-1.443 1.683 1.442a1 1 0 0 0 1.302 0L12 20.317l1.682 1.442a1 1 0 0 0 1.302 0l1.683-1.442 1.682 1.442A1 1 0 0 0 20 21V4a2 2 0 0 0-2-2zm9.957 5.043a1 1 0 0 1 0 1.414l-6.5 6.5a1 1 0 0 1-1.414-1.414l6.5-6.5a1 1 0 0 1 1.414 0M10.25 8a1.25 1.25 0 1 1-2.5 0 1.25 1.25 0 0 1 2.5 0M15 15.25a1.25 1.25 0 1 0 0-2.5 1.25 1.25 0 0 0 0 2.5" clip-rule="evenodd"/></svg>