<svg xmlns="http://www.w3.org/2000/svg" fill="none" viewBox="0 0 24 24"><path fill="#090404" d="M14 2.5a1 1 0 1 1 0 2h-.998v1.547a8.9 8.9 0 0 1 3.175.9l-.064.166-1.325.511a2.01 2.01 0 0 0 0 3.752l1.325.51.511 1.326a2.01 2.01 0 0 0 3.752 0l.242-.632c.252.927.382 1.909.382 2.92a1 1 0 0 1-1 1h-7l.001 1.5H20a1 1 0 1 1 0 2H4a1 1 0 1 1 0-2h7.001L11 16.5H4a1 1 0 0 1-1-1c0-2.556.818-4.93 2.38-6.677 1.38-1.543 3.3-2.552 5.622-2.776V4.5H10a1 1 0 0 1 0-2z"/><path fill="#090404" d="M18.5 6c.21 0 .4.13.476.327l.59 1.533a1 1 0 0 0 .574.575l1.533.59a.51.51 0 0 1 0 .95l-1.533.59a1 1 0 0 0-.575.575l-.59 1.533a.51.51 0 0 1-.95 0l-.59-1.533a1 1 0 0 0-.575-.575l-1.533-.59a.51.51 0 0 1 0-.95l1.533-.59a1 1 0 0 0 .575-.575l.59-1.533A.51.51 0 0 1 18.5 6"/></svg>