<svg xmlns="http://www.w3.org/2000/svg" fill="none" viewBox="0 0 24 24"><g fill="#090404" opacity=".5"><path d="M18.744 8.733c.708.017 1.629.229 2.11.554.422.285.683.464.936.944.056.098.048.196.08.293a23 23 0 0 1-.146 1.27 6 6 0 0 1-.122.505c-.049.17-.407.293-.464.456-.122-.537-.4-.945-.782-1.222-.374-.276-.87-.422-1.433-.455-.561-.032-1.189.057-1.865.269-.667.203-1.376.529-2.1.968-.725.44-1.393.953-1.995 1.514a12.3 12.3 0 0 0-1.572 1.791 8.2 8.2 0 0 0-1.034 1.888c-.236.635-.358 1.254-.334 1.815.024.497.163.92.4 1.254a2 2 0 0 0 1.001.733c.432.146.944.203 1.514.146.424-.04.888-.138 1.377-.3l-.196.073-.179.056-.643.188-.668.146-.367.065-.732.09-.75.048h-.106a7 7 0 0 1-1.302-.178 2.13 2.13 0 0 1-.977-.513 2.3 2.3 0 0 1-.619-.863 3.3 3.3 0 0 1-.22-1.172c-.008-.7.163-1.466.48-2.255a11.4 11.4 0 0 1 1.328-2.345 15 15 0 0 1 1.97-2.222c.75-.7 1.58-1.342 2.476-1.896a13 13 0 0 1 2.606-1.246c.797-.269 1.546-.399 2.23-.399z"/><path fill-rule="evenodd" d="M18.835 14.887c.195 0 .374.016.546.056.341.074.651.196.855.415.203.228.398.514.423.88.032.366-.081.724-.325 1.212-.204.407-.539.717-.872 1.132-.334.415-.733.79-1.189 1.14-.464.35-.863.684-1.392.92-.521.227-1.002.488-1.45.544-.384.042-.732.03-1.029-.046l-.003-.001a2 2 0 0 1-.14-.041 1.43 1.43 0 0 1-.757-.546c-.171-.253-.26-.57-.245-.945.017-.374.13-.765.318-1.164.187-.398.456-.797.773-1.172a7.41 7.41 0 0 1 2.476-1.889 5.5 5.5 0 0 1 1.384-.447c.22-.04.423-.056.619-.056 0 0 .008 0 .008.008m-.367 2.124a1.4 1.4 0 0 0-.561-.016c-.212.033-.44.105-.676.211a4 4 0 0 0-.668.407 3.7 3.7 0 0 0-.546.522 2.4 2.4 0 0 0-.366.57q-.136.292-.138.56c0 .18.048.327.138.449s.212.203.375.252q.159.049.342.049c.073 0 .146-.009.22-.017.22-.024.456-.09.7-.203.244-.106.48-.252.692-.415.212-.171.407-.35.562-.546.154-.195.284-.398.366-.594.081-.195.122-.39.114-.57a.7.7 0 0 0-.163-.43.75.75 0 0 0-.39-.23" clip-rule="evenodd"/><path d="M7.41 20.071a2 2 0 0 1-.228-.08z"/><path d="M16.75 4.15c.488 0 .969.04 1.295.162.553.196 1.05.53 1.342 1.026l.22.497.863 2.263-.268.056c-.171-.683-.269-1.253-.774-1.587-.496-.325-1.131-.489-1.856-.497-.717 0-1.84.212-2.695.513-.847.293-1.743.733-2.663 1.32-.92.585-1.783 1.27-2.565 2.01a17.4 17.4 0 0 0-2.068 2.352 12.5 12.5 0 0 0-1.442 2.499c-.35.838-.553 1.669-.578 2.425-.008.375.025.709.098 1.018q.12.465.35.83c.155.244.35.456.586.627q.27.194.587.326l-.407-.146-.709-.31-.635-.342-.668-.423a2.36 2.36 0 0 1-.87-1.082 3.2 3.2 0 0 1-.196-.733 4.2 4.2 0 0 1-.032-.855c.049-.806.284-1.685.683-2.58.383-.88.92-1.783 1.572-2.663.643-.87 1.4-1.733 2.239-2.522a18.7 18.7 0 0 1 2.744-2.174 15 15 0 0 1 2.565-1.351c.83-.326 1.612-.529 2.329-.602.293-.033.627-.05.953-.058"/><path d="M12.89 2.067c.382 0 .765.049 1.042.09.456.064.871.22 1.213.325l.627.252.277.22.545.488.408.424a2.3 2.3 0 0 0-1.083-.578c-.48-.122-1.034-.138-1.653-.057-.61.082-1.27.26-1.97.529-.7.268-1.434.635-2.19 1.09a18.3 18.3 0 0 0-2.647 1.947 19 19 0 0 0-2.223 2.295c-.66.806-1.222 1.636-1.646 2.458-.431.838-.723 1.66-.837 2.426q-.05.332-.05.626c0 .196.016.383.04.562q.048.271.132.505c.04.122.097.236.162.35l-.187-.301-.106-.188a8 8 0 0 1-.31-.724c-.09-.244-.122-.39-.179-.643-.138-.594-.26-1.417-.252-1.547s-.016-.26.008-.398c.122-.708.301-1.482.716-2.263a14 14 0 0 1 1.58-2.32 19 19 0 0 1 2.134-2.182A19 19 0 0 1 8.964 3.59a13.6 13.6 0 0 1 1.858-.968c.594-.252.944-.375 1.474-.49a3.5 3.5 0 0 1 .593-.064"/><path d="M9.435 2.597c-.708.098-1.905.854-2.393 1.213-.806.594-1.255 1.065-1.922 1.716-.676.652-1.042 1.067-1.53 1.881-.44.733-.718 1.392-.88 2.019-.017.065-.025.13-.041.187-.017.065-.025.122-.033.179-.016.057-.016.114-.024.17 0 .042-.008.075-.008.115l.008-.163.057-.635.106-.708.073-.521c.005-.013.165-.468.301-.75.277-.569.513-.854.912-1.342.994-1.221 1.808-1.67 3.168-2.516a9.6 9.6 0 0 1 1.205-.65c.293-.146.975-.22 1.05-.204.016 0 0 0-.049.009"/></g><path fill="#090404" d="m20.578 16.929-.04.06a5 5 0 0 1-.236.527c-.114.203-.334.488-.334.488l-.122.162c-.135.175-.356.427-.366.44l-.302.333q-.479.487-1.067.937c-.399.293-.83.57-1.287.822s-.944.472-1.44.66a10 10 0 0 1-1.833.504l-.293.05-.137.018q-.076.008-.148.021l-.277.025-.561.024h-.122l-.603-.016-.611-.057c-.005-.001-.108-.017-.171-.025a6 6 0 0 1-.651-.113c-.261-.049-.652-.155-.652-.155L9 21.52l-.089-.04c.228.089.537.178.83.22.301.048.627.072.969.072.342.009.709-.016 1.083-.048.383-.041.774-.107 1.18-.188a13.8 13.8 0 0 0 2.754-.903c.887-.39 1.718-.863 2.459-1.392.74-.52 1.383-1.099 1.913-1.693.163-.185.305-.358.44-.559l.024-.06c.002-.003.009-.014.016 0"/><path fill="#090404" d="M21.755 10.198c-.008-.08.105.35.105.35.001.006.066.393.09.636.057.626.082.985-.024 1.603-.155.952-.407 1.515-.937 2.296-.545.79-1.303 1.578-2.215 2.303a16.3 16.3 0 0 1-3.167 1.962 16.4 16.4 0 0 1-3.664 1.27c-.651.139-1.27.228-1.848.269a9.5 9.5 0 0 1-1.605-.017 6.3 6.3 0 0 1-1.327-.276 3.8 3.8 0 0 1-1.017-.505l-.603-.473-.505-.455s-.342-.334-.546-.57c-.145-.162-.346-.435-.35-.44.237.269.521.497.88.684.423.22.92.39 1.499.488a9 9 0 0 0 1.97.107 14 14 0 0 0 2.377-.334c1.36-.31 2.72-.79 3.99-1.4a19 19 0 0 0 3.453-2.125c.993-.781 1.824-1.62 2.419-2.466.586-.822.944-1.653 1.025-2.426.008-.082.017-.163.017-.244 0-.082-.009-.164-.017-.237"/><path fill="#090404" d="m19.463 5.38.08.057.49.618.447.66.196.333c.057.106.114.212.146.334.041.114.073.236.098.358.024.119.032.252.04.38v.01c0 .14-.007.277-.024.424-.097.757-.472 1.563-1.075 2.385-.619.83-1.466 1.668-2.483 2.45a20.4 20.4 0 0 1-3.518 2.141 20.3 20.3 0 0 1-4.047 1.44c-.985.229-1.897.359-2.72.391-.813.033-1.538-.032-2.156-.178-.611-.147-1.116-.367-1.507-.66a2.36 2.36 0 0 1-.815-1.05l-.154-.448-.212-.765-.146-.774-.033-.22-.04-.43q.084.622.512 1.074c.318.342.782.603 1.368.774.594.179 1.32.26 2.15.227.846-.024 1.8-.163 2.834-.415a20.2 20.2 0 0 0 3.819-1.376 20 20 0 0 0 3.338-2.002c.969-.732 1.783-1.506 2.378-2.271.586-.757.952-1.498 1.066-2.19.033-.195.041-.374.033-.553a2 2 0 0 0-.09-.489 1.75 1.75 0 0 0-.338-.613q-.023-.026-.044-.054z"/><path fill="#090404" d="M14.004 2.158c.096.015.152.024.23.047.003 0 .236.057.39.098.212.081.538.195.538.195l.66.244.65.302.228.122c.18.098.343.211.473.333a1.5 1.5 0 0 1 .48.961 2 2 0 0 1-.032.627c-.122.594-.465 1.237-.994 1.88-.537.66-1.262 1.327-2.125 1.954a19 19 0 0 1-2.94 1.741 18.6 18.6 0 0 1-3.346 1.23c-1.018.26-1.938.398-2.744.415-.79.016-1.457-.074-1.987-.269-.513-.187-.896-.472-1.116-.83-.212-.35-.276-.782-.179-1.278l.05-.212.187-.7.236-.675.244-.57.22-.464-.041.09-.008.016c-.211.464-.252.87-.146 1.204.114.342.383.619.79.798.415.187.976.277 1.652.269.684-.009 1.49-.13 2.395-.374a16 16 0 0 0 2.662-.994 16 16 0 0 0 2.353-1.376c.692-.496 1.286-1.017 1.726-1.538.44-.512.733-1.017.855-1.481.057-.236.065-.456.033-.652a1.16 1.16 0 0 0-.245-.512 1.5 1.5 0 0 0-.48-.366 3 3 0 0 0-.44-.171l-.244-.066z"/><path fill="#090404" d="M10.618 2.058c.407-.074.75-.065 1.059-.04.309.024.578.09.781.195s.358.244.432.423c.081.195.09.415.016.668-.097.317-.318.667-.627 1.008-.317.35-.733.709-1.214 1.042-.488.342-1.033.66-1.62.937-.586.277-1.205.512-1.832.691-.619.171-1.173.261-1.653.286-.472.016-.863-.033-1.164-.147-.293-.114-.489-.285-.57-.521-.082-.228-.065-.505.082-.83.04-.098.098-.196.163-.293l.038-.059c.052-.08.107-.164.173-.242.081-.098.17-.204.26-.302l.074-.073q.109-.115.236-.228l.293-.26c.431-.35.896-.676 1.376-.96l.26-.147c-.012.01-.532.41-.79.732a2.6 2.6 0 0 0-.333.505c-.065.155-.073.293-.025.399.049.106.155.187.302.236s.35.073.578.057q.354-.025.806-.147a5.9 5.9 0 0 0 1.677-.798c.237-.162.44-.334.603-.504.163-.171.277-.342.334-.497q.084-.231-.017-.39c-.065-.098-.179-.171-.334-.22-.154-.04-.35-.033-.578.008l-.212.035c-.171.026-.363.055-.561.111a3.3 3.3 0 0 0-.472.18 7.7 7.7 0 0 1 1.466-.602c.383-.122.643-.188.993-.253"/></svg>