<svg xmlns="http://www.w3.org/2000/svg" fill="none" viewBox="0 0 24 24"><path fill="#090404" fill-rule="evenodd" d="M19.629 3.815a2.378 2.378 0 0 1-4.692.548 2.84 2.84 0 0 0-2.445 2.806v.009c2.126.079 4.07.678 5.61 1.63a3.356 3.356 0 1 1 3.485 5.693c-.104 3.9-4.352 7.037-9.577 7.037-5.22 0-9.465-3.131-9.577-7.026a3.356 3.356 0 1 1 3.474-5.696C7.432 7.869 9.356 7.27 11.46 7.18v-.01a3.87 3.87 0 0 1 3.463-3.843 2.379 2.379 0 0 1 4.705.488m-12.257 11.5c.941 0 1.749-.44 1.805-1.648v.001c.056-1.208-.662-2.216-1.602-2.216s-1.749.79-1.804 1.998c-.056 1.208.66 1.864 1.601 1.864m9.27 0c-.94 0-1.748-.44-1.803-1.648v.001c-.056-1.208.66-2.216 1.601-2.216s1.749.79 1.805 1.998-.662 1.864-1.602 1.864m-4.635.938c-1.166 0-2.284.058-3.316.163a.265.265 0 0 0-.22.364 3.833 3.833 0 0 0 7.07 0 .265.265 0 0 0-.219-.364 33 33 0 0 0-3.315-.163" clip-rule="evenodd"/></svg>