<svg xmlns="http://www.w3.org/2000/svg" fill="none" viewBox="0 0 24 24"><path fill="#090404" d="M19.291 13.766a1 1 0 0 1 1.945.468C20.23 18.402 16.478 21.5 12 21.5a9.48 9.48 0 0 1-7-3.08v1.08a1 1 0 0 1-2 0V16a1 1 0 0 1 1-1h3.5a1 1 0 0 1 0 2H6.41a7.504 7.504 0 0 0 12.88-3.234"/><path fill="#090404" d="M12 8.5a1 1 0 0 1 1 1V11h1.5a1 1 0 0 1 0 2H13v1.5a1 1 0 0 1-2 0V13H9.5a1 1 0 1 1 0-2H11V9.5a1 1 0 0 1 1-1"/><path fill="#090404" d="M12 2.5a9.48 9.48 0 0 1 7 3.078V4.5a1 1 0 1 1 2 0V8a1 1 0 0 1-1 1h-3.5a1 1 0 1 1 0-2h1.086A7.48 7.48 0 0 0 12 4.5a7.504 7.504 0 0 0-7.292 5.734 1 1 0 1 1-1.943-.468C3.77 5.598 7.522 2.5 12 2.5"/></svg>