<svg xmlns="http://www.w3.org/2000/svg" fill="none" viewBox="0 0 24 24"><path fill="#090404" d="M20 10a1 1 0 0 1 1 1v7a2 2 0 0 1-2 2H6.414l.793.793a1 1 0 0 1-1.414 1.414l-2.5-2.5a1 1 0 0 1 0-1.414l2.5-2.5a1 1 0 1 1 1.414 1.414L6.414 18H19v-7a1 1 0 0 1 1-1"/><path fill="#090404" d="M12 8a1 1 0 0 1 1 1v2h2l.102.005a1 1 0 0 1 0 1.99L15 13h-2v2a1 1 0 1 1-2 0v-2H9a1 1 0 0 1 0-2h2V9a1 1 0 0 1 1-1"/><path fill="#090404" d="M16.793 1.793a1 1 0 0 1 1.414 0l2.5 2.5a1 1 0 0 1 0 1.414l-2.5 2.5a1 1 0 1 1-1.414-1.414L17.586 6H5v7a1 1 0 0 1-2 0V6a2 2 0 0 1 2-2h12.586l-.793-.793a1 1 0 0 1 0-1.414"/></svg>