<svg xmlns="http://www.w3.org/2000/svg" fill="none" viewBox="0 0 24 24"><path fill="#090404" d="M21.465 10.133A5.5 5.5 0 0 1 13.022 5H5.347l-.221-1.329A2 2 0 0 0 3.153 2H2a1 1 0 0 0 0 2h1.153l1.721 10.329A2 2 0 0 0 6.847 16h11.829a2 2 0 0 0 1.963-1.618z"/><path fill="#090404" d="M8 17a2 2 0 1 0 0 4 2 2 0 0 0 0-4"/><path fill="#090404" d="M15 19a2 2 0 1 1 4 0 2 2 0 0 1-4 0"/><path fill="#090404" fill-rule="evenodd" d="M15.793 2.793a1 1 0 0 1 1.414 0L18.5 4.086l1.293-1.293a1 1 0 1 1 1.414 1.414L19.914 5.5l1.293 1.293a1 1 0 0 1-1.414 1.414L18.5 6.914l-1.293 1.293a1 1 0 1 1-1.414-1.414L17.086 5.5l-1.293-1.293a1 1 0 0 1 0-1.414" clip-rule="evenodd"/></svg>