<svg xmlns="http://www.w3.org/2000/svg" fill="none" viewBox="0 0 24 24"><path fill="#090404" d="M8.586 3H5a2 2 0 0 0-2 2v3.586z"/><path fill="#090404" d="M3 11.414V19q.001.27.068.518l5.122-5.122a4.5 4.5 0 0 1 6.206-6.206l5.122-5.122A2 2 0 0 0 19 3h-7.586z"/><path fill="#090404" d="m9.604 15.81-5.122 5.122Q4.731 21 5 21h7.586L21 12.586V5q-.001-.27-.068-.518L15.81 9.604a4.5 4.5 0 0 1-6.206 6.206"/><path fill="#090404" d="M19 21h-3.586L21 15.414V19a2 2 0 0 1-2 2"/><path fill="#090404" d="M9.5 12a2.5 2.5 0 1 1 5 0 2.5 2.5 0 0 1-5 0"/></svg>