<svg xmlns="http://www.w3.org/2000/svg" fill="none" viewBox="0 0 24 24"><path fill="#090404" d="M13.505 16A2.495 2.495 0 0 1 16 18.495c0 2.348-2.156 2.512-3.99 2.505A1.02 1.02 0 0 1 11 19.99c-.007-1.834.157-3.99 2.505-3.99"/><path fill="#090404" d="M14.183 15.065c1.703-2.287 5.048-6.351 7.15-4.397 2.103 1.957-2.082 5.413-4.4 7.147a3.5 3.5 0 0 0-2.75-2.75"/><path fill="#090404" d="M3.442 12.007a1 1 0 0 1 1.11.877 7.5 7.5 0 0 0 3.922 5.737 1 1 0 0 1-.941 1.765 9.5 9.5 0 0 1-4.968-7.27 1 1 0 0 1 .877-1.11M11.999 2.5a9.49 9.49 0 0 1 7.684 3.911 1 1 0 0 1-1.617 1.178A7.49 7.49 0 0 0 12 4.5 7.48 7.48 0 0 0 6.41 7H8.5a1 1 0 0 1 0 2h-4a1 1 0 0 1-.996-.901L3.5 8V4a1 1 0 0 1 2 0v1.073A9.47 9.47 0 0 1 12 2.5"/></svg>