<svg xmlns="http://www.w3.org/2000/svg" fill="none" viewBox="0 0 24 24"><path fill="#090404" d="M4.257 5.671A9.96 9.96 0 0 0 2 12.001c0 2.4.846 4.604 2.257 6.328l3.933-3.933A4.5 4.5 0 0 1 7.5 12c0-.88.253-1.702.69-2.396z"/><path fill="#090404" d="M5.672 4.257 9.605 8.19A4.5 4.5 0 0 1 12 7.5c.88 0 1.702.253 2.395.69l3.933-3.933A9.96 9.96 0 0 0 12.001 2a9.96 9.96 0 0 0-6.33 2.257"/><path fill="#090404" d="m19.742 5.671-3.933 3.933c.437.694.69 1.516.69 2.396a4.5 4.5 0 0 1-.69 2.396l3.933 3.933A9.96 9.96 0 0 0 21.999 12a9.96 9.96 0 0 0-2.257-6.329"/><path fill="#090404" d="m18.33 19.743-3.934-3.933a4.5 4.5 0 0 1-2.395.69 4.5 4.5 0 0 1-2.396-.69l-3.933 3.933A9.96 9.96 0 0 0 12 22a9.96 9.96 0 0 0 6.328-2.257"/></svg>