<svg xmlns="http://www.w3.org/2000/svg" fill="none" viewBox="0 0 24 24"><path fill="#090404" fill-rule="evenodd" d="M12 2c1.197 0 2.342.223 3.398.627a1.89 1.89 0 0 0-1.648 1.875l.009.178a1.89 1.89 0 0 0 1.667 1.697l.173.025c.638.114.962.479 1.02 1.127l.025.18c.164.885.94 1.542 1.858 1.541l.182-.009a1.89 1.89 0 0 0 1.698-1.717l.02-.16q.016-.11.046-.208A9.46 9.46 0 0 1 21.5 11.5v7.69c0 1-.81 1.81-1.81 1.81H4.31c-1 0-1.81-.81-1.81-1.81V11.5A9.5 9.5 0 0 1 12 2m-3.1 8A1.9 1.9 0 0 0 7 11.9v2.6a5 5 0 0 0 10 0v-2.6a1.9 1.9 0 0 0-1.9-1.9z" clip-rule="evenodd"/><path fill="#090404" d="M18.501 1c.248 0 .455.187.483.433.172 1.516 1.032 2.444 2.572 2.58a.489.489 0 0 1-.001.973c-1.518.132-2.437 1.051-2.569 2.569a.488.488 0 0 1-.972 0c-.137-1.539-1.065-2.399-2.581-2.57a.488.488 0 0 1-.001-.97c1.538-.177 2.406-1.045 2.584-2.583A.49.49 0 0 1 18.5 1"/></svg>