<svg xmlns="http://www.w3.org/2000/svg" fill="none" viewBox="0 0 24 24"><path fill="#090404" fill-rule="evenodd" d="M3 5a2 2 0 0 1 2-2h14a2 2 0 0 1 2 2v14a2 2 0 0 1-2 2H5a2 2 0 0 1-2-2zm9.462 2.61a.5.5 0 0 0-.924 0l-.876 2.106a.5.5 0 0 1-.421.306l-2.274.182a.5.5 0 0 0-.285.878l1.732 1.484a.5.5 0 0 1 .161.496l-.529 2.218a.5.5 0 0 0 .747.543l1.946-1.189a.5.5 0 0 1 .522 0l1.946 1.189a.5.5 0 0 0 .747-.543l-.53-2.218a.5.5 0 0 1 .162-.496l1.732-1.484a.5.5 0 0 0-.286-.878l-2.273-.182a.5.5 0 0 1-.421-.306z" clip-rule="evenodd"/></svg>