<svg xmlns="http://www.w3.org/2000/svg" fill="none" viewBox="0 0 24 24"><path fill="#090404" d="M3.5 8.041V4a1 1 0 1 1 2 0v1.072A9.47 9.47 0 0 1 12 2.5a9.49 9.49 0 0 1 7.683 3.911 1 1 0 1 1-1.617 1.178A7.49 7.49 0 0 0 12 4.5c-2.22 0-4.216.965-5.59 2.5H8.5a1 1 0 0 1 0 2h-4a1 1 0 0 1-1-.959"/><path fill="#090404" d="M4.551 12.884a1 1 0 0 0-1.986.232 9.5 9.5 0 0 0 4.968 7.27 1 1 0 0 0 .941-1.764 7.5 7.5 0 0 1-3.923-5.738"/><path fill="#090404" d="m11.091 19.716.533-2.398a2 2 0 0 1 .538-.98l3.808-3.808 3.5 3.5-3.808 3.808a2 2 0 0 1-.98.538l-2.398.533a1 1 0 0 1-1.193-1.193"/><path fill="#090404" d="m20.53 14.97-3.5-3.5.72-.72a2.475 2.475 0 1 1 3.5 3.5z"/></svg>