<svg xmlns="http://www.w3.org/2000/svg" fill="none" viewBox="0 0 24 24"><path fill="#090404" d="m9.522 4.612-2.707-2.2A.5.5 0 0 0 6 2.8V4H4.568c-.252 0-.498 0-.706.017a2 2 0 0 0-.77.2 2 2 0 0 0-.874.875 2 2 0 0 0-.201.77C2 6.07 2 6.315 2 6.568v10.864c0 .252 0 .498.017.706.019.229.063.498.201.77a2 2 0 0 0 .874.874c.271.138.541.182.77.2.208.018.454.018.706.018H11a1 1 0 1 0 0-2H4.6c-.297 0-.459-.001-.575-.01l-.014-.002v-.013A8 8 0 0 1 4 17.4V6.6c0-.297 0-.459.01-.576l.001-.013h.014C4.14 6 4.303 6 4.6 6H6v1.2a.5.5 0 0 0 .815.387l2.707-2.2a.5.5 0 0 0 0-.775"/><path fill="#090404" d="M19.4 6c.297 0 .459 0 .575.01l.014.001v.013c.01.117.011.28.011.576v10.8c0 .296 0 .459-.01.575l-.001.013-.014.002c-.116.009-.279.01-.575.01H18v-1.2a.5.5 0 0 0-.815-.388l-2.707 2.2a.5.5 0 0 0 0 .776l2.707 2.2a.5.5 0 0 0 .815-.389V20h1.432c.252 0 .498 0 .706-.016a2 2 0 0 0 .77-.201 2 2 0 0 0 .874-.874c.138-.272.182-.541.201-.77.017-.208.017-.454.017-.706V6.568c0-.252 0-.498-.017-.706a2 2 0 0 0-.201-.77 2 2 0 0 0-.874-.874 2 2 0 0 0-.77-.201C19.93 4 19.684 4 19.432 4H13a1 1 0 1 0 0 2z"/><path fill="#090404" d="M8 10a1 1 0 0 1 1-1h6a1 1 0 1 1 0 2H9a1 1 0 0 1-1-1"/><path fill="#090404" d="M9 13a1 1 0 1 0 0 2h4a1 1 0 1 0 0-2z"/></svg>