<svg xmlns="http://www.w3.org/2000/svg" fill="none" viewBox="0 0 24 24"><path fill="#090404" fill-rule="evenodd" d="M3.484 4.106c0 .611.501 1.106 1.119 1.106h9.267q1.584 0 2.61.969 1.023.968 1.024 2.489 0 1.406-1.025 2.304-1.024.876-2.61.876H9.843c-.618 0-1.118.495-1.118 1.107 0 .61.5 1.106 1.118 1.106h4.448l4.006 6.36q.373.577 1.049.577.745 0 1.048-.576.303-.6-.116-1.268l-3.565-5.67q1.445-.645 2.283-1.89.84-1.267.84-2.926 0-1.683-.77-2.95a5.2 5.2 0 0 0-2.096-1.983Q15.618 3 13.869 3H4.604c-.618 0-1.119.495-1.119 1.106" clip-rule="evenodd"/></svg>