<svg xmlns="http://www.w3.org/2000/svg" fill="none" viewBox="0 0 24 24"><path fill="#090404" d="M14.141 6.51h-4.065a.46.46 0 0 0-.375.188l-2.915 3.61c-.428.536-.535 1.03-.535 1.74v3.69c-.95 2.662-1.552 4.467-1.993 6.099-.027.104.014.16.107.16h.441c.08 0 .16-.04.188-.107 3.33-8.479 6.954-12.678 9.228-15.192.093-.107.053-.187-.08-.187"/><path fill="#090404" d="M14.262 2.351a2.5 2.5 0 0 0-.656.388 35 35 0 0 0-2.768 2.648c-.094.094-.053.187.08.187h4.507c.415 0 .656.241.656.656v5.082c0 .133.107.174.187.053l2.715-3.544c.44-.575.575-.749.695-1.551.16-1.177.067-2.982-.642-3.731-.629-.67-3.464-.696-4.774-.188"/><path fill="#090404" d="M14.944 7.527c-2.795 3.116-4.975 6.393-6.995 10.338-.05.099.014.187.134.147l4.173-1.284c.47-.144.735-.334.963-.709l1.859-3.062a.6.6 0 0 0 .053-.241V7.607c0-.133-.094-.187-.187-.08"/></svg>