<svg xmlns="http://www.w3.org/2000/svg" fill="none" viewBox="0 0 24 24"><path fill="#090404" fill-rule="evenodd" d="M18.331 2c.413 0 .792.225.99.587l2.058 3.773a1.5 1.5 0 0 1-.417 1.918l-.22.165a1.5 1.5 0 0 1-1.57.142L18 8l-1 2 2.363 8.035q.556-.297 1.114-.637a1.001 1.001 0 0 1 1.047 1.704C18.408 21.018 15.22 22 12 22s-6.407-.983-9.523-2.898a1.001 1.001 0 0 1 1.047-1.704q.545.334 1.09.625L6.524 10H6a2 2 0 0 0-2 2 1 1 0 0 1-2 0 4 4 0 0 1 4-4h6l.631-1.892A6.01 6.01 0 0 1 18.331 2m-7.215 13a1.5 1.5 0 0 0-1.436 1.07l-1.056 3.514Q10.32 19.999 12 20q1.68-.001 3.375-.416l-1.053-3.515A1.5 1.5 0 0 0 12.885 15z" clip-rule="evenodd"/></svg>