<svg xmlns="http://www.w3.org/2000/svg" fill="none" viewBox="0 0 24 24"><path fill="#090404" d="M12 5c2.883 0 5.543.582 7.519 1.57C21.434 7.528 23 9.037 23 11c0 1.161-.562 2.176-1.39 2.986-.824.807-1.957 1.462-3.258 1.95a1 1 0 0 1-.704-1.871c1.128-.424 1.994-.952 2.563-1.508.565-.553.789-1.082.789-1.557 0-.798-.673-1.789-2.376-2.64C16.981 7.537 14.64 7 12 7s-4.98.538-6.624 1.36C3.673 9.21 3 10.201 3 11s.673 1.789 2.376 2.64c1.331.666 3.12 1.145 5.153 1.303l-.736-.736a1 1 0 1 1 1.414-1.414l2.5 2.5a1 1 0 0 1 0 1.414l-2.5 2.5a1 1 0 1 1-1.414-1.414l.839-.84c-2.35-.153-4.492-.694-6.15-1.523C2.565 14.472 1 12.963 1 11s1.566-3.472 3.481-4.43C6.457 5.582 9.117 5 12 5"/></svg>