<svg xmlns="http://www.w3.org/2000/svg" fill="none" viewBox="0 0 24 24"><path fill="#090404" d="M12 5c2.883 0 5.543.582 7.519 1.57C21.434 7.528 23 9.037 23 11s-1.566 3.472-3.481 4.43c-1.66.83-3.801 1.37-6.152 1.523l.84.84a1 1 0 1 1-1.414 1.414l-2.5-2.5a1 1 0 0 1 0-1.414l2.5-2.5a1 1 0 1 1 1.414 1.414l-.737.736c2.034-.158 3.823-.637 5.154-1.302C20.327 12.789 21 11.798 21 11s-.673-1.789-2.376-2.64C16.981 7.537 14.64 7 12 7s-4.98.538-6.624 1.36C3.673 9.21 3 10.201 3 11c0 .475.224 1.004.79 1.557.568.556 1.434 1.084 2.562 1.508a1 1 0 1 1-.704 1.872c-1.3-.49-2.434-1.144-3.258-1.95C1.562 13.175 1 12.16 1 11c0-1.963 1.566-3.472 3.481-4.43C6.457 5.582 9.117 5 12 5"/></svg>