<svg xmlns="http://www.w3.org/2000/svg" fill="none" viewBox="0 0 24 24"><path fill="#090404" fill-rule="evenodd" d="M8.007 2.83A2 2 0 0 1 10 1h4a2 2 0 0 1 1.993 1.83A10 10 0 0 1 22 12c0 5.523-4.477 10-10 10S2 17.523 2 12c0-4.105 2.473-7.63 6.007-9.17M9.12 4.533A8 8 0 0 0 7.094 5.68l1.37 1.37A1 1 0 1 1 7.05 8.464l-1.37-1.37A7.96 7.96 0 0 0 4.062 11H6a1 1 0 1 1 0 2H4.062a7.96 7.96 0 0 0 1.618 3.906l1.37-1.37a1 1 0 0 1 1.414 1.414l-1.37 1.37A7.96 7.96 0 0 0 11 19.938V18a1 1 0 1 1 2 0v1.938a7.96 7.96 0 0 0 3.906-1.618l-1.37-1.37a1 1 0 0 1 1.414-1.414l1.37 1.37A7.96 7.96 0 0 0 19.938 13H18a1 1 0 1 1 0-2h1.938a7.96 7.96 0 0 0-1.618-3.906l-1.37 1.37a1 1 0 1 1-1.414-1.414l1.37-1.37a8 8 0 0 0-2.026-1.146l-2.173 2.173a1 1 0 0 1-1.414 0zM9 12a3 3 0 1 1 6 0 3 3 0 0 1-6 0" clip-rule="evenodd"/></svg>