<svg xmlns="http://www.w3.org/2000/svg" fill="none" viewBox="0 0 24 24"><path fill="#090404" fill-rule="evenodd" d="M4.062 11H4.5a1 1 0 1 1 0 2h-.438c.092.737.284 1.443.562 2.104l.38-.22a1 1 0 1 1 1 1.732l-.378.219c.44.58.959 1.098 1.54 1.54l.218-.38a1 1 0 1 1 1.732 1l-.22.38c.661.279 1.367.471 2.104.563V19.5a1 1 0 1 1 2 0v.438a8 8 0 0 0 2.104-.562l-.22-.38a1 1 0 1 1 1.732-1l.219.378a8 8 0 0 0 1.54-1.54l-.38-.218a1 1 0 1 1 1-1.732l.38.22c.279-.661.471-1.367.563-2.104H19.5a1 1 0 1 1 0-2h.438a8 8 0 0 0-.562-2.104l-.38.22a1 1 0 1 1-1-1.732l.378-.219a8 8 0 0 0-1.54-1.54l-.218.38a1 1 0 1 1-1.732-1l.22-.38A8 8 0 0 0 13 4.061V4.5a1 1 0 1 1-2 0v-.438a8 8 0 0 0-2.104.562l.22.38a1 1 0 0 1-1.732 1l-.219-.378c-.58.44-1.098.959-1.54 1.54l.38.218a1 1 0 1 1-1 1.732l-.38-.22A8 8 0 0 0 4.061 11M2 12C2 6.477 6.477 2 12 2s10 4.477 10 10-4.477 10-10 10S2 17.523 2 12m5.5-3a1.5 1.5 0 1 1 2.998.083l.588.59a2.5 2.5 0 0 1 1.828 0l.588-.59L13.5 9a1.5 1.5 0 1 1 1.416 1.498l-.588.588a2.5 2.5 0 0 1 0 1.828l.588.588L15 13.5a1.5 1.5 0 1 1-1.498 1.416l-.588-.588a2.5 2.5 0 0 1-1.828 0l-.588.588.002.084a1.5 1.5 0 1 1-1.416-1.498l.588-.588a2.5 2.5 0 0 1 0-1.828l-.588-.588L9 10.5A1.5 1.5 0 0 1 7.5 9" clip-rule="evenodd"/></svg>