<svg xmlns="http://www.w3.org/2000/svg" fill="none" viewBox="0 0 24 24"><path fill="#090404" d="M12 10.5a1.5 1.5 0 1 0 0 3 1.5 1.5 0 0 0 0-3"/><path fill="#090404" fill-rule="evenodd" d="M5 3a2 2 0 0 0-2 2v2a1 1 0 0 0 0 2v6a1 1 0 1 0 0 2v2a2 2 0 0 0 2 2h14a2 2 0 0 0 2-2V5a2 2 0 0 0-2-2zm5.335 5.92A3.5 3.5 0 0 1 12 8.5c.603 0 1.17.152 1.665.42l1.128-1.127a1 1 0 1 1 1.414 1.414l-1.128 1.128c.269.495.421 1.062.421 1.665s-.152 1.17-.42 1.665l1.127 1.128a1 1 0 0 1-1.414 1.414l-1.128-1.128A3.5 3.5 0 0 1 12 15.5c-.603 0-1.17-.152-1.665-.42l-1.128 1.127a1 1 0 0 1-1.414-1.414l1.128-1.128A3.5 3.5 0 0 1 8.5 12c0-.603.152-1.17.42-1.665L7.794 9.207a1 1 0 0 1 1.414-1.414z" clip-rule="evenodd"/></svg>