<svg xmlns="http://www.w3.org/2000/svg" fill="none" viewBox="0 0 24 24"><path fill="#090404" fill-rule="evenodd" d="M14.056 3.549a2 2 0 0 1 2.259-1.702l2.97.417a2 2 0 0 1 1.703 2.259l-.184 1.31A2 2 0 0 1 19.3 7.497l-1.3.32-.553 3.936 3.45 3.246H21a1 1 0 0 1 1 1v3a2 2 0 0 1-2 2H4a2 2 0 0 1-2-2v-3a1 1 0 0 1 1-1h.038l1.503-1.768-.99-4.448a2 2 0 0 1 1.108-2.25l-.012-.084a3 3 0 1 1 5.941-.835l.012.084c.902.14 1.628.89 1.689 1.851l.27 4.292 2.954-.695.507-3.608-1.162-.665a2 2 0 0 1-.986-2.014zm3.198 2.391 1.57-.385.183-1.31-2.97-.418-.185 1.31zm-10.627.23 1.98-.278a1 1 0 1 0-1.98.278M17.978 15H5.662l2.354-2.77 3.176 1.494.067.032a2 2 0 0 0 1.31.137l3.387-.797z" clip-rule="evenodd"/></svg>