<svg xmlns="http://www.w3.org/2000/svg" fill="none" viewBox="0 0 24 24"><path fill="#090404" d="M20 5a1 1 0 1 1 0 2c-1.574 0-2.776.613-3.858 1.61-.64.59-1.22 1.297-1.794 2.08C16.022 12.032 17.716 13 20 13a1 1 0 1 1 0 2c-2.866 0-4.993-1.232-6.804-2.667l-.157.23a71 71 0 0 1-.926 1.33l.416.258C14.964 15.67 17.14 17 20 17a1 1 0 1 1 0 2c-3.51 0-6.15-1.669-8.53-3.151q-.296-.185-.59-.365C9.23 17.413 7.125 19 4 19a1 1 0 1 1 0-2c2.2 0 3.743-1.014 5.12-2.546C7.53 13.601 5.92 13 4 13a1 1 0 1 1 0-2c2.496 0 4.55.845 6.386 1.865a58 58 0 0 0 1.002-1.428q.136-.2.275-.403l-.325-.285C9.04 8.719 7.043 7 4 7a1 1 0 0 1 0-2c3.9 0 6.433 2.281 8.662 4.251l.16.139c.6-.809 1.244-1.588 1.963-2.25C16.144 5.887 17.811 5 20 5"/></svg>