<svg xmlns="http://www.w3.org/2000/svg" fill="none" viewBox="0 0 24 24"><path fill="#090404" d="M4 3a1 1 0 0 1 1 1v15h15a1 1 0 1 1 0 2H5a2 2 0 0 1-2-2V4a1 1 0 0 1 1-1"/><path fill="#090404" d="M19 5a1 1 0 1 1 0 2c-2.175 0-3.606 1.219-5.338 2.749q-.117.104-.238.208l.339.395q.243.288.481.563C15.512 9.856 17.031 9 19 9a1 1 0 1 1 0 2c-1.32 0-2.365.54-3.39 1.384q.327.311.665.577C17.117 13.617 17.982 14 19 14a1 1 0 1 1 0 2c-1.585 0-2.871-.617-3.954-1.46a11 11 0 0 1-.895-.786q-.214.216-.433.442C12.077 15.888 10.093 18 7 18a1 1 0 1 1 0-2c2.115 0 3.527-1.388 5.282-3.196q.245-.254.502-.517-.28-.325-.547-.64l-.355-.415C10.579 12.2 9.029 13 7 13a1 1 0 1 1 0-2c1.388 0 2.47-.498 3.523-1.254a10 10 0 0 0-.798-.707C8.883 8.383 8.018 8 7 8a1 1 0 0 1 0-2c1.585 0 2.871.617 3.954 1.46.395.309.77.653 1.128 1.014l.256-.223C14 6.781 15.968 5 19 5"/></svg>