<svg xmlns="http://www.w3.org/2000/svg" fill="none" viewBox="0 0 24 24"><path fill="#090404" fill-rule="evenodd" d="M19.072 10.414a2 2 0 0 0 .007-2.835l-2.657-2.657a2 2 0 0 0-2.836.007l-7.019 7.09a4.98 4.98 0 0 0-3.102 1.446 1 1 0 0 0 0 1.414L5.586 17l-1.293 1.293a1 1 0 1 0 1.414 1.414L7 18.414l2.122 2.122a1 1 0 0 0 1.414 0 4.98 4.98 0 0 0 1.446-3.103z" clip-rule="evenodd"/><path fill="#090404" d="M8.164 2.164a2 2 0 0 0-2.828 0L3.164 4.336a2 2 0 0 0 0 2.828L3.5 7.5l5-5z"/><path fill="#090404" d="m9.5 3.5-5 5 1.75 1.75 5-5z"/><path fill="#090404" d="m18.75 12.75-5 5 1.75 1.75 5-5z"/><path fill="#090404" d="m21.5 15.5-5 5 .336.336a2 2 0 0 0 2.828 0l2.172-2.172a2 2 0 0 0 0-2.828z"/></svg>