<svg xmlns="http://www.w3.org/2000/svg" fill="none" viewBox="0 0 24 24"><path fill="#090404" d="M4 15a1 1 0 0 1 1 1v3h3a1 1 0 1 1 0 2H5a2 2 0 0 1-2-2v-3a1 1 0 0 1 1-1"/><path fill="#090404" d="M20 15a1 1 0 0 1 1 1v3a2 2 0 0 1-2 2h-3a1 1 0 1 1 0-2h3v-3a1 1 0 0 1 1-1"/><path fill="#090404" d="M8 15H7V9h1z"/><path fill="#090404" d="M11 15H9V9h2z"/><path fill="#090404" d="M13 15h-1V9h1z"/><path fill="#090404" d="M15 15h-1V9h1z"/><path fill="#090404" d="M17 15h-1V9h1z"/><path fill="#090404" d="M8 3a1 1 0 0 1 0 2H5v3a1 1 0 0 1-2 0V5a2 2 0 0 1 2-2z"/><path fill="#090404" d="M19 3a2 2 0 0 1 2 2v3a1 1 0 1 1-2 0V5h-3a1 1 0 1 1 0-2z"/></svg>