<svg xmlns="http://www.w3.org/2000/svg" fill="none" viewBox="0 0 24 24"><path fill="#090404" fill-rule="evenodd" d="M6 5a2 2 0 1 0 0 4 2 2 0 0 0 0-4M2 7a4 4 0 1 1 8 0 4 4 0 0 1-8 0" clip-rule="evenodd"/><path fill="#090404" fill-rule="evenodd" d="M6 15a2 2 0 1 0 0 4 2 2 0 0 0 0-4m-4 2a4 4 0 1 1 8 0 4 4 0 0 1-8 0" clip-rule="evenodd"/><path fill="#090404" d="M19.625 5.136a2 2 0 0 0-2.118-.279L12.16 7.324A2 2 0 0 0 11 9.14v1.433L7.382 9.076l-.765 1.848L9.217 12l-2.6 1.076.765 1.848 3.617-1.497v1.433a2 2 0 0 0 1.162 1.816l5.346 2.467a2 2 0 0 0 2.118-.28l2.515-2.095a1 1 0 0 0-.258-1.692L14.448 12l7.434-3.076a1 1 0 0 0 .258-1.692z"/></svg>