<svg xmlns="http://www.w3.org/2000/svg" fill="none" viewBox="0 0 24 24"><path fill="#090404" fill-rule="evenodd" d="M2 6a2 2 0 0 1 2-2h1a1 1 0 0 1 0 2H4v1a1 1 0 0 1-2 0zm6-1a1 1 0 0 1 1-1h1a1 1 0 1 1 0 2H9a1 1 0 0 1-1-1m5 0a1 1 0 0 1 1-1h1a1 1 0 1 1 0 2h-1a1 1 0 0 1-1-1m5 0a1 1 0 0 1 1-1h1a2 2 0 0 1 2 2v1a1 1 0 1 1-2 0V6h-1a1 1 0 0 1-1-1M3 10a1 1 0 0 1 1 1v2a1 1 0 1 1-2 0v-2a1 1 0 0 1 1-1m15.5 2a3.5 3.5 0 1 0 0 7 3.5 3.5 0 0 0 0-7M13 15.5a5.5 5.5 0 1 1 11 0 5.5 5.5 0 0 1-11 0m3 0a2.5 2.5 0 1 1 5 0 2.5 2.5 0 0 1-5 0M3 16a1 1 0 0 1 1 1v1h1a1 1 0 1 1 0 2H4a2 2 0 0 1-2-2v-1a1 1 0 0 1 1-1m5 3a1 1 0 0 1 1-1h1a1 1 0 1 1 0 2H9a1 1 0 0 1-1-1" clip-rule="evenodd"/></svg>