<svg xmlns="http://www.w3.org/2000/svg" fill="none" viewBox="0 0 24 24"><path fill="#090404" d="M12 16a2 2 0 0 1 2 2c0 1.28.803 2.37 1.932 2.8.04.015.068.054.068.098a.103.103 0 0 1-.102.102H5a3 3 0 0 1-3-3 2 2 0 0 1 2-2z"/><path fill="#090404" d="M17.504 3A2.5 2.5 0 0 0 17 4.5V19c0 .552-.475 1.02-.959.756A2 2 0 0 1 15 18a3 3 0 0 0-3-3H5v-3.049a1.828 1.828 0 0 0 2.71-.876l.538-1.396a.75.75 0 0 1 .43-.431l1.397-.538a1.832 1.832 0 0 0 0-3.42L8.68 4.752a.75.75 0 0 1-.431-.43l-.505-1.31Q7.87 3 8 3z"/><path fill="#090404" d="M6 3c.24 0 .457.148.544.373l.537 1.398A2 2 0 0 0 8.23 5.919l1.398.537a.583.583 0 0 1 0 1.088l-1.398.537a2 2 0 0 0-1.148 1.148l-.537 1.398a.583.583 0 0 1-1.088 0L4.92 9.229a2 2 0 0 0-1.148-1.148l-1.398-.537a.583.583 0 0 1 0-1.088l1.398-.537a2 2 0 0 0 1.148-1.148l.537-1.398A.58.58 0 0 1 6 3"/><path fill="#090404" d="M19.5 3A1.5 1.5 0 0 1 21 4.5V7a2 2 0 0 1-2 2h-1V4.5A1.5 1.5 0 0 1 19.5 3"/></svg>