<svg xmlns="http://www.w3.org/2000/svg" fill="none" viewBox="0 0 24 24"><path fill="#090404" d="M12 16a2 2 0 0 1 2 2c0 1.28.803 2.37 1.932 2.8.04.015.068.054.068.098a.103.103 0 0 1-.102.102H5a3 3 0 0 1-3-3 2 2 0 0 1 2-2z"/><path fill="#090404" fill-rule="evenodd" d="M17.504 3A2.5 2.5 0 0 0 17 4.5V19c0 .552-.475 1.02-.959.756A2 2 0 0 1 15 18a3 3 0 0 0-3-3H5V6a3 3 0 0 1 3-3zm-6.669 7.33a.75.75 0 0 0-.59-.035l-.08.034-.842.421H9a.75.75 0 0 0 0 1.5h.5a.75.75 0 0 0 .335-.08l.665-.332.665.333a.75.75 0 0 0 .335.079H13a.75.75 0 0 0 0-1.5h-1.323zm0-4a.75.75 0 0 0-.59-.035l-.08.034-.842.421H9a.75.75 0 0 0 0 1.5h.5a.75.75 0 0 0 .335-.08l.665-.332.665.333a.75.75 0 0 0 .335.079H13a.75.75 0 0 0 0-1.5h-1.323z" clip-rule="evenodd"/><path fill="#090404" d="M19.5 3A1.5 1.5 0 0 1 21 4.5V7a2 2 0 0 1-2 2h-1V4.5A1.5 1.5 0 0 1 19.5 3"/></svg>