<svg xmlns="http://www.w3.org/2000/svg" fill="none" viewBox="0 0 24 24"><path fill="#090404" d="M8.715 3.332a1 1 0 1 1 .57 1.916 6 6 0 1 0 7.467 7.467 1 1 0 1 1 1.917.57 8 8 0 0 1-1.35 2.62l3.388 3.388a1 1 0 0 1-1.414 1.414l-3.389-3.389a8 8 0 1 1-7.19-13.986"/><path fill="#090404" d="M16 2c.24 0 .457.148.544.373l.696 1.813a1 1 0 0 0 .575.574l1.812.696a.583.583 0 0 1 0 1.088l-1.812.696a1 1 0 0 0-.575.574l-.696 1.813a.583.583 0 0 1-1.088 0l-.696-1.813a1 1 0 0 0-.575-.574l-1.812-.696a.583.583 0 0 1 0-1.088l1.813-.696a1 1 0 0 0 .574-.574l.696-1.813A.58.58 0 0 1 16 2"/></svg>