<svg xmlns="http://www.w3.org/2000/svg" fill="none" viewBox="0 0 24 24"><path fill="#090404" fill-rule="evenodd" d="M18 2a2 2 0 0 1 2 2v8.95a2.582 2.582 0 0 0-4.332.523l-.078.182-.538 1.397-1.397.538a2.582 2.582 0 0 0 0 4.82l1.397.537.405 1.053H6a2 2 0 0 1-2-2V4a2 2 0 0 1 2-2zM8 9a1 1 0 0 0 0 2h3a1 1 0 1 0 0-2zm0-4a1 1 0 0 0 0 2h6a1 1 0 1 0 0-2z" clip-rule="evenodd"/><path fill="#090404" d="M14.373 17.456a1 1 0 0 0-.08.04l-.001-.002a1 1 0 0 1 .081-.038l.49-.19 1.323-.506z"/><path fill="#090404" d="m19.24 16.185-.696-1.812a.582.582 0 0 0-1.088 0l-.697 1.812a1 1 0 0 1-.573.575l-1.813.696a.583.583 0 0 0 0 1.088l1.812.697a1 1 0 0 1 .575.574l.696 1.812a.582.582 0 0 0 1.088 0l.697-1.812a1 1 0 0 1 .574-.575l1.812-.696a.582.582 0 0 0 0-1.088l-1.812-.697a1 1 0 0 1-.575-.574"/></svg>