<svg xmlns="http://www.w3.org/2000/svg" fill="none" viewBox="0 0 24 24"><path fill="#090404" d="M13.563 19.848a1 1 0 1 1 .387 1.962 10.05 10.05 0 0 1-3.9 0 1 1 0 0 1 .387-1.962 8.05 8.05 0 0 0 3.126 0M3.96 16.17a1 1 0 0 1 1.387.274 8 8 0 0 0 2.209 2.21 1 1 0 0 1-1.113 1.661 10.1 10.1 0 0 1-2.758-2.758 1 1 0 0 1 .275-1.387m14.693.274a1 1 0 0 1 1.662 1.113 10.1 10.1 0 0 1-2.758 2.758 1 1 0 0 1-1.113-1.662 8.05 8.05 0 0 0 2.21-2.209M2 12c0-.666.066-1.319.19-1.95a1 1 0 0 1 1.962.387 8.05 8.05 0 0 0 0 3.126 1 1 0 0 1-1.962.387A10 10 0 0 1 2 12m18 0c0-.686-.106-1.265-.282-1.752a1 1 0 0 1 1.88-.682c.263.728.402 1.54.402 2.434 0 .666-.066 1.319-.19 1.95a1 1 0 0 1-1.962-.387q.151-.758.152-1.563M9.036 7.521a1 1 0 1 1 1.321 1.501c-.453.4-.757.838-.909 1.294a1 1 0 1 1-1.896-.632c.285-.855.821-1.579 1.484-2.163M6.443 3.685a1 1 0 0 1 1.113 1.662 8 8 0 0 0-2.21 2.209 1 1 0 0 1-1.661-1.113 10.1 10.1 0 0 1 2.758-2.758M13.4 5.61c1.56-.24 3.24-.129 4.711.455a1 1 0 1 1-.739 1.859c-1.08-.43-2.39-.534-3.667-.337A1 1 0 0 1 13.4 5.61M12 2a1 1 0 1 1 0 2q-.805.002-1.562.152a1 1 0 0 1-.388-1.962C10.68 2.066 11.334 2 12 2"/></svg>