<svg xmlns="http://www.w3.org/2000/svg" fill="none" viewBox="0 0 24 24"><path fill="#090404" d="M13.39 19.88a1 1 0 0 1 .346 1.97 10 10 0 0 1-3.472 0 1 1 0 1 1 .345-1.97 8 8 0 0 0 2.782 0"/><path fill="#090404" d="M4.053 16.344a1 1 0 0 1 1.392.244 8 8 0 0 0 1.967 1.967 1 1 0 1 1-1.15 1.636c-.953-.669-1.784-1.5-2.453-2.454a1 1 0 0 1 .244-1.393"/><path fill="#090404" d="M18.555 16.588a1 1 0 1 1 1.636 1.15c-.669.953-1.5 1.784-2.454 2.453a1 1 0 0 1-1.15-1.636 8 8 0 0 0 1.968-1.967"/><path fill="#090404" fill-rule="evenodd" d="M12 5.5a6.5 6.5 0 1 1 0 13 6.5 6.5 0 0 1 0-13M12 9a1 1 0 0 0-1 1v2a1 1 0 0 0 .293.707l1.5 1.5a1 1 0 1 0 1.414-1.414L13 11.586V10a1 1 0 0 0-1-1" clip-rule="evenodd"/><path fill="#090404" d="M2.15 10.264a1 1 0 1 1 1.97.345 8 8 0 0 0 0 2.782 1 1 0 0 1-1.97.345 10 10 0 0 1 0-3.472"/><path fill="#090404" d="M20.692 9.451a1 1 0 0 1 1.158.813 10 10 0 0 1 0 3.472 1 1 0 1 1-1.97-.345 8 8 0 0 0 0-2.782 1 1 0 0 1 .812-1.158"/><path fill="#090404" d="M6.263 3.809a1 1 0 0 1 1.15 1.636 8 8 0 0 0-1.968 1.967 1 1 0 1 1-1.636-1.15A10 10 0 0 1 6.263 3.81"/><path fill="#090404" d="M16.344 4.053a1 1 0 0 1 1.393-.244c.954.669 1.785 1.5 2.454 2.454a1 1 0 0 1-1.636 1.15 8 8 0 0 0-1.967-1.968 1 1 0 0 1-.244-1.392"/><path fill="#090404" d="M12 2q.888 0 1.736.15a1 1 0 1 1-.345 1.97 8 8 0 0 0-2.782 0 1 1 0 0 1-.345-1.97Q11.112 2 12 2"/></svg>