<svg xmlns="http://www.w3.org/2000/svg" fill="none" viewBox="0 0 24 24"><path fill="#090404" fill-rule="evenodd" d="M13 2a1 1 0 0 1 1 1v18a1 1 0 1 1-2 0v-2H4a2 2 0 0 1-2-2V7a2 2 0 0 1 2-2h8V3a1 1 0 0 1 1-1M5 15a1 1 0 1 0 0 2h1a1 1 0 1 0 0-2zm4.75 0a1 1 0 1 0 0 2h1a1 1 0 1 0 0-2zM5 7a1 1 0 0 0 0 2h1a1 1 0 0 0 0-2zm4.75 0a1 1 0 0 0 0 2h1a1 1 0 1 0 0-2z" clip-rule="evenodd"/><path fill="#090404" d="M19 5a1 1 0 0 1 1 1v12a1 1 0 1 1-2 0V6a1 1 0 0 1 1-1"/><path fill="#090404" d="M16 8a1 1 0 0 1 1 1v6a1 1 0 1 1-2 0V9a1 1 0 0 1 1-1"/><path fill="#090404" d="M22 9.5a1 1 0 0 1 1 1v3a1 1 0 1 1-2 0v-3a1 1 0 0 1 1-1"/></svg>