<svg xmlns="http://www.w3.org/2000/svg" fill="none" viewBox="0 0 24 24"><path fill="#090404" fill-rule="evenodd" d="M20 5.5c0-.754-.43-1.337-.905-1.737-.479-.405-1.113-.724-1.809-.973-1.4-.5-3.27-.79-5.286-.79-2.017 0-3.886.29-5.286.79-.696.249-1.33.568-1.81.973C4.43 4.163 4 4.746 4 5.5V10c0 .754.43 1.336.905 1.737.479.405 1.113.724 1.809.973 1.4.5 3.27.79 5.286.79 2.017 0 3.886-.29 5.286-.79.696-.249 1.33-.568 1.81-.973.474-.4.904-.983.904-1.737zM6.195 5.29a.8.8 0 0 0-.189.21.8.8 0 0 0 .19.21c.229.193.62.412 1.19.616C8.52 6.731 10.152 7 12 7c1.85 0 3.48-.27 4.613-.674.571-.204.962-.423 1.192-.617a.8.8 0 0 0 .189-.209.8.8 0 0 0-.19-.21c-.229-.193-.62-.412-1.19-.616C15.48 4.269 13.848 4 12 4c-1.85 0-3.48.27-4.613.674-.571.204-.962.423-1.192.617" clip-rule="evenodd"/><path fill="#090404" d="M17.959 14.593c.68-.243 1.4-.573 2.041-1.03V18.5c0 .754-.43 1.337-.905 1.737-.479.405-1.113.724-1.809.973-1.4.5-3.27.79-5.286.79-2.017 0-3.886-.29-5.286-.79-.696-.249-1.33-.568-1.81-.973C4.43 19.837 4 19.254 4 18.5v-4.936c.641.456 1.36.786 2.041 1.029 1.668.596 3.775.907 5.959.907s4.29-.311 5.959-.907"/></svg>