<svg xmlns="http://www.w3.org/2000/svg" fill="none" viewBox="0 0 24 24"><path fill="#090404" fill-rule="evenodd" d="M12 1a1 1 0 0 1 1 1v1.055a9 9 0 0 1 2.607.697l.527-.912a1 1 0 1 1 1.732 1l-.528.914a9 9 0 0 1 1.908 1.908l.914-.528a1 1 0 0 1 1 1.732l-.912.527c.356.814.595 1.69.697 2.607H22a1 1 0 1 1 0 2h-1.055a9 9 0 0 1-.697 2.607l.912.527a1 1 0 1 1-1 1.732l-.914-.527a9 9 0 0 1-1.908 1.908l.528.913a1 1 0 0 1-1.732 1l-.527-.912a9 9 0 0 1-2.607.697V22a1 1 0 1 1-2 0v-1.055a9 9 0 0 1-2.607-.697l-.527.912a1 1 0 0 1-1.732-1l.528-.913a9 9 0 0 1-1.908-1.908l-.914.527a1 1 0 1 1-1-1.732l.912-.527A9 9 0 0 1 3.055 13H2a1 1 0 1 1 0-2h1.055c.101-.917.34-1.793.697-2.607l-.912-.527a1 1 0 1 1 1-1.732l.914.528a9 9 0 0 1 1.908-1.908l-.528-.914a1 1 0 1 1 1.732-1l.527.912A9 9 0 0 1 11 3.055V2a1 1 0 0 1 1-1M7.67 6.5a7 7 0 0 0-1.734 2A6.96 6.96 0 0 0 5 12c0 1.277.341 2.471.936 3.5a7 7 0 0 0 1.734 2l2.05-3.55A3 3 0 0 1 9 12c0-.745.272-1.425.72-1.95zm3.782 2.55L9.4 5.498A7 7 0 0 1 12 5c1.277 0 2.471.341 3.5.936A7.04 7.04 0 0 1 18.064 8.5c.437.755.737 1.6.865 2.5h-4.1a3 3 0 0 0-3.377-1.95M14.829 13a3 3 0 0 1-3.377 1.95L9.4 18.502c.803.321 1.68.498 2.599.498a6.96 6.96 0 0 0 3.5-.936 7.04 7.04 0 0 0 2.564-2.564c.437-.755.737-1.6.865-2.5z" clip-rule="evenodd"/></svg>