<svg xmlns="http://www.w3.org/2000/svg" fill="none" viewBox="0 0 24 24"><path fill="#090404" fill-rule="evenodd" d="M5.951 2.997a1 1 0 0 1 1 1V10a1 1 0 1 1-2 0V3.997a1 1 0 0 1 1-1m6.049 0a1 1 0 0 1 1 1V8h.955a1 1 0 0 1 0 2h-3.91a1 1 0 0 1 0-2H11V3.997a1 1 0 0 1 1-1m6.048 0a1 1 0 0 1 1 1v8.004a1 1 0 1 1-2 0V3.997a1 1 0 0 1 1-1M12 12.001a1 1 0 0 1 1 1v7.003a1 1 0 1 1-2 0V13a1 1 0 0 1 1-1m-9.004 2a1 1 0 0 1 1-1h3.91a1 1 0 1 1 0 2h-.955v5.003a1 1 0 0 1-2 0v-5.003h-.955a1 1 0 0 1-1-1m12.097 2.001a1 1 0 0 1 1-1h3.91a1 1 0 1 1 0 2h-.955v3.002a1 1 0 1 1-2 0v-3.002h-.955a1 1 0 0 1-1-1" clip-rule="evenodd"/></svg>