<svg xmlns="http://www.w3.org/2000/svg" fill="none" viewBox="0 0 24 24"><path fill="#090404" d="M3 17.893c.685-.3 1.412-.482 2.197-.348.241.041.56.218 1 .663.436.441.872 1.018 1.393 1.696.265.345.553.72.87 1.096H5a2 2 0 0 1-2-2z"/><path fill="#090404" d="M5.894 12.082c.634-.17.996-.056 1.324.17.422.29.8.772 1.386 1.506.549.687 1.228 1.518 2.17 2.226.746.562 1.558.92 2.29 1.211.77.307 1.403.527 2.001.843.568.3 1.03.652 1.39 1.158.295.419.55.988.711 1.804h-5.868c-.727-.546-1.396-1.37-2.121-2.314-.487-.634-1.012-1.332-1.557-1.883-.54-.547-1.227-1.083-2.087-1.23A5.44 5.44 0 0 0 3 15.76v-2.02c1.324-1.005 2.241-1.482 2.894-1.657"/><path fill="#090404" d="M10.918 3c-.08 1.91.313 3.32 1.134 4.386.943 1.224 2.327 1.815 3.552 2.284 1.3.497 2.46.874 3.46 1.595.79.568 1.485 1.364 1.936 2.665V19c0 1.04-.793 1.892-1.807 1.99-.19-1.221-.564-2.182-1.107-2.949-.591-.835-1.333-1.374-2.087-1.772-.724-.382-1.533-.668-2.193-.931-.698-.278-1.305-.556-1.83-.951-.72-.542-1.263-1.195-1.808-1.877-.507-.635-1.092-1.408-1.816-1.906-.82-.564-1.787-.773-2.977-.454-.709.19-1.489.567-2.375 1.14V5a2 2 0 0 1 2-2z"/><path fill="#090404" d="M19 3a2 2 0 0 1 2 2v5.275a7 7 0 0 0-.767-.633c-1.27-.915-2.758-1.398-3.916-1.84-1.232-.472-2.116-.903-2.681-1.637-.459-.596-.8-1.524-.717-3.165z"/></svg>