<svg xmlns="http://www.w3.org/2000/svg" fill="none" viewBox="0 0 24 24"><path fill="#090404" fill-rule="evenodd" d="m17.401 11.442-1.177 1.21-.005.005-.579.596a1.077 1.077 0 0 1-1.554 0 1.16 1.16 0 0 1 0-1.605l1.754-1.803a1.077 1.077 0 0 1 1.554 0c.428.44.43 1.153.007 1.597m-4.74.867a2.3 2.3 0 0 0 .64 1.744c.863.886 2.261.886 3.123 0l1.754-1.804.01-.01 2.898-2.98a1.1 1.1 0 0 1 1.585 0c.432.445.439 1.157.02 1.604-1.437 1.529-3.952 4.17-5.865 5.98-.95.9-2.114 1.936-3.243 2.918-2.16 1.879-5.382 1.583-7.247-.63l-2.6-3.086a5.53 5.53 0 0 1-1.287-3.28L2 4h.06c1.166 0 2.225.706 2.7 1.805l1.412 3.268a.545.545 0 0 0 .898.17l.4-.41c.097.37.287.72.57 1.012.622.64 1.524.817 2.301.534.067.464.274.912.622 1.27a2.17 2.17 0 0 0 1.697.66m.64-1.46 1.17-1.203c.43-.443.43-1.162 0-1.605a1.077 1.077 0 0 0-1.554 0l-1.17 1.202a1.16 1.16 0 0 0 0 1.605c.43.442 1.125.442 1.555 0m-2.339-2.404.001-.001.585-.601c.43-.443.43-1.163 0-1.605a1.077 1.077 0 0 0-1.554 0L8.824 7.44a1.16 1.16 0 0 0 0 1.605c.43.442 1.125.442 1.555 0z" clip-rule="evenodd"/></svg>