<svg xmlns="http://www.w3.org/2000/svg" fill="none" viewBox="0 0 24 24"><path fill="#090404" d="M7 3a1 1 0 0 1 1 1v2h2a1 1 0 1 1 0 2H8v2a1 1 0 1 1-2 0V8H4a1 1 0 0 1 0-2h2V4a1 1 0 0 1 1-1"/><path fill="#090404" d="M17 3a4 4 0 1 0 0 8 4 4 0 0 0 0-8"/><path fill="#090404" d="M19.828 15.585a1 1 0 1 0-1.414-1.414L17 15.585l-1.414-1.414a1 1 0 0 0-1.414 1.414L15.586 17l-1.414 1.414a1 1 0 1 0 1.414 1.414L17 18.414l1.414 1.414a1 1 0 0 0 1.414-1.414L18.414 17z"/><path fill="#090404" d="M5 13a2 2 0 0 0-2 2v4a2 2 0 0 0 2 2h4a2 2 0 0 0 2-2v-4a2 2 0 0 0-2-2z"/></svg>