<svg xmlns="http://www.w3.org/2000/svg" fill="none" viewBox="0 0 24 24"><path fill="#090404" fill-rule="evenodd" d="M11.35 2.166a2 2 0 0 1 1.3 0l7 2.406A2 2 0 0 1 21 6.464v5.448c0 2.807-1.149 4.83-2.812 6.405-1.573 1.489-3.633 2.6-5.556 3.636l-.157.085a1 1 0 0 1-.95 0l-.157-.085c-1.923-1.037-3.983-2.147-5.555-3.636C4.149 16.742 3 14.719 3 11.912V6.464a2 2 0 0 1 1.35-1.892zm3.857 8.291a1 1 0 0 0-1.414-1.414L11 11.836l-.793-.793a1 1 0 0 0-1.414 1.414l1.5 1.5a1 1 0 0 0 1.414 0z" clip-rule="evenodd"/></svg>