<svg xmlns="http://www.w3.org/2000/svg" fill="none" viewBox="0 0 24 24"><path fill="#090404" d="M20 10a1 1 0 0 1 1 1c0 .408 0 .682-.025.943a5 5 0 0 1-2.154 3.63c-.216.147-.458.277-.816.473l-3.052 1.664c-.395.215-.531.291-.645.37a3 3 0 0 0-1.293 2.177C13 20.394 13 20.55 13 21a1 1 0 1 1-2 0c0-.408 0-.682.025-.943a5 5 0 0 1 2.154-3.63c.216-.147.458-.277.816-.473l3.052-1.664c.395-.215.531-.291.645-.37a3 3 0 0 0 1.293-2.177C19 11.606 19 11.45 19 11a1 1 0 0 1 1-1"/><path fill="#090404" d="M16 6a1 1 0 0 1 1 1c0 .408 0 .682-.025.943a5 5 0 0 1-2.154 3.63c-.216.147-.458.277-.816.473l-3.052 1.664c-.395.215-.531.291-.645.37a3 3 0 0 0-1.293 2.177C9 16.394 9 16.55 9 17a1 1 0 1 1-2 0c0-.408 0-.682.025-.943a5 5 0 0 1 2.154-3.63c.216-.147.458-.277.816-.473l3.052-1.664c.395-.215.531-.291.645-.37a3 3 0 0 0 1.293-2.177C15 7.606 15 7.45 15 7a1 1 0 0 1 1-1"/><path fill="#090404" d="M12 2a1 1 0 0 1 1 1c0 .408 0 .682-.025.943a5 5 0 0 1-2.154 3.63c-.216.147-.458.277-.816.473L6.953 9.71c-.395.215-.531.291-.645.37a3 3 0 0 0-1.293 2.177C5 12.394 5 12.55 5 13a1 1 0 1 1-2 0c0-.408 0-.682.025-.943a5 5 0 0 1 2.154-3.63c.216-.147.458-.277.816-.473L9.047 6.29c.395-.215.531-.291.645-.37a3 3 0 0 0 1.293-2.177C11 3.606 11 3.45 11 3a1 1 0 0 1 1-1"/></svg>