<svg xmlns="http://www.w3.org/2000/svg" fill="none" viewBox="0 0 24 24"><path fill="#090404" fill-rule="evenodd" d="M5.94 3a2 2 0 0 0-1.997 1.875l-.875 14A2 2 0 0 0 5.065 21h7.752c-.697-.888-1.318-2.092-1.318-3.582 0-1.364.439-2.678 1.376-3.678a4.7 4.7 0 0 1 3.43-1.49c.539 0 1.023.082 1.445.204a5.2 5.2 0 0 1 1.445-.204c.45 0 .9.065 1.335.194l-.473-7.569A2 2 0 0 0 18.06 3zM9 7a1 1 0 0 1 1 1 2 2 0 1 0 4 0 1 1 0 1 1 2 0 4 4 0 0 1-8 0 1 1 0 0 1 1-1" clip-rule="evenodd"/><path fill="#090404" fill-rule="evenodd" d="M15.793 16.476c-.14.149-.294.433-.294.942 0 .568.435 1.214 1.161 1.814a6.5 6.5 0 0 0 1.09.725q.063-.032.137-.073c.272-.151.618-.375.954-.652.726-.6 1.16-1.246 1.16-1.814 0-.509-.154-.793-.293-.942a.7.7 0 0 0-.512-.226 1.2 1.2 0 0 0-.73.245l-.023.018a1 1 0 0 1-1.386 0q-.004-.005-.022-.018a1.21 1.21 0 0 0-.73-.245.7.7 0 0 0-.512.226m1.957-1.883a3.2 3.2 0 0 0-1.445-.343c-.72 0-1.438.29-1.971.858-.538.574-.835 1.373-.835 2.31 0 1.508 1.056 2.669 1.887 3.356a8.5 8.5 0 0 0 1.256.858c.182.1.352.185.497.247q.11.047.225.086h.003c.047.016.201.065.383.065.183 0 .337-.05.384-.064l.003-.001q.115-.038.225-.086c.145-.062.315-.146.496-.247a8.5 8.5 0 0 0 1.257-.858c.831-.687 1.887-1.848 1.887-3.357 0-.936-.297-1.735-.835-2.31a2.7 2.7 0 0 0-1.972-.857c-.6 0-1.09.165-1.445.343" clip-rule="evenodd"/></svg>