<svg xmlns="http://www.w3.org/2000/svg" fill="none" viewBox="0 0 24 24"><path fill="#090404" fill-rule="evenodd" d="M12 2a4 4 0 0 0-4 4v1h-.642A2 2 0 0 0 5.38 8.696l-1.692 11A2 2 0 0 0 5.665 22h8.084c-.95-.869-2.25-2.426-2.25-4.582 0-1.364.438-2.678 1.376-3.678a4.7 4.7 0 0 1 3.43-1.49c.539 0 1.023.082 1.445.204.415-.12.889-.201 1.416-.204l-.547-3.554A2 2 0 0 0 16.642 7H16V6a4 4 0 0 0-4-4m2 5V6a2 2 0 0 0-4 0v1z" clip-rule="evenodd"/><path fill="#090404" fill-rule="evenodd" d="M16.305 14.25c.6 0 1.091.165 1.445.343a3.2 3.2 0 0 1 1.445-.343c.72 0 1.438.29 1.972.858.538.574.834 1.373.834 2.31 0 1.508-1.055 2.669-1.887 3.356a8.5 8.5 0 0 1-1.256.858c-.181.1-.351.185-.496.247q-.11.047-.226.086h-.002a1.3 1.3 0 0 1-.384.065c-.182 0-.337-.05-.383-.064l-.003-.001a3 3 0 0 1-.225-.086 6 6 0 0 1-.497-.247 8.5 8.5 0 0 1-1.256-.858c-.832-.687-1.887-1.848-1.887-3.357 0-.936.297-1.735.835-2.31a2.7 2.7 0 0 1 1.971-.857m-.806 3.168c0-.509.154-.793.294-.942a.7.7 0 0 1 .512-.226 1.2 1.2 0 0 1 .73.245l.022.018a1 1 0 0 0 1.386 0q.004-.005.022-.018a1.21 1.21 0 0 1 .73-.245c.183 0 .368.072.512.226.14.149.294.433.294.942 0 .568-.434 1.214-1.16 1.814a6.5 6.5 0 0 1-1.09.725l-.138-.073a6.5 6.5 0 0 1-.953-.652c-.726-.6-1.161-1.246-1.161-1.814" clip-rule="evenodd"/></svg>