<svg xmlns="http://www.w3.org/2000/svg" fill="none" viewBox="0 0 24 24"><path fill="#090404" fill-rule="evenodd" d="M8 6a4 4 0 0 1 8 0v1h.642a2 2 0 0 1 1.977 1.696l.619 4.023a4.64 4.64 0 0 0-3.86 1.326l-3.792 3.793A2 2 0 0 0 11 19.253V22H5.665a2 2 0 0 1-1.976-2.304l1.692-11A2 2 0 0 1 7.358 7H8zm6 1V6a2 2 0 0 0-4 0v1z" clip-rule="evenodd"/><path fill="#090404" fill-rule="evenodd" d="M20.54 15.46a2.65 2.65 0 0 0-3.747 0l-3.5 3.5a1 1 0 0 0-.293.707V22a1 1 0 0 0 1 1h2.333a1 1 0 0 0 .707-.293l3.5-3.5a2.65 2.65 0 0 0 0-3.747m-2.333 1.414a.65.65 0 0 1 .92.919L15.918 21h-.92v-.92z" clip-rule="evenodd"/></svg>