<svg xmlns="http://www.w3.org/2000/svg" fill="none" viewBox="0 0 24 24"><path fill="#090404" fill-rule="evenodd" d="M8 6a4 4 0 0 1 8 0v1h.642a2 2 0 0 1 1.977 1.696l.4 2.6a6.988 6.988 0 0 0-6.969 1.753 7 7 0 0 0-2.048 5.114A7 7 0 0 0 11.254 22H5.665a2 2 0 0 1-1.976-2.304l1.692-11A2 2 0 0 1 7.358 7H8zm6 1V6a2 2 0 0 0-4 0v1z" clip-rule="evenodd"/><path fill="#090404" fill-rule="evenodd" d="M17.116 13.001a5 5 0 0 0-3.652 1.463 5 5 0 0 0-1.463 3.652 4.99 4.99 0 0 0 1.463 3.42 5 5 0 0 0 3.652 1.463 4.99 4.99 0 0 0 3.42-1.463 4.99 4.99 0 0 0 1.462-3.42 4.99 4.99 0 0 0-1.463-3.652 4.99 4.99 0 0 0-3.419-1.463m2.592 6.293-4.002-4.002a3 3 0 0 1 4.002 4.002m-5.416-2.588 4.002 4.002a3 3 0 0 1-1.224.291 3 3 0 0 1-2.191-.878 2.999 2.999 0 0 1-.587-3.415" clip-rule="evenodd"/></svg>