<svg xmlns="http://www.w3.org/2000/svg" fill="none" viewBox="0 0 24 24"><path fill="#090404" fill-rule="evenodd" d="M8 6a4 4 0 0 1 8 0v1h.642a2 2 0 0 1 1.977 1.696L19.127 12H14a2 2 0 0 0-2 2v8H5.665a2 2 0 0 1-1.976-2.304l1.692-11A2 2 0 0 1 7.358 7H8zm6 1V6a2 2 0 0 0-4 0v1z" clip-rule="evenodd"/><path fill="#090404" fill-rule="evenodd" d="M15 14a1 1 0 0 0-1 1v6a1 1 0 0 0 1.514.858l1.986-1.192 1.985 1.192A1 1 0 0 0 21 21v-6a1 1 0 0 0-1-1zm1 5.234V16h3v3.234l-.986-.592a1 1 0 0 0-1.029 0z" clip-rule="evenodd"/></svg>