<svg xmlns="http://www.w3.org/2000/svg" fill="none" viewBox="0 0 24 24"><path fill="#090404" d="M16.028 2.583a1.99 1.99 0 0 1 2.817 0l2.575 2.575c.778.778.778 2.04 0 2.818l-1.287 1.287a3.814 3.814 0 0 1-4.595.61l-3.664 3.664 2.077 2.078c.774.774.789 2.05-.025 2.826-3.116 2.97-6.491 4.43-10.746 3.012a1 1 0 0 1-.63-.63c-1.418-4.254.043-7.629 3.013-10.745a1.975 1.975 0 0 1 2.826-.026l2.077 2.077 3.664-3.664a3.814 3.814 0 0 1 .61-4.594zm.121 2.696a1.821 1.821 0 0 0 2.575 2.575l1.288-1.288-2.576-2.574z"/></svg>