<svg xmlns="http://www.w3.org/2000/svg" fill="none" viewBox="0 0 24 24"><path fill="#090404" d="M19.657 2.315a1 1 0 0 0-1.458 1.37 8.5 8.5 0 0 1 0 11.63 1 1 0 0 0 1.458 1.37c3.79-4.036 3.79-10.334 0-14.37"/><path fill="#090404" d="M5.795 3.691a1 1 0 1 0-1.46-1.367c-3.783 4.035-3.78 10.328.008 14.36A1 1 0 1 0 5.8 15.316a8.5 8.5 0 0 1-.005-11.624"/><path fill="#090404" d="M8.394 5.23a1 1 0 0 1 .134 1.407 4.5 4.5 0 0 0 0 5.726 1 1 0 0 1-1.542 1.274 6.5 6.5 0 0 1 0-8.274 1 1 0 0 1 1.408-.134"/><path fill="#090404" d="M15.606 5.23a1 1 0 0 1 1.408.133 6.5 6.5 0 0 1 0 8.274 1 1 0 1 1-1.542-1.274 4.5 4.5 0 0 0 0-5.726 1 1 0 0 1 .134-1.408"/><path fill="#090404" fill-rule="evenodd" d="M9.5 9.5a2.5 2.5 0 1 1 4.246 1.79l3.2 9.387a1 1 0 0 1-1.893.646L14.263 19H9.738l-.791 2.323a1 1 0 0 1-1.894-.646l3.201-9.388A2.5 2.5 0 0 1 9.5 9.5m.92 7.5h3.16L12 12.366z" clip-rule="evenodd"/></svg>