<svg xmlns="http://www.w3.org/2000/svg" fill="none" viewBox="0 0 24 24"><path fill="#090404" fill-rule="evenodd" d="M9.991 5.01c-.291-.036-.61.02-.968.264-.586.398-.859.855-.966 1.331-.113.504-.058 1.116.172 1.812.367 1.107 1.124 2.26 1.947 3.194.881-.809 1.79-1.382 2.713-1.604a13 13 0 0 0-.267-1.842c-.237-1.031-.862-2.073-1.606-2.671-.364-.293-.714-.446-1.025-.484m4.912 5.11a16 16 0 0 0-.332-2.402c-.325-1.417-1.168-2.87-2.301-3.783-.575-.462-1.265-.816-2.036-.91-.79-.097-1.593.09-2.336.595-.984.67-1.568 1.55-1.792 2.547-.218.968-.078 1.964.225 2.879.49 1.483 1.468 2.921 2.472 4.029q-.094.113-.188.23c-.432.538-.832 1.275-1.132 2.045q-.123.316-.227.65H2a1 1 0 1 0 0 2h4.911c-.009.755.15 1.616.758 2.247.703.73 1.73.882 2.856.655 1.59-.32 2.614-1.515 3.261-2.902H22a1 1 0 1 0 0-2h-7.53c.268-1.107.41-2.298.46-3.45.33.371.674.932 1.008 1.757.118.29.337.73.784.96.596.307 1.135.05 1.41-.166.253-.2.443-.47.575-.677.138-.22.271-.466.391-.699q.026.135.07.268c.081.232.232.508.517.72.288.213.616.287.915.287H22a1 1 0 1 0 0-2h-.952l.004-.17c.007-.248.018-.62-.037-.956-.064-.396-.257-.989-.877-1.32-.557-.298-1.089-.112-1.405.112-.275.195-.479.468-.617.678-.227.343-.457.797-.65 1.178l-.076.152c-.62-1.206-1.43-2.148-2.487-2.553m2.938 3.538-.008-.012zm-4.896-1.563c-.37.163-.803.442-1.302.885q.087.063.17.117a1 1 0 0 1-1.104 1.669 7 7 0 0 1-.444-.32l-.091.112c-.26.324-.555.838-.797 1.442H12.4c.343-1.18.512-2.562.545-3.905M11.482 18h-2.57c-.011.52.109.768.197.86.046.047.257.235 1.022.081.498-.1.954-.41 1.35-.941m-10.19-7.707a1 1 0 0 1 1.415 0l.793.793.793-.793a1 1 0 0 1 1.414 1.414l-.793.793.793.793a1 1 0 1 1-1.414 1.414l-.793-.793-.793.793a1 1 0 0 1-1.414-1.414l.793-.793-.793-.793a1 1 0 0 1 0-1.414" clip-rule="evenodd"/></svg>