<svg xmlns="http://www.w3.org/2000/svg" fill="none" viewBox="0 0 24 24"><path fill="#090404" fill-rule="evenodd" d="M12 2a8.25 8.25 0 1 1 0 16.5A8.25 8.25 0 0 1 12 2m-.082 4q-.842 0-1.48.31-.633.305-.984.872-.14.225-.224.485c-.148.46.265.861.748.861.47 0 .768-.15 1.004-.59a.9.9 0 0 1 .373-.369q.24-.13.556-.13.313 0 .556.123.242.125.38.351.137.225.137.54 0 .284-.115.526-.116.24-.336.477a9 9 0 0 1-.533.519L9.526 12.14a.914.914 0 0 0 .602 1.6h3.996a.745.745 0 0 0 0-1.488h-2.317a.034.034 0 0 1-.034-.033q0-.016.011-.026l.902-.832q.832-.723 1.283-1.242.455-.518.63-.947.175-.43.175-.865 0-.688-.354-1.204a2.3 2.3 0 0 0-.991-.813Q12.787 6 11.918 6" clip-rule="evenodd"/><path fill="#090404" d="M16.5 22a1 1 0 0 1-1.274.962L12 22.04l-3.226.922A1 1 0 0 1 7.5 22v-3.382A9.46 9.46 0 0 0 12 19.75c1.628 0 3.16-.41 4.5-1.132z"/></svg>