<svg xmlns="http://www.w3.org/2000/svg" fill="none" viewBox="0 0 24 24"><path fill="#090404" d="M12 4a1 1 0 0 0 1-1V2a1 1 0 1 0-2 0v1a1 1 0 0 0 1 1"/><path fill="#090404" d="M6.343 6.343a1 1 0 0 0 0-1.414l-.707-.707a1 1 0 0 0-1.414 1.414l.707.707a1 1 0 0 0 1.414 0"/><path fill="#090404" d="M17.657 6.343a1 1 0 0 0 1.414 0l.707-.707a1 1 0 0 0-1.414-1.414l-.707.707a1 1 0 0 0 0 1.414"/><path fill="#090404" d="M4 12a1 1 0 0 0-1-1H2a1 1 0 1 0 0 2h1a1 1 0 0 0 1-1"/><path fill="#090404" d="M23 12a1 1 0 0 0-1-1h-1a1 1 0 1 0 0 2h1a1 1 0 0 0 1-1"/><path fill="#090404" d="M18 16v-4a6 6 0 0 0-12 0v4h5v-2a1 1 0 1 1 2 0v2z"/><path fill="#090404" d="M20 18.5a1.5 1.5 0 0 0-1.5-1.5h-13A1.5 1.5 0 0 0 4 18.5v2A1.5 1.5 0 0 0 5.5 22h13a1.5 1.5 0 0 0 1.5-1.5z"/></svg>