<svg xmlns="http://www.w3.org/2000/svg" fill="none" viewBox="0 0 24 24"><path fill="#090404" d="M21.992 11.578A10.006 10.006 0 0 0 11.79 2.002 10 10 0 0 0 2 11.997c0 .019.03 1.141.108 1.691.082.58.47 1.755.51 1.778a10.005 10.005 0 0 0 11.092 6.387 10 10 0 0 0 8.282-10.275m-9.983 8.953A8.53 8.53 0 0 1 4.82 16.6a4.4 4.4 0 0 0 1.6.326c1.988-.02 3.71-.623 5.321-1.684.527-.347 1.26-.95 1.769-1.32l-1.202-1.094c-1.186.845-3.07 2.193-4.543 2.43-2.685.432-4.48-1.364-4.266-3.97.156-1.112.767-2.14 1.87-2.586 1.16-.469 2.313-.347 3.426.166 1.357.62 2.381 1.683 3.466 2.664 1.007.911 2.07 1.756 3.046 2.702 1.562 1.519 3.23 1.665 4.503 1.227a8.54 8.54 0 0 1-7.802 5.069m7.764-6.794-.007.006c-.297.227-.665.34-1.038.322h-.026q-.233 0-.462-.056h-.009c-1.153-.23-2.014-.96-2.858-1.709-1.302-1.16-2.558-2.367-3.903-3.47C9.52 7.223 7 6.4 4.69 7.586a8.54 8.54 0 0 1 8.118-4.101 8.54 8.54 0 0 1 7.211 5.542c-.782-.28-1.932-.428-2.92.15-.75.437-1.442.87-2.253 1.431a48 48 0 0 0 1.177 1.06c.358-.26 1.887-1.491 2.791-1.453 1.065 0 1.886 1.08 1.798 2.1a1.94 1.94 0 0 1-.839 1.422"/></svg>