<svg xmlns="http://www.w3.org/2000/svg" fill="none" viewBox="0 0 24 24"><path fill="#090404" fill-rule="evenodd" d="m1.105 8.96 4.473-6.07a.56.56 0 0 1 .387-.223l5.974-.664a.6.6 0 0 1 .122 0l5.974.664c.153.016.296.099.387.223l4.473 6.07a.57.57 0 0 1-.028.696l-10.55 12.2a.423.423 0 0 1-.633 0L1.132 9.655a.57.57 0 0 1-.027-.695M13.54 3.799l4.217 3.983c.181.172.489.026.47-.223l-.202-2.827c-.013-.157.229-.21.273-.049l.925 3.238a.7.7 0 0 0 .45.47l1.974.657c.146.048.111.272-.043.272h-1.897a.71.71 0 0 0-.588.323l-5.171 8.125a.21.21 0 0 1-.365-.203l3.706-7.644a.422.422 0 0 0-.376-.6H7.088a.422.422 0 0 0-.376.6l3.706 7.644a.21.21 0 0 1-.365.204l-5.17-8.125a.7.7 0 0 0-.59-.324H2.339c-.154 0-.19-.224-.043-.272l2.029-.659a.7.7 0 0 0 .454-.472l.924-3.234c.044-.158.287-.115.274.049l-.202 2.827c-.019.249.289.395.47.223l4.217-3.983a.14.14 0 0 1 .205.19L7.836 7.47a.281.281 0 0 0 .216.454h7.896c.23 0 .36-.276.216-.454l-2.83-3.482a.14.14 0 0 1 .108-.231.14.14 0 0 1 .097.04" clip-rule="evenodd"/></svg>