<svg xmlns="http://www.w3.org/2000/svg" fill="none" viewBox="0 0 24 24"><path fill="#090404" fill-rule="evenodd" d="M6.582 2.433C7.095 1.687 8.016 1 9.5 1s2.405.687 2.918 1.433c.134.196.237.39.316.567H16a2 2 0 0 1 2 2v9h2.5v-3.208a2.5 2.5 0 1 1 2 0V14a2 2 0 0 1-2 2H18v3a2 2 0 0 1-2 2H3a2 2 0 0 1-2-2V5a2 2 0 0 1 2-2h3.266c.079-.177.182-.371.316-.567M16 9h-3v6h3zM3 15h3V9H3zm5-6v6h3V9z" clip-rule="evenodd"/><path fill="#090404" d="M3.75 11.75a.75.75 0 0 1 1.5 0v.5a.75.75 0 0 1-1.5 0z"/><path fill="#090404" d="M8.75 11.75a.75.75 0 0 1 1.5 0v.5a.75.75 0 0 1-1.5 0z"/><path fill="#090404" d="M13.75 11.75a.75.75 0 0 1 1.5 0v.5a.75.75 0 0 1-1.5 0z"/></svg>