<svg xmlns="http://www.w3.org/2000/svg" fill="none" viewBox="0 0 24 24"><path fill="#090404" fill-rule="evenodd" d="M6.907 2.78A2 2 0 0 1 8.895 1h6.21a2 2 0 0 1 1.988 1.78l.376 3.381A7.98 7.98 0 0 1 20 12c0 2.304-.974 4.38-2.532 5.84l-.375 3.38A2 2 0 0 1 15.105 23h-6.21a2 2 0 0 1-1.988-1.78l-.376-3.381A7.98 7.98 0 0 1 4 12c0-2.304.974-4.38 2.532-5.84zm1.798 16.512L8.895 21h6.21l.19-1.708A8 8 0 0 1 12 20a8 8 0 0 1-3.295-.708M15.105 3l.19 1.708A8 8 0 0 0 12 4c-1.173 0-2.29.253-3.295.708L8.895 3zM13 9a1 1 0 1 0-2 0v3a1 1 0 0 0 .293.707l1.5 1.5a1 1 0 0 0 1.414-1.414L13 11.586z" clip-rule="evenodd"/></svg>