<svg xmlns="http://www.w3.org/2000/svg" fill="none" viewBox="0 0 24 24"><path fill="#090404" fill-rule="evenodd" d="M14.999 3c.552 0 1.014.455.877.99a4.002 4.002 0 0 1-7.753 0c-.136-.535.325-.99.878-.99z" clip-rule="evenodd"/><path fill="#090404" fill-rule="evenodd" d="M3 4a1 1 0 0 1 1-1h1a1 1 0 0 1 0 2H4a1 1 0 0 1-1-1m15 0a1 1 0 0 1 1-1h1a1 1 0 0 1 0 2h-1a1 1 0 0 1-1-1m-6 5a1 1 0 0 1 1 1v1a1 1 0 0 1-2 0v-1a1 1 0 0 1 1-1" clip-rule="evenodd"/><path fill="#090404" fill-rule="evenodd" d="M7.707 7.543a1 1 0 0 1 0 1.414l-.75.75a1 1 0 0 1-1.414-1.414l.75-.75a1 1 0 0 1 1.414 0" clip-rule="evenodd"/><path fill="#090404" fill-rule="evenodd" d="M16.293 7.543a1 1 0 0 0 0 1.414l.75.75a1 1 0 0 0 1.414-1.414l-.75-.75a1 1 0 0 0-1.414 0" clip-rule="evenodd"/><path fill="#090404" d="M11 16a1 1 0 0 0-1-1H5.618a2 2 0 0 0-1.789 1.106l-1 2A2 2 0 0 0 4.618 21H10a1 1 0 0 0 1-1z"/><path fill="#090404" d="M13 20a1 1 0 0 0 1 1h5.382a2 2 0 0 0 1.789-2.894l-1-2A2 2 0 0 0 18.38 15H14a1 1 0 0 0-1 1z"/></svg>