<svg xmlns="http://www.w3.org/2000/svg" fill="none" viewBox="0 0 24 24"><path fill="#090404" d="M5 3a2 2 0 0 0-2 2v4a2 2 0 0 0 2 2h4a2 2 0 0 0 2-2V5a2 2 0 0 0-2-2z"/><path fill="#090404" d="M18.707 3.293a1 1 0 0 0-1.414 0l-3 3a1 1 0 0 0 1.414 1.414L17 6.414v11.172l-1.293-1.293a1 1 0 0 0-1.414 1.414l3 3a1 1 0 0 0 1.414 0l3-3a1 1 0 0 0-1.414-1.414L19 17.586V6.414l1.293 1.293a1 1 0 1 0 1.414-1.414z"/><path fill="#090404" d="M5 13a2 2 0 0 0-2 2v4a2 2 0 0 0 2 2h4a2 2 0 0 0 2-2v-4a2 2 0 0 0-2-2z"/></svg>