<svg xmlns="http://www.w3.org/2000/svg" fill="none" viewBox="0 0 24 24"><path fill="#090404" d="M12.472 3.118A1 1 0 0 1 13 4v16a1 1 0 0 1-1.555.832L5.697 17H3a2 2 0 0 1-2-2V9a2 2 0 0 1 2-2h2.697l5.748-3.832a1 1 0 0 1 1.027-.05"/><path fill="#090404" d="M17.1 13.79a.422.422 0 0 1 .8 0l.382 1.159a.42.42 0 0 0 .269.269l1.159.381a.422.422 0 0 1 0 .802l-1.159.381a.42.42 0 0 0-.269.269l-.381 1.159a.422.422 0 0 1-.802 0l-.381-1.159a.42.42 0 0 0-.269-.269l-1.159-.381a.422.422 0 0 1 0-.802l1.159-.381a.42.42 0 0 0 .269-.269z"/><path fill="#090404" d="M18.939 5.906c.178-.541.944-.541 1.122 0l.534 1.623a.59.59 0 0 0 .376.376l1.623.534c.541.178.541.944 0 1.122l-1.623.534a.59.59 0 0 0-.376.376l-.534 1.623c-.178.541-.944.541-1.122 0l-.534-1.623a.59.59 0 0 0-.376-.376l-1.623-.534c-.541-.178-.541-.944 0-1.122l1.623-.534a.59.59 0 0 0 .376-.376z"/></svg>