<svg xmlns="http://www.w3.org/2000/svg" fill="none" viewBox="0 0 24 24"><path fill="#090404" fill-rule="evenodd" d="M12 2C6.477 2 2 6.477 2 12c0 2.56.964 4.898 2.547 6.667A9.98 9.98 0 0 0 12 22a9.98 9.98 0 0 0 7.453-3.333A9.97 9.97 0 0 0 22 12c0-5.523-4.477-10-10-10m0 14c2.029 0 3.88.754 5.292 2A7.97 7.97 0 0 1 12 20a7.97 7.97 0 0 1-5.292-2A7.97 7.97 0 0 1 12 16m-1.316-8.092-1.29.645a.5.5 0 0 0 0 .894l1.29.645a.5.5 0 0 1 .224.224l.645 1.29a.5.5 0 0 0 .894 0l.645-1.29a.5.5 0 0 1 .224-.224l1.29-.645a.5.5 0 0 0 0-.894l-1.29-.645a.5.5 0 0 1-.224-.224l-.645-1.29a.5.5 0 0 0-.894 0l-.645 1.29a.5.5 0 0 1-.224.224" clip-rule="evenodd"/></svg>