<svg xmlns="http://www.w3.org/2000/svg" fill="none" viewBox="0 0 24 24"><path fill="#090404" d="M14.013 7a1 1 0 0 1 .934.641l1.344 3.494a1 1 0 0 0 .574.574l3.494 1.344a1 1 0 0 1 .641.934v.026a1 1 0 0 1-.641.934l-3.494 1.344a1 1 0 0 0-.574.574l-1.344 3.494a1 1 0 0 1-.934.641h-.026a1 1 0 0 1-.934-.641l-1.344-3.494a1 1 0 0 0-.574-.574l-3.494-1.344A1 1 0 0 1 7 14.013v-.026a1 1 0 0 1 .641-.934l3.494-1.344a1 1 0 0 0 .574-.574l1.344-3.494A1 1 0 0 1 13.987 7z"/><path fill="#090404" d="M7 3c.241 0 .458.149.544.374l.697 1.81a1 1 0 0 0 .574.575l1.811.697a.583.583 0 0 1 0 1.088l-1.81.697a1 1 0 0 0-.575.574l-.697 1.811a.583.583 0 0 1-1.088 0l-.697-1.81a1 1 0 0 0-.574-.575l-1.811-.697a.583.583 0 0 1 0-1.088l1.81-.697a1 1 0 0 0 .575-.574l.697-1.811A.58.58 0 0 1 7 3"/></svg>