<svg xmlns="http://www.w3.org/2000/svg" fill="none" viewBox="0 0 24 24"><path fill="#090404" d="M8 16a1 1 0 1 0 2 0c0-2.309.51-3.742 1.384-4.616S13.691 10 16 10a1 1 0 1 0 0-2c-2.309 0-3.742-.51-4.616-1.384S10 4.308 10 2a1 1 0 0 0-2 0c0 2.308-.51 3.742-1.384 4.616S4.308 8 2 8a1 1 0 0 0 0 2c2.308 0 3.742.51 4.616 1.384S8 13.691 8 16"/><path fill="#090404" d="M16.5 22a1 1 0 1 0 2 0c0-1.44.32-2.25.785-2.715.466-.465 1.275-.785 2.715-.785a1 1 0 1 0 0-2c-1.44 0-2.25-.32-2.715-.785-.465-.466-.785-1.275-.785-2.715a1 1 0 1 0-2 0c0 1.44-.32 2.25-.785 2.715-.466.465-1.275.785-2.715.785a1 1 0 1 0 0 2c1.44 0 2.25.32 2.715.785.465.466.785 1.275.785 2.715"/></svg>