<svg xmlns="http://www.w3.org/2000/svg" fill="none" viewBox="0 0 24 24"><path fill="#090404" d="M8 14c.18 0 .342.112.407.28l.484 1.255a1 1 0 0 0 .574.574l1.255.484a.436.436 0 0 1 0 .814l-1.255.484a1 1 0 0 0-.574.574l-.484 1.255a.436.436 0 0 1-.814 0l-.484-1.255a1 1 0 0 0-.574-.574l-1.255-.484a.436.436 0 0 1 0-.814l1.255-.484a1 1 0 0 0 .574-.574l.484-1.255A.44.44 0 0 1 8 14"/><path fill="#090404" d="M16 6c.361 0 .686.222.815.56l1.125 2.925a1 1 0 0 0 .575.575l2.925 1.125a.874.874 0 0 1 0 1.63l-2.925 1.125a1 1 0 0 0-.575.575l-1.125 2.925a.874.874 0 0 1-1.63 0l-1.125-2.925a1 1 0 0 0-.575-.575l-2.925-1.125a.874.874 0 0 1 0-1.63l2.925-1.125a1 1 0 0 0 .575-.575l1.125-2.925A.87.87 0 0 1 16 6"/><path fill="#090404" d="M6 4c.24 0 .457.148.544.373l.696 1.813a1 1 0 0 0 .574.574l1.813.696a.583.583 0 0 1 0 1.088l-1.813.696a1 1 0 0 0-.574.574l-.696 1.813a.583.583 0 0 1-1.088 0L4.76 9.814a1 1 0 0 0-.574-.574l-1.813-.696a.583.583 0 0 1 0-1.088l1.813-.696a1 1 0 0 0 .574-.574l.696-1.813A.58.58 0 0 1 6 4"/></svg>