<svg xmlns="http://www.w3.org/2000/svg" fill="none" viewBox="0 0 24 24"><path fill="#090404" d="M4.293 18.293a1 1 0 1 1 1.414 1.414l-2 2a1 1 0 0 1-1.414-1.414z"/><path fill="#090404" d="M18.293 18.293a1 1 0 0 1 1.414 0l2 2a1 1 0 0 1-1.414 1.414l-2-2a1 1 0 0 1 0-1.414"/><path fill="#090404" d="M12 3c.7 0 1.337.391 1.656 1.006l.06.125 1.846 4.308 4.307 1.845a1.867 1.867 0 0 1 0 3.432l-4.307 1.846-1.846 4.307a1.867 1.867 0 0 1-3.432 0L8.44 15.562 4.13 13.716a1.867 1.867 0 0 1 0-3.432L8.439 8.44l1.845-4.308C10.578 3.445 11.254 3 12 3"/><path fill="#090404" d="M2.293 2.293a1 1 0 0 1 1.414 0l2 2a1 1 0 0 1-1.414 1.414l-2-2a1 1 0 0 1 0-1.414"/><path fill="#090404" d="M20.293 2.293a1 1 0 1 1 1.414 1.414l-2 2a1 1 0 0 1-1.414-1.414z"/></svg>