<svg xmlns="http://www.w3.org/2000/svg" fill="none" viewBox="0 0 24 24"><path fill="#090404" d="M18.886 2.345a.389.389 0 0 0-.772 0c-.106.914-.377 1.54-.803 1.966-.425.426-1.052.697-1.967.803a.389.389 0 0 0 .001.772c.899.102 1.54.374 1.977.802.434.426.71 1.052.79 1.958a.389.389 0 0 0 .775-.001c.078-.89.354-1.53.79-1.967s1.078-.714 1.968-.79a.389.389 0 0 0 0-.775c-.905-.08-1.53-.357-1.957-.791-.428-.437-.7-1.078-.802-1.977"/><path fill="#090404" d="M11.994 4.887a1 1 0 0 0-1.987-.002c-.272 2.351-.97 3.964-2.064 5.058s-2.707 1.792-5.058 2.064a1 1 0 0 0 .002 1.987c2.312.261 3.961.96 5.083 2.061 1.116 1.096 1.827 2.706 2.034 5.034a1 1 0 0 0 1.992-.003c.198-2.288.91-3.935 2.032-5.058 1.123-1.123 2.77-1.834 5.058-2.032a1 1 0 0 0 .003-1.992c-2.328-.207-3.938-.918-5.034-2.034-1.101-1.122-1.8-2.771-2.061-5.083"/></svg>