<svg xmlns="http://www.w3.org/2000/svg" fill="none" viewBox="0 0 24 24"><path fill="#090404" d="M7 3.732 3.34 5.845a2 2 0 0 0-1 1.732v2.31L7 12.577z"/><path fill="#090404" d="M2.34 12.196v4.227a2 2 0 0 0 1 1.732l2 1.154L10 16.62z"/><path fill="#090404" d="M7.34 20.464 11 22.577a2 2 0 0 0 2 0l2-1.154v-5.381z"/><path fill="#090404" d="m17 20.268 3.66-2.113a2 2 0 0 0 1-1.732v-2.31L17 11.423z"/><path fill="#090404" d="M21.66 11.804V7.577a2 2 0 0 0-1-1.732l-2-1.154L14 7.38z"/><path fill="#090404" d="M16.66 3.536 13 1.423a2 2 0 0 0-2 0L9 2.577V7.96z"/><path fill="#090404" d="m12 15.464-3-1.732v-3.464l3-1.732 3 1.732v3.464z"/></svg>