<svg xmlns="http://www.w3.org/2000/svg" fill="none" viewBox="0 0 24 24"><path fill="#090404" d="M2.193 10.034a1 1 0 0 1 1.961.39A8 8 0 0 0 4 12a7.98 7.98 0 0 0 2.667 5.963 1 1 0 0 1-1.334 1.49A9.98 9.98 0 0 1 2 12q.001-1.01.193-1.966"/><path fill="#090404" d="M12 2c5.523 0 10 4.477 10 10a9.98 9.98 0 0 1-3.333 7.453 1 1 0 0 1-1.334-1.49A8 8 0 1 0 5.595 7.206a1 1 0 0 1-1.6-1.2A9.99 9.99 0 0 1 12 2"/><path fill="#090404" d="M7.677 10.033c1.307.08 3.786.347 5.323 1.235a2 2 0 1 1-2 3.463c-1.537-.887-3.006-2.9-3.73-3.993a.449.449 0 0 1 .407-.705"/></svg>