<svg xmlns="http://www.w3.org/2000/svg" fill="none" viewBox="0 0 24 24"><path fill="#090404" d="M9.778 2.248a1.001 1.001 0 0 1 .444 1.95 8.004 8.004 0 0 0-3.555 13.766 1 1 0 0 1-1.334 1.49A9.98 9.98 0 0 1 2 12c0-4.76 3.325-8.743 7.778-9.753"/><path fill="#090404" d="M13.024 3.002a1 1 0 0 1 1.198-.754C18.675 3.258 22 7.24 22 12a9.98 9.98 0 0 1-3.333 7.453 1 1 0 0 1-1.334-1.49 8.004 8.004 0 0 0-3.555-13.765 1 1 0 0 1-.754-1.197"/><path fill="#090404" d="M11.594 7.773a.448.448 0 0 1 .813 0c.585 1.173 1.594 3.452 1.594 5.227a2 2 0 0 1-4 0c0-1.775 1.008-4.054 1.593-5.227"/></svg>