<svg xmlns="http://www.w3.org/2000/svg" fill="none" viewBox="0 0 24 24"><path fill="#090404" d="M17 15.5a2.5 2.5 0 1 1 0 5 2.5 2.5 0 0 1 0-5"/><path fill="#090404" d="M11 16a2 2 0 1 1 0 4 2 2 0 0 1 0-4"/><path fill="#090404" d="M6 16.5a1.5 1.5 0 1 1 0 3 1.5 1.5 0 0 1 0-3"/><path fill="#090404" d="M17 9.5a2.5 2.5 0 1 1 0 5 2.5 2.5 0 0 1 0-5"/><path fill="#090404" d="M11 10a2 2 0 1 1 0 4 2 2 0 0 1 0-4"/><path fill="#090404" d="M6 10.5a1.5 1.5 0 1 1 0 3 1.5 1.5 0 0 1 0-3"/><path fill="#090404" d="M17 3.5a2.5 2.5 0 1 1 0 5 2.5 2.5 0 0 1 0-5"/><path fill="#090404" d="M11 4a2 2 0 1 1 0 4 2 2 0 0 1 0-4"/><path fill="#090404" d="M6 4.5a1.5 1.5 0 1 1 0 3 1.5 1.5 0 0 1 0-3"/></svg>