<svg xmlns="http://www.w3.org/2000/svg" fill="none" viewBox="0 0 24 24"><path fill="#090404" d="M3.003 5c0-1.104.894-1.998 1.997-1.998h4c1.103 0 1.998.894 1.998 1.997v4A2 2 0 0 1 9 10.997H5a2 2 0 0 1-1.997-1.998z"/><path fill="#090404" d="M3.003 15c0-1.104.894-1.998 1.997-1.998h4c1.103 0 1.998.894 1.998 1.997v4A2 2 0 0 1 9 20.998H5A2 2 0 0 1 3.003 19z"/><path fill="#090404" d="M13.003 5c0-1.104.894-1.998 1.997-1.998h4c1.103 0 1.997.894 1.997 1.997v4A2 2 0 0 1 19 10.997h-4a2 2 0 0 1-1.998-1.998z"/><path fill="#090404" fill-rule="evenodd" d="M17 13.002a3.997 3.997 0 1 0 0 7.995 3.997 3.997 0 0 0 0-7.995M14.998 17a2.003 2.003 0 1 1 4.005 0 2.003 2.003 0 0 1-4.005 0" clip-rule="evenodd"/></svg>