<svg xmlns="http://www.w3.org/2000/svg" fill="none" viewBox="0 0 24 24"><path fill="#090404" fill-rule="evenodd" d="M3 5a2 2 0 0 1 2-2h1a1 1 0 0 1 0 2H5v1a1 1 0 0 1-2 0zm6.5-1a1 1 0 0 1 1-1h3a1 1 0 1 1 0 2h-3a1 1 0 0 1-1-1M17 4a1 1 0 0 1 1-1h1a2 2 0 0 1 2 2v1a1 1 0 1 1-2 0V5h-1a1 1 0 0 1-1-1M4 9.5a1 1 0 0 1 1 1v3a1 1 0 1 1-2 0v-3a1 1 0 0 1 1-1m16 0a1 1 0 0 1 1 1v3a1 1 0 1 1-2 0v-3a1 1 0 0 1 1-1M4 17a1 1 0 0 1 1 1v1h1a1 1 0 1 1 0 2H5a2 2 0 0 1-2-2v-1a1 1 0 0 1 1-1m16 0a1 1 0 0 1 1 1v1a2 2 0 0 1-2 2h-1a1 1 0 1 1 0-2h1v-1a1 1 0 0 1 1-1M9.5 20a1 1 0 0 1 1-1h3a1 1 0 1 1 0 2h-3a1 1 0 0 1-1-1" clip-rule="evenodd"/><path fill="#090404" d="M7 7.5a.5.5 0 0 1 .5-.5h9a.5.5 0 0 1 .5.5v9a.5.5 0 0 1-.5.5h-9a.5.5 0 0 1-.5-.5z"/></svg>