<svg xmlns="http://www.w3.org/2000/svg" fill="none" viewBox="0 0 24 24"><path fill="#090404" d="M16.4 21H5.6c-.65 0-1.08 0-1.51-.22-.38-.19-.68-.49-.87-.87C3 19.48 3 19.05 3 18.4V7.6c0-.65 0-1.08.22-1.51.19-.38.5-.68.87-.87C4.52 5 4.95 5 5.6 5H9c.55 0 1 .45 1 1s-.45 1-1 1H5.6c-.28 0-.57 0-.65.02.05.01.05.3.05.58v10.8c0 .28 0 .57.02.65.01-.05.3-.05.58-.05h10.8c.28 0 .57 0 .65-.02-.05-.01-.05-.3-.05-.58V15c0-.55.45-1 1-1s1 .45 1 1v3.4c0 .65 0 1.08-.22 1.51-.19.38-.49.68-.87.87-.43.22-.86.22-1.51.22M11 14c-.26 0-.51-.1-.71-.29a.996.996 0 0 1 0-1.41l7.29-7.29h-3.59c-.55 0-1-.45-1-1s.45-1 1-1h6c.13 0 .26.03.38.08a1 1 0 0 1 .55.55c.05.12.08.24.08.38v6c0 .55-.45 1-1 1s-1-.45-1-1V6.43l-7.29 7.29c-.2.2-.45.29-.71.29z"/></svg>