<svg xmlns="http://www.w3.org/2000/svg" fill="none" viewBox="0 0 24 24"><path fill="#090404" fill-rule="evenodd" d="M5 3a2 2 0 0 0-2 2v14a2 2 0 0 0 2 2h7v-4a6 6 0 0 1 9-5.197V5a2 2 0 0 0-2-2zm5.14 3.952a1 1 0 0 1 .2 1.4l-1.872 2.496a1 1 0 0 1-1.355.232l-1.125-.75a1 1 0 1 1 1.11-1.664l.338.225L8.74 7.152a1 1 0 0 1 1.4-.2M13.058 9a1 1 0 0 1 1-1h2a1 1 0 1 1 0 2h-2a1 1 0 0 1-1-1m-2.918 3.953a1 1 0 0 1 .2 1.4L8.468 16.85a1 1 0 0 1-1.355.232l-1.125-.75a1 1 0 1 1 1.11-1.664l.338.225 1.304-1.739a1 1 0 0 1 1.4-.2" clip-rule="evenodd"/><path fill="#090404" fill-rule="evenodd" d="M14 17a4 4 0 0 1 8 0v3a1 1 0 0 1-1 1h-6a1 1 0 0 1-1-1zm4-2a2 2 0 0 0-2 2v2h4v-2a2 2 0 0 0-2-2" clip-rule="evenodd"/><path fill="#090404" d="M18 22a2 2 0 0 0 2-2h-4a2 2 0 0 0 2 2"/></svg>