<svg xmlns="http://www.w3.org/2000/svg" fill="none" viewBox="0 0 24 24"><path fill="#090404" d="M21 18a1 1 0 1 1 0 2H3a1 1 0 1 1 0-2z"/><path fill="#090404" d="M4.5 13a1 1 0 0 1 1 1v2a1 1 0 1 1-2 0v-2a1 1 0 0 1 1-1"/><path fill="#090404" d="M9.5 12a1 1 0 0 1 1 1v3a1 1 0 1 1-2 0v-3a1 1 0 0 1 1-1"/><path fill="#090404" d="M14.5 9.5a1 1 0 0 1 1 1V16a1 1 0 1 1-2 0v-5.5a1 1 0 0 1 1-1"/><path fill="#090404" d="M19.5 12.5a1 1 0 0 1 1 1V16a1 1 0 1 1-2 0v-2.5a1 1 0 0 1 1-1"/><path fill="#090404" d="M4.5 8a1 1 0 0 1 1 1v1.5a1 1 0 1 1-2 0V9a1 1 0 0 1 1-1"/><path fill="#090404" d="M19.5 7.5a1 1 0 0 1 1 1V10a1 1 0 1 1-2 0V8.5a1 1 0 0 1 1-1"/><path fill="#090404" d="M9.5 6a1 1 0 0 1 1 1v2.5a1 1 0 1 1-2 0V7a1 1 0 0 1 1-1"/><path fill="#090404" d="M14.5 4a1 1 0 0 1 1 1v2a1 1 0 1 1-2 0V5a1 1 0 0 1 1-1"/></svg>