<svg xmlns="http://www.w3.org/2000/svg" fill="none" viewBox="0 0 24 24"><path fill="#090404" fill-rule="evenodd" d="M5 3a2 2 0 0 0-2 2v1.586A2 2 0 0 0 3.586 8l.293.293a1 1 0 0 1 0 1.414L3.586 10A2 2 0 0 0 3 11.414v1.172A2 2 0 0 0 3.586 14l.293.293a1 1 0 0 1 0 1.414L3.586 16A2 2 0 0 0 3 17.414V19a2 2 0 0 0 2 2h1.586A2 2 0 0 0 8 20.414l.293-.293a1 1 0 0 1 1.414 0l.293.293a2 2 0 0 0 1.414.586h1.172A2 2 0 0 0 14 20.414l.293-.293a1 1 0 0 1 1.414 0l.293.293a2 2 0 0 0 1.414.586H19a2 2 0 0 0 2-2v-1.586A2 2 0 0 0 20.414 16l-.293-.293a1 1 0 0 1 0-1.414l.293-.293A2 2 0 0 0 21 12.586v-1.172A2 2 0 0 0 20.414 10l-.293-.293a1 1 0 0 1 0-1.414L20.414 8A2 2 0 0 0 21 6.586V5a2 2 0 0 0-2-2h-1.586A2 2 0 0 0 16 3.586l-.293.293a1 1 0 0 1-1.414 0L14 3.586A2 2 0 0 0 12.586 3h-1.172A2 2 0 0 0 10 3.586l-.293.293a1 1 0 0 1-1.414 0L8 3.586A2 2 0 0 0 6.586 3zm13.167 13.387c-1.806.303-3.286-.048-4.585-.525-.429-.157-.843-.33-1.23-.49l-.071-.03a23 23 0 0 0-1.18-.466c-.757-.266-1.452-.417-2.189-.366-.765.053-1.67.332-2.8 1.09a3 3 0 0 1-.82 1.521L5 17.414V19h1.586l.293-.293a3 3 0 0 1 4.242 0l.293.293h1.172l.293-.293a3 3 0 0 1 4.242 0l.293.293H19v-1.586l-.293-.293a3 3 0 0 1-.54-.734m-9.393-3.872a6 6 0 0 0-.233.02 3.5 3.5 0 1 1 6.22 1.617 12 12 0 0 1-.49-.167 29 29 0 0 1-1.16-.464l-.061-.026c-.41-.17-.844-.35-1.286-.505-.891-.314-1.876-.553-2.99-.475" clip-rule="evenodd"/></svg>