<svg xmlns="http://www.w3.org/2000/svg" fill="none" viewBox="0 0 24 24"><path fill="#090404" fill-rule="evenodd" d="M14.215 1.696a1.5 1.5 0 0 1 2.57 0l1.493 2.48 2.82.654a1.5 1.5 0 0 1 .794 2.444L19.995 9.46l.25 2.884a1.5 1.5 0 0 1-2.08 1.511L15.5 12.726l-2.665 1.13a1.5 1.5 0 0 1-2.08-1.511l.25-2.885-1.897-2.186a1.5 1.5 0 0 1 .794-2.444l2.82-.653zm-6.508 8.597a1 1 0 0 1 0 1.414l-4 4a1 1 0 0 1-1.414-1.414l4-4a1 1 0 0 1 1.414 0m2 5a1 1 0 0 1 0 1.414l-4 4a1 1 0 0 1-1.414-1.414l4-4a1 1 0 0 1 1.414 0m7 0a1 1 0 0 1 0 1.414l-4 4a1 1 0 0 1-1.414-1.414l4-4a1 1 0 0 1 1.414 0" clip-rule="evenodd"/></svg>