<svg xmlns="http://www.w3.org/2000/svg" fill="none" viewBox="0 0 24 24"><path fill="#090404" fill-rule="evenodd" d="M13.608 2.794a1 1 0 1 0-1.216-1.588c-.687.526-1.107 1.148-1.146 1.89-.032.62.23 1.156.37 1.443l.02.041c.095.196.138.301.159.354a1.6 1.6 0 0 1-.286.195 1 1 0 1 0 .982 1.742c.692-.39 1.236-.927 1.313-1.704.059-.595-.21-1.137-.34-1.401l-.029-.058c-.173-.357-.194-.454-.192-.509 0-.003 0-.024.032-.074.038-.061.128-.174.333-.33" clip-rule="evenodd"/><path fill="#090404" fill-rule="evenodd" d="M8.498 3.867a1 1 0 1 0-.996-1.734c-.639.367-1.201.887-1.255 1.659-.04.57.247 1.049.393 1.274l-.03.013a1 1 0 0 0 .78 1.842c.599-.253 1.303-.678 1.41-1.489a1.6 1.6 0 0 0-.15-.891 4 4 0 0 0-.26-.453l-.014-.023-.055-.086q.065-.046.177-.112" clip-rule="evenodd"/><path fill="#090404" fill-rule="evenodd" d="M18.367 4.502a1 1 0 0 1-.37 1.365q-.111.065-.176.112l.054.086.015.023c.067.104.177.273.26.453.092.201.2.515.15.891-.107.811-.811 1.236-1.41 1.489a1 1 0 0 1-.78-1.842l.03-.013c-.146-.225-.432-.704-.393-1.274.054-.772.616-1.292 1.255-1.66a1 1 0 0 1 1.365.37" clip-rule="evenodd"/><path fill="#090404" d="M8.62 8.013c-2.612-.19-5.035 1.509-6.083 4.19a8 8 0 0 0-.138 5.38c.694 2.1 1.783 3.524 3.163 4.384 1.565-1.892 2.528-3.542 3.024-5.49.535-2.1.553-4.642.043-8.34a1 1 0 0 1-.01-.124"/><path fill="#090404" d="M7.487 22.769c1.756.43 3.673.208 5.492-.245 1.708-.426 3.977-1.149 5.8-2.336-2.715-2.522-6.317-2.364-8.6-1.947l-.05.008c-.588 1.607-1.473 3.044-2.642 4.52"/><path fill="#090404" d="M21.918 14.107c.34 2.018-.405 3.604-1.573 4.81-3.075-3.025-7.047-3.12-9.635-2.783.397-2.087.374-4.467.006-7.46l.075.044 2.215 1.331c.308.185.551.299.776.348.596.128 1.229.12 1.941.074l.409-.028c.574-.043 1.218-.09 1.814-.05.782.051 1.615.255 2.35.865.726.603 1.244 1.508 1.597 2.74l.016.054z"/></svg>