<svg xmlns="http://www.w3.org/2000/svg" fill="none" viewBox="0 0 24 24"><path fill="#090404" d="M2.053 8.28C3.068 5.44 5.39 3.51 7.976 3.494l.046.217c1.22 5.657.028 11.627-3.826 14.758-.969-.984-1.744-2.347-2.285-4.138a9.8 9.8 0 0 1 .142-6.05"/><path fill="#090404" d="M6.551 20.013a7 7 0 0 1-.708-.318c1.622-1.437 2.786-3.268 3.541-5.306 1.683-.204 3.295-.366 4.884.013 1.48.352 3.01 1.195 4.506 3.12-1.848 1.21-4.046 1.968-5.733 2.428-2.158.588-4.454.84-6.49.063"/><path fill="#090404" d="M20.343 16.28c1.474-1.426 2.46-3.35 2.074-5.847l-.008-.051-.013-.05c-.38-1.447-.874-2.49-1.544-3.202-.701-.746-1.51-1.041-2.307-1.151-.512-.071-1.098-.069-1.617-.067q-.302.003-.563-.002c-.686-.014-1.337-.081-2-.341l-4.261-1.651c.514 2.772.513 5.691-.101 8.386 1.46-.156 3.087-.24 4.729.152 1.956.466 3.862 1.58 5.61 3.825"/></svg>