<svg xmlns="http://www.w3.org/2000/svg" fill="none" viewBox="0 0 24 24"><path fill="#090404" fill-rule="evenodd" d="M12 1.1a.9.9 0 0 1 .9.9v1.145a8.86 8.86 0 0 1 4.725 1.957l.81-.81a.9.9 0 0 1 1.273 1.273l-.81.81a8.86 8.86 0 0 1 1.957 4.725H22a.9.9 0 0 1 0 1.8h-1.145a8.86 8.86 0 0 1-1.958 4.724l.81.81a.9.9 0 1 1-1.273 1.273l-.81-.81a8.86 8.86 0 0 1-4.724 1.958V22a.9.9 0 1 1-1.8 0v-1.145a8.86 8.86 0 0 1-4.725-1.958l-.81.81a.9.9 0 0 1-1.272-1.273l.81-.81A8.86 8.86 0 0 1 3.144 12.9H2a.9.9 0 1 1 0-1.8h1.145a8.86 8.86 0 0 1 1.957-4.725l-.81-.81a.9.9 0 0 1 1.273-1.273l.81.81A8.86 8.86 0 0 1 11.1 3.145V2a.9.9 0 0 1 .9-.9m-.9 3.856a7.07 7.07 0 0 0-3.444 1.427L11.1 9.827zM9.827 11.1 6.383 7.656A7.07 7.07 0 0 0 4.956 11.1zm-4.87 1.8a7.07 7.07 0 0 0 1.426 3.444L9.827 12.9zm6.143 1.273-3.444 3.443a7.06 7.06 0 0 0 3.444 1.427zm1.8 4.87a7.07 7.07 0 0 0 3.444-1.427L12.9 14.172zm1.273-6.143 3.443 3.443a7.07 7.07 0 0 0 1.427-3.443zm4.87-1.8a7.06 7.06 0 0 0-1.427-3.444L14.173 11.1zM12.9 9.827l3.444-3.444A7.07 7.07 0 0 0 12.9 4.956z" clip-rule="evenodd"/></svg>