<svg xmlns="http://www.w3.org/2000/svg" fill="none" viewBox="0 0 24 24"><path fill="#090404" fill-rule="evenodd" d="M12 1.75c-2.675 0-4.883.97-6.418 2.595C4.054 5.96 3.25 8.164 3.25 10.54c0 2.724.33 5.038 2.176 7.324.21.26.413.536.618.827.376.533 1.071 1.405 2.052 2.15.982.75 2.303 1.409 3.904 1.409s2.922-.66 3.904-1.408a10 10 0 0 0 2.052-2.15c.205-.292.407-.568.618-.828 1.846-2.286 2.176-4.6 2.176-7.324 0-2.376-.804-4.579-2.332-6.195C16.883 2.72 14.675 1.75 12 1.75m-6.742 9.47c.058 2.18.43 3.784 1.724 5.387q.116.144.227.29A3 3 0 0 1 10 15h4c1.267 0 2.351.786 2.79 1.897q.112-.146.228-.29c1.294-1.602 1.666-3.206 1.724-5.387l-1 .25-.033.008A2.75 2.75 0 0 1 12.25 11v-.024a3 3 0 0 0-.5 0V11a2.75 2.75 0 0 1-5.459.478l-.034-.008zm4.05 8.03A7 7 0 0 1 9 19.003V18a1 1 0 0 1 1-1h4a1 1 0 0 1 1 1v1.002a7 7 0 0 1-.64.486 1 1 0 0 0-.196-.236c-.599-.531-1.47-.7-2.164-.7s-1.565.169-2.164.7a1 1 0 0 0-.195.236 6 6 0 0 1-.334-.237M6.684 9.516A2.75 2.75 0 0 1 9 8.25c.972 0 1.826.504 2.316 1.266a4.8 4.8 0 0 1 1.368 0A2.75 2.75 0 0 1 15 8.25c.972 0 1.826.504 2.315 1.265l.82-.204a8 8 0 0 1-.126-.227c-.219-.412-.42-.873-.6-1.327-.305-.766-.569-1.566-.76-2.147V5.61l-.095-.286a6 6 0 0 0-1.524-.97C14.078 5.069 13.077 5.5 12 5.5s-2.078-.432-3.03-1.146a6 6 0 0 0-1.524.97l-.094.285c-.192.581-.456 1.382-.76 2.148-.18.454-.382.915-.601 1.327q-.06.113-.126.227zM13.75 11a1.25 1.25 0 1 1 2.5 0 1.25 1.25 0 0 1-2.5 0M9 9.75a1.25 1.25 0 1 0 0 2.5 1.25 1.25 0 0 0 0-2.5" clip-rule="evenodd"/></svg>