<svg xmlns="http://www.w3.org/2000/svg" fill="none" viewBox="0 0 24 24"><path fill="#090404" d="M14.25 3h-4.5l-.304 4.257a2.56 2.56 0 1 0 5.108 0z"/><path fill="#090404" d="M21.245 4.717A2 2 0 0 0 19.265 3H16.25l.333 4.66a2.519 2.519 0 1 0 5.006-.535z"/><path fill="#090404" d="M2.755 4.717A2 2 0 0 1 4.735 3H7.75l-.333 4.66a2.519 2.519 0 1 1-5.006-.535z"/><path fill="#090404" d="M3 11.581V19a2 2 0 0 0 2 2h4a1 1 0 0 0 1-1v-3a1.5 1.5 0 0 1 1.5-1.5h1A1.5 1.5 0 0 1 14 17v3a1 1 0 0 0 1 1h4a2 2 0 0 0 2-2v-7.419a4.5 4.5 0 0 1-1.905.419 4.51 4.51 0 0 1-3.537-1.707A4.55 4.55 0 0 1 12 12a4.55 4.55 0 0 1-3.558-1.707A4.51 4.51 0 0 1 4.904 12 4.5 4.5 0 0 1 3 11.581"/></svg>