<svg xmlns="http://www.w3.org/2000/svg" fill="none" viewBox="0 0 24 24"><path fill="#090404" d="M3 12.529A5.3 5.3 0 0 0 5.196 13c.817 0 1.592-.185 2.283-.516.688.33 1.459.516 2.271.516.805 0 1.568-.182 2.25-.506a5.2 5.2 0 0 0 2.25.506c.813 0 1.584-.185 2.271-.516.692.33 1.466.516 2.283.516.792 0 1.533-.17 2.196-.471V19a2 2 0 0 1-2 2H5a2 2 0 0 1-2-2z"/><path fill="#090404" d="M4.72 3a2 2 0 0 0-1.896 1.368l-.762 2.284C1.35 8.79 2.942 11 5.196 11c.888 0 1.694-.35 2.288-.92.586.57 1.385.92 2.266.92.873 0 1.666-.344 2.25-.905a3.24 3.24 0 0 0 2.25.905c.881 0 1.68-.35 2.266-.92.594.57 1.4.92 2.288.92 2.255 0 3.847-2.21 3.134-4.348l-.761-2.284A2 2 0 0 0 19.279 3z"/></svg>