<svg xmlns="http://www.w3.org/2000/svg" fill="none" viewBox="0 0 24 24"><path fill="#090404" fill-rule="evenodd" d="M1.82 10.257A2 2 0 0 1 3.677 9h8.646a2 2 0 0 1 1.857 1.257l.686 1.716A2.93 2.93 0 0 1 14 15.338V19a2 2 0 0 1-2 2H4a2 2 0 0 1-2-2v-3.662a2.93 2.93 0 0 1-.866-3.365zM5.153 11H3.677l-.686 1.716a.936.936 0 1 0 1.792.502zm2.027 0-.283 1.698a1.118 1.118 0 1 0 2.206 0L8.819 11zm3.667 0 .37 2.218a.936.936 0 1 0 1.792-.502L12.323 11z" clip-rule="evenodd"/><path fill="#090404" fill-rule="evenodd" d="M11.677 3A2 2 0 0 0 9.82 4.257L9.271 5.63a1 1 0 1 0 1.857.742L11.677 5h1.476l-.14.836a1 1 0 1 0 1.973.328L15.18 5h1.64l.284 1.707c.077.486-.17.943-.577 1.162A1 1 0 0 0 17 9.75V14a1 1 0 0 0 1 1h2a2 2 0 0 0 2-2V9.338a2.93 2.93 0 0 0 .866-3.365l-.686-1.716A2 2 0 0 0 20.323 3zm7.398 3.37L18.847 5h1.476l.686 1.716a.936.936 0 1 1-1.792.502l-.14-.834z" clip-rule="evenodd"/></svg>