<svg xmlns="http://www.w3.org/2000/svg" fill="none" viewBox="0 0 24 24"><path fill="#090404" d="M12 1a1 1 0 0 1 1 1v.653c.37-.198.751-.35 1.106-.465 1.246-.405 2.616-.508 3.4-.396.323.044.674.157.965.412a1.5 1.5 0 0 1 .499.956c.07.58-.173 1.144-.358 1.501-.201.39-.467.777-.702 1.09.991.572 1.73 1.33 2.236 2.248.624 1.13.854 2.432.854 3.785 0 2.349-1.263 4.876-2.91 6.78C16.462 20.447 14.21 22 12 22s-4.462-1.554-6.09-3.436C4.263 16.66 3 14.133 3 11.784c0-1.353.23-2.654.854-3.785.505-.918 1.245-1.676 2.236-2.248a8 8 0 0 1-.702-1.09c-.185-.357-.429-.921-.358-1.5a1.5 1.5 0 0 1 .5-.957c.29-.255.64-.368.964-.412.784-.112 2.154-.01 3.4.395.355.116.736.268 1.106.466V2a1 1 0 0 1 1-1m-2 13c-.552 0-1 .672-1 1.5s.448 1.5 1 1.5 1-.672 1-1.5-.448-1.5-1-1.5m4 0c-.552 0-1 .672-1 1.5s.448 1.5 1 1.5 1-.672 1-1.5-.448-1.5-1-1.5M8 9.5c-.552 0-1 .672-1 1.5s.448 1.5 1 1.5 1-.672 1-1.5-.448-1.5-1-1.5m4 0c-.552 0-1 .672-1 1.5s.448 1.5 1 1.5 1-.672 1-1.5-.448-1.5-1-1.5m4 0c-.552 0-1 .672-1 1.5s.448 1.5 1 1.5 1-.672 1-1.5-.448-1.5-1-1.5M7.168 3.75c.285.547.793 1.15.965 1.35l.002.002c.473-.014.934.048 1.344.11q.25.038.49.077c.352.057.698.112 1.054.152-.131-.522-.705-1.013-1.748-1.351a7.2 7.2 0 0 0-2.107-.34m9.664 0c-.528 0-1.334.089-2.107.34-1.043.338-1.617.83-1.748 1.351.356-.04.702-.095 1.053-.152l.49-.077c.411-.062.872-.124 1.345-.11l.002-.002c.172-.2.68-.803.965-1.35"/></svg>