<svg xmlns="http://www.w3.org/2000/svg" fill="none" viewBox="0 0 24 24"><path fill="#090404" fill-rule="evenodd" d="M10.865 2.517a1.5 1.5 0 0 1 2.267 0l1.701 1.958 2.562-.407a1.5 1.5 0 0 1 1.737 1.457l.045 2.595L21.4 9.455c.782.47.968 1.524.394 2.233l-1.634 2.015.846 2.453a1.5 1.5 0 0 1-1.134 1.963l-2.547.495-.928 2.422a1.502 1.502 0 0 1-2.13.775l-2.27-1.258L9.73 21.81a1.5 1.5 0 0 1-2.13-.775l-.93-2.422-2.546-.495a1.5 1.5 0 0 1-1.134-1.963l.845-2.453-1.633-2.015a1.502 1.502 0 0 1 .394-2.233L4.82 8.12l.044-2.595c.016-.912.836-1.6 1.737-1.457l2.562.407zm4.857 6.776a1 1 0 0 0-1.414 0l-3.793 3.793-1.222-1.222a1 1 0 0 0-1.414 1.414l1.929 1.929a1 1 0 0 0 1.414 0l4.5-4.5a1 1 0 0 0 0-1.414" clip-rule="evenodd"/></svg>