<svg xmlns="http://www.w3.org/2000/svg" fill="none" viewBox="0 0 24 24"><path fill="#090404" fill-rule="evenodd" d="M10.61 1.954a2 2 0 0 1 2.78 0l1.426 1.379 1.964-.278a2 2 0 0 1 2.25 1.635l.343 1.953 1.752.93a2 2 0 0 1 .86 2.645L21.112 12l.871 1.782a2 2 0 0 1-.86 2.645l-1.751.93-.343 1.953a2 2 0 0 1-2.25 1.635l-1.964-.278-1.425 1.38a2 2 0 0 1-2.781 0l-1.426-1.38-1.964.278a2 2 0 0 1-2.25-1.635l-.342-1.953-1.752-.93a2 2 0 0 1-.86-2.645L2.887 12l-.87-1.782a2 2 0 0 1 .859-2.645l1.752-.93.342-1.953a2 2 0 0 1 2.25-1.635l1.964.278zm2.063 6.159a.75.75 0 0 0-1.345 0l-.696 1.41a.75.75 0 0 1-.565.41l-1.556.226a.75.75 0 0 0-.416 1.28l1.126 1.097a.75.75 0 0 1 .216.664l-.266 1.55a.75.75 0 0 0 1.088.79l1.392-.731a.75.75 0 0 1 .698 0l1.392.731a.75.75 0 0 0 1.088-.79l-.266-1.55a.75.75 0 0 1 .216-.664l1.126-1.098a.75.75 0 0 0-.416-1.279l-1.556-.226a.75.75 0 0 1-.564-.41z" clip-rule="evenodd"/></svg>