<svg xmlns="http://www.w3.org/2000/svg" fill="none" viewBox="0 0 24 24"><path fill="#090404" d="M12 20a1 1 0 0 1 1 1v.5a1 1 0 1 1-2 0V21a1 1 0 0 1 1-1"/><path fill="#090404" d="M4.929 17.657a1 1 0 1 1 1.414 1.414l-.354.354a1 1 0 0 1-1.414-1.414z"/><path fill="#090404" d="M17.657 17.657a1 1 0 0 1 1.414 0l.354.354a1 1 0 0 1-1.414 1.414l-.354-.354a1 1 0 0 1 0-1.414"/><path fill="#090404" d="M7.758 7.758a5.999 5.999 0 1 1 8.484 8.484 5.999 5.999 0 1 1-8.484-8.484"/><path fill="#090404" d="M3 11a1 1 0 1 1 0 2h-.5a1 1 0 1 1 0-2z"/><path fill="#090404" d="M21.5 11a1 1 0 1 1 0 2H21a1 1 0 1 1 0-2z"/><path fill="#090404" d="M4.575 4.575a1 1 0 0 1 1.414 0l.354.354a1 1 0 1 1-1.414 1.414l-.354-.354a1 1 0 0 1 0-1.414"/><path fill="#090404" d="M18.01 4.575a1 1 0 0 1 1.415 1.414l-.354.354a1 1 0 1 1-1.414-1.414z"/><path fill="#090404" d="M12 1.5a1 1 0 0 1 1 1V3a1 1 0 1 1-2 0v-.5a1 1 0 0 1 1-1"/></svg>