<svg xmlns="http://www.w3.org/2000/svg" fill="none" viewBox="0 0 24 24"><path fill="#090404" d="M13 2a1 1 0 1 0-2 0v1a1 1 0 1 0 2 0z"/><path fill="#090404" d="M13 21a1 1 0 1 0-2 0v1a1 1 0 1 0 2 0z"/><path fill="#090404" d="M19.777 4.223a1 1 0 0 1 0 1.414l-.71.71a1 1 0 1 1-1.414-1.414l.71-.71a1 1 0 0 1 1.414 0"/><path fill="#090404" d="M6.347 19.067a1 1 0 1 0-1.414-1.414l-.71.71a1 1 0 1 0 1.414 1.414z"/><path fill="#090404" d="M20 12a1 1 0 0 1 1-1h1a1 1 0 1 1 0 2h-1a1 1 0 0 1-1-1"/><path fill="#090404" d="M2 11a1 1 0 1 0 0 2h1a1 1 0 1 0 0-2z"/><path fill="#090404" d="M17.653 17.653a1 1 0 0 1 1.414 0l.71.71a1 1 0 0 1-1.414 1.414l-.71-.71a1 1 0 0 1 0-1.414"/><path fill="#090404" d="M5.637 4.223a1 1 0 1 0-1.414 1.414l.71.71a1 1 0 0 0 1.414-1.414z"/><path fill="#090404" d="M7.757 7.757a6 6 0 1 1 8.486 8.486 6 6 0 0 1-8.486-8.486"/></svg>