<svg xmlns="http://www.w3.org/2000/svg" fill="none" viewBox="0 0 24 24"><path fill="#090404" d="M17.333 17.963a1 1 0 0 1 1.334 1.49 9.97 9.97 0 0 1-5.557 2.485 1 1 0 1 1-.22-1.987 7.97 7.97 0 0 0 4.443-1.988M7.05 15.535a1 1 0 0 1 1.414 0A4.98 4.98 0 0 0 12 17a1 1 0 0 1 0 2 6.98 6.98 0 0 1-4.95-2.051 1 1 0 0 1 0-1.414m-4.105-3.53a1 1 0 0 1 1.104.884 7.96 7.96 0 0 0 1.729 4.14 1 1 0 0 1-1.555 1.257A9.96 9.96 0 0 1 2.06 13.11a1 1 0 0 1 .884-1.104M17 12a4.98 4.98 0 0 0-1.25-3.308 1 1 0 1 1 1.5-1.323 6.98 6.98 0 0 1 1.75 4.63 6.98 6.98 0 0 1-1.75 4.632 1 1 0 0 1-1.5-1.325A4.98 4.98 0 0 0 17 12m-9 0a3.99 3.99 0 0 1 2.666-3.773 1 1 0 0 1 .667 1.886A2 2 0 0 0 10 12c0 .552.223 1.05.586 1.414S11.448 14 12 14a2.001 2.001 0 0 0 1.886-1.333 1 1 0 0 1 1.886.666 4.002 4.002 0 0 1-6.6 1.495A4 4 0 0 1 8 12m-3 0c0-1.933.784-3.685 2.05-4.95a1 1 0 0 1 1.414 1.414A4.98 4.98 0 0 0 7 12a1 1 0 0 1-2 0m13.041-6.745a1 1 0 0 1 1.412.078 9.97 9.97 0 0 1 2.486 5.557 1 1 0 1 1-1.988.22 7.97 7.97 0 0 0-1.988-4.443 1 1 0 0 1 .078-1.412M10.89 2.06a1 1 0 0 1 .22 1.989 7.97 7.97 0 0 0-4.443 1.987 1 1 0 0 1-1.334-1.49A9.97 9.97 0 0 1 10.89 2.06"/></svg>