<svg xmlns="http://www.w3.org/2000/svg" fill="none" viewBox="0 0 24 24"><path fill="#090404" d="M8.747 15.796A5 5 0 0 0 11 16.899v4.498a.48.48 0 0 1-.548.483 9.97 9.97 0 0 1-5.298-2.594.48.48 0 0 1 .044-.729z"/><path fill="#090404" d="M18.796 18.553c.237.184.26.535.038.737-1.486 1.354-3.293 2.276-5.286 2.589a.48.48 0 0 1-.548-.482V16.9a5 5 0 0 0 2.252-1.103z"/><path fill="#090404" d="M9.242 7.828a4.996 4.996 0 0 0-1.723 6.39l-3.55 2.761a.48.48 0 0 1-.717-.136A9.95 9.95 0 0 1 2 12a9.97 9.97 0 0 1 2.929-7.071l.353-.354a.5.5 0 0 1 .707 0z"/><path fill="#090404" d="M12 9a3 3 0 1 1 0 6 3 3 0 0 1 0-6"/><path fill="#090404" d="M12 2c5.523 0 10 4.477 10 10v.5a.5.5 0 0 1-.5.5h-4.6q.099-.486.1-1a5 5 0 0 0-5-5c-.427 0-1 .1-1 .1V2.5a.5.5 0 0 1 .5-.5z"/></svg>