<svg xmlns="http://www.w3.org/2000/svg" fill="none" viewBox="0 0 24 24"><path fill="#090404" d="M12.707 1.293a1 1 0 0 0-1.414 0l-3 3a1 1 0 0 0 1.414 1.414L11 4.414V8a1 1 0 1 0 2 0V4.414l1.293 1.293a1 1 0 1 0 1.414-1.414z"/><path fill="#090404" d="M2 20a1 1 0 0 1 1-1h18a1 1 0 1 1 0 2H3a1 1 0 0 1-1-1"/><path fill="#090404" d="M16 17a1 1 0 0 0 1-1 5 5 0 0 0-10 0 1 1 0 0 0 1 1z"/><path fill="#090404" d="M2 16a1 1 0 0 1 1-1h1a1 1 0 1 1 0 2H3a1 1 0 0 1-1-1"/><path fill="#090404" d="M19 16a1 1 0 0 1 1-1h1a1 1 0 1 1 0 2h-1a1 1 0 0 1-1-1"/><path fill="#090404" d="M17.485 10.092a1 1 0 1 0 1.285 1.532l.766-.643a1 1 0 1 0-1.285-1.532z"/><path fill="#090404" d="M4.338 9.572a1 1 0 0 1 1.409-.123l.766.643a1 1 0 1 1-1.286 1.532l-.766-.643a1 1 0 0 1-.123-1.409"/></svg>