<svg xmlns="http://www.w3.org/2000/svg" fill="none" viewBox="0 0 24 24"><path fill="#090404" fill-rule="evenodd" d="M12 2a1 1 0 0 1 1 1v1a1 1 0 1 1-2 0V3a1 1 0 0 1 1-1M2 12a1 1 0 0 1 1-1h1a1 1 0 1 1 0 2H3a1 1 0 0 1-1-1m17 0a1 1 0 0 1 1-1h1a1 1 0 1 1 0 2h-1a1 1 0 0 1-1-1" clip-rule="evenodd"/><path fill="#090404" fill-rule="evenodd" d="M16.95 7.05a1 1 0 0 1 0-1.414l.706-.707a1 1 0 0 1 1.415 1.414l-.708.707a1 1 0 0 1-1.414 0" clip-rule="evenodd"/><path fill="#090404" fill-rule="evenodd" d="M2 16a1 1 0 0 1 1-1h18a1 1 0 1 1 0 2H3a1 1 0 0 1-1-1m4 4a1 1 0 0 1 1-1h10a1 1 0 1 1 0 2H7a1 1 0 0 1-1-1" clip-rule="evenodd"/><path fill="#090404" fill-rule="evenodd" d="M4.93 4.929a1 1 0 0 1 1.414 0l.707.707A1 1 0 1 1 5.637 7.05l-.707-.707a1 1 0 0 1 0-1.414" clip-rule="evenodd"/><path fill="#090404" fill-rule="evenodd" d="M8 13a1 1 0 0 1-1-1 5 5 0 0 1 10 0 1 1 0 0 1-1 1z" clip-rule="evenodd"/></svg>