<svg xmlns="http://www.w3.org/2000/svg" fill="none" viewBox="0 0 24 24"><path fill="#090404" d="M12 1a1 1 0 0 1 1 1v3.586l1.293-1.293a1 1 0 1 1 1.414 1.414l-3 3a1 1 0 0 1-1.414 0l-3-3a1 1 0 0 1 1.414-1.414L11 5.586V2a1 1 0 0 1 1-1"/><path fill="#090404" d="M17.362 11.5a1 1 0 0 1 .123-1.408l.766-.643a1 1 0 0 1 1.285 1.532l-.766.643a1 1 0 0 1-1.408-.123"/><path fill="#090404" d="M8 17a1 1 0 0 1-1-1 5 5 0 0 1 10 0 1 1 0 0 1-1 1z"/><path fill="#090404" d="M2 20a1 1 0 0 1 1-1h18a1 1 0 1 1 0 2H3a1 1 0 0 1-1-1"/><path fill="#090404" d="M3 15a1 1 0 1 0 0 2h1a1 1 0 1 0 0-2z"/><path fill="#090404" d="M20 15a1 1 0 1 0 0 2h1a1 1 0 1 0 0-2z"/><path fill="#090404" d="M5.747 9.449A1 1 0 1 0 4.46 10.98l.766.643a1 1 0 0 0 1.286-1.532z"/></svg>