<svg xmlns="http://www.w3.org/2000/svg" fill="none" viewBox="0 0 24 24"><path fill="#090404" fill-rule="evenodd" d="M19.005 5c-.494 0-.799.267-.932.665a1 1 0 1 1-1.897-.635C16.554 3.9 17.566 3 19.006 3 20.597 3 22 4.153 22 5.93c0 .836-.446 1.502-.883 1.986-.428.475-.98.915-1.454 1.293l-.04.032c-.345.276-.652.523-.91.759H21a1 1 0 1 1 0 2h-4a1 1 0 0 1-1-1c0-.837.444-1.505.88-1.992.433-.482.99-.927 1.467-1.307l.03-.023c.517-.414.946-.76 1.256-1.102.313-.348.367-.547.367-.645 0-.55-.378-.931-.995-.931M2.36 5.232a1 1 0 0 1 1.408.128L8 10.438l4.232-5.078a1 1 0 1 1 1.536 1.28L9.302 12l4.466 5.36a1 1 0 1 1-1.536 1.28L8 13.562 3.768 18.64a1 1 0 1 1-1.536-1.28L6.698 12 2.232 6.64a1 1 0 0 1 .128-1.408" clip-rule="evenodd"/></svg>