<svg xmlns="http://www.w3.org/2000/svg" fill="none" viewBox="0 0 24 24"><path fill="#090404" d="M4.297 18.53c-1.967-8.677 6.389-4.486 10.498.336a3 3 0 0 1-.827-.144 1 1 0 0 1-.171-.074 2.25 2.25 0 0 0-3.597.001 1 1 0 0 1-.168.073A3.2 3.2 0 0 1 9 18.875a3.2 3.2 0 0 1-1.032-.153 1 1 0 0 1-.171-.074 2.25 2.25 0 0 0-3.5-.119"/><path fill="#090404" d="M7.08 8.185c2.205-1.177 5.049-2.172 7.42-1.18 1.153.484 1.506 1.243 2.5 2 .749.572 1.916 1.131 2.796 1.513.645.28.962 1.032.676 1.675a1.22 1.22 0 0 1-1.554.641L15.5 11.506l-1 2 2.309 2.309a2 2 0 0 1 .57 1.662l-.048.378c-.36.113-.689.31-.952.584-.905-1.154-2.028-2.271-3.21-3.229-1.148-.93-2.414-1.764-3.658-2.348a2 2 0 0 1 .274-.832L11 10.006c-.012 0-.921-.06-1.5 0-.402.041-.862.163-1.299.307-.804.266-1.7-.298-1.701-1.145 0-.41.218-.79.58-.983"/><path fill="#090404" d="M15.25 2a2.25 2.25 0 1 1 0 4.5 2.25 2.25 0 0 1 0-4.5"/><path fill="#090404" d="M18 19.1c.3 0 .582.15.75.401.285.428.764.615 1.308.665a3.6 3.6 0 0 0 .945-.045.9.9 0 0 1 .396 1.757h-.006q-.004.002-.01.003l-.03.007a4 4 0 0 1-.417.062 5.4 5.4 0 0 1-1.044.009c-.57-.053-1.296-.227-1.925-.701-.28.184-.583.327-.886.434a6.4 6.4 0 0 1-2.081.333 6.4 6.4 0 0 1-2.081-.333 4 4 0 0 1-.92-.455 4 4 0 0 1-.918.455A6.4 6.4 0 0 1 9 22.025a6.4 6.4 0 0 1-2.081-.333 4 4 0 0 1-.887-.434c-.63.474-1.355.648-1.925.701a5.4 5.4 0 0 1-1.46-.071l-.03-.007-.01-.002-.003-.001H2.6l-.09-.026a.9.9 0 0 1 .492-1.729l.047.009q.069.013.204.027c.18.02.424.031.687.007.544-.05 1.024-.236 1.31-.665l.067-.089a.9.9 0 0 1 1.431.089c.101.152.338.342.77.494.418.148.94.23 1.481.23s1.063-.082 1.482-.23c.431-.152.668-.342.769-.494l.067-.089a.9.9 0 0 1 1.431.089c.101.152.338.342.77.494.418.148.94.23 1.481.23s1.063-.082 1.482-.23c.431-.152.668-.342.769-.494l.067-.089A.9.9 0 0 1 18 19.1"/></svg>