<svg xmlns="http://www.w3.org/2000/svg" fill="none" viewBox="0 0 24 24"><path fill="#090404" fill-rule="evenodd" d="M10 5.152V18h4V5.152Q13.037 5 12 5q-1.037.001-2 .152M6 20a3 3 0 0 1-3-3v-1.276c-.278.026-.592 0-.903-.146-.5-.236-.772-.676-.912-1.103-.137-.415-.185-.91-.185-1.453 0-4.35 3.061-7.356 7.093-8.499a1.93 1.93 0 0 1 1.534-1.337C10.393 3.063 11.187 3 12 3s1.607.063 2.373.186a1.93 1.93 0 0 1 1.534 1.337C19.939 5.666 23 8.671 23 13.022c0 .543-.048 1.038-.185 1.453-.14.427-.412.867-.913 1.103-.31.146-.624.172-.902.146V17a3 3 0 0 1-3 3zm13-5.12V17a1 1 0 0 1-1 1h-2v-4.874c.444.214.876.455 1.295.704.312.184.643.391.968.595.253.158.503.314.737.455M8 13.126c-.444.214-.876.455-1.295.704-.312.184-.643.391-.968.595-.253.158-.503.314-.737.455V17a1 1 0 0 0 1 1h2z" clip-rule="evenodd"/></svg>