<svg xmlns="http://www.w3.org/2000/svg" fill="none" viewBox="0 0 24 24"><path fill="#090404" fill-rule="evenodd" d="M11.065 2.663c2.717-1.734 6.474-.925 8.382 1.804a5.83 5.83 0 0 1 .994 4.417 5.5 5.5 0 0 1-.82 2.047 5.7 5.7 0 0 1 .567 3.7 5.49 5.49 0 0 1-2.475 3.665l-4.775 3.04c-2.717 1.735-6.487.925-8.383-1.803a5.78 5.78 0 0 1-.995-4.406 5.5 5.5 0 0 1 .821-2.046 5.7 5.7 0 0 1-.566-3.7 5.46 5.46 0 0 1 2.474-3.665zm6.417 3.053a3.805 3.805 0 0 0-4.07-1.515 3.3 3.3 0 0 0-.971.428L7.665 7.67a3.3 3.3 0 0 0-1.491 2.208 3.52 3.52 0 0 0 .601 2.66 3.8 3.8 0 0 0 4.07 1.514 3.3 3.3 0 0 0 .971-.428l1.827-1.168a.9.9 0 0 1 .29-.126c.462-.116.959.057 1.225.45.162.231.231.52.185.798a.98.98 0 0 1-.451.671l-4.776 3.04a.9.9 0 0 1-.289.128 1.145 1.145 0 0 1-1.225-.451 1.05 1.05 0 0 1-.197-.705v-.174a3 3 0 0 0-.162-.058 6.3 6.3 0 0 1-1.873-.936l-.243-.185-.092.277c-.047.15-.08.3-.116.451a3.52 3.52 0 0 0 .602 2.66 3.8 3.8 0 0 0 4.07 1.514 3.3 3.3 0 0 0 .97-.428l4.776-3.04a3.3 3.3 0 0 0 1.492-2.209 3.52 3.52 0 0 0-.602-2.66 3.8 3.8 0 0 0-4.07-1.514 3.3 3.3 0 0 0-.97.428l-1.827 1.156a.9.9 0 0 1-.29.128 1.145 1.145 0 0 1-1.225-.452 1.1 1.1 0 0 1-.185-.797.93.93 0 0 1 .45-.66l4.776-3.04a.9.9 0 0 1 .29-.127c.461-.116.959.057 1.224.45.15.208.22.463.197.706v.173c-.011 0 .162.058.162.058.67.208 1.306.52 1.873.937l.243.185.092-.278c.046-.15.081-.3.116-.451a3.52 3.52 0 0 0-.601-2.66" clip-rule="evenodd"/></svg>