<svg xmlns="http://www.w3.org/2000/svg" fill="none" viewBox="0 0 24 24"><path fill="#090404" d="M3.25 13.786c.533 0 .964.431.964.964 0 1.343.951 2.464 2.217 2.727V16.45c0-.509.615-.764.975-.404l2.05 2.049a.57.57 0 0 1 0 .808l-2.05 2.05a.572.572 0 0 1-.975-.405v-1.121a4.71 4.71 0 0 1-4.145-4.678c0-.533.431-.964.964-.964"/><path fill="#090404" d="M17.5 3a1 1 0 0 1 1 1v12a1 1 0 1 1-2 0V4a1 1 0 0 1 1-1"/><path fill="#090404" d="M6.594 8.476a.572.572 0 0 1 .975.404v1.191a4.713 4.713 0 0 1 4.145 4.679.964.964 0 1 1-1.928 0 2.79 2.79 0 0 0-2.217-2.727v.954c0 .51-.615.765-.975.405l-2.05-2.049a.57.57 0 0 1 0-.809z"/><path fill="#090404" d="M14 6a1 1 0 0 1 1 1v4a1 1 0 1 1-2 0V7a1 1 0 0 1 1-1"/><path fill="#090404" d="M21 8a1 1 0 0 1 1 1v2a1 1 0 1 1-2 0V9a1 1 0 0 1 1-1"/><path fill="#090404" d="M10.5 4a1 1 0 0 1 1 1v2.5a1 1 0 1 1-2 0V5a1 1 0 0 1 1-1"/></svg>