<svg xmlns="http://www.w3.org/2000/svg" fill="none" viewBox="0 0 24 24"><path fill="#090404" fill-rule="evenodd" d="M17.293 3.293a1 1 0 0 1 1.414 0l2 2a1 1 0 0 1 0 1.414l-2 2a1 1 0 1 1-1.414-1.414L17.586 7H13v10a2 2 0 0 1-2 2H8.83a3.001 3.001 0 1 1 0-2H11V7a2 2 0 0 1 2-2h4.586l-.293-.293a1 1 0 0 1 0-1.414m-13.75.25a1 1 0 0 1 1.414 0L6 4.586l1.043-1.043a1 1 0 0 1 1.414 1.414L7.414 6l1.043 1.043a1 1 0 0 1-1.414 1.414L6 7.414 4.957 8.457a1 1 0 0 1-1.414-1.414L4.586 6 3.543 4.957a1 1 0 0 1 0-1.414m12 12a1 1 0 0 1 1.414 0L18 16.586l1.043-1.043a1 1 0 0 1 1.414 1.414L19.414 18l1.043 1.043a1 1 0 0 1-1.414 1.414L18 19.414l-1.043 1.043a1 1 0 0 1-1.414-1.414L16.586 18l-1.043-1.043a1 1 0 0 1 0-1.414" clip-rule="evenodd"/></svg>