<svg xmlns="http://www.w3.org/2000/svg" fill="none" viewBox="0 0 24 24"><path fill="#090404" d="M16.555 3.168a1 1 0 0 0-1.387.277l-2 3a1 1 0 1 0 1.664 1.11l.693-1.04c.368 1.509-.14 2.685-.95 3.657-.838 1.007-1.943 1.724-2.756 2.252l-.374.244a1 1 0 1 0 1.11 1.664q.135-.09.315-.205c.795-.512 2.19-1.41 3.242-2.674 1.09-1.31 1.87-3.072 1.395-5.246l.938.625a1 1 0 0 0 1.11-1.664z"/><path fill="#090404" d="M4.707 5.293a1 1 0 0 0-1.414 1.414L4.586 8 3.293 9.293a1 1 0 0 0 1.414 1.414L6 9.414l1.293 1.293a1 1 0 0 0 1.414-1.414L7.414 8l1.293-1.293a1 1 0 0 0-1.414-1.414L6 6.586z"/><path fill="#090404" d="M6.5 14a3.5 3.5 0 1 0 0 7 3.5 3.5 0 0 0 0-7"/><path fill="#090404" d="M20.707 15.293a1 1 0 0 0-1.414 0L18 16.586l-1.293-1.293a1 1 0 0 0-1.414 1.414L16.586 18l-1.293 1.293a1 1 0 0 0 1.414 1.414L18 19.414l1.293 1.293a1 1 0 0 0 1.414-1.414L19.414 18l1.293-1.293a1 1 0 0 0 0-1.414"/></svg>