<svg xmlns="http://www.w3.org/2000/svg" fill="none" viewBox="0 0 24 24"><path fill="#090404" fill-rule="evenodd" d="M21.207 4.207a1 1 0 0 0-1.414-1.414l-1.29 1.29c-1.95-1.391-4.597-1.55-6.283.137-1.686 1.686-1.528 4.334-.136 6.282l-.791.79-.02.021-1.316-1.316a2 2 0 0 0-2.822-.006l-.555.549a1 1 0 0 0-.205 1.126l.006.016q.012.03.035.098c.03.092.061.218.075.354.027.279-.027.49-.191.652-.168.165-.381.213-.652.182a1.7 1.7 0 0 1-.44-.113l-.015-.007a1 1 0 0 0-1.135.192l-.548.543a2 2 0 0 0-.007 2.835l1.334 1.333-.044.042-2 2a1 1 0 1 0 1.414 1.414l2-2 .042-.044 1.334 1.334a2 2 0 0 0 2.835-.006l3.592-3.625a2 2 0 0 0-.007-2.822l-1.316-1.317.02-.02.79-.79c1.95 1.391 4.597 1.55 6.283-.137 1.686-1.686 1.528-4.334.136-6.282zM8.634 18.7 7.5 17.5c.5-1.5 2.5-1.5 3 0l-1.14 1.2a.5.5 0 0 1-.726 0" clip-rule="evenodd"/></svg>