<svg xmlns="http://www.w3.org/2000/svg" fill="none" viewBox="0 0 24 24"><path fill="#090404" d="M7.5 9.5a1 1 0 1 1 0 2 1 1 0 0 1 0-2"/><path fill="#090404" d="M13.674 9.5c-.11.313-.174.649-.174 1s.063.687.174 1h-3.348c.11-.313.174-.649.174-1s-.063-.687-.174-1z"/><path fill="#090404" d="M16.5 9.5a1 1 0 1 1 0 2 1 1 0 0 1 0-2"/><path fill="#090404" fill-rule="evenodd" d="M20 4a2 2 0 0 1 2 2v12a2 2 0 0 1-2 2H4a2 2 0 0 1-2-2V6a2 2 0 0 1 2-2zM8 16a1 1 0 0 0-.823.432l-.072.12L6.382 18h11.236l-.723-1.447a1 1 0 0 0-.754-.543L16 16zm-.5-8.5a3 3 0 0 0 0 6h9a3 3 0 1 0 0-6z" clip-rule="evenodd"/></svg>