<svg xmlns="http://www.w3.org/2000/svg" fill="none" viewBox="0 0 24 24"><path fill="#090404" fill-rule="evenodd" d="M19.5 9a3.5 3.5 0 1 1 0 7h-.752A8 8 0 0 1 3 14v-3a2 2 0 0 1 2-2zm-.5 5h.5a1.5 1.5 0 0 0 0-3H19z" clip-rule="evenodd"/><path fill="#090404" d="M8.045 2.698a1 1 0 0 1 1.948.405l-.016.101a6.2 6.2 0 0 0-.06 2.265l.06.327.016.102a1 1 0 0 1-1.948.405l-.025-.099-.08-.428a8.2 8.2 0 0 1 .08-2.98z"/><path fill="#090404" d="M12.045 2.698a1 1 0 0 1 1.948.405l-.016.101a6.2 6.2 0 0 0-.06 2.265l.06.327.016.102a1 1 0 0 1-1.948.405l-.025-.099-.08-.428a8.2 8.2 0 0 1 .08-2.98z"/></svg>