<svg xmlns="http://www.w3.org/2000/svg" fill="none" viewBox="0 0 24 24"><path fill="#090404" d="M12 12a6 6 0 0 1 6 6v.143A1.86 1.86 0 0 1 16.142 20H7.857A1.86 1.86 0 0 1 6 18.143V18a6 6 0 0 1 6-6"/><path fill="#090404" d="M5.757 13A7.96 7.96 0 0 0 4 18v.5q0 .255.036.5H2C.988 19-.187 18.106.154 16.764l.056-.201A5 5 0 0 1 5 13z"/><path fill="#090404" d="M19 13a5 5 0 0 1 5 5 1 1 0 0 1-1 1h-3.036q.035-.245.036-.5V18c0-1.892-.659-3.63-1.757-5z"/><path fill="#090404" d="M4.5 6.25a2.75 2.75 0 1 1 0 5.5 2.75 2.75 0 0 1 0-5.5"/><path fill="#090404" d="M19.5 6.25a2.75 2.75 0 1 1 0 5.5 2.75 2.75 0 0 1 0-5.5"/><path fill="#090404" d="M12 3.5a3.5 3.5 0 1 1 0 7 3.5 3.5 0 0 1 0-7"/></svg>