<svg xmlns="http://www.w3.org/2000/svg" fill="none" viewBox="0 0 24 24"><path fill="#090404" fill-rule="evenodd" d="M8.5 4a1.5 1.5 0 0 0-.9 2.7 1 1 0 0 1 .4.8C8 9.337 9.69 11 12 11s4-1.663 4-3.5a1 1 0 0 1 .4-.8 1.5 1.5 0 0 0-1.731-2.45 1 1 0 0 1-.944.092A4.5 4.5 0 0 0 12 4a4.5 4.5 0 0 0-1.725.342 1 1 0 0 1-.943-.09A1.5 1.5 0 0 0 8.5 4M5 5.5a3.5 3.5 0 0 1 4.97-3.177A6.5 6.5 0 0 1 12 2c.71 0 1.394.113 2.03.323a3.5 3.5 0 0 1 3.948 5.648 5.1 5.1 0 0 1-.845 2.386l1.753.657a3.258 3.258 0 0 1 1.16 5.354l-.156.157a3.5 3.5 0 1 1-5.95 3.674 8.24 8.24 0 0 1-3.879 0 3.5 3.5 0 1 1-5.95-3.674l-.157-.157a3.258 3.258 0 0 1 1.16-5.354l1.753-.657A5.1 5.1 0 0 1 6.02 7.97 3.5 3.5 0 0 1 5 5.5m2.756 6.66-1.94.727a1.258 1.258 0 0 0-.448 2.067l.306.306A3.5 3.5 0 0 1 7 15h.01a6.9 6.9 0 0 1 .746-2.84m8.488 0A6.9 6.9 0 0 1 16.99 15H17c.47 0 .917.092 1.326.26l.306-.306a1.258 1.258 0 0 0-.448-2.067zM7 17a1.5 1.5 0 1 0 0 3 1.5 1.5 0 0 0 0-3m10 0a1.5 1.5 0 1 0 0 3 1.5 1.5 0 0 0 0-3" clip-rule="evenodd"/><path fill="#090404" d="M10.955 8.11c-.382.078-.575.426-.374.713.294.42.782.927 1.419.927s1.125-.508 1.42-.927c.2-.287.007-.635-.375-.713a5 5 0 0 0-2.09 0"/></svg>