<svg xmlns="http://www.w3.org/2000/svg" fill="none" viewBox="0 0 24 24"><path fill="#090404" d="M15.034 4.528a2 2 0 0 0-1.195 2.563l1.881 5.169a2 2 0 0 0 2.564 1.195l4.698-1.71a1 1 0 0 0 .598-1.282l-2.565-7.047a1 1 0 0 0-1.282-.598z"/><path fill="#090404" d="M6.962 10.127a1.5 1.5 0 0 1 .897-1.923l4.228-1.54 2.566 7.049-2.654.965V19h2a1 1 0 1 1 0 2H8a1 1 0 1 1 0-2h2v-3.66a1.5 1.5 0 0 1-1.498-.985z"/><path fill="#090404" d="M1.196 13.29a1.5 1.5 0 0 1 .897-1.923l3.289-1.198 1.88 5.169-3.288 1.197a1.5 1.5 0 0 1-1.923-.897z"/></svg>