<svg xmlns="http://www.w3.org/2000/svg" fill="none" viewBox="0 0 24 24"><path fill="#090404" fill-rule="evenodd" d="M9.16 3.264A2 2 0 0 1 11.142 1h1.716a2 2 0 0 1 1.983 2.264l-.787 5.901a3.5 3.5 0 0 1 1.428 2.474l5.504 2.269a2 2 0 0 1 .97 2.849l-.858 1.486a2 2 0 0 1-2.953.585l-4.716-3.632c-.436.195-.92.304-1.429.304s-.992-.109-1.429-.304l-4.716 3.632a2 2 0 0 1-2.952-.585l-.858-1.486a2 2 0 0 1 .97-2.849l5.504-2.27a3.5 3.5 0 0 1 1.428-2.473zm7.93 1.244a1 1 0 0 1 1.41-.11A10 10 0 0 1 20.66 7a10 10 0 0 1 1.174 3.171 1 1 0 1 1-1.966.366A8 8 0 0 0 18.928 8a8 8 0 0 0-1.727-2.082 1 1 0 0 1-.11-1.41m-10.18 0a1 1 0 0 1-.11 1.41A8 8 0 0 0 5.072 8a8 8 0 0 0-.94 2.537 1 1 0 0 1-1.966-.366 10 10 0 0 1 1.174-3.17A10 10 0 0 1 5.5 4.397a1 1 0 0 1 1.41.11M12 10.5a1.5 1.5 0 1 0 0 3 1.5 1.5 0 0 0 0-3m-3.943 9.655a1 1 0 0 1 1.276-.61c.833.294 1.73.455 2.667.455s1.834-.16 2.667-.455a1 1 0 1 1 .666 1.886A10 10 0 0 1 12 22c-1.167 0-2.29-.2-3.333-.57a1 1 0 0 1-.61-1.275" clip-rule="evenodd"/></svg>