<svg xmlns="http://www.w3.org/2000/svg" fill="none" viewBox="0 0 24 24"><path fill="#090404" fill-rule="evenodd" d="M15 6a1 1 0 0 0-1-1H3a1 1 0 0 0 0 2h11a1 1 0 0 0 1-1" clip-rule="evenodd"/><path fill="#090404" fill-rule="evenodd" d="M21.41 8.428a1 1 0 0 0-1.073.164l-3 2.66a1 1 0 0 0 .001 1.497l3 2.65A1 1 0 0 0 22 14.65V9.34a1 1 0 0 0-.59-.911" clip-rule="evenodd"/><path fill="#090404" fill-rule="evenodd" d="M15 12a1 1 0 0 0-1-1H3a1 1 0 1 0 0 2h11a1 1 0 0 0 1-1" clip-rule="evenodd"/><path fill="#090404" fill-rule="evenodd" d="M15 18a1 1 0 0 0-1-1H3a1 1 0 1 0 0 2h11a1 1 0 0 0 1-1" clip-rule="evenodd"/></svg>