<svg xmlns="http://www.w3.org/2000/svg" fill="none" viewBox="0 0 24 24"><path fill="#090404" d="M5 4a2 2 0 0 0-2 2v2a2 2 0 0 0 2 2h2a2 2 0 0 0 2-2V6a2 2 0 0 0-2-2z"/><path fill="#090404" d="M13 4.5a1 1 0 1 0 0 2h7a1 1 0 1 0 0-2z"/><path fill="#090404" d="M13 7.5a1 1 0 1 0 0 2h4a1 1 0 1 0 0-2z"/><path fill="#090404" d="M5 14a2 2 0 0 0-2 2v2a2 2 0 0 0 2 2h2a2 2 0 0 0 2-2v-2a2 2 0 0 0-2-2z"/><path fill="#090404" d="M13 14.5a1 1 0 1 0 0 2h7a1 1 0 1 0 0-2z"/><path fill="#090404" d="M13 17.5a1 1 0 1 0 0 2h4a1 1 0 1 0 0-2z"/></svg>