<svg xmlns="http://www.w3.org/2000/svg" fill="none" viewBox="0 0 24 24"><path fill="#090404" fill-rule="evenodd" d="M10.906 4.577a1 1 0 0 0-1.812 0l-7 15a1 1 0 0 0 1.812.846L5.971 16h8.059l2.064 4.423a1 1 0 1 0 1.812-.846zM10 7.365 13.097 14H6.904z" clip-rule="evenodd"/><path fill="#090404" d="M19.224 2.31a1 1 0 0 0-1.448 0l-.001.002-.002.002-.008.008-.024.026a12 12 0 0 0-.39.439c-.248.289-.58.695-.915 1.163-.331.465-.68 1.01-.948 1.573-.261.549-.488 1.199-.488 1.852C15 9.21 16.5 11 18.5 11S22 9.21 22 7.375c0-.653-.226-1.303-.488-1.852a10.7 10.7 0 0 0-.948-1.573 17 17 0 0 0-1.304-1.602l-.025-.026-.007-.008-.002-.002z"/></svg>