<svg xmlns="http://www.w3.org/2000/svg" fill="none" viewBox="0 0 24 24"><path fill="#090404" d="M4 2a3 3 0 0 0-1 5.83V18a1 1 0 1 0 2 0V7.83A3.001 3.001 0 0 0 4 2"/><path fill="#090404" d="M21 6a1 1 0 1 0-2 0v10.17a3.001 3.001 0 1 0 2 0z"/><path fill="#090404" d="M7 18a1 1 0 0 1 1-1h1a1 1 0 1 1 0 2H8a1 1 0 0 1-1-1"/><path fill="#090404" d="M13 17a1 1 0 1 0 0 2h1a1 1 0 1 0 0-2z"/><path fill="#090404" d="M9 6a1 1 0 0 1 1-1h1a1 1 0 1 1 0 2h-1a1 1 0 0 1-1-1"/><path fill="#090404" d="M15 5a1 1 0 1 0 0 2h1a1 1 0 1 0 0-2z"/></svg>