<svg xmlns="http://www.w3.org/2000/svg" fill="none" viewBox="0 0 24 24"><path fill="#090404" d="M14.4 2c-1.593 0-3.042.63-4.108 1.652a.36.36 0 0 1-.303.087 5.6 5.6 0 0 0-.952-.082C5.975 3.657 3.5 6.15 3.5 9.214c0 1.719.778 3.256 1.998 4.275a.33.33 0 0 1 .115.206c.366 2.71 2.68 4.805 5.487 4.805 1.342 0 2.575-.48 3.532-1.277a.34.34 0 0 1 .28-.075q.555.109 1.138.11c3.29 0 5.95-2.678 5.95-5.972 0-1.603-.63-3.06-1.655-4.132a.3.3 0 0 1-.072-.146C19.813 4.17 17.363 2 14.4 2"/><path fill="#090404" d="M4 17a3 3 0 1 0 0 6 3 3 0 0 0 0-6"/></svg>