<svg xmlns="http://www.w3.org/2000/svg" fill="none" viewBox="0 0 24 24"><path fill="#090404" d="M12 2a1 1 0 1 1 0 2 8 8 0 1 0 8 8 1 1 0 1 1 2 0c0 5.523-4.477 10-10 10S2 17.523 2 12 6.477 2 12 2"/><path fill="#090404" fill-rule="evenodd" d="M12 5.5a6.5 6.5 0 1 1 0 13 6.5 6.5 0 0 1 0-13m0 2.1a.9.9 0 0 0-.9.9V12a.9.9 0 0 0 .9.9h2.5a.9.9 0 0 0 0-1.8h-1.6V8.5a.9.9 0 0 0-.9-.9" clip-rule="evenodd"/><path fill="#090404" d="M19.97 7.701a1 1 0 1 1 .75 1.856 1 1 0 0 1-.75-1.856"/><path fill="#090404" d="M17.657 4.929a1 1 0 1 1 1.414 1.415 1 1 0 0 1-1.414-1.415"/><path fill="#090404" d="M14.52 3.303a1 1 0 1 1 1.848.765 1 1 0 0 1-1.847-.765"/></svg>