<svg xmlns="http://www.w3.org/2000/svg" fill="none" viewBox="0 0 24 24"><path fill="#090404" fill-rule="evenodd" d="M9.445 14.168a1 1 0 0 1 1.387.277c.67 1.006 1.192 2.256 1.574 3.385.452-1.103 1.207-1.857 1.856-2.506l.03-.031a1 1 0 0 1 1.415 1.414c-.751.751-1.346 1.36-1.588 2.293h1.257c.242-.474.556-1.03.944-1.555.547-.744 1.325-1.547 2.364-1.894a1 1 0 0 1 .632 1.898c-.46.153-.933.567-1.386 1.181q-.132.182-.254.37H20a1 1 0 1 1 0 2H4a1 1 0 1 1 0-2h3.208c-.554-.79-1.302-1.56-2.58-2.072a1 1 0 0 1 .743-1.857c2.472.99 3.563 2.827 4.2 3.929h1.111c-.357-1.154-.867-2.475-1.514-3.445a1 1 0 0 1 .277-1.387" clip-rule="evenodd"/><path fill="#090404" d="m10.311 8.899-3.11 1.134a2.486 2.486 0 0 1-3.13-1.306.82.82 0 0 1 .355-1.054l6.952-3.83A6.8 6.8 0 0 1 14.656 3h3.466c.492 0 .912.353.993.836l.871 5.195a1 1 0 0 1-.493 1.033l-1.504.854a5.67 5.67 0 0 1-3.9.628l-2.603-.517a.75.75 0 0 1-.549-1.024l.559-1.332a1.51 1.51 0 0 1 1.393-.923h1.932a.5.5 0 0 0 0-1H12.89a2.52 2.52 0 0 0-2.322 1.538z"/></svg>