<svg xmlns="http://www.w3.org/2000/svg" fill="none" viewBox="0 0 24 24"><path fill="#090404" d="M7.362 2a2 2 0 0 0-1.28.464L3.72 4.432A2 2 0 0 0 3 5.968V10h18V5.968a2 2 0 0 0-.72-1.536l-2.362-1.968A2 2 0 0 0 16.638 2z"/><path fill="#090404" fill-rule="evenodd" d="M3 16v-4h18v4a2 2 0 0 1-2 2h-1.382l1.638 3.276a.5.5 0 0 1-.447.724H17.69a.5.5 0 0 1-.447-.276L15.382 18H8.618l-1.862 3.724A.5.5 0 0 1 6.31 22H5.19a.5.5 0 0 1-.447-.724L6.382 18H5a2 2 0 0 1-2-2m5 0a1 1 0 1 0 0-2 1 1 0 0 0 0 2m9-1a1 1 0 1 1-2 0 1 1 0 0 1 2 0" clip-rule="evenodd"/></svg>