<svg xmlns="http://www.w3.org/2000/svg" fill="none" viewBox="0 0 24 24"><path fill="#090404" fill-rule="evenodd" d="M12 2.25c2.281 0 4.387.287 5.955.777.778.244 1.481.554 2.01.946.51.377 1.035.966 1.035 1.777q-.002.205-.044.392l-1.172 8.793c-.194 1.452-.307 2.374-.633 3.146a6 6 0 0 1-3.948 3.457c-.808.22-1.737.212-3.203.212s-2.395.009-3.203-.212a6 6 0 0 1-3.948-3.457c-.326-.772-.44-1.694-.633-3.146L3.043 6.142A2 2 0 0 1 3 5.75c0-.811.524-1.4 1.034-1.777.53-.392 1.233-.702 2.01-.946C7.615 2.537 9.72 2.25 12 2.25m0 2c-2.137 0-4.031.272-5.358.687-.67.209-1.14.437-1.42.644-.098.073-.155.13-.188.169.033.038.09.096.189.169.28.207.75.435 1.419.644 1.327.415 3.221.687 5.358.687s4.031-.272 5.358-.687c.67-.209 1.14-.437 1.42-.644.098-.073.154-.13.187-.169a1 1 0 0 0-.188-.169c-.28-.207-.75-.435-1.419-.644-1.327-.415-3.221-.687-5.358-.687" clip-rule="evenodd"/></svg>