<svg xmlns="http://www.w3.org/2000/svg" fill="none" viewBox="0 0 24 24"><path fill="#090404" d="m21.588 10.52-1.938 2.56 1.303 2.256c.483.839.31 1.912-.426 2.55l-3.329 2.883c-.2.173-.43.305-.682.388l-2.251.743c-.792.261-1.655 0-2.175-.644l-1.094-1.354-2.369 1.34a1.99 1.99 0 0 1-1.995-.02l-1.656-.985a2.02 2.02 0 0 1-.97-1.485l-.394-3.114c-.001-.011-.007-.016-.007-.016l-.7-.461A2.03 2.03 0 0 1 2 13.47v-1.869c0-.763.428-1.47 1.12-1.813l.86-.425-.302-2.384a2.017 2.017 0 0 1 1.687-2.252l5.509-.84 2.361-1.558a1.99 1.99 0 0 1 2.193 0l2.088 1.378c.57.376.906 1.014.906 1.69v.848q0 .011.005.017l.002.004 2.45 1.213c1.143.566 1.47 2.036.71 3.04"/></svg>