<svg xmlns="http://www.w3.org/2000/svg" fill="none" viewBox="0 0 24 24"><path fill="#090404" fill-rule="evenodd" d="M12 1.5A5 5 0 0 1 16.77 5h3.73a1 1 0 1 1 0 2h-.532l-.907 13.138A2 2 0 0 1 17.066 22H6.934a2 2 0 0 1-1.996-1.862L4.032 7H3.5a1 1 0 0 1 0-2h3.73A5 5 0 0 1 12 1.5m-1.37 8.725a1 1 0 0 0-1.405 1.406l.068.076L10.586 13l-1.293 1.293a1 1 0 1 0 1.414 1.414L12 14.414l1.293 1.293.076.068a1 1 0 0 0 1.406-1.406l-.068-.076L13.414 13l1.293-1.293.068-.076a1 1 0 0 0-1.406-1.406l-.076.068L12 11.586l-1.293-1.293zM12 3.5A3 3 0 0 0 9.401 5H14.6A3 3 0 0 0 12 3.5" clip-rule="evenodd"/></svg>