<svg xmlns="http://www.w3.org/2000/svg" fill="none" viewBox="0 0 24 24"><path fill="#090404" d="M11.999 4.427c1.578-1.253 3.384-1.65 5.05-1.314 1.9.382 3.53 1.695 4.36 3.551 1.715 3.83-.064 9.367-7.89 14.108a1 1 0 0 1-1.038-1.71c7.464-4.522 8.204-9.12 7.104-11.58-.577-1.288-1.687-2.159-2.93-2.408-1.22-.245-2.656.09-3.943 1.396a1 1 0 0 1-1.424 0C10.094 5.26 8.774 4.886 7.625 5.03c-1.169.145-2.246.834-2.918 1.907-1.13 1.803-1.234 5.04 2.293 8.642v-1.579a1 1 0 0 1 2 0v4a1 1 0 0 1-1 1H4a1 1 0 0 1 0-2h1.597C1.612 12.926 1.228 8.72 3.011 5.873c.978-1.56 2.576-2.607 4.367-2.83 1.548-.192 3.18.24 4.62 1.384"/></svg>