<svg xmlns="http://www.w3.org/2000/svg" fill="none" viewBox="0 0 24 24"><path fill="#090404" d="M9.5 6.25a1 1 0 1 1-2 0 1 1 0 0 1 2 0"/><path fill="#090404" d="M6 6.25a1 1 0 1 1-2 0 1 1 0 0 1 2 0"/><path fill="#090404" d="M9.5 17.75a1 1 0 1 1-2 0 1 1 0 0 1 2 0"/><path fill="#090404" d="M9.25 3.25a.75.75 0 1 1-1.5 0 .75.75 0 0 1 1.5 0"/><path fill="#090404" d="M3 10a.75.75 0 1 1-1.5 0A.75.75 0 0 1 3 10"/><path fill="#090404" d="M3 14a.75.75 0 1 1-1.5 0A.75.75 0 0 1 3 14"/><path fill="#090404" d="M9.25 20.75a.75.75 0 1 1-1.5 0 .75.75 0 0 1 1.5 0"/><path fill="#090404" d="M10 10a1.5 1.5 0 1 1-3 0 1.5 1.5 0 0 1 3 0"/><path fill="#090404" d="M10 14a1.5 1.5 0 1 1-3 0 1.5 1.5 0 0 1 3 0"/><path fill="#090404" d="M6 10a1 1 0 1 1-2 0 1 1 0 0 1 2 0"/><path fill="#090404" d="M6 14a1 1 0 1 1-2 0 1 1 0 0 1 2 0"/><path fill="#090404" d="M6 17.75a1 1 0 1 1-2 0 1 1 0 0 1 2 0"/><path fill="#090404" d="M12 2a1 1 0 0 0-1 1v18a1 1 0 0 0 1 1c5.523 0 10-4.477 10-10S17.523 2 12 2"/></svg>