<svg xmlns="http://www.w3.org/2000/svg" fill="none" viewBox="0 0 24 24"><path fill="#090404" d="M2.814 1.772a1 1 0 0 1 1.414.043L7 4.759v-.003L17.582 16h-.002l2.648 2.815a1 1 0 0 1-1.457 1.37L14.831 16H13v4.132a.5.5 0 0 1-.053.224l-.724 1.447a.25.25 0 0 1-.447 0l-.723-1.447a.5.5 0 0 1-.053-.224V16H6c-1.06 0-2.098-.893-1.92-2.139l.071-.417A8 8 0 0 1 7 8.76l.593-.451L2.77 3.186a1 1 0 0 1 .043-1.414"/><path fill="#090404" d="M15 2a2 2 0 0 1 2 2v4.76a8 8 0 0 1 2.92 5.101c.075.526-.07.987-.337 1.346L7.649 2.527C8.005 2.201 8.48 2 9 2z"/></svg>