<svg xmlns="http://www.w3.org/2000/svg" fill="none" viewBox="0 0 24 24"><path fill="#090404" fill-rule="evenodd" d="M7.739 3.11a5.002 5.002 0 0 1 9.395 1.656l3.674.649.1.022a1 1 0 0 1-.346 1.96l-.102-.014-.512-.09-.886 12.845a2 2 0 0 1-1.995 1.863H6.933a2 2 0 0 1-1.995-1.863l-.832-12.07a1 1 0 0 1 .997-1.067h13.185L3.718 4.432a1 1 0 0 1 .348-1.97zm4.967 7.184a1 1 0 0 0-1.338-.069l-.076.069-2.5 2.5a1 1 0 0 0 1.414 1.414l.793-.793V17a1.001 1.001 0 0 0 2 0v-3.586l.793.793.076.068a1 1 0 0 0 1.407-1.406l-.069-.076zm-.01-7.833a3 3 0 0 0-2.818 1.026l5.117.902a3 3 0 0 0-2.298-1.928" clip-rule="evenodd"/></svg>