<svg xmlns="http://www.w3.org/2000/svg" fill="none" viewBox="0 0 24 24"><path fill="#090404" d="M7.831 12.17a6.42 6.42 0 0 0 5.65 1.356A5.67 5.67 0 0 0 12.3 17a5.68 5.68 0 0 0 1.64 4H5.728A1.73 1.73 0 0 1 4 19.273V19a8 8 0 0 1 3.831-6.83"/><path fill="#090404" d="M19.543 14.293a1 1 0 1 1 1.414 1.414l-1.543 1.543 1.543 1.543a1 1 0 1 1-1.414 1.414L18 18.664l-1.543 1.543a1 1 0 1 1-1.414-1.414l1.543-1.543-1.543-1.543a1 1 0 1 1 1.414-1.414L18 15.836z"/><path fill="#090404" d="M12 2.5a4.75 4.75 0 1 1 0 9.5 4.75 4.75 0 0 1 0-9.5"/></svg>