<svg xmlns="http://www.w3.org/2000/svg" fill="none" viewBox="0 0 24 24"><path fill="#090404" d="M7.831 12.17a6.42 6.42 0 0 0 5.65 1.357A5.68 5.68 0 0 0 12.3 17a5.68 5.68 0 0 0 1.64 4H5.728A1.73 1.73 0 0 1 4 19.273V19a8 8 0 0 1 3.831-6.83"/><path fill="#090404" fill-rule="evenodd" d="M18.379 13a.75.75 0 0 1 .727.568l.066.262a.75.75 0 0 0 .933.54l.26-.075a.75.75 0 0 1 .857.347l.414.716a.75.75 0 0 1-.13.915l-.192.187a.75.75 0 0 0 0 1.078l.195.19c.247.239.3.616.128.914l-.414.716a.75.75 0 0 1-.857.347l-.26-.075a.75.75 0 0 0-.934.539l-.066.263a.75.75 0 0 1-.727.568h-.83a.75.75 0 0 1-.727-.568l-.065-.262a.75.75 0 0 0-.935-.54l-.258.075a.75.75 0 0 1-.857-.347l-.414-.717a.75.75 0 0 1 .128-.913l.195-.19a.75.75 0 0 0 0-1.078l-.194-.187a.75.75 0 0 1-.128-.915l.414-.717a.75.75 0 0 1 .855-.346l.26.074a.75.75 0 0 0 .934-.539l.065-.263A.75.75 0 0 1 17.55 13zm-.415 2.588a1.412 1.412 0 1 0 0 2.825 1.412 1.412 0 0 0 0-2.825" clip-rule="evenodd"/><path fill="#090404" d="M12 2.5a4.75 4.75 0 1 1 0 9.5 4.75 4.75 0 0 1 0-9.5"/></svg>