<svg xmlns="http://www.w3.org/2000/svg" fill="none" viewBox="0 0 24 24"><path fill="#090404" d="M15.548 12.299A5.49 5.49 0 0 1 17.5 16.5v.643A1.86 1.86 0 0 1 15.643 19H8.357A1.86 1.86 0 0 1 6.5 17.143V16.5c0-1.685.758-3.192 1.951-4.201A5.18 5.18 0 0 0 12 13.7a5.18 5.18 0 0 0 3.548-1.401"/><path fill="#090404" d="M1.033 12.816a4.43 4.43 0 0 0 4.316.924 7.2 7.2 0 0 0-.55 2.76v.643c0 .295.038.582.106.857H1.643A1.643 1.643 0 0 1 0 16.357V15.5c0-1.033.39-1.974 1.033-2.684"/><path fill="#090404" d="M22.966 12.816A3.99 3.99 0 0 1 24 15.5v.857c0 .908-.735 1.643-1.643 1.643h-3.262q.104-.413.105-.857V16.5c0-.978-.197-1.91-.55-2.76a4.44 4.44 0 0 0 4.316-.924"/><path fill="#090404" d="M4 6.75a2.75 2.75 0 1 1 0 5.5 2.75 2.75 0 0 1 0-5.5"/><path fill="#090404" d="M20 6.75a2.75 2.75 0 1 1 0 5.5 2.75 2.75 0 0 1 0-5.5"/><path fill="#090404" d="M12 5a3.5 3.5 0 1 1 0 7 3.5 3.5 0 0 1 0-7"/></svg>