<svg xmlns="http://www.w3.org/2000/svg" fill="none" viewBox="0 0 24 24"><path fill="#090404" d="M7.831 12.17A6.42 6.42 0 0 0 12 13.7c.698 0 1.37-.111 2-.317v.624l-1.828 1.829A4 4 0 0 0 11 18.664V20c0 .351.063.687.174 1H5.728A1.73 1.73 0 0 1 4 19.273V19a8 8 0 0 1 3.831-6.83"/><path fill="#090404" d="M17.168 13.668a2.237 2.237 0 1 1 3.164 3.164l-3.582 3.582a2 2 0 0 1-1.414.586H14a1 1 0 0 1-1-1v-1.336a2 2 0 0 1 .586-1.414z"/><path fill="#090404" d="M12 2.5a4.75 4.75 0 1 1 0 9.5 4.75 4.75 0 0 1 0-9.5"/></svg>