<svg xmlns="http://www.w3.org/2000/svg" fill="none" viewBox="0 0 24 24"><path fill="#090404" d="M12.234 12.427A6.99 6.99 0 0 1 15 18v.363c0 .904-.733 1.637-1.637 1.637H2.637A1.637 1.637 0 0 1 1 18.363V18a6.99 6.99 0 0 1 2.765-5.573A5.93 5.93 0 0 0 8 14.2a5.93 5.93 0 0 0 4.234-1.773"/><path fill="#090404" d="M21.541 12.77A5.48 5.48 0 0 1 23 16.5v.954c0 .854-.692 1.546-1.546 1.546H16.64q.06-.31.06-.637V18a8.7 8.7 0 0 0-.75-3.535c.489.153 1.01.235 1.55.235a5.19 5.19 0 0 0 4.041-1.93"/><path fill="#090404" d="M17.5 6a3.5 3.5 0 1 1 0 7 3.5 3.5 0 0 1 0-7"/><path fill="#090404" d="M8 4a4.25 4.25 0 1 1 0 8.5A4.25 4.25 0 0 1 8 4"/></svg>