<svg xmlns="http://www.w3.org/2000/svg" fill="none" viewBox="0 0 24 24"><path fill="#090404" d="M16.168 12.17a8 8 0 0 1 1.552 1.237l-1.333 2.284a2.697 2.697 0 0 0-3.294 4.225L14.18 21H5.728A1.73 1.73 0 0 1 4 19.273V19a8 8 0 0 1 3.831-6.83A6.42 6.42 0 0 0 12 13.7c1.59 0 3.044-.577 4.168-1.53"/><path fill="#090404" d="M19.636 13.496a1.001 1.001 0 0 1 1.728 1.008l-3.5 6a1 1 0 0 1-1.57.204l-2-1.996a1 1 0 1 1 1.412-1.415l1.082 1.079z"/><path fill="#090404" d="M12 2.5a4.75 4.75 0 1 1 0 9.5 4.75 4.75 0 0 1 0-9.5"/></svg>