<svg xmlns="http://www.w3.org/2000/svg" fill="none" viewBox="0 0 24 24"><path fill="#090404" fill-rule="evenodd" d="M19 12a3.5 3.5 0 1 1-.684 6.933l-2.273 2.274a1 1 0 0 1-.707.293H14.25a1 1 0 0 1-1-1v-1.086a1 1 0 0 1 .293-.707l2.127-2.128A3.5 3.5 0 0 1 19 12m.25 2a1 1 0 1 0 0 2 1 1 0 0 0 0-2" clip-rule="evenodd"/><path fill="#090404" d="M7.831 12.17A6.42 6.42 0 0 0 12 13.7c.81 0 1.584-.15 2.298-.424a5.2 5.2 0 0 0-.472 2.742l-1.485 1.487a2.7 2.7 0 0 0-.791 1.91V20.5q0 .256.048.5h-5.87A1.73 1.73 0 0 1 4 19.273V19a8 8 0 0 1 3.831-6.83"/><path fill="#090404" d="M19.253 20.693a1.7 1.7 0 0 1-.542.247l.243-.242.046.002a5 5 0 0 0 .253-.007"/><path fill="#090404" d="M12 2.5a4.75 4.75 0 1 1 0 9.5 4.75 4.75 0 0 1 0-9.5"/></svg>