<svg xmlns="http://www.w3.org/2000/svg" fill="none" viewBox="0 0 24 24"><path fill="#090404" d="M13.168 12.17A8 8 0 0 1 17 19v.273c0 .953-.774 1.727-1.727 1.727H2.728A1.73 1.73 0 0 1 1 19.273V19a8 8 0 0 1 3.831-6.83A6.42 6.42 0 0 0 9 13.7c1.59 0 3.044-.577 4.168-1.53"/><path fill="#090404" d="M21.793 8.293a1 1 0 1 1 1.414 1.414l-1.543 1.543 1.543 1.543a1 1 0 1 1-1.414 1.414l-1.543-1.543-1.543 1.543a1 1 0 1 1-1.414-1.414l1.543-1.543-1.543-1.543a1 1 0 1 1 1.414-1.414l1.543 1.543z"/><path fill="#090404" d="M9 2.5A4.75 4.75 0 1 1 9 12a4.75 4.75 0 0 1 0-9.5"/></svg>