<svg xmlns="http://www.w3.org/2000/svg" fill="none" viewBox="0 0 24 24"><path fill="#090404" d="M18 14c.916-.383 1.892-.561 2.688-.106.945.54 1.565 1.575 1.565 2.796 0 1.653-1.142 2.816-2.024 3.48-.684.514-1.435.896-2.228 1.208-.792-.313-1.543-.694-2.227-1.208-.882-.664-2.024-1.827-2.024-3.48 0-1.221.62-2.256 1.565-2.796.796-.455 1.769-.277 2.685.106"/><path fill="#090404" d="M7.831 12.17a6.42 6.42 0 0 0 5.268 1.435 4.98 4.98 0 0 0-1.05 3.085c.001 2.006 1.114 3.438 2.067 4.31H5.728A1.73 1.73 0 0 1 4 19.273V19a8 8 0 0 1 3.831-6.83"/><path fill="#090404" d="M12 2.5a4.75 4.75 0 1 1 0 9.5 4.75 4.75 0 0 1 0-9.5"/></svg>