<svg xmlns="http://www.w3.org/2000/svg" fill="none" viewBox="0 0 24 24"><path fill="#090404" fill-rule="evenodd" d="M18.25 13a4.25 4.25 0 1 1-.001 8.501A4.25 4.25 0 0 1 18.25 13m-.975 6.497a2.451 2.451 0 0 0 3.222-3.222zm.975-4.696a2.45 2.45 0 0 0-2.247 3.422l3.22-3.22a2.4 2.4 0 0 0-.973-.202" clip-rule="evenodd"/><path fill="#090404" d="M7.831 12.17a6.42 6.42 0 0 0 5.809 1.317 5.93 5.93 0 0 0-1.34 3.763c0 1.422.499 2.727 1.33 3.75H5.729A1.73 1.73 0 0 1 4 19.273V19a8 8 0 0 1 3.831-6.83"/><path fill="#090404" d="M12 2.5a4.75 4.75 0 1 1 0 9.5 4.75 4.75 0 0 1 0-9.5"/></svg>