<svg xmlns="http://www.w3.org/2000/svg" fill="none" viewBox="0 0 24 24"><path fill="#090404" d="M1.793 5.957a1 1 0 0 1 1.414 0L4.25 7H10v2H4.25l-1.043 1.043a1 1 0 0 1-1.414 0L.457 8.707a1 1 0 0 1 0-1.414z"/><path fill="#090404" d="M20.793 5.957a1 1 0 0 1 1.414 0l1.336 1.336a1 1 0 0 1 0 1.414l-1.336 1.336a1 1 0 0 1-1.414 0L19.75 9H14V7h5.75z"/><path fill="#090404" d="M12 4a4 4 0 0 1 3.993 3.774c3.417 1.56 5.832 4.935 6.006 9.13a1 1 0 0 1-1.998.081c-.136-3.261-1.908-5.866-4.428-7.19a3.998 3.998 0 0 1-7.147 0c-2.52 1.324-4.292 3.929-4.427 7.19A1 1 0 0 1 2 16.903c.174-4.194 2.588-7.57 6.005-9.129A4 4 0 0 1 12 4"/></svg>