<svg xmlns="http://www.w3.org/2000/svg" fill="none" viewBox="0 0 24 24"><path fill="#090404" d="M13 4a4 4 0 0 1 3.874 3h1.876l1.043-1.043a1 1 0 0 1 1.414 0l1.336 1.336a1 1 0 0 1 0 1.414l-1.336 1.336a1 1 0 0 1-1.414 0L18.75 9h-1.844q.156.163.407.44c.365.406.866.988 1.415 1.699 1.09 1.41 2.408 3.376 3.208 5.51a1 1 0 0 1-1.873.702c-.7-1.867-1.882-3.65-2.917-4.99a28 28 0 0 0-1.296-1.556 4 4 0 0 1-6.603-1.42c-3.022 1.429-5.091 4.226-5.248 7.66A1 1 0 0 1 2 16.956c.15-3.288 1.721-6.07 4.097-7.955H4.25l-1.043 1.043a1 1 0 0 1-1.414 0L.457 8.707a1 1 0 0 1 0-1.414l1.336-1.336a1 1 0 0 1 1.414 0L4.25 7h4.876C9.57 5.275 11.136 4 13 4"/></svg>