<svg xmlns="http://www.w3.org/2000/svg" fill="none" viewBox="0 0 24 24"><path fill="#090404" d="M13.793 9.793a1 1 0 0 1 1.414 0l2.127 2.127a1 1 0 0 1 1.373.037l1.336 1.336a1 1 0 0 1 0 1.414l-1.336 1.336a1 1 0 0 1-1.414 0l-1.336-1.336a1 1 0 0 1-.037-1.373l-2.127-2.127a1 1 0 0 1 0-1.414"/><path fill="#090404" d="M1.793 5.957a1 1 0 0 1 1.414 0L4.25 7H8.5a1 1 0 0 1 0 2H4.25l-1.043 1.043a1 1 0 0 1-1.414 0L.457 8.707a1 1 0 0 1 0-1.414z"/><path fill="#090404" d="M21.707 16.293a1 1 0 0 1-1.414 1.414l-1.628-1.628q.022-.017.042-.036l1.336-1.336q.02-.02.037-.042z"/><path fill="#090404" fill-rule="evenodd" d="M12 4a4 4 0 1 1-3.574 5.795c-2.52 1.324-4.291 3.929-4.427 7.19a1 1 0 0 1-1.998-.082c.174-4.194 2.589-7.57 6.005-9.129A4 4 0 0 1 12 4" clip-rule="evenodd"/></svg>