<svg xmlns="http://www.w3.org/2000/svg" fill="none" viewBox="0 0 24 24"><path fill="#090404" fill-rule="evenodd" d="M21.1 9.208A9.52 9.52 0 0 0 12 2.5a9.52 9.52 0 0 0-9.1 6.708 3.001 3.001 0 0 0 0 5.584A9.52 9.52 0 0 0 12 21.5a9.52 9.52 0 0 0 9.1-6.708 3.001 3.001 0 0 0 0-5.584M12 4.5a7.52 7.52 0 0 0-6.97 4.682A3 3 0 0 1 6.83 11h10.34a3 3 0 0 1 1.8-1.818A7.52 7.52 0 0 0 12 4.5m6.97 10.318A3 3 0 0 1 17.17 13H6.83a3 3 0 0 1-1.8 1.818A7.52 7.52 0 0 0 12 19.5a7.52 7.52 0 0 0 6.97-4.682" clip-rule="evenodd"/></svg>