<svg xmlns="http://www.w3.org/2000/svg" fill="none" viewBox="0 0 24 24"><path fill="#090404" fill-rule="evenodd" d="M22 12c0 5.523-4.477 10-10 10S2 17.523 2 12 6.477 2 12 2s10 4.477 10 10m-9.5-2c0-1.05.85-1.9 1.9-1.9h1.5c1.05 0 1.9.85 1.9 1.9a.9.9 0 1 1-1.8 0 .1.1 0 0 0-.1-.1h-1.5a.1.1 0 0 0-.1.1v1a.1.1 0 0 0 .1.1h1.5c1.05 0 1.9.85 1.9 1.9v1a1.9 1.9 0 0 1-1.9 1.9h-1.5a1.9 1.9 0 0 1-1.9-1.9.9.9 0 1 1 1.8 0 .1.1 0 0 0 .1.1h1.5a.1.1 0 0 0 .1-.1v-1a.1.1 0 0 0-.1-.1h-1.5a1.9 1.9 0 0 1-1.9-1.9zM7.873 8.782a.9.9 0 0 0-1.746.436l1.5 6c.1.4.46.682.873.682h1a.9.9 0 0 0 .873-.682l1.5-6a.9.9 0 1 0-1.746-.436L9 13.289z" clip-rule="evenodd"/></svg>