<svg xmlns="http://www.w3.org/2000/svg" fill="none" viewBox="0 0 24 24"><path fill="#090404" d="M5.218 6.374a1.001 1.001 0 0 1 1.563 1.25L3.281 12l3.5 4.375a1 1 0 0 1-1.563 1.25l-4-5a1 1 0 0 1 0-1.25z"/><path fill="#090404" d="M17.375 6.218a1 1 0 0 1 1.406.156l4 5c.292.365.292.885 0 1.25l-4 5a1 1 0 0 1-1.562-1.25l3.5-4.375-3.5-4.375a1 1 0 0 1 .156-1.406"/><path fill="#090404" d="M10.5 10c.21 0 .4.13.475.326l.59 1.534c.102.264.311.472.575.574l1.534.59a.51.51 0 0 1 0 .95l-1.534.59a1 1 0 0 0-.575.576l-.59 1.533a.51.51 0 0 1-.95 0l-.59-1.533a1 1 0 0 0-.575-.575l-1.533-.59a.51.51 0 0 1 0-.951l1.533-.59a1 1 0 0 0 .574-.574l.59-1.534A.51.51 0 0 1 10.5 10"/><path fill="#090404" d="M13.5 6c.15 0 .285.092.34.233l.376.977a1 1 0 0 0 .574.574l.976.375a.365.365 0 0 1 0 .68l-.976.376a1 1 0 0 0-.574.574l-.376.977a.364.364 0 0 1-.68 0l-.375-.977a1 1 0 0 0-.574-.574l-.978-.376a.365.365 0 0 1 0-.68l.978-.375a1 1 0 0 0 .574-.574l.375-.977a.365.365 0 0 1 .34-.234"/></svg>