<svg xmlns="http://www.w3.org/2000/svg" fill="none" viewBox="0 0 24 24"><path fill="#090404" d="M8.307 4.278a1 1 0 0 1 1.385 1.444l-6.278 6.026 6.306 6.559a1 1 0 0 1-1.441 1.386l-7-7.28A1 1 0 0 1 1.307 11z"/><path fill="#090404" d="M21.279 11.027a1 1 0 0 1 1.441 1.387l-7 7.28a1 1 0 0 1-1.441-1.386z"/><path fill="#090404" d="M17 3c.24 0 .457.148.544.373l.696 1.813c.102.264.311.472.575.574l1.812.696a.583.583 0 0 1 0 1.088l-1.812.696c-.264.102-.474.31-.575.574l-.696 1.813a.583.583 0 0 1-1.087 0l-.698-1.813a1 1 0 0 0-.574-.574l-1.812-.696a.583.583 0 0 1 0-1.088l1.812-.696a1 1 0 0 0 .574-.574l.698-1.813A.58.58 0 0 1 17 3"/></svg>