<svg xmlns="http://www.w3.org/2000/svg" fill="none" viewBox="0 0 24 24"><path fill="#090404" d="M8 13c.8 0 1.571.137 2.288.385L9.113 17.5H6.999A2.5 2.5 0 0 0 4.71 21H2c-.552 0-1.005-.45-.952-.999.36-3.743 2.748-7 6.952-7.001"/><path fill="#090404" d="M20.541 12a2.1 2.1 0 0 1 2.051 2.55l-.032.127-1.392 4.873A2 2 0 0 1 19.245 21H7a1 1 0 0 1 0-2h3.245l1.483-5.187.065-.197A2.5 2.5 0 0 1 14.132 12z"/><path fill="#090404" d="M8.5 3.5a4 4 0 1 1 0 8 4 4 0 0 1 0-8"/><path fill="#090404" d="M18.5 2c.248 0 .457.186.485.433.171 1.516 1.03 2.444 2.57 2.58a.488.488 0 0 1-.001.973c-1.517.132-2.437 1.051-2.568 2.569a.488.488 0 0 1-.972 0c-.137-1.538-1.065-2.399-2.581-2.57a.488.488 0 0 1-.001-.97c1.538-.177 2.406-1.045 2.583-2.583A.49.49 0 0 1 18.5 2"/></svg>