<svg xmlns="http://www.w3.org/2000/svg" fill="none" viewBox="0 0 24 24"><path fill="#090404" d="M3.5 14.339c1.398-1.1 3.18-1.518 4.862-1.27l.335.059.1.025a1 1 0 0 1-.394 1.95l-.1-.015-.234-.04c-1.169-.172-2.39.121-3.332.862C3.754 16.683 3 18.006 3 20a1 1 0 1 1-2 0c0-2.543.987-4.471 2.5-5.661"/><path fill="#090404" fill-rule="evenodd" d="M20.542 12a2.1 2.1 0 0 1 2.05 2.55l-.031.126-1.392 4.873A2 2 0 0 1 19.246 21H7a1 1 0 1 1 0-2h3.245l1.483-5.186.065-.197A2.5 2.5 0 0 1 14.132 12z" clip-rule="evenodd"/><path fill="#090404" fill-rule="evenodd" d="M9.562 1.102a.9.9 0 0 1 .763.54v-.003l.003.007.016.034a4 4 0 0 0 .329.566c.11.153.212.264.294.327q.01.006.017.01l.007-.001q.087-.037.197-.106c.07-.043.132-.087.176-.12l.05-.039.008-.007a.9.9 0 0 1 1.15-.005l.065.058.273.273a2.9 2.9 0 0 1 .27 3.791l-.28.372v.2a4.9 4.9 0 0 1-9.794.253L3.101 7c0-.824.132-1.87.609-2.743.508-.932 1.413-1.658 2.79-1.658.031-.001.489-.023 1.282-.294l.388-.142c.002-.001.04-.02.11-.082s.146-.142.219-.23a3 3 0 0 0 .223-.303l.01-.017v-.002a.9.9 0 0 1 .83-.427M8 8a.5.5 0 0 1-.5.5H5.288a3.098 3.098 0 0 0 5.425 0H9v-1H8zm1.376-4.492c-.16.129-.342.248-.546.329l-.465.171C7.333 4.361 6.671 4.4 6.5 4.4c-.622 0-.968.275-1.21.718A3.1 3.1 0 0 0 4.992 6h6.263q.013-.02.025-.04l.46-.613a1.1 1.1 0 0 0 .091-1.175c-.215.105-.487.209-.778.226h-.185c-.42-.025-.761-.214-1-.4a3 3 0 0 1-.492-.49" clip-rule="evenodd"/><path fill="#090404" d="M16.327 4.26a1 1 0 0 1 1.413.067l.001.002h.002l.004.006.013.014.042.048.136.164a7 7 0 0 1 .606.899q.292-.131.544-.205c.245-.074.456-.113.612-.133a3 3 0 0 1 .282-.022H20A1 1 0 1 1 20 7.098h.015l-.059.006a2 2 0 0 0-.294.065c-.256.077-.62.237-.993.573A1 1 0 0 1 17 7c0-.142-.105-.432-.34-.795a5 5 0 0 0-.376-.505l-.021-.026-.002-.002-.002-.001a1 1 0 0 1 .068-1.412"/></svg>