<svg xmlns="http://www.w3.org/2000/svg" fill="none" viewBox="0 0 24 24"><path fill="#090404" fill-rule="evenodd" d="M12 22c5.523 0 10-4.477 10-10S17.523 2 12 2 2 6.477 2 12s4.477 10 10 10m0-13.5a1 1 0 1 0 0-2 1 1 0 0 0 0 2m4.5 4.5a1 1 0 1 0 0-2 1 1 0 0 0 0 2m-8-1a1 1 0 1 1-2 0 1 1 0 0 1 2 0m3.5 5.5a1 1 0 1 0 0-2 1 1 0 0 0 0 2M9.525 8.11a1 1 0 1 1-1.414 1.415 1 1 0 0 1 1.414-1.414m6.364 1.415a1 1 0 1 0-1.414-1.414 1 1 0 0 0 1.414 1.414m-6.364 4.95a1 1 0 1 1-1.414 1.414 1 1 0 0 1 1.414-1.414m6.364 1.414a1 1 0 1 0-1.414-1.414 1 1 0 0 0 1.414 1.414" clip-rule="evenodd"/></svg>