<svg xmlns="http://www.w3.org/2000/svg" fill="none" viewBox="0 0 24 24"><path fill="#090404" fill-rule="evenodd" d="M17.657 6.343a8.004 8.004 0 0 0-9.521-1.35 1 1 0 0 1-.967-1.752c3.8-2.098 8.677-1.537 11.902 1.688s3.786 8.101 1.687 11.902a1 1 0 0 1-1.75-.967 8.004 8.004 0 0 0-1.351-9.521M4.6 6.777a1 1 0 0 1 .392 1.359 8.004 8.004 0 0 0 10.872 10.871 1 1 0 0 1 .967 1.751c-3.8 2.099-8.677 1.538-11.902-1.687S1.143 10.969 3.242 7.169A1 1 0 0 1 4.6 6.777M12 7.5c2.053 0 3.925 1.263 5.447 3.38.48.669.48 1.571 0 2.24-1.522 2.117-3.394 3.38-5.447 3.38s-3.925-1.263-5.447-3.38a1.92 1.92 0 0 1 0-2.24C8.075 8.764 9.947 7.5 12 7.5M10.75 12a1.25 1.25 0 1 1 2.5 0 1.25 1.25 0 0 1-2.5 0" clip-rule="evenodd"/></svg>