<svg xmlns="http://www.w3.org/2000/svg" fill="none" viewBox="0 0 24 24"><path fill="#090404" d="M7.504 4a1 1 0 0 0-2 0v12a1 1 0 1 0 2 0z"/><path fill="#090404" d="M14.504 5a1 1 0 1 0-2 0v2.5a1 1 0 1 0 2 0z"/><path fill="#090404" d="M11.004 7a1 1 0 1 0-2 0v3a1 1 0 1 0 2 0z"/><path fill="#090404" d="M4.004 9a1 1 0 0 0-2 0v2a1 1 0 1 0 2 0z"/><path fill="#090404" d="M19.002 15.5a2.5 2.5 0 1 1-5 0 2.5 2.5 0 0 1 5 0"/><path fill="#090404" fill-rule="evenodd" d="M11.002 15.5a5.5 5.5 0 1 1 11 0 5.5 5.5 0 0 1-11 0m5.5-3.5a3.5 3.5 0 1 0 0 7 3.5 3.5 0 0 0 0-7" clip-rule="evenodd"/></svg>