<svg xmlns="http://www.w3.org/2000/svg" fill="none" viewBox="0 0 24 24"><path fill="#090404" fill-rule="evenodd" d="M8.896 8.5a2 2 0 0 1 1.72.98l.622 1.05 1.235.01a2 2 0 0 1 1.713.995l.388.67a2 2 0 0 1 .009 1.996l-.599 1.049.599 1.049a2 2 0 0 1-.009 1.997l-.388.669c-.356.61-1.007.99-1.713.995l-1.235.01-.622 1.05a2 2 0 0 1-1.72.98h-.791a2 2 0 0 1-1.721-.98l-.623-1.05-1.234-.01a2 2 0 0 1-1.713-.995l-.388-.67a2 2 0 0 1-.009-1.996l.599-1.049-.599-1.049a2 2 0 0 1 .009-1.997l.388-.669a2 2 0 0 1 1.713-.995l1.234-.01.623-1.05a2 2 0 0 1 1.72-.98zm-.396 5a1.75 1.75 0 1 0 0 3.5 1.75 1.75 0 0 0 0-3.5" clip-rule="evenodd"/><path fill="#090404" d="M18 2a1 1 0 0 1 1 1v12a1 1 0 1 1-2 0V3a1 1 0 0 1 1-1"/><path fill="#090404" d="M21.5 7a1 1 0 0 1 1 1v2a1 1 0 1 1-2 0V8a1 1 0 0 1 1-1"/><path fill="#090404" d="M14.5 5a1 1 0 0 1 1 1v2.25a1 1 0 1 1-2 0V6a1 1 0 0 1 1-1"/><path fill="#090404" d="M11 3a1 1 0 0 1 1 1v1.5a1 1 0 1 1-2 0V4a1 1 0 0 1 1-1"/></svg>