<svg xmlns="http://www.w3.org/2000/svg" fill="none" viewBox="0 0 24 24"><path fill="#090404" d="M16 2a2.998 2.998 0 0 1 1 5.825v8.349A2.998 2.998 0 0 1 16 22a3 3 0 0 1-1-5.826V7.825A2.998 2.998 0 0 1 16 2"/><path fill="#090404" d="M8 4a1 1 0 0 1 1 1v14a1 1 0 1 1-2 0V5a1 1 0 0 1 1-1"/><path fill="#090404" d="M4 9a1 1 0 0 1 1 1v4a1 1 0 1 1-2 0v-4a1 1 0 0 1 1-1"/><path fill="#090404" d="M12 9a1 1 0 0 1 1 1v4a1 1 0 1 1-2 0v-4a1 1 0 0 1 1-1"/><path fill="#090404" d="M20 10a1 1 0 0 1 1 1v2a1 1 0 1 1-2 0v-2a1 1 0 0 1 1-1"/></svg>