<svg xmlns="http://www.w3.org/2000/svg" fill="none" viewBox="0 0 24 24"><path fill="#090404" fill-rule="evenodd" d="M10 11a5 5 0 0 1 0 10H6.5a5 5 0 0 1 0-10zm0 3a2 2 0 1 0 0 4 2 2 0 0 0 0-4" clip-rule="evenodd"/><path fill="#090404" d="M17.5 3a1 1 0 0 1 1 1v12a1 1 0 1 1-2 0V4a1 1 0 0 1 1-1"/><path fill="#090404" d="M21 8a1 1 0 0 1 1 1v2a1 1 0 1 1-2 0V9a1 1 0 0 1 1-1"/><path fill="#090404" d="M14 6a1 1 0 0 1 1 1v2.25a1 1 0 1 1-2 0V7a1 1 0 0 1 1-1"/><path fill="#090404" d="M10.5 4a1 1 0 0 1 1 1v3a1 1 0 1 1-2 0V5a1 1 0 0 1 1-1"/></svg>