<svg xmlns="http://www.w3.org/2000/svg" fill="none" viewBox="0 0 24 24"><path fill="#090404" d="M8 3a1 1 0 0 1 1 1v16a1 1 0 1 1-2 0V4a1 1 0 0 1 1-1"/><path fill="#090404" d="M20 12a1 1 0 0 1 1 1v4a1 1 0 1 1-2 0v-1.657c-.603.56-1.012 1.086-1.296 1.617-.45.838-.639 1.78-.684 3.074a1 1 0 0 1-1.997-.068c.05-1.45.268-2.736.918-3.95.384-.717.901-1.375 1.57-2.016H16a1 1 0 1 1 0-2z"/><path fill="#090404" d="M12 7a1 1 0 0 1 1 1v8a1 1 0 1 1-2 0V8a1 1 0 0 1 1-1"/><path fill="#090404" d="M4 9a1 1 0 0 1 1 1v4a1 1 0 1 1-2 0v-4a1 1 0 0 1 1-1"/><path fill="#090404" d="M16 5a1 1 0 0 1 1 1v3a1 1 0 1 1-2 0V6a1 1 0 0 1 1-1"/></svg>