<svg xmlns="http://www.w3.org/2000/svg" fill="none" viewBox="0 0 24 24"><path fill="#090404" d="M8 3a1 1 0 0 1 1 1v16a1 1 0 1 1-2 0V4a1 1 0 0 1 1-1"/><path fill="#090404" d="M16 13c.24 0 .457.148.544.373l.696 1.813c.102.263.31.472.575.574l1.812.696a.583.583 0 0 1 0 1.088l-1.812.696c-.264.102-.473.31-.575.575l-.696 1.812a.583.583 0 0 1-1.088 0l-.696-1.812a1 1 0 0 0-.575-.575l-1.812-.696a.583.583 0 0 1 0-1.088l1.813-.696c.263-.102.472-.31.574-.575l.696-1.812A.58.58 0 0 1 16 13"/><path fill="#090404" d="M4 9a1 1 0 0 1 1 1v4a1 1 0 1 1-2 0v-4a1 1 0 0 1 1-1"/><path fill="#090404" d="M12 7a1 1 0 0 1 1 1v5a1 1 0 1 1-2 0V8a1 1 0 0 1 1-1"/><path fill="#090404" d="M20 9a1 1 0 0 1 1 1v3a1 1 0 1 1-2 0v-3a1 1 0 0 1 1-1"/><path fill="#090404" d="M16 5a1 1 0 0 1 1 1v4a1 1 0 1 1-2 0V6a1 1 0 0 1 1-1"/></svg>