<svg xmlns="http://www.w3.org/2000/svg" fill="none" viewBox="0 0 24 24"><path fill="#090404" d="M8 1c-.624 0-1.135.274-1.525.628-.377.343-.677.79-.924 1.246-.486.896-.9 2.073-1.293 3.192l-.014.04c-.412 1.172-.812 2.31-1.285 3.249-.488.966-.959 1.527-1.406 1.75a1 1 0 0 0 0 1.79c.447.223.918.784 1.406 1.75.473.94.873 2.077 1.285 3.249l.014.04c.393 1.119.807 2.296 1.293 3.191.247.456.547.904.924 1.247.39.354.9.628 1.525.628 1.241 0 1.961-1.001 2.371-1.788.432-.83.767-1.9 1.066-2.858l.018-.056c.32-1.027.607-1.932.947-2.586C12.774 15 12.99 15 13 15c.23 0 .44.093.702.414.287.352.537.859.824 1.496l.092.206c.24.54.522 1.17.861 1.667.39.571 1.028 1.217 2.021 1.217 1.078 0 1.68-.785 2.012-1.42.292-.56.52-1.283.73-1.946q.044-.136.085-.267c.25-.782.506-1.523.858-2.152.347-.62.751-1.065 1.262-1.32a1 1 0 0 0 .068-1.752c-.4-.24-.761-.68-1.107-1.336-.344-.653-.618-1.412-.905-2.208l-.015-.042c-.266-.74-.56-1.558-.933-2.185C19.183 4.746 18.547 4 17.5 4c-.993 0-1.63.646-2.021 1.217-.34.497-.62 1.127-.861 1.667l-.092.206c-.287.637-.537 1.144-.824 1.496C13.44 8.907 13.23 9 13 9c-.01 0-.227 0-.598-.712-.34-.654-.626-1.559-.947-2.586l-.018-.056c-.3-.958-.634-2.028-1.066-2.858C9.961 2.001 9.241 1 8 1"/></svg>