<svg xmlns="http://www.w3.org/2000/svg" fill="none" viewBox="0 0 24 24"><path fill="#090404" d="M19.9 18.134a9.96 9.96 0 0 0 2.07-6.933c-3.68.038-6.581 1.673-9.526 3.455l-.485.294q-.46.28-.926.56c2.64 1.591 5.519 2.869 8.867 2.624"/><path fill="#090404" d="M17.856 20.108c-3.374-.309-6.235-1.85-8.651-3.376l-.156-.099c-1.506.787-3.093 1.429-4.814 1.667a9.98 9.98 0 0 0 7.766 3.7 9.95 9.95 0 0 0 5.855-1.892"/><path fill="#090404" d="M3.018 16.397A9.9 9.9 0 0 1 2.05 13c.838.015 1.819.398 3.044 1.103.652.374 1.308.799 2.005 1.258-1.33.604-2.655 1-4.082 1.036"/><path fill="#090404" d="M2.05 11c1.385.014 2.748.625 4.042 1.369.81.466 1.686 1.043 2.576 1.63l.463.304a91 91 0 0 0 1.945-1.157l.333-.202c2.857-1.728 6.08-3.595 10.198-3.736C20.398 5.044 16.555 2 12 2c-5.185 0-9.449 3.947-9.95 9"/></svg>