<svg xmlns="http://www.w3.org/2000/svg" fill="none" viewBox="0 0 24 24"><path fill="#090404" d="M3.584 17.398c1.378-.92 2.55-1.125 3.61-.993 1.179.147 2.33.723 3.59 1.502 1.194.739 2.57 1.725 3.935 2.4.537.267 1.1.498 1.688.669a9.99 9.99 0 0 1-12.823-3.577"/><path fill="#090404" d="M8.075 9.001c.639-.02 1.278.235 1.975.778.706.551 1.397 1.342 2.12 2.267.68.869 1.465 1.963 2.186 2.849.744.912 1.57 1.8 2.504 2.387s2.016.894 3.22.609a10 10 0 0 1-1.186 1.348c-1.106.126-2.167-.169-3.288-.723-1.257-.623-2.399-1.46-3.77-2.309-1.305-.808-2.765-1.583-4.395-1.786-1.523-.19-3.103.13-4.768 1.186a10 10 0 0 1-.383-1.21c1.236-1.965 2.32-3.289 3.269-4.136C6.61 9.32 7.435 9.02 8.075 9"/><path fill="#090404" d="M12 2c5.523 0 10 4.477 10 10 0 .89-.119 1.753-.337 2.575-.8.827-1.456 1.213-1.978 1.355-.592.16-1.145.046-1.76-.341-.648-.407-1.306-1.085-2.018-1.958-.734-.9-1.375-1.812-2.16-2.818-.743-.949-1.558-1.901-2.467-2.61-.917-.716-2.002-1.239-3.264-1.201-1.261.038-2.517.63-3.79 1.768-.705.63-1.433 1.446-2.195 2.465C2.421 6.07 6.734 2 12 2"/></svg>