<svg xmlns="http://www.w3.org/2000/svg" fill="none" viewBox="0 0 24 24"><path fill="#090404" d="M11.387 2.019c-4.13.25-7.585 3.007-8.86 6.77 3.034-1.82 6.464-3.076 9.668-3.367-.101-1.241-.376-2.42-.808-3.403"/><path fill="#090404" d="M2.012 11.508Q2 11.753 2 12c0 1.264.234 2.472.662 3.585.954-1.076 2.163-2.026 3.457-2.773 1.636-.944 3.484-1.61 5.242-1.774.464-1.034.752-2.288.845-3.608-3.339.343-7.063 1.871-10.194 4.078"/><path fill="#090404" d="M3.662 17.524A9.99 9.99 0 0 0 12 22q1.049-.002 2.036-.207c-3.12-1.692-5.96-4.033-7.827-6.673-1.026.709-1.91 1.537-2.546 2.404"/><path fill="#090404" d="M16.65 20.855a10 10 0 0 0 3.121-2.56c-1.408-.29-2.833-.861-4.126-1.607-1.636-.945-3.136-2.213-4.158-3.653-1.126.115-2.356.492-3.544 1.071 1.977 2.726 5.206 5.183 8.708 6.75"/><path fill="#090404" d="M20.953 16.459A9.96 9.96 0 0 0 22 12c0-2.55-.954-4.876-2.525-6.642.09 3.545-.522 7.167-1.873 10.1 1.125.533 2.283.883 3.351 1.001"/><path fill="#090404" d="M17.36 3.556a9.9 9.9 0 0 0-3.793-1.434c.454 1.364.672 2.885.672 4.378 0 1.89-.349 3.823-1.085 5.428.664.919 1.607 1.796 2.703 2.535 1.373-3.072 1.89-7.091 1.504-10.907"/></svg>