<svg xmlns="http://www.w3.org/2000/svg" fill="none" viewBox="0 0 24 24"><path fill="#090404" fill-rule="evenodd" d="M5 3a2 2 0 0 0-2 2v14a2 2 0 0 0 2 2h14a2 2 0 0 0 2-2V5a2 2 0 0 0-2-2zm0 3.25a1.25 1.25 0 1 1 2.5 0 1.25 1.25 0 0 1-2.5 0m10.783 8.054a3.87 3.87 0 0 1-2.04.39c-.87-.07-1.657-.416-2.27-.688l-.036-.016c-.655-.29-1.12-.497-1.576-.558-.386-.051-.776.003-1.26.367l-.44.33a4.002 4.002 0 0 0 7.622.175m.055-2.434-.44.33c-.594.448-1.07.534-1.494.5-.484-.039-.976-.236-1.62-.522l-.13-.058c-.565-.252-1.277-.57-2.028-.67a3.5 3.5 0 0 0-1.916.268 4.002 4.002 0 0 1 7.628.152" clip-rule="evenodd"/></svg>