<svg xmlns="http://www.w3.org/2000/svg" fill="none" viewBox="0 0 24 24"><path fill="#090404" fill-rule="evenodd" d="M12.149 2a9.913 9.913 0 0 1 7.177 16.69 9.91 9.91 0 0 1-6.951 3.133h-.284a9.9 9.9 0 0 1-4.295-.977L2.608 22h-.015a.1.1 0 0 1-.032-.007.08.08 0 0 1-.04-.048.1.1 0 0 1-.004-.032l.877-5.245A9.913 9.913 0 0 1 12.1 2zM8.554 7.133a.92.92 0 0 0-.56.284c-.236.242-.897.826-.935 2.05s.816 2.434.937 2.605c.12.17 1.636 2.815 4.133 3.888 1.467.632 2.11.74 2.528.74.172 0 .302-.017.437-.025.458-.029 1.49-.557 1.715-1.132s.24-1.078.18-1.179c-.059-.1-.222-.173-.467-.302s-1.449-.771-1.675-.862a.8.8 0 0 0-.265-.07.37.37 0 0 0-.297.178c-.201.25-.663.794-.818.95a.37.37 0 0 1-.271.128.65.65 0 0 1-.273-.073 6.4 6.4 0 0 1-1.959-1.308 7.5 7.5 0 0 1-1.33-1.77c-.137-.253 0-.384.124-.503.125-.118.259-.282.387-.423q.16-.183.262-.403a.46.46 0 0 0-.008-.436c-.06-.129-.502-1.372-.71-1.871-.169-.427-.37-.442-.546-.455-.145-.01-.31-.015-.476-.02h-.022z" clip-rule="evenodd"/></svg>