<svg xmlns="http://www.w3.org/2000/svg" fill="none" viewBox="0 0 24 24"><path fill="#090404" fill-rule="evenodd" d="M10.5 5a3 3 0 1 1 6 0 3 3 0 0 1-6 0m3-1a1 1 0 1 0 0 2 1 1 0 0 0 0-2" clip-rule="evenodd"/><path fill="#090404" d="M13.016 10.549a1 1 0 0 0-1.901-.622l-.935 2.86-.006.02A3.25 3.25 0 0 0 13.284 17h4.435l-.69 2.757a1 1 0 0 0 1.941.485l.69-2.757A2 2 0 0 0 17.72 15h-4.436a1.25 1.25 0 0 1-1.2-1.604l.13-.396H16a1 1 0 1 0 0-2h-3.132z"/><path fill="#090404" d="M10 22a6 6 0 0 0 5.129-2.885l.029-.115h-1.874c-3.524 0-6.047-3.402-5.024-6.774l.009-.03.688-2.106A6.002 6.002 0 0 0 10 22"/></svg>