<svg xmlns="http://www.w3.org/2000/svg" fill="none" viewBox="0 0 24 24"><path fill="#090404" d="M12.17 6.554a1 1 0 0 1-1.34-1.485l.64.71-.64-.71.002-.001.003-.003.009-.008.031-.028.112-.096a11.7 11.7 0 0 1 1.711-1.198c.515-.289 1.145-.574 1.798-.686.663-.113 1.458-.06 2.132.484.384.31.685.683.847 1.128.165.453.157.9.054 1.3-.19.742-.72 1.377-1.148 1.835-.2.213-.407.418-.597.603l.348-.067c.569-.107 1.268-.212 1.963-.154.715.06 1.484.298 2.112.926.79.79.901 1.744.797 2.549-.079.607-.299 1.237-.46 1.7q-.053.15-.095.274a1 1 0 0 1-1.898-.632q.069-.206.135-.393c.155-.45.285-.825.334-1.206.055-.42-.017-.668-.227-.878-.2-.2-.47-.314-.864-.347-.414-.034-.892.026-1.429.127-.123.023-.259.05-.399.079-.393.08-.827.167-1.177.197a2.5 2.5 0 0 1-.882-.06 1.46 1.46 0 0 1-.936-.755c-.261-.521-.114-1.019.028-1.312.141-.29.355-.55.54-.756.194-.214.42-.435.629-.64l.015-.015c.212-.207.415-.405.603-.606.413-.442.617-.757.67-.965.02-.074.01-.103.005-.12-.01-.024-.05-.115-.224-.255-.076-.062-.218-.124-.54-.07-.331.057-.732.222-1.155.46a9 9 0 0 0-1.4.981l-.084.073-.02.017z"/><path fill="#090404" d="M7.5 7.5a4.5 4.5 0 1 0 0 9 4.5 4.5 0 0 0 0-9"/><path fill="#090404" d="M16.263 13.87a1.5 1.5 0 0 0-2.526 0l-3.087 4.822c-.639.998.078 2.308 1.264 2.308h6.172c1.186 0 1.903-1.31 1.264-2.308z"/></svg>