<svg xmlns="http://www.w3.org/2000/svg" fill="none" viewBox="0 0 24 24"><path fill="#090404" fill-rule="evenodd" d="M8.988 3.971a2 2 0 0 1 2-2h.523a3.5 3.5 0 0 1 3.5 3.5v3.745l.04.068 4.541 2.622a2 2 0 0 1 .733 2.733l-.262.453a3.5 3.5 0 0 1-4.781 1.28l-.944-.544.807 4.172H19a1 1 0 1 1 0 2H5a1 1 0 1 1 0-2h3.854l.807-4.173-2.243 1.295a2 2 0 0 1-2.732-.732l-.261-.453a3.5 3.5 0 0 1 1.28-4.78l3.243-1.873.04-.068zm4.023 1.5v2.177a3.5 3.5 0 0 0-2.023 0V3.971h.523a1.5 1.5 0 0 1 1.5 1.5m2.397 6.329a3.5 3.5 0 0 1-1.013 1.752l1.887 1.089a1.5 1.5 0 0 0 2.049-.55l.261-.452zM9.603 13.55A3.5 3.5 0 0 1 8.591 11.8l-1.885 1.088a1.5 1.5 0 0 0-.55 2.05l.262.452zM12 9.5a1.5 1.5 0 1 0 0 3 1.5 1.5 0 0 0 0-3" clip-rule="evenodd"/></svg>