<svg xmlns="http://www.w3.org/2000/svg" fill="none" viewBox="0 0 24 24"><path fill="#090404" d="M23.552 5.066h.229l-.001-.001a.22.22 0 0 1 .22.22V9.91a.22.22 0 0 1-.22.22h-.194a1.76 1.76 0 0 0-1.76 1.76v4.895a2.172 2.172 0 0 1-3.96 1.212l-4.973-7.1a1.8 1.8 0 0 0-1.472-.766h-.003a1.76 1.76 0 0 0-1.76 1.76v4.893a2.164 2.164 0 0 1-2.644 2.098 2.28 2.28 0 0 1-1.35-.93l-5.476-7.82A1.05 1.05 0 0 1 0 9.535V5.288c0-.22.282-.308.408-.129l5.564 7.946c.336.48.902.766 1.472.766.963 0 1.76-.787 1.76-1.76V7.216c0-1.19 1.02-2.153 2.153-2.153.727 0 1.398.351 1.81.941l4.973 7.101c.337.48.904.766 1.472.766a1.77 1.77 0 0 0 1.76-1.76V7.243c0-1.203.976-2.178 2.18-2.176"/></svg>