<svg xmlns="http://www.w3.org/2000/svg" fill="none" viewBox="0 0 24 24"><path fill="#090404" d="m20.24 16.185-.696-1.812a.582.582 0 0 0-1.088 0l-.697 1.812a1 1 0 0 1-.574.575l-1.812.696a.582.582 0 0 0 0 1.088l1.812.697a1 1 0 0 1 .575.574l.696 1.812a.582.582 0 0 0 1.088 0l.697-1.812a1 1 0 0 1 .574-.575l1.812-.696a.582.582 0 0 0 0-1.088l-1.812-.697a1 1 0 0 1-.575-.574"/><path fill="#090404" fill-rule="evenodd" d="M20 4a2 2 0 0 1 2 2v9.071l-.053-.02-.537-1.396-.078-.182a2.582 2.582 0 0 0-4.664 0l-.078.182-.538 1.397-1.397.538a2.582 2.582 0 0 0 0 4.82l1.397.537.02.053H4a2 2 0 0 1-2-2V6a2 2 0 0 1 2-2zM5.75 6.5a1.25 1.25 0 0 0-1.243 1.122L4.5 7.75l.007.128A1.25 1.25 0 1 0 5.75 6.5m3.5 0a1.25 1.25 0 0 0-1.243 1.122L8 7.75l.007.128A1.25 1.25 0 1 0 9.25 6.5m3.5 0a1.25 1.25 0 0 0-1.243 1.122l-.007.128.007.128A1.25 1.25 0 1 0 12.75 6.5" clip-rule="evenodd"/><path fill="#090404" d="M15.373 17.456a1 1 0 0 0-.08.04l-.001-.002a1 1 0 0 1 .081-.038l.49-.19 1.323-.506z"/></svg>