<svg xmlns="http://www.w3.org/2000/svg" fill="none" viewBox="0 0 24 24"><path fill="#090404" fill-rule="evenodd" d="M10.494 3.303a2 2 0 0 1 3.296-.633l4.931 5.138A1 1 0 0 1 18 9.5h-2.273l4.146 9.5H21a1 1 0 1 1 0 2H3a1 1 0 1 1 0-2h1.124l3.014-7.428a.3.3 0 0 1 .073.093l.553 1.185c.093.2.379.2.472 0l.553-1.185a.26.26 0 0 1 .126-.126l1.185-.553a.26.26 0 0 0 0-.472l-1.185-.553a.26.26 0 0 1-.126-.126l-.506-1.084zm1.467 11.532a.26.26 0 0 1-.126.126l-1.185.553a.26.26 0 0 0 0 .472l1.185.553c.055.026.1.07.126.126l.553 1.185c.094.2.379.2.472 0l.553-1.185c.026-.055.07-.1.126-.126l1.185-.553a.26.26 0 0 0 0-.472l-1.185-.553a.26.26 0 0 1-.126-.126l-.553-1.185a.26.26 0 0 0-.472 0z" clip-rule="evenodd"/></svg>