<svg xmlns="http://www.w3.org/2000/svg" fill="none" viewBox="0 0 24 24"><path fill="#090404" d="M18.016 13.557c1.019-.589 2.27-.493 3.59-.01a.8.8 0 0 1 .513.889c-.241 1.384-.783 2.516-1.802 3.104-.862.498-1.889.504-2.983.203-.882.85-1.885 1.358-2.862 1.737a6.7 6.7 0 0 1 1.718 1.44.9.9 0 0 1-1.377 1.16c-.748-.888-1.688-1.348-2.812-1.75-1.123.402-2.064.862-2.811 1.75a.9.9 0 0 1-1.377-1.16 6.7 6.7 0 0 1 1.717-1.44c-.977-.379-1.98-.887-2.862-1.736-1.094.301-2.12.294-2.982-.203-1.02-.588-1.561-1.72-1.803-3.104a.8.8 0 0 1 .513-.889c1.32-.483 2.571-.578 3.59.01.91.525 1.438 1.484 1.713 2.668 1.033 1.123 2.342 1.56 3.89 2.064l.412.135.412-.135c1.548-.503 2.856-.941 3.889-2.063.275-1.185.804-2.145 1.714-2.67"/><path fill="#090404" d="M2.991 7.264c1.4-.125 2.633.106 3.465.938.832.833 1.064 2.066.939 3.466a.8.8 0 0 1-.726.726c-1.4.125-2.633-.107-3.466-.939-.832-.832-1.063-2.065-.938-3.465l.025-.14a.8.8 0 0 1 .701-.586"/><path fill="#090404" d="M17.541 8.201c.78-.78 1.913-1.031 3.205-.957l.261.019.14.025a.8.8 0 0 1 .586.701c.125 1.4-.107 2.633-.939 3.465s-2.065 1.064-3.465.939a.8.8 0 0 1-.726-.726c-.125-1.4.106-2.633.938-3.466"/><path fill="#090404" d="M6.688 2.462c1.384.242 2.516.784 3.104 1.803.589 1.02.493 2.27.01 3.59a.8.8 0 0 1-.889.513C7.53 8.127 6.397 7.585 5.81 6.566s-.493-2.271-.01-3.591l.06-.13a.8.8 0 0 1 .829-.383"/><path fill="#090404" d="M17.455 2.45a.8.8 0 0 1 .747.525c.483 1.32.579 2.571-.01 3.59-.588 1.02-1.72 1.562-3.104 1.803a.8.8 0 0 1-.889-.512c-.483-1.32-.578-2.572.01-3.591.589-1.019 1.72-1.561 3.105-1.803z"/></svg>