<svg xmlns="http://www.w3.org/2000/svg" fill="none" viewBox="0 0 24 24"><path fill="#090404" d="M19.656 7.586V7.58l-.005-.003a7 7 0 0 0-.29-.173L12.3 3.328a7 7 0 0 0-.295-.165L12 3.16q-.002 0-.005.003c-.06.03-.14.075-.295.165L4.64 7.404c-.156.09-.235.136-.29.173l-.006.003v.006c-.004.066-.004.159-.004.339v8.152c0 .18 0 .271.004.338v.005l.006.004c.055.036.134.083.29.172l7.06 4.077c.156.09.236.135.295.165q.003 0 .005.002l.005-.002c.06-.03.14-.076.295-.165l7.06-4.076c.156-.09.236-.137.291-.173l.004-.004.001-.005c.004-.067.004-.159.004-.338V7.925c0-.18 0-.273-.004-.34m2.004 8.708c-.002.23-.015.494-.098.747a2 2 0 0 1-.416.72c-.237.264-.553.433-.786.567l-7.06 4.076c-.233.135-.537.324-.884.398a2 2 0 0 1-.832 0c-.346-.074-.65-.263-.884-.398l-7.06-4.076c-.233-.134-.55-.303-.786-.566a2 2 0 0 1-.417-.721 2.5 2.5 0 0 1-.097-.747V7.707c.002-.23.015-.495.098-.747.086-.267.228-.513.416-.72.237-.264.553-.433.786-.567l7.06-4.076c.233-.135.538-.324.884-.398.206-.044.417-.055.625-.033l.207.033.128.032c.294.088.552.248.756.366l7.06 4.076c.233.134.55.303.787.566.14.156.255.334.34.525l.076.196.035.127c.05.213.06.428.062.62z"/><path fill="#090404" d="M13 2v9.422l8.16 4.712-1 1.732L12 13.154l-8.16 4.712-1-1.732L11 11.422V2z"/></svg>