<svg xmlns="http://www.w3.org/2000/svg" fill="none" viewBox="0 0 24 24"><path fill="#090404" d="M19.656 7.585V7.58l-.005-.002a7 7 0 0 0-.29-.173L12.3 3.328a7 7 0 0 0-.295-.165Q12.003 3.16 12 3.16l-.005.002c-.06.03-.14.076-.295.166L4.64 7.404c-.156.09-.235.136-.29.173l-.006.002v.006c-.004.067-.004.16-.004.34v8.152c0 .18 0 .271.004.337v.005l.006.004c.055.037.134.083.29.173l7.06 4.076c.156.09.236.136.295.165l.005.002q.002 0 .005-.002c.06-.03.14-.075.295-.165l7.06-4.076c.156-.09.236-.136.291-.173q.003-.001.004-.004l.001-.005c.004-.066.004-.158.004-.337V7.924c0-.18 0-.272-.004-.339m2.004 8.708c-.002.23-.015.495-.098.747a2 2 0 0 1-.416.721c-.237.263-.553.432-.786.567l-7.06 4.076c-.233.134-.537.323-.884.397a2 2 0 0 1-.832 0c-.346-.074-.65-.263-.884-.397l-7.06-4.076c-.233-.135-.55-.304-.786-.567a2 2 0 0 1-.417-.72 2.5 2.5 0 0 1-.097-.748V7.706c.002-.23.015-.494.098-.747.086-.266.228-.512.416-.72.237-.263.553-.432.786-.567l7.06-4.076c.233-.134.538-.324.884-.397.206-.044.417-.055.625-.034l.207.034.128.032c.294.087.552.247.756.365l7.06 4.076c.233.135.55.304.787.567.14.156.255.334.34.525l.076.195.035.127c.05.213.06.429.062.62z"/><path fill="#090404" d="M21.16 7.866 13 12.577V22h-2v-9.423l-8.16-4.71 1-1.733 8.16 4.71 8.16-4.71z"/></svg>