<svg xmlns="http://www.w3.org/2000/svg" fill="none" viewBox="0 0 24 24"><path fill="#090404" d="M17.33 8.923v5.075c0 .337 0 .505-.049.656a1 1 0 0 1-.208.36c-.106.117-.251.202-.543.37-.394.227-.59.341-.752.324a.5.5 0 0 1-.352-.203c-.096-.132-.096-.359-.096-.814v-4.614l-8.16-4.71 1-1.733z"/><path fill="#090404" d="M19.656 7.586V7.58l-.005-.003a7 7 0 0 0-.29-.173L12.3 3.328a7 7 0 0 0-.295-.165L12 3.16q-.002 0-.005.003c-.06.03-.14.075-.295.165L4.64 7.404c-.156.09-.235.136-.29.173l-.006.003v.006c-.004.066-.004.159-.004.338v8.153c0 .18 0 .271.004.338v.005l.006.003c.055.037.134.084.29.173l7.06 4.076c.156.09.236.136.295.165l.005.002q.002 0 .005-.002c.06-.03.14-.075.295-.165l7.06-4.076c.156-.09.236-.136.291-.173q.003 0 .004-.003l.001-.005c.004-.067.004-.159.004-.338V7.924c0-.18 0-.272-.004-.338m2.004 8.708c-.002.23-.015.494-.098.747a2 2 0 0 1-.416.72c-.237.264-.553.432-.786.567l-7.06 4.076c-.233.134-.537.324-.884.397a2 2 0 0 1-.832 0c-.346-.073-.65-.263-.884-.397l-7.06-4.076c-.233-.135-.55-.303-.786-.567a2 2 0 0 1-.417-.72 2.5 2.5 0 0 1-.097-.747V7.707c.002-.23.015-.495.098-.747.086-.267.228-.513.416-.721.237-.263.553-.432.786-.567l7.06-4.076c.233-.134.538-.323.884-.397.206-.044.417-.055.625-.033l.207.033.128.032c.294.087.552.248.756.365l7.06 4.076c.233.135.55.304.787.567.14.156.255.334.34.525l.076.196.035.127c.05.212.06.428.062.62z"/><path fill="#090404" d="M21.16 7.866 13 12.577V22h-2v-9.423l-8.16-4.71 1-1.733 8.16 4.71 8.16-4.71z"/></svg>