<svg xmlns="http://www.w3.org/2000/svg" fill="none" viewBox="0 0 24 24"><path fill="#090404" d="M20 12a8 8 0 1 0-16 0 8 8 0 0 0 16 0m2 0c0 5.523-4.477 10-10 10S2 17.523 2 12 6.477 2 12 2s10 4.477 10 10"/><path fill="#090404" d="M2.759 11.343a1 1 0 0 1 1.244.672c.015.051.114.242.523.51.391.255.963.511 1.707.737 1.485.45 3.51.738 5.767.738 2.245 0 4.26-.284 5.742-.73.744-.224 1.318-.478 1.713-.733.414-.266.522-.46.541-.52a1 1 0 0 1 1.902.618c-.224.693-.777 1.208-1.36 1.584-.604.388-1.366.71-2.219.966C16.61 15.699 14.395 16 12 16c-2.408 0-4.634-.304-6.348-.824-.854-.26-1.617-.584-2.22-.976-.582-.381-1.134-.906-1.345-1.613a1 1 0 0 1 .672-1.244"/><path fill="#090404" d="M8 12c0-2.37.295-4.565.8-6.266.252-.85.566-1.609.945-2.214.368-.587.866-1.14 1.535-1.389a1 1 0 0 1 .696 1.875c-.072.027-.273.154-.537.575-.252.403-.502.98-.722 1.722C10.278 7.782 10 9.778 10 12c0 2.109.25 4.016.652 5.47.201.73.434 1.32.675 1.757.25.451.466.662.595.74a1 1 0 0 1-1.031 1.714c-.557-.335-.984-.89-1.315-1.488-.338-.614-.622-1.36-.851-2.19C8.266 16.343 8 14.253 8 12"/></svg>