<svg xmlns="http://www.w3.org/2000/svg" fill="none" viewBox="0 0 24 24"><path fill="#090404" d="M15.5 9.5a1 1 0 1 0-2 0 1 1 0 0 0 2 0m2 0a3 3 0 1 1-6 0 3 3 0 0 1 6 0"/><path fill="#090404" d="M19 10V5H5v14h6a1 1 0 1 1 0 2H5a2 2 0 0 1-2-2V5a2 2 0 0 1 2-2h14a2 2 0 0 1 2 2v5a1 1 0 1 1-2 0"/><path fill="#090404" d="M6.586 12a2 2 0 0 1 2.828 0l2.293 2.293a1 1 0 1 1-1.414 1.414L8 13.414l-3.293 3.293a1 1 0 1 1-1.414-1.414z"/><path fill="#090404" d="M21 17a1 1 0 1 1 0 2h-6a1 1 0 1 1 0-2z"/><path fill="#090404" d="M17 21v-6a1 1 0 1 1 2 0v6a1 1 0 1 1-2 0"/></svg>