<svg xmlns="http://www.w3.org/2000/svg" fill="none" viewBox="0 0 24 24"><path fill="#090404" d="M18 12a6 6 0 1 0-12 0 6 6 0 0 0 12 0m2 0a8 8 0 1 1-16 0 8 8 0 0 1 16 0"/><path fill="#090404" d="M11.293 11.293a1 1 0 1 1 1.414 1.414l-4.5 4.5a1 1 0 1 1-1.414-1.414z"/><path fill="#090404" d="M10.9 1.11V1.1a1.1 1.1 0 1 1 2.2 0v.01a1.1 1.1 0 1 1-2.2 0"/><path fill="#090404" d="M.002 12.01V12a1.1 1.1 0 1 1 2.2 0v.01a1.1 1.1 0 1 1-2.2 0"/><path fill="#090404" d="M21.799 12.01V12a1.1 1.1 0 1 1 2.199 0v.01a1.1 1.1 0 1 1-2.2 0"/><path fill="#090404" d="M18.6 4.3a1.1 1.1 0 1 1 2.199 0v.01a1.1 1.1 0 1 1-2.2 0z"/><path fill="#090404" d="M3.201 4.31V4.3a1.1 1.1 0 1 1 2.2 0v.01a1.1 1.1 0 1 1-2.2 0"/><path fill="#090404" d="M18.6 19.7a1.1 1.1 0 1 1 2.199 0v.01a1.1 1.1 0 1 1-2.2 0z"/><path fill="#090404" d="M3.201 19.71v-.01a1.1 1.1 0 1 1 2.2 0v.01a1.1 1.1 0 1 1-2.2 0"/></svg>