<svg xmlns="http://www.w3.org/2000/svg" fill="none" viewBox="0 0 24 24"><path fill="#090404" d="M19.616 6.524c0-2.637-3.055-3.774-6.955-3.774-2.373 0-5.055.44-7.546 1.225v5.158c3.67-2.674 7.75-3.819 10.377-3.819 1.652 0 2.773.461 2.773 1.287 0 3.403-14.765 2.863-14.765 10.216 0 2.818 1.938 4.433 4.664 4.433 4.124 0 7.244-4.008 9.577-8.893l.473.17c-1.229 2.985-3.772 6.259-4.268 8.363h5.31V10.004h-1.227c-1.78 3.867-4.388 7.431-7.096 7.431-1.236 0-2.023-.75-2.023-1.701 0-4.071 10.706-4.886 10.706-9.21"/></svg>