<svg xmlns="http://www.w3.org/2000/svg" fill="none" viewBox="0 0 24 24"><path fill="#090404" d="m18.566 4.86-.59-1.533a.51.51 0 0 0-.952 0l-.59 1.533a1 1 0 0 1-.574.575l-1.533.59a.51.51 0 0 0 0 .95l1.533.59a1 1 0 0 1 .575.575l.59 1.533a.51.51 0 0 0 .95 0l.59-1.533a1 1 0 0 1 .575-.575l1.533-.59a.51.51 0 0 0 0-.95l-1.533-.59a1 1 0 0 1-.575-.575"/><path fill="#090404" d="M11 6a1 1 0 1 1 0 2H3a1 1 0 0 1 0-2z"/><path fill="#090404" d="M6 7V5a1 1 0 0 1 2 0v2a1 1 0 0 1-2 0"/><path fill="#090404" d="M4.414 6.386a1 1 0 0 1 1.123.86c.268 2.007.86 3.47 1.756 4.532.89 1.055 2.159 1.804 3.95 2.252a1 1 0 0 1-.486 1.94c-2.096-.524-3.77-1.455-4.992-2.902-1.216-1.44-1.91-3.303-2.21-5.559a1 1 0 0 1 .86-1.123"/><path fill="#090404" d="M9.586 6.393a1 1 0 0 0-1.124.858c-.268 2.005-.86 3.467-1.756 4.529-.89 1.054-2.159 1.802-3.948 2.25a1 1 0 0 0 .484 1.94c2.095-.524 3.77-1.453 4.991-2.9 1.216-1.439 1.91-3.3 2.211-5.553a1 1 0 0 0-.858-1.124"/><path fill="#090404" d="M14.156 12.3c.687-1.631 3-1.631 3.688 0l3.078 7.312a1 1 0 0 1-1.844.776L18.493 19h-4.986l-.585 1.388a1 1 0 0 1-1.844-.776zm.193 4.7h3.302L16 13.077z"/></svg>