<svg xmlns="http://www.w3.org/2000/svg" fill="none" viewBox="0 0 24 24"><path fill="#090404" d="M9 18v2h6v-2zm8 2a2 2 0 0 1-2 2H9a2 2 0 0 1-2-2v-2a2 2 0 0 1 2-2h6a2 2 0 0 1 2 2z"/><path fill="#090404" d="M3.214 10.382a1 1 0 0 1 1.404-.168l7 5.5a1 1 0 0 1-1.236 1.572l-7-5.5a1 1 0 0 1-.168-1.404m16.168-.168a1 1 0 0 1 1.236 1.572l-7 5.5a1 1 0 0 1-1.236-1.572z"/><path fill="#090404" d="M11 16v-5a1 1 0 1 1 2 0v5a1 1 0 1 1-2 0"/><path fill="#090404" d="M12 2a9 9 0 0 1 9 9 1 1 0 0 1-.997 1l-.105-.005h-.003l-.01-.002-.199-.02-.588-.055c-.502-.047-1.203-.109-2.001-.17-1.604-.126-3.573-.248-5.097-.248s-3.493.122-5.097.247a134 134 0 0 0-2.59.227l-.158.015-.04.004-.01.001-.002.001A1 1 0 0 1 3 11a9 9 0 0 1 9-9m0 2a7 7 0 0 0-6.912 5.894c.462-.042 1.032-.092 1.661-.141C8.362 9.628 10.394 9.5 12 9.5s3.637.128 5.251.253c.629.049 1.199.1 1.66.14A7 7 0 0 0 12 4"/></svg>