<svg xmlns="http://www.w3.org/2000/svg" fill="none" viewBox="0 0 24 24"><path fill="#090404" d="M10.948 14.731a1.5 1.5 0 0 1 2.105 0l.118.132 2.96 3.7c.786.982.086 2.437-1.171 2.437H9.04c-1.257 0-1.956-1.455-1.17-2.437l2.959-3.7zM10.082 19h3.837L12 16.6z"/><path fill="#090404" d="M4.929 4.929c3.905-3.905 10.237-3.905 14.142 0 3.654 3.654 3.889 9.43.706 13.358a1 1 0 0 1-1.554-1.258A8.001 8.001 0 0 0 6.343 6.343a8 8 0 0 0-.566 10.686 1 1 0 0 1-1.554 1.258C1.04 14.36 1.275 8.583 4.929 4.93"/><path fill="#090404" d="M16 12a4 4 0 1 0-7.575 1.796 1 1 0 0 1-1.787.898 6 6 0 1 1 10.725 0 1 1 0 0 1-1.788-.898A4 4 0 0 0 16 12"/></svg>