<svg xmlns="http://www.w3.org/2000/svg" fill="none" viewBox="0 0 24 24"><path fill="#090404" d="M9 8.5a3.5 3.5 0 0 0-5-3.162v6.323a3.5 3.5 0 0 0 2.001.3A1 1 0 0 1 8 12v7h1zM11 19a2 2 0 0 1-2 2H8a2 2 0 0 1-2-2v-5.023a5.48 5.48 0 0 1-2.993-.573C2.317 13.051 2 12.347 2 11.707V5.292c0-.64.316-1.344 1.007-1.695l.285-.136A5.5 5.5 0 0 1 11 8.5z"/><path fill="#090404" d="M15 19h1v-7a1 1 0 0 1 1.998-.038q.246.036.502.038c.539 0 1.046-.123 1.5-.339V5.338A3.5 3.5 0 0 0 15 8.5zm7-7.292c0 .64-.316 1.344-1.007 1.695a5.5 5.5 0 0 1-2.993.574V19a2 2 0 0 1-2 2h-1a2 2 0 0 1-2-2V8.5a5.5 5.5 0 0 1 7.993-4.903C21.683 3.948 22 4.652 22 5.292z"/></svg>