<svg xmlns="http://www.w3.org/2000/svg" fill="none" viewBox="0 0 24 24"><path fill="#090404" d="M12 14.75a.5.5 0 1 1 0-1 .5.5 0 0 1 0 1"/><path fill="#090404" d="M19 7.5A2.5 2.5 0 0 0 16.5 5h-9A2.5 2.5 0 0 0 5 7.5v9A2.5 2.5 0 0 0 7.5 19h9a2.5 2.5 0 0 0 2.5-2.5zm2 9a4.5 4.5 0 0 1-4.5 4.5h-9A4.5 4.5 0 0 1 3 16.5v-9A4.5 4.5 0 0 1 7.5 3h9A4.5 4.5 0 0 1 21 7.5z"/><path fill="#090404" d="M21 9v2H3V9z"/><path fill="#090404" d="M12.5 14.25a.5.5 0 1 0-.6.49l.1.01a.5.5 0 0 0 .5-.5m.75 0a1.25 1.25 0 0 1-2.493.128l-.006-.128.006-.128a1.25 1.25 0 0 1 2.494.128"/></svg>