<svg xmlns="http://www.w3.org/2000/svg" fill="none" viewBox="0 0 24 24"><path fill="#090404" d="M20 4h-.843c-.795 0-1.559.316-2.122.879l-2.828 2.828a1 1 0 0 1-1.04.236l-7.905-2.79-.75.748 5.598 4.306a1.002 1.002 0 0 1 .097 1.5l-2 2A1 1 0 0 1 7.5 14H5.914l-1.11 1.108 2.122.796a2 2 0 0 1 1.17 1.17l.795 2.12L10 18.086V16.5a1 1 0 0 1 .292-.707l2-2 .08-.071a1 1 0 0 1 1.42.169l4.305 5.596.75-.749-2.791-7.905a1 1 0 0 1 .236-1.04l2.828-2.828a3 3 0 0 0 .88-2.122zm2 .843a5 5 0 0 1-1.465 3.536l-2.383 2.382 2.582 7.312a2 2 0 0 1-.472 2.08l-1.555 1.554a1 1 0 0 1-1.5-.098l-4.305-5.597-.902.902V18.5a1 1 0 0 1-.293.707l-2.5 2.5a1 1 0 0 1-1.643-.355l-1.34-3.576-3.575-1.34a1 1 0 0 1-.356-1.643l2.5-2.5.073-.066A1 1 0 0 1 5.5 12h1.586l.901-.902-5.596-4.305a1.002 1.002 0 0 1-.098-1.5l1.555-1.555a2 2 0 0 1 2.079-.471l7.312 2.58 2.382-2.382A5 5 0 0 1 19.157 2H21a1 1 0 0 1 1 1z"/></svg>