<svg xmlns="http://www.w3.org/2000/svg" fill="none" viewBox="0 0 24 24"><path fill="#090404" d="M8 15.75a.75.75 0 0 0-.75-.75H6v1.5h1.25a.75.75 0 0 0 .75-.75m2 0c0 .742-.296 1.414-.774 1.91.548.684.711 1.535.757 2.278a1 1 0 1 1-1.996.125c-.038-.621-.167-.977-.342-1.18-.142-.162-.452-.381-1.264-.381L6.34 18.5H6V20a1 1 0 1 1-2 0v-6a1 1 0 0 1 1-1h2.25A2.75 2.75 0 0 1 10 15.75"/><path fill="#090404" d="M18 8.5a3.5 3.5 0 0 0-5-3.162v6.323a3.5 3.5 0 0 0 2.001.3A1 1 0 0 1 17 12v7h1zM20 19a2 2 0 0 1-2 2h-1a2 2 0 0 1-2-2v-5.023a5.48 5.48 0 0 1-2.993-.573c-.69-.352-1.007-1.056-1.007-1.696V5.292c0-.64.316-1.344 1.007-1.695l.285-.136A5.5 5.5 0 0 1 20 8.5z"/></svg>