<svg xmlns="http://www.w3.org/2000/svg" fill="none" viewBox="0 0 24 24"><path fill="#090404" d="M21 18a1 1 0 1 1 0 2H3a1 1 0 1 1 0-2z"/><path fill="#090404" d="M3.408 2.257a1 1 0 0 1 .845-.241l2.002.356c.583.104 1.089.46 1.384.974l1.247 2.17c.148.258.404.439.697.49 2.026.362 6.787 1.165 8.483 1.451a3 3 0 0 1 1.585.8l1.444 1.393a2.965 2.965 0 0 1 .509 3.614 2.96 2.96 0 0 1-3.081 1.435l-4.131-.736L11 15.56a2 2 0 0 1-1.203.159l-1.334-.237A2.002 2.002 0 0 1 7 12.669l-2.472-.396a3.005 3.005 0 0 1-2.48-3.504l.114-.625c.095-.52.39-.982.823-1.285l.352-.247-.257-3.54a1 1 0 0 1 .328-.815m1.965 4.778a1 1 0 0 1-.425.893l-.817.571-.001.002-.113.625c-.101.556.274 1.084.828 1.173l3.8.61a1 1 0 0 1 .74 1.425l-.57 1.174-.002.002.001.002 1.335.238 3.678-1.731.145-.055c.147-.043.304-.053.457-.026l4.444.792a.96.96 0 0 0 .998-.465.965.965 0 0 0-.165-1.176l-1.444-1.393a1 1 0 0 0-.529-.267c-1.691-.285-6.463-1.09-8.5-1.453A3.01 3.01 0 0 1 7.15 6.512l-1.247-2.17V4.34l-.736-.132z"/></svg>