<svg xmlns="http://www.w3.org/2000/svg" fill="none" viewBox="0 0 24 24"><path fill="#090404" d="M20.28 7.53c0-.44-.3-.822-.726-.928l-1.944-.483a1 1 0 0 0-.59.034c-1.605.598-6.135 2.287-8.079 2.99a3 3 0 0 1-2.53-.224L4.25 7.667l-.701.254 1.585 2.335c.198.292.227.667.078.986l-.423.902.214.596a1 1 0 0 0 1.299.597l3.591-1.372.113-.036a1 1 0 0 1 1.242.9l.09 1.3 1.272-.46 2.319-3.334c.118-.17.286-.298.48-.369l4.24-1.536a.96.96 0 0 0 .631-.9m2 0c0 1.245-.78 2.357-1.95 2.78l-3.94 1.429-2.138 3.07a2 2 0 0 1-.96.74l-1.273.46a1.998 1.998 0 0 1-2.67-1.695l-2.334.891a3 3 0 0 1-3.895-1.79l-.214-.597a2 2 0 0 1 .072-1.523l.181-.386L1.173 7.98a1 1 0 0 1 .486-1.502l1.91-.692a2 2 0 0 1 1.684.15l2.16 1.25c.257.15.568.177.848.076 1.932-.7 6.45-2.383 8.06-2.983a3 3 0 0 1 1.77-.101l1.944.481a2.96 2.96 0 0 1 2.245 2.87"/><path fill="#090404" d="M21 18a1 1 0 1 1 0 2H3a1 1 0 1 1 0-2z"/></svg>