<svg xmlns="http://www.w3.org/2000/svg" fill="none" viewBox="0 0 24 24"><path fill="#090404" d="M9 4c1.99 0 3.292 1.202 4.144 2.691.479.838.846 1.817 1.15 2.83.331-1.34.57-2.622.716-3.66a1 1 0 0 1 1.98.279c-.27 1.929-.843 4.685-1.763 7.212.26 1.19.497 2.262.797 3.136.211.618.421 1.033.622 1.279.18.22.286.233.354.233.23 0 .36-.06.446-.126.1-.075.203-.204.297-.41.196-.435.257-1.018.257-1.464a1 1 0 1 1 2 0c0 .554-.067 1.47-.435 2.286a3 3 0 0 1-.915 1.184c-.452.34-1.008.53-1.65.53-.83 0-1.459-.424-1.904-.97-.424-.52-.726-1.198-.964-1.893q-.13-.383-.249-.809c-.405.717-.857 1.377-1.365 1.93C11.6 19.26 10.428 20 9 20c-2.061 0-3.607-1.114-4.59-2.648-.968-1.51-1.426-3.462-1.41-5.36.017-1.9.508-3.845 1.479-5.347C5.46 5.125 6.987 4 9 4m0 2c-1.168 0-2.127.625-2.841 1.73C5.433 8.853 5.014 10.41 5 12.01c-.013 1.6.379 3.15 1.093 4.264C6.792 17.363 7.761 18 9 18c.675 0 1.352-.34 2.044-1.094.697-.76 1.33-1.859 1.881-3.159q.113-.267.22-.54-.107-.5-.217-.984c-.4-1.753-.852-3.37-1.52-4.54C10.758 6.55 10.01 6 9 6"/></svg>