<svg xmlns="http://www.w3.org/2000/svg" fill="none" viewBox="0 0 24 24"><path fill="#090404" d="M5.71 15.104c-.56 0-.897-.32-.897-.851 0-.154.046-.378.125-.59l1.34-3.702c.258-.726.694-1.054 1.395-1.054.751 0 1.183.316 1.453 1.054l1.353 3.703c.083.228.116.394.116.585 0 .498-.37.855-.88.855-.519 0-.788-.237-.938-.818l-.104-.407h-1.95l-.104.378c-.166.602-.432.847-.909.847m1.345-2.536h1.249l-.623-2.175h-.033z"/><path fill="#090404" d="M12.015 15c-.56 0-.88-.332-.88-.921v-4.25c0-.59.32-.922.88-.922s.88.332.88.922v3.768h1.656c.464 0 .776.253.776.702s-.303.701-.777.701z"/><path fill="#090404" d="M16.834 15.104c-.56 0-.88-.332-.88-.922v-3.768h-.884c-.465 0-.776-.253-.776-.702s.303-.701.776-.701h3.528c.473 0 .776.253.776.701 0 .449-.311.702-.776.702h-.884v3.768c0 .59-.32.922-.88.922"/><path fill="#090404" d="M4 6v12h16V6zm18 12a2 2 0 0 1-2 2H4a2 2 0 0 1-2-2V6a2 2 0 0 1 2-2h16a2 2 0 0 1 2 2z"/></svg>