<svg xmlns="http://www.w3.org/2000/svg" fill="none" viewBox="0 0 24 24"><path fill="#090404" d="M3 20v-.049l.001-.137a102.874 102.874 0 0 1 .046-2.346 92 92 0 0 1 .332-5.562c.189-2.015.477-4.087.924-5.677.221-.787.5-1.527.87-2.09C5.533 3.593 6.124 3 7 3l.21.012c.478.054.864.29 1.153.573.315.307.549.697.73 1.07.361.739.653 1.705.922 2.54.286.89.553 1.66.872 2.207.33.566.538.598.613.598.321 0 .646-.129 1.099-.452.228-.163.46-.354.734-.58.264-.218.564-.466.888-.703.655-.481 1.456-.953 2.476-1.18 1.027-.228 2.201-.193 3.59.224a1 1 0 0 1-.574 1.916c-1.111-.334-1.937-.331-2.582-.188-.651.145-1.195.45-1.727.84-.27.198-.525.409-.798.634-.263.217-.55.454-.845.665-.594.423-1.332.824-2.261.824-1.175 0-1.905-.843-2.34-1.59-.447-.765-.774-1.745-1.05-2.604-.294-.916-.533-1.7-.813-2.274a2.1 2.1 0 0 0-.304-.486 1.3 1.3 0 0 0-.147.19c-.205.312-.417.822-.617 1.535-.397 1.41-.672 3.338-.858 5.323a90 90 0 0 0-.325 5.437A101 101 0 0 0 5 19.826L5 19.957V20a1 1 0 1 1-2 0"/></svg>