<svg xmlns="http://www.w3.org/2000/svg" fill="none" viewBox="0 0 24 24"><path fill="#090404" d="M6.017 3.354c.772-.487 1.649-.455 2.476-.001C10.716 4.57 12.25 5.26 13.871 5.66c1.627.402 3.402.525 6.129.525a1 1 0 0 1 0 2c-2.767 0-4.74-.122-6.608-.583-1.875-.463-3.588-1.252-5.86-2.497-.296-.162-.387-.1-.448-.06-.159.1-.408.383-.674 1.002-.52 1.213-.87 3.132-1.087 5.245-.214 2.085-.291 4.255-.314 5.91a85 85 0 0 0 .003 2.574l.003.147v.047l.002.002a1 1 0 0 1-1.993.157l-.007-.102v-.015l-.001-.041-.004-.156-.008-.584a87 87 0 0 1 .005-2.057c.023-1.686.102-3.92.325-6.087.22-2.137.589-4.316 1.238-5.829.32-.743.77-1.48 1.445-1.905"/></svg>