<svg xmlns="http://www.w3.org/2000/svg" fill="none" viewBox="0 0 24 24"><path fill="#090404" d="M20 3a1 1 0 0 1 0 2c-2.376 0-4.017.875-5.256 2.187-1.274 1.349-2.152 3.193-2.872 5.158-.358.976-.668 1.954-.973 2.9-.3.932-.6 1.843-.925 2.635-.32.781-.7 1.53-1.197 2.094C8.26 20.562 7.563 21 6.667 21c-.802 0-1.459-.296-1.954-.798-.464-.47-.741-1.073-.929-1.636-.19-.569-.317-1.19-.425-1.751-.113-.587-.203-1.101-.325-1.557a1 1 0 1 1 1.932-.516c.145.544.253 1.155.357 1.694.109.563.215 1.067.358 1.498.146.437.302.708.456.864.12.122.265.202.53.202.17 0 .357-.062.61-.349.273-.31.552-.812.848-1.53.291-.71.567-1.548.871-2.49.3-.93.623-1.953.998-2.976.746-2.035 1.737-4.19 3.296-5.842C14.885 4.125 17.043 3 20 3"/></svg>