<svg xmlns="http://www.w3.org/2000/svg" fill="none" viewBox="0 0 24 24"><path fill="#090404" d="M7.5 7c1.434 0 2.393 1.153 2.998 2.229.644 1.145 1.127 2.62 1.486 4.023.363 1.418.614 2.828.776 3.878a46 46 0 0 1 .231 1.732l.003.026v.007l.001.003a1 1 0 0 1-1.99.204v-.006l-.003-.02-.009-.088-.04-.338a44 44 0 0 0-.17-1.217 39 39 0 0 0-.736-3.685c-.344-1.346-.775-2.622-1.291-3.539C8.2 9.222 7.753 9 7.5 9s-.701.222-1.256 1.209c-.516.917-.947 2.193-1.291 3.539a39 39 0 0 0-.736 3.685 44 44 0 0 0-.21 1.555l-.01.087-.002.02v.007a1 1 0 0 1-1.99-.204L3 19l-.995-.102v-.01l.004-.026a19 19 0 0 1 .053-.458c.039-.308.097-.748.178-1.274.161-1.05.413-2.46.775-3.878.36-1.404.843-2.878 1.487-4.023C5.107 8.153 6.066 7 7.5 7"/><path fill="#090404" d="M15.246 8.343a1 1 0 0 1 1.508 1.314c-1.684 1.933-2.63 4.276-3.153 6.174-.26.943-.412 1.762-.498 2.34a15 15 0 0 0-.101.844l-.003.04v.008l-.013.101a1 1 0 0 1-1.984-.227v-.002l.001-.006v-.017l.005-.06.02-.211c.019-.182.05-.442.097-.764.096-.644.262-1.543.547-2.577.567-2.059 1.622-4.716 3.574-6.957"/><path fill="#090404" d="M20 7.5a1.5 1.5 0 1 0-3 0 1.5 1.5 0 0 0 3 0m2 0a3.5 3.5 0 1 1-7 0 3.5 3.5 0 0 1 7 0"/></svg>