<svg xmlns="http://www.w3.org/2000/svg" fill="none" viewBox="0 0 24 24"><path fill="#090404" d="M3 6v1.34l5.788 2.481A2 2 0 0 1 10 11.66v1.56a2 2 0 0 1-1.515 1.94L6 15.781V18h13v-2.219l-2.485-.622A2 2 0 0 1 15 13.22V11.78a2 2 0 0 1 1.515-1.94L19 9.219V6zm18 3.219a2 2 0 0 1-1.515 1.94L17 11.781v1.438l2.485.622A2 2 0 0 1 21 15.78V18a2 2 0 0 1-2 2H6a2 2 0 0 1-2-2v-2.219a2 2 0 0 1 1.515-1.94L8 13.219v-1.56L2.212 9.18A2 2 0 0 1 1 7.34V6a2 2 0 0 1 2-2h16a2 2 0 0 1 2 2z"/><path fill="#090404" d="M5 9.5V5a1 1 0 0 1 2 0v4.5a1 1 0 1 1-2 0"/></svg>