<svg xmlns="http://www.w3.org/2000/svg" fill="none" viewBox="0 0 24 24"><path fill="#090404" d="M12.089 5.925c3.069-1.166 5.506-.718 7.116.94 1.582 1.63 2.11 4.183 1.944 6.58-.167 2.414-1.055 4.937-2.636 6.616-.8.85-1.798 1.501-2.977 1.776-1.072.25-2.233.174-3.448-.265-1.215.438-2.375.515-3.446.265-1.18-.275-2.176-.927-2.976-1.777-1.581-1.68-2.47-4.202-2.637-6.616-.166-2.397.364-4.95 1.945-6.578 1.61-1.659 4.046-2.107 7.115-.94M17.77 8.26c-.932-.96-2.546-1.481-5.296-.336a1 1 0 0 1-.77 0C8.954 6.777 7.34 7.3 6.408 8.26c-1.028 1.06-1.53 2.944-1.384 5.047.145 2.086.914 4.126 2.098 5.384.582.618 1.246 1.03 1.975 1.2.722.168 1.585.117 2.603-.312l.095-.034a1 1 0 0 1 .681.034c1.02.43 1.882.48 2.605.311.729-.17 1.393-.58 1.976-1.2 1.184-1.257 1.952-3.297 2.097-5.383.146-2.103-.355-3.988-1.384-5.047"/><path fill="#090404" d="M8.202 2.038a1 1 0 0 1 1.349-.425c1.063.554 1.89 1.262 2.483 2.17.59.901.91 1.94 1.048 3.099a1 1 0 0 1-1.986.236c-.113-.939-.357-1.662-.736-2.241-.375-.575-.922-1.068-1.733-1.49a1 1 0 0 1-.425-1.349"/></svg>