<svg xmlns="http://www.w3.org/2000/svg" fill="none" viewBox="0 0 24 24"><path fill="#090404" fill-rule="evenodd" d="M9.679 3.292c1.068-1.723 3.575-1.723 4.642 0l.81 1.305q.172.279.351.555.328-.033.654-.071l1.527-.182c2.012-.24 3.577 1.718 2.894 3.627l-.517 1.447q-.11.309-.215.62.23.235.463.465l1.094 1.08c1.444 1.423.885 3.866-1.033 4.522l-1.454.498q-.31.106-.62.22-.04.325-.075.651l-.163 1.527c-.214 2.016-2.473 3.102-4.182 2.014l-1.297-.826a35 35 0 0 0-.558-.348q-.28.171-.558.348l-1.296.826c-1.71 1.088-3.969.002-4.183-2.014l-.162-1.527a35 35 0 0 0-.076-.652 35 35 0 0 0-.62-.219l-1.454-.498c-1.917-.656-2.476-3.1-1.033-4.523l1.094-1.079q.234-.23.463-.465-.104-.312-.215-.62l-.517-1.447C2.761 6.617 4.326 4.66 6.338 4.9l1.526.182q.327.04.654.071.178-.276.352-.555zm-2.065 3.19L6.17 6.312a1.307 1.307 0 0 0-1.388 1.737l.49 1.37a35 35 0 0 0 2.342-2.935M5.79 10.962a36 36 0 0 0 3.446-4.318c1.841.14 3.69.14 5.53 0a36 36 0 0 0 3.447 4.318 36 36 0 0 0-1.23 5.384A36.4 36.4 0 0 0 12 18.742a36.4 36.4 0 0 0-4.981-2.397 36 36 0 0 0-1.23-5.384m-1.136 1.166L3.617 13.15a1.306 1.306 0 0 0 .495 2.166l1.377.472a35 35 0 0 0-.836-3.66m2.57 5.834.154 1.445a1.31 1.31 0 0 0 2.005.964l1.226-.78a35 35 0 0 0-3.385-1.629m6.17 1.629 1.225.78c.82.523 1.903 0 2.005-.964l.154-1.445a35 35 0 0 0-3.385 1.629m5.119-3.803 1.377-.472a1.306 1.306 0 0 0 .495-2.166l-1.036-1.021a35 35 0 0 0-.836 3.659m.217-6.37.49-1.37a1.307 1.307 0 0 0-1.388-1.736l-1.445.172a35 35 0 0 0 2.343 2.934m-4.85-4.141a35 35 0 0 1-3.757 0l.765-1.235a1.31 1.31 0 0 1 2.226 0z" clip-rule="evenodd"/></svg>