<svg xmlns="http://www.w3.org/2000/svg" fill="none" viewBox="0 0 24 24"><path fill="#090404" d="M12 2c.924 0 1.717.448 2.34 1.075.446.448.831 1.014 1.161 1.654.707-.141 1.389-.192 2.017-.124.88.097 1.724.438 2.3 1.16.576.723.72 1.622.618 2.5-.072.628-.274 1.282-.57 1.94.552.463 1.018.965 1.356 1.5.473.747.733 1.62.527 2.52-.206.902-.819 1.575-1.57 2.044-.535.334-1.173.583-1.871.762-.02.72-.12 1.398-.328 1.994-.29.836-.81 1.584-1.642 1.985-.833.4-1.741.341-2.575.047-.596-.21-1.189-.553-1.764-.988-.575.434-1.167.777-1.762.988-.834.295-1.743.354-2.576-.047S6.308 19.86 6.02 19.025c-.207-.596-.31-1.273-.329-1.994-.697-.178-1.334-.428-1.87-.762-.75-.469-1.363-1.142-1.569-2.043s.054-1.774.527-2.522c.338-.533.803-1.036 1.354-1.5-.295-.657-.497-1.311-.57-1.938-.101-.88.043-1.778.62-2.5.576-.723 1.42-1.064 2.3-1.16.627-.07 1.309-.018 2.015.123.33-.64.717-1.206 1.162-1.654C10.283 2.448 11.076 2 12 2M7.71 17.347q.05.601.198 1.024c.173.5.407.734.621.837s.543.14 1.041-.037q.422-.15.923-.483-.15-.165-.3-.337a2.84 2.84 0 0 0-2.032-.978 14 14 0 0 1-.451-.026m8.58 0q-.224.016-.452.026c-.78.031-1.52.387-2.031.978q-.15.172-.302.337.501.334.924.483c.498.176.826.14 1.04.037s.449-.337.622-.837a4.2 4.2 0 0 0 .198-1.024M9.668 7.16a13 13 0 0 0-.122.425A4.84 4.84 0 0 1 7.15 10.59q-.198.105-.385.214.12.179.254.361a4.84 4.84 0 0 1 .855 3.747q-.04.22-.072.435.215.016.44.026a4.85 4.85 0 0 1 3.463 1.668q.147.17.294.327.148-.158.296-.327a4.84 4.84 0 0 1 3.463-1.668q.224-.01.44-.026a13 13 0 0 0-.073-.435 4.84 4.84 0 0 1 .855-3.747q.133-.181.253-.361a12 12 0 0 0-.383-.214 4.84 4.84 0 0 1-2.397-3.005q-.06-.217-.124-.424-.201.08-.407.168c-1.224.53-2.62.53-3.844 0q-.208-.09-.409-.169M5.145 11.98a4.2 4.2 0 0 0-.677.793c-.283.447-.32.775-.268 1.007.053.232.23.511.679.791q.378.238.953.421.034-.221.076-.445a2.84 2.84 0 0 0-.502-2.197q-.135-.185-.261-.37m13.709 0q-.127.184-.261.37a2.84 2.84 0 0 0-.502 2.197q.041.225.075.445.576-.183.955-.42c.449-.28.625-.56.678-.792s.015-.56-.268-1.007a4.2 4.2 0 0 0-.677-.793M7.74 6.627a4.2 4.2 0 0 0-1.04-.033c-.527.057-.807.233-.955.419s-.257.498-.196 1.023q.05.444.265 1.008.195-.111.397-.219a2.85 2.85 0 0 0 1.405-1.762q.059-.222.124-.436m9.56-.033a4.2 4.2 0 0 0-1.042.033q.065.214.126.436a2.84 2.84 0 0 0 1.405 1.762q.201.107.396.218.214-.563.265-1.007c.061-.525-.047-.837-.195-1.023s-.43-.362-.955-.42M12 4c-.238 0-.55.11-.923.485q-.317.317-.623.835.209.083.42.174c.716.31 1.536.31 2.253 0q.21-.09.417-.174a4.2 4.2 0 0 0-.622-.835C12.549 4.11 12.238 4 12 4"/></svg>