<svg xmlns="http://www.w3.org/2000/svg" fill="none" viewBox="0 0 24 24"><path fill="#090404" d="M5.588 2.7a1 1 0 0 1 1.908.6c-.272.863-.308 1.59-.164 2.257q.073.336.215.68c.541-.869 1.165-1.55 1.861-2.05a1 1 0 1 1 1.165 1.626c-.706.506-1.419 1.392-2.018 2.844-.103.249-.301.446-.55.546-2.768 1.118-3.529 2.612-3.504 3.93.028 1.461 1.015 3.143 2.623 4.528 1.593 1.372 3.598 2.277 5.34 2.336.858.03 1.624-.146 2.26-.536.632-.386 1.204-1.024 1.618-2.036l.043-.092a1 1 0 0 1 .511-.459c1.356-.541 2.062-1.359 2.381-2.26.332-.934.29-2.083-.102-3.31a1 1 0 0 1 1.905-.609c.48 1.505.602 3.122.082 4.588-.494 1.392-1.53 2.539-3.14 3.281-.548 1.162-1.316 2.028-2.253 2.602-1.033.632-2.201.87-3.371.83-2.313-.078-4.738-1.234-6.579-2.82-1.825-1.571-3.275-3.743-3.318-6.005-.04-2.11 1.137-3.984 3.632-5.303a6.3 6.3 0 0 1-.756-1.89c-.228-1.058-.148-2.14.21-3.279"/><path fill="#090404" d="M14 10V4a1 1 0 1 1 2 0v6a1 1 0 1 1-2 0"/><path fill="#090404" d="M16.793 7.793a1 1 0 1 1 1.414 1.414l-2.5 2.5a1 1 0 0 1-1.414 0l-2.5-2.5a1 1 0 1 1 1.414-1.414L15 9.586z"/></svg>