<svg xmlns="http://www.w3.org/2000/svg" fill="none" viewBox="0 0 24 24"><path fill="#090404" d="M11 20.5V18a1 1 0 1 1 2 0v2.5a1 1 0 1 1-2 0"/><path fill="#090404" d="M11 6V3.5a1 1 0 1 1 2 0V6a1 1 0 1 1-2 0"/><path fill="#090404" d="M3.634 7.289A1 1 0 0 1 5 6.922l2.098 1.212a1 1 0 1 1-1 1.732L4 8.655a1 1 0 0 1-.366-1.366"/><path fill="#090404" d="M6.098 14.134a1 1 0 0 1 1 1.732L5 17.077a1 1 0 0 1-1-1.731z"/><path fill="#090404" d="M16.536 14.5a1 1 0 0 1 1.366-.366L20 15.346a1 1 0 1 1-1 1.731l-2.098-1.21a1 1 0 0 1-.366-1.367"/><path fill="#090404" d="M19 6.922a1 1 0 0 1 1 1.733l-2.098 1.21a1 1 0 0 1-1-1.73z"/><path fill="#090404" d="M21 10a1 1 0 0 1-2 0V8.085L17.252 7.1a1 1 0 1 1 .98-1.742l1.875 1.055c.551.31.893.892.893 1.524z"/><path fill="#090404" d="M21 16.061a1.75 1.75 0 0 1-.893 1.526l-1.875 1.055a1 1 0 0 1-.98-1.744L19 15.915V14a1 1 0 1 1 2 0z"/><path fill="#090404" d="M13.69 18.903a1 1 0 1 1 .98 1.742l-1.812 1.02c-.532.3-1.183.3-1.715 0l-1.812-1.02a1 1 0 1 1 .98-1.742l1.689.95z"/><path fill="#090404" d="M3 14a1 1 0 1 1 2 0v1.915l1.748.983a1 1 0 0 1-.98 1.744l-1.876-1.055A1.75 1.75 0 0 1 3 16.06z"/><path fill="#090404" d="M3 10V7.938c0-.631.34-1.214.892-1.524l1.876-1.055a1 1 0 1 1 .98 1.742L5 8.085V10a1 1 0 0 1-2 0"/><path fill="#090404" d="M11.348 2.236a1.75 1.75 0 0 1 1.305 0l.205.1 1.812 1.018a1 1 0 0 1-.98 1.743L12 4.147l-1.688.95a1 1 0 1 1-.98-1.743l1.81-1.019z"/><path fill="#090404" d="M11 14v-1.423l-1.232-.71a1 1 0 0 1 1-1.733l1.231.712 1.233-.712a1 1 0 0 1 1 1.732L13 12.577V14a1 1 0 0 1-2 0"/></svg>