<svg xmlns="http://www.w3.org/2000/svg" fill="none" viewBox="0 0 24 24"><path fill="#090404" d="M4.75 4a.75.75 0 1 0-1.5 0 .75.75 0 0 0 1.5 0m.5 0a1.25 1.25 0 1 1-2.5 0 1.25 1.25 0 0 1 2.5 0"/><path fill="#090404" d="M4.01 3a1 1 0 0 1 0 2H4a1 1 0 0 1 0-2z"/><path fill="#090404" d="M20.75 4a.75.75 0 1 0-1.5 0 .75.75 0 0 0 1.5 0m.5 0a1.25 1.25 0 1 1-2.5 0 1.25 1.25 0 0 1 2.5 0"/><path fill="#090404" d="M20.01 3a1 1 0 1 1 0 2H20a1 1 0 1 1 0-2z"/><path fill="#090404" d="M4.75 20a.75.75 0 1 0-1.5 0 .75.75 0 0 0 1.5 0m.5 0a1.25 1.25 0 1 1-2.5 0 1.25 1.25 0 0 1 2.5 0"/><path fill="#090404" d="M4.01 19a1 1 0 1 1 0 2H4a1 1 0 1 1 0-2z"/><path fill="#090404" d="M20.75 20a.75.75 0 1 0-1.5 0 .75.75 0 0 0 1.5 0m.5 0a1.25 1.25 0 1 1-2.5 0 1.25 1.25 0 0 1 2.5 0"/><path fill="#090404" d="M20.01 19a1 1 0 1 1 0 2H20a1 1 0 1 1 0-2z"/><path fill="#090404" d="M12 7.437 8 9.724v4.552l4 2.287 4-2.287V9.724zm6 6.84c0 .717-.385 1.38-1.008 1.737l-4 2.285a2 2 0 0 1-1.984 0l-4-2.285A2 2 0 0 1 6 14.276V9.724c0-.718.385-1.382 1.008-1.738l4-2.285a2 2 0 0 1 1.984 0l4 2.285A2 2 0 0 1 18 9.724z"/><path fill="#090404" d="M17.496 10.011 13 12.581v5.133h-2V12.58l-4.496-2.569.992-1.736L12 10.848l4.504-2.573z"/></svg>