<svg xmlns="http://www.w3.org/2000/svg" fill="none" viewBox="0 0 24 24"><path fill="#090404" d="M3 19v-3a1 1 0 1 1 2 0v3h3a1 1 0 1 1 0 2H5a2 2 0 0 1-2-2"/><path fill="#090404" d="M19 19v-3a1 1 0 1 1 2 0v3a2 2 0 0 1-2 2h-3a1 1 0 1 1 0-2z"/><path fill="#090404" d="M3 8V5a2 2 0 0 1 2-2h3a1 1 0 0 1 0 2H5v3a1 1 0 0 1-2 0"/><path fill="#090404" d="M19 8V5h-3a1 1 0 1 1 0-2h3a2 2 0 0 1 2 2v3a1 1 0 1 1-2 0"/><path fill="#090404" d="M11 15.5v-2.92l-2.496-1.426a1 1 0 1 1 .992-1.736L12 10.848l2.504-1.43a1 1 0 1 1 .992 1.736L13 12.58V15.5a1 1 0 1 1-2 0"/><path fill="#090404" d="M9.5 10.58v2.84l2.5 1.427 2.5-1.427v-2.84L12 9.152zm7 3.13a1.5 1.5 0 0 1-.756 1.302l-3 1.714a1.5 1.5 0 0 1-1.488 0l-3-1.714A1.5 1.5 0 0 1 7.5 13.71v-3.42a1.5 1.5 0 0 1 .756-1.302l3-1.715.178-.086a1.5 1.5 0 0 1 1.132 0l.178.086 3 1.715a1.5 1.5 0 0 1 .756 1.302z"/></svg>