<svg xmlns="http://www.w3.org/2000/svg" fill="none" viewBox="0 0 24 24"><path fill="#090404" d="M11.121 14.948a1.5 1.5 0 0 1 1.866.087L16.376 18H21V7H3v11h4.624l3.389-2.965zM23 18a2 2 0 0 1-2 2h-4.624c-.485 0-.953-.176-1.317-.495L12 16.828l-3.059 2.677A2 2 0 0 1 7.624 20H3a2 2 0 0 1-2-2V7a2 2 0 0 1 2-2h18a2 2 0 0 1 2 2z"/><path fill="#090404" d="M8.25 11.5a.75.75 0 1 0-1.5 0 .75.75 0 0 0 1.5 0m2 0a2.75 2.75 0 1 1-5.5 0 2.75 2.75 0 0 1 5.5 0"/><path fill="#090404" d="M17.25 11.5a.75.75 0 1 0-1.5 0 .75.75 0 0 0 1.5 0m2 0a2.75 2.75 0 1 1-5.5 0 2.75 2.75 0 0 1 5.5 0"/></svg>