<svg xmlns="http://www.w3.org/2000/svg" fill="none" viewBox="0 0 24 24"><path fill="#090404" fill-rule="evenodd" d="M11.45 2.15a2.2 2.2 0 0 1 1.968 1.216l3.635 7.27a7.2 7.2 0 0 0 1.58-3.372 2.2 2.2 0 1 1 4.333.772 11.62 11.62 0 0 1-3.841 6.745l1.442 2.885a2.2 2.2 0 0 1-3.935 1.967l-1.325-2.65c-1.187.409-2.462.63-3.788.63-1.37 0-2.685-.236-3.905-.671l-1.346 2.691a2.2 2.2 0 1 1-3.935-1.967l1.484-2.97a11.7 11.7 0 0 1-2.556-3.232A2.2 2.2 0 0 1 5.14 9.39q.326.61.758 1.143l3.583-7.166A2.2 2.2 0 0 1 11.45 2.15M9.606 12.958c.61.167 1.25.256 1.913.256a7.2 7.2 0 0 0 1.791-.224l-1.86-3.72z" clip-rule="evenodd"/></svg>