<svg xmlns="http://www.w3.org/2000/svg" fill="none" viewBox="0 0 24 24"><path fill="#090404" d="M19 10.6c0-.297-.001-.459-.01-.576l-.003-.012-.011-.001A8 8 0 0 0 18.4 10H5.6a8 8 0 0 0-.588.012l-.001.012C5 10.141 5 10.304 5 10.6v7.8c0 .297.001.46.01.576l.002.011.012.002c.117.01.28.011.576.011h12.8c.297 0 .46-.001.576-.01l.011-.003.002-.011c.01-.117.011-.28.011-.576zm2 7.8c0 .264.001.522-.017.739a2 2 0 0 1-.2.77 2 2 0 0 1-.875.873 2 2 0 0 1-.77.201c-.216.018-.474.017-.738.017H5.6c-.264 0-.522.001-.739-.017a2 2 0 0 1-.77-.2 2 2 0 0 1-.873-.875 2 2 0 0 1-.201-.77C2.999 18.923 3 18.665 3 18.4v-7.8c0-.264-.001-.522.017-.739.018-.228.063-.498.2-.77a2 2 0 0 1 .875-.873c.271-.138.54-.183.77-.201C5.077 7.999 5.335 8 5.6 8h12.8c.264 0 .522-.001.739.017.228.018.498.063.77.2a2 2 0 0 1 .796.737l.077.138.087.203c.072.2.1.395.114.566.018.217.017.475.017.739z"/><path fill="#090404" d="M5 8V4a2 2 0 0 1 2-2h3.086a2 2 0 0 1 1.414.586L12.914 4H17a2 2 0 0 1 2 2v2a1 1 0 1 1-2 0V6h-4.086a2 2 0 0 1-1.414-.586L10.086 4H7v4a1 1 0 0 1-2 0"/><path fill="#090404" d="M12 12a1 1 0 1 1 0 2H8a1 1 0 1 1 0-2z"/></svg>