<svg xmlns="http://www.w3.org/2000/svg" fill="none" viewBox="0 0 24 24"><path fill="#090404" d="M3 18.4V8a1 1 0 1 1 2 0v10.4c0 .297.001.46.01.576l.002.011.012.002c.117.01.28.011.576.011h12.8c.297 0 .46-.001.576-.01l.011-.003.002-.011c.01-.117.011-.28.011-.576V8a1 1 0 1 1 2 0v10.4c0 .264.001.522-.017.739a2 2 0 0 1-.2.77 2 2 0 0 1-.875.873 2 2 0 0 1-.77.201c-.216.018-.474.017-.738.017H5.6c-.264 0-.522.001-.739-.017a2 2 0 0 1-.77-.2 2 2 0 0 1-.873-.875 2 2 0 0 1-.201-.77C2.999 18.923 3 18.665 3 18.4"/><path fill="#090404" d="M21 3a1 1 0 0 1 1 1v4a1 1 0 0 1-1 1H3a1 1 0 0 1-1-1V4a1 1 0 0 1 1-1zM4 7h16V5H4z"/><path fill="#090404" d="M13.293 11.293a1 1 0 1 1 1.414 1.414L13.414 14l1.293 1.293a1 1 0 1 1-1.414 1.414L12 15.414l-1.293 1.293a1 1 0 1 1-1.414-1.414L10.586 14l-1.293-1.293a1 1 0 1 1 1.414-1.414L12 12.586z"/></svg>