<svg xmlns="http://www.w3.org/2000/svg" fill="none" viewBox="0 0 24 24"><path fill="#090404" d="M20 7.984c-.794.286-1.817.515-2.969.682a.05.05 0 0 0-.028.015L17 8.686v9.962c1.119-.175 1.987-.395 2.554-.628.22-.091.362-.17.446-.229zM7 8.686q0-.001-.003-.005a.05.05 0 0 0-.028-.014C5.817 8.501 4.795 8.273 4 7.988v9.803c.085.058.226.138.446.229.567.233 1.435.453 2.554.628zm2 9.986c0 1.18-1.037 2.149-2.26 1.96-1.21-.185-2.272-.44-3.056-.763-.389-.16-.767-.36-1.064-.619C2.327 18.994 2 18.576 2 18V6c0-.465.217-.83.448-1.08.226-.245.511-.434.794-.582C3.81 4.04 4.568 3.8 5.42 3.61 7.138 3.23 9.464 3 12 3s4.862.229 6.581.611c.851.19 1.608.429 2.177.727.283.148.568.337.794.582.23.25.448.615.448 1.08v12c0 .576-.327.994-.62 1.25-.297.26-.675.459-1.064.62-.784.323-1.846.577-3.055.763C16.037 20.82 15 19.85 15 18.672V8.685c0-1.028.77-1.857 1.744-1.998 1.2-.174 2.141-.405 2.756-.65l.09-.039c-.343-.146-.825-.297-1.444-.435C16.609 5.221 14.435 5 12 5s-4.608.221-6.146.563c-.623.139-1.107.29-1.45.437q.045.02.095.041c.614.244 1.555.473 2.756.646C8.23 6.829 9 7.658 9 8.686z"/><path fill="#090404" d="M12 15c1.27 0 2.487.053 3.597.161l.996.097-.195 1.991-.995-.097A36 36 0 0 0 12 17c-1.2 0-2.341.057-3.375.152l-.996.092-.184-1.991.996-.092A39 39 0 0 1 12 15"/></svg>