<svg xmlns="http://www.w3.org/2000/svg" fill="none" viewBox="0 0 24 24"><path fill="#090404" d="M13 21a1 1 0 1 0 0-2 1 1 0 0 0 0 2"/><path fill="#090404" d="M21 11a1 1 0 1 0-2 0 1 1 0 0 0 2 0"/><path fill="#090404" d="M19.93 14.268a1 1 0 1 1-1 1.732 1 1 0 0 1 1-1.732"/><path fill="#090404" d="M17.368 19.294a1 1 0 1 0-1-1.732 1 1 0 0 0 1 1.732"/><path fill="#090404" d="M18.927 8a1 1 0 1 1-1-1.732 1 1 0 0 1 1 1.732"/><path fill="#090404" d="M3 12a9 9 0 0 1 12.375-8.346 1 1 0 0 1-.75 1.855 7 7 0 0 0-5.687 12.788 1 1 0 0 1-.876 1.798A9 9 0 0 1 3 12"/><path fill="#090404" d="M8 15a1 1 0 1 1 2 0v5a1 1 0 0 1-1 1H4a1 1 0 1 1 0-2h4z"/></svg>