<svg xmlns="http://www.w3.org/2000/svg" fill="none" viewBox="0 0 24 24"><path fill="#090404" d="M5.896 3.453a1.75 1.75 0 0 1 2.341.12l3.47 3.47a1 1 0 1 1-1.414 1.414L7 5.164 3.707 8.457a1 1 0 0 1-1.414-1.414l3.47-3.47z"/><path fill="#090404" d="M20.293 15.543a1 1 0 1 1 1.414 1.414l-3.47 3.47a1.75 1.75 0 0 1-2.474 0l-3.47-3.47a1 1 0 1 1 1.414-1.414L17 18.836z"/><path fill="#090404" d="M6 20V5a1 1 0 0 1 2 0v15a1 1 0 1 1-2 0"/><path fill="#090404" d="M16 19V4a1 1 0 1 1 2 0v15a1 1 0 1 1-2 0"/></svg>