<svg xmlns="http://www.w3.org/2000/svg" fill="none" viewBox="0 0 24 24"><path fill="#090404" d="M18 4a1 1 0 1 1 2 0v4a1 1 0 0 1-1 1h-4a1 1 0 1 1 0-2h3z"/><path fill="#090404" d="M3.988 20v-4a1 1 0 0 1 1-1h4a1 1 0 1 1 0 2h-3v3a1 1 0 1 1-2 0"/><path fill="#090404" d="M19 12a1 1 0 0 1 2 0 9 9 0 0 1-9 9 9.14 9.14 0 0 1-7.3-3.644 1 1 0 0 1 1.6-1.197A7.14 7.14 0 0 0 12 19a7 7 0 0 0 7-7"/><path fill="#090404" d="M3 12a9 9 0 0 1 9-9 9.14 9.14 0 0 1 7.241 3.563 1 1 0 0 1-1.589 1.216A7.14 7.14 0 0 0 12 5a7 7 0 0 0-7 7 1 1 0 1 1-2 0"/></svg>