<svg xmlns="http://www.w3.org/2000/svg" fill="none" viewBox="0 0 24 24"><path fill="#090404" d="M16.543 2.293a1 1 0 0 1 1.414 0l2.647 2.646a1.5 1.5 0 0 1 0 2.121l-2.647 2.647a1 1 0 1 1-1.414-1.414L18.836 6l-2.293-2.293a1 1 0 0 1 0-1.414"/><path fill="#090404" d="M6.043 14.293a1 1 0 1 1 1.414 1.414L5.164 18l2.293 2.293a1 1 0 1 1-1.414 1.414L3.397 19.06a1.5 1.5 0 0 1 0-2.122z"/><path fill="#090404" d="M19 17v-4a1 1 0 1 1 2 0v4a2 2 0 0 1-2 2H5a1 1 0 1 1 0-2z"/><path fill="#090404" d="M3 11V7a2 2 0 0 1 2-2h14a1 1 0 1 1 0 2H5v4a1 1 0 1 1-2 0"/></svg>