<svg xmlns="http://www.w3.org/2000/svg" fill="none" viewBox="0 0 24 24"><path fill="#090404" d="M11.987 4.639c0-1.266 1.458-1.945 2.423-1.183l.092.078 8.01 7.361a1.5 1.5 0 0 1 0 2.21l-8.01 7.36c-.962.884-2.515.202-2.515-1.104v-2.853c-3.418.054-5.326.392-6.513.932-1.196.545-1.733 1.325-2.406 2.637-.558 1.088-2.09.584-2.079-.515l.016-.762c.114-3.754.808-6.612 2.664-8.525 1.83-1.886 4.588-2.649 8.318-2.76zm2 3.86a1 1 0 0 1-1 1c-4.115 0-6.484.727-7.883 2.169-1.013 1.045-1.64 2.59-1.928 4.88.406-.349.885-.662 1.47-.928 1.721-.783 4.262-1.12 8.341-1.12a1 1 0 0 1 1 1v2.722L20.76 12l-6.772-6.223z"/></svg>