<svg xmlns="http://www.w3.org/2000/svg" fill="none" viewBox="0 0 24 24"><path fill="#090404" d="M7.043 12.293a1 1 0 1 1 1.414 1.414L5.164 17l3.293 3.293a1 1 0 0 1-1.414 1.414l-3.47-3.47a1.75 1.75 0 0 1 0-2.474z"/><path fill="#090404" d="M15.543 2.293a1 1 0 0 1 1.414 0l3.47 3.47a1.75 1.75 0 0 1 0 2.474l-3.47 3.47a1 1 0 1 1-1.414-1.414L18.836 7l-3.293-3.293a1 1 0 0 1 0-1.414"/><path fill="#090404" d="M20 16a1 1 0 1 1 0 2H5a1 1 0 1 1 0-2z"/><path fill="#090404" d="M19 6a1 1 0 1 1 0 2H4a1 1 0 0 1 0-2z"/></svg>