<svg xmlns="http://www.w3.org/2000/svg" fill="none" viewBox="0 0 24 24"><path fill="#090404" d="M3.227 12 10 18.222V15.5a1 1 0 0 1 1-1c4.258 0 6.844.367 8.572 1.23.482.242.889.519 1.24.822-.28-2.234-.883-3.763-1.856-4.808C17.566 10.251 15.186 9.5 11 9.5a1 1 0 0 1-1-1V5.777zM12 19.361c0 1.306-1.553 1.988-2.515 1.105l-8.01-7.362a1.5 1.5 0 0 1 0-2.208l8.01-7.362.092-.078C10.542 2.694 12 3.373 12 4.639v2.877c3.8.112 6.591.901 8.42 2.865C22.386 12.493 23 15.716 23 20a1 1 0 0 1-1.895.447c-.745-1.491-1.248-2.338-2.428-2.927-1.168-.584-3.088-.954-6.677-1.011z"/></svg>