<svg xmlns="http://www.w3.org/2000/svg" fill="none" viewBox="0 0 24 24"><path fill="#090404" d="M10.896 2.453a1.75 1.75 0 0 1 2.341.12l2.47 2.47a1 1 0 0 1-1.414 1.414L12 4.164 9.707 6.457a1 1 0 0 1-1.414-1.414l2.47-2.47z"/><path fill="#090404" d="M5.043 8.293a1 1 0 1 1 1.414 1.414L4.164 12l2.293 2.293a1 1 0 0 1-1.414 1.414l-2.47-2.47a1.75 1.75 0 0 1 0-2.474z"/><path fill="#090404" d="M17.543 8.293a1 1 0 0 1 1.414 0l2.47 2.47a1.75 1.75 0 0 1 0 2.474l-2.47 2.47a1 1 0 1 1-1.414-1.414L19.836 12l-2.293-2.293a1 1 0 0 1 0-1.414"/><path fill="#090404" d="M14.293 17.543a1 1 0 1 1 1.414 1.414l-2.47 2.47a1.75 1.75 0 0 1-2.474 0l-2.47-2.47a1 1 0 1 1 1.414-1.414L12 19.836z"/><path fill="#090404" d="M11 20v-7H4a1 1 0 1 1 0-2h7V4a1 1 0 1 1 2 0v7h7a1 1 0 1 1 0 2h-7v7a1 1 0 1 1-2 0"/></svg>