<svg xmlns="http://www.w3.org/2000/svg" fill="none" viewBox="0 0 24 24"><path fill="#090404" d="M11.37 12.974a1 1 0 0 1 1.337.069l2.5 2.5a1 1 0 1 1-1.414 1.414L12 15.164l-1.793 1.793a1 1 0 1 1-1.414-1.414l2.5-2.5z"/><path fill="#090404" d="M13.793 7.043a1 1 0 1 1 1.414 1.414l-2.5 2.5a1 1 0 0 1-1.414 0l-2.5-2.5a1 1 0 1 1 1.414-1.414L12 8.836z"/><path fill="#090404" d="M11 20v-5a1 1 0 1 1 2 0v5a1 1 0 1 1-2 0"/><path fill="#090404" d="M11 9V4a1 1 0 1 1 2 0v5a1 1 0 1 1-2 0"/><path fill="#090404" d="M2 18V6a2 2 0 0 1 2-2h3a1 1 0 0 1 0 2H4v12h3a1 1 0 1 1 0 2H4a2 2 0 0 1-2-2"/><path fill="#090404" d="M20 18V6h-3a1 1 0 1 1 0-2h3a2 2 0 0 1 2 2v12a2 2 0 0 1-2 2h-3a1 1 0 1 1 0-2z"/></svg>