<svg xmlns="http://www.w3.org/2000/svg" fill="none" viewBox="0 0 24 24"><path fill="#090404" d="M4 4a1 1 0 0 1 2 0v3h2.75a1 1 0 0 1 0 2H5.5A1.5 1.5 0 0 1 4 7.5z"/><path fill="#090404" d="M20.012 20a1 1 0 1 1-2 0v-3h-3a1 1 0 1 1 0-2h3.5a1.5 1.5 0 0 1 1.5 1.5z"/><path fill="#090404" d="M3 12a1 1 0 1 1 2 0 7 7 0 0 0 7 7 7.14 7.14 0 0 0 5.7-2.84 1 1 0 0 1 1.6 1.196A9.14 9.14 0 0 1 12 21a9 9 0 0 1-9-9"/><path fill="#090404" d="M19 12a7 7 0 0 0-7-7 7.14 7.14 0 0 0-5.7 2.84 1 1 0 0 1-1.6-1.196A9.14 9.14 0 0 1 12 3a9 9 0 0 1 9 9 1 1 0 1 1-2 0"/></svg>