<svg xmlns="http://www.w3.org/2000/svg" fill="none" viewBox="0 0 24 24"><path fill="#090404" d="M10.293 1.293a1 1 0 0 1 1.414 0l3 3a1 1 0 0 1 0 1.414l-3 3a1 1 0 1 1-1.414-1.414L12.586 5l-2.293-2.293a1 1 0 0 1 0-1.414"/><path fill="#090404" d="M12.293 15.293a1 1 0 1 1 1.414 1.414L11.414 19l2.293 2.293a1 1 0 1 1-1.414 1.414l-3-3a1 1 0 0 1 0-1.414z"/><path fill="#090404" d="M20 12a5.98 5.98 0 0 0-1.714-4.198 1 1 0 0 1 1.428-1.4A8 8 0 0 1 14 20.001h-3A1 1 0 0 1 11 18h3a6 6 0 0 0 6-6"/><path fill="#090404" d="M2 12a8 8 0 0 1 8-8h3a1 1 0 1 1 0 2h-3a6 6 0 0 0-4.286 10.2 1 1 0 1 1-1.428 1.399A7.98 7.98 0 0 1 2 12"/></svg>