<svg xmlns="http://www.w3.org/2000/svg" fill="none" viewBox="0 0 24 24"><path fill="#090404" d="M3 13V6a2 2 0 0 1 2-2h10a1 1 0 1 1 0 2H5v7a1 1 0 1 1-2 0"/><path fill="#090404" d="M12.293 1.293a1 1 0 0 1 1.414 0l3 3a1 1 0 0 1 0 1.414l-3 3a1 1 0 1 1-1.414-1.414L14.586 5l-2.293-2.293a1 1 0 0 1 0-1.414"/><path fill="#090404" d="M19 18v-7a1 1 0 1 1 2 0v7a2 2 0 0 1-2 2H9a1 1 0 1 1 0-2z"/><path fill="#090404" d="M10.293 15.293a1 1 0 1 1 1.414 1.414L9.414 19l2.293 2.293a1 1 0 1 1-1.414 1.414l-3-3a1 1 0 0 1 0-1.414z"/></svg>