<svg xmlns="http://www.w3.org/2000/svg" fill="none" viewBox="0 0 24 24"><path fill="#090404" d="M16.293 2.293a1 1 0 0 1 1.414 0l3 3a1 1 0 0 1 0 1.414l-3 3a1 1 0 1 1-1.414-1.414L18.586 6l-2.293-2.293a1 1 0 0 1 0-1.414"/><path fill="#090404" d="M6.293 14.293a1 1 0 1 1 1.414 1.414L5.414 18l2.293 2.293a1 1 0 1 1-1.414 1.414l-3-3a1 1 0 0 1 0-1.414z"/><path fill="#090404" d="M19 15v-2a1 1 0 1 1 2 0v2a1 1 0 1 1-2 0"/><path fill="#090404" d="M3 11V7a2 2 0 0 1 2-2h1a1 1 0 0 1 0 2H5v4a1 1 0 1 1-2 0"/><path fill="#090404" d="M19 5a1 1 0 1 1 0 2h-8a1 1 0 1 1 0-2z"/><path fill="#090404" d="M18 17a1 1 0 1 1 0 2H5a1 1 0 1 1 0-2z"/><path fill="#090404" d="M2.293 2.293a1 1 0 0 1 1.414 0l18 18a1 1 0 1 1-1.414 1.414l-18-18a1 1 0 0 1 0-1.414"/></svg>