<svg xmlns="http://www.w3.org/2000/svg" fill="none" viewBox="0 0 24 24"><path fill="#090404" d="M10.293 8.457a1 1 0 1 0 1.414-1.414l-3.47-3.47a1.75 1.75 0 0 0-2.474 0l-3.47 3.47a1 1 0 1 0 1.414 1.414L7 5.164z"/><path fill="#090404" d="M15.896 20.547a1.75 1.75 0 0 0 2.341-.12l3.47-3.47a1 1 0 1 0-1.414-1.414L17 18.836l-3.293-3.293a1 1 0 1 0-1.414 1.414l3.47 3.47z"/><path fill="#090404" d="M6 5v15a1 1 0 1 0 2 0V5a1 1 0 0 0-2 0"/><path fill="#090404" d="M16 4v15a1 1 0 1 0 2 0V4a1 1 0 1 0-2 0"/></svg>