<svg xmlns="http://www.w3.org/2000/svg" fill="none" viewBox="0 0 24 24"><path fill="#090404" d="M4 9V5a1 1 0 0 1 1-1h4a1 1 0 0 1 0 2H6v3a1 1 0 0 1-2 0"/><path fill="#090404" d="M18 9V6h-3a1 1 0 1 1 0-2h4a1 1 0 0 1 1 1v4a1 1 0 1 1-2 0"/><path fill="#090404" d="M18 15a1 1 0 1 1 2 0v4a1 1 0 0 1-1 1h-4a1 1 0 1 1 0-2h3z"/><path fill="#090404" d="M4 15a1 1 0 1 1 2 0v3h3a1 1 0 1 1 0 2H5a1 1 0 0 1-1-1z"/><path fill="#090404" d="M4.793 4.793a1 1 0 0 1 1.414 0l4 4a1 1 0 0 1-1.414 1.414l-4-4a1 1 0 0 1 0-1.414"/><path fill="#090404" d="M17.793 4.793a1 1 0 1 1 1.414 1.414l-4 4a1 1 0 1 1-1.414-1.414z"/><path fill="#090404" d="M13.793 13.793a1 1 0 0 1 1.414 0l4 4a1 1 0 1 1-1.414 1.414l-4-4a1 1 0 0 1 0-1.414"/><path fill="#090404" d="M8.793 13.793a1 1 0 1 1 1.414 1.414l-4 4a1 1 0 1 1-1.414-1.414z"/></svg>