<svg xmlns="http://www.w3.org/2000/svg" fill="none" viewBox="0 0 24 24"><path fill="#090404" d="M17.726 3.007c.885-.046 1.79.149 2.454.812.664.664.859 1.57.813 2.454-.046.886-.335 1.866-.782 2.865-.9 2.004-2.53 4.29-4.657 6.417s-4.412 3.757-6.417 4.656c-.999.448-1.979.736-2.864.782s-1.79-.149-2.454-.812c-.663-.664-.859-1.57-.813-2.454.047-.886.335-1.866.783-2.865.898-2.004 2.529-4.29 4.656-6.417s4.412-3.757 6.417-4.656c.999-.448 1.979-.736 2.864-.782m.104 1.997c-.553.029-1.281.22-2.15.61-1.73.776-3.82 2.246-5.82 4.246s-3.47 4.09-4.246 5.82c-.39.87-.582 1.598-.61 2.15-.03.553.106.814.229.937.123.122.384.258.937.23.552-.03 1.28-.222 2.149-.611 1.73-.776 3.82-2.246 5.82-4.246s3.47-4.09 4.246-5.82c.39-.87.582-1.598.61-2.15.03-.553-.106-.814-.229-.937-.122-.122-.383-.258-.936-.23"/><path fill="#090404" d="M6.273 3.007c.885.046 1.865.334 2.864.782 2.005.899 4.29 2.529 6.417 4.656 2.128 2.127 3.758 4.413 4.656 6.417.448 1 .736 1.98.783 2.865.046.884-.15 1.79-.813 2.454-.663.663-1.57.858-2.454.812s-1.865-.334-2.864-.782c-2.005-.899-4.29-2.53-6.417-4.656-2.127-2.128-3.758-4.413-4.656-6.417-.448-1-.736-1.98-.783-2.865-.046-.884.15-1.79.813-2.454.663-.663 1.57-.858 2.454-.812M6.17 5.004c-.553-.029-.814.107-.937.23-.123.122-.258.383-.23.936.03.552.221 1.28.61 2.15.777 1.73 2.247 3.82 4.247 5.82s4.09 3.47 5.82 4.246c.869.39 1.597.581 2.15.61s.814-.107.936-.23c.123-.122.259-.383.23-.936-.03-.552-.221-1.28-.61-2.15-.777-1.73-2.246-3.82-4.247-5.82s-4.09-3.47-5.82-4.246c-.869-.39-1.597-.581-2.15-.61"/></svg>