<svg xmlns="http://www.w3.org/2000/svg" fill="none" viewBox="0 0 24 24"><path fill="#090404" d="M8.998 18.5c0-.666-.717-1.5-2-1.5s-2 .834-2 1.5.717 1.5 2 1.5 2-.834 2-1.5m10-3c0-.665-.717-1.5-2-1.5s-2 .835-2 1.5c0 .666.717 1.5 2 1.5s2-.834 2-1.5m-8 3c0 2.096-1.97 3.5-4 3.5s-4-1.404-4-3.5 1.97-3.5 4-3.5 4 1.404 4 3.5m10-3c0 2.096-1.97 3.5-4 3.5s-4-1.404-4-3.5 1.97-3.5 4-3.5 4 1.404 4 3.5"/><path fill="#090404" d="m18.996 4.344-8 2.4V18.5h-2V6.744a2 2 0 0 1 1.426-1.915l8-2.4a2 2 0 0 1 2.574 1.915V15.5h-2z"/></svg>