<svg xmlns="http://www.w3.org/2000/svg" fill="none" viewBox="0 0 24 24"><path fill="#090404" d="M13.5 10.5a1.5 1.5 0 1 0-3 0 1.5 1.5 0 0 0 3 0m2 0a3.5 3.5 0 1 1-7 0 3.5 3.5 0 0 1 7 0"/><path fill="#090404" d="M12 15a6 6 0 0 1 5.882 4.809C18.143 21.107 17.035 22 16 22H8c-1.036 0-2.144-.893-1.882-2.191l.058-.255A6 6 0 0 1 12 15m0 2a4 4 0 0 0-3.874 3h7.748A4 4 0 0 0 12 17"/><path fill="#090404" d="M4.997 13.387a1 1 0 0 1 1 1.732l-.844.487a1 1 0 0 1-1-1.732zm12.637.366A1 1 0 0 1 19 13.387l.843.487a1 1 0 0 1-1 1.732L18 15.12a1 1 0 0 1-.366-1.366M2.635 8.85a1 1 0 0 1 1.159-.812l.987.174a1.001 1.001 0 0 1-.347 1.97l-.988-.174a1 1 0 0 1-.81-1.158m17.568-.812a1 1 0 0 1 .348 1.97l-.989.174a1 1 0 1 1-.347-1.97zM5.9 3.234a1 1 0 0 1 1.41.123l.634.757A1 1 0 1 1 6.412 5.4l-.635-.756A1 1 0 0 1 5.9 3.234m10.787.123a1 1 0 0 1 1.532 1.286l-.634.756a1 1 0 1 1-1.533-1.285zM11 3V2a1 1 0 0 1 2 0v1a1 1 0 1 1-2 0"/></svg>