<svg xmlns="http://www.w3.org/2000/svg" fill="none" viewBox="0 0 24 24"><path fill="#090404" d="M11.332 1.459C12.192.372 14 .964 14 2.401V8h5.565c1.198 0 1.913 1.335 1.248 2.332l-8.065 12.099c-.824 1.235-2.748.652-2.748-.832V16H4.434c-1.198 0-1.912-1.335-1.248-2.332l8.066-12.099zM12 19.946 18.63 10H13.5A1.5 1.5 0 0 1 12 8.5V4.053L5.369 14h5.13a1.5 1.5 0 0 1 1.5 1.5z"/><path fill="#090404" d="M21.429 14.017a1 1 0 0 1 .798.773l1.5 7a1 1 0 0 1-1.955.42l-.152-.71h-3.36l-.67 1.041a1 1 0 0 1-1.681-1.082l4.5-7 .09-.12a1 1 0 0 1 .93-.322M19.546 19.5h1.645l-.412-1.92z"/></svg>