<svg xmlns="http://www.w3.org/2000/svg" fill="none" viewBox="0 0 24 24"><path fill="#090404" d="m6.24 4.185-.696-1.812a.582.582 0 0 0-1.088 0L3.76 4.185a1 1 0 0 1-.575.575l-1.812.696a.582.582 0 0 0 0 1.088l1.812.696a1 1 0 0 1 .575.575l.696 1.812a.582.582 0 0 0 1.088 0l.696-1.812a1 1 0 0 1 .575-.575l1.812-.696a.582.582 0 0 0 0-1.088L6.815 4.76a1 1 0 0 1-.575-.575"/><path fill="#090404" d="m20.24 16.185-.696-1.812a.582.582 0 0 0-1.088 0l-.697 1.812a1 1 0 0 1-.574.575l-1.812.696a.582.582 0 0 0 0 1.088l1.812.697a1 1 0 0 1 .575.574l.696 1.812a.582.582 0 0 0 1.088 0l.697-1.812a1 1 0 0 1 .574-.575l1.812-.696a.582.582 0 0 0 0-1.088l-1.812-.697a1 1 0 0 1-.575-.574"/><path fill="#090404" d="M19 11V6h-7a1 1 0 1 1 0-2h7a2 2 0 0 1 2 2v5a1 1 0 1 1-2 0"/><path fill="#090404" d="M3 18v-5a1 1 0 1 1 2 0v5h7a1 1 0 1 1 0 2H5a2 2 0 0 1-2-2"/></svg>