<svg xmlns="http://www.w3.org/2000/svg" fill="none" viewBox="0 0 24 24"><path fill="#090404" d="M11.75 14.25a2 2 0 1 0-4 0 2 2 0 0 0 4 0m2 0a4 4 0 1 1-8 0 4 4 0 0 1 8 0"/><path fill="#090404" d="M17.089 2.002c1.361-.03 2.711.278 3.672 1.24.96.963 1.268 2.314 1.237 3.677-.03 1.371-.403 2.894-.962 4.393-1.117 2.994-3.068 6.123-5.022 8.14-3.08 3.178-8.453 3.512-11.692.268l-.006-.006v-.001c-3.288-3.202-2.957-8.577.247-11.701C6.58 6.044 9.709 4.085 12.7 2.965c1.498-.56 3.019-.932 4.388-.963m.044 2c-1.067.024-2.355.32-3.732.836-2.756 1.031-5.64 2.849-7.442 4.605-2.492 2.43-2.642 6.512-.243 8.842l.01.011.006.005.005.006.228.216c2.404 2.154 6.313 1.91 8.612-.462 1.745-1.802 3.556-4.689 4.585-7.449.514-1.378.812-2.668.836-3.737.024-1.08-.23-1.796-.653-2.22-.423-.423-1.136-.677-2.212-.653"/></svg>