<svg xmlns="http://www.w3.org/2000/svg" fill="none" viewBox="0 0 24 24"><path fill="#090404" d="M14 13v-2a1 1 0 1 1 2 0v2a1 1 0 1 1-2 0"/><path fill="#090404" d="M8 13v-2a1 1 0 1 1 2 0v2a1 1 0 1 1-2 0"/><path fill="#090404" d="M14 16a1 1 0 1 1 0 2h-4a1 1 0 1 1 0-2z"/><path fill="#090404" d="M14 3h-4v2H8V3a2 2 0 0 1 2-2h4a2 2 0 0 1 2 2v2h-2z"/><path fill="#090404" d="M4 18v-7.5h2V18a2 2 0 0 0 2 2h8a2 2 0 0 0 2-2v-7.5h2V18a4 4 0 0 1-4 4H8a4 4 0 0 1-4-4"/><path fill="#090404" d="M5 6v2a2 2 0 0 0 2 2h10a2 2 0 0 0 2-2V6zm16 2a4 4 0 0 1-4 4H7a4 4 0 0 1-4-4V6a2 2 0 0 1 2-2h14a2 2 0 0 1 2 2z"/></svg>