<svg xmlns="http://www.w3.org/2000/svg" fill="none" viewBox="0 0 24 24"><path fill="#090404" d="m19.24 17.185-.696-1.812a.582.582 0 0 0-1.088 0l-.697 1.812a1 1 0 0 1-.574.575l-1.812.696a.582.582 0 0 0 0 1.088l1.812.697a1 1 0 0 1 .575.574l.696 1.812a.582.582 0 0 0 1.088 0l.697-1.812a1 1 0 0 1 .574-.575l1.812-.696a.582.582 0 0 0 0-1.088l-1.812-.697a1 1 0 0 1-.575-.574"/><path fill="#090404" d="M14 8V6a2 2 0 1 0-4 0v2a1 1 0 0 1-2 0V6a4 4 0 1 1 8 0v2a1 1 0 1 1-2 0"/><path fill="#090404" d="M16.642 7c.987 0 1.827.72 1.977 1.696l.467 3.034a1 1 0 0 1-1.977.304L16.642 9H7.358L5.666 20H11a1 1 0 1 1 0 2H5.666a2 2 0 0 1-1.977-2.304l1.692-11C5.53 7.721 6.37 7 7.358 7z"/></svg>