<svg xmlns="http://www.w3.org/2000/svg" fill="none" viewBox="0 0 24 24"><path fill="#090404" d="M7.401 8.18a1 1 0 1 1 1.146 1.64c-.697.486-.662.733-.661.746.004.158.106.37.442.896.251.393.736 1.1.757 1.922.024.966-.55 1.76-1.515 2.435a1 1 0 1 1-1.145-1.638c.696-.487.661-.734.66-.747-.003-.158-.107-.371-.443-.896-.251-.393-.735-1.1-.756-1.922-.024-.966.55-1.76 1.515-2.435"/><path fill="#090404" d="M11.916 8.18a1 1 0 1 1 1.145 1.64c-.696.486-.661.733-.66.746.003.158.106.37.441.896.252.393.737 1.1.757 1.922.025.966-.548 1.76-1.514 2.435a1 1 0 1 1-1.146-1.638c.697-.487.662-.734.661-.747-.004-.158-.108-.371-.443-.896-.252-.393-.735-1.1-.756-1.922-.024-.966.549-1.76 1.515-2.435"/><path fill="#090404" d="M16.416 8.18a1 1 0 1 1 1.145 1.64c-.696.486-.661.733-.66.746.003.158.106.37.442.896.251.393.736 1.1.756 1.922.025.966-.548 1.76-1.514 2.435a1 1 0 1 1-1.146-1.638c.697-.487.662-.734.661-.747-.004-.158-.108-.371-.443-.896-.252-.393-.735-1.1-.756-1.922-.024-.966.549-1.76 1.515-2.435"/><path fill="#090404" d="M4 6v12h16V6zm18 12a2 2 0 0 1-2 2H4a2 2 0 0 1-2-2V6a2 2 0 0 1 2-2h16a2 2 0 0 1 2 2z"/></svg>