<svg xmlns="http://www.w3.org/2000/svg" fill="none" viewBox="0 0 24 24"><path fill="#090404" d="M19 9.528c0-2.074-.783-3.681-2.01-4.779C15.751 3.64 14 3 12 3s-3.751.64-4.99 1.749C5.783 5.847 5 7.454 5 9.529c0 2.688 1.12 4.81 2.581 6.267C9.073 17.284 10.832 18 12 18s2.928-.716 4.419-2.204C17.879 14.339 19 12.216 19 9.528m2 0c0 3.283-1.38 5.899-3.169 7.684C16.073 18.966 13.832 20 12 20s-4.073-1.034-5.831-2.788A10.73 10.73 0 0 1 3 9.528c0-2.62 1.008-4.776 2.677-6.27C7.333 1.778 9.58 1 12 1s4.667.777 6.323 2.259C19.992 4.752 21 6.909 21 9.529"/><path fill="#090404" d="M12.945 18.168a1 1 0 0 1 1.386.277l.964 1.446C16.181 21.22 15.23 23 13.631 23H10.37c-1.598 0-2.55-1.78-1.665-3.11l.963-1.445a1 1 0 0 1 1.665 1.11L10.369 21h3.262l-.964-1.445a1 1 0 0 1 .278-1.387"/><path fill="#090404" d="M10.783 5.132a1 1 0 1 1 .435 1.951c-1.084.242-1.892.988-2.139 2.128a1 1 0 0 1-1.955-.423c.423-1.954 1.866-3.256 3.659-3.656"/></svg>