<svg xmlns="http://www.w3.org/2000/svg" fill="none" viewBox="0 0 24 24"><path fill="#090404" d="M17.552 3c1.33 0 2.477 1.026 2.533 2.404.043 1.06.064 2.56-.094 3.73-.117.87-.383 1.925-.608 2.733a41 41 0 0 1-.396 1.33l-.026.082-.008.023-.002.006v.002L18 13l-.951-.31.002-.005.006-.019.024-.075q.032-.1.089-.285c.075-.244.177-.586.286-.976.22-.792.455-1.738.553-2.464.133-.982.12-2.333.078-3.38A.52.52 0 0 0 17.552 5a.58.58 0 0 0-.533.355l-2.096 5.03-1.846-.77 2.096-5.03A2.58 2.58 0 0 1 17.552 3"/><path fill="#090404" d="M7.243 9.561c1.505-.987 3.65-1.722 5.428-1.41.933.162 1.825.63 2.381 1.555.348.58.523 1.273.542 2.064 2.356-.24 4.205.758 5.051 2.47.977 1.977.413 4.533-1.708 6.296a2.05 2.05 0 0 1-1.312.464c-.872 0-1.534-.5-1.894-1.115a2.6 2.6 0 0 1-.232-2.077c.215-.682.18-1.233-.065-1.823-.246-.591-.716-1.25-1.474-2.091-1.84-.474-3.404-.801-5.021-.562-.805.119-1.705-.179-2.219-.95-.572-.857-.494-2.153.523-2.82m9.174 4.173c.36.491.655.98.864 1.483.428 1.03.481 2.067.127 3.192a.6.6 0 0 0 .05.467c.066.113.126.124.167.124q.026-.001.037-.005c1.514-1.261 1.698-2.843 1.19-3.87-.352-.711-1.142-1.35-2.434-1.39m-4.09-3.614c-1.086-.19-2.7.275-3.963 1.098v.01a.1.1 0 0 0 .02.045c.024.036.109.103.262.08 1.729-.255 3.365.012 4.946.388-.021-.474-.128-.794-.255-1.005-.19-.317-.507-.528-1.01-.616"/><path fill="#090404" d="M16.639 16.84c-3.291 2.732-7.937 5.053-12.527 2.677-.73-.379-1.112-1.13-1.112-1.87 0-1.188.928-2.077 1.996-2.216 2.588-.338 4.602-1.53 6.223-3.556l1.562 1.25c-1.926 2.408-4.398 3.88-7.526 4.288a.33.33 0 0 0-.196.099.2.2 0 0 0-.059.136c0 .033.01.06.019.076l.01.013.003.003c3.45 1.786 7.174.181 10.33-2.438z"/></svg>