<svg xmlns="http://www.w3.org/2000/svg" fill="none" viewBox="0 0 24 24"><path fill="#090404" d="M6.088 7.82a.95.95 0 0 1 1.343.018c2.904 2.986 6.74 2.536 10.139 1.043.638-.28 1.4-.217 1.983.221.602.452.92 1.237.72 2.014-.246.952-.767 2.472-2.1 3.806a.95.95 0 0 1-1.344-1.344c.99-.991 1.396-2.137 1.602-2.933a.1.1 0 0 0-.018-.023c-.009-.007-.038-.019-.079-.001-3.65 1.603-8.517 2.394-12.264-1.459a.95.95 0 0 1 .018-1.343"/><path fill="#090404" d="M5.55 5.18a.05.05 0 0 0-.058-.05l-1 .167a.05.05 0 0 0-.042.049v2.33c0 .42-.138.797-.325 1.096-.918 1.473-.86 3.682.25 5.809a9.27 9.27 0 0 0 5.926 4.665c2.738.696 5.23.125 7.081-.98 1.858-1.108 2.95-2.671 3.137-3.907l-.066-.063a.06.06 0 0 0-.033-.015.1.1 0 0 0-.065.01c-2.994 1.399-6.408 2.012-9.257 1.139-1.442-.443-2.734-1.266-3.716-2.545-.979-1.275-1.61-2.95-1.827-5.037a1 1 0 0 1-.005-.098zm1.9 2.513c.192 1.793.723 3.1 1.44 4.034.719.937 1.663 1.548 2.765 1.886 2.24.687 5.148.24 7.896-1.043a1.99 1.99 0 0 1 2.218.356l.08.078c.365.35.645.894.566 1.523-.253 2.014-1.853 4.055-4.06 5.371-2.247 1.341-5.254 2.02-8.523 1.189a11.17 11.17 0 0 1-7.141-5.627c-1.31-2.509-1.565-5.47-.178-7.693a.2.2 0 0 0 .037-.091v-2.33c0-.954.69-1.767 1.63-1.923l1-.167A1.95 1.95 0 0 1 7.45 5.18z"/></svg>