<svg xmlns="http://www.w3.org/2000/svg" fill="none" viewBox="0 0 24 24"><path fill="#090404" d="m12 3.618-8 4V8h16v-.382zM22 8a2 2 0 0 1-2 2H4a2 2 0 0 1-2-2v-.382a2 2 0 0 1 1.105-1.79l8-4a2 2 0 0 1 1.79 0l8 4A2 2 0 0 1 22 7.619z"/><path fill="#090404" d="M19.28 16a2 2 0 0 1 1.897 1.367l.333 1A2 2 0 0 1 19.612 21H4.388a2 2 0 0 1-1.898-2.633l.333-1A2 2 0 0 1 4.721 16zM4.387 19h15.224l-.333-1H4.721z"/><path fill="#090404" d="M18 8h2v10h-2z"/><path fill="#090404" d="M14 8h2v10h-2z"/><path fill="#090404" d="M4 8h2v10H4z"/><path fill="#090404" d="M8 8h2v10H8z"/></svg>