<svg xmlns="http://www.w3.org/2000/svg" fill="none" viewBox="0 0 24 24"><path fill="#090404" d="M21 19a1 1 0 1 1 0 2H3a1 1 0 1 1 0-2z"/><circle cx="12" cy="7" r="1" fill="#090404"/><path fill="#090404" d="M3 20v-9a1 1 0 1 1 2 0v9a1 1 0 1 1-2 0"/><path fill="#090404" d="M19 20v-9a1 1 0 1 1 2 0v9a1 1 0 1 1-2 0"/><path fill="#090404" d="M12 4.095 4 7.649V9h16V7.65zM22 9a2 2 0 0 1-2 2H4a2 2 0 0 1-2-2V7.65a2 2 0 0 1 1.188-1.828l8-3.555a2 2 0 0 1 1.624 0l8 3.555A2 2 0 0 1 22 7.65z"/><path fill="#090404" d="M8.5 20v-6a1 1 0 1 1 2 0v6a1 1 0 1 1-2 0"/><path fill="#090404" d="M13.5 20v-6a1 1 0 1 1 2 0v6a1 1 0 1 1-2 0"/></svg>