<svg xmlns="http://www.w3.org/2000/svg" fill="none" viewBox="0 0 24 24"><path fill="#090404" d="M3.5 6.5v11h17v-11zm19 11a2 2 0 0 1-2 2h-17a2 2 0 0 1-2-2v-11a2 2 0 0 1 2-2h17a2 2 0 0 1 2 2z"/><path fill="#090404" d="M19 6a2 2 0 0 0 2 2v2a4 4 0 0 1-4-4z"/><path fill="#090404" d="M7 6a4 4 0 0 1-4 4V8a2 2 0 0 0 2-2z"/><path fill="#090404" d="M21 16a2 2 0 0 0-2 2h-2a4 4 0 0 1 4-4z"/><path fill="#090404" d="M3 14a4 4 0 0 1 4 4H5a2 2 0 0 0-2-2z"/><path fill="#090404" d="M13 12a1 1 0 1 0-2 0 1 1 0 0 0 2 0m2 0a3 3 0 1 1-6 0 3 3 0 0 1 6 0"/></svg>