<svg xmlns="http://www.w3.org/2000/svg" fill="none" viewBox="0 0 24 24"><path fill="#090404" d="M6.775 7.745a.594.594 0 0 0 .776.22l.651-.348a.665.665 0 0 0 .265-.937.663.663 0 0 0-.959-.165l-.596.436a.59.59 0 0 0-.137.794"/><path fill="#090404" d="M15.53 6.68a.665.665 0 0 0 .265.937l.65.349a.594.594 0 0 0 .777-.22.59.59 0 0 0-.138-.795l-.596-.436a.663.663 0 0 0-.958.165"/><path fill="#090404" d="M7.687 9.783a.595.595 0 0 0 .685.43l.722-.154a.667.667 0 0 0 .515-.83c-.107-.372-.511-.555-.875-.422l-.693.253a.59.59 0 0 0-.354.723"/><path fill="#090404" d="M14.387 9.23a.667.667 0 0 0 .516.829l.722.153a.595.595 0 0 0 .684-.43.59.59 0 0 0-.353-.722l-.693-.253c-.364-.133-.769.05-.876.423"/><path fill="#090404" d="M8.54 11.4a.594.594 0 0 0-.542.6c0 .31.232.579.542.6l.736.051A.664.664 0 0 0 9.998 12a.664.664 0 0 0-.722-.651z"/><path fill="#090404" d="M14.721 11.349a.664.664 0 0 0-.723.65c0 .388.337.679.723.652l.736-.05a.594.594 0 0 0 .541-.601.594.594 0 0 0-.54-.6z"/><path fill="#090404" d="M7.687 14.217a.59.59 0 0 0 .354.723l.693.253c.364.133.768-.05.875-.423a.667.667 0 0 0-.515-.829l-.722-.153a.595.595 0 0 0-.685.429"/><path fill="#090404" d="M14.387 14.77c.107.372.512.556.876.423l.693-.253a.59.59 0 0 0 .353-.723.595.595 0 0 0-.684-.43l-.722.154a.667.667 0 0 0-.516.83"/><path fill="#090404" d="M6.775 16.255a.59.59 0 0 0 .137.794l.596.436a.663.663 0 0 0 .96-.165.665.665 0 0 0-.266-.938l-.65-.348a.594.594 0 0 0-.777.22"/><path fill="#090404" d="M15.53 17.32a.663.663 0 0 0 .958.165l.596-.436a.59.59 0 0 0 .138-.794.594.594 0 0 0-.776-.221l-.651.348a.665.665 0 0 0-.265.938"/><path fill="#090404" fill-rule="evenodd" d="M12 2C6.477 2 2 6.477 2 12s4.477 10 10 10 10-4.477 10-10S17.523 2 12 2M4 12a8 8 0 1 1 16 0 8 8 0 0 1-16 0" clip-rule="evenodd"/></svg>