<svg xmlns="http://www.w3.org/2000/svg" fill="none" viewBox="0 0 24 24"><path fill="#090404" d="M21 11a1 1 0 0 1 1 1c0 5.523-4.477 10-10 10S2 17.523 2 12a1 1 0 0 1 1-1zM4.064 13a8 8 0 0 0 15.872 0z"/><path fill="#090404" d="M20 12a8 8 0 1 0-16 0 1 1 0 1 1-2 0C2 6.477 6.477 2 12 2s10 4.477 10 10a1 1 0 1 1-2 0"/><path fill="#090404" d="M11 20.5v-17a1 1 0 1 1 2 0v17a1 1 0 1 1-2 0"/><path fill="#090404" d="M6.999 12c0-2.05-.77-3.917-2.037-5.333a1 1 0 0 1 1.49-1.334A9.97 9.97 0 0 1 9 12c0 2.56-.964 4.898-2.547 6.667a1 1 0 0 1-1.49-1.334A7.97 7.97 0 0 0 6.999 12"/><path fill="#090404" d="M15 12c0-2.56.964-4.898 2.547-6.667a1 1 0 0 1 1.49 1.334A7.97 7.97 0 0 0 17 12c0 2.05.77 3.917 2.037 5.333a1 1 0 0 1-1.49 1.334A9.97 9.97 0 0 1 15 12"/></svg>