<svg xmlns="http://www.w3.org/2000/svg" fill="none" viewBox="0 0 24 24"><path fill="#090404" d="M6 11.5a2 2 0 0 1 3.794-.884 15 15 0 0 1 4.412 0 2 2 0 1 1-.175 1.237 13.7 13.7 0 0 0-4.062 0A2 2 0 0 1 6 11.5"/><path fill="#090404" d="M21 12.5C21 8.761 17.107 5 12 5s-9 3.761-9 7.5c0 1.836.92 3.43 2.519 4.6C7.129 18.277 9.415 19 12 19s4.87-.723 6.481-1.9c1.6-1.17 2.519-2.764 2.519-4.6m2 0c0 2.582-1.319 4.737-3.339 6.214C17.653 20.182 14.937 21 12 21s-5.653-.818-7.661-2.286C2.319 17.237 1 15.082 1 12.5 1 7.402 6.061 3 12 3s11 4.402 11 9.5"/></svg>