<svg xmlns="http://www.w3.org/2000/svg" fill="none" viewBox="0 0 24 24"><path fill="#090404" d="M5.67 5.671C9.787 1.555 16.1.631 19.734 4.266s2.71 9.947-1.405 14.064c-4.117 4.116-10.43 5.04-14.064 1.405S1.554 9.788 5.67 5.67m12.65.01c-2.576-2.576-7.59-2.242-11.236 1.404s-3.98 8.66-1.405 11.236c2.576 2.575 7.59 2.24 11.236-1.405 3.646-3.647 3.98-8.66 1.405-11.236"/><path fill="#090404" d="M18.856 5.803a1 1 0 0 1 1.789.895c-1.08 2.16-2.424 3.52-3.912 4.448-1.458.909-3.022 1.38-4.442 1.811-1.455.443-2.766.848-3.965 1.595-1.168.729-2.262 1.807-3.181 3.646a1 1 0 0 1-1.79-.895c1.081-2.161 2.425-3.52 3.913-4.448 1.457-.909 3.022-1.38 4.441-1.812 1.456-.443 2.767-.847 3.965-1.594 1.169-.729 2.262-1.807 3.182-3.646"/></svg>