<svg xmlns="http://www.w3.org/2000/svg" fill="none" viewBox="0 0 24 24"><path fill="#090404" d="M13.052 2c2.942 0 5.499 2.197 7.08 5.247 1.602 3.09 2.334 7.26 1.554 11.71a1 1 0 0 1-.396.635c-1.168.851-2.753 1.445-4.472 1.83-1.732.387-3.669.578-5.593.578-4.708 0-8.952-2.852-9.212-6.904L2 14.7c-.001-2.843 1.813-4.915 4.1-5.491 2.321-.585 4.952.4 6.536 3.216a1 1 0 1 1-1.743.98c-1.18-2.098-2.933-2.603-4.304-2.257-1.404.353-2.59 1.631-2.589 3.551v.001c0 2.698 2.946 5.3 7.225 5.3 1.8 0 3.589-.178 5.157-.53 1.391-.31 2.556-.746 3.401-1.273.594-3.883-.086-7.443-1.427-10.03C16.947 5.448 14.935 4 13.052 4c-.928 0-1.266.295-1.386.47-.137.201-.19.535-.043.944.147.406.45.75.805.914.316.146.752.188 1.324-.143a1 1 0 0 1 1.003 1.73c-1.104.64-2.227.662-3.164.23-.898-.413-1.544-1.203-1.85-2.052-.305-.847-.316-1.889.274-2.751C10.62 2.455 11.695 2 13.052 2"/><path fill="#090404" d="M12.748 6.87a1 1 0 0 1 1.374.336c1.209 1.994 1.526 3.103 1.607 4.124.077.97-.044 1.408.354 2.604a1 1 0 0 1-1.6 1.075c-.793-.68-1.51-1.01-2.19-1.083-.675-.072-1.441.094-2.362.643a1 1 0 1 1-1.023-1.718c1.194-.712 2.39-1.043 3.596-.914a5 5 0 0 1 1.26.306c-.01-.287-.01-.535-.028-.755-.049-.61-.215-1.414-1.325-3.245a1 1 0 0 1 .337-1.374"/></svg>