<svg xmlns="http://www.w3.org/2000/svg" fill="none" viewBox="0 0 24 24"><path fill="#090404" d="M10.948 2c1.357 0 2.43.455 3.037 1.342.59.862.58 1.904.274 2.75-.306.85-.952 1.64-1.85 2.054-.937.431-2.06.409-3.164-.231a1 1 0 1 1 1.003-1.73c.572.33 1.008.289 1.324.143.356-.164.659-.508.805-.914.147-.409.094-.743-.043-.943-.12-.176-.458-.471-1.386-.471-1.883 0-3.895 1.448-5.304 4.167-1.341 2.587-2.021 6.147-1.428 10.03.845.527 2.01.962 3.402 1.274 1.568.35 3.357.529 5.157.529C17.054 20 20 17.398 20 14.7c.001-1.92-1.184-3.199-2.589-3.552-1.37-.346-3.123.159-4.303 2.257a1 1 0 0 1-1.744-.98c1.584-2.816 4.215-3.8 6.536-3.216C20.187 9.785 22 11.857 22 14.7l-.013.396C21.727 19.148 17.483 22 12.776 22c-1.925 0-3.862-.19-5.594-.578-1.719-.385-3.304-.979-4.472-1.83a1 1 0 0 1-.396-.635c-.78-4.45-.048-8.62 1.554-11.71C5.45 4.197 8.006 2 10.948 2"/><path fill="#090404" d="M9.878 7.206a1 1 0 1 1 1.71 1.037c-1.11 1.83-1.275 2.636-1.324 3.245-.017.22-.02.468-.03.755a5 5 0 0 1 1.26-.306c1.207-.13 2.403.202 3.597.914a1 1 0 1 1-1.023 1.717c-.92-.548-1.686-.714-2.36-.642-.682.072-1.399.402-2.193 1.083a1 1 0 0 1-1.598-1.075c.398-1.196.276-1.634.353-2.604.081-1.022.4-2.13 1.608-4.124"/></svg>