<svg xmlns="http://www.w3.org/2000/svg" fill="none" viewBox="0 0 24 24"><path fill="#090404" d="M9.857 1.735a1 1 0 0 0-1.715 1.03l1.5 2.5a1 1 0 0 0 1.715-1.03z"/><path fill="#090404" d="M14.143 1.735a1 1 0 0 1 1.714 1.03l-1.5 2.5a1 1 0 0 1-1.714-1.03z"/><path fill="#090404" d="M9 12v-1a5 5 0 0 0-5 5v1a5 5 0 0 0 5-5m2 0a7 7 0 0 1-7 7 2 2 0 0 1-2-2v-1a7 7 0 0 1 7-7c.374 0 .699.206.87.51q.064-.01.13-.01a1 1 0 0 1 1 1z"/><path fill="#090404" d="M13 12v-1.5a1 1 0 0 1 1.129-.99A1 1 0 0 1 15 9a7 7 0 0 1 7 7v1a2 2 0 0 1-2 2 7 7 0 0 1-7-7m2 0a5 5 0 0 0 5 5v-1a5 5 0 0 0-5-5z"/><path fill="#090404" d="M11 22v-1a1 1 0 1 1 2 0v1a1 1 0 1 1-2 0"/><path fill="#090404" d="M14 8a2 2 0 1 0-4 0 2 2 0 0 0 4 0m2 0a4 4 0 1 1-8 0 4 4 0 0 1 8 0"/><path fill="#090404" d="M14.89 16.331a1 1 0 1 1 1.97.338c-.246 1.437-.812 2.737-1.628 3.698C14.415 21.33 13.3 22 12.001 22s-2.415-.67-3.233-1.633c-.815-.961-1.38-2.26-1.627-3.698a1 1 0 1 1 1.971-.338c.198 1.15.638 2.1 1.182 2.742.542.64 1.141.927 1.707.927s1.164-.287 1.707-.927c.544-.642.984-1.592 1.181-2.742"/></svg>