<svg xmlns="http://www.w3.org/2000/svg" fill="none" viewBox="0 0 24 24"><path fill="#090404" d="M4 19V7.5a1 1 0 0 1 2 0V19h10V7.5a1 1 0 1 1 2 0V19a2 2 0 0 1-2 2H6a2 2 0 0 1-2-2"/><path fill="#090404" d="M20 12a2 2 0 0 0-2-2h-1a1 1 0 1 1 0-2h1a4 4 0 0 1 0 8h-1a1 1 0 1 1 0-2h1a2 2 0 0 0 2-2"/><path fill="#090404" d="M7 9.5v-1H5.987c-.95 0-1.838-.475-2.366-1.266l-.039-.059A2.687 2.687 0 0 1 5.816 3h.976q.138 0 .273-.019l2.728-.39a5 5 0 0 1 1.414 0l2.653.38a3 3 0 0 0 .424.029h1.73c.95 0 1.838.475 2.366 1.266l.102.153a2.43 2.43 0 0 1-2.61 3.705l-.163-.041a.6.6 0 0 0-.333.012l-.558.187a3.1 3.1 0 0 1-1.503.117l-.343-.057a.835.835 0 0 0-.972.824V9.5a2.5 2.5 0 1 1-5 0m2 0a.5.5 0 0 0 1 0v-.334a2.835 2.835 0 0 1 3.3-2.796l.344.056c.181.03.367.016.542-.042l.557-.185a2.6 2.6 0 0 1 1.451-.057l.163.041a.43.43 0 0 0 .46-.654l-.101-.153A.85.85 0 0 0 16.014 5h-1.73q-.355 0-.707-.05l-2.652-.38a3 3 0 0 0-.849 0l-2.727.39a4 4 0 0 1-.557.04h-.976a.686.686 0 0 0-.57 1.066l.04.058c.156.234.42.376.701.376H7a2 2 0 0 1 2 2z"/></svg>