<svg xmlns="http://www.w3.org/2000/svg" fill="none" viewBox="0 0 24 24"><path fill="#090404" d="M7.368 4.751a7.4 7.4 0 0 1 1.768.182c.488.106.952.304 1.366.583.382.278.685.651.877 1.083.221.53.328 1.102.313 1.676a3.2 3.2 0 0 1-.463 1.795c-.345.51-.821.917-1.379 1.179.757.204 1.416.67 1.859 1.316.425.684.639 1.479.614 2.284a4.2 4.2 0 0 1-.388 1.861c-.25.508-.614.951-1.066 1.294a4.7 4.7 0 0 1-1.543.739c-.575.159-1.17.239-1.767.237H1V4.751zm-.378 5.755c.467.02.926-.12 1.304-.396a1.55 1.55 0 0 0 .513-1.294A1.75 1.75 0 0 0 8.644 8a1.2 1.2 0 0 0-.454-.488 1.7 1.7 0 0 0-.651-.251 3.7 3.7 0 0 0-.765-.066H3.97v3.324H6.99zm.163 6.058q.424.005.84-.09c.25-.056.49-.16.702-.304.208-.145.376-.34.489-.568.13-.29.19-.606.175-.924a1.9 1.9 0 0 0-.589-1.57 2.4 2.4 0 0 0-1.554-.462H3.97v3.918z"/><path fill="#090404" d="M16.555 16.512a2.35 2.35 0 0 0 1.742.62c.503.012.997-.14 1.404-.436.332-.215.583-.534.714-.906h2.37c-.253 1.06-.87 1.999-1.742 2.653a4.85 4.85 0 0 1-2.834.805 5.4 5.4 0 0 1-2.093-.397c-.601-.25-1.14-.628-1.58-1.108a5.2 5.2 0 0 1-.99-1.716 6.5 6.5 0 0 1-.35-2.192 6.3 6.3 0 0 1 .362-2.151 4.85 4.85 0 0 1 4.664-3.3 4.5 4.5 0 0 1 2.178.515 4.6 4.6 0 0 1 1.53 1.36c.409.59.702 1.253.864 1.954.178.751.24 1.525.188 2.296h-7.058a2.8 2.8 0 0 0 .63 2.003M19.65 11.1a1.95 1.95 0 0 0-1.516-.567 2.14 2.14 0 0 0-1.066.237 2.3 2.3 0 0 0-.677.568 2.2 2.2 0 0 0-.363.725 3 3 0 0 0-.125.673h4.372a2.96 2.96 0 0 0-.623-1.635z"/><path fill="#090404" d="M20.818 5.701h-5.477v1.4h5.477z"/></svg>