<svg xmlns="http://www.w3.org/2000/svg" fill="none" viewBox="0 0 24 24"><path fill="#090404" d="M9 17a3 3 0 1 0 6 0h2a5 5 0 0 1-10 0z"/><path fill="#090404" d="M12 4a5.307 5.307 0 0 0-5.3 5.042l-.191 3.799a2 2 0 0 1-.208.794L5.118 16h13.764l-1.183-2.365a2 2 0 0 1-.208-.794l-.19-3.799A5.307 5.307 0 0 0 12 4m9 12.191c0 1-.81 1.809-1.809 1.809H4.81a1.81 1.81 0 0 1-1.8-1.624L3 16.191l.012-.21q.037-.313.18-.6l1.32-2.64.19-3.799a7.308 7.308 0 0 1 14.597 0l.19 3.798 1.32 2.642c.125.251.191.529.191.81"/><path fill="#090404" d="M13.5 7.5a1 1 0 0 1 .8 1.6l-1.801 2.4H13.5a1 1 0 1 1 0 2h-3a1 1 0 0 1-.8-1.6l1.801-2.4H10.5a1 1 0 0 1 0-2z"/></svg>