<svg xmlns="http://www.w3.org/2000/svg" fill="none" viewBox="0 0 24 24"><path fill="#090404" d="M7 17a1 1 0 1 1 2 0 3 3 0 1 0 6 0 1 1 0 1 1 2 0 5 5 0 0 1-10 0"/><path fill="#090404" d="M5.17 5.632a1 1 0 0 1 1.66 1.12A6.2 6.2 0 0 0 5.801 9.57L5.113 16H17a1 1 0 0 1 0 2H5.113a2 2 0 0 1-1.989-2.213l.69-6.43A8.2 8.2 0 0 1 5.17 5.632"/><path fill="#090404" d="M12 2a8.233 8.233 0 0 1 8.186 7.356l.487 4.538a1 1 0 1 1-1.988.212l-.487-4.537a6.234 6.234 0 0 0-8.783-5.01 1 1 0 1 1-.83-1.819A8.2 8.2 0 0 1 12 2"/><path fill="#090404" d="M2.293 2.293a1 1 0 0 1 1.414 0l18 18a1 1 0 1 1-1.414 1.414l-18-18a1 1 0 0 1 0-1.414"/></svg>