<svg xmlns="http://www.w3.org/2000/svg" fill="none" viewBox="0 0 24 24"><path fill="#090404" d="M7 19V8.5A5.5 5.5 0 0 1 12.5 3c3.073 0 4.952 2.164 5.16 4.408.102 1.117-.208 2.283-1.024 3.174q-.044.046-.09.09a4.7 4.7 0 0 1 1.2.875c.963.976 1.36 2.271 1.256 3.535C18.792 17.633 16.578 20 13 20a5.98 5.98 0 0 1-4-1.53V19a3 3 0 0 1-3 3 1 1 0 0 1-.103-1.995l.206-.01A1 1 0 0 0 7 19m2-5a4 4 0 0 0 4 4c2.604 0 3.89-1.633 4.009-3.082.06-.736-.17-1.44-.687-1.965-.514-.521-1.405-.953-2.822-.953q-.07 0-.139-.01-.177.009-.361.01a1 1 0 1 1 0-2c1.116 0 1.783-.358 2.16-.77.386-.421.566-1.005.508-1.638C15.552 6.336 14.5 5 12.5 5A3.5 3.5 0 0 0 9 8.5z"/></svg>