<svg xmlns="http://www.w3.org/2000/svg" fill="none" viewBox="0 0 24 24"><path fill="#090404" d="M5 7h2V5H5zm4 .5A1.5 1.5 0 0 1 7.5 9h-3A1.5 1.5 0 0 1 3 7.5v-3A1.5 1.5 0 0 1 4.5 3h3A1.5 1.5 0 0 1 9 4.5z"/><path fill="#090404" d="M17 7h2V5h-2zm4 .5A1.5 1.5 0 0 1 19.5 9h-3A1.5 1.5 0 0 1 15 7.5v-3A1.5 1.5 0 0 1 16.5 3h3A1.5 1.5 0 0 1 21 4.5z"/><path fill="#090404" d="M5 19h2v-2H5zm4 .5A1.5 1.5 0 0 1 7.5 21h-3A1.5 1.5 0 0 1 3 19.5v-3A1.5 1.5 0 0 1 4.5 15h3A1.5 1.5 0 0 1 9 16.5z"/><path fill="#090404" d="M16.793 13.46a2.65 2.65 0 1 1 3.747 3.747l-3.5 3.5a1 1 0 0 1-.707.293H14a1 1 0 0 1-1-1v-2.333a1 1 0 0 1 .293-.707zm2.333 1.414a.65.65 0 0 0-.919 0L15 18.08V19h.919l3.207-3.207a.65.65 0 0 0 0-.92"/><path fill="#090404" d="M16 5a1 1 0 1 1 0 2H8a1 1 0 0 1 0-2z"/><path fill="#090404" d="M5 16V8a1 1 0 0 1 2 0v8a1 1 0 1 1-2 0"/><path fill="#090404" d="M10 17a1 1 0 1 1 0 2H8a1 1 0 1 1 0-2z"/><path fill="#090404" d="M17 10V8a1 1 0 1 1 2 0v2a1 1 0 1 1-2 0"/></svg>