<svg xmlns="http://www.w3.org/2000/svg" fill="none" viewBox="0 0 24 24"><path fill="#090404" d="M1 7a2 2 0 1 1 4 0 2 2 0 0 1-4 0"/><path fill="#090404" d="M19 7a2 2 0 1 1 4 0 2 2 0 0 1-4 0"/><path fill="#090404" d="M19 16v2h2v-2zm4 2a2 2 0 0 1-2 2h-2a2 2 0 0 1-2-2v-2a2 2 0 0 1 2-2h2a2 2 0 0 1 2 2z"/><path fill="#090404" d="M3 16v2h2v-2zm4 2a2 2 0 0 1-2 2H3a2 2 0 0 1-2-2v-2a2 2 0 0 1 2-2h2a2 2 0 0 1 2 2z"/><path fill="#090404" d="M11 6v2h2V6zm4 2a2 2 0 0 1-2 2h-2a2 2 0 0 1-2-2V6a2 2 0 0 1 2-2h2a2 2 0 0 1 2 2z"/><path fill="#090404" d="M9.5 6a1 1 0 1 1 0 2H3a1 1 0 0 1 0-2z"/><path fill="#090404" d="M21 6a1 1 0 1 1 0 2h-6.5a1 1 0 1 1 0-2z"/><path fill="#090404" d="M9.188 6.448a1 1 0 0 1 .624 1.9 7.005 7.005 0 0 0-4.798 6.213 1 1 0 1 1-1.996-.123 9.01 9.01 0 0 1 6.17-7.99"/><path fill="#090404" d="M13.55 7.086a1 1 0 0 1 1.262-.638 9.005 9.005 0 0 1 6.17 7.99 1 1 0 1 1-1.996.123 7.005 7.005 0 0 0-4.799-6.212 1 1 0 0 1-.637-1.263"/></svg>