<svg xmlns="http://www.w3.org/2000/svg" fill="none" viewBox="0 0 24 24"><path fill="#090404" d="M11 20h2v-2h-2zm4 .5a1.5 1.5 0 0 1-1.5 1.5h-3A1.5 1.5 0 0 1 9 20.5v-3a1.5 1.5 0 0 1 1.5-1.5h3a1.5 1.5 0 0 1 1.5 1.5z"/><path fill="#090404" d="M11 6h2V4h-2zm4 .5A1.5 1.5 0 0 1 13.5 8h-3A1.5 1.5 0 0 1 9 6.5v-3A1.5 1.5 0 0 1 10.5 2h3A1.5 1.5 0 0 1 15 3.5z"/><path fill="#090404" d="M4 13h2v-2H4zm4 .5A1.5 1.5 0 0 1 6.5 15h-3A1.5 1.5 0 0 1 2 13.5v-3A1.5 1.5 0 0 1 3.5 9h3A1.5 1.5 0 0 1 8 10.5z"/><path fill="#090404" d="M18 13h2v-2h-2zm4 .5a1.5 1.5 0 0 1-1.5 1.5h-3a1.5 1.5 0 0 1-1.5-1.5v-3A1.5 1.5 0 0 1 17.5 9h3a1.5 1.5 0 0 1 1.5 1.5z"/><path fill="#090404" d="M9.143 4.526a1 1 0 1 1 .714 1.867 6.02 6.02 0 0 0-3.464 3.464 1 1 0 1 1-1.867-.714 8.02 8.02 0 0 1 4.617-4.617"/><path fill="#090404" d="M13.566 5.102a1 1 0 0 1 1.291-.576 8.02 8.02 0 0 1 4.618 4.617 1 1 0 0 1-1.869.714 6.02 6.02 0 0 0-3.464-3.464 1 1 0 0 1-.576-1.29"/><path fill="#090404" d="M5.102 13.566a1 1 0 0 1 1.291.576 6.02 6.02 0 0 0 3.464 3.464 1 1 0 0 1-.714 1.868 8.02 8.02 0 0 1-4.617-4.617 1 1 0 0 1 .576-1.29"/><path fill="#090404" d="M17.606 14.143a1 1 0 0 1 1.868.714 8.02 8.02 0 0 1-4.617 4.618 1 1 0 0 1-.714-1.869 6.02 6.02 0 0 0 3.463-3.464"/></svg>