<svg xmlns="http://www.w3.org/2000/svg" fill="none" viewBox="0 0 24 24"><circle cx="5" cy="5" r="2" fill="#090404"/><circle cx="19" cy="19" r="2" fill="#090404"/><path fill="#090404" d="M20 4a1 1 0 1 1 0 2c-2.158 0-3.502.752-4.51 1.86-1.066 1.171-1.783 2.761-2.576 4.546-.762 1.715-1.601 3.625-2.925 5.08C8.61 19.001 6.731 20 4 20a1 1 0 1 1 0-2c2.158 0 3.502-.752 4.51-1.86 1.066-1.171 1.783-2.761 2.576-4.546.762-1.716 1.601-3.625 2.925-5.08C15.39 4.999 17.269 4 20 4"/><path fill="#090404" d="M19 18a1 1 0 1 1 0 2h-2.5a1 1 0 1 1 0-2z"/><path fill="#090404" d="M7.5 4a1 1 0 0 1 0 2H5a1 1 0 0 1 0-2z"/><path fill="#090404" d="M12 4a1 1 0 1 1 0 2h-1a1 1 0 1 1 0-2z"/><path fill="#090404" d="M13 18a1 1 0 1 1 0 2h-1a1 1 0 1 1 0-2z"/></svg>