<svg xmlns="http://www.w3.org/2000/svg" fill="none" viewBox="0 0 24 24"><path fill="#090404" d="M14.122 2.879a3 3 0 1 1-4.242 0L12 .758zm-2.828 1.414a1 1 0 1 0 1.414 0L12 3.586z"/><path fill="#090404" d="M13.757 14.22c.477-.191 1.01-.191 1.486 0l1.757.703 1.5-.6V11h-13v3.323l1.5.6 1.757-.703c.477-.191 1.01-.191 1.486 0l1.757.703zm6.743.103a2 2 0 0 1-1.257 1.857l-1.5.6c-.477.191-1.01.191-1.486 0l-1.757-.703-1.757.703c-.477.191-1.01.191-1.486 0L9.5 16.077l-1.757.703c-.477.191-1.01.191-1.486 0l-1.5-.6A2 2 0 0 1 3.5 14.323V11a2 2 0 0 1 2-2h13a2 2 0 0 1 2 2z"/><path fill="#090404" d="M4 20v-4.5h2V20h12v-4.5h2V20a2 2 0 0 1-2 2H6a2 2 0 0 1-2-2"/><path fill="#090404" d="M11 10V7a1 1 0 1 1 2 0v3a1 1 0 1 1-2 0"/></svg>