<svg xmlns="http://www.w3.org/2000/svg" fill="none" viewBox="0 0 24 24"><path fill="#090404" d="m19.5 5.413-.828 1.066a1 1 0 0 1-1.482.107A7.5 7.5 0 0 0 4.5 12v6.585l.828-1.063.068-.08a1 1 0 0 1 1.414-.029A7.5 7.5 0 0 0 19.5 12zm2 6.587a9.5 9.5 0 0 1-15.234 7.571l-1.082 1.393c-.877 1.127-2.684.507-2.684-.92V12a9.5 9.5 0 0 1 15.233-7.572l1.083-1.392.084-.1c.904-.988 2.6-.363 2.6 1.021z"/><path fill="#090404" d="M14.5 12a2.5 2.5 0 1 0-5 0 2.5 2.5 0 0 0 5 0m2 0a4.5 4.5 0 1 1-9 0 4.5 4.5 0 0 1 9 0"/></svg>