<svg xmlns="http://www.w3.org/2000/svg" fill="none" viewBox="0 0 24 24"><path fill="#090404" d="M4 6v6.143c0 2.113.995 4.104 2.686 5.372.42.315.931.485 1.457.485H20V6zm18 12a2 2 0 0 1-2 2H8.143a4.43 4.43 0 0 1-2.658-.886A8.72 8.72 0 0 1 2 12.143V6a2 2 0 0 1 2-2h16a2 2 0 0 1 2 2z"/><path fill="#090404" d="M2.988 4.857A1 1 0 0 1 4 5.834l.001.047a9 9 0 0 0 2.635 6.34l1.071 1.071c.337.337.39.866.125 1.263-.341.512-.558 1.495-.41 2.334.07.402.211.682.371.85.137.143.34.261.707.261a1 1 0 1 1 0 2c-.883 0-1.618-.32-2.152-.88-.512-.536-.778-1.224-.895-1.884a5.77 5.77 0 0 1 .325-3.043l-.556-.557a11 11 0 0 1-3.208-7.259l-.003-.03L2 5.882l.001-.001L2 5.857a1 1 0 0 1 .988-1"/></svg>