<svg xmlns="http://www.w3.org/2000/svg" fill="none" viewBox="0 0 24 24"><path fill="#090404" d="M18 15.857V4H6v16h6.143a6.72 6.72 0 0 0 5.372-2.686A2.43 2.43 0 0 0 18 15.857m2 0c0 .959-.31 1.891-.886 2.658A8.72 8.72 0 0 1 12.143 22H6a2 2 0 0 1-2-2V4a2 2 0 0 1 2-2h12a2 2 0 0 1 2 2z"/><path fill="#090404" d="M18 15.5a1 1 0 1 1 2 0c0 .883-.32 1.618-.88 2.152-.536.512-1.224.778-1.884.895a5.77 5.77 0 0 1-3.043-.326l-.557.557a11 11 0 0 1-7.259 3.208l-.03.003-.466.011-.001-.001-.023.001a1 1 0 0 1-.023-2l.468-.01a9 9 0 0 0 5.92-2.626l1.07-1.071.066-.06a1 1 0 0 1 1.197-.065c.512.341 1.495.558 2.334.41.402-.07.682-.211.85-.371.143-.137.261-.34.261-.707"/></svg>