<svg xmlns="http://www.w3.org/2000/svg" fill="none" viewBox="0 0 24 24"><path fill="#090404" d="M6.882 2.823c1.712-1.415 4.233-.924 5.333.859l.875-.723a3.33 3.33 0 0 1 4.645.402 3.25 3.25 0 0 1-.408 4.618l-.79.652c.381.192.73.461 1.022.805a3.24 3.24 0 0 1 .355 3.707c.475.192.913.494 1.271.906a3.306 3.306 0 0 1-.424 4.753l-1.774 1.428c-3.367 2.714-8.32 2.258-11.121-1.03a7.785 7.785 0 0 1 .755-10.883v-.002l-.735-4.003a1 1 0 0 1 .346-.952zm9.33 1.835a1.33 1.33 0 0 0-1.848-.157L8.122 9.663a5.79 5.79 0 0 0-.734 8.24c2.095 2.46 5.817 2.807 8.344.77l1.774-1.429c.587-.473.66-1.32.17-1.883a1.393 1.393 0 0 0-1.91-.163 1 1 0 1 1-1.25-1.56q.254-.203.534-.35a1 1 0 0 1 .238-.289l.589-.486a1.25 1.25 0 0 0 .159-1.78 1.33 1.33 0 0 0-1.836-.169l-.6.498a1 1 0 0 1-1.274-1.542l3.727-3.082a1.25 1.25 0 0 0 .159-1.78m-5.576.33c-.377-.966-1.636-1.32-2.48-.623l-.198.163.427 2.322z"/></svg>