<svg xmlns="http://www.w3.org/2000/svg" fill="none" viewBox="0 0 24 24"><path fill="#090404" d="M10 7a1 1 0 1 1 0 2H9a1 1 0 0 1 0-2z"/><path fill="#090404" d="M15 7a1 1 0 1 1 0 2h-1a1 1 0 1 1 0-2z"/><path fill="#090404" d="M10 11a1 1 0 1 1 0 2H9a1 1 0 1 1 0-2z"/><path fill="#090404" d="M15 11a1 1 0 1 1 0 2h-1a1 1 0 1 1 0-2z"/><path fill="#090404" d="M10 15a1 1 0 1 1 0 2H9a1 1 0 1 1 0-2z"/><path fill="#090404" d="M15 15a1 1 0 1 1 0 2h-1a1 1 0 1 1 0-2z"/><path fill="#090404" d="M21 19a1 1 0 1 1 0 2H3a1 1 0 1 1 0-2z"/><path fill="#090404" d="M18 20V5H6v15a1 1 0 1 1-2 0V5a2 2 0 0 1 2-2h12a2 2 0 0 1 2 2v15a1 1 0 1 1-2 0"/></svg>