<svg xmlns="http://www.w3.org/2000/svg" fill="none" viewBox="0 0 24 24"><path fill="#090404" d="M11 9V7.5A3.5 3.5 0 1 0 7.5 11H9a1 1 0 1 1 0 2H7.5a3.5 3.5 0 1 0 3.5 3.5V15a1 1 0 1 1 2 0v1.5a3.5 3.5 0 1 0 3.5-3.5H15a1 1 0 1 1 0-2h1.5A3.5 3.5 0 1 0 13 7.5V9a1 1 0 1 1-2 0m11-1.5a5.49 5.49 0 0 1-2.34 4.5A5.5 5.5 0 1 1 12 19.66 5.5 5.5 0 1 1 4.339 12 5.5 5.5 0 1 1 12 4.339 5.5 5.5 0 0 1 22 7.5"/><path fill="#090404" d="M14 12a2 2 0 1 0-4 0 2 2 0 0 0 4 0m2 0a4 4 0 1 1-8 0 4 4 0 0 1 8 0"/><path fill="#090404" d="M8.793 13.793a1 1 0 1 1 1.414 1.414l-1.5 1.5a1 1 0 1 1-1.414-1.414zm5 0a1 1 0 0 1 1.414 0l1.5 1.5a1 1 0 1 1-1.414 1.414l-1.5-1.5a1 1 0 0 1 0-1.414m-6.5-6.5a1 1 0 0 1 1.414 0l1.5 1.5a1 1 0 1 1-1.414 1.414l-1.5-1.5a1 1 0 0 1 0-1.414m8 0a1 1 0 1 1 1.414 1.414l-1.5 1.5a1 1 0 0 1-1.414-1.414z"/></svg>