<svg xmlns="http://www.w3.org/2000/svg" fill="none" viewBox="0 0 24 24"><path fill="#090404" d="M20.15 16c1.89 0 2.725 2.38 1.25 3.561l-2.5 2a2 2 0 0 1-1.25.439H6.351a2 2 0 0 1-1.249-.439l-2.5-2c-1.476-1.18-.641-3.56 1.25-3.561zM6.351 20h11.3l2.5-2H3.85z"/><path fill="#090404" d="M12 13.572c-2.329-.028-4.664.047-6.866.254-1.355.128-2.66-1.205-2-2.682l.183-.395c1.95-4.044 5.62-7.098 7.633-8.566l.127-.086C12.4 1.267 14 2.287 14 3.767v.366l.015.01c2.356 1.413 4.672 3.814 5.96 7.11.561 1.438-.677 2.72-2.01 2.608a84 84 0 0 0-3.965-.24V18h-2zm2-1.952c1.381.05 2.744.132 4.061.242A12.55 12.55 0 0 0 14 6.545zm-2-7.726c-2.004 1.479-5.32 4.332-6.98 7.934 2.251-.209 4.622-.284 6.98-.256z"/></svg>