<svg xmlns="http://www.w3.org/2000/svg" fill="none" viewBox="0 0 24 24"><path fill="#090404" d="M4 7v12h2V7zm4 12a2 2 0 0 1-2 2H4a2 2 0 0 1-2-2V7a2 2 0 0 1 2-2h2a2 2 0 0 1 2 2z"/><path fill="#090404" d="M17.024 5.689a2 2 0 0 1 2.45 1.414l2.911 10.867a2 2 0 0 1-1.414 2.45l-1.932.517a2 2 0 0 1-2.449-1.414L13.678 8.656a2 2 0 0 1 1.414-2.45zM15.61 8.138l2.912 10.867 1.931-.517L17.541 7.62z"/><path fill="#090404" d="M8 5v14h4V5zm6 14a2 2 0 0 1-2 2H8a2 2 0 0 1-2-2V5a2 2 0 0 1 2-2h4a2 2 0 0 1 2 2z"/><path fill="#090404" d="M14 7v2H6V7z"/><path fill="#090404" d="M14 15v2H6v-2z"/></svg>