<svg xmlns="http://www.w3.org/2000/svg" fill="none" viewBox="0 0 24 24"><path fill="#090404" d="M8 14V9a1 1 0 0 1 2 0v5h5a1 1 0 1 1 0 2h-5a2 2 0 0 1-2-2m12 0v-1a1 1 0 1 1 2 0v1a2 2 0 0 1-2 2h-1a1 1 0 1 1 0-2zm0-4V8a1 1 0 1 1 2 0v2a1 1 0 1 1-2 0M8 5V4a2 2 0 0 1 2-2h1a1 1 0 1 1 0 2h-1v1a1 1 0 0 1-2 0m12 0V4h-1a1 1 0 1 1 0-2h1a2 2 0 0 1 2 2v1a1 1 0 1 1-2 0m-4-3a1 1 0 1 1 0 2h-2a1 1 0 1 1 0-2z"/><path fill="#090404" d="M2 20v-1a1 1 0 1 1 2 0v1h1a1 1 0 1 1 0 2H4a2 2 0 0 1-2-2m8 0a1 1 0 1 1 0 2H8a1 1 0 1 1 0-2zm4 0v-1a1 1 0 1 1 2 0v1a2 2 0 0 1-2 2h-1a1 1 0 1 1 0-2zM2 16v-2a1 1 0 1 1 2 0v2a1 1 0 1 1-2 0m12-1v-5H9a1 1 0 0 1 0-2h5a2 2 0 0 1 2 2v5a1 1 0 1 1-2 0M2 11v-1a2 2 0 0 1 2-2h1a1 1 0 0 1 0 2H4v1a1 1 0 1 1-2 0"/></svg>