<svg xmlns="http://www.w3.org/2000/svg" fill="none" viewBox="0 0 24 24"><path fill="#090404" d="M2 20V10a2 2 0 0 1 2-2h5a1 1 0 0 1 0 2H4v10h10v-5a1 1 0 1 1 2 0v5a2 2 0 0 1-2 2H4a2 2 0 0 1-2-2"/><path fill="#090404" d="M8 14V9a1 1 0 0 1 2 0v5h5a1 1 0 1 1 0 2h-5a2 2 0 0 1-2-2m12 0v-1a1 1 0 1 1 2 0v1a2 2 0 0 1-2 2h-1a1 1 0 1 1 0-2zm0-4V8a1 1 0 1 1 2 0v2a1 1 0 1 1-2 0M8 5V4a2 2 0 0 1 2-2h1a1 1 0 1 1 0 2h-1v1a1 1 0 0 1-2 0m12 0V4h-1a1 1 0 1 1 0-2h1a2 2 0 0 1 2 2v1a1 1 0 1 1-2 0m-4-3a1 1 0 1 1 0 2h-2a1 1 0 1 1 0-2z"/></svg>