<svg xmlns="http://www.w3.org/2000/svg" fill="none" viewBox="0 0 24 24"><path fill="#090404" d="M6.587 4.742a.35.35 0 0 0 .155-.155l.448-.895a.347.347 0 0 1 .62 0l.448.895a.35.35 0 0 0 .155.155l.895.448a.347.347 0 0 1 0 .62l-.895.448a.35.35 0 0 0-.155.155l-.448.895a.347.347 0 0 1-.62 0l-.448-.895a.35.35 0 0 0-.155-.155l-.895-.448a.347.347 0 0 1 0-.62z"/><path fill="#090404" d="M11.859 3.053a.43.43 0 0 0 .194-.194l.56-1.12c.159-.319.615-.319.775 0l.56 1.12c.041.084.11.152.193.194l1.12.56c.319.159.319.615 0 .775l-1.12.56a.43.43 0 0 0-.194.193l-.56 1.12a.434.434 0 0 1-.775 0l-.56-1.12a.43.43 0 0 0-.193-.194l-1.12-.56a.434.434 0 0 1 0-.775z"/><path fill="#090404" d="M18 11H6v9h12zm2 9a2 2 0 0 1-2 2H6a2 2 0 0 1-2-2V10a1 1 0 0 1 1-1h14a1 1 0 0 1 1 1z"/><path fill="#090404" d="M14 13a1 1 0 1 1 0 2h-4a1 1 0 1 1 0-2z"/><path fill="#090404" d="M18.143 4.485a1 1 0 0 1 1.714 1.03l-2.7 4.5a1 1 0 0 1-1.715-1.03z"/></svg>