<svg xmlns="http://www.w3.org/2000/svg" fill="none" viewBox="0 0 24 24"><path fill="#090404" d="M3 9.5a4.5 4.5 0 0 1 3.858-4.455 1 1 0 0 1 .284 1.98 2.5 2.5 0 0 0-1.902 3.546 1 1 0 0 1-1.806.858A4.5 4.5 0 0 1 3 9.5"/><path fill="#090404" d="M19 9.5a2.5 2.5 0 0 0-2.141-2.474 1 1 0 0 1 .283-1.98 4.5 4.5 0 0 1 3.425 6.383 1 1 0 1 1-1.807-.858c.154-.323.24-.685.24-1.07"/><path fill="#090404" d="M2 14a4 4 0 0 1 2.667-3.772 1 1 0 1 1 .666 1.885 2.002 2.002 0 0 0 1.334 3.774 1 1 0 1 1 .666 1.885A4 4 0 0 1 2 14"/><path fill="#090404" d="M20 14c0-.87-.555-1.612-1.333-1.887a1 1 0 1 1 .666-1.885 4 4 0 0 1-2.666 7.544 1 1 0 0 1 .666-1.885q.312.111.667.113a2 2 0 0 0 2-2"/><path fill="#090404" d="M11 5.5a1.5 1.5 0 1 0-2.7.9 1 1 0 0 1-1.6 1.2A3.5 3.5 0 1 1 13 5.5a1 1 0 1 1-2 0"/><path fill="#090404" d="M16 5.5a1.5 1.5 0 0 0-3 0 1 1 0 1 1-2 0 3.5 3.5 0 1 1 6.3 2.1 1 1 0 0 1-1.6-1.2c.189-.251.3-.561.3-.9"/><path fill="#090404" d="M11 17.5v-12a1 1 0 1 1 2 0v12a1 1 0 1 1-2 0"/><path fill="#090404" d="M4 17.5a1 1 0 1 1 2 0 2.5 2.5 0 0 0 5 0 1 1 0 1 1 2 0 4.5 4.5 0 1 1-9 0"/><path fill="#090404" d="M11 17.5a1 1 0 1 1 2 0 2.5 2.5 0 0 0 5 0 1 1 0 1 1 2 0 4.5 4.5 0 1 1-9 0"/></svg>