<svg xmlns="http://www.w3.org/2000/svg" fill="none" viewBox="0 0 24 24"><path fill="#090404" d="m14.87 4.098-2.237.746c-.41.137-.855.137-1.266 0l-2.236-.746L6 6.055V7.5a2 2 0 0 1-.8 1.6L4 10v3l1.2.9a2 2 0 0 1 .8 1.6v2.445l3.13 1.957 2.237-.745c.41-.137.855-.137 1.266 0l2.236.745L18 17.945V15.5a2 2 0 0 1 .8-1.6L20 13v-3l-1.2-.9a2 2 0 0 1-.8-1.6V6.055zM20 7.5l1.2.9A2 2 0 0 1 22 10v3a2 2 0 0 1-.8 1.6l-1.2.9v2.445c0 .69-.356 1.331-.94 1.697l-3.13 1.957a2 2 0 0 1-1.693.2L12 21.055l-2.237.746a2 2 0 0 1-1.693-.201l-3.13-1.957A2 2 0 0 1 4 17.945V15.5l-1.2-.9A2 2 0 0 1 2 13v-3a2 2 0 0 1 .8-1.6L4 7.5V6.055a2 2 0 0 1 .94-1.697l3.13-1.957a2 2 0 0 1 1.693-.2L12 2.945l2.237-.746a2 2 0 0 1 1.693.201l3.13 1.957c.584.366.94 1.007.94 1.697z"/><path fill="#090404" d="M11 7.586V4.5a1 1 0 1 1 2 0v3.086l2.707 2.707a1 1 0 1 1-1.414 1.414L11.586 9A2 2 0 0 1 11 7.586"/><path fill="#090404" d="M11 19.5v-3.086l-2.707-2.707a1 1 0 1 1 1.414-1.414L12.414 15A2 2 0 0 1 13 16.414V19.5a1 1 0 1 1-2 0"/><path fill="#090404" d="M7 13a2 2 0 1 1 4 0 2 2 0 0 1-4 0"/><path fill="#090404" d="M13 11a2 2 0 1 1 4 0 2 2 0 0 1-4 0"/></svg>