<svg xmlns="http://www.w3.org/2000/svg" fill="none" viewBox="0 0 24 24"><path fill="#090404" d="M12.577 3c1.326.017 2.367.464 3.216 1.335l.013.003c.05.008.11.014.203.02.075.006.206.014.32.027h.002c1.523.174 2.521 1.104 3.132 2.298l.117.242c.12.265.328.433.81.829.436.357 1.053.882 1.353 1.793h-.001c.245.741.369 1.603.126 2.476l-.001.003a1 1 0 0 0-.018.366c.009.086.022.177.04.293.017.11.04.25.056.391.155 1.326-.182 2.558-1.11 3.557l-.002.002c-.345.368-.818.717-1.055.916-.617.52-1.362.936-2.259 1.055a3.8 3.8 0 0 1-1.918-.209c-.53.303-1.127.64-1.76.818-.813.228-1.665.2-2.646-.206a.3.3 0 0 0-.058.02c-.103.045-.261.157-.46.367-.395.42-.759 1.021-1.005 1.487A2.08 2.08 0 0 1 7.846 22h-.685c-1.274 0-2.131-1.145-1.878-2.339a4 4 0 0 0 .095-.642l-.001-.025c-.34-.395-.616-.718-.93-.98h-.001c-1.268-1.057-1.858-2.448-1.758-4.123l-.007-.022-.037-.111-.06-.172c-.067-.193-.14-.344-.253-.623a4 4 0 0 1-.272-.911c-.245-1.59.284-2.954 1.358-4.02l.003-.003a.8.8 0 0 0 .181-.258c.381-1.105.964-2.029 1.768-2.72.807-.693 1.788-1.108 2.897-1.269l.16-.018a5 5 0 0 1 1.001.026c.325.036.537.068.764.085.703-.511 1.524-.86 2.355-.875zm-.008 2c-.336.01-.804.176-1.3.563-.377.294-.83.33-1.085.318-.344-.018-.736-.076-.98-.104-.285-.032-.485-.04-.65-.015h-.002c-.78.113-1.396.39-1.88.806-.488.419-.892 1.02-1.18 1.856l-.001.002c-.146.42-.412.773-.667 1.025v.001c-.658.654-.927 1.392-.788 2.294.018.115.062.254.146.461.07.171.203.467.293.73l.125.368c.046.156.104.398.085.675-.07 1.074.268 1.852 1.04 2.497.253.21.488.446.701.678l.579.663.002.001c.368.43.378.986.37 1.258-.01.311-.064.64-.121.923h.59l.003-.001q.005 0 .014-.006a.13.13 0 0 0 .041-.047c.271-.511.736-1.305 1.32-1.923.48-.51 1.393-1.257 2.494-.946l.224.077.008.003c.591.248.987.235 1.35.133.443-.124.866-.38 1.572-.778l.155-.076a1.5 1.5 0 0 1 .447-.104c.17-.012.436 0 .703.137l.12.055c.285.118.596.148.959.1l.156-.028c.362-.08.715-.27 1.078-.576.415-.348.644-.497.882-.75.485-.523.681-1.152.587-1.961-.011-.095-.027-.19-.046-.315a7 7 0 0 1-.055-.41 2.9 2.9 0 0 1 .084-1.1q.153-.548-.099-1.31v-.002c-.108-.325-.316-.54-.721-.872-.359-.294-1.009-.768-1.363-1.545l-.155-.306c-.376-.666-.858-1.003-1.5-1.077-.06-.008-.12-.01-.238-.018a4 4 0 0 1-.387-.043c-.276-.046-.722-.16-1.076-.538-.47-.501-1.004-.759-1.834-.773"/></svg>