<svg xmlns="http://www.w3.org/2000/svg" fill="none" viewBox="0 0 24 24"><path fill="#090404" d="M11 7a1 1 0 1 1 2 0 2 2 0 0 0 2 2 1 1 0 1 1 0 2 4 4 0 0 1-4-4"/><path fill="#090404" d="M11 17a2 2 0 0 0-2-2 1 1 0 1 1 0-2 4 4 0 0 1 4 4 1 1 0 1 1-2 0"/><path fill="#090404" d="M11 20.242V3.535a1 1 0 1 1 2 0v16.707a1 1 0 1 1-2 0"/><path fill="#090404" d="M20 9.5a2.5 2.5 0 0 0-2.227-2.485 1 1 0 0 1-.864-.75A3.002 3.002 0 0 0 12.501 4.4c-.31.18-.692.18-1.002 0a3.002 3.002 0 0 0-4.408 1.864 1 1 0 0 1-.863.75 2.5 2.5 0 0 0-1.478 4.272 1 1 0 0 1 0 1.428 2.5 2.5 0 0 0 .635 4.024l.168.076.102.05c.232.127.406.343.48.6a3.502 3.502 0 0 0 5.308 1.947 1 1 0 0 1 1.114 0 3.502 3.502 0 0 0 5.309-1.946l.037-.108a1 1 0 0 1 .544-.543 2.502 2.502 0 0 0 .803-4.1 1 1 0 0 1 0-1.428A2.5 2.5 0 0 0 20 9.5m2 0a4.5 4.5 0 0 1-.76 2.5 4.495 4.495 0 0 1-1.599 6.454A5.5 5.5 0 0 1 14.5 22c-.9 0-1.749-.22-2.5-.605-.751.385-1.6.605-2.5.605a5.5 5.5 0 0 1-5.143-3.546A4.495 4.495 0 0 1 2.76 12a4.5 4.5 0 0 1 2.595-6.852A5 5 0 0 1 12 2.42a5 5 0 0 1 6.645 2.73A4.5 4.5 0 0 1 22 9.5"/></svg>