<svg xmlns="http://www.w3.org/2000/svg" fill="none" viewBox="0 0 24 24"><path fill="#090404" d="M7.5 6a1 1 0 1 0-2 0 1 1 0 0 0 2 0m2 0a3 3 0 1 1-6 0 3 3 0 0 1 6 0"/><path fill="#090404" d="M7.5 18a1 1 0 1 0-2 0 1 1 0 0 0 2 0m2 0a3 3 0 1 1-6 0 3 3 0 0 1 6 0"/><path fill="#090404" d="M18.5 6a1 1 0 1 0-2 0 1 1 0 0 0 2 0m2 0a3 3 0 1 1-6 0 3 3 0 0 1 6 0"/><path fill="#090404" d="M5.5 16V8a1 1 0 0 1 2 0v8a1 1 0 1 1-2 0"/><path fill="#090404" d="M5.5 16v-3a2 2 0 0 1 2-2h9V8a1 1 0 1 1 2 0v3a2 2 0 0 1-2 2h-9v3a1 1 0 1 1-2 0"/></svg>