<svg xmlns="http://www.w3.org/2000/svg" fill="none" viewBox="0 0 24 24"><path fill="#090404" d="M20 12.198c0-1.037-.195-1.582-.39-1.882-.185-.28-.44-.452-.827-.592a7 7 0 0 0-.684-.196c-.244-.06-.547-.129-.83-.21-.573-.167-1.275-.44-1.807-1.078-.524-.627-.768-1.306-.939-1.857-.187-.604-.272-.967-.459-1.308-.149-.272-.36-.51-.806-.702C12.77 4.164 11.974 4 10.643 4c-2.139 0-3.706.927-4.792 2.349-1.108 1.45-1.731 3.445-1.836 5.513-.104 2.07.316 4.108 1.171 5.622.846 1.498 2.068 2.42 3.623 2.518.242.015.565-.032 1.004-.152.447-.122.893-.282 1.444-.458 1.006-.323 2.331-.702 3.627-.359 1.458.387 2.429.381 3.073.194.599-.173 1-.528 1.299-1.082.318-.59.516-1.41.625-2.457.107-1.04.119-2.216.119-3.49m2 0c0 1.266-.01 2.54-.13 3.696-.119 1.147-.353 2.27-.854 3.2-.52.966-1.326 1.712-2.502 2.053-1.13.329-2.505.254-4.142-.18-.665-.176-1.467-.004-2.504.329-.471.151-1.026.346-1.529.483-.509.14-1.084.255-1.657.219-2.397-.152-4.151-1.606-5.238-3.53-1.077-1.907-1.545-4.338-1.426-6.706.12-2.37.834-4.782 2.244-6.627C5.695 3.259 7.831 2 10.643 2c1.462 0 2.564.176 3.403.535.878.377 1.42.936 1.772 1.578.314.573.48 1.242.615 1.677.151.487.3.854.563 1.168.147.176.382.308.83.438.229.067.458.119.747.189.272.066.583.146.892.259.636.23 1.319.617 1.817 1.376.485.74.718 1.716.718 2.978"/><path fill="#090404" d="M13 13a2 2 0 1 0-4 0 2 2 0 0 0 4 0m2 0a4 4 0 1 1-8 0 4 4 0 0 1 8 0"/></svg>