<svg xmlns="http://www.w3.org/2000/svg" fill="none" viewBox="0 0 24 24"><path fill="#090404" d="M20 12a8 8 0 1 0-16 0 8 8 0 0 0 16 0m2 0c0 5.523-4.477 10-10 10S2 17.523 2 12 6.477 2 12 2s10 4.477 10 10"/><path fill="#090404" d="M15.5 16.5c0-1.254-.43-1.905-1.017-2.357-.674-.52-1.611-.824-2.78-1.188-1.081-.336-2.394-.732-3.407-1.513C7.196 10.594 6.5 9.346 6.5 7.5A5.5 5.5 0 0 1 12 2a1 1 0 1 1 0 2 3.5 3.5 0 0 0-3.5 3.5c0 1.254.43 1.905 1.017 2.357.674.52 1.611.824 2.78 1.188 1.081.336 2.394.732 3.407 1.513 1.1.848 1.796 2.096 1.796 3.942A5.5 5.5 0 0 1 12 22a1 1 0 1 1 0-2 3.5 3.5 0 0 0 3.5-3.5"/></svg>