<svg xmlns="http://www.w3.org/2000/svg" fill="none" viewBox="0 0 24 24"><path fill="#090404" d="M10.044 4.051a7.005 7.005 0 0 1 9.905 9.906v-.002l-.737.748a1 1 0 0 1-1.424-1.405l.742-.752.004-.005a5.003 5.003 0 1 0-7.075-7.075l-.005.004-.752.742A1 1 0 0 1 9.298 4.79z"/><path fill="#090404" d="M4.788 9.298a1 1 0 0 1 1.424 1.404l-.742.752-.004.005a5.003 5.003 0 1 0 7.075 7.075l.005-.004.752-.742a1 1 0 0 1 1.404 1.424l-.747.736a7.003 7.003 0 1 1-9.904-9.904z"/><path fill="#090404" d="M1.03 5.758a1 1 0 0 1 1.212-.728l2 .5a1 1 0 1 1-.484 1.94l-2-.5a1 1 0 0 1-.728-1.212"/><path fill="#090404" d="M5.758 1.03a1 1 0 0 1 1.212.728l.5 2a1 1 0 1 1-1.94.484l-.5-2a1 1 0 0 1 .728-1.212"/><path fill="#090404" d="M19.03 17.258a1 1 0 0 1 1.212-.728l2 .5a1 1 0 1 1-.484 1.94l-2-.5a1 1 0 0 1-.728-1.212"/><path fill="#090404" d="M17.258 19.03a1 1 0 0 1 1.212.728l.5 2a1 1 0 1 1-1.94.484l-.5-2a1 1 0 0 1 .728-1.212"/></svg>