<svg xmlns="http://www.w3.org/2000/svg" fill="none" viewBox="0 0 24 24"><path fill="#090404" d="M21 16V8h-5a1 1 0 1 1 0-2h5a2 2 0 0 1 2 2v8a2 2 0 0 1-2 2h-5a1 1 0 1 1 0-2z"/><path fill="#090404" d="M1 16V8a2 2 0 0 1 2-2h5a1 1 0 0 1 0 2H3v8h5a1 1 0 1 1 0 2H3a2 2 0 0 1-2-2"/><path fill="#090404" d="M8.553 1.106a1 1 0 0 1 1.342.447l1 2a1 1 0 0 1-1.79.895l-1-2a1 1 0 0 1 .448-1.342"/><path fill="#090404" d="M14.106 1.553a1 1 0 0 1 1.789.895l-1 2a1 1 0 0 1-1.79-.895z"/><path fill="#090404" d="M9.105 19.553a1 1 0 0 1 1.79.895l-1 2a1 1 0 0 1-1.79-.895z"/><path fill="#090404" d="M13.553 19.106a1 1 0 0 1 1.342.447l1 2a1 1 0 0 1-1.79.895l-1-2a1 1 0 0 1 .448-1.342"/></svg>