<svg xmlns="http://www.w3.org/2000/svg" fill="none" viewBox="0 0 24 24"><path fill="#090404" d="M12 4.427c1.617-1.284 3.471-1.666 5.169-1.288 1.928.43 3.563 1.822 4.342 3.764 1.604 4-.494 9.69-9.022 14.47-.304.17-.675.17-.978 0-8.528-4.78-10.626-10.47-9.022-14.47.78-1.942 2.414-3.334 4.342-3.764 1.698-.378 3.552.004 5.169 1.288m4.734.664c-1.235-.275-2.7.045-4.012 1.37a9.2 9.2 0 0 0-1.532 2.315l2.517 2.517a1 1 0 0 1 .241 1.024l-1 3a1 1 0 1 1-1.896-.633l.803-2.414-2.562-2.563a1 1 0 0 1-.22-1.08c.4-.993.896-1.902 1.535-2.747-1.126-.833-2.314-1.018-3.342-.789-1.263.282-2.379 1.207-2.92 2.557C3.33 10.18 4.254 14.837 12 19.345c7.746-4.508 8.67-9.165 7.654-11.697-.541-1.35-1.657-2.275-2.92-2.557"/></svg>