<svg xmlns="http://www.w3.org/2000/svg" fill="none" viewBox="0 0 24 24"><path fill="#090404" d="M11.965 13.854q-.873 0-1.547-.298a2.6 2.6 0 0 1-1.06-.832 2 2 0 0 1-.181-.297c-.234-.47.215-.922.74-.922.453 0 .583 0 1.009.393q.054.05.103.107.14.15.358.242.258.108.585.108.33 0 .578-.116.254-.12.396-.324a.8.8 0 0 0 .138-.477.76.76 0 0 0-.153-.478 1 1 0 0 0-.444-.324 1.8 1.8 0 0 0-.671-.115h-.086a.656.656 0 0 1 0-1.313h.086q.34 0 .596-.112a.95.95 0 0 0 .407-.313.77.77 0 0 0 .141-.47.816.816 0 0 0-.47-.757 1.15 1.15 0 0 0-.51-.108q-.306 0-.556.108a.95.95 0 0 0-.391.306c-.434.459-.561.459-1.018.459-.495 0-.918-.423-.71-.873q.078-.172.192-.328.372-.522 1.014-.817.645-.294 1.469-.294.82 0 1.443.287.622.286.97.783.345.492.346 1.115.004.645-.421 1.062-.412.41-1.056.51a.034.034 0 0 0-.03.034c0 .018.014.032.03.034q.866.11 1.31.57.454.471.45 1.175 0 .665-.391 1.179-.388.51-1.081.805-.69.291-1.585.291"/><path fill="#090404" d="M18.5 10a6.5 6.5 0 1 0-13 0 6.5 6.5 0 0 0 13 0m2 0a8.5 8.5 0 1 1-17 0 8.5 8.5 0 0 1 17 0"/><path fill="#090404" d="M7 16.5a1 1 0 1 1 2 0v4.22l2.758-.69.12-.022a1 1 0 0 1 .364.022l2.758.69V16.5a1 1 0 1 1 2 0V22a1 1 0 0 1-1.242.97L12 22.03l-3.758.94A1 1 0 0 1 7 22z"/></svg>