<svg xmlns="http://www.w3.org/2000/svg" fill="none" viewBox="0 0 24 24"><path fill="#090404" d="M8.333 8.317a2 2 0 0 1 2.717-.778l8.213 4.548a2 2 0 0 1 .782 2.717l-1.212 2.183a1 1 0 0 1-1.359.39L7.51 11.863a1 1 0 0 1-.39-1.36zm1.02 2.28 8.215 4.545.726-1.307-8.212-4.547z"/><path fill="#090404" d="M14.9 3.649a3.266 3.266 0 0 1 4.418-1.24A3.257 3.257 0 0 1 20.59 6.84l-3.269 5.887-1.748-.972 3.269-5.885a1.26 1.26 0 0 0-.492-1.711 1.265 1.265 0 0 0-1.711.48l-3.318 5.827-1.737-.989z"/><path fill="#090404" d="m10.411 11.73-.646.763c-.914 1.078-1.938 1.836-3.135 2.229a6.5 6.5 0 0 1-2.267.301c.933 2.261 3.254 4.129 5.653 4.784 1.402.382 2.677.304 3.613-.214.895-.496 1.662-1.494 1.883-3.37l.117-.992 1.987.234-.118.993c-.279 2.369-1.325 4.013-2.9 4.885-1.533.849-3.384.864-5.108.393-3.397-.927-6.905-3.921-7.479-7.744a1 1 0 0 1 1.197-1.126c1.122.239 2.025.21 2.798-.044.77-.253 1.502-.759 2.234-1.622l.646-.762z"/></svg>