<svg xmlns="http://www.w3.org/2000/svg" fill="none" viewBox="0 0 24 24"><path fill="#090404" d="M12.085 2.5a2 2 0 0 1 2.83 0l3.292 3.293a1 1 0 0 1 .292.707v1h1l.1.005c.229.023.444.124.608.288L21.5 9.086a2 2 0 0 1 0 2.828l-6.667 6.668a1.885 1.885 0 0 1-2.665 0 1.65 1.65 0 0 0-2.334 0l-2.919 2.917a2 2 0 0 1-2.828.001L2.5 19.914a2 2 0 0 1 0-2.828l2.92-2.92a1.65 1.65 0 0 0-.002-2.334 1.884 1.884 0 0 1 0-2.664zm-5.173 8.001a3.65 3.65 0 0 1-.079 5.08l-2.919 2.92L5.5 20.084l2.92-2.918a3.65 3.65 0 0 1 5.077-.08l6.588-6.587-1-1H17.5a1 1 0 0 1-1-1V6.914l-3-3z"/><path fill="#090404" d="M7.793 6.793a1 1 0 0 1 1.414 0l8 8a1 1 0 1 1-1.414 1.414l-8-8a1 1 0 0 1 0-1.414"/></svg>