<svg xmlns="http://www.w3.org/2000/svg" fill="none" viewBox="0 0 24 24"><path fill="#090404" d="M8 12.5a.5.5 0 1 1 0-1 .5.5 0 0 1 0 1"/><path fill="#090404" d="M12 12.5a.5.5 0 1 1 0-1 .5.5 0 0 1 0 1"/><path fill="#090404" d="M16 12.5a.5.5 0 1 1 0-1 .5.5 0 0 1 0 1"/><path fill="#090404" d="M20 9a4 4 0 0 0-4-4H8a4 4 0 0 0-4 4v10h12a4 4 0 0 0 4-4zm2 6a6 6 0 0 1-6 6H3a1 1 0 0 1-1-1V9a6 6 0 0 1 6-6h8a6 6 0 0 1 6 6z"/><path fill="#090404" d="M8.5 12a.5.5 0 1 0-.6.49l.1.01a.5.5 0 0 0 .5-.5m4 0a.5.5 0 1 0-1 0 .5.5 0 0 0 1 0m4 0a.5.5 0 1 0-1 0 .5.5 0 0 0 1 0m-7.25 0a1.25 1.25 0 0 1-2.493.128L6.75 12l.007-.128A1.25 1.25 0 0 1 9.25 12m4 0a1.25 1.25 0 0 1-2.493.128L10.75 12l.007-.128A1.25 1.25 0 0 1 13.25 12m4 0a1.25 1.25 0 0 1-2.493.128L14.75 12l.007-.128A1.25 1.25 0 0 1 17.25 12"/></svg>