<svg xmlns="http://www.w3.org/2000/svg" fill="none" viewBox="0 0 24 24"><path fill="#090404" d="M20.5 12c0-2.233-.814-3.94-2.213-5.106C16.867 5.709 14.741 5 12 5s-4.866.709-6.287 1.894C4.314 8.06 3.5 9.767 3.5 12c0 .478.178 1.22.417 1.968.23.715.477 1.32.543 1.478l.018.042.035.09c.166.454.433 1.686-.41 3.383a3.7 3.7 0 0 0 1.038-.209 5 5 0 0 0 1.062-.519l.053-.036.007-.005a1 1 0 0 1 1.056-.077c1.33.7 2.976.885 4.681.885 2.741 0 4.866-.709 6.287-1.894C19.687 15.94 20.5 14.233 20.5 12m2 0c0 2.767-1.033 5.06-2.932 6.644C17.69 20.209 15.065 21 12 21c-1.619 0-3.441-.152-5.083-.864-.279.156-.663.347-1.12.506-.952.33-2.338.563-3.724-.094a1 1 0 0 1-.37-1.508c.689-.908.906-1.612.966-2.062.06-.454-.031-.704-.034-.711l-.001-.003-.008-.018-.012-.03a22 22 0 0 1-.601-1.638C1.77 13.818 1.5 12.817 1.5 12c0-2.767 1.033-5.06 2.933-6.644C6.31 3.791 8.936 3 12 3s5.69.791 7.568 2.356C21.467 6.94 22.5 9.233 22.5 12"/></svg>