<svg xmlns="http://www.w3.org/2000/svg" fill="none" viewBox="0 0 24 24"><path fill="#090404" d="m20.24 4.185-.696-1.812a.582.582 0 0 0-1.088 0l-.697 1.812a1 1 0 0 1-.574.575l-1.812.696a.582.582 0 0 0 0 1.088l1.812.696a1 1 0 0 1 .575.575l.696 1.812a.582.582 0 0 0 1.088 0l.697-1.812a1 1 0 0 1 .574-.575l1.812-.696a.582.582 0 0 0 0-1.088l-1.812-.696a1 1 0 0 1-.575-.575"/><path fill="#090404" d="M2.002 17.036V5a2 2 0 0 1 2-2h8a1 1 0 1 1 0 2h-8v12.036h4.65a2 2 0 0 1 1.285.467L12 19.233l2.099-1.737c.359-.297.81-.46 1.276-.46h4.626v-4.018a1 1 0 0 1 2 0v4.018a2 2 0 0 1-2 2h-4.626l-2.74 2.27a1 1 0 0 1-1.28-.004l-2.704-2.266h-4.65a2 2 0 0 1-2-2"/></svg>