<svg xmlns="http://www.w3.org/2000/svg" fill="none" viewBox="0 0 24 24"><path fill="#090404" d="m13.24 9.435-.698-1.812a.582.582 0 0 0-1.087 0l-.697 1.812a1 1 0 0 1-.574.574l-1.812.697a.582.582 0 0 0 0 1.088l1.812.697a1 1 0 0 1 .574.574l.697 1.812a.582.582 0 0 0 1.087 0l.697-1.812a1 1 0 0 1 .575-.574l1.811-.697a.582.582 0 0 0 0-1.088l-1.811-.697a1 1 0 0 1-.575-.574"/><path fill="#090404" d="M5.002 5v12.036h3.65a2 2 0 0 1 1.285.467L12 19.233l2.099-1.737c.359-.297.81-.46 1.276-.46h3.626V5zm16 12.036a2 2 0 0 1-2 2h-3.626l-2.74 2.27a1 1 0 0 1-1.28-.004l-2.704-2.266h-3.65a2 2 0 0 1-2-2V5a2 2 0 0 1 2-2h14a2 2 0 0 1 2 2z"/></svg>