<svg xmlns="http://www.w3.org/2000/svg" fill="none" viewBox="0 0 24 24"><path fill="#090404" d="M8 12a.5.5 0 1 1 0-1 .5.5 0 0 1 0 1"/><path fill="#090404" d="M12 12a.5.5 0 1 1 0-1 .5.5 0 0 1 0 1"/><path fill="#090404" d="M16 12a.5.5 0 1 1 0-1 .5.5 0 0 1 0 1"/><path fill="#090404" d="M5.002 5v14.695l2.227-1.391A2 2 0 0 1 8.289 18h10.713V5zm16 13a2 2 0 0 1-2 2H8.289l-3.757 2.348a1 1 0 0 1-1.53-.848V5a2 2 0 0 1 2-2h14a2 2 0 0 1 2 2z"/><path fill="#090404" d="M8.5 11.5a.5.5 0 1 0-.6.49L8 12a.5.5 0 0 0 .5-.5m4 0a.5.5 0 1 0-1 0 .5.5 0 0 0 1 0m4 0a.5.5 0 1 0-1 0 .5.5 0 0 0 1 0m-7.25 0a1.25 1.25 0 0 1-2.493.128L6.75 11.5l.007-.128a1.25 1.25 0 0 1 2.493.128m4 0a1.25 1.25 0 0 1-2.493.128l-.007-.128.007-.128a1.25 1.25 0 0 1 2.493.128m4 0a1.25 1.25 0 0 1-2.493.128l-.007-.128.007-.128a1.25 1.25 0 0 1 2.493.128"/></svg>