<svg xmlns="http://www.w3.org/2000/svg" fill="none" viewBox="0 0 24 24"><path fill="#090404" d="M9.523 8C8.406 8 7.5 8.91 7.5 10.033a2.028 2.028 0 0 0 2.81 1.874q-.072.132-.157.251c-.353.502-.875.885-1.554 1.34a.453.453 0 0 0-.125.626.45.45 0 0 0 .624.125c.67-.449 1.328-.913 1.79-1.569.474-.674.716-1.51.658-2.66A2.03 2.03 0 0 0 9.523 8"/><path fill="#090404" d="M14.468 8c-1.117 0-2.023.91-2.023 2.033a2.028 2.028 0 0 0 2.81 1.874q-.072.132-.156.251c-.353.502-.876.885-1.554 1.34a.453.453 0 0 0-.125.626.45.45 0 0 0 .623.125c.67-.449 1.328-.913 1.79-1.569.474-.674.717-1.51.658-2.66A2.03 2.03 0 0 0 14.468 8"/><path fill="#090404" d="M4.002 5v12.036h4.65a2 2 0 0 1 1.285.467L12 19.233l2.099-1.737c.358-.297.81-.46 1.276-.46h4.626V5zm18 12.036a2 2 0 0 1-2 2h-4.626l-2.74 2.27a1 1 0 0 1-1.28-.004L8.65 19.036H4.002a2 2 0 0 1-2-2V5a2 2 0 0 1 2-2h16a2 2 0 0 1 2 2z"/></svg>