<svg xmlns="http://www.w3.org/2000/svg" fill="none" viewBox="0 0 24 24"><path fill="#090404" d="M7.75 11.75a.5.5 0 1 1 0-1 .5.5 0 0 1 0 1"/><path fill="#090404" d="M12 11.75a.5.5 0 1 1 0-1 .5.5 0 0 1 0 1"/><path fill="#090404" d="M16.25 11.75a.5.5 0 1 1 0-1 .5.5 0 0 1 0 1"/><path fill="#090404" d="M5.002 5v12.036h3.65a2 2 0 0 1 1.285.467L12 19.233l2.099-1.737c.358-.297.81-.46 1.276-.46h3.626V5zm16 12.036a2 2 0 0 1-2 2h-3.626l-2.74 2.27a1 1 0 0 1-1.28-.004L8.65 19.036H5.002a2 2 0 0 1-2-2V5a2 2 0 0 1 2-2h14a2 2 0 0 1 2 2z"/><path fill="#090404" d="M8.25 11.25a.5.5 0 1 0-.6.49l.1.01a.5.5 0 0 0 .5-.5m4.25 0a.5.5 0 1 0-1 0 .5.5 0 0 0 1 0m4.25 0a.5.5 0 1 0-1 0 .5.5 0 0 0 1 0m-7.75 0a1.25 1.25 0 0 1-2.493.128L6.5 11.25l.007-.128A1.25 1.25 0 0 1 9 11.25m4.25 0a1.25 1.25 0 0 1-2.493.128l-.007-.128.007-.128a1.25 1.25 0 0 1 2.493.128m4.25 0a1.25 1.25 0 0 1-2.493.128L15 11.25l.007-.128a1.25 1.25 0 0 1 2.493.128"/></svg>