<svg xmlns="http://www.w3.org/2000/svg" fill="none" viewBox="0 0 24 24"><path fill="#090404" d="M12.571 7.571a.571.571 0 1 0-1.142 0c0 1.121-.249 1.798-.655 2.204-.405.405-1.082.654-2.203.654a.571.571 0 1 0 0 1.142c1.121 0 1.798.249 2.204.655.405.405.654 1.082.654 2.203a.571.571 0 1 0 1.142 0c0-1.121.249-1.798.655-2.203.405-.406 1.082-.655 2.203-.655a.571.571 0 1 0 0-1.142c-1.121 0-1.798-.249-2.203-.654-.406-.406-.655-1.083-.655-2.204"/><path fill="#090404" d="M5.002 5v12.036h3.65a2 2 0 0 1 1.285.467L12 19.233l2.099-1.737c.358-.297.81-.46 1.276-.46h3.626V5zm16 12.036a2 2 0 0 1-2 2h-3.626l-2.74 2.27a1 1 0 0 1-1.28-.004L8.65 19.036H5.002a2 2 0 0 1-2-2V5a2 2 0 0 1 2-2h14a2 2 0 0 1 2 2z"/></svg>