<svg xmlns="http://www.w3.org/2000/svg" fill="none" viewBox="0 0 24 24"><path fill="#090404" d="M7.5 12.5a.5.5 0 1 1 0-1 .5.5 0 0 1 0 1"/><path fill="#090404" d="M12 12.5a.5.5 0 1 1 0-1 .5.5 0 0 1 0 1"/><path fill="#090404" d="M16.5 12.5a.5.5 0 1 1 0-1 .5.5 0 0 1 0 1"/><path fill="#090404" d="M20 12a8 8 0 1 0-15.183 3.527c.144.293.197.635.127.974l-.666 3.242 3.373-.63c.283-.054.567-.022.82.076l.108.045.394.174A8 8 0 0 0 12 20a8 8 0 0 0 8-8m2 0c0 5.523-4.477 10-10 10a10 10 0 0 1-4.13-.895l-3.955.74A1.5 1.5 0 0 1 2.17 20.07l.782-3.81A10 10 0 0 1 2 12C2 6.477 6.477 2 12 2s10 4.477 10 10"/><path fill="#090404" d="M8 12a.5.5 0 1 0-.6.49l.1.01A.5.5 0 0 0 8 12m4.5 0a.5.5 0 1 0-1 0 .5.5 0 0 0 1 0m4.5 0a.5.5 0 1 0-1 0 .5.5 0 0 0 1 0m-8.25 0a1.25 1.25 0 0 1-2.493.128L6.25 12l.007-.128A1.25 1.25 0 0 1 8.75 12m4.5 0a1.25 1.25 0 0 1-2.493.128L10.75 12l.007-.128A1.25 1.25 0 0 1 13.25 12m4.5 0a1.25 1.25 0 0 1-2.493.128L15.25 12l.007-.128A1.25 1.25 0 0 1 17.75 12"/></svg>