<svg xmlns="http://www.w3.org/2000/svg" fill="none" viewBox="0 0 24 24"><path fill="#090404" d="M12 15a.5.5 0 1 1 0-1 .5.5 0 0 1 0 1"/><path fill="#090404" d="M5.002 5v12.036h3.65a2 2 0 0 1 1.285.467L12 19.233l2.099-1.737c.358-.297.81-.46 1.276-.46h3.626V5zm7.621 4.178a.507.507 0 0 0-.5-.515c-.267 0-.5.221-.5.515a1 1 0 0 1-2 0c0-1.38 1.11-2.515 2.5-2.515s2.5 1.135 2.5 2.515c0 1.128-.743 1.716-1.18 2.012-.138.094-.23.177-.294.263a.76.76 0 0 0-.138.359 1 1 0 0 1-1.978-.297c.159-1.055.778-1.634 1.286-1.979.157-.107.23-.175.267-.225a.2.2 0 0 0 .026-.048.3.3 0 0 0 .011-.085m8.379 7.858a2 2 0 0 1-2 2h-3.626l-2.74 2.27a1 1 0 0 1-1.28-.004L8.65 19.036H5.002a2 2 0 0 1-2-2V5a2 2 0 0 1 2-2h14a2 2 0 0 1 2 2z"/><path fill="#090404" d="M12.5 14.5a.5.5 0 1 0-.6.49l.1.01a.5.5 0 0 0 .5-.5m.75 0a1.25 1.25 0 0 1-2.493.128l-.007-.128.007-.128a1.25 1.25 0 0 1 2.493.128"/></svg>