<svg xmlns="http://www.w3.org/2000/svg" fill="none" viewBox="0 0 24 24"><path fill="#090404" d="M5.002 5v12.036h3.65a2 2 0 0 1 1.285.467L12 19.233l2.099-1.737c.358-.297.81-.46 1.276-.46h3.626V5zm16 12.036a2 2 0 0 1-2 2h-3.626l-2.74 2.27a1 1 0 0 1-1.28-.004L8.65 19.036H5.002a2 2 0 0 1-2-2V5a2 2 0 0 1 2-2h14a2 2 0 0 1 2 2z"/><path fill="#090404" d="M14.251 10.668c0-.508-.155-.794-.294-.942a.7.7 0 0 0-.513-.226 1.2 1.2 0 0 0-.754.265l.012-.012-.07.062a1 1 0 0 1-1.334-.061l.002.003.006.005.002.003-.024-.02a1.21 1.21 0 0 0-.73-.245.7.7 0 0 0-.512.226c-.14.148-.294.433-.294.942 0 .569.435 1.214 1.161 1.813.336.278.682.502.953.653l.137.071q.062-.031.137-.071c.271-.151.618-.375.954-.653.726-.6 1.16-1.244 1.161-1.813m-1.547-.917.001-.001h.001v-.001zm3.547.917c0 1.508-1.056 2.668-1.888 3.355a8.5 8.5 0 0 1-1.256.859c-.181.1-.351.185-.497.247q-.108.047-.224.086c-.043.014-.201.065-.387.065s-.343-.051-.386-.065a3 3 0 0 1-.225-.086 6 6 0 0 1-.496-.247 8.5 8.5 0 0 1-1.257-.859c-.832-.687-1.887-1.847-1.887-3.355 0-.936.297-1.736.835-2.31a2.7 2.7 0 0 1 1.972-.858c.6 0 1.09.167 1.444.345a3.2 3.2 0 0 1 1.445-.345c.72 0 1.439.29 1.972.858.538.574.835 1.374.835 2.31"/></svg>