<svg xmlns="http://www.w3.org/2000/svg" fill="none" viewBox="0 0 24 24"><path fill="#090404" d="M5.002 5v12.036h3.65a2 2 0 0 1 1.285.467L12 19.233l2.099-1.737c.358-.297.81-.46 1.276-.46h3.626V5zm8.291 3.293a1 1 0 0 1 1.414 1.414L13.414 11l1.293 1.293a1 1 0 0 1-1.414 1.414L12 12.414l-1.293 1.293a1 1 0 0 1-1.414-1.414L10.586 11 9.293 9.707a1 1 0 1 1 1.414-1.414L12 9.586zm7.709 8.743a2 2 0 0 1-2 2h-3.626l-2.74 2.27a1 1 0 0 1-1.28-.004L8.65 19.036H5.002a2 2 0 0 1-2-2V5a2 2 0 0 1 2-2h14a2 2 0 0 1 2 2z"/></svg>