<svg xmlns="http://www.w3.org/2000/svg" fill="none" viewBox="0 0 24 24"><path fill="#090404" d="M7.5 11.5a.5.5 0 1 1 0-1 .5.5 0 0 1 0 1"/><path fill="#090404" d="M12 11.5a.5.5 0 1 1 0-1 .5.5 0 0 1 0 1"/><path fill="#090404" d="M16.5 11.5a.5.5 0 1 1 0-1 .5.5 0 0 1 0 1"/><path fill="#090404" d="M4.002 5v12.036h4.65a2 2 0 0 1 1.285.467L12 19.233l2.099-1.737c.358-.297.81-.46 1.276-.46h4.626V5zm18 12.036a2 2 0 0 1-2 2h-4.626l-2.74 2.27a1 1 0 0 1-1.28-.004L8.65 19.036H4.002a2 2 0 0 1-2-2V5a2 2 0 0 1 2-2h16a2 2 0 0 1 2 2z"/><path fill="#090404" d="M8 11a.5.5 0 1 0-.6.49l.1.01A.5.5 0 0 0 8 11m4.5 0a.5.5 0 1 0-1 0 .5.5 0 0 0 1 0m4.5 0a.5.5 0 1 0-1 0 .5.5 0 0 0 1 0m-8.25 0a1.25 1.25 0 0 1-2.493.128L6.25 11l.007-.128A1.25 1.25 0 0 1 8.75 11m4.5 0a1.25 1.25 0 0 1-2.493.128L10.75 11l.007-.128A1.25 1.25 0 0 1 13.25 11m4.5 0a1.25 1.25 0 0 1-2.493.128L15.25 11l.007-.128A1.25 1.25 0 0 1 17.75 11"/></svg>