<svg xmlns="http://www.w3.org/2000/svg" fill="none" viewBox="0 0 24 24"><path fill="#090404" d="M10.5 13.75c0 .966-.672 1.75-1.5 1.75s-1.5-.784-1.5-1.75S8.172 12 9 12s1.5.784 1.5 1.75"/><path fill="#090404" d="M13.5 17c0 .552-.672 1-1.5 1s-1.5-.448-1.5-1 .672-1 1.5-1 1.5.448 1.5 1"/><path fill="#090404" d="M16.5 13.75c0 .966-.672 1.75-1.5 1.75s-1.5-.784-1.5-1.75S14.172 12 15 12s1.5.784 1.5 1.75"/><path fill="#090404" d="M19 13.5C19 9.97 15.928 7 12 7s-7 2.97-7 6.5S8.072 20 12 20s7-2.97 7-6.5m2 0c0 4.754-4.091 8.5-9 8.5s-9-3.746-9-8.5S7.091 5 12 5s9 3.746 9 8.5"/><path fill="#090404" d="M19.027 4.988a2.013 2.013 0 0 0-.27-.526c-.198-.274-.45-.462-.834-.462-.652 0-1.266.503-1.84 1.687-.549 1.131-.874 2.52-1.108 3.538a1 1 0 0 1-1.95-.45c.227-.982.595-2.594 1.258-3.962C14.921 3.498 16.036 2 17.923 2c1.23 0 2.018.687 2.454 1.288a4 4 0 0 1 .577 1.16l.008.029.003.01v.004l.002.002s0 .002-.76.202l.76-.2a1 1 0 1 1-1.94.493m.007.02.001.006-.001-.003z"/><path fill="#090404" d="M4.966 5.007v-.002a.999.999 0 1 1-1.933-.51l.76.2-.76-.2.001-.004.001-.004.003-.01.008-.029.027-.087a4.013 4.013 0 0 1 .55-1.073C4.06 2.687 4.847 2 6.077 2c1.887 0 3.002 1.498 3.64 2.813.663 1.368 1.031 2.98 1.258 3.962a1 1 0 0 1-1.95.45c-.234-1.018-.56-2.407-1.108-3.538C7.343 4.503 6.73 4 6.077 4c-.385 0-.636.188-.835.462a2 2 0 0 0-.27.526zm0 .004-.001.002v-.004z"/></svg>