<svg xmlns="http://www.w3.org/2000/svg" fill="none" viewBox="0 0 24 24"><path fill="#090404" d="M20 14.632V7.435c0-.181 0-.274-.005-.341v-.006l-.004-.003a7 7 0 0 0-.296-.172l-6.341-3.566c-.164-.092-.248-.14-.31-.17l-.007-.003-.004.004c-.061.034-.143.086-.3.188l-8.46 5.5c-.141.091-.213.139-.264.176l-.005.003v.005A7 7 0 0 0 4 9.368v7.196c0 .182.001.275.005.342v.005l.005.004c.057.037.138.083.296.172l6.34 3.566c.164.092.248.14.311.17l.005.002.006-.003c.061-.034.143-.086.3-.188l8.459-5.5c.142-.092.214-.14.265-.176l.003-.004.001-.004a6 6 0 0 0 .004-.318m2 0c0 .254.01.592-.088.913a2 2 0 0 1-.377.695c-.216.258-.505.433-.718.572l-8.46 5.499c-.235.153-.542.367-.9.459a2 2 0 0 1-.864.027c-.362-.068-.683-.263-.928-.4l-6.34-3.567c-.237-.133-.558-.301-.8-.565a2 2 0 0 1-.425-.725 2.5 2.5 0 0 1-.1-.757V9.368c0-.254-.01-.592.088-.913.078-.254.207-.491.377-.695.216-.258.505-.433.718-.572l8.46-5.499c.236-.153.543-.367.9-.459q.32-.081.648-.056l.217.03.133.03c.308.085.58.249.794.37l6.34 3.566c.238.133.56.301.8.565a2 2 0 0 1 .349.528l.077.197.036.129c.052.215.062.434.063.628z"/><path fill="#090404" d="M19.955 5.986a1 1 0 0 1 1.09 1.677l-9.5 6.175a1 1 0 0 1-1.035.033l-7.5-4.218a1 1 0 0 1 .98-1.744l6.972 3.922z"/><path fill="#090404" d="M20.455 10.161a1 1 0 0 1 1.09 1.678l-10 6.5a1 1 0 0 1-1.036.032l-8-4.5a1 1 0 1 1 .981-1.742l7.47 4.202z"/><path fill="#090404" d="M10 21v-8a1 1 0 1 1 2 0v8a1 1 0 1 1-2 0"/></svg>