<svg xmlns="http://www.w3.org/2000/svg" fill="none" viewBox="0 0 24 24"><path fill="#090404" d="M19 17H5v1.41c0 .291 0 .45.01.566v.012l.014.002c.115.01.275.01.566.01h12.82c.291 0 .45 0 .566-.01l.012-.002.002-.012c.01-.115.01-.274.01-.566zm2 1.41c0 .26 0 .512-.017.726-.018.224-.06.49-.194.758a2 2 0 0 1-.895.895 2 2 0 0 1-.758.194c-.214.017-.467.017-.726.017H5.59c-.26 0-.512 0-.726-.017a2 2 0 0 1-.758-.194 2 2 0 0 1-.895-.895 2 2 0 0 1-.194-.758C2.999 18.922 3 18.669 3 18.41V16a1 1 0 0 1 1-1h16a1 1 0 0 1 1 1z"/><path fill="#090404" d="M4 13v2h16v-2zm18 2a2 2 0 0 1-2 2H4a2 2 0 0 1-2-2v-2a2 2 0 0 1 2-2h16a2 2 0 0 1 2 2z"/><path fill="#090404" d="M19 11c0-2.363-1.124-3.816-2.554-4.723C14.966 5.34 13.163 5 12 5s-2.967.34-4.446 1.277C6.124 7.184 5 8.637 5 11zm2 0a2 2 0 0 1-2 2H5a2 2 0 0 1-2-2c0-3.15 1.567-5.197 3.482-6.412C8.348 3.405 10.545 3 12 3s3.652.405 5.518 1.588C19.433 5.803 21 7.849 21 11"/></svg>