<svg xmlns="http://www.w3.org/2000/svg" fill="none" viewBox="0 0 24 24"><path fill="#090404" d="M5 5v14h2v-1a1 1 0 0 1 1-1h8a1 1 0 0 1 1 1v1h2V5zm16 14a2 2 0 0 1-2 2h-2a2 2 0 0 1-2-2H9a2 2 0 0 1-2 2H5a2 2 0 0 1-2-2V5a2 2 0 0 1 2-2h14a2 2 0 0 1 2 2z"/><path fill="#090404" d="M20 11a1 1 0 1 1 0 2H4a1 1 0 1 1 0-2z"/><path fill="#090404" d="M8 14a1 1 0 1 1 0 2H7a1 1 0 1 1 0-2z"/><path fill="#090404" d="M17 14a1 1 0 1 1 0 2h-1a1 1 0 1 1 0-2z"/><path fill="#090404" d="M4 7a1 1 0 0 1 0 2H2a1 1 0 0 1 0-2z"/><path fill="#090404" d="M22 7a1 1 0 1 1 0 2h-2a1 1 0 1 1 0-2z"/><path fill="#090404" d="M14 5.5a1 1 0 1 1 0 2h-4a1 1 0 0 1 0-2z"/></svg>