<svg xmlns="http://www.w3.org/2000/svg" fill="none" viewBox="0 0 24 24"><path fill="#090404" d="M19 7a1 1 0 0 0-1-1H6a1 1 0 0 0-1 1v1h13a1 1 0 0 0 1-1m2 0a3 3 0 0 1-3 3H4a1 1 0 0 1-1-1V7a3 3 0 0 1 3-3h12a3 3 0 0 1 3 3"/><path fill="#090404" d="M19 12V9a1 1 0 1 1 2 0v3a1 1 0 1 1-2 0"/><path fill="#090404" d="M3 18V9a1 1 0 0 1 2 0v9a1 1 0 0 0 1 1h5a1 1 0 1 1 0 2H6a3 3 0 0 1-3-3"/><path fill="#090404" d="M7 5V3a1 1 0 0 1 2 0v2a1 1 0 0 1-2 0"/><path fill="#090404" d="M15 5V3a1 1 0 1 1 2 0v2a1 1 0 1 1-2 0"/><path fill="#090404" d="M20.219 15.375a1 1 0 0 1 1.562 1.25l-4 5a1 1 0 0 1-1.488.082l-2-2a1 1 0 1 1 1.414-1.414l1.209 1.209z"/></svg>