<svg xmlns="http://www.w3.org/2000/svg" fill="none" viewBox="0 0 24 24"><path fill="#090404" d="M5 6v2h14V6zm16 3a1 1 0 0 1-1 1H4a1 1 0 0 1-1-1V6a2 2 0 0 1 2-2h14a2 2 0 0 1 2 2z"/><path fill="#090404" d="M19 10V9a1 1 0 1 1 2 0v1a1 1 0 1 1-2 0"/><path fill="#090404" d="M3 19V9a1 1 0 0 1 2 0v10h5a1 1 0 1 1 0 2H5a2 2 0 0 1-2-2"/><path fill="#090404" d="M7 5V3a1 1 0 0 1 2 0v2a1 1 0 0 1-2 0"/><path fill="#090404" d="M15 5V3a1 1 0 1 1 2 0v2a1 1 0 1 1-2 0"/><path fill="#090404" d="M14.172 14.172a4 4 0 0 1 6.274 4.86l1.26 1.26a1 1 0 1 1-1.413 1.415l-1.261-1.26a4.001 4.001 0 0 1-4.86-6.275m4.242 1.414a2 2 0 1 0-2.828 2.828 2 2 0 0 0 2.828-2.828"/></svg>