<svg xmlns="http://www.w3.org/2000/svg" fill="none" viewBox="0 0 24 24"><path fill="#090404" d="M5 6v2h14V6zm16 4a1 1 0 1 1-2 0H5v9h6a1 1 0 1 1 0 2H5a2 2 0 0 1-2-2V6a2 2 0 0 1 2-2h14a2 2 0 0 1 2 2z"/><path fill="#090404" d="M7 5V3a1 1 0 0 1 2 0v2a1 1 0 0 1-2 0"/><path fill="#090404" d="M15 5V3a1 1 0 1 1 2 0v2a1 1 0 1 1-2 0"/><path fill="#090404" d="M18.586 14a2 2 0 0 1 2.828 0l.586.586a2 2 0 0 1 0 2.828l-4 4a2 2 0 0 1-1.414.586H15a1 1 0 0 1-1-1v-1.586A2 2 0 0 1 14.586 18zM16 20h.586l4-4-.586-.586-4 4z"/></svg>