<svg xmlns="http://www.w3.org/2000/svg" fill="none" viewBox="0 0 24 24"><path fill="#090404" d="M5 6v13h14V6zm16 13a2 2 0 0 1-2 2H5a2 2 0 0 1-2-2V6a2 2 0 0 1 2-2h14a2 2 0 0 1 2 2z"/><path fill="#090404" d="M7 5V3a1 1 0 0 1 2 0v2a1 1 0 0 1-2 0"/><path fill="#090404" d="M15 5V3a1 1 0 1 1 2 0v2a1 1 0 1 1-2 0"/><path fill="#090404" d="M13.5 12a1.75 1.75 0 1 0-3.5 0 1.75 1.75 0 0 0 3.5 0m2 0A3.75 3.75 0 1 1 8 12a3.75 3.75 0 0 1 7.5 0"/><path fill="#090404" d="M13.043 13.293a1 1 0 0 1 1.414 0l1.25 1.25a1 1 0 1 1-1.414 1.414l-1.25-1.25a1 1 0 0 1 0-1.414"/></svg>