<svg xmlns="http://www.w3.org/2000/svg" fill="none" viewBox="0 0 24 24"><path fill="#090404" d="M13 15v-2.293a.5.5 0 0 1 .854-.354l2.792 2.793a.5.5 0 0 1-.353.854H14a1 1 0 0 1-1-1"/><path fill="#090404" d="M21 19v2.293a.5.5 0 0 1-.853.353l-2.792-2.792a.5.5 0 0 1 .353-.854h2.293a1 1 0 0 1 1 1"/><path fill="#090404" d="M5 6v2h14V6zm16 3a1 1 0 0 1-1 1H4a1 1 0 0 1-1-1V6a2 2 0 0 1 2-2h14a2 2 0 0 1 2 2z"/><path fill="#090404" d="M3 19V9a1 1 0 0 1 2 0v10h5a1 1 0 1 1 0 2H5a2 2 0 0 1-2-2"/><path fill="#090404" d="M7 5V3a1 1 0 0 1 2 0v2a1 1 0 0 1-2 0"/><path fill="#090404" d="M15 5V3a1 1 0 1 1 2 0v2a1 1 0 1 1-2 0"/><path fill="#090404" d="M13.24 17.04a1 1 0 0 1 1.204.588l.1.299A2.63 2.63 0 0 0 17 19.625c.67 0 1.292-.25 1.765-.661a1 1 0 0 1 1.313 1.51 4.7 4.7 0 0 1-3.078 1.151 4.626 4.626 0 0 1-4.446-3.35 1 1 0 0 1 .685-1.236"/><path fill="#090404" d="M16.999 12.375a4.63 4.63 0 0 1 4.446 3.35 1 1 0 0 1-1.923.55 2.63 2.63 0 0 0-2.523-1.9c-.743 0-1.43.307-1.915.8a1 1 0 0 1-1.426-1.402A4.7 4.7 0 0 1 17 12.375"/></svg>