<svg xmlns="http://www.w3.org/2000/svg" fill="none" viewBox="0 0 24 24"><path fill="#090404" d="M5 6v2h14V6zm16 3a1 1 0 0 1-1 1H4a1 1 0 0 1-1-1V6a2 2 0 0 1 2-2h14a2 2 0 0 1 2 2z"/><path fill="#090404" d="M19 11V9a1 1 0 1 1 2 0v2a1 1 0 1 1-2 0"/><path fill="#090404" d="M3 19V9a1 1 0 0 1 2 0v10h6a1 1 0 1 1 0 2H5a2 2 0 0 1-2-2"/><path fill="#090404" d="M7 5V3a1 1 0 0 1 2 0v2a1 1 0 0 1-2 0"/><path fill="#090404" d="M15 5V3a1 1 0 1 1 2 0v2a1 1 0 1 1-2 0"/><path fill="#090404" d="M19.293 15.293a1 1 0 1 1 1.414 1.414L19.414 18l1.293 1.293a1 1 0 0 1-1.414 1.414L18 19.414l-1.293 1.293a1 1 0 1 1-1.414-1.414L16.586 18l-1.293-1.293a1 1 0 0 1 1.414-1.414L18 16.586z"/></svg>