<svg xmlns="http://www.w3.org/2000/svg" fill="none" viewBox="0 0 24 24"><path fill="#090404" d="M5 6v13h14V6zm16 13a2 2 0 0 1-2 2H5a2 2 0 0 1-2-2V6a2 2 0 0 1 2-2h14a2 2 0 0 1 2 2z"/><path fill="#090404" d="M7 5V3a1 1 0 0 1 2 0v2a1 1 0 0 1-2 0"/><path fill="#090404" d="M15 5V3a1 1 0 1 1 2 0v2a1 1 0 1 1-2 0"/><path fill="#090404" d="m14.642 8.01 3.308.472 1.308-.327a1 1 0 1 1 .485 1.94l-1.5.375a1 1 0 0 1-.384.02l-3.006-.43-.646.647a1 1 0 0 1-1.078.222l-2.16-.866-2.652.885a1 1 0 0 1-.59.014l-3.5-1a1 1 0 0 1 .548-1.924l3.203.916 2.706-.902a1 1 0 0 1 .688.02l1.887.755.534-.534.088-.078a1 1 0 0 1 .761-.205"/></svg>