<svg xmlns="http://www.w3.org/2000/svg" fill="none" viewBox="0 0 24 24"><path fill="#090404" d="M13.707 3.156a2 2 0 0 1 2.317 1.623l.348 1.968a2 2 0 0 1-1.623 2.318l-10.834 1.91 1.042 5.91 4.965-.877a1 1 0 0 1 .348 1.97l-4.965.875a2 2 0 0 1-2.317-1.622L1.25 7.383a2 2 0 0 1 1.623-2.317zM3.22 7.036l.348 1.97 10.833-1.911-.348-1.97z"/><path fill="#090404" d="M20.998 14a5 5 0 1 0-10 0 5 5 0 0 0 10 0m2 0a7 7 0 1 1-14 0 7 7 0 0 1 14 0"/><path fill="#090404" d="M14.998 12a1 1 0 0 1 2 0v1.586l1.374 1.374a1 1 0 0 1-1.414 1.414l-1.667-1.667a1 1 0 0 1-.293-.707z"/></svg>