<svg xmlns="http://www.w3.org/2000/svg" fill="none" viewBox="0 0 24 24"><path fill="#090404" d="M19 8V6.414l-3.293 3.293a1 1 0 0 1-1.415-1.414L17.585 5H16a1 1 0 0 1 0-2h4a1 1 0 0 1 1 1v4a1 1 0 1 1-2 0m-2.715 7.13-.765.764c-.595.594-1.54.782-2.331.34a14.06 14.06 0 0 1-5.424-5.424c-.441-.79-.254-1.736.34-2.33l.766-.765L8.056 5H5.034c.492 7.487 6.479 13.473 13.965 13.966v-3.022zM20.999 19c0 1.088-.895 2.04-2.061 1.968C10.394 20.44 3.56 13.605 3.033 5.062 2.96 3.895 3.912 3 4.999 3h3.057a2 2 0 0 1 1.915 1.426l.815 2.715a2 2 0 0 1-.501 1.989l-.75.747a12.06 12.06 0 0 0 4.586 4.586l.75-.748a2 2 0 0 1 1.988-.501l2.716.814a2 2 0 0 1 1.424 1.916z"/></svg>