<svg xmlns="http://www.w3.org/2000/svg" fill="none" viewBox="0 0 24 24"><path fill="#090404" d="m16.285 15.13-.765.764c-.594.594-1.54.782-2.33.34a14.06 14.06 0 0 1-5.424-5.424c-.442-.79-.254-1.736.34-2.33l.764-.765L8.056 5H5.034C5.526 12.487 11.513 18.473 19 18.966v-3.022zM21 19c0 1.088-.895 2.04-2.062 1.968C10.395 20.44 3.56 13.605 3.032 5.062 2.96 3.895 3.912 3 5 3h3.056a2 2 0 0 1 1.916 1.426l.814 2.715a2 2 0 0 1-.5 1.989l-.75.747a12.06 12.06 0 0 0 4.586 4.586l.748-.748a2 2 0 0 1 1.99-.501l2.714.814A2 2 0 0 1 21 15.944z"/></svg>