<svg xmlns="http://www.w3.org/2000/svg" fill="none" viewBox="0 0 24 24"><path fill="#090404" fill-rule="evenodd" d="M20.707 4.707a1 1 0 0 0-1.414-1.414l-8.457 8.457c-.49-.58-.927-1.206-1.302-1.872l.75-.749a2 2 0 0 0 .5-1.988L9.97 4.425A2 2 0 0 0 8.055 3H4.999c-1.089 0-2.04.895-1.968 2.062a16.93 16.93 0 0 0 4.261 10.232l-4 3.999a1 1 0 1 0 1.415 1.414zM8.71 13.877l.709-.709a14 14 0 0 1-1.654-2.357c-.441-.792-.254-1.737.34-2.331l.765-.765L8.055 5H5.03a14.94 14.94 0 0 0 3.678 8.877" clip-rule="evenodd"/><path fill="#090404" d="M18.999 18.967a14.9 14.9 0 0 1-7.271-2.451l-1.44 1.44a16.9 16.9 0 0 0 8.649 3.011c1.166.072 2.061-.879 2.061-1.967v-3.056a2 2 0 0 0-1.425-1.916l-2.715-.814a2 2 0 0 0-1.989.501l-.749.75q-.109-.062-.216-.126l-1.454 1.454q.362.232.738.441c.791.442 1.736.254 2.33-.34l.765-.764 2.715.814z"/></svg>