<svg xmlns="http://www.w3.org/2000/svg" fill="none" viewBox="0 0 24 24"><path fill="#090404" d="M2 19V8a2 2 0 0 1 2-2h3a1 1 0 0 1 0 2H4v11h16a1 1 0 1 1 0 2H4a2 2 0 0 1-2-2"/><path fill="#090404" d="M2.293 2.293a1 1 0 0 1 1.414 0l18 18a1 1 0 1 1-1.414 1.414l-18-18a1 1 0 0 1 0-1.414"/><path fill="#090404" d="M20 15V8h-2.965a2 2 0 0 1-1.664-.89L13.965 5H9.5a1 1 0 0 1 0-2h4.465a2 2 0 0 1 1.664.89L17.035 6H20a2 2 0 0 1 2 2v7a1 1 0 1 1-2 0"/><path fill="#090404" d="M8 13c0-1.184.516-2.25 1.333-2.981a1 1 0 0 1 1.334 1.49 2 2 0 1 0 2.824 2.824 1 1 0 0 1 1.49 1.334A4 4 0 0 1 8 13"/></svg>