<svg xmlns="http://www.w3.org/2000/svg" fill="none" viewBox="0 0 24 24"><path fill="#090404" d="m20.24 4.185-.696-1.812a.582.582 0 0 0-1.088 0l-.697 1.812a1 1 0 0 1-.574.575l-1.812.696a.582.582 0 0 0 0 1.088l1.812.696a1 1 0 0 1 .575.575l.696 1.812a.582.582 0 0 0 1.088 0l.697-1.812a1 1 0 0 1 .574-.575l1.812-.696a.582.582 0 0 0 0-1.088l-1.812-.696a1 1 0 0 1-.575-.575"/><path fill="#090404" d="M2 19V8a2 2 0 0 1 2-2h2.965L8.37 3.89A2 2 0 0 1 10.035 3H12a1 1 0 1 1 0 2h-1.965L8.63 7.11A2 2 0 0 1 6.965 8H4v11h16v-6a1 1 0 1 1 2 0v6a2 2 0 0 1-2 2H4a2 2 0 0 1-2-2"/><path fill="#090404" d="M14 13a2 2 0 1 0-4 0 2 2 0 0 0 4 0m2 0a4 4 0 1 1-8 0 4 4 0 0 1 8 0"/></svg>