<svg xmlns="http://www.w3.org/2000/svg" fill="none" viewBox="0 0 24 24"><path fill="#090404" d="M17.035 8a2 2 0 0 1-1.664-.89L13.965 5h-3.93L8.63 7.11A2 2 0 0 1 6.965 8H4v11h16V8zM22 19a2 2 0 0 1-2 2H4a2 2 0 0 1-2-2V8a2 2 0 0 1 2-2h2.965L8.37 3.89A2 2 0 0 1 10.035 3h3.93a2 2 0 0 1 1.664.89L17.035 6H20a2 2 0 0 1 2 2z"/><path fill="#090404" d="M9.29 10.793a1 1 0 0 1 1.415 0l4.002 4.002a1 1 0 0 1-1.414 1.414L9.29 12.207a1 1 0 0 1 0-1.414"/><path fill="#090404" d="M13.295 10.793a1 1 0 0 1 1.414 1.414l-4.002 4.002a1 1 0 0 1-1.414-1.414z"/></svg>