<svg xmlns="http://www.w3.org/2000/svg" fill="none" viewBox="0 0 24 24"><path fill="#090404" d="M16 12a4 4 0 1 0-8 0 4 4 0 0 0 8 0m2 0a6 6 0 1 1-12 0 6 6 0 0 1 12 0"/><path fill="#090404" d="M15.26 2.297c.741-.666 1.786-.537 2.444.006l.135.122 3.737 3.736c.684.685.865 1.94-.027 2.733-1.235 1.098-2.857 1.722-4.311 2.078a1 1 0 0 1-.475-1.944c1.242-.303 2.448-.792 3.33-1.522l-3.6-3.599c-.73.882-1.217 2.088-1.52 3.33a1 1 0 0 1-1.944-.474c.355-1.454.98-3.076 2.078-4.312z"/><path fill="#090404" d="M6.763 13.028a1 1 0 0 1 .475 1.944c-1.242.303-2.45.79-3.33 1.521l3.598 3.599c.73-.881 1.22-2.087 1.523-3.33a1 1 0 0 1 1.943.475c-.355 1.454-.98 3.076-2.078 4.312-.793.892-2.047.71-2.732.026L2.425 17.84c-.685-.685-.865-1.94.027-2.733l.236-.2c1.201-.975 2.712-1.545 4.075-1.878"/></svg>