<svg xmlns="http://www.w3.org/2000/svg" fill="none" viewBox="0 0 24 24"><path fill="#090404" d="M4.07 18.445c5.424-2.177 10.436-2.177 15.86 0a.1.1 0 0 0 .03.005.1.1 0 0 0 .03-.011q.01-.008.01-.01V13a8 8 0 1 0-16 0v5.429q0 .002.01.01.015.01.03.011.011.002.03-.005M22 18.43c0 1.485-1.521 2.392-2.814 1.873-4.947-1.985-9.425-1.985-14.372 0C3.521 20.82 2 19.914 2 18.429V13C2 7.477 6.477 3 12 3s10 4.477 10 10z"/><path fill="#090404" d="M3.094 13.859c6.132-2.728 11.68-2.728 17.813 0a1 1 0 1 1-.813 1.827c-5.614-2.498-10.573-2.498-16.187 0a1 1 0 0 1-.813-1.828"/><path fill="#090404" d="M7.75 12.5c0-3.792 1.632-7.27 2.72-8.626a1 1 0 1 1 1.56 1.252c-.816 1.015-2.28 4.056-2.28 7.374a1 1 0 0 1-2 0"/><path fill="#090404" d="M13.75 12.5c0-3.318-1.464-6.359-2.28-7.374a1 1 0 1 1 1.559-1.252c1.09 1.356 2.72 4.834 2.72 8.626a1 1 0 0 1-2 0"/></svg>