<svg xmlns="http://www.w3.org/2000/svg" fill="none" viewBox="0 0 24 24"><path fill="#090404" d="M12 10.35a1.5 1.5 0 1 1 0 3 1.5 1.5 0 0 1 0-3"/><path fill="#090404" d="M3 19v-3a1 1 0 1 1 2 0v3h3a1 1 0 1 1 0 2H5a2 2 0 0 1-2-2m16 0v-3a1 1 0 1 1 2 0v3a2 2 0 0 1-2 2h-3a1 1 0 1 1 0-2zM3 8V5a2 2 0 0 1 2-2h3a1 1 0 0 1 0 2H5v3a1 1 0 0 1-2 0m16 0V5h-3a1 1 0 1 1 0-2h3a2 2 0 0 1 2 2v3a1 1 0 1 1-2 0"/><path fill="#090404" d="M14.414 10A2 2 0 0 1 13 9.414L12.586 9h-1.172L11 9.414A2 2 0 0 1 9.586 10H9v4h6v-4zM17 14a2 2 0 0 1-2 2H9a2 2 0 0 1-2-2v-4a2 2 0 0 1 2-2h.586L10 7.586A2 2 0 0 1 11.414 7h1.172A2 2 0 0 1 14 7.586l.414.414H15a2 2 0 0 1 2 2z"/></svg>