<svg xmlns="http://www.w3.org/2000/svg" fill="none" viewBox="0 0 24 24"><path fill="#090404" d="M21 16v-5.153l-4.77-.794a2 2 0 0 1-1.27-.774L12.5 6H4.846L3.18 16H4.5a1 1 0 1 1 0 2H3.18a2 2 0 0 1-1.973-2.33l1.667-10A2 2 0 0 1 4.847 4h7.652c.63 0 1.223.296 1.601.8l2.459 3.28 4.77.794a2 2 0 0 1 1.67 1.973V16a2 2 0 0 1-2 2h-1.25a1 1 0 0 1 0-2z"/><path fill="#090404" d="M8.25 16.75a1.25 1.25 0 1 0-2.5 0 1.25 1.25 0 0 0 2.5 0m2 0a3.25 3.25 0 1 1-6.5 0 3.25 3.25 0 0 1 6.5 0"/><path fill="#090404" d="M18.25 16.75a1.25 1.25 0 1 0-2.5 0 1.25 1.25 0 0 0 2.5 0m2 0a3.25 3.25 0 1 1-6.5 0 3.25 3.25 0 0 1 6.5 0"/><path fill="#090404" d="M14.5 16a1 1 0 1 1 0 2h-5a1 1 0 1 1 0-2z"/></svg>