<svg xmlns="http://www.w3.org/2000/svg" fill="none" viewBox="0 0 24 24"><path fill="#090404" d="M13.993 10h-2.077l.287-2.062c.035-.254-.29-.39-.446-.186l-2.95 3.846a.25.25 0 0 0 .2.402h2.076l-.286 2.062c-.036.254.29.39.446.186l2.948-3.846a.25.25 0 0 0-.198-.402"/><path fill="#090404" d="M1 16V6a2 2 0 0 1 2-2h12.816a2 2 0 0 1 1.864 1.275l1.344 3.457 2.72 1.088A2 2 0 0 1 23 11.677V16a2 2 0 0 1-2 2h-1.25a1 1 0 1 1 0-2H21v-4.323l-2.718-1.087a2 2 0 0 1-1.122-1.132L15.816 6H3v10h1.5a1 1 0 1 1 0 2H3a2 2 0 0 1-2-2"/><path fill="#090404" d="M14.5 16a1 1 0 1 1 0 2h-5a1 1 0 1 1 0-2z"/><path fill="#090404" d="M8.25 16.75a1.25 1.25 0 1 0-2.5 0 1.25 1.25 0 0 0 2.5 0m2 0a3.25 3.25 0 1 1-6.5 0 3.25 3.25 0 0 1 6.5 0"/><path fill="#090404" d="M18.25 16.75a1.25 1.25 0 1 0-2.5 0 1.25 1.25 0 0 0 2.5 0m2 0a3.25 3.25 0 1 1-6.5 0 3.25 3.25 0 0 1 6.5 0"/></svg>