<svg xmlns="http://www.w3.org/2000/svg" fill="none" viewBox="0 0 24 24"><path fill="#090404" d="M9.772 9.104H7.88l.26-1.848c.033-.228-.263-.35-.406-.167l-2.687 3.447a.224.224 0 0 0 .181.36H7.12l-.26 1.848c-.033.228.263.35.406.168l2.687-3.448a.224.224 0 0 0-.181-.36"/><path fill="#090404" d="M21 16v-3.685L17.98 8H14a2 2 0 0 1-2-2H3v10h1.5a1 1 0 1 1 0 2H3a2 2 0 0 1-2-2V6a2 2 0 0 1 2-2h9a2 2 0 0 1 2 2h3.98c.652 0 1.264.319 1.638.854l3.02 4.314c.236.336.362.737.362 1.147V16a2 2 0 0 1-2 2h-1.5a1 1 0 1 1 0-2z"/><path fill="#090404" d="M12 16.5V7a1 1 0 1 1 2 0v9.5a1 1 0 1 1-2 0"/><path fill="#090404" d="M14.5 16a1 1 0 1 1 0 2h-5a1 1 0 1 1 0-2z"/><path fill="#090404" d="M8.25 16.75a1.25 1.25 0 1 0-2.5 0 1.25 1.25 0 0 0 2.5 0m2 0a3.25 3.25 0 1 1-6.5 0 3.25 3.25 0 0 1 6.5 0"/><path fill="#090404" d="M18.25 16.75a1.25 1.25 0 1 0-2.5 0 1.25 1.25 0 0 0 2.5 0m2 0a3.25 3.25 0 1 1-6.5 0 3.25 3.25 0 0 1 6.5 0"/></svg>