<svg xmlns="http://www.w3.org/2000/svg" fill="none" viewBox="0 0 24 24"><path fill="#090404" d="M13.993 10h-2.077l.287-2.062c.035-.254-.29-.39-.446-.186l-2.95 3.846a.25.25 0 0 0 .2.402h2.076l-.286 2.062c-.036.254.29.39.446.186l2.948-3.846a.25.25 0 0 0-.198-.402"/><path fill="#090404" d="M1 16v-5.465a2 2 0 0 1 .89-1.664L4.28 7.28 5.87 4.891A2 2 0 0 1 7.535 4H13.5a2 2 0 0 1 1.6.8l2.47 3.295 3.823.763A2 2 0 0 1 23 10.82V16a2 2 0 0 1-2 2h-1.5a1 1 0 1 1 0-2H21v-5.18l-3.821-.764a2 2 0 0 1-1.208-.762L13.5 6H7.535L5.943 8.389c-.146.22-.335.408-.554.554L3 10.535V16h1.5a1 1 0 1 1 0 2H3a2 2 0 0 1-2-2"/><path fill="#090404" d="M8.25 16.75a1.25 1.25 0 1 0-2.5 0 1.25 1.25 0 0 0 2.5 0m2 0a3.25 3.25 0 1 1-6.5 0 3.25 3.25 0 0 1 6.5 0"/><path fill="#090404" d="M18.25 16.75a1.25 1.25 0 1 0-2.5 0 1.25 1.25 0 0 0 2.5 0m2 0a3.25 3.25 0 1 1-6.5 0 3.25 3.25 0 0 1 6.5 0"/><path fill="#090404" d="M14.25 16a1 1 0 1 1 0 2h-4.5a1 1 0 1 1 0-2z"/></svg>