<svg xmlns="http://www.w3.org/2000/svg" fill="none" viewBox="0 0 24 24"><path fill="#090404" d="M13.993 10h-2.077l.287-2.062c.035-.254-.29-.39-.446-.186l-2.95 3.846a.25.25 0 0 0 .2.402h2.076l-.286 2.062c-.036.254.29.39.446.186l2.948-3.846a.25.25 0 0 0-.198-.402"/><path fill="#090404" d="M1 16v-4.418c0-2.242.679-4.14 1.895-5.491C4.115 4.734 5.819 4 7.712 4H13c.944 0 1.834.445 2.4 1.2l2.08 2.775c.058.077.143.13.238.149A6.57 6.57 0 0 1 23 14.567v1.507A1.926 1.926 0 0 1 21.074 18H18.5v-2H21v-1.433a4.57 4.57 0 0 0-3.675-4.482 2.4 2.4 0 0 1-1.444-.91L13.8 6.4A1 1 0 0 0 13 6H7.712c-1.355 0-2.508.516-3.331 1.43C3.553 8.35 3 9.742 3 11.582V16h1.5v2H3a2 2 0 0 1-2-2"/><path fill="#090404" d="M8.25 16.75a1.25 1.25 0 1 0-2.5 0 1.25 1.25 0 0 0 2.5 0m2 0a3.25 3.25 0 1 1-6.5 0 3.25 3.25 0 0 1 6.5 0"/><path fill="#090404" d="M18.25 16.75a1.25 1.25 0 1 0-2.5 0 1.25 1.25 0 0 0 2.5 0m2 0a3.25 3.25 0 1 1-6.5 0 3.25 3.25 0 0 1 6.5 0"/><path fill="#090404" d="M14.5 16v2h-5v-2z"/></svg>