<svg xmlns="http://www.w3.org/2000/svg" fill="none" viewBox="0 0 24 24"><path fill="#090404" d="M15.772 10.104H13.88l.26-1.848c.033-.228-.264-.35-.406-.167l-2.687 3.447a.224.224 0 0 0 .181.36h1.892l-.26 1.848c-.033.228.264.35.406.168l2.687-3.448a.224.224 0 0 0-.181-.36"/><path fill="#090404" d="M21 16v-5.219l-2.898-.724a2 2 0 0 1-1.115-.74L14.5 6H10v4a1 1 0 0 1-1 1H3v5h1.5a1 1 0 1 1 0 2H3a2 2 0 0 1-2-2v-5a2 2 0 0 1 2-2h5V5a1 1 0 0 1 1-1h5.5a2 2 0 0 1 1.6.8l2.487 3.316 2.898.725A2 2 0 0 1 23 10.78V16a2 2 0 0 1-2 2h-1.5a1 1 0 1 1 0-2z"/><path fill="#090404" d="M14.5 16a1 1 0 1 1 0 2h-5a1 1 0 1 1 0-2z"/><path fill="#090404" d="M8.25 16.75a1.25 1.25 0 1 0-2.5 0 1.25 1.25 0 0 0 2.5 0m2 0a3.25 3.25 0 1 1-6.5 0 3.25 3.25 0 0 1 6.5 0"/><path fill="#090404" d="M18.25 16.75a1.25 1.25 0 1 0-2.5 0 1.25 1.25 0 0 0 2.5 0m2 0a3.25 3.25 0 1 1-6.5 0 3.25 3.25 0 0 1 6.5 0"/></svg>