<svg xmlns="http://www.w3.org/2000/svg" fill="none" viewBox="0 0 24 24"><path fill="#090404" d="M13.993 10h-2.077l.287-2.062c.035-.254-.29-.39-.446-.186l-2.95 3.846a.25.25 0 0 0 .2.402h2.076l-.286 2.062c-.036.254.29.39.446.186l2.948-3.846a.25.25 0 0 0-.198-.402"/><path fill="#090404" d="M21 16v-2.43a3 3 0 0 0-.801-2.04l-4.246-4.571A3 3 0 0 0 13.756 6H4.847L3.18 16H4.5a1 1 0 1 1 0 2H3.18a2 2 0 0 1-1.973-2.33l1.667-10A2 2 0 0 1 4.847 4h8.908a5 5 0 0 1 3.664 1.598l4.244 4.57A5 5 0 0 1 23 13.57V16a2 2 0 0 1-2 2h-1.5a1 1 0 0 1 0-2z"/><path fill="#090404" d="M8.25 16.75a1.25 1.25 0 1 0-2.5 0 1.25 1.25 0 0 0 2.5 0m2 0a3.25 3.25 0 1 1-6.5 0 3.25 3.25 0 0 1 6.5 0"/><path fill="#090404" d="M18.25 16.75a1.25 1.25 0 1 0-2.5 0 1.25 1.25 0 0 0 2.5 0m2 0a3.25 3.25 0 1 1-6.5 0 3.25 3.25 0 0 1 6.5 0"/><path fill="#090404" d="M14.5 16a1 1 0 1 1 0 2h-5a1 1 0 1 1 0-2z"/></svg>