<svg xmlns="http://www.w3.org/2000/svg" fill="none" viewBox="0 0 24 24"><path fill="#090404" d="M16.465 6h-8.93L4 11.303V18h2v-1a1 1 0 0 1 1-1h10a1 1 0 0 1 1 1v1h2v-6.697zM22 18a2 2 0 0 1-2 2h-2a2 2 0 0 1-2-2H8a2 2 0 0 1-2 2H4a2 2 0 0 1-2-2v-6.697a2 2 0 0 1 .336-1.11L5.87 4.891A2 2 0 0 1 7.535 4h8.93a2 2 0 0 1 1.664.89l3.535 5.303a2 2 0 0 1 .336 1.11z"/><path fill="#090404" d="M3.5 9a1 1 0 0 1 0 2H2a1 1 0 1 1 0-2z"/><path fill="#090404" d="M22 9a1 1 0 1 1 0 2h-1.5a1 1 0 1 1 0-2z"/><path fill="#090404" d="M7 12a1 1 0 1 1 0 2H6a1 1 0 1 1 0-2z"/><path fill="#090404" d="M18 12a1 1 0 1 1 0 2h-1a1 1 0 1 1 0-2z"/></svg>