<svg xmlns="http://www.w3.org/2000/svg" fill="none" viewBox="0 0 24 24"><path fill="#090404" d="M13.99 14.49c.183.684-.13 1.363-.701 1.516-.57.152-1.181-.279-1.365-.963s.13-1.363.7-1.515c.571-.153 1.182.278 1.365.962"/><path fill="#090404" d="M20.184 12.83c.183.684-.13 1.363-.7 1.516-.571.152-1.182-.278-1.365-.963s.13-1.362.7-1.515 1.181.278 1.365.962"/><path fill="#090404" d="M18.068 16.496c.122.456-.333.974-1.018 1.157-.684.184-1.338-.037-1.46-.494-.122-.456.334-.974 1.018-1.157s1.338.037 1.46.494"/><path fill="#090404" d="m19 8.866-.858.835a1 1 0 0 1-.703.282 8.7 8.7 0 0 0-2.303.302 8.7 8.7 0 0 0-2.145.89c-.22.13-.483.17-.732.112l-2.766-.643.609 3.369c.03.167.017.34-.039.502-.265.774-.308 1.563-.105 2.319.23.856.756 1.593 1.516 2.166H19zM5 5v14h3.763a5.7 5.7 0 0 1-.737-1.648 5.9 5.9 0 0 1 .065-3.221l-.836-4.626a1 1 0 0 1 1.21-1.152l3.87.898c.702-.375 1.468-.68 2.283-.898.811-.218 1.622-.336 2.413-.363L19 6.077V5zm16 14a2 2 0 0 1-2 2H5a2 2 0 0 1-2-2V5a2 2 0 0 1 2-2h14a2 2 0 0 1 2 2z"/></svg>