<svg xmlns="http://www.w3.org/2000/svg" fill="none" viewBox="0 0 24 24"><path fill="#090404" d="M20 12a8 8 0 1 0-16 0 8 8 0 0 0 16 0m2 0c0 5.523-4.477 10-10 10S2 17.523 2 12 6.477 2 12 2s10 4.477 10 10"/><path fill="#090404" d="M16.194 13.636a1 1 0 0 1 1.863.727 6.52 6.52 0 0 1-3.693 3.694 1 1 0 0 1-.728-1.864 4.52 4.52 0 0 0 2.558-2.557M9.636 5.943a1 1 0 0 1 .728 1.864 4.52 4.52 0 0 0-2.557 2.556 1.001 1.001 0 0 1-1.863-.727 6.52 6.52 0 0 1 3.692-3.693"/><path fill="#090404" d="M13 12a1 1 0 1 0-2 0 1 1 0 0 0 2 0m2 0a3 3 0 1 1-6 0 3 3 0 0 1 6 0"/></svg>