<svg xmlns="http://www.w3.org/2000/svg" fill="none" viewBox="0 0 24 24"><path fill="#090404" d="M6.525 7.135a2 2 0 0 1 3.294-.731l7.778 7.778a2 2 0 0 1-.732 3.294L4.655 21.91c-1.596.579-3.142-.968-2.563-2.563zM3.97 20.03l12.212-4.434-7.778-7.778z"/><path fill="#090404" d="m12.233 5.357.018-.021q.025-.03.074-.097c.065-.088.154-.217.249-.372.198-.325.379-.705.442-1.049.069-.37.072-.781.052-1.12a6 6 0 0 0-.05-.504l-.004-.024v-.002a1 1 0 0 1 1.971-.337L14 2l.985-.168.001.003.001.005.002.013.007.046.021.156c.016.13.036.312.048.527a6.8 6.8 0 0 1-.082 1.6c-.128.689-.447 1.31-.701 1.726a7 7 0 0 1-.463.669l-.035.043-.01.014-.005.004-.002.002v.001L13 6l.766.641a1 1 0 1 1-1.533-1.283"/><path fill="#090404" d="M15.793 6.793a1 1 0 1 1 1.414 1.414l-1 1a1 1 0 1 1-1.414-1.414z"/><path fill="#090404" d="M17.81 3.161a1 1 0 0 1 1.881.678l-.45 1.25a1 1 0 0 1-1.88-.678z"/><path fill="#090404" d="M20.553 6.605a1 1 0 0 1 .895 1.79l-1 .5a1 1 0 0 1-.895-1.79z"/><path fill="#090404" d="m18.049 10 .01.002.036.002.116.008a7.8 7.8 0 0 1 1.594.305c.422.136.86.353 1.168.517.159.085.295.162.392.219q.074.043.115.069l.034.02.01.005.002.002.001.001a1 1 0 0 1-1.054 1.7l-.005-.003-.023-.014a10 10 0 0 0-.415-.235 5.5 5.5 0 0 0-.835-.375 5 5 0 0 0-1.146-.217L17.974 12l-.016-.001A1 1 0 0 1 18.042 10l-.035.833.036-.833z"/></svg>