<svg xmlns="http://www.w3.org/2000/svg" fill="none" viewBox="0 0 24 24"><path fill="#090404" d="M4.757 10.758a2 2 0 0 1 3.098.337l.79 1.233a4 4 0 0 1-.542 4.984l-1.406 1.405a1 1 0 0 1-1.55-.168l-1.459-2.281a4 4 0 0 1 .542-4.984zm.888 1.94a2 2 0 0 0-.271 2.492l.787 1.233.527-.526a2 2 0 0 0 .271-2.491l-.788-1.234z"/><path fill="#090404" d="M6.688 15.898a4 4 0 0 1 4.983-.543l1.233.79a2 2 0 0 1 .337 3.098l-.526.527a4 4 0 0 1-4.983.542l-2.282-1.46a1 1 0 0 1-.168-1.55zm3.906 1.143a2 2 0 0 0-2.491.27l-.527.526 1.234.79a2 2 0 0 0 2.49-.271l.527-.527z"/><path fill="#090404" d="M7.938 7.576a2 2 0 0 1 3.1.337l.788 1.234a4 4 0 0 1-.542 4.983L9.88 15.535a1 1 0 0 1-1.55-.168l-1.459-2.28a4 4 0 0 1 .542-4.984zm.888 1.94a2 2 0 0 0-.27 2.492l.787 1.233.527-.526a2 2 0 0 0 .27-2.491L9.354 8.99z"/><path fill="#090404" d="M9.871 12.716a4 4 0 0 1 4.983-.542l1.233.789a2 2 0 0 1 .337 3.098l-.527.527a4 4 0 0 1-4.982.542l-2.282-1.46a1 1 0 0 1-.168-1.549zm3.905 1.143a2 2 0 0 0-2.49.27l-.527.526 1.233.79a2 2 0 0 0 2.491-.271l.527-.527z"/><path fill="#090404" d="M11.121 4.394a2 2 0 0 1 3.099.337l.789 1.234a4 4 0 0 1-.542 4.983l-1.405 1.405a1 1 0 0 1-1.55-.168l-1.46-2.28a4 4 0 0 1 .543-4.984zm.888 1.94a2 2 0 0 0-.27 2.492l.786 1.233.528-.526a2 2 0 0 0 .27-2.491l-.788-1.234z"/><path fill="#090404" d="M13.053 9.534a4 4 0 0 1 4.982-.542l1.233.789a2 2 0 0 1 .337 3.098l-.526.527a4 4 0 0 1-4.982.542l-2.283-1.46a1 1 0 0 1-.168-1.549zm3.905 1.143a2 2 0 0 0-2.491.27l-.527.526 1.234.79a2 2 0 0 0 2.491-.271l.526-.527z"/><path fill="#090404" d="M15.359 4.399c1.023-1.023 2.515-1.36 4.205-1.206l.34.037.165.035a1 1 0 0 1 .701.83c.233 1.83-.078 3.455-1.169 4.546s-2.716 1.402-4.546 1.169a1 1 0 0 1-.865-.865c-.233-1.83.078-3.455 1.169-4.546m3.483.758c-1.033-.008-1.684.27-2.07.656-.384.385-.663 1.036-.655 2.07 1.033.007 1.685-.271 2.07-.656s.663-1.037.655-2.07"/><path fill="#090404" d="M5.636 16.95a1 1 0 0 1 1.414 1.414l-2.121 2.121a1 1 0 1 1-1.414-1.414z"/></svg>