<svg xmlns="http://www.w3.org/2000/svg" fill="none" viewBox="0 0 24 24"><path fill="#090404" d="M6.464 9.122a5 5 0 0 1 7.072 0l.343.342a5 5 0 0 1 1.425 2.912 1 1 0 0 1-1.984.249 3 3 0 0 0-.856-1.746l-.342-.343a3 3 0 0 0-4.243 0l-3.343 3.343a3 3 0 0 0 0 4.243l.343.343a3 3 0 0 0 4.243 0l.17-.172a1 1 0 0 1 1.415 1.414l-.171.171a5 5 0 0 1-7.072 0l-.342-.342a5 5 0 0 1 0-7.072z"/><path fill="#090404" d="M13.65 4.944a5 5 0 0 1 6.886.178l.342.343a5 5 0 0 1 0 7.071l-3.342 3.343a5 5 0 0 1-7.072 0l-.342-.343a5 5 0 0 1-1.426-2.911 1 1 0 0 1 1.984-.25c.08.64.365 1.256.856 1.747l.342.343a3 3 0 0 0 4.244 0l3.342-3.343a3 3 0 0 0 0-4.243l-.342-.343a3 3 0 0 0-4.244 0l-.17.17a1 1 0 0 1-1.415-1.413l.171-.171z"/></svg>