<svg xmlns="http://www.w3.org/2000/svg" fill="none" viewBox="0 0 24 24"><path fill="#090404" d="M7 4v5h10V4zm12 5a2 2 0 0 1-2 2H7a2 2 0 0 1-2-2V4a2 2 0 0 1 2-2h10a2 2 0 0 1 2 2z"/><path fill="#090404" d="M19 13a1 1 0 1 1 0 2H5a1 1 0 1 1 0-2z"/><path fill="#090404" d="M18 17a1 1 0 1 1 0 2H6a1 1 0 1 1 0-2z"/><path fill="#090404" d="M7 14v-4a1 1 0 0 1 2 0v4a1 1 0 1 1-2 0"/><path fill="#090404" d="M5 21v-7a1 1 0 1 1 2 0v7a1 1 0 1 1-2 0"/><path fill="#090404" d="M15 14v-4a1 1 0 1 1 2 0v4a1 1 0 1 1-2 0"/><path fill="#090404" d="M17 21v-7a1 1 0 1 1 2 0v7a1 1 0 1 1-2 0"/></svg>