<svg xmlns="http://www.w3.org/2000/svg" fill="none" viewBox="0 0 24 24"><path fill="#090404" d="M15.202 2a2 2 0 0 1 1.95 1.557l2.323 10.221a1 1 0 0 1-1.95.444L15.201 4H8.798L6.475 14.222a1 1 0 0 1-1.95-.444L6.846 3.557A2 2 0 0 1 8.797 2z"/><path fill="#090404" d="M3.03 13.758a1 1 0 0 1 1.212-.728c5.84 1.46 9.675 1.46 15.516 0a1 1 0 1 1 .484 1.94c-6.16 1.54-10.325 1.54-16.484 0a1 1 0 0 1-.728-1.212"/><path fill="#090404" d="M7.052 14.684a1 1 0 1 1 1.896.632l-2 6a1 1 0 0 1-1.896-.632z"/><path fill="#090404" d="M15.684 14.052a1 1 0 0 1 1.264.632l2 6a1 1 0 0 1-1.896.632l-2-6a1 1 0 0 1 .632-1.264"/></svg>