<svg xmlns="http://www.w3.org/2000/svg" fill="none" viewBox="0 0 24 24"><path fill="#090404" d="M4 5v12h16V5zm18 12a2 2 0 0 1-2 2H4a2 2 0 0 1-2-2V5a2 2 0 0 1 2-2h16a2 2 0 0 1 2 2z"/><path fill="#090404" d="M7 14v-1a1 1 0 1 1 2 0v1a1 1 0 1 1-2 0"/><path fill="#090404" d="M11 14V8a1 1 0 1 1 2 0v6a1 1 0 1 1-2 0"/><path fill="#090404" d="M15 14v-3a1 1 0 1 1 2 0v3a1 1 0 1 1-2 0"/><path fill="#090404" d="M14.87 17.538a1 1 0 0 1 1.237.688l.856 3a1 1 0 1 1-1.923.548l-.857-3a1 1 0 0 1 .688-1.236"/><path fill="#090404" d="M7.896 18.226a1 1 0 0 1 1.923.548l-.857 3a1 1 0 0 1-1.923-.548z"/></svg>