<svg xmlns="http://www.w3.org/2000/svg" fill="none" viewBox="0 0 24 24"><path fill="#090404" d="M9.314 6.917c0-.391-.48-.566-.722-.263l-2.4 2.999c-.217.272-.028.68.316.68h1.177v1.75c0 .391.48.566.723.263l2.399-2.999c.217-.272.028-.68-.316-.68H9.315z"/><path fill="#090404" d="M5 5v9h7V5zm0 14h7v-3H5zm9 1a1 1 0 0 1-1 1H4a1 1 0 0 1-1-1V5a2 2 0 0 1 2-2h7a2 2 0 0 1 2 2z"/><path fill="#090404" d="M20 19a1 1 0 1 1 0 2H4a1 1 0 1 1 0-2z"/><path fill="#090404" d="M16 15v-4a1 1 0 1 1 2 0v4h1V7.469l-2.64-2.2A1.001 1.001 0 0 1 17.64 3.73l2.64 2.2c.456.38.72.944.72 1.538V15a2 2 0 0 1-2 2h-1a2 2 0 0 1-2-2"/></svg>