<svg xmlns="http://www.w3.org/2000/svg" fill="none" viewBox="0 0 24 24"><path fill="#090404" d="M19 5H5v11h14zm2 11a2 2 0 0 1-2 2H5a2 2 0 0 1-2-2V5H2a1 1 0 0 1 0-2h20a1 1 0 1 1 0 2h-1z"/><path fill="#090404" d="M11 13V8a1 1 0 1 1 2 0v5a1 1 0 1 1-2 0"/><path fill="#090404" d="M7 13v-1a1 1 0 1 1 2 0v1a1 1 0 1 1-2 0"/><path fill="#090404" d="M15 13v-3a1 1 0 1 1 2 0v3a1 1 0 1 1-2 0"/><path fill="#090404" d="M11.777 16.668a1 1 0 0 1 1.387.277l1.667 2.5a1 1 0 0 1-1.664 1.11l-1.667-2.5a1 1 0 0 1 .277-1.387"/><path fill="#090404" d="M10.835 16.945a1 1 0 0 1 1.664 1.11l-1.667 2.5a1 1 0 1 1-1.664-1.11z"/></svg>