<svg xmlns="http://www.w3.org/2000/svg" fill="none" viewBox="0 0 24 24"><path fill="#090404" d="M20 16c0-2.122-1.923-4-4.5-4S11 13.878 11 16s1.923 4 4.5 4c.706 0 1.369-.144 1.958-.398a2.17 2.17 0 0 1 1.352-.127c.051.012.104.02.156.032-.07-.556.124-1.061.374-1.423A3.65 3.65 0 0 0 20 16m2 0a5.65 5.65 0 0 1-1.013 3.22.3.3 0 0 0-.026.044l-.004.01c.094.347.216.698.36 1.061a1 1 0 0 1-.987 1.37 12 12 0 0 1-1.973-.282.2.2 0 0 0-.106.016A6.9 6.9 0 0 1 15.5 22C12.002 22 9 19.401 9 16s3.002-6 6.5-6 6.5 2.599 6.5 6"/><path fill="#090404" d="M2 9.5C2 5.29 5.653 2 10 2c3.731 0 6.932 2.41 7.782 5.754a1 1 0 0 1-1.938.492C15.236 5.856 12.889 4 10 4 6.615 4 4 6.53 4 9.5c0 1.1.351 2.125.964 2.99.3.424.495 1.016.342 1.646q-.038.15-.08.3c.238-.043.474-.089.707-.146.478-.117.97-.059 1.395.136l.075.034a1 1 0 1 1-.806 1.83q-.051-.023-.1-.046a.14.14 0 0 0-.087-.013c-.83.204-1.682.331-2.572.385a1 1 0 0 1-.991-1.362c.207-.531.38-1.05.507-1.566l-.001-.007-.02-.034A7.14 7.14 0 0 1 2 9.5"/></svg>