<svg xmlns="http://www.w3.org/2000/svg" fill="none" viewBox="0 0 24 24"><path fill="#090404" d="M20 12c0-4.09-3.527-7.5-8-7.5S4 7.91 4 12c0 1.554.503 3 1.372 4.201.31.43.49 1.015.352 1.627-.078.343-.171.679-.27 1.012q.754-.117 1.479-.302a2.1 2.1 0 0 1 1.431.145A8.4 8.4 0 0 0 12 19.5c4.473 0 8-3.41 8-7.5m2 0c0 5.3-4.532 9.5-10 9.5-1.615 0-3.146-.365-4.501-1.015a.1.1 0 0 0-.068-.01c-1.085.28-2.2.451-3.37.523a1 1 0 0 1-.995-1.356c.29-.754.532-1.494.703-2.239l-.002-.005-.015-.025A9.14 9.14 0 0 1 2 12c0-5.3 4.532-9.5 10-9.5S22 6.7 22 12"/></svg>