<svg xmlns="http://www.w3.org/2000/svg" fill="none" viewBox="0 0 24 24"><path fill="#090404" d="M14.226 8.867a1 1 0 0 1 1.548 1.266l-4.5 5.5a1 1 0 0 1-1.481.074l-2-2a1 1 0 1 1 1.414-1.414l1.218 1.218z"/><path fill="#090404" d="M13.342 19.888a1 1 0 0 1 .333 1.972 10.1 10.1 0 0 1-3.35 0 1 1 0 0 1 .333-1.972 8 8 0 0 0 2.684 0M4.08 16.394a1 1 0 0 1 1.395.235 8 8 0 0 0 1.896 1.896 1 1 0 0 1-1.16 1.63 10 10 0 0 1-2.366-2.367 1 1 0 0 1 .235-1.394m14.445.235a1 1 0 0 1 1.63 1.16 10 10 0 0 1-2.367 2.366 1 1 0 0 1-1.16-1.63 8 8 0 0 0 1.897-1.896M2 12q.001-.856.14-1.675a1 1 0 0 1 1.972.333 8 8 0 0 0 0 2.684 1 1 0 0 1-1.972.333A10 10 0 0 1 2 12m18 0a8 8 0 0 0-.112-1.342 1 1 0 0 1 1.972-.333 10.1 10.1 0 0 1 0 3.35 1 1 0 0 1-1.972-.333A8 8 0 0 0 20 12M6.212 3.845a1 1 0 0 1 1.16 1.63A8 8 0 0 0 5.474 7.37a1 1 0 0 1-1.63-1.16 10 10 0 0 1 2.367-2.366m10.182.235a1 1 0 0 1 1.394-.235c.915.65 1.717 1.451 2.367 2.367a1 1 0 0 1-1.63 1.16 8 8 0 0 0-1.896-1.897 1 1 0 0 1-.235-1.395M12 2q.856.001 1.675.14a1 1 0 0 1-.333 1.972 8 8 0 0 0-2.684 0 1 1 0 0 1-.333-1.972Q11.144 2 12 2"/></svg>