<svg xmlns="http://www.w3.org/2000/svg" fill="none" viewBox="0 0 24 24"><path fill="#090404" d="M21 15a1 1 0 0 1 1 1c0 .452 0 .841-.021 1.162-.023.33-.072.66-.207.986a3 3 0 0 1-1.624 1.624 3.1 3.1 0 0 1-.986.207C18.842 20 18.452 20 18 20H6c-.452 0-.841 0-1.162-.021a3.1 3.1 0 0 1-.986-.207 3 3 0 0 1-1.623-1.624 3.1 3.1 0 0 1-.208-.986C2 16.842 2 16.452 2 16a1 1 0 0 1 1-1zM4.017 17.026c.015.228.042.315.06.357a1 1 0 0 0 .54.54c.042.018.129.045.357.06C5.21 18 5.52 18 6 18h12c.48 0 .79 0 1.026-.017.228-.015.315-.042.357-.06a1 1 0 0 0 .54-.54c.018-.042.045-.129.06-.357l.001-.026H4.016z"/><path fill="#090404" d="M16.115 11.702a4.9 4.9 0 0 1 3.77 0c.356.149.736.223 1.115.223a1.001 1.001 0 0 1-.001 2 4.9 4.9 0 0 1-1.884-.377 2.9 2.9 0 0 0-2.23 0 4.9 4.9 0 0 1-3.77 0 2.9 2.9 0 0 0-2.23 0 4.9 4.9 0 0 1-3.77 0 2.9 2.9 0 0 0-2.23 0A4.9 4.9 0 0 1 3 13.925a1 1 0 0 1 0-2c.38 0 .758-.074 1.115-.223a4.9 4.9 0 0 1 3.77 0 2.9 2.9 0 0 0 2.23 0 4.9 4.9 0 0 1 3.77 0 2.9 2.9 0 0 0 2.23 0"/><path fill="#090404" d="M12 4c1.54 0 3.9.219 5.911.866 1.003.323 1.99.776 2.745 1.418C21.431 6.944 22 7.846 22 9a1 1 0 0 1-1 1H3a1 1 0 0 1-1-1c0-1.154.57-2.056 1.344-2.716.754-.642 1.742-1.095 2.745-1.418C8.099 4.22 10.46 4 12 4m0 2c-1.405 0-3.545.206-5.298.77-.879.284-1.589.634-2.061 1.037-.075.063-.14.13-.202.193h15.122a3 3 0 0 0-.202-.193c-.472-.403-1.182-.753-2.061-1.036C15.545 6.206 13.406 6 12 6"/></svg>