<svg xmlns="http://www.w3.org/2000/svg" fill="none" viewBox="0 0 24 24"><path fill="#090404" d="M22 19a2 2 0 0 1-2 2H4a2 2 0 0 1-2-2V11.51a2 2 0 0 1 .823-1.617l4.09-2.973a1 1 0 1 1 1.175 1.617L4 11.51V19h16v-7.848c-1.066-3.324-2.861-5.466-5.895-6.993l-1.517 1.105a1 1 0 0 1-1.176-1.618l1.526-1.11.11-.075a1.97 1.97 0 0 1 1.8-.16l.129.058.329.17c3.355 1.773 5.413 4.312 6.6 8.02.064.199.094.403.094.603z"/><path fill="#090404" d="M21 11a1 1 0 1 1 0 2H3a1 1 0 1 1 0-2z"/><path fill="#090404" d="M15 15a1 1 0 1 1 0 2H3a1 1 0 1 1 0-2z"/><path fill="#090404" d="M11.5 6.5a1.5 1.5 0 1 0-3 0 1.5 1.5 0 0 0 3 0m2 0a3.5 3.5 0 1 1-7 0 3.5 3.5 0 0 1 7 0"/></svg>