<svg xmlns="http://www.w3.org/2000/svg" fill="none" viewBox="0 0 24 24"><path fill="#090404" d="M9.434 2.175A1 1 0 0 1 10.6 2.2c3.183 2.389 5.563 5.538 6.38 9.603a1 1 0 0 1-1.96.394c-.517-2.57-1.765-4.743-3.544-6.576.142 2.199-.349 4.273-1.619 6.393a1 1 0 1 1-1.715-1.028c1.495-2.494 1.704-4.847.895-7.715a1 1 0 0 1 .397-1.096"/><path fill="#090404" d="M20 16.25c0-1.78-.555-2.556-1.081-2.876-.566-.343-1.456-.383-2.548.054a1 1 0 0 1-.742 0c-1.092-.437-1.982-.397-2.548-.054-.526.32-1.081 1.096-1.081 2.876 0 2.143 1.722 3.75 4 3.75s4-1.607 4-3.75m2 0c0 3.38-2.755 5.75-6 5.75s-6-2.37-6-5.75c0-2.167.695-3.767 2.044-4.586 1.195-.725 2.642-.67 3.956-.227 1.314-.444 2.76-.498 3.956.227 1.349.82 2.044 2.419 2.044 4.586"/><path fill="#090404" d="M4.816 11.074c1.275-.592 2.751-.435 4.215.537 1.1-.07 2.202.117 3.098.696a1 1 0 0 1-1.087 1.68c-.488-.316-1.234-.467-2.168-.356a1 1 0 0 1-.718-.193c-1.12-.838-1.943-.807-2.497-.55-.623.29-1.186.994-1.473 1.98-.284.973-.252 2.077.157 3 .395.892 1.16 1.663 2.471 2.015 1.658.444 3.247-.085 4.155-1.223a1 1 0 1 1 1.563 1.247c-1.448 1.816-3.881 2.538-6.235 1.907-1.905-.51-3.147-1.7-3.783-3.137-.623-1.407-.647-3.001-.248-4.368.394-1.354 1.251-2.631 2.55-3.235"/><path fill="#090404" d="M18 4V3h-1a2 2 0 0 0-2 2v1h1a2 2 0 0 0 2-2m2 0a4 4 0 0 1-4 4h-1.5a1 1 0 0 1-.99-1.13A1 1 0 0 1 13 6V5a4 4 0 0 1 4-4h1a2 2 0 0 1 2 2z"/></svg>