<svg xmlns="http://www.w3.org/2000/svg" fill="none" viewBox="0 0 24 24"><path fill="#090404" d="M11 3.01V3a1 1 0 1 1 2 0v.01a1 1 0 1 1-2 0"/><path fill="#090404" d="M11 21.01V21a1 1 0 1 1 2 0v.01a1 1 0 1 1-2 0"/><path fill="#090404" d="M14.522 3.303a1 1 0 0 1 1.848.766l-.004.008a1 1 0 0 1-1.848-.764z"/><path fill="#090404" d="M7.634 19.933a1 1 0 0 1 1.848.765l-.004.01a1 1 0 0 1-1.848-.765z"/><path fill="#090404" d="M17.66 4.93a1 1 0 0 1 1.414 1.415l-.006.006a1 1 0 1 1-1.415-1.414z"/><path fill="#090404" d="M4.932 17.658a1 1 0 0 1 1.414 1.414l-.006.007a1 1 0 1 1-1.414-1.414z"/><path fill="#090404" d="M19.937 7.636a1 1 0 1 1 .765 1.848l-.009.003a1 1 0 0 1-.765-1.847z"/><path fill="#090404" d="M3.307 14.524a1 1 0 1 1 .765 1.847l-.009.004a1 1 0 0 1-.765-1.848z"/><path fill="#090404" d="M3.005 11.005a1 1 0 1 1 0 2h-.01a1 1 0 1 1 0-2z"/><path fill="#090404" d="M21.005 11.005a1 1 0 1 1 0 2h-.01a1 1 0 1 1 0-2z"/><path fill="#090404" d="M4.926 4.93a1 1 0 0 1 1.414 0l.007.007a1 1 0 1 1-1.414 1.414l-.007-.006a1 1 0 0 1 0-1.414"/><path fill="#090404" d="M17.654 17.658a1 1 0 0 1 1.414 0l.007.007a1 1 0 1 1-1.414 1.414l-.007-.007a1 1 0 0 1 0-1.414"/><path fill="#090404" d="M2.757 8.176a1 1 0 0 1 1.307-.541l.008.004a1 1 0 0 1-.764 1.848l-.01-.004a1 1 0 0 1-.541-1.307"/><path fill="#090404" d="M19.387 15.065a1 1 0 0 1 1.306-.541l.01.004a1 1 0 1 1-.765 1.847l-.01-.004a1 1 0 0 1-.541-1.306"/><path fill="#090404" d="M8.171 2.762a1 1 0 0 1 1.307.541l.004.01a1 1 0 1 1-1.848.764L7.63 4.07a1 1 0 0 1 .541-1.307"/><path fill="#090404" d="M15.06 19.392a1 1 0 0 1 1.306.54l.004.01a1 1 0 1 1-1.848.765l-.004-.009a1 1 0 0 1 .541-1.306"/></svg>