<svg xmlns="http://www.w3.org/2000/svg" fill="none" viewBox="0 0 24 24"><path fill="#090404" d="M2 12a9.97 9.97 0 0 1 2.778-6.916 1 1 0 1 1 1.444 1.382A7.97 7.97 0 0 0 4 12a8 8 0 0 0 8 8 7.97 7.97 0 0 0 5.533-2.222 1 1 0 0 1 1.384 1.444A9.97 9.97 0 0 1 12 22C6.477 22 2 17.522 2 12"/><path fill="#090404" d="M20 12a8 8 0 0 0-8-8 8 8 0 0 0-2.555.416 1 1 0 1 1-.638-1.895A10 10 0 0 1 12 2c5.523 0 10 4.477 10 10 0 1.115-.183 2.19-.52 3.193a1.001 1.001 0 0 1-1.896-.638c.27-.801.416-1.66.416-2.555"/><path fill="#090404" d="M3.043 3.043a1 1 0 0 1 1.414 0l16.5 16.5a1 1 0 1 1-1.414 1.414l-16.5-16.5a1 1 0 0 1 0-1.414"/></svg>