<svg xmlns="http://www.w3.org/2000/svg" fill="none" viewBox="0 0 24 24"><path fill="#090404" d="M12 8.5a.5.5 0 1 1 0-1 .5.5 0 0 1 0 1"/><path fill="#090404" d="M12 12.5a.5.5 0 1 1 0-1 .5.5 0 0 1 0 1"/><path fill="#090404" d="M12 16.5a.5.5 0 1 1 0-1 .5.5 0 0 1 0 1"/><path fill="#090404" d="M20 12a8 8 0 1 0-16 0 8 8 0 0 0 16 0m2 0c0 5.523-4.477 10-10 10S2 17.523 2 12 6.477 2 12 2s10 4.477 10 10"/><path fill="#090404" d="M12.5 8a.5.5 0 1 0-.6.49l.1.01a.5.5 0 0 0 .5-.5m.75 0a1.25 1.25 0 0 1-2.493.128L10.75 8l.007-.128A1.25 1.25 0 0 1 13.25 8"/><path fill="#090404" d="M12.5 12a.5.5 0 1 0-.6.49l.1.01a.5.5 0 0 0 .5-.5m.75 0a1.25 1.25 0 0 1-2.493.128L10.75 12l.007-.128A1.25 1.25 0 0 1 13.25 12"/><path fill="#090404" d="M12.5 16a.5.5 0 1 0-.6.49l.1.01a.5.5 0 0 0 .5-.5m.75 0a1.25 1.25 0 0 1-2.493.128L10.75 16l.007-.128A1.25 1.25 0 0 1 13.25 16"/></svg>