<svg xmlns="http://www.w3.org/2000/svg" fill="none" viewBox="0 0 24 24"><path fill="#090404" d="M6.89 3.535 6.408 2.28a.437.437 0 0 0-.816 0L5.11 3.535a1 1 0 0 1-.575.575l-1.255.482a.437.437 0 0 0 0 .816l1.255.482a1 1 0 0 1 .575.575l.482 1.255a.437.437 0 0 0 .816 0l.482-1.255a1 1 0 0 1 .575-.575l1.255-.482a.437.437 0 0 0 0-.816L7.465 4.11a1 1 0 0 1-.575-.575"/><path fill="#090404" d="M5.363 8.5c1.127 0 2.11.767 2.383 1.86l.09.365.98.327.109.043a1 1 0 0 1 .523.589l.326.98 1.468.366a1 1 0 1 1-.485 1.94l-2-.5a1 1 0 0 1-.706-.654l-.343-1.027-1.024-.34a1 1 0 0 1-.655-.707l-.223-.896a.46.46 0 0 0-.443-.346.36.36 0 0 0-.227.071.14.14 0 0 0-.057.102c-.061.664-.048 1.566.251 2.467.286.86 1.05 1.863 1.84 2.714a19 19 0 0 0 1.402 1.359q.015.012.02.017l.005.003a1 1 0 0 1-1.202 1.595l-.082-.061v-.001l-.003-.002-.008-.007-.029-.025-.1-.087a20.586 20.586 0 0 1-1.47-1.43c-.818-.883-1.842-2.152-2.271-3.446-.415-1.248-.421-2.449-.344-3.28C3.204 9.234 4.296 8.5 5.363 8.5"/><path fill="#090404" d="M9.683 2.552c2.563-.859 4.838-.575 6.681.545 1.812 1.101 3.103 2.946 3.88 5.04 1.54 4.155 1.191 9.669-1.598 13.456a1 1 0 0 1-.805.407H9.687a1 1 0 0 1-.541-.159l.54-.84-.541.839h-.002l-.004-.004q-.005-.002-.01-.006l-.026-.017-.078-.056a5.027 5.027 0 0 1-.93-.918 4.74 4.74 0 0 1-1.013-2.936 1 1 0 0 1 .318-.732l3.264-3.037.378-2.709-.754-1.158a1 1 0 0 1-.134-.783l.33-1.354-.641-.53a1 1 0 0 1-.32-1.06l.277-.92-.723-1.735a1 1 0 0 1 .606-1.333m5.642 2.254c-1.066-.648-2.379-.939-3.962-.634l.421 1.008a1 1 0 0 1 .034.674l-.19.628.614.506a1 1 0 0 1 .334 1.008L12.2 9.537l.724 1.109a1 1 0 0 1 .152.684l-.48 3.433a1 1 0 0 1-.309.594l-3.173 2.952c.08.556.316.988.56 1.303.13.167.26.295.364.388h7.28c2.068-3.15 2.34-7.687 1.05-11.168-.667-1.8-1.718-3.222-3.042-4.026"/></svg>