<svg xmlns="http://www.w3.org/2000/svg" fill="none" viewBox="0 0 24 24"><path fill="#090404" d="m19.24 16.185-.696-1.812a.582.582 0 0 0-1.088 0l-.697 1.812a1 1 0 0 1-.574.575l-1.812.696a.582.582 0 0 0 0 1.088l1.812.697a1 1 0 0 1 .575.574l.696 1.812a.582.582 0 0 0 1.088 0l.697-1.812a1 1 0 0 1 .574-.575l1.812-.696a.582.582 0 0 0 0-1.088l-1.812-.697a1 1 0 0 1-.575-.574"/><path fill="#090404" d="M9 4v2h6V4zm8 3a1 1 0 0 1-1 1H8a1 1 0 0 1-1-1V4a2 2 0 0 1 2-2h6a2 2 0 0 1 2 2z"/><path fill="#090404" d="M3 20V6a2 2 0 0 1 2-2h3a1 1 0 0 1 0 2H5v14h7a1 1 0 1 1 0 2H5a2 2 0 0 1-2-2m16-9V6h-3a1 1 0 1 1 0-2h3a2 2 0 0 1 2 2v5a1 1 0 1 1-2 0"/></svg>