<svg xmlns="http://www.w3.org/2000/svg" fill="none" viewBox="0 0 24 24"><path fill="#090404" d="M2 12C2 6.477 6.477 2 12 2c1.167 0 2.29.2 3.333.57a1 1 0 0 1-.666 1.885 8 8 0 1 0 5.135 5.767 1 1 0 0 1 1.95-.444c.162.716.248 1.46.248 2.222 0 5.523-4.477 10-10 10S2 17.523 2 12"/><path fill="#090404" d="M22 1a1 1 0 0 1 .8 1.6L20.999 5H22a1 1 0 1 1 0 2h-3a1 1 0 0 1-.8-1.6L20.001 3H19a1 1 0 1 1 0-2z"/><path fill="#090404" d="M11 8a1 1 0 1 1 2 0v3.586l2.207 2.207a1 1 0 1 1-1.414 1.414l-2.5-2.5A1 1 0 0 1 11 12z"/></svg>