<svg xmlns="http://www.w3.org/2000/svg" fill="none" viewBox="0 0 24 24"><path fill="#090404" d="M9.004 6H4.003L4 12h2l.102.005a1 1 0 0 1 .897.994l.003 4.235q.158-.127.317-.276c.846-.793 1.685-2.043 1.685-3.958zm2 7c0 2.585-1.162 4.335-2.316 5.417a8.2 8.2 0 0 1-1.569 1.15 7 7 0 0 1-.69.34l-.048.019-.017.007-.005.002h-.003L6.003 19l.35.936a1 1 0 0 1-1.35-.935L5 14H4a2 2 0 0 1-2-2.001l.003-6a2 2 0 0 1 2-1.999h5a2 2 0 0 1 2 1.999z"/><path fill="#090404" d="M16.004 19v-5h-1a2 2 0 0 1-2-2V6a2 2 0 0 1 2-2h5a2 2 0 0 1 2 1.999V13c0 2.585-1.162 4.335-2.317 5.417a8.2 8.2 0 0 1-2.097 1.42 5 5 0 0 1-.21.089l-.015.007q-.003 0-.006.002h-.002c-.001 0-.002.001-.353-.935l.351.936A1 1 0 0 1 16.005 19m-1-7h2a1 1 0 0 1 1 1v4.233a6 6 0 0 0 .316-.275c.846-.793 1.684-2.043 1.684-3.958V6h-5z"/></svg>