<svg xmlns="http://www.w3.org/2000/svg" fill="none" viewBox="0 0 24 24"><path fill="#090404" d="M9 9.5a2.5 2.5 0 1 0-5 0 2.5 2.5 0 0 0 5 0m2 0a4.5 4.5 0 1 1-9 0 4.5 4.5 0 0 1 9 0"/><path fill="#090404" d="M20 9.5a2.5 2.5 0 1 0-5 0 2.5 2.5 0 0 0 5 0m2 0a4.5 4.5 0 1 1-9 0 4.5 4.5 0 0 1 9 0"/><path fill="#090404" d="M9.947 8.5A1 1 0 0 1 11 9.448c.135 2.557-.405 4.414-1.464 5.911-1.026 1.452-2.49 2.48-3.98 3.474a1 1 0 0 1-1.11-1.664c1.51-1.006 2.672-1.853 3.457-2.964.754-1.065 1.214-2.458 1.1-4.651A1 1 0 0 1 9.946 8.5"/><path fill="#090404" d="M20.947 8.5A1 1 0 0 1 22 9.448c.135 2.557-.405 4.414-1.464 5.911-1.026 1.452-2.49 2.48-3.98 3.474a1 1 0 1 1-1.11-1.664c1.51-1.006 2.672-1.853 3.457-2.964.754-1.065 1.214-2.458 1.1-4.651a1 1 0 0 1 .945-1.052"/></svg>