<svg xmlns="http://www.w3.org/2000/svg" fill="none" viewBox="0 0 24 24"><path fill="#090404" d="M21 14a4 4 0 0 0-2.977-3.868 2.28 2.28 0 0 1-1.486-1.237 5.001 5.001 0 0 0-9.074 0 2.28 2.28 0 0 1-1.486 1.237 4.003 4.003 0 0 0-.464 7.583 1 1 0 1 1-.744 1.856 6.002 6.002 0 0 1 .697-11.373.28.28 0 0 0 .183-.146 7.001 7.001 0 0 1 12.702 0c.029.063.094.123.183.146a6.002 6.002 0 0 1 .697 11.373 1 1 0 0 1-.744-1.856A4 4 0 0 0 21 14"/><path fill="#090404" d="M15.269 13.817a1.001 1.001 0 0 1 1.463 1.366l-4.667 5a1 1 0 0 1-1.462 0l-2.334-2.5a1 1 0 0 1 1.463-1.366l1.601 1.716z"/></svg>