<svg xmlns="http://www.w3.org/2000/svg" fill="none" viewBox="0 0 24 24"><path fill="#090404" d="M2 15a7 7 0 0 1 12.758-3.981c.069.1.249.183.432.138a5.5 5.5 0 0 1 3.435.269A5.502 5.502 0 0 1 16.5 22H9a7 7 0 0 1-7-7m2 0a5 5 0 0 0 5 5h7.5a3.5 3.5 0 1 0-.836-6.9c-.922.226-1.972-.108-2.55-.943A4.987 4.987 0 0 0 9 10a5 5 0 0 0-5 5"/><path fill="#090404" d="M18 10a3 3 0 0 0-5.906-.751 1 1 0 0 1-1.937-.498 5 5 0 1 1 9.173 3.75 1 1 0 0 1-1.73-1.002c.254-.44.4-.951.4-1.499"/><path fill="#090404" d="M14 2.5V2a1 1 0 1 1 2 0v.5a1 1 0 1 1-2 0"/><path fill="#090404" d="M8.988 3.49a1 1 0 0 1 1.414 0l.354.353a1 1 0 1 1-1.414 1.414l-.354-.353a1 1 0 0 1 0-1.414"/><path fill="#090404" d="M19.592 3.49a1 1 0 1 1 1.414 1.414l-.354.353a1 1 0 1 1-1.414-1.414z"/><path fill="#090404" d="M23 8.5a1 1 0 1 1 0 2h-.5a1 1 0 1 1 0-2z"/></svg>