<svg xmlns="http://www.w3.org/2000/svg" fill="none" viewBox="0 0 24 24"><path fill="#090404" d="M3.857 9.429a4.57 4.57 0 0 1 3.368-4.411 5.286 5.286 0 0 1 9.985 1.38A3.858 3.858 0 0 1 16.286 14H8.43a4.57 4.57 0 0 1-4.572-4.572m2 0A2.57 2.57 0 0 0 8.43 12h7.857a1.858 1.858 0 0 0 0-3.714 1 1 0 0 1-1-1 3.286 3.286 0 0 0-6.393-1.071 1 1 0 0 1-.812.666 2.57 2.57 0 0 0-2.224 2.548"/><path fill="#090404" d="M13.5 18.5a1.5 1.5 0 1 0-3 0 1.5 1.5 0 0 0 3 0m2 0a3.5 3.5 0 1 1-7 0 3.5 3.5 0 0 1 7 0"/><path fill="#090404" d="M9.5 17.5a1 1 0 1 1 0 2H3a1 1 0 1 1 0-2z"/><path fill="#090404" d="M21 17.5a1 1 0 1 1 0 2h-6.5a1 1 0 1 1 0-2z"/><path fill="#090404" d="M11 16v-3a1 1 0 1 1 2 0v3a1 1 0 1 1-2 0"/></svg>