<svg xmlns="http://www.w3.org/2000/svg" fill="none" viewBox="0 0 24 24"><path fill="#090404" d="m13.24 16.185-.696-1.812a.582.582 0 0 0-1.088 0l-.697 1.812a1 1 0 0 1-.574.575l-1.812.696a.582.582 0 0 0 0 1.088l1.812.697a1 1 0 0 1 .574.574l.697 1.812a.582.582 0 0 0 1.088 0l.697-1.812a1 1 0 0 1 .574-.575l1.812-.696a.582.582 0 0 0 0-1.088l-1.812-.697a1 1 0 0 1-.574-.574"/><path fill="#090404" d="M1 12a8 8 0 0 1 14.979-3.913A6 6 0 0 1 19.4 19.5a1 1 0 0 1-.801-1.832 4.002 4.002 0 0 0-2.849-7.47 1 1 0 0 1-1.231-.556A6.002 6.002 0 0 0 3 12a5.99 5.99 0 0 0 2.572 4.925 1 1 0 0 1-1.144 1.64A7.99 7.99 0 0 1 1 12"/></svg>