<svg xmlns="http://www.w3.org/2000/svg" fill="none" viewBox="0 0 24 24"><path fill="#090404" d="M1 12a8 8 0 0 1 14.884-4.078c.045.076.168.151.314.132Q16.592 8 17 8a6 6 0 0 1 2.4 11.5 1 1 0 0 1-.8-1.832 4.002 4.002 0 0 0-2.137-7.633c-.882.118-1.815-.277-2.299-1.093a6 6 0 1 0-8.592 7.982 1 1 0 0 1-1.144 1.641A7.99 7.99 0 0 1 1 12"/><path fill="#090404" d="M13.293 15.293a1 1 0 1 1 1.414 1.414L13.414 18l1.293 1.293a1 1 0 1 1-1.414 1.414L12 19.414l-1.293 1.293a1 1 0 1 1-1.414-1.414L10.586 18l-1.293-1.293a1 1 0 1 1 1.414-1.414L12 16.586z"/></svg>