<svg xmlns="http://www.w3.org/2000/svg" fill="none" viewBox="0 0 24 24"><path fill="#090404" d="M5 5v14h14V5zm16 14a2 2 0 0 1-2 2H5a2 2 0 0 1-2-2V5a2 2 0 0 1 2-2h14a2 2 0 0 1 2 2z"/><path fill="#090404" d="M9.85 14.15h-.775a.775.775 0 1 0 .775.775zm5.85.775a.775.775 0 0 0-.775-.775h-.775v.775a.775.775 0 1 0 1.55 0m-4.25-2.375h1.1v-1.1h-1.1zm-1.6-3.475a.775.775 0 1 0-.775.775h.775zm5.85 0a.776.776 0 0 0-1.55 0v.775h.775a.775.775 0 0 0 .775-.775m1.6 0a2.375 2.375 0 0 1-2.375 2.375h-.775v1.1h.775a2.375 2.375 0 1 1-2.375 2.375v-.775h-1.1v.775a2.375 2.375 0 1 1-2.375-2.375h.775v-1.1h-.775a2.375 2.375 0 1 1 2.375-2.375v.775h1.1v-.775a2.375 2.375 0 0 1 4.75 0"/></svg>