<svg xmlns="http://www.w3.org/2000/svg" fill="none" viewBox="0 0 24 24"><path fill="#090404" d="M18.985 2.433a.488.488 0 0 0-.97-.001c-.177 1.538-1.045 2.406-2.583 2.583a.488.488 0 0 0 0 .97c1.517.171 2.445 1.031 2.582 2.57a.488.488 0 0 0 .972 0c.131-1.518 1.05-2.438 2.568-2.569a.488.488 0 0 0 .001-.972c-1.539-.137-2.399-1.065-2.57-2.581"/><path fill="#090404" d="M3 18.4V5.6c0-.264-.001-.522.017-.739.018-.228.063-.498.2-.77a2 2 0 0 1 .875-.873c.271-.138.54-.183.77-.201C5.077 2.999 5.335 3 5.6 3H12a1 1 0 1 1 0 2H5.6a8 8 0 0 0-.576.01l-.012.002-.001.012A8 8 0 0 0 5 5.6v12.8c0 .297.001.46.01.576l.002.011.012.002c.117.01.28.011.576.011h12.8c.297 0 .46-.001.576-.01l.011-.003.002-.011c.01-.117.011-.28.011-.576V12a1 1 0 1 1 2 0v6.4c0 .264.001.522-.017.739a2 2 0 0 1-.2.77 2 2 0 0 1-.875.873 2 2 0 0 1-.77.201c-.216.018-.474.017-.738.017H5.6c-.264 0-.522.001-.739-.017a2 2 0 0 1-.77-.2 2 2 0 0 1-.873-.875 2 2 0 0 1-.201-.77C2.999 18.923 3 18.665 3 18.4"/><path fill="#090404" d="M12 7a1 1 0 1 1 0 2H8a1 1 0 0 1 0-2z"/><path fill="#090404" d="M10 11a1 1 0 1 1 0 2H8a1 1 0 1 1 0-2z"/><path fill="#090404" d="M16 11a1 1 0 1 1 0 2h-3a1 1 0 1 1 0-2z"/><path fill="#090404" d="M13 15a1 1 0 1 1 0 2H8a1 1 0 1 1 0-2z"/></svg>