<svg xmlns="http://www.w3.org/2000/svg" fill="none" viewBox="0 0 24 24"><path fill="#090404" d="M20 12a8 8 0 1 0-16 0 8 8 0 0 0 16 0m2 0c0 5.523-4.477 10-10 10S2 17.523 2 12 6.477 2 12 2s10 4.477 10 10"/><path fill="#090404" d="M11 17.5v-.365c-.959-.176-1.892-.683-2.394-1.688a1 1 0 0 1 1.738-.983l.098.17c.262.402.922.682 1.773.544.917-.15 1.285-.635 1.285-1.033 0-.331-.108-.484-.34-.64-.317-.214-.779-.36-1.448-.562-.586-.176-1.375-.406-1.999-.837-.707-.488-1.213-1.24-1.213-2.329C8.5 8.11 9.76 7.143 11 6.86V6.5a1 1 0 1 1 2 0v.447c.767.247 1.471.759 1.895 1.606a1 1 0 0 1-1.79.894c-.249-.498-.865-.772-1.566-.656-.695.116-1.038.523-1.039.986 0 .36.12.525.35.684.314.217.774.368 1.438.567.581.175 1.37.4 1.99.819.706.476 1.222 1.214 1.222 2.299 0 1.636-1.28 2.561-2.5 2.902v.452a1 1 0 1 1-2 0"/></svg>