<svg xmlns="http://www.w3.org/2000/svg" fill="none" viewBox="0 0 24 24"><path fill="#090404" d="M20 12a8 8 0 1 0-16 0 8 8 0 0 0 16 0m2 0c0 5.523-4.477 10-10 10S2 17.523 2 12 6.477 2 12 2s10 4.477 10 10"/><path fill="#090404" d="M8.6 15.75v-7.5a.9.9 0 0 1 1.649-.499l3.35 5.025V8.25a.9.9 0 0 1 1.801 0v7.5a.9.9 0 0 1-1.649.499l-3.35-5.026v4.527a.9.9 0 0 1-1.801 0"/><path fill="#090404" d="M9.5 11.1a.9.9 0 0 1 0 1.8H8a.9.9 0 0 1 0-1.8z"/><path fill="#090404" d="M16 11.1a.9.9 0 0 1 0 1.8h-1.5a.9.9 0 0 1 0-1.8z"/></svg>