<svg xmlns="http://www.w3.org/2000/svg" fill="none" viewBox="0 0 24 24"><path fill="#090404" d="M20 12a8 8 0 1 0-16 0 8 8 0 0 0 16 0m2 0c0 5.523-4.477 10-10 10S2 17.523 2 12 6.477 2 12 2s10 4.477 10 10"/><path fill="#090404" d="M15.134 8.503a.9.9 0 0 1 1.73.494l-2 7a.9.9 0 0 1-1.73 0L12 12.025l-1.135 3.972a.9.9 0 0 1-1.73 0l-2-7a.9.9 0 1 1 1.73-.494L10 12.475l1.134-3.972.053-.139a.9.9 0 0 1 1.678.139L14 12.475z"/><path fill="#090404" d="M8.5 11.1a.9.9 0 0 1 0 1.8H7a.9.9 0 0 1 0-1.8zm8.5 0a.9.9 0 0 1 0 1.8h-1.5a.9.9 0 0 1 0-1.8z"/></svg>