<svg xmlns="http://www.w3.org/2000/svg" fill="none" viewBox="0 0 24 24"><path fill="#090404" d="M8.5 11c1.604 0 3.1.234 4.23.646.562.204 1.087.47 1.49.817.4.344.78.86.78 1.537s-.38 1.194-.78 1.537c-.403.346-.928.613-1.49.818-1.13.41-2.626.645-4.23.645s-3.1-.234-4.23-.645c-.562-.205-1.087-.472-1.49-.818-.4-.344-.78-.86-.78-1.537s.38-1.194.78-1.537c.403-.346.928-.613 1.49-.817C5.4 11.234 6.896 11 8.5 11m0 2c-1.433 0-2.687.213-3.547.525-.434.158-.715.322-.869.454L4.063 14q.009.01.021.02c.154.133.435.297.87.455.859.312 2.113.525 3.546.525s2.687-.213 3.547-.525c.434-.158.715-.322.869-.454l.02-.021q-.009-.01-.02-.02c-.154-.133-.435-.297-.87-.455C11.188 13.213 9.934 13 8.5 13"/><path fill="#090404" d="M12.916 18.02c.157-.134.084-.145.084-.02h2c0 .677-.38 1.194-.78 1.537-.403.347-.928.613-1.49.818-1.13.41-2.626.645-4.23.645s-3.1-.234-4.23-.645c-.562-.205-1.087-.471-1.49-.818-.4-.343-.78-.86-.78-1.537h2c0-.125-.073-.114.084.02.154.133.435.297.87.455.859.312 2.113.525 3.546.525s2.687-.213 3.547-.525c.434-.158.715-.322.869-.455"/><path fill="#090404" d="M15.5 3c1.604 0 3.1.234 4.23.646.562.204 1.087.47 1.49.817.4.344.78.86.78 1.537s-.38 1.193-.78 1.537c-.403.346-.928.613-1.49.817C18.6 8.766 17.104 9 15.5 9s-3.1-.234-4.23-.646c-.562-.204-1.087-.47-1.49-.817C9.38 7.193 9 6.677 9 6s.38-1.193.78-1.537c.403-.346.928-.613 1.49-.817C12.4 3.234 13.896 3 15.5 3m0 2c-1.433 0-2.687.213-3.547.525-.434.158-.715.322-.869.454L11.063 6q.009.01.021.02c.154.133.435.297.87.455.859.312 2.113.525 3.546.525s2.687-.213 3.547-.525c.434-.158.715-.322.869-.454l.02-.021q-.008-.01-.02-.02c-.154-.133-.435-.297-.87-.455C18.188 5.213 16.934 5 15.5 5"/><path fill="#090404" d="M19.916 10.02c.157-.134.084-.145.084-.02h2c0 .677-.38 1.194-.78 1.537-.403.346-.928.613-1.49.817-1.13.412-2.626.646-4.23.646s-3.1-.234-4.23-.646c-.562-.204-1.087-.47-1.49-.817-.4-.344-.78-.86-.78-1.537h2c0-.125-.073-.114.084.02.154.133.435.297.87.455.859.312 2.113.525 3.546.525s2.687-.213 3.547-.525c.434-.158.715-.322.869-.454"/><path fill="#090404" d="M15 14v4h-2v-4z"/><path fill="#090404" d="M4 14v4H2v-4z"/><path fill="#090404" d="M19.916 14.02c.157-.134.084-.145.084-.02h2c0 .677-.38 1.194-.78 1.537-.403.346-.928.613-1.49.818-1.13.41-2.626.645-4.23.645-.553 0-1.09-.027-1.602-.08l.204-1.99c.442.045.911.07 1.398.07 1.433 0 2.687-.213 3.547-.525.434-.158.715-.322.869-.454"/><path fill="#090404" d="M11 6v6H9V6z"/><path fill="#090404" d="M22 6v8h-2V6z"/></svg>