<svg xmlns="http://www.w3.org/2000/svg" fill="none" viewBox="0 0 24 24"><path fill="#090404" d="M20 12a8 8 0 1 0-16 0 8 8 0 0 0 16 0m2 0c0 5.523-4.477 10-10 10S2 17.523 2 12 6.477 2 12 2s10 4.477 10 10"/><path fill="#090404" d="M12 7c1.307 0 2.458.616 3.259 1.55a1 1 0 1 1-1.518 1.302C13.271 9.304 12.651 9 12 9c-1.007 0-1.999.776-2.357 2h.857a1 1 0 1 1 0 2h-.857c.358 1.224 1.35 2 2.357 2 .652 0 1.271-.304 1.741-.852a1 1 0 0 1 1.518 1.302C14.458 16.384 13.307 17 12 17c-2.27 0-4-1.797-4.407-4H7.5a1 1 0 1 1 0-2h.093C8 8.797 9.729 7 12 7"/></svg>