<svg xmlns="http://www.w3.org/2000/svg" fill="none" viewBox="0 0 24 24"><path fill="#090404" d="M9 16.5a1.5 1.5 0 1 1-3 0 1.5 1.5 0 0 1 3 0"/><path fill="#090404" d="M4 4v12.5a3.5 3.5 0 1 0 7 0V4zm9 12.5a5.5 5.5 0 1 1-11 0V4a2 2 0 0 1 2-2h7a2 2 0 0 1 2 2z"/><path fill="#090404" d="M11.634 3.299A1 1 0 0 1 13 2.932l4.78 2.76a2 2 0 0 1 .732 2.733l-6.25 10.825a1 1 0 0 1-1.732-1l6.25-10.825L12 4.665a1 1 0 0 1-.366-1.366"/><path fill="#090404" d="M17.679 7.134a1 1 0 0 1 1.365.366l2.76 4.781a2 2 0 0 1-.732 2.732L10.5 21.116a1 1 0 0 1-1-1.732l10.572-6.103-2.76-4.78a1 1 0 0 1 .366-1.367"/></svg>