<svg xmlns="http://www.w3.org/2000/svg" fill="none" viewBox="0 0 24 24"><circle cx="17.25" cy="10.65" r="1.35" fill="#090404"/><circle cx="13.35" cy="6.95" r="1.35" fill="#090404"/><circle cx="8.25" cy="8.15" r="1.35" fill="#090404"/><circle cx="7.05" cy="13.25" r="1.35" fill="#090404"/><path fill="#090404" d="M20 12a8 8 0 1 0-9.765 7.805.52.52 0 0 0 .495-.14A.91.91 0 0 0 11 19v-2a3 3 0 0 1 3-3h5.072c.466 0 .746-.28.795-.546Q20 12.747 20 12m2 0q0 .931-.165 1.816c-.258 1.4-1.533 2.184-2.763 2.184H14a1 1 0 0 0-1 1v2c0 1.578-1.347 3.174-3.204 2.756C5.334 20.752 2 16.766 2 12 2 6.477 6.477 2 12 2s10 4.477 10 10"/></svg>