<svg xmlns="http://www.w3.org/2000/svg" fill="none" viewBox="0 0 24 24"><path fill="#090404" d="M3 19V4a1 1 0 0 1 2 0v15h15a1 1 0 1 1 0 2H5a2 2 0 0 1-2-2"/><path fill="#090404" d="M18.553 5.106a1 1 0 0 1 .894 1.789l-5.683 2.84a2 2 0 0 1-1.328.164l-3.704-.823L5.1 11.8A1 1 0 1 1 3.9 10.2l3.632-2.724a2 2 0 0 1 1.634-.352l3.704.823z"/><path fill="#090404" d="M7 17v-4a1 1 0 1 1 2 0v4a1 1 0 1 1-2 0"/><path fill="#090404" d="M12 17v-3a1 1 0 1 1 2 0v3a1 1 0 1 1-2 0"/><path fill="#090404" d="M17 17v-5a1 1 0 1 1 2 0v5a1 1 0 1 1-2 0"/></svg>