<svg xmlns="http://www.w3.org/2000/svg" fill="none" viewBox="0 0 24 24"><path fill="#090404" d="M10.586 2.25a2 2 0 0 1 2.828 0L15.5 4.336a2 2 0 0 1 0 2.828L13.414 9.25a2 2 0 0 1-2.828 0L8.5 7.164a2 2 0 0 1 0-2.828zm-.672 3.5L12 7.836l2.086-2.086L12 3.664z"/><path fill="#090404" d="M4.336 8.5a2 2 0 0 1 2.828 0l2.086 2.086a2 2 0 0 1 0 2.828L7.164 15.5a2 2 0 0 1-2.828 0L2.25 13.414a2 2 0 0 1 0-2.828zM3.664 12l2.086 2.086L7.836 12 5.75 9.914z"/><path fill="#090404" d="M16.836 8.5a2 2 0 0 1 2.828 0l2.086 2.086a2 2 0 0 1 0 2.828L19.664 15.5a2 2 0 0 1-2.828 0l-2.086-2.086a2 2 0 0 1 0-2.828zm-.672 3.5 2.086 2.086L20.336 12 18.25 9.914z"/><path fill="#090404" d="M10.586 14.75a2 2 0 0 1 2.828 0l2.086 2.086a2 2 0 0 1 0 2.828l-2.086 2.086a2 2 0 0 1-2.828 0L8.5 19.664a2 2 0 0 1 0-2.828zm-.672 3.5L12 20.336l2.086-2.086L12 16.164z"/></svg>