<svg xmlns="http://www.w3.org/2000/svg" fill="none" viewBox="0 0 24 24"><path fill="#090404" d="M15 20v-3.52a2 2 0 0 1 .751-1.561l3.966-3.173a.48.48 0 0 0 .174-.44c-.025-.176-.145-.335-.36-.424a.7.7 0 0 0-.65.049c-1.719 1.123-4.383 2.569-6.88 2.569-2.498 0-5.162-1.446-6.881-2.57a.7.7 0 0 0-.65-.048c-.215.088-.335.248-.36.425a.48.48 0 0 0 .174.439l3.965 3.173A2 2 0 0 1 9 16.48V20a1 1 0 1 1-2 0v-3.52l-3.965-3.173a2.48 2.48 0 0 1-.906-2.284C2.41 9.06 4.7 8.266 6.214 9.256 7.91 10.363 10.14 11.5 12.001 11.5c1.861 0 4.091-1.137 5.786-2.244 1.515-.99 3.804-.196 4.085 1.767a2.48 2.48 0 0 1-.906 2.284L17 16.48V20a1 1 0 1 1-2 0"/><path fill="#090404" d="M13.5 6.5a1.5 1.5 0 1 0-3 0 1.5 1.5 0 0 0 3 0m2 0a3.5 3.5 0 1 1-7 0 3.5 3.5 0 0 1 7 0"/><path fill="#090404" d="M19.758 2.64a.75.75 0 0 1 1.485.22l-1 6.75a.751.751 0 0 1-1.485-.22z"/></svg>