<svg xmlns="http://www.w3.org/2000/svg" fill="none" viewBox="0 0 24 24"><path fill="#090404" d="M3 15v-2.5c0-4.195 2.87-7.718 6.751-8.717a1 1 0 0 1 .498 1.938A7 7 0 0 0 5 12.5V15a1 1 0 0 1-2 0m16 0v-2.5c0-3.26-2.23-6.002-5.249-6.78a1 1 0 0 1 .498-1.937C18.131 4.783 21 8.305 21 12.5V15a1 1 0 1 1-2 0"/><path fill="#090404" d="M13 15V5h-2v10a1 1 0 1 1-2 0V5a2 2 0 0 1 2-2h2a2 2 0 0 1 2 2v10a1 1 0 1 1-2 0"/><path fill="#090404" d="M4 16v2h16v-2zm18 2a2 2 0 0 1-2 2H4a2 2 0 0 1-2-2v-2a2 2 0 0 1 2-2h16a2 2 0 0 1 2 2z"/></svg>