<svg xmlns="http://www.w3.org/2000/svg" fill="none" viewBox="0 0 24 24"><path fill="#090404" d="m19.24 16.185-.696-1.812a.582.582 0 0 0-1.088 0l-.697 1.812a1 1 0 0 1-.574.575l-1.812.696a.582.582 0 0 0 0 1.088l1.812.697a1 1 0 0 1 .575.574l.696 1.812a.582.582 0 0 0 1.088 0l.697-1.812a1 1 0 0 1 .574-.575l1.812-.696a.582.582 0 0 0 0-1.088l-1.812-.697a1 1 0 0 1-.575-.574"/><path fill="#090404" d="M6.793 7.293a1 1 0 0 1 1.414 0l1.75 1.75a1 1 0 0 1 0 1.414l-1.75 1.75a1 1 0 1 1-1.414-1.414L7.836 9.75 6.793 8.707a1 1 0 0 1 0-1.414"/><path fill="#090404" d="M13.5 10.5a1 1 0 1 1 0 2h-2a1 1 0 1 1 0-2z"/><path fill="#090404" d="M19 11V5H5v14h6a1 1 0 1 1 0 2H5a2 2 0 0 1-2-2V5a2 2 0 0 1 2-2h14a2 2 0 0 1 2 2v6a1 1 0 1 1-2 0"/></svg>