<svg xmlns="http://www.w3.org/2000/svg" fill="none" viewBox="0 0 24 24"><path fill="#090404" d="M6 4v13h12V4zm14 14a1 1 0 0 1-1 1H6v1h13a1 1 0 1 1 0 2H6a2 2 0 0 1-2-2V4a2 2 0 0 1 2-2h12a2 2 0 0 1 2 2z"/><path fill="#090404" d="M12.002 11c.894 0 1.57.188 2.068.513.444.29.684.647.806.937l.045.12.043.155c.154.755-.512 1.275-1.073 1.275h-3.778c-.598 0-1.317-.592-1.03-1.43l.044-.12c.123-.29.362-.647.807-.937.498-.325 1.175-.513 2.068-.513"/><path fill="#090404" d="M12 7a1.75 1.75 0 1 1 0 3.5A1.75 1.75 0 0 1 12 7"/></svg>