<svg xmlns="http://www.w3.org/2000/svg" fill="none" viewBox="0 0 24 24"><path fill="#090404" d="M1.5 16.917c0-1.986 1.606-3.015 3.168-3.564a1 1 0 0 1 .664 1.887c-1.397.491-1.832 1.059-1.832 1.677 0 .547.35 1.12 1.396 1.673 1.035.546 2.53.94 4.253 1.17 3.448.463 7.436.234 9.59-.347a1 1 0 0 1 .522 1.93c-2.467.666-6.73.889-10.377.4-1.824-.245-3.587-.679-4.923-1.385-1.326-.7-2.461-1.807-2.461-3.441m16.058-4.387c1.105.063 2.223.235 3.098.586.819.328 1.82.99 1.83 2.215.005.891-.474 1.56-1.039 2.014-.55.443-1.253.75-1.937.97-1.378.442-2.974.621-3.96.67a1 1 0 0 1-.1-1.997c.897-.044 2.301-.209 3.448-.577.579-.186 1.019-.4 1.295-.623.262-.211.293-.354.292-.444v-.006c-.002-.004-.012-.024-.045-.058-.075-.078-.236-.19-.527-.308-.585-.234-1.456-.388-2.47-.446a1 1 0 0 1 .115-1.996"/><path fill="#090404" d="M15.276 2.259 13.38 9.333a1 1 0 1 1-1.932-.517l1.896-7.075a1 1 0 0 1 1.932.518"/><path fill="#090404" d="M9.317 12.904a3.8 3.8 0 0 0 .113 2.248c.262.697.664 1.066 1.042 1.167s.91-.017 1.486-.49a3.8 3.8 0 0 0 1.223-1.89 3.8 3.8 0 0 0-.114-2.249c-.262-.697-.664-1.065-1.042-1.166-.378-.102-.91.016-1.486.489a3.8 3.8 0 0 0-1.222 1.89m-1.932-.518A5.8 5.8 0 0 1 9.27 9.468c.866-.712 2.05-1.204 3.273-.876 1.222.327 2.002 1.346 2.396 2.395.4 1.062.48 2.328.174 3.47a5.8 5.8 0 0 1-1.886 2.918c-.865.711-2.05 1.203-3.272.876-1.223-.328-2.002-1.346-2.397-2.395a5.8 5.8 0 0 1-.173-3.47"/></svg>