<svg xmlns="http://www.w3.org/2000/svg" fill="none" viewBox="0 0 24 24"><path fill="#090404" d="M10 8.5a1.5 1.5 0 1 1-3 0 1.5 1.5 0 0 1 3 0"/><path fill="#090404" d="M14 11.5a1.5 1.5 0 1 1-3 0 1.5 1.5 0 0 1 3 0"/><path fill="#090404" d="M18 14a1 1 0 1 1-2 0 1 1 0 0 1 2 0"/><path fill="#090404" d="M13 16.5a1.5 1.5 0 1 1-3 0 1.5 1.5 0 0 1 3 0"/><path fill="#090404" d="M8 14a1 1 0 1 1-2 0 1 1 0 0 1 2 0"/><path fill="#090404" d="M20 12q-.001-.52-.065-1.021a4.5 4.5 0 0 1-4.741-3.173A4.5 4.5 0 0 1 12.027 4H12a8 8 0 1 0 8 8m2 0c0 5.523-4.477 10-10 10S2 17.523 2 12 6.477 2 12 2q.578 0 1.14.064a1 1 0 0 1 .88 1.119Q14 3.338 14 3.5c0 1.187.829 2.182 1.938 2.437l.226.04.162.037a1 1 0 0 1 .697.822 2.5 2.5 0 0 0 3.351 2.007 1 1 0 0 1 1.32.691c.2.79.306 1.616.306 2.466"/></svg>