<svg xmlns="http://www.w3.org/2000/svg" fill="none" viewBox="0 0 24 24"><path fill="#090404" d="M14.25 4.25a2.25 2.25 0 1 1-4.5 0 2.25 2.25 0 0 1 4.5 0"/><path fill="#090404" d="M14.25 19.75a2.25 2.25 0 1 1-4.5 0 2.25 2.25 0 0 1 4.5 0"/><path fill="#090404" d="M6.412 6.176a2.25 2.25 0 1 1-2.25 3.898 2.25 2.25 0 0 1 2.25-3.898"/><path fill="#090404" d="M19.836 13.926a2.25 2.25 0 1 1-2.25 3.898 2.25 2.25 0 0 1 2.25-3.898"/><path fill="#090404" d="M4.162 13.926a2.25 2.25 0 1 1 2.25 3.898 2.25 2.25 0 0 1-2.25-3.898"/><path fill="#090404" d="M17.586 6.176a2.25 2.25 0 1 1 2.25 3.897 2.25 2.25 0 0 1-2.25-3.897"/></svg>