<svg xmlns="http://www.w3.org/2000/svg" fill="none" viewBox="0 0 24 24"><path fill="#090404" d="M5 6.234V8h14V6.234l-7-2.186zM21 8.25A1.75 1.75 0 0 1 19.25 10H4.75A1.75 1.75 0 0 1 3 8.25V6.052A1.75 1.75 0 0 1 4.228 4.38l7.175-2.242a2 2 0 0 1 1.194 0l7.176 2.242A1.75 1.75 0 0 1 21 6.05z"/><path fill="#090404" d="M20 19a1 1 0 1 1 0 2H4a1 1 0 1 1 0-2z"/><path fill="#090404" d="M5 17V9a1 1 0 0 1 2 0v8a1 1 0 1 1-2 0m4 0V9a1 1 0 0 1 2 0v8a1 1 0 1 1-2 0m4 0V9a1 1 0 1 1 2 0v8a1 1 0 1 1-2 0m4 0V9a1 1 0 1 1 2 0v8a1 1 0 1 1-2 0"/></svg>