<svg xmlns="http://www.w3.org/2000/svg" fill="none" viewBox="0 0 24 24"><path fill="#090404" d="M5 6.5A1.5 1.5 0 0 0 6.5 8H15V5H6.5A1.5 1.5 0 0 0 5 6.5M17 8h2a2 2 0 0 1 2 2v9a2 2 0 0 1-2 2h-6a1 1 0 1 1 0-2h6v-9H6.5c-.537 0-1.045-.12-1.5-.337v.837a1 1 0 1 1-2 0v-4A3.5 3.5 0 0 1 6.5 3h8.75c.966 0 1.75.784 1.75 1.75z"/><path fill="#090404" d="M5.616 12.826a1 1 0 0 1 .888.06l3 1.75A1 1 0 0 1 10 15.5V19a1 1 0 0 1-.496.864l-3 1.75a1 1 0 0 1-1.008 0l-3-1.75A1 1 0 0 1 2 19v-3.5a1 1 0 0 1 .496-.864l3-1.75zM4 16.074v2.35l2 1.168 2-1.167v-2.35l-2-1.167z"/><path fill="#090404" d="M15.5 13.25a1.25 1.25 0 1 1 0 2.5 1.25 1.25 0 0 1 0-2.5"/></svg>