<svg xmlns="http://www.w3.org/2000/svg" fill="none" viewBox="0 0 24 24"><path fill="#090404" d="M6 9v11h10V9zm12 11a2 2 0 0 1-2 2H6a2 2 0 0 1-2-2V9a2 2 0 0 1 2-2h10a2 2 0 0 1 2 2z"/><path fill="#090404" d="M20 12.5a1.5 1.5 0 0 0-1.5-1.5H18v3h.5a1.5 1.5 0 0 0 1.5-1.5m2 0a3.5 3.5 0 0 1-3.5 3.5H16V9h2.5a3.5 3.5 0 0 1 3.5 3.5"/><path fill="#090404" d="M10 5V3a1 1 0 1 1 2 0v2a1 1 0 1 1-2 0"/><path fill="#090404" d="M6 5V3a1 1 0 0 1 2 0v2a1 1 0 0 1-2 0"/><path fill="#090404" d="M14 5V3a1 1 0 1 1 2 0v2a1 1 0 1 1-2 0"/></svg>