<svg xmlns="http://www.w3.org/2000/svg" fill="none" viewBox="0 0 24 24"><path fill="#090404" d="M5.525 16.435a1 1 0 0 1 1.355.406c.426.79 1.238 1.43 2.325 1.858 1.083.426 2.364.61 3.592.535 1.235-.074 2.333-.404 3.09-.916.73-.493 1.113-1.125 1.113-1.918 0-.507-.128-.87-.322-1.158-.203-.299-.516-.571-.966-.825-.938-.529-2.224-.852-3.713-1.24-1.406-.364-3.004-.79-4.237-1.57C6.448 10.775 5.5 9.508 5.5 7.57c0-1.418.65-2.545 1.626-3.336.952-.77 2.201-1.217 3.482-1.394 2.523-.35 5.581.297 7.396 2.201a1 1 0 0 1-1.448 1.38c-1.237-1.298-3.568-1.891-5.673-1.6-1.032.143-1.906.489-2.498.968-.568.46-.885 1.041-.885 1.781 0 1.133.49 1.813 1.332 2.346.922.584 2.2.944 3.669 1.325 1.386.36 2.975.746 4.193 1.433.629.354 1.213.816 1.64 1.446.434.642.666 1.401.666 2.28 0 1.586-.83 2.788-1.993 3.575-1.136.768-2.611 1.165-4.09 1.255-1.487.09-3.062-.127-4.443-.67-1.377-.542-2.637-1.442-3.354-2.77a1 1 0 0 1 .405-1.356"/><path fill="#090404" d="M11 22.5v-21a1 1 0 1 1 2 0v21a1 1 0 1 1-2 0"/></svg>