<svg xmlns="http://www.w3.org/2000/svg" fill="none" viewBox="0 0 24 24"><path fill="#090404" d="M18 19a1 1 0 1 1 0 2H6a1 1 0 1 1 0-2z"/><path fill="#090404" d="M8 8.5a5.5 5.5 0 0 1 10.073-3.057 1 1 0 0 1-1.662 1.114A3.5 3.5 0 0 0 10 8.5c0 .66.102 1.655.193 2.92.089 1.22.16 2.625.077 3.956-.083 1.31-.323 2.67-.946 3.731C8.657 20.244 7.565 21 6 21a1 1 0 1 1 0-2c.797 0 1.261-.327 1.6-.904.382-.653.597-1.635.673-2.846.076-1.19.012-2.483-.075-3.685C8.114 10.407 8 9.257 8 8.5"/><path fill="#090404" d="M14 11a1 1 0 1 1 0 2H6a1 1 0 1 1 0-2z"/></svg>