<svg xmlns="http://www.w3.org/2000/svg" fill="none" viewBox="0 0 24 24"><path fill="#090404" d="M20 14.993a3.12 3.12 0 0 0-1.934.978c-.488.52-.836 1.223-.986 2.03H20zM22 18a2 2 0 0 1-2 2h-4a1 1 0 0 1-1-.982c-.031-1.674.533-3.272 1.608-4.416 1.09-1.161 2.665-1.806 4.505-1.596a1 1 0 0 1 .886.994z"/><path fill="#090404" d="M2.887 13.006c1.84-.21 3.414.435 4.505 1.596C8.466 15.746 9.03 17.344 9 19.018A1 1 0 0 1 8 20H4a2 2 0 0 1-2-2v-4a1 1 0 0 1 .887-.994M6.92 18c-.15-.806-.499-1.51-.986-2.03A3.12 3.12 0 0 0 4 14.994V18z"/><path fill="#090404" d="M16.023 6c-.11 1.909.166 3.286.816 4.316.593.94 1.576 1.712 3.161 2.312V6zM22 14a1 1 0 0 1-1.263.965c-2.602-.71-4.481-1.825-5.59-3.581-.936-1.485-1.232-3.291-1.124-5.384H4v8a1 1 0 1 1-2 0V6a2 2 0 0 1 2-2h16a2 2 0 0 1 2 2z"/><path fill="#090404" d="M8.786 4.006a1 1 0 0 1 1.103.886c.281 2.569.062 4.75-1.036 6.492-1.108 1.756-2.988 2.871-5.59 3.581a1 1 0 0 1-.526-1.93c2.349-.64 3.687-1.55 4.424-2.719.747-1.183 1-2.827.74-5.207a1 1 0 0 1 .885-1.103"/><path fill="#090404" d="M16 17v2H8v-2z"/></svg>