<svg xmlns="http://www.w3.org/2000/svg" fill="none" viewBox="0 0 24 24"><path fill="#090404" d="M6 18.5a.5.5 0 1 0-1 0 .5.5 0 0 0 1 0m6.5 0a.5.5 0 1 0-1 0 .5.5 0 0 0 1 0M6 12a.5.5 0 1 0-1 0 .5.5 0 0 0 1 0m6.5 0a.5.5 0 1 0-1 0 .5.5 0 0 0 1 0m6-1.5a1.5 1.5 0 1 1 0 3 1.5 1.5 0 0 1 0-3m-6-5a.5.5 0 1 0-1 0 .5.5 0 0 0 1 0m6-1.5a1.5 1.5 0 1 1 0 3 1.5 1.5 0 0 1 0-3M8 18.5a2.5 2.5 0 1 1-5 0 2.5 2.5 0 0 1 5 0m6.5 0a2.5 2.5 0 1 1-5 0 2.5 2.5 0 0 1 5 0M8 12a2.5 2.5 0 1 1-5 0 2.5 2.5 0 0 1 5 0m6.5 0a2.5 2.5 0 1 1-5 0 2.5 2.5 0 0 1 5 0m0-6.5a2.5 2.5 0 1 1-5 0 2.5 2.5 0 0 1 5 0"/></svg>