<svg xmlns="http://www.w3.org/2000/svg" fill="none" viewBox="0 0 24 24"><path fill="#090404" d="M11 6V2a1 1 0 1 1 2 0v4a1 1 0 1 1-2 0"/><path fill="#090404" d="M21 10a1 1 0 1 1 0 2h-4a1 1 0 1 1 0-2z"/><path fill="#090404" d="M7 10a1 1 0 1 1 0 2H3a1 1 0 1 1 0-2z"/><path fill="#090404" d="M11 20v-3.873a1 1 0 1 1 2 0V20a1 1 0 0 1-2 0"/><path fill="#090404" d="M6.293 5.293a1 1 0 0 1 1.414 0l1.465 1.465a1 1 0 0 1-1.414 1.414L6.293 6.707a1 1 0 0 1 0-1.414"/><path fill="#090404" d="M16.292 5.293a1 1 0 0 1 1.415 1.414l-1.465 1.465a1 1 0 0 1-1.414-1.414z"/><path fill="#090404" d="M14.918 13.918a1 1 0 0 1 1.414 0l1.375 1.375a1 1 0 0 1-1.415 1.414l-1.374-1.375a1 1 0 0 1 0-1.414"/><path fill="#090404" d="M7.816 13.775a1 1 0 1 1 1.297 1.522c-2.157 1.838-3.388 4.122-4.147 6.962a1 1 0 1 1-1.932-.517c.836-3.127 2.243-5.804 4.782-7.967"/><path fill="#090404" d="M10 11a2 2 0 1 1 4 0 2 2 0 0 1-4 0"/></svg>