<svg xmlns="http://www.w3.org/2000/svg" fill="none" viewBox="0 0 24 24"><path fill="#090404" d="M12.5 18.5a.5.5 0 1 0-1 0 .5.5 0 0 0 1 0m-7-1.5a1.5 1.5 0 1 1 0 3 1.5 1.5 0 0 1 0-3m7-5a.5.5 0 1 0-1 0 .5.5 0 0 0 1 0m-7-1.5a1.5 1.5 0 1 1 0 3 1.5 1.5 0 0 1 0-3m13 0a1.5 1.5 0 1 1 0 3 1.5 1.5 0 0 1 0-3m-6-5a.5.5 0 1 0-1 0 .5.5 0 0 0 1 0m6-1.5a1.5 1.5 0 1 1 0 3 1.5 1.5 0 0 1 0-3m-4 14.5a2.5 2.5 0 1 1-5 0 2.5 2.5 0 0 1 5 0m0-6.5a2.5 2.5 0 1 1-5 0 2.5 2.5 0 0 1 5 0m0-6.5a2.5 2.5 0 1 1-5 0 2.5 2.5 0 0 1 5 0"/></svg>