<svg xmlns="http://www.w3.org/2000/svg" fill="none" viewBox="0 0 24 24"><path fill="#090404" d="M8.625 3.644a2 2 0 0 1 2.372-1.54l1.957.416a2 2 0 0 1 1.54 2.372l-.416 1.955.979.209a2 2 0 0 1 1.54 2.372l-2.287 10.76a2 2 0 0 1-2.372 1.54l-7.826-1.663a2 2 0 0 1-1.54-2.373L4.86 6.932a2 2 0 0 1 2.372-1.54l.977.209zM4.528 18.108l7.826 1.664 2.287-10.76-7.825-1.663zm3.357-7.165a1 1 0 0 1 1.383.293l.61.94.941-.61a1 1 0 1 1 1.09 1.677l-.942.61.612.942a1 1 0 0 1-1.677 1.089l-.612-.941-.94.61a1 1 0 0 1-1.09-1.676l.941-.611-.61-.94a1 1 0 0 1 .294-1.383m2.28-4.927 1.957.416.416-1.956-1.956-.416z"/><path fill="#090404" d="M21.51 6.5a1 1 0 1 1 0 2h-.01a1 1 0 1 1 0-2zm-2.5-1.25a1 1 0 1 1 0 2H19a1 1 0 1 1 0-2zM16.51 4a1 1 0 1 1 0 2h-.01a1 1 0 1 1 0-2zm5 0a1 1 0 1 1 0 2h-.01a1 1 0 1 1 0-2zm-2.5-1.25a1 1 0 1 1 0 2H19a1 1 0 1 1 0-2zm2.5-1.25a1 1 0 1 1 0 2h-.01a1 1 0 1 1 0-2z"/></svg>