<svg xmlns="http://www.w3.org/2000/svg" fill="none" viewBox="0 0 24 24"><path fill="#090404" d="M14.968 17.33c-.586 0-.894-.322-.894-.798 0-.366.124-.586.527-.967l3.23-3.2c1.348-1.334 1.685-1.868 1.685-2.674 0-.945-.725-1.626-1.743-1.626-.952 0-1.619.483-1.992 1.435-.19.381-.41.58-.843.58-.512 0-.82-.316-.82-.785q.002-.208.059-.395c.285-1.143 1.552-2.351 3.61-2.351 2.117 0 3.575 1.252 3.575 3.025 0 1.238-.594 2.073-2.344 3.786l-2.424 2.388v.037h4.218c.498 0 .806.307.806.776 0 .462-.308.77-.806.77z"/><path fill="#090404" d="M12.19 17.41a1.04 1.04 0 0 1-1.054-1.054c0-.586.462-1.055 1.055-1.055.586 0 1.047.469 1.047 1.055a1.04 1.04 0 0 1-1.047 1.055"/><path fill="#090404" d="M6.63 17.543c-2.607 0-4.16-2.117-4.16-5.508 0-3.377 1.568-5.486 4.16-5.486 2.586 0 4.146 2.095 4.146 5.478 0 3.384-1.545 5.516-4.145 5.516m0-1.546c1.43 0 2.242-1.457 2.242-3.962 0-2.476-.828-3.94-2.241-3.94-1.421 0-2.256 1.471-2.256 3.932 0 2.505.82 3.97 2.256 3.97"/></svg>