<svg xmlns="http://www.w3.org/2000/svg" fill="none" viewBox="0 0 24 24"><path fill="#090404" d="M13.395 19.25c0-4.185 2.734-5.941 4.592-7.559.958-.834 1.719-1.633 2.144-2.707.297-.752.453-1.704.318-2.99-1.31 1.01-2.595 1.395-3.79 1.673-1.606.373-2.794.536-4.002 1.587a1 1 0 0 1-1.313 0c-1.207-1.05-2.396-1.214-4.002-1.587-1.19-.276-2.47-.66-3.774-1.66-.168 1.525-.007 2.612.306 3.433.422 1.107 1.171 1.866 2.11 2.62.882.71 2.1 1.522 2.996 2.565.966 1.124 1.626 2.558 1.626 4.625a1 1 0 0 1-2 0c0-1.572-.477-2.549-1.142-3.323-.736-.856-1.642-1.43-2.735-2.308-1.036-.834-2.113-1.865-2.724-3.466-.61-1.598-.704-3.626-.08-6.375a1 1 0 0 1 1.732-.433C5.055 4.961 6.378 5.39 7.794 5.718c1.242.289 2.741.513 4.206 1.519 1.465-1.006 2.964-1.23 4.207-1.519 1.415-.328 2.738-.757 4.136-2.373l.097-.097a1 1 0 0 1 1.628.507c.634 2.508.536 4.414-.078 5.965-.607 1.536-1.672 2.594-2.69 3.48-2.092 1.822-3.905 2.958-3.905 6.05a1 1 0 0 1-2 0"/><path fill="#090404" d="M20.538 17.863a1 1 0 0 1 .924 1.774c-3.906 2.031-7.11 1.607-9.972 1.13s-5.244-.959-8.06.385a1 1 0 1 1-.86-1.805c3.47-1.656 6.485-1.013 9.249-.552s5.417.786 8.72-.932"/></svg>