<svg xmlns="http://www.w3.org/2000/svg" fill="none" viewBox="0 0 24 24"><path fill="#090404" d="M15 12a3 3 0 1 0-6 0 3 3 0 0 0 6 0m2 0a5 5 0 1 1-10 0 5 5 0 0 1 10 0"/><path fill="#090404" d="M14.293 14.293a1 1 0 0 1 1.414 0l2 2a1 1 0 1 1-1.414 1.414l-2-2a1 1 0 0 1 0-1.414"/><path fill="#090404" d="M14.555 19.583a1 1 0 1 1 .637 1.896 10.04 10.04 0 0 1-6.385 0 1 1 0 0 1 .637-1.896 8.04 8.04 0 0 0 5.111 0M2.521 8.808a1 1 0 0 1 1.896.636 8.04 8.04 0 0 0 0 5.112 1 1 0 1 1-1.896.636 10.04 10.04 0 0 1 0-6.384m17.69-.63a1 1 0 0 1 1.267.63 10.04 10.04 0 0 1 0 6.384 1 1 0 0 1-1.896-.636 8.04 8.04 0 0 0 0-5.112 1 1 0 0 1 .63-1.266M8.807 2.52a10.04 10.04 0 0 1 6.385 0 1 1 0 0 1-.637 1.896 8.04 8.04 0 0 0-5.111 0 1 1 0 1 1-.637-1.896"/></svg>