<svg xmlns="http://www.w3.org/2000/svg" fill="none" viewBox="0 0 24 24"><path fill="#090404" d="M21 16a2 2 0 1 0-4 0 2 2 0 0 0 4 0m2 0a4 4 0 1 1-8 0 4 4 0 0 1 8 0"/><path fill="#090404" d="M19 9a1 1 0 1 1 0 2 5 5 0 0 0-4.766 3.481c-.254.8-.994 1.519-1.998 1.519H10a1 1 0 1 1 0-2h2.236l.02-.013a.24.24 0 0 0 .073-.112A7 7 0 0 1 19 9"/><path fill="#090404" d="M2 16a1 1 0 1 1 2 0 2 2 0 1 0 4 0 1 1 0 1 1 2 0 4 4 0 0 1-8 0"/><path fill="#090404" d="M14.323 4a2 2 0 0 1 1.857 1.257l1.749 4.372a1 1 0 0 1-1.858.742L14.323 6H13a1 1 0 1 1 0-2z"/><path fill="#090404" d="M3 10v4h6v-4zm8 4a2 2 0 0 1-2 2H3a2 2 0 0 1-2-2v-4a2 2 0 0 1 2-2h6a2 2 0 0 1 2 2z"/></svg>