<svg xmlns="http://www.w3.org/2000/svg" fill="none" viewBox="0 0 24 24"><path fill="#090404" d="M15.277 3c2.293 0 4.666 1.312 5.33 3.746.197.718.335 1.46.383 2.237.074 1.18-.908 2.017-1.945 2.017H4.955c-1.038 0-2.019-.836-1.945-2.017.048-.777.186-1.519.382-2.237C4.056 4.312 6.43 3 8.722 3zM8.723 5C7.09 5 5.69 5.92 5.32 7.272A9 9 0 0 0 5.016 9h13.968a9 9 0 0 0-.306-1.728C18.308 5.921 16.909 5 15.278 5z"/><path fill="#090404" d="M11 20V10a1 1 0 1 1 2 0v10a1 1 0 1 1-2 0"/><path fill="#090404" d="M16 19a1 1 0 1 1 0 2H8a1 1 0 1 1 0-2z"/><path fill="#090404" d="M16.5 15.25V10a.75.75 0 0 1 1.5 0v5.25a.75.75 0 0 1-1.5 0"/></svg>