<svg xmlns="http://www.w3.org/2000/svg" fill="none" viewBox="0 0 24 24"><path fill="#090404" d="M21.05 11a.05.05 0 0 0-.05-.05h-4a.05.05 0 0 0-.05.05v8c0 .028.022.05.05.05h4a.05.05 0 0 0 .05-.05zm1.9 8A1.95 1.95 0 0 1 21 20.95h-4A1.95 1.95 0 0 1 15.05 19v-8A1.95 1.95 0 0 1 17 9.05h4A1.95 1.95 0 0 1 22.95 11z"/><path fill="#090404" d="M1 18.5V16a1 1 0 0 1 1-1h10.5a1 1 0 1 1 0 2H3v1.5h9.5a1 1 0 1 1 0 2H3a2 2 0 0 1-2-2"/><path fill="#090404" d="M19 6V5H5v11a1 1 0 1 1-2 0V5a2 2 0 0 1 2-2h14a2 2 0 0 1 2 2v1a1 1 0 1 1-2 0"/></svg>