<svg xmlns="http://www.w3.org/2000/svg" fill="none" viewBox="0 0 24 24"><path fill="#090404" d="M5.5 12.568a.52.52 0 0 1 .518 0l2.24 1.292.009.008a.5.5 0 0 1 .094.073l.013.013a.5.5 0 0 1 .066.087l.01.014q.028.052.045.11l.006.024q.016.059.016.121v1.294c0 .5.27.965.702 1.214.431.25.969.25 1.4 0l1.12-.646a.5.5 0 0 1 .137-.054.5.5 0 0 1 .117-.015h.017a.6.6 0 0 1 .109.014l.018.004a.5.5 0 0 1 .121.05l2.24 1.293h.001c.161.093.26.265.26.45V20.5a.52.52 0 0 1-.26.45l-2.24 1.292a.53.53 0 0 1-.52 0L9.502 20.95q-.007-.003-.01-.007a.5.5 0 0 1-.095-.073l-.012-.014a.5.5 0 0 1-.067-.086l-.009-.015a.5.5 0 0 1-.045-.108l-.006-.025a.5.5 0 0 1-.016-.121v-1.293c0-.5-.27-.965-.701-1.214-.433-.25-.97-.25-1.403 0l-1.12.647a.5.5 0 0 1-.112.046l-.025.007a.5.5 0 0 1-.115.016h-.007q-.008-.002-.014-.003a.6.6 0 0 1-.107-.014l-.018-.004a.5.5 0 0 1-.11-.046l-.01-.004-2.24-1.293a.52.52 0 0 1-.259-.45V14.31c0-.185.1-.357.26-.45z"/><path fill="#090404" d="M17.981 5.36a.52.52 0 0 1 .519 0l2.238 1.293a.52.52 0 0 1 .26.45v2.586a.52.52 0 0 1-.26.45l-2.24 1.292q-.006.002-.01.004a.5.5 0 0 1-.111.045q-.009.003-.018.005a.4.4 0 0 1-.108.014l-.012.002h-.005a.6.6 0 0 1-.116-.016l-.025-.006a.5.5 0 0 1-.113-.047l-1.12-.647c-.433-.25-.97-.25-1.402 0h.004c-.431.25-.7.714-.7 1.214s.268.965.7 1.214c.432.25.97.25 1.401 0l1.12-.646a.5.5 0 0 1 .137-.054.5.5 0 0 1 .117-.015h.016a.6.6 0 0 1 .11.014q.008.003.017.005.057.015.11.045l.01.004 2.24 1.293c.161.093.26.264.26.45v2.585a.52.52 0 0 1-.26.45l-2.24 1.293a.53.53 0 0 1-.52 0l-2.238-1.293q-.007-.003-.01-.007a.54.54 0 0 1-.173-.173l-.01-.015a.5.5 0 0 1-.05-.133.5.5 0 0 1-.017-.122v-1.292c0-.5-.269-.965-.7-1.214-.434-.25-.971-.25-1.403 0l-1.12.647a.5.5 0 0 1-.138.053.5.5 0 0 1-.116.015H12l-.013-.002a.6.6 0 0 1-.107-.014q-.009-.002-.018-.005a.5.5 0 0 1-.11-.045l-.011-.004L9.5 13.74a.52.52 0 0 1-.26-.449v-2.586c0-.186.1-.357.26-.45l2.24-1.293.01-.004a.5.5 0 0 1 .237-.064h.017a.6.6 0 0 1 .117.016l.024.007q.06.016.114.046l1.12.647c.432.25.97.25 1.401 0s.701-.716.701-1.214V7.103q.002-.063.017-.122l.006-.025a.5.5 0 0 1 .045-.108q.004-.008.01-.015a.6.6 0 0 1 .066-.087l.012-.013a.5.5 0 0 1 .104-.08z"/><path fill="#090404" d="M11.739 1.759a.52.52 0 0 1 .519 0l2.241 1.291c.161.093.26.265.26.45v2.586a.52.52 0 0 1-.26.45l-2.24 1.292-.01.004a.5.5 0 0 1-.11.045l-.019.004a.4.4 0 0 1-.107.015l-.012.002h-.005a.6.6 0 0 1-.116-.015l-.025-.007a.5.5 0 0 1-.114-.047l-1.119-.646c-.433-.25-.97-.25-1.402 0s-.701.715-.701 1.213V9.69a.5.5 0 0 1-.016.122l-.007.024a.5.5 0 0 1-.045.11q-.004.007-.009.013a.6.6 0 0 1-.066.087l-.012.014a.5.5 0 0 1-.096.073l-.009.007-2.24 1.293a.53.53 0 0 1-.52 0L3.26 10.139A.52.52 0 0 1 3 9.69V7.105c0-.186.1-.357.26-.45l2.238-1.294.011-.004a.5.5 0 0 1 .236-.064h.017q.06.001.117.016l.025.007a.5.5 0 0 1 .114.046l1.119.646c.432.25.97.25 1.402 0s.7-.716.7-1.214V3.5q.002-.063.017-.122l.006-.024a.5.5 0 0 1 .046-.109q.004-.008.009-.014a.6.6 0 0 1 .066-.087l.012-.013a.5.5 0 0 1 .095-.073l.01-.008z"/></svg>