<svg xmlns="http://www.w3.org/2000/svg" fill="none" viewBox="0 0 24 24"><path fill="#090404" d="M15.556 7a2 2 0 0 1 1.486.662l3.567 3.964a2 2 0 0 1-.072 2.752L13.415 21.5a2 2 0 0 1-2.828 0l-7.122-7.122a2 2 0 0 1-.073-2.752L6.96 7.662A2 2 0 0 1 8.446 7zM4.879 12.964 12 20.086l7.122-7.122L15.555 9H8.447z"/><path fill="#090404" d="M19 12a1 1 0 1 1 0 2H5a1 1 0 1 1 0-2z"/><path fill="#090404" d="M2.93 3.929a1 1 0 0 1 1.414 0l.707.707A1 1 0 0 1 3.637 6.05l-.707-.707a1 1 0 0 1 0-1.414m16.727 0a1.001 1.001 0 0 1 1.415 1.414l-.708.707a1 1 0 1 1-1.414-1.414zM11.001 4V3a1 1 0 0 1 2 0v1a1 1 0 0 1-2 0"/></svg>