<svg xmlns="http://www.w3.org/2000/svg" fill="none" viewBox="0 0 24 24"><path fill="#090404" d="M6.41 13.352a1 1 0 1 1-1.812.845 1 1 0 0 1 1.812-.845"/><path fill="#090404" d="M10.399 14.803a1 1 0 1 1-1.813.845 1 1 0 0 1 1.813-.845"/><path fill="#090404" d="M18.44 7.842a1 1 0 1 1-1.88-.684 1 1 0 0 1 1.88.684"/><path fill="#090404" d="M8.347 8.036a2 2 0 0 1 2.658.967l2.958 6.345a2 2 0 0 1-.967 2.657l-6.344 2.96a2 2 0 0 1-2.659-.969l-2.958-6.343a2 2 0 0 1 .968-2.658zm-5.499 4.771 2.959 6.345 6.344-2.96L9.193 9.85zm11.276-9.195a2 2 0 0 1 2.564-1.196l4.698 1.71a2 2 0 0 1 1.195 2.564l-1.71 4.698a2 2 0 0 1-2.563 1.195l-4.698-1.71a2 2 0 0 1-1.196-2.563zm.17 5.382 4.698 1.71 1.71-4.699-4.699-1.71z"/></svg>