<svg xmlns="http://www.w3.org/2000/svg" fill="none" viewBox="0 0 24 24"><path fill="#090404" d="M15.5 5.75a3.75 3.75 0 0 1 7.5 0v.75a1 1 0 0 1-.553.895L21 8.118V13a6.99 6.99 0 0 1-3 5.741v.759a2.5 2.5 0 0 1-4.95.5h-2.1a2.501 2.501 0 0 1-4.9 0H2a1 1 0 0 1-.287-1.958c.578-.173 1.06-.594 1.525-1.3.475-.723.859-1.633 1.291-2.665.379-.903.793-1.9 1.319-2.775.528-.882 1.215-1.723 2.186-2.264 1.832-1.021 4.217-.756 7.466 1.02zm2 5.75a1 1 0 0 1-1 1H16a1 1 0 0 1-.52-.146c-3.64-2.215-5.455-2.136-6.472-1.569-.547.305-1.011.821-1.446 1.545-.437.73-.797 1.587-1.188 2.52-.414.989-.868 2.082-1.464 2.989q-.055.08-.112.161H7a1 1 0 0 1 1 1v.5a.5.5 0 0 0 1 0V19a1 1 0 0 1 1-1h4a1 1 0 0 1 1 1v.5a.5.5 0 0 0 1 0v-1.303a1 1 0 0 1 .499-.865 5 5 0 0 0 2.5-4.332V8.118a2 2 0 0 1 1.106-1.789L21 5.882V5.75a1.75 1.75 0 1 0-3.5 0z"/></svg>