<svg xmlns="http://www.w3.org/2000/svg" fill="none" viewBox="0 0 24 24"><path fill="#090404" d="M19.02 3a2 2 0 0 1 1.561.751l1.2 1.5a2 2 0 0 1 0 2.498l-1.2 1.5A2 2 0 0 1 19.02 10H12a1 1 0 0 1-1-1V4a1 1 0 0 1 1-1zM13 8h6.02l1.2-1.5-1.2-1.5H13z"/><path fill="#090404" d="M12 8a1 1 0 0 1 1 1v5a1 1 0 0 1-1 1H4.982a2 2 0 0 1-1.561-.751l-1.2-1.5a2 2 0 0 1 0-2.498l1.2-1.5A2 2 0 0 1 4.98 8zm-8.22 3.5L4.982 13h6.02v-3H4.98z"/><path fill="#090404" d="M11 14a1 1 0 1 1 2 0v6a1 1 0 0 1-1 1H8a1 1 0 1 1 0-2h3z"/><path fill="#090404" d="M16 19a1 1 0 1 1 0 2h-4a1 1 0 1 1 0-2z"/></svg>