<svg xmlns="http://www.w3.org/2000/svg" fill="none" viewBox="0 0 24 24"><path fill="#090404" d="m5.93 18.639-.522-1.359a.437.437 0 0 0-.816 0l-.522 1.359a.75.75 0 0 1-.431.43l-1.359.523a.437.437 0 0 0 0 .816l1.359.522a.75.75 0 0 1 .43.431l.523 1.359a.437.437 0 0 0 .816 0l.522-1.359a.75.75 0 0 1 .431-.43l1.359-.523a.437.437 0 0 0 0-.816l-1.359-.522a.75.75 0 0 1-.43-.431"/><path fill="#090404" d="m20.585 2.912-.61-1.585a.51.51 0 0 0-.95 0l-.61 1.585a.88.88 0 0 1-.503.503l-1.585.61a.51.51 0 0 0 0 .95l1.585.61a.88.88 0 0 1 .503.503l.61 1.585a.51.51 0 0 0 .95 0l.61-1.585a.88.88 0 0 1 .503-.503l1.585-.61a.51.51 0 0 0 0-.95l-1.585-.61a.88.88 0 0 1-.503-.503"/><path fill="#090404" d="M19.5 12.5q-.002-.773-.15-1.5H4.65a7.5 7.5 0 0 0 0 3h14.7q.148-.728.15-1.5m2 0A9.5 9.5 0 0 1 12 22a1 1 0 1 1 0-2 7.5 7.5 0 0 0 6.634-4H3.874a1 1 0 0 1-.956-.706A9.5 9.5 0 0 1 12 3a1 1 0 1 1 0 2 7.5 7.5 0 0 0-6.634 4h14.76a1 1 0 0 1 .956.706A9.5 9.5 0 0 1 21.5 12.5"/><path fill="#090404" d="M14 12.5c0-2.265-.325-4.272-.821-5.678-.25-.707-.524-1.208-.779-1.513C12.141 4.998 12 5 12 5s-.141-.002-.4.309c-.255.305-.53.806-.779 1.513C10.325 8.228 10 10.235 10 12.5s.325 4.272.821 5.678c.25.707.524 1.208.779 1.513.259.311.4.309.4.309s.141.002.4-.309c.255-.305.53-.806.779-1.513.496-1.406.821-3.413.821-5.678m2 0c0 2.43-.346 4.672-.935 6.343-.294.83-.666 1.575-1.13 2.13C13.478 21.523 12.829 22 12 22s-1.477-.478-1.935-1.027c-.464-.555-.836-1.3-1.13-2.13C8.347 17.173 8 14.93 8 12.5s.346-4.672.936-6.343c.293-.83.665-1.575 1.129-2.13C10.523 3.477 11.172 3 12 3s1.477.478 1.935 1.027c.464.555.836 1.3 1.13 2.13.589 1.67.935 3.913.935 6.343"/><path fill="#090404" d="M11 4V2a1 1 0 1 1 2 0v2a1 1 0 1 1-2 0"/></svg>