<svg xmlns="http://www.w3.org/2000/svg" fill="none" viewBox="0 0 24 24"><path fill="#090404" d="M5 5v14h14V5zm16 14a2 2 0 0 1-2 2H5a2 2 0 0 1-2-2V5a2 2 0 0 1 2-2h14a2 2 0 0 1 2 2z"/><path fill="#090404" d="M7.25 6a1.25 1.25 0 1 1 0 2.5 1.25 1.25 0 0 1 0-2.5"/><path fill="#090404" d="M13.75 13.8c0-.325-.11-.737-.335-1.217a8.5 8.5 0 0 0-.846-1.384 13 13 0 0 0-.569-.716c-.178.21-.375.452-.57.716-.32.436-.624.913-.845 1.384-.225.48-.335.892-.335 1.217 0 .837.793 1.7 1.75 1.7s1.75-.863 1.75-1.7m2 0c0 1.924-1.67 3.7-3.75 3.7s-3.75-1.776-3.75-3.7c0-.733.234-1.45.524-2.068.295-.627.678-1.218 1.045-1.717a16 16 0 0 1 1.345-1.592l.098-.099.027-.027.008-.009.003-.002.002-.002a1 1 0 0 1 1.396 0L12 9l.7-.715v.001l.003.002.008.009.027.027.098.099a15.889 15.889 0 0 1 1.345 1.592c.367.5.75 1.09 1.045 1.717.29.619.524 1.335.524 2.068"/></svg>