<svg xmlns="http://www.w3.org/2000/svg" fill="none" viewBox="0 0 24 24"><path fill="#090404" d="M19 5.6c0-.297-.001-.459-.01-.576l-.003-.012-.011-.001A8 8 0 0 0 18.4 5H5.6a8 8 0 0 0-.576.01l-.012.002-.001.012A8 8 0 0 0 5 5.6v12.8c0 .297.001.46.01.576l.002.011.012.002c.117.01.28.011.576.011h12.8c.297 0 .46-.001.576-.01l.011-.003.002-.011c.01-.117.011-.28.011-.576zm2 12.8c0 .264.001.522-.017.739a2 2 0 0 1-.2.77 2 2 0 0 1-.875.873 2 2 0 0 1-.77.201c-.216.018-.474.017-.738.017H5.6c-.264 0-.522.001-.739-.017a2 2 0 0 1-.77-.2 2 2 0 0 1-.873-.875 2 2 0 0 1-.201-.77C2.999 18.923 3 18.665 3 18.4V5.6c0-.264-.001-.522.017-.739.018-.228.063-.498.2-.77a2 2 0 0 1 .875-.873c.271-.138.54-.183.77-.201C5.077 2.999 5.335 3 5.6 3h12.8c.264 0 .522-.001.739.017.228.018.498.063.77.2a2 2 0 0 1 .796.737l.077.138.087.203c.072.2.1.395.114.566.018.217.017.475.017.739z"/><path fill="#090404" d="M12.815 3.42c1.349 1.9 1.751 3.577 1.563 5.15-.18 1.505-.9 2.805-1.5 3.907-.632 1.164-1.143 2.13-1.27 3.192-.12.994.093 2.183 1.207 3.752l-1.63 1.158c-1.349-1.898-1.752-3.576-1.563-5.148.18-1.505.9-2.806 1.499-3.908.632-1.164 1.144-2.13 1.271-3.192.12-.994-.093-2.183-1.208-3.752z"/><path fill="#090404" d="M3.42 11.184c1.9-1.348 3.577-1.75 5.15-1.562 1.505.18 2.805.9 3.907 1.499 1.164.632 2.13 1.144 3.192 1.271.994.12 2.183-.093 3.752-1.208l1.158 1.631c-1.898 1.349-3.576 1.751-5.148 1.563-1.505-.18-2.806-.9-3.908-1.5-1.164-.632-2.13-1.143-3.192-1.27-.994-.12-2.183.093-3.752 1.207z"/></svg>