<svg xmlns="http://www.w3.org/2000/svg" fill="none" viewBox="0 0 24 24"><path fill="#090404" d="M14 12a2 2 0 1 0-4 0 2 2 0 0 0 4 0m2 0a4 4 0 1 1-8 0 4 4 0 0 1 8 0"/><path fill="#090404" d="M2 12c0-1.34.264-2.62.744-3.791l.048-.102a1 1 0 0 1 1.435-.35 1.436 1.436 0 0 0 2.213-.946 1 1 0 0 1 1.104-.822q.09.01.185.011a1.522 1.522 0 0 0 1.326-2.269 1 1 0 0 1 .641-1.464C10.436 2.092 11.208 2 12 2c5.523 0 10 4.477 10 10s-4.477 10-10 10S2 17.523 2 12m9.25-7.521a3.52 3.52 0 0 1-3.093 3.493 3.43 3.43 0 0 1-3.882 1.945 8 8 0 1 0 6.946-5.877q.029.216.029.439"/><path fill="#090404" d="M5.793 12.293a1 1 0 1 1 1.414 1.414l-.5.5a1 1 0 1 1-1.414-1.414z"/><path fill="#090404" d="M13.293 5.293a1 1 0 0 1 1.414 0l.5.5a1 1 0 1 1-1.414 1.414l-.5-.5a1 1 0 0 1 0-1.414"/><path fill="#090404" d="M17.043 10.293a1 1 0 0 1 1.414 0l.5.5a1 1 0 1 1-1.414 1.414l-.5-.5a1 1 0 0 1 0-1.414"/><path fill="#090404" d="M14.793 16.293a1 1 0 1 1 1.414 1.414l-.5.5a1 1 0 1 1-1.414-1.414z"/><path fill="#090404" d="M9.707 16.293a1 1 0 1 0-1.414 1.414l.5.5a1 1 0 1 0 1.414-1.414z"/></svg>