<svg xmlns="http://www.w3.org/2000/svg" fill="none" viewBox="0 0 24 24"><path fill="#090404" d="M20 12a8 8 0 1 0-16 0 8 8 0 0 0 16 0m2 0c0 5.523-4.477 10-10 10S2 17.523 2 12 6.477 2 12 2s10 4.477 10 10"/><path fill="#090404" d="M13 12a1 1 0 1 0-2 0 1 1 0 0 0 2 0m2 0a3 3 0 1 1-6 0 3 3 0 0 1 6 0"/><path fill="#090404" d="M11.3 5.068a3 3 0 0 1 4.062.83l.425.613c.12.173.293.304.492.374l.704.246a3 3 0 0 1 1.884 3.693l-.214.714a1 1 0 0 0 .015.618l.246.703a3 3 0 0 1-1.713 3.777l-.691.277a1 1 0 0 0-.475.397l-.396.632a3 3 0 0 1-4.02 1.015l-.648-.368a1 1 0 0 0-.606-.123l-.74.083a3 3 0 0 1-3.3-2.51l-.118-.736a1 1 0 0 0-.281-.551l-.527-.526a3 3 0 0 1-.096-4.146l.503-.55a1 1 0 0 0 .256-.563l.083-.741a3 3 0 0 1 3.18-2.66l.744.05c.211.014.421-.039.6-.151zm2.419 1.97a1 1 0 0 0-1.354-.277l-.632.397a3 3 0 0 1-1.796.454l-.745-.05a1 1 0 0 0-1.06.887l-.083.74c-.07.63-.339 1.221-.766 1.689l-.503.55a1 1 0 0 0 .032 1.383l.527.527a3 3 0 0 1 .843 1.651l.117.737a1 1 0 0 0 1.1.836l.74-.083a3 3 0 0 1 1.817.37l.65.368a1 1 0 0 0 1.34-.339l.396-.63a3 3 0 0 1 1.422-1.19l.692-.279a1 1 0 0 0 .57-1.257l-.246-.704a3 3 0 0 1-.043-1.854l.214-.714a1 1 0 0 0-.628-1.231l-.704-.246a3 3 0 0 1-1.475-1.123z"/></svg>