<svg xmlns="http://www.w3.org/2000/svg" fill="none" viewBox="0 0 24 24"><path fill="#090404" d="M6 4v14h12V4zm14 14a2 2 0 0 1-2 2H6a2 2 0 0 1-2-2V4a2 2 0 0 1 2-2h12a2 2 0 0 1 2 2z"/><path fill="#090404" d="M18 10a1 1 0 1 1 0 2H5a1 1 0 1 1 0-2z"/><path fill="#090404" d="M6 21v-2a1 1 0 1 1 2 0v2a1 1 0 1 1-2 0"/><path fill="#090404" d="M16 21v-2a1 1 0 1 1 2 0v2a1 1 0 1 1-2 0"/><path fill="#090404" d="M14 6a1 1 0 1 1 0 2h-4a1 1 0 0 1 0-2z"/><path fill="#090404" d="M14 14a1 1 0 1 1 0 2h-4a1 1 0 1 1 0-2z"/></svg>