<svg xmlns="http://www.w3.org/2000/svg" fill="none" viewBox="0 0 24 24"><path fill="#090404" d="M4 6v9h16V6zm18 9a2 2 0 0 1-2 2H4a2 2 0 0 1-2-2V6a2 2 0 0 1 2-2h16a2 2 0 0 1 2 2z"/><path fill="#090404" d="M11 16V5a1 1 0 1 1 2 0v11a1 1 0 1 1-2 0"/><path fill="#090404" d="M14 11V9a1 1 0 1 1 2 0v2a1 1 0 1 1-2 0"/><path fill="#090404" d="M20 19a1 1 0 1 1-2 0v-2a1 1 0 1 1 2 0z"/><path fill="#090404" d="M8 11V9a1 1 0 0 1 2 0v2a1 1 0 1 1-2 0"/><path fill="#090404" d="M6 19a1 1 0 1 1-2 0v-2a1 1 0 1 1 2 0z"/></svg>