<svg xmlns="http://www.w3.org/2000/svg" fill="none" viewBox="0 0 24 24"><path fill="#090404" d="M5 5v12h14V5zm16 12a2 2 0 0 1-2 2H5a2 2 0 0 1-2-2V5a2 2 0 0 1 2-2h14a2 2 0 0 1 2 2z"/><path fill="#090404" d="M12 10a1 1 0 1 1 0 2H5a1 1 0 1 1 0-2z"/><path fill="#090404" d="M11 18V4a1 1 0 1 1 2 0v14a1 1 0 1 1-2 0"/><path fill="#090404" d="M6 21v-2a1 1 0 1 1 2 0v2a1 1 0 1 1-2 0"/><path fill="#090404" d="M16 21v-2a1 1 0 1 1 2 0v2a1 1 0 1 1-2 0"/><path fill="#090404" d="M14 12v-2a1 1 0 1 1 2 0v2a1 1 0 1 1-2 0"/></svg>