<svg xmlns="http://www.w3.org/2000/svg" fill="none" viewBox="0 0 24 24"><path fill="#090404" d="M14.23 3.049c1.032-.177 1.934.129 2.645.882.626.663.723 1.485.556 2.24-.156.712-.552 1.43-1.014 2.101-.928 1.348-2.375 2.857-3.696 4.254-1.368 1.448-2.593 2.768-3.256 3.846-.337.548-.44.897-.443 1.083 0 .071.013.096.018.105.007.012.042.064.166.135l.115.053c.293.103.757.044 1.562-.49.88-.583 1.833-1.52 2.842-2.528.96-.957 2-2.015 2.95-2.641.474-.313 1.04-.6 1.651-.642.69-.048 1.316.223 1.781.787.678.82.474 1.793.215 2.45-.265.673-.73 1.385-1.115 1.985-.42.651-.765 1.196-.953 1.669-.091.228-.12.383-.122.48-.002.078.013.1.021.11.046.066.064.065.089.069.065.01.213.003.463-.092.506-.192 1.11-.622 1.626-1.086a1 1 0 0 1 1.338 1.487c-.587.527-1.409 1.148-2.256 1.47-.427.16-.937.277-1.464.199a2.1 2.1 0 0 1-1.434-.898c-.594-.849-.388-1.804-.12-2.478.275-.69.742-1.41 1.13-2.012.422-.655.76-1.186.937-1.636.085-.216.105-.349.104-.416q0-.022-.003-.03c-.07-.083-.078-.064-.097-.063-.1.007-.32.072-.69.316-.738.487-1.613 1.364-2.636 2.387-.974.973-2.073 2.065-3.153 2.78-.977.648-2.265 1.2-3.525.634l-.252-.13a2.4 2.4 0 0 1-.89-.85 2.17 2.17 0 0 1-.298-1.153c.011-.735.348-1.464.74-2.102.794-1.292 2.186-2.775 3.506-4.172 1.368-1.446 2.683-2.824 3.501-4.013.412-.598.636-1.061.71-1.396.063-.289 0-.377-.058-.44-.253-.267-.483-.346-.855-.283-.47.081-1.155.401-2.15 1.12-1.977 1.427-4.72 4.077-8.715 8.01a1 1 0 0 1-1.402-1.425c3.948-3.887 6.816-6.669 8.946-8.206 1.058-.765 2.05-1.31 2.984-1.47"/></svg>