<svg xmlns="http://www.w3.org/2000/svg" fill="none" viewBox="0 0 24 24"><path fill="#090404" d="M2 12q0-2.72 1.34-5.02a9.93 9.93 0 0 1 3.64-3.64Q9.28 2 12 2t5.02 1.34a9.93 9.93 0 0 1 3.64 3.64Q22 9.28 22 12t-1.34 5.02a9.93 9.93 0 0 1-3.64 3.64Q14.72 22 12 22t-5.02-1.34a9.93 9.93 0 0 1-3.64-3.64Q2 14.72 2 12m1.66 0q0 3.12 2.1 5.5.96-1.88 3.04-3.58t4.06-2.14q-.3-.7-.58-1.26-3.44 1.1-7.44 1.1-.78 0-1.16-.02 0 .08-.01.2t-.01.2m.26-2.06q.44.04 1.3.04 3.34 0 6.34-.9-1.52-2.7-3.34-4.5A8.1 8.1 0 0 0 5.51 6.8a8.5 8.5 0 0 0-1.59 3.14m2.98 8.64q2.26 1.76 5.1 1.76 1.48 0 2.94-.56a29.4 29.4 0 0 0-1.56-6.62q-1.84.4-3.71 2.02t-2.77 3.4M9.96 3.94q1.76 1.82 3.26 4.54 2.72-1.14 4.1-2.9Q15 3.66 12 3.66q-1.02 0-2.04.28m3.98 5.96q.3.64.68 1.62 1.48-.14 3.22-.14 1.24 0 2.46.06-.16-2.72-1.96-4.84-1.3 1.94-4.4 3.3m1.18 3.02q1.02 2.96 1.38 6.08a8.35 8.35 0 0 0 2.58-2.62 8.1 8.1 0 0 0 1.2-3.46q-1.46-.1-2.66-.1-1.1 0-2.5.1"/></svg>