<svg xmlns="http://www.w3.org/2000/svg" fill="none" viewBox="0 0 24 24"><path fill="#090404" d="m15.781 11.625-2.5 3.125 4.5 5.625-1.562 1.25L12 16.352l-4.219 5.273-1.562-1.25 4.5-5.625-2.5-3.125 1.562-1.25L12 13.148l2.219-2.773z"/><path fill="#090404" d="M14.18 10a2 2 0 0 1 1.962 1.607l1.838 9.197A1 1 0 0 1 17 22H7a1 1 0 0 1-.98-1.196l1.838-9.197A2 2 0 0 1 9.82 10zM8.22 20h7.56l-1.6-8H9.82z"/><path fill="#090404" d="M12.5 6.5c0-.562-.197-1.292-.473-1.898q-.013-.03-.027-.057-.014.028-.027.057c-.276.606-.473 1.336-.473 1.898a.5.5 0 0 0 1 0m2 0a2.5 2.5 0 0 1-5 0c0-.938.303-1.958.652-2.727.177-.389.387-.76.614-1.051.112-.144.25-.3.418-.427A1.35 1.35 0 0 1 12 2c.382 0 .667.18.816.295.167.128.306.283.418.427.227.291.437.662.614 1.051.349.77.652 1.789.652 2.727"/><path fill="#090404" d="M19 20a1 1 0 1 1 0 2H5a1 1 0 1 1 0-2z"/></svg>