<svg xmlns="http://www.w3.org/2000/svg" fill="none" viewBox="0 0 24 24"><path fill="#090404" d="M3.869 14.475a2 2 0 0 1 2.828 0l2.83 2.829a2 2 0 0 1 0 2.828l-.709.708a2 2 0 0 1-2.828 0l-2.828-2.83a2 2 0 0 1 0-2.828zm.707 2.121 2.828 2.829.707-.707-2.828-2.828z"/><path fill="#090404" d="M15.182 3.162a2 2 0 0 1 2.828 0l2.829 2.828a2 2 0 0 1 0 2.828l-.708.708a2 2 0 0 1-2.828 0l-2.829-2.829a2 2 0 0 1 0-2.828zm.707 2.121 2.828 2.828.707-.707-2.828-2.828z"/><path fill="#090404" d="M4.222 10.587a2 2 0 0 1 2.829 0l6.364 6.364a2 2 0 0 1 0 2.828l-.707.707a2 2 0 0 1-2.828 0l-6.365-6.364a2 2 0 0 1 0-2.828zm.708 2.12 6.364 6.365.707-.707-6.364-6.364z"/><path fill="#090404" d="M11.293 3.515a2 2 0 0 1 2.828 0l6.364 6.365a2 2 0 0 1 0 2.828l-.707.707a2 2 0 0 1-2.828 0L10.586 7.05a2 2 0 0 1 0-2.829zM12 5.637 18.364 12l.707-.707-6.364-6.364z"/><path fill="#090404" d="M12.707 7.758a1 1 0 0 1 1.415 1.414l-4.243 4.243A1 1 0 0 1 8.465 12z"/><path fill="#090404" d="M14.828 9.879a1.001 1.001 0 0 1 1.415 1.414L12 15.536a1 1 0 0 1-1.414-1.415z"/></svg>