<svg xmlns="http://www.w3.org/2000/svg" fill="none" viewBox="0 0 24 24"><path fill="#090404" d="M18 9.605V9.5a5.5 5.5 0 1 0-11 0v7.792a2.708 2.708 0 0 0 5.13 1.21l.395-.788a9 9 0 0 1 1.686-2.339l2.389-2.389a4.78 4.78 0 0 0 1.4-3.38m2 0a6.78 6.78 0 0 1-1.986 4.795l-2.389 2.39a7 7 0 0 0-1.312 1.818l-.394.79A4.708 4.708 0 0 1 5 17.292V9.5a7.5 7.5 0 1 1 15 0z"/><path fill="#090404" d="M14 9.5a1.5 1.5 0 0 0-3 0c0 .41.051.777.123 1.158.065.343.176.825.24 1.246.149.969.14 2.031-.434 3.467a1 1 0 0 1-1.858-.742c.426-1.064.417-1.76.316-2.421-.06-.393-.137-.694-.229-1.178A8 8 0 0 1 9 9.5a3.5 3.5 0 1 1 7 0 1 1 0 1 1-2 0"/></svg>