<svg xmlns="http://www.w3.org/2000/svg" fill="none" viewBox="0 0 24 24"><path fill="#090404" d="M20 12a8 8 0 1 0-16 0 8 8 0 0 0 16 0m2 0c0 5.523-4.477 10-10 10S2 17.523 2 12 6.477 2 12 2s10 4.477 10 10"/><path fill="#090404" d="m11.637 11.9 1.19.077c.305.02.6.11.864.262l.111.069 1.94 1.304a1.97 1.97 0 0 1 .663 2.52l-.32.643a1.97 1.97 0 0 1-1.765 1.09h-1.797c-.66 0-1.276-.33-1.642-.878l-1.214-1.822a1.97 1.97 0 0 1 .25-2.492l.201-.201.158-.14c.327-.264.73-.415 1.15-.433zm-.294 2.175 1.193 1.79h1.768l.303-.607-1.914-1.286-1.171-.075z"/><path fill="#090404" d="M13.156 3.267a1 1 0 0 1 1.94.484l-1.008 4.034a1.97 1.97 0 0 1-1.433 1.435l-2.88.723-.248.495a1.973 1.973 0 0 1-2.946.69L3.571 8.87a1 1 0 0 1 1.202-1.6L7.756 9.51l.24-.476.107-.185c.27-.416.688-.718 1.174-.84l2.874-.724z"/></svg>