<svg xmlns="http://www.w3.org/2000/svg" fill="none" viewBox="0 0 24 24"><path fill="#090404" d="M9 7a2 2 0 1 0-4 0 2 2 0 0 0 4 0m2 0a4 4 0 1 1-8 0 4 4 0 0 1 8 0"/><path fill="#090404" d="M19 7a2 2 0 1 0-4 0 2 2 0 0 0 4 0m2 0a4 4 0 1 1-8 0 4 4 0 0 1 8 0"/><path fill="#090404" d="M9.764 6a5 5 0 0 1 4.473 0l.21.106a1 1 0 0 1-.894 1.789l-.21-.106a3 3 0 0 0-2.684 0l-.211.106a1 1 0 0 1-.895-1.79z"/><path fill="#090404" d="M6.146 13.447c1.667-.985 3.76-1.082 5.807-.064a.18.18 0 0 0 .152.007c2.071-.91 4.144-.897 5.805.04 1.663.937 2.742 2.702 3.019 4.941.152 1.226-.862 2.13-1.937 2.13H17.97a2 2 0 0 1-1.537-.72l-.412-.496-.518.297a2 2 0 0 1-2.01-.012L12 18.69l-1.491.88a2 2 0 0 1-2.01.012l-.518-.297-.412.496c-.38.456-.944.72-1.538.72h-1.03c-1.064 0-2.093-.894-1.927-2.132l.065-.401c.37-1.982 1.46-3.606 3.007-4.52m4.917 1.726c-1.483-.738-2.855-.621-3.9-.004-1.03.61-1.839 1.768-2.085 3.332h.953l.414-.496a2 2 0 0 1 2.53-.454l.518.296 1.49-.88a2 2 0 0 1 2.034 0l1.49.88.518-.296a2 2 0 0 1 2.53.454l.414.496h.958c-.236-1.673-1.014-2.774-1.998-3.329-1.008-.568-2.404-.661-4.02.049a2.18 2.18 0 0 1-1.846-.048"/></svg>