<svg xmlns="http://www.w3.org/2000/svg" fill="none" viewBox="0 0 24 24"><path fill="#090404" d="M20 12a1 1 0 1 0-2 0 1 1 0 0 0 2 0m2 0a3 3 0 1 1-6 0 3 3 0 0 1 6 0"/><path fill="#090404" d="M6 12a1 1 0 1 0-2 0 1 1 0 0 0 2 0m2 0a3 3 0 1 1-6 0 3 3 0 0 1 6 0"/><path fill="#090404" d="M14 15.464a3 3 0 1 1 3 5.197 3 3 0 0 1-3-5.197m2.366 2.098a1 1 0 1 0-1.732 1.001 1 1 0 0 0 1.732-1.001"/><path fill="#090404" d="M7 3.34a3 3 0 1 1 3 5.197A3 3 0 0 1 7 3.34m2.366 2.098a1 1 0 1 0-1.731 1.001 1 1 0 0 0 1.731-1.001"/><path fill="#090404" d="M5.902 16.562a3 3 0 1 1 5.196 3 3 3 0 0 1-5.196-3M9 17.196a1 1 0 1 0-1 1.73 1 1 0 0 0 1-1.73"/><path fill="#090404" d="M12.903 4.438a3 3 0 1 1 5.195 3 3 3 0 0 1-5.195-3M16 5.072a1 1 0 1 0-1 1.73 1 1 0 0 0 1-1.73"/></svg>