<svg xmlns="http://www.w3.org/2000/svg" fill="none" viewBox="0 0 24 24"><path fill="#090404" d="M20 10V6.6c0-.297-.001-.459-.01-.576l-.003-.012-.011-.001A8 8 0 0 0 19.4 6H4.6a8 8 0 0 0-.576.01l-.012.002-.001.012A8 8 0 0 0 4 6.6v10.8c0 .297.001.46.01.576l.002.011.012.002c.117.01.28.011.576.011H12a1 1 0 1 1 0 2H4.6c-.264 0-.522.001-.739-.017a2 2 0 0 1-.77-.2 2 2 0 0 1-.873-.875 2 2 0 0 1-.201-.77C1.999 17.923 2 17.665 2 17.4V6.6c0-.264-.001-.522.017-.739.018-.228.063-.498.2-.77a2 2 0 0 1 .875-.873c.271-.138.54-.183.77-.201C4.077 3.999 4.335 4 4.6 4h14.8c.264 0 .522-.001.739.017.228.018.498.063.77.2a2 2 0 0 1 .796.737l.077.138.087.203c.072.2.1.395.114.566.018.217.017.475.017.739V10a1 1 0 1 1-2 0"/><path fill="#090404" d="M2.14 5.125a1 1 0 0 1 1.372-.348L12 9.836l8.488-5.06a1 1 0 0 1 1.024 1.72l-8.488 5.058a2 2 0 0 1-2.047 0L2.489 6.496a1 1 0 0 1-.348-1.371"/><path fill="#090404" d="M18 20v-6a1 1 0 1 1 2 0v6a1 1 0 1 1-2 0"/><path fill="#090404" d="M16 16h6a1 1 0 1 1 0 2h-6a1 1 0 1 1 0-2"/></svg>