<svg xmlns="http://www.w3.org/2000/svg" fill="none" viewBox="0 0 24 24"><path fill="#090404" d="M20 10V6.6c0-.297-.001-.459-.01-.576l-.003-.012-.011-.001A8 8 0 0 0 19.4 6H4.6a8 8 0 0 0-.576.01l-.012.002-.001.012A8 8 0 0 0 4 6.6v10.8c0 .297.001.46.01.576l.002.011.012.002c.117.01.28.011.576.011H12a1 1 0 1 1 0 2H4.6c-.264 0-.522.001-.739-.017a2 2 0 0 1-.77-.2 2 2 0 0 1-.873-.875 2 2 0 0 1-.201-.77C1.999 17.923 2 17.665 2 17.4V6.6c0-.264-.001-.522.017-.739.018-.228.063-.498.2-.77a2 2 0 0 1 .875-.873c.271-.138.54-.183.77-.201C4.077 3.999 4.335 4 4.6 4h14.8c.264 0 .522-.001.739.017.228.018.498.063.77.2a2 2 0 0 1 .796.737l.077.138.087.203c.072.2.1.395.114.566.018.217.017.475.017.739V10a1 1 0 1 1-2 0"/><path fill="#090404" d="M2.14 5.125a1 1 0 0 1 1.372-.348L12 9.836l8.488-5.059a1 1 0 0 1 1.024 1.719l-8.488 5.058a2 2 0 0 1-2.047 0L2.489 6.496a1 1 0 0 1-.348-1.371"/><path fill="#090404" d="M20 17a1 1 0 1 0-2 0 1 1 0 0 0 2 0m2 0a3 3 0 0 1-.052.547l.366.212a1 1 0 0 1-1 1.732l-.366-.212a3 3 0 0 1-.948.55v.421a1 1 0 1 1-2 0v-.422a3 3 0 0 1-.95-.549l-.365.212a1 1 0 0 1-1-1.732l.367-.212A3 3 0 0 1 16 17q.001-.28.052-.548l-.367-.21a1 1 0 0 1 1-1.733l.366.21c.277-.236.598-.424.949-.548v-.421a1 1 0 0 1 2 0v.42c.35.125.671.313.948.55l.366-.211a1 1 0 0 1 1 1.732l-.366.211q.05.267.052.548"/></svg>