<svg xmlns="http://www.w3.org/2000/svg" fill="none" viewBox="0 0 24 24"><path fill="#090404" d="m20.24 16.185-.696-1.812a.582.582 0 0 0-1.088 0l-.697 1.812a1 1 0 0 1-.574.575l-1.812.696a.582.582 0 0 0 0 1.088l1.812.697a1 1 0 0 1 .575.574l.696 1.812a.582.582 0 0 0 1.088 0l.697-1.812a1 1 0 0 1 .574-.575l1.812-.696a.582.582 0 0 0 0-1.088l-1.812-.697a1 1 0 0 1-.575-.574"/><path fill="#090404" d="m21.633 6.41-8.366 6.845a2 2 0 0 1-2.534 0L2.367 6.411l1.266-1.55L12 11.709l8.367-6.846z"/><path fill="#090404" d="M20 11V6.6c0-.297-.001-.459-.01-.576l-.003-.012-.011-.001A8 8 0 0 0 19.4 6H4.6a8 8 0 0 0-.576.01l-.012.002-.001.012A8 8 0 0 0 4 6.6v10.8c0 .297.001.46.01.576l.002.011.012.002c.117.01.28.011.576.011H12a1 1 0 1 1 0 2H4.6c-.264 0-.522.001-.739-.017a2 2 0 0 1-.77-.2 2 2 0 0 1-.873-.875 2 2 0 0 1-.201-.77C1.999 17.923 2 17.665 2 17.4V6.6c0-.264-.001-.522.017-.739.018-.228.063-.498.2-.77a2 2 0 0 1 .875-.873c.271-.138.54-.183.77-.201C4.077 3.999 4.335 4 4.6 4h14.8c.264 0 .522-.001.739.017.228.018.498.063.77.2a2 2 0 0 1 .796.737l.077.138.087.203c.072.2.1.395.114.566.018.217.017.475.017.739V11a1 1 0 1 1-2 0"/></svg>