<svg xmlns="http://www.w3.org/2000/svg" fill="none" viewBox="0 0 24 24"><path fill="#090404" d="M15.852 13.615c.326-.055.621.215.56.54-.968 5.118-7.858 5.135-8.824 0-.061-.325.233-.595.56-.54.917.154 2.62.41 3.852.41 1.233 0 2.935-.256 3.852-.41"/><path fill="#090404" d="M8.393 7.08a.25.25 0 0 1 .427-.03l.8 1.14a.25.25 0 0 0 .166.104l1.376.219a.25.25 0 0 1 .16.397l-.837 1.114a.25.25 0 0 0-.048.189l.217 1.377a.25.25 0 0 1-.328.275l-1.318-.453a.25.25 0 0 0-.195.014l-1.242.632a.25.25 0 0 1-.363-.227l.023-1.394a.25.25 0 0 0-.073-.18l-.985-.987a.25.25 0 0 1 .104-.416l1.333-.408a.25.25 0 0 0 .149-.125z"/><path fill="#090404" d="M15.61 7.08a.25.25 0 0 0-.427-.03l-.8 1.14a.25.25 0 0 1-.166.104l-1.376.219a.25.25 0 0 0-.16.397l.837 1.114a.25.25 0 0 1 .048.189l-.218 1.377a.25.25 0 0 0 .329.275l1.318-.453a.25.25 0 0 1 .194.014l1.243.632a.25.25 0 0 0 .363-.227l-.023-1.394a.25.25 0 0 1 .073-.18l.985-.987a.25.25 0 0 0-.104-.416l-1.333-.408a.25.25 0 0 1-.15-.125z"/><path fill="#090404" d="M20 12a8 8 0 1 0-16 0 8 8 0 0 0 16 0m2 0c0 5.523-4.477 10-10 10S2 17.523 2 12 6.477 2 12 2s10 4.477 10 10"/></svg>