<svg xmlns="http://www.w3.org/2000/svg" fill="none" viewBox="0 0 24 24"><path fill="#090404" d="M19 11a7 7 0 1 0-14 0c0 2.673 1.346 5.198 3.003 7.092.822.94 1.694 1.692 2.458 2.201.382.255.724.44 1.007.558.296.123.469.149.532.149s.236-.026.532-.15a6 6 0 0 0 1.007-.557c.764-.51 1.636-1.262 2.458-2.201C17.654 16.198 19 13.672 19 11m2 0c0 3.327-1.654 6.302-3.497 8.408-.928 1.06-1.931 1.934-2.855 2.549-.46.308-.916.56-1.344.74-.415.172-.867.303-1.304.303s-.889-.13-1.304-.304a8 8 0 0 1-1.344-.739c-.924-.615-1.927-1.488-2.855-2.549C4.654 17.302 3 14.327 3 11a9 9 0 0 1 18 0"/><path fill="#090404" d="M7.44 10.01c.859-.051 1.729.084 2.42.604.718.541 1.066 1.363 1.137 2.305a1 1 0 0 1-.952 1.074c-.804.036-1.68-.064-2.385-.557-.76-.534-1.124-1.38-1.159-2.393a1 1 0 0 1 .939-1.032"/><path fill="#090404" d="M16.56 10.01a1 1 0 0 1 .939 1.033c-.035 1.013-.398 1.86-1.16 2.393-.703.493-1.58.593-2.384.557a1 1 0 0 1-.952-1.074c.07-.942.42-1.764 1.137-2.305.691-.52 1.561-.655 2.42-.603"/></svg>