<svg xmlns="http://www.w3.org/2000/svg" fill="none" viewBox="0 0 24 24"><path fill="#090404" d="M11 10.52c0 .884-.672 1.48-1.5 1.48S8 11.404 8 10.52 8.672 9 9.5 9s1.5.636 1.5 1.52"/><path fill="#090404" d="M16 10.52c0 .884-.672 1.48-1.5 1.48s-1.5-.596-1.5-1.48S13.672 9 14.5 9s1.5.636 1.5 1.52"/><path fill="#090404" d="M20 12a8 8 0 1 0-16 0 8 8 0 0 0 16 0m2 0c0 5.523-4.477 10-10 10S2 17.523 2 12 6.477 2 12 2s10 4.477 10 10"/><path fill="#090404" d="m7.237 7.955.155.038 2.77.686.154.04a.89.89 0 0 1 .591.463c.119.237.132.53.041.801-.09.272-.276.497-.513.615a.89.89 0 0 1-.751.017l-.146-.062L6.91 9.44q-.073-.03-.146-.062a.76.76 0 0 1-.387-.39.74.74 0 0 1-.033-.54.74.74 0 0 1 .351-.413.76.76 0 0 1 .543-.08"/><path fill="#090404" d="M16.763 7.955a.76.76 0 0 1 .543.08.74.74 0 0 1 .351.413.74.74 0 0 1-.033.54.76.76 0 0 1-.387.39l-.146.062-2.629 1.113-.146.062a.89.89 0 0 1-.75-.017 1.06 1.06 0 0 1-.514-.615 1.06 1.06 0 0 1 .04-.8.89.89 0 0 1 .592-.465l.154-.039 2.77-.686z"/><path fill="#090404" d="M12.002 13.6c1.406-.008 2.813.561 3.797 1.54q.164.163.313.337a.8.8 0 0 1 .188.53.74.74 0 0 1-.222.511.74.74 0 0 1-.518.207.8.8 0 0 1-.524-.203 4.627 4.627 0 0 0-3.033-1.122 4.66 4.66 0 0 0-3.037 1.124.8.8 0 0 1-.525.201.74.74 0 0 1-.516-.209.74.74 0 0 1-.221-.511.8.8 0 0 1 .19-.53q.149-.173.313-.335c.984-.976 2.388-1.545 3.795-1.54"/></svg>