<svg xmlns="http://www.w3.org/2000/svg" fill="none" viewBox="0 0 24 24"><path fill="#090404" d="M16.568 12.824c.312-.105.644.11.633.44-.162 5.235-7.713 6.584-9.658 1.702-.122-.306.117-.622.446-.63a28.5 28.5 0 0 0 8.579-1.512"/><path fill="#090404" d="M7.44 10.469a.5.5 0 0 1 .104.59l-.422.834c-.2.395.169.819.572.634 1.006-.46 1.96-1.106 2.663-1.925a.435.435 0 0 0-.118-.666c-.94-.529-2.058-.81-3.16-.898-.442-.035-.644.489-.321.792z"/><path fill="#090404" d="M15.762 9.001a.5.5 0 0 0 .104.591l.682.639c.323.303.12.827-.32.792-1.104-.088-2.222-.37-3.161-.899a.435.435 0 0 1-.118-.666c.702-.818 1.657-1.465 2.663-1.925.403-.184.772.24.572.635z"/><path fill="#090404" d="M20 12a8 8 0 1 0-16 0 8 8 0 0 0 16 0m2 0c0 5.522-4.477 10-10 10S2 17.522 2 12 6.477 2 12 2s10 4.477 10 10"/></svg>