<svg xmlns="http://www.w3.org/2000/svg" fill="none" viewBox="0 0 24 24"><path fill="#090404" d="M15.159 13.416q-3.159 1.293-6.318 0c-.444-.182-.902.256-.632.653 2.028 2.991 5.555 2.991 7.582 0 .27-.397-.188-.835-.632-.653"/><path fill="#090404" d="M11 10.606c0 .887-.784 0-1.75 0s-1.75.887-1.75 0S8.284 9 9.25 9 11 9.719 11 10.606"/><path fill="#090404" d="M16.5 10.606c0 .536-.287.424-.727.251-.287-.113-.641-.251-1.023-.251s-.735.138-1.023.251c-.44.173-.727.285-.727-.251C13 9.719 13.784 9 14.75 9s1.75.719 1.75 1.606"/><path fill="#090404" d="m19 4.727-.004-.004-.013-.007h-.014c-4.711.834-9.227.834-13.938 0h-.014a.04.04 0 0 0-.017.01V12.5a7 7 0 0 0 14 0zm2 7.773a9 9 0 0 1-18 0V4.727C3 3.45 4.164 2.53 5.38 2.747c4.48.792 8.76.792 13.24 0C19.836 2.53 21 3.45 21 4.726z"/><path fill="#090404" d="M9.25 9c.966 0 1.75.719 1.75 1.605 0 .887-.784 0-1.75 0s-1.75.887-1.75 0C7.5 9.72 8.284 9 9.25 9"/></svg>