<svg xmlns="http://www.w3.org/2000/svg" fill="none" viewBox="0 0 24 24"><path fill="#090404" d="M10.75 9.773c0 1.031-.672 1.727-1.5 1.727s-1.5-.696-1.5-1.727C7.75 8.743 8.422 8 9.25 8s1.5.742 1.5 1.773"/><path fill="#090404" d="M16.25 9.773c0 1.031-.672 1.727-1.5 1.727s-1.5-.696-1.5-1.727c0-1.03.672-1.773 1.5-1.773s1.5.742 1.5 1.773"/><path fill="#090404" d="M16.318 11.809a.435.435 0 0 0-.636 0C13.886 13.715 13.553 17 16 17s2.114-3.285.318-5.191"/><path fill="#090404" d="M12 14.23a3.3 3.3 0 0 1 1.532.381 4 4 0 0 0-.025.284c-.02.341.003.69.083 1.024-.432-.085-.986-.205-1.59-.205-1.38 0-2.5.632-2.5.015 0-.616 1.12-1.5 2.5-1.5"/><path fill="#090404" d="M20 12a8 8 0 1 0-16 0 8 8 0 0 0 16 0m2 0c0 5.523-4.477 10-10 10S2 17.523 2 12 6.477 2 12 2s10 4.477 10 10"/></svg>