<svg xmlns="http://www.w3.org/2000/svg" fill="none" viewBox="0 0 24 24"><path fill="#090404" d="M14 15.5c0 1.726-.895 2.5-2 2.5s-2-.774-2-2.5.895-2.5 2-2.5 2 .774 2 2.5"/><ellipse cx="9.25" cy="10.5" fill="#090404" rx="1.25" ry="1.5"/><ellipse cx="14.75" cy="10.5" fill="#090404" rx="1.25" ry="1.5"/><path fill="#090404" d="M9.946 6.9c.305.683-.747.778-1.592 1.227-.863.458-1.527 1.256-1.794.66-.55-1.23 2.834-3.118 3.386-1.886"/><path fill="#090404" d="M14.054 6.9c-.305.683.747.778 1.592 1.227.863.458 1.527 1.256 1.794.66.55-1.23-2.834-3.118-3.386-1.886"/><path fill="#090404" d="M20 12a8 8 0 1 0-16 0 8 8 0 0 0 16 0m2 0c0 5.523-4.477 10-10 10S2 17.523 2 12 6.477 2 12 2s10 4.477 10 10"/></svg>