<svg xmlns="http://www.w3.org/2000/svg" fill="none" viewBox="0 0 24 24"><path fill="#090404" d="M10.75 9.9c0 1.105-.672 1.85-1.5 1.85s-1.5-.745-1.5-1.85S8.422 8 9.25 8s1.5.795 1.5 1.9"/><path fill="#090404" d="M16.25 9.9c0 1.105-.672 1.85-1.5 1.85s-1.5-.745-1.5-1.85.672-1.9 1.5-1.9 1.5.795 1.5 1.9"/><path fill="#090404" d="M15.452 13.787a.74.74 0 0 1 .545.112c.16.108.27.275.31.465s.004.388-.092.555a5 5 0 0 1-.275.416c-.89 1.222-2.424 1.953-3.939 1.94-1.514.01-3.045-.721-3.936-1.94a5 5 0 0 1-.277-.414.8.8 0 0 1-.093-.555.74.74 0 0 1 .308-.465.74.74 0 0 1 .546-.114c.192.034.362.14.482.292q.11.137.231.26c.72.743 1.725 1.136 2.741 1.136 1.016.002 2.02-.39 2.738-1.133q.12-.125.23-.261a.8.8 0 0 1 .48-.294"/><path fill="#090404" d="M20 12a8 8 0 1 0-16 0 8 8 0 0 0 16 0m2 0c0 5.523-4.477 10-10 10S2 17.523 2 12 6.477 2 12 2s10 4.477 10 10"/></svg>