<svg xmlns="http://www.w3.org/2000/svg" fill="none" viewBox="0 0 24 24"><path fill="#090404" d="M8.5 9a.5.5 0 1 0 0 1 .5.5 0 0 0 0-1m1.5.5a1.5 1.5 0 1 1-3 0 1.5 1.5 0 0 1 3 0"/><path fill="#090404" d="M13.5 9a.5.5 0 1 0 0 1 .5.5 0 0 0 0-1m1.5.5a1.5 1.5 0 1 1-3 0 1.5 1.5 0 0 1 3 0"/><path fill="#090404" d="M20 12a8 8 0 1 0-16 0 8 8 0 0 0 16 0m2 0c0 5.523-4.477 10-10 10S2 17.523 2 12 6.477 2 12 2s10 4.477 10 10"/><path fill="#090404" d="M8.599 8.5a1 1 0 0 1 0 2h-.2a1 1 0 1 1 0-2z"/><path fill="#090404" d="M13.599 8.5a1 1 0 0 1 0 2h-.2a1 1 0 0 1 0-2z"/><path fill="#090404" d="M15.92 12.8a1 1 0 0 1 1.96.4 6.01 6.01 0 0 1-4.68 4.68 1 1 0 0 1-.4-1.96 4.01 4.01 0 0 0 3.12-3.12"/></svg>