<svg xmlns="http://www.w3.org/2000/svg" fill="none" viewBox="0 0 24 24"><path fill="#090404" d="M10.75 9.9c0 1.105-.672 1.85-1.5 1.85s-1.5-.745-1.5-1.85S8.422 8 9.25 8s1.5.795 1.5 1.9"/><path fill="#090404" d="M16.25 9.9c0 1.105-.672 1.85-1.5 1.85s-1.5-.745-1.5-1.85.672-1.9 1.5-1.9 1.5.795 1.5 1.9"/><path fill="#090404" d="M20 12a8 8 0 1 0-16 0 8 8 0 0 0 16 0m2 0c0 5.523-4.477 10-10 10S2 17.523 2 12 6.477 2 12 2s10 4.477 10 10"/><path fill="#090404" d="M12.002 13.6c1.406-.008 2.813.561 3.797 1.54q.164.163.313.337a.8.8 0 0 1 .188.53.74.74 0 0 1-.222.511.74.74 0 0 1-.518.207.8.8 0 0 1-.524-.203 4.627 4.627 0 0 0-3.033-1.122 4.66 4.66 0 0 0-3.037 1.124.8.8 0 0 1-.525.201.74.74 0 0 1-.516-.209.74.74 0 0 1-.221-.511.8.8 0 0 1 .19-.53q.149-.173.313-.335c.984-.976 2.388-1.545 3.795-1.54"/></svg>