<svg xmlns="http://www.w3.org/2000/svg" fill="none" viewBox="0 0 24 24"><path fill="#090404" d="M15.852 13.615c.326-.055.621.215.56.54-.968 5.118-7.858 5.135-8.824 0-.061-.325.233-.595.56-.54.917.154 2.62.41 3.852.41 1.233 0 2.935-.256 3.852-.41"/><path fill="#090404" d="M10.75 9.9c0 1.105-.672 1.85-1.5 1.85s-1.5-.745-1.5-1.85S8.422 8 9.25 8s1.5.795 1.5 1.9"/><path fill="#090404" d="M16.5 10.246c0 1.254-.84.443-1.875.443s-1.875.811-1.875-.443c0-.724.84-1.246 1.875-1.246s1.875.522 1.875 1.246"/><path fill="#090404" d="M20 12a8 8 0 1 0-16 0 8 8 0 0 0 16 0m2 0c0 5.523-4.477 10-10 10S2 17.523 2 12 6.477 2 12 2s10 4.477 10 10"/></svg>