<svg xmlns="http://www.w3.org/2000/svg" fill="none" viewBox="0 0 24 24"><path fill="#090404" d="M20 12a8 8 0 1 0-16 0 8 8 0 0 0 16 0m2 0c0 5.523-4.477 10-10 10S2 17.523 2 12 6.477 2 12 2s10 4.477 10 10"/><path fill="#090404" d="M16.425 12.82a1 1 0 0 1 1.967.36 6.501 6.501 0 0 1-12.786 0 1 1 0 1 1 1.967-.36 4.502 4.502 0 0 0 8.852 0"/><path fill="#090404" d="M9.5 8.5a.5.5 0 1 0 0 1 .5.5 0 0 0 0-1M11 9a1.5 1.5 0 1 1-3 0 1.5 1.5 0 0 1 3 0"/><path fill="#090404" d="M14.5 8.5a.5.5 0 1 0 0 1 .5.5 0 0 0 0-1M16 9a1.5 1.5 0 1 1-3 0 1.5 1.5 0 0 1 3 0"/><path fill="#090404" d="M9.599 8a1 1 0 0 1 0 2h-.2a1 1 0 1 1 0-2z"/><path fill="#090404" d="M14.599 8a1 1 0 0 1 0 2h-.2a1 1 0 0 1 0-2z"/></svg>