<svg xmlns="http://www.w3.org/2000/svg" fill="none" viewBox="0 0 24 24"><path fill="#090404" d="M16 7a3 3 0 0 0-2-2.826V5a1 1 0 0 1-1 1h-3a2 2 0 0 0-1.733 2.999l.004.01H9a1 1 0 0 1 0 2H7.823A2 2 0 0 0 6 13c0 .367.098.704.269.995L6.27 14H12a1 1 0 1 1 0 2H5.5a1.5 1.5 0 0 0 0 3h13a1.5 1.5 0 0 0 0-3H17a1 1 0 1 1 0-2h.729l.002-.005c.171-.291.269-.628.269-.995a2 2 0 0 0-2-2h-2a1 1 0 1 1 0-2h1.258q.037-.065.085-.125A3 3 0 0 0 16 7m2 0a5 5 0 0 1-.547 2.273 4 4 0 0 1 2.345 4.976A3.5 3.5 0 0 1 18.5 21h-13a3.5 3.5 0 0 1-1.299-6.751 4 4 0 0 1 2.053-4.85A4 4 0 0 1 10 4h2v-.999a1 1 0 0 1 1-1 5 5 0 0 1 5 5"/></svg>