<svg xmlns="http://www.w3.org/2000/svg" fill="none" viewBox="0 0 24 24"><path fill="#090404" d="M20 12a8 8 0 1 0-16 0 8 8 0 0 0 16 0m2 0c0 5.523-4.477 10-10 10S2 17.523 2 12 6.477 2 12 2s10 4.477 10 10"/><path fill="#090404" d="M6.574 9.763a1 1 0 0 1 1.404.051l-.007-.007-.009-.01.007.007a1 1 0 0 0 .103.068c.103.056.284.128.553.128s.45-.072.553-.128a1 1 0 0 0 .103-.068l.007-.006-.009.009-.006.007a1 1 0 0 1 1.464 1.362L10 10.5c.737.676.737.676.736.677l-.002.002-.01.01-.014.016a2 2 0 0 1-.163.147c-.1.082-.237.18-.412.276a3.13 3.13 0 0 1-1.51.372 3.13 3.13 0 0 1-1.51-.372 2.7 2.7 0 0 1-.534-.383l-.04-.04-.016-.017-.01-.01v-.001h-.001s-.001-.001.736-.677l-.737.676a1 1 0 0 1 .061-1.413"/><path fill="#090404" d="M13.324 9.763a1 1 0 0 1 1.404.051l-.007-.007-.002-.003c.015.012.05.039.103.068.103.056.284.128.553.128s.45-.072.553-.128a1 1 0 0 0 .101-.065l-.006.007a1 1 0 0 1 1.464 1.362l-.737-.676c.737.676.737.676.736.677l-.002.002-.01.01-.014.016a2 2 0 0 1-.163.147c-.1.082-.237.18-.412.276a3.13 3.13 0 0 1-1.51.372 3.13 3.13 0 0 1-1.51-.372 2.7 2.7 0 0 1-.534-.383l-.04-.04-.016-.017-.01-.01v-.001h-.001s-.001-.001.736-.677l-.737.676a1 1 0 0 1 .061-1.413"/><path fill="#090404" d="M9.099 15.066a1 1 0 0 1 1.335-.467C11.02 14.88 11.525 15 12 15s.98-.12 1.566-.401a1 1 0 0 1 .867 1.802c-.8.385-1.601.599-2.433.599s-1.634-.214-2.434-.599a1 1 0 0 1-.467-1.335"/></svg>