<svg xmlns="http://www.w3.org/2000/svg" fill="none" viewBox="0 0 24 24"><path fill="#090404" d="M10.75 9.9c0 1.105-.672 1.85-1.5 1.85s-1.5-.745-1.5-1.85S8.422 8 9.25 8s1.5.795 1.5 1.9"/><path fill="#090404" d="M16.25 9.9c0 1.105-.672 1.85-1.5 1.85s-1.5-.745-1.5-1.85.672-1.9 1.5-1.9 1.5.795 1.5 1.9"/><path fill="#090404" d="M20 12a8 8 0 1 0-16 0 8 8 0 0 0 16 0m2 0c0 5.523-4.477 10-10 10S2 17.523 2 12 6.477 2 12 2s10 4.477 10 10"/><path fill="#090404" d="M15.583 13.853a.73.73 0 0 1 .544-.002c.172.07.31.205.39.378.078.174.088.37.042.552q-.045.153-.113.3c-.432.92-1.331 1.343-2.052 1.531-.746.193-1.455.245-2.143.272l-.229.007a.9.9 0 1 1-.045-1.8q.106 0 .208-.006c.62-.023 1.228-.077 1.752-.214.53-.138.928-.313 1.155-.559a1 1 0 0 0 .077-.093.84.84 0 0 1 .414-.366"/></svg>