<svg xmlns="http://www.w3.org/2000/svg" fill="none" viewBox="0 0 24 24"><path fill="#090404" d="M9.351 12.13c1.898-1.507 2.176-2.95 1.613-3.83a1.52 1.52 0 0 0-1.225-.707 1.56 1.56 0 0 0-1.218.53 1.56 1.56 0 0 0-1.326-.082c-.456.186-.8.588-.91 1.083-.227 1.02.527 2.282 2.826 3.048a.26.26 0 0 0 .24-.043"/><path fill="#090404" d="M14.89 12.172c2.298-.766 3.052-2.027 2.825-3.048a1.52 1.52 0 0 0-.91-1.082 1.56 1.56 0 0 0-1.326.081 1.56 1.56 0 0 0-1.217-.53 1.53 1.53 0 0 0-1.226.706c-.563.881-.285 2.325 1.613 3.83.068.054.158.07.24.043"/><path fill="#090404" d="M11.999 18a4 4 0 0 0 3.962-3.447c.04-.294-.219-.526-.514-.5-2.309.206-4.587.206-6.896 0-.296-.026-.555.206-.514.5A4 4 0 0 0 11.999 18"/><path fill="#090404" d="M20 12a8 8 0 1 0-16 0 8 8 0 0 0 16 0m2 0c0 5.523-4.477 10-10 10S2 17.523 2 12 6.477 2 12 2s10 4.477 10 10"/></svg>