<svg xmlns="http://www.w3.org/2000/svg" fill="none" viewBox="0 0 24 24"><path fill="#090404" d="M12.47 19.984h1.511l-1.222.891.467 1.45-1.224-.894-1.224.893.466-1.449-1.221-.891h1.51l.469-1.461z"/><path fill="#090404" d="M8.153 18.823H9.67l-.501.36-.728.527.279.863.19.584-.498-.362-.726-.531-.727.531-.497.362.466-1.448-1.227-.886h1.517l.468-1.453z"/><path fill="#090404" d="M16.786 18.823h1.517l-1.228.886.467 1.448-.497-.362-.727-.531-.726.531-.497.362.19-.584.277-.863-.727-.526-.501-.361h1.517l.467-1.453z"/><path fill="#090404" d="M19.953 15.633h1.467l-1.185.896.28.865.188.586-.497-.363-.726-.53-1.228.89.465-1.447-1.21-.897h1.506l.282-.862.192-.584z"/><path fill="#090404" d="M5.02 15.633h1.479l-.49.361-.729.537.467 1.446-1.228-.89-1.229.89.189-.583.277-.863-.729-.537-.489-.36H4.08l.466-1.447z"/><path fill="#090404" d="M3.836 11.29h1.517l-.494.36-.734.537.469 1.453-1.24-.914-.711.524-.5.367.191-.59.276-.86-.724-.515-.511-.363h1.526l.278-.861.19-.59z"/><path fill="#090404" d="M21.125 11.29h1.485l-1.218.896.468 1.454-.499-.368-.727-.535-1.233.897.189-.584.276-.863-1.225-.898h1.549l.467-1.452z"/><path fill="#090404" d="M19.925 6.939h1.491l-1.18.9.47 1.456-.5-.367-.727-.536-.731.536-.498.364.468-1.45-1.206-.894.6-.003.871-.006.285-.863.191-.585z"/><path fill="#090404" d="m4.736 6.082.284.863h1.479l-.49.36-.729.537.468 1.45-.498-.364-.731-.536-.732.536-.498.364.19-.587.277-.863-.729-.536-.489-.361H4.08l.466-1.448z"/><path fill="#090404" d="M8.153 3.767H9.67l-1.229.888.466 1.443-1.221-.884-.727.531-.497.363.466-1.449-1.222-.892h1.512l.468-1.452z"/><path fill="#090404" d="M16.786 3.767h1.517l-.5.362-.728.525.466 1.444-.495-.359-.728-.525-.726.531-.497.363.19-.586.277-.866-1.228-.89h1.517l.467-1.451z"/><path fill="#090404" d="M12.47 2.6h1.511l-1.222.892.467 1.458-1.224-.902-1.224.902.466-1.458-1.221-.892h1.511l.468-1.452z"/></svg>