<svg xmlns="http://www.w3.org/2000/svg" fill="none" viewBox="0 0 24 24"><path fill="#090404" d="M10.273 2.985c.774-1.313 2.674-1.313 3.448 0l8.248 14.003C22.755 18.324 21.79 20 20.246 20H3.748c-1.544 0-2.508-1.677-1.723-3.012zM3.75 18h16.494L11.997 4z"/><path fill="#090404" d="M10.997 12.012v-1.996a1 1 0 0 1 2 0v1.996a1 1 0 1 1-2 0"/><path fill="#090404" d="M12.75 15a.75.75 0 1 0-1.5 0 .75.75 0 0 0 1.5 0m.5 0a1.25 1.25 0 1 1-2.5 0 1.25 1.25 0 0 1 2.5 0"/><path fill="#090404" d="M12.01 14a1 1 0 1 1 0 2H12a1 1 0 1 1 0-2z"/></svg>