<svg xmlns="http://www.w3.org/2000/svg" fill="none" viewBox="0 0 24 24"><path fill="#090404" d="M12 2a1 1 0 0 1 .889.542l1.678 3.259 3.493-1.117a1 1 0 0 1 1.256 1.256L18.2 9.433l3.259 1.678a1 1 0 0 1 0 1.778l-3.124 1.61 2.608 5.098a1 1 0 0 1-1.345 1.345l-5.098-2.608-1.61 3.124a1 1 0 0 1-1.778 0l-1.678-3.259-3.493 1.117a1 1 0 0 1-1.256-1.256L5.8 14.567 2.542 12.89a1 1 0 0 1 0-1.778l3.124-1.61-2.608-5.098a1 1 0 0 1 1.345-1.345l5.098 2.608 1.61-3.124.073-.12A1 1 0 0 1 12 2m-.72 4.582a2 2 0 0 1-2.69.865L6.249 6.25l1.198 2.34a2 2 0 0 1-.865 2.69l-1.4.72 1.535.791a2 2 0 0 1 .99 2.388l-.526 1.64 1.641-.524a2 2 0 0 1 2.388.99l.79 1.532.72-1.398a2 2 0 0 1 2.69-.865l2.34 1.197-1.197-2.34a2 2 0 0 1 .865-2.69l1.398-.72-1.533-.79a2 2 0 0 1-.99-2.388l.525-1.641-1.64.525a2 2 0 0 1-2.388-.99l-.791-1.533z"/></svg>