<svg xmlns="http://www.w3.org/2000/svg" fill="none" viewBox="0 0 24 24"><path fill="#090404" d="m16 5.227-.588.235a2 2 0 0 1-1.992-.296L12 4.031l-1.42 1.135a2 2 0 0 1-1.992.296L8 5.227V8a4 4 0 0 0 8 0zM18 8A6 6 0 0 1 6 8V4.308c0-.914.866-1.557 1.72-1.335l.17.056 1.44.576 1.421-1.136a2 2 0 0 1 2.498 0l1.42 1.136 1.441-.576.17-.056A1.378 1.378 0 0 1 18 4.308z"/><path fill="#090404" d="M7.004 16.004a4.14 4.14 0 0 0 3.991 3.991 4.14 4.14 0 0 0-3.991-3.991m9.991 0a4.14 4.14 0 0 0-3.991 3.991 4.14 4.14 0 0 0 3.991-3.991M19 15.857a6.143 6.143 0 0 1-7 6.083q-.421.06-.857.06A6.143 6.143 0 0 1 5 15.857l.001-.08.01-.181c.1-.892.849-1.583 1.765-1.595L6.857 14A6.14 6.14 0 0 1 12 16.784 6.14 6.14 0 0 1 17.143 14l.08.001a1.796 1.796 0 0 1 1.765 1.595l.011.18z"/><path fill="#090404" d="M11 13h2v9h-2z"/></svg>