<svg xmlns="http://www.w3.org/2000/svg" fill="none" viewBox="0 0 24 24"><path fill="#090404" d="M10.607 4.095c4.554-.623 9.166 1.814 12.023 6.964a1.94 1.94 0 0 1 0 1.883c-.471.849-.99 1.624-1.548 2.325a1 1 0 0 1-1.564-1.247q.721-.904 1.345-2.02c-2.538-4.552-6.409-6.413-9.985-5.924a1 1 0 1 1-.271-1.981"/><path fill="#090404" d="M2.293 2.293a1 1 0 0 1 1.414 0l18 18a1 1 0 1 1-1.414 1.414l-18-18a1 1 0 0 1 0-1.414"/><path fill="#090404" d="M8 12c0-.816.245-1.578.667-2.213a1 1 0 0 1 1.666 1.108 2 2 0 0 0 2.772 2.772 1 1 0 0 1 1.108 1.665A4 4 0 0 1 8 12"/><path fill="#090404" d="M5.537 6.193a1 1 0 0 1 1.182 1.614c-1.333.978-2.567 2.368-3.584 4.192 1.654 2.966 3.877 4.786 6.19 5.56 2.314.775 4.79.531 7.024-.757a1 1 0 0 1 1 1.732c-2.719 1.567-5.789 1.884-8.66.922-2.866-.96-5.46-3.166-7.318-6.514a1.94 1.94 0 0 1-.001-1.883l.218-.382c1.105-1.883 2.45-3.384 3.949-4.484"/></svg>