<svg xmlns="http://www.w3.org/2000/svg" fill="none" viewBox="0 0 24 24"><path fill="#090404" d="m13.24 10.185-.696-1.812a.582.582 0 0 0-1.088 0l-.697 1.812a1 1 0 0 1-.574.574l-1.812.697a.582.582 0 0 0 0 1.088l1.812.697a1 1 0 0 1 .574.574l.697 1.812a.582.582 0 0 0 1.088 0l.697-1.812a1 1 0 0 1 .574-.574l1.812-.697a.582.582 0 0 0 0-1.088l-1.812-.697a1 1 0 0 1-.574-.574"/><path fill="#090404" d="M12 4c4.096 0 8.065 2.439 10.628 7.055a1.95 1.95 0 0 1 0 1.89C20.065 17.561 16.096 20 12 20s-8.065-2.439-10.628-7.055a1.96 1.96 0 0 1 0-1.89C3.935 6.439 7.904 4 12 4m0 2c-3.23 0-6.587 1.913-8.865 6 2.278 4.087 5.634 6 8.865 6s6.586-1.914 8.864-6.001C18.586 7.913 15.23 6 12 6"/></svg>