<svg xmlns="http://www.w3.org/2000/svg" fill="none" viewBox="0 0 24 24"><path fill="#090404" d="M10.607 4.095c4.554-.623 9.165 1.814 12.023 6.964a1.94 1.94 0 0 1 0 1.883c-.471.849-.99 1.624-1.548 2.325a1 1 0 0 1-1.564-1.247q.721-.904 1.345-2.02c-2.538-4.552-6.41-6.413-9.985-5.924a1 1 0 1 1-.271-1.981"/><path fill="#090404" d="M2.293 2.293a1 1 0 0 1 1.414 0l18 18a1 1 0 1 1-1.414 1.414l-18-18a1 1 0 0 1 0-1.414"/><path fill="#090404" d="M5.854 5.969a1 1 0 1 1 1.132 1.648C5.55 8.603 4.219 10.055 3.136 12c1.684 3.022 3.96 4.855 6.321 5.604 2.362.75 4.887.443 7.148-.953a1 1 0 0 1 1.052 1.7c-2.74 1.693-5.87 2.09-8.805 1.159-2.93-.93-5.588-3.156-7.482-6.568a1.94 1.94 0 0 1 0-1.882l.232-.406c1.18-2.004 2.633-3.573 4.252-4.684"/><path fill="#090404" d="M9.455 8.914a4 4 0 0 1 5.615 5.652 1 1 0 0 1-1.534-1.285 2 2 0 0 0-2.808-2.825 1 1 0 1 1-1.273-1.542"/><path fill="#090404" d="M3.447 8.447a1 1 0 0 1 1.414 0l9.472 9.472a1 1 0 0 1-1.414 1.414L3.447 9.861a1 1 0 0 1 0-1.414"/></svg>