<svg xmlns="http://www.w3.org/2000/svg" fill="none" viewBox="0 0 24 24"><path fill="#090404" d="M19.272 12.253a1 1 0 0 1 1.457 1.37c-2.492 2.65-5.587 4.02-8.729 4.02s-6.237-1.37-8.729-4.02a1 1 0 0 1 1.457-1.37c2.154 2.29 4.737 3.39 7.272 3.39s5.118-1.1 7.272-3.39"/><path fill="#090404" d="M12 3c3.142 0 6.237 1.37 8.729 4.019a1 1 0 0 1-1.458 1.37C17.118 6.1 14.535 5 12 5S6.882 6.1 4.728 8.39a1 1 0 0 1-1.457-1.37C5.763 4.37 8.858 3 12 3"/><path fill="#090404" d="M11 20v-3.25a1 1 0 0 1 2 0V20a1 1 0 1 1-2 0"/><path fill="#090404" d="M7.644 15.732a1 1 0 0 1 1.711 1.036l-1.5 2.481a1 1 0 1 1-1.71-1.034z"/><path fill="#090404" d="M14.982 15.395a1 1 0 0 1 1.373.337l1.5 2.483a1 1 0 1 1-1.71 1.034l-1.5-2.481a1 1 0 0 1 .337-1.373"/></svg>