<svg xmlns="http://www.w3.org/2000/svg" fill="none" viewBox="0 0 24 24"><path fill="#090404" fill-rule="evenodd" d="M12.001 2.199c5.633 0 10 4.13 10.001 9.703s-4.368 9.7-10.001 9.7c-1.013 0-1.983-.134-2.895-.384a.8.8 0 0 0-.535.04l-1.986.875a.8.8 0 0 1-1.122-.708l-.055-1.78a.8.8 0 0 0-.268-.57C3.195 17.335 2 14.815 2 11.9c0-5.573 4.368-9.701 10.001-9.701m6.008 7.466c.28-.448-.27-.953-.69-.633l-3.155 2.395a.6.6 0 0 1-.723.003l-2.338-1.753a1.5 1.5 0 0 0-2.17.4l-2.938 4.66c-.282.448.268.95.688.63l3.155-2.395a.6.6 0 0 1 .723-.002l2.338 1.752a1.5 1.5 0 0 0 2.17-.4z" clip-rule="evenodd"/></svg>