<svg xmlns="http://www.w3.org/2000/svg" fill="none" viewBox="0 0 24 24"><path fill="#090404" d="M3 8V5a2 2 0 0 1 2-2h3a1 1 0 0 1 0 2H5v3a1 1 0 0 1-2 0"/><path fill="#090404" d="M3 19v-3a1 1 0 1 1 2 0v3h3a1 1 0 1 1 0 2H5a2 2 0 0 1-2-2"/><path fill="#090404" d="M19 8V5h-3a1 1 0 1 1 0-2h3a2 2 0 0 1 2 2v3a1 1 0 1 1-2 0"/><path fill="#090404" d="M19 19v-3a1 1 0 1 1 2 0v3a2 2 0 0 1-2 2h-3a1 1 0 1 1 0-2z"/><path fill="#090404" d="M11.5 11V8.75a1 1 0 0 1 2 0V11a3 3 0 0 1-2.251 2.905 1 1 0 1 1-.498-1.936c.431-.111.749-.505.749-.969"/><path fill="#090404" d="M7 10V9a1 1 0 0 1 2 0v1a1 1 0 1 1-2 0"/><path fill="#090404" d="M15 10V9a1 1 0 1 1 2 0v1a1 1 0 1 1-2 0"/><path fill="#090404" d="M14.499 14.832a1 1 0 0 1 1.002 1.73A7 7 0 0 1 12 17.5a7 7 0 0 1-3.501-.937A1 1 0 0 1 9.5 14.832 5 5 0 0 0 12 15.5c.912 0 1.765-.243 2.499-.668"/></svg>