<svg xmlns="http://www.w3.org/2000/svg" fill="none" viewBox="0 0 24 24"><path fill="#090404" d="M17.362 16.73a1 1 0 0 1 1.276 1.54C16.5 20.039 14.29 21 12 21s-4.5-.962-6.638-2.73a1 1 0 0 1 1.276-1.54C8.532 18.296 10.306 19 12 19s3.468-.704 5.362-2.27"/><path fill="#090404" d="M12 12.5V6a1 1 0 1 1 2 0v6.5a3 3 0 0 1-3 3 1 1 0 0 1-.102-1.995l.204-.01A1 1 0 0 0 12 12.5"/><path fill="#090404" d="M4 8V5a1 1 0 0 1 2 0v3a1 1 0 0 1-2 0"/><path fill="#090404" d="M18 8V5a1 1 0 1 1 2 0v3a1 1 0 1 1-2 0"/></svg>