<svg xmlns="http://www.w3.org/2000/svg" fill="none" viewBox="0 0 24 24"><path fill="#090404" d="M16.385 5.634a.27.27 0 0 1-.176-.137.26.26 0 0 1-.008-.219c.514-1.22.74-2.195.375-2.603-.97-1.083-4.854 1.071-6.093 1.8a.274.274 0 0 1-.388-.124c-.52-1.216-1.068-2.063-1.622-2.1-1.471-.097-2.657 4.105-3.004 5.475a.26.26 0 0 1-.14.171.27.27 0 0 1-.224.008c-1.25-.5-2.25-.722-2.669-.365-1.11.945 1.098 4.734 1.846 5.942a.258.258 0 0 1-.127.378c-1.248.507-2.115 1.041-2.153 1.582-.1 1.435 4.209 2.59 5.614 2.929a.27.27 0 0 1 .175.137.26.26 0 0 1 .008.218c-.514 1.22-.74 2.195-.374 2.603.968 1.084 4.854-1.07 6.093-1.8a.274.274 0 0 1 .387.124c.52 1.217 1.068 2.063 1.623 2.1 1.47.098 2.656-4.105 3.002-5.475a.26.26 0 0 1 .14-.171.28.28 0 0 1 .225-.008c1.25.501 2.25.722 2.67.365 1.11-.944-1.1-4.734-1.847-5.942a.26.26 0 0 1 .033-.313.3.3 0 0 1 .094-.064c1.248-.508 2.116-1.042 2.153-1.583.1-1.435-4.209-2.59-5.613-2.928m-1.688-1.375c.283.494-1.174 3.786-2.257 6.09a.217.217 0 0 1-.328.074.2.2 0 0 1-.07-.104c-.437-1.497-.937-3.257-1.473-4.75a.26.26 0 0 1 .003-.18.26.26 0 0 1 .123-.137c1.336-.711 3.623-1.657 4.002-.993m-6.404.407c.558.155 1.915 3.487 2.819 5.863a.2.2 0 0 1-.06.23.22.22 0 0 1-.242.024c-1.397-.756-3.025-1.657-4.486-2.344a.27.27 0 0 1-.129-.13.26.26 0 0 1-.012-.18c.43-1.423 1.36-3.67 2.11-3.463M4.06 9.371c.506-.276 3.883 1.145 6.244 2.201a.2.2 0 0 1 .095.084.2.2 0 0 1-.019.236.2.2 0 0 1-.106.068c-1.535.427-3.34.915-4.871 1.437a.28.28 0 0 1-.185-.004.27.27 0 0 1-.139-.119c-.728-1.303-1.7-3.533-1.019-3.903m.418 6.246c.158-.545 3.576-1.868 6.012-2.75a.22.22 0 0 1 .235.06.205.205 0 0 1 .025.235c-.776 1.362-1.699 2.95-2.404 4.375a.26.26 0 0 1-.132.126.27.27 0 0 1-.185.011c-1.46-.417-3.764-1.326-3.551-2.057m4.824 4.128c-.283-.494 1.174-3.787 2.258-6.09a.21.21 0 0 1 .209-.12c.043.003.085.02.118.046a.2.2 0 0 1 .07.104c.438 1.497.938 3.257 1.473 4.75.021.059.02.123-.003.18a.26.26 0 0 1-.122.136c-1.336.71-3.623 1.657-4.002.994m6.404-.408c-.558-.154-1.915-3.487-2.819-5.863a.2.2 0 0 1 .061-.23.22.22 0 0 1 .242-.023c1.396.755 3.024 1.656 4.486 2.343a.27.27 0 0 1 .128.13c.026.057.03.12.012.18-.43 1.426-1.36 3.67-2.11 3.463m4.233-4.705c-.506.277-3.883-1.144-6.244-2.201a.2.2 0 0 1-.095-.083.2.2 0 0 1 .019-.237.2.2 0 0 1 .106-.068c1.536-.427 3.34-.914 4.871-1.436.06-.02.126-.02.185.003.06.022.109.065.14.12.727 1.302 1.698 3.532 1.018 3.902m-.417-6.245c-.159.544-3.576 1.868-6.012 2.75a.22.22 0 0 1-.236-.06.21.21 0 0 1-.024-.236c.775-1.361 1.698-2.95 2.403-4.375a.26.26 0 0 1 .133-.125.27.27 0 0 1 .184-.012c1.46.42 3.764 1.327 3.552 2.058"/></svg>