<svg xmlns="http://www.w3.org/2000/svg" fill="none" viewBox="0 0 24 24"><path fill="#090404" d="M17 10.501a1 1 0 0 1 1.4-.917l1.498.654.863-2.589-5.277-2.261c-.101.167-.22.346-.36.525-.586.748-1.597 1.588-3.123 1.588s-2.538-.84-3.124-1.588c-.14-.18-.26-.358-.36-.525L3.24 7.649l.863 2.59L5.6 9.583a1 1 0 0 1 1.4.917v8.5h10zm-2.952-6.715a1 1 0 0 1 1.346-.612l6.154 2.638a2 2 0 0 1 1.11 2.47l-.863 2.59a2 2 0 0 1-2.698 1.2L19 12.027v6.973a2 2 0 0 1-2 2H7a2 2 0 0 1-2-2v-6.973l-.096.043a2 2 0 0 1-2.698-1.2l-.863-2.589a2 2 0 0 1 1.11-2.47l6.154-2.638.099-.036a1 1 0 0 1 1.246.648l.002.003.017.047a3.458 3.458 0 0 0 .48.844c.358.455.846.821 1.55.821.703 0 1.192-.366 1.548-.821a3.5 3.5 0 0 0 .498-.89l.002-.005z"/></svg>