<svg xmlns="http://www.w3.org/2000/svg" fill="none" viewBox="0 0 24 24"><path fill="#090404" d="M18 16.5a1.5 1.5 0 1 0-3 0 1.5 1.5 0 0 0 3 0m2 0a3.5 3.5 0 1 1-7 0 3.5 3.5 0 0 1 7 0"/><path fill="#090404" d="M9 16.5a1.5 1.5 0 1 0-3 0 1.5 1.5 0 0 0 3 0m2 0a3.5 3.5 0 1 1-7 0 3.5 3.5 0 0 1 7 0"/><path fill="#090404" d="M14 15a1 1 0 1 1 0 2h-4a1 1 0 1 1 0-2z"/><path fill="#090404" d="M18.965 6a2 2 0 0 1 1.664.89l1.51 2.265a2 2 0 0 1 .329 1.276l-.395 4.735A2 2 0 0 1 20.08 17h-.794a1 1 0 1 1 0-2h.794l.395-4.735L18.965 8H16a1 1 0 1 1 0-2z"/><path fill="#090404" d="M3.296 13.005a1 1 0 0 1 .897 1.094l-.09.901h.715a1 1 0 0 1 0 2h-.714a2 2 0 0 1-1.99-2.197l.088-.902a1 1 0 0 1 1.094-.896M14.905 4a2 2 0 0 1 1.99 2.18l-.764 8.41a1 1 0 1 1-1.991-.18L14.905 6H4.912l-.09 1h2.177a1 1 0 0 1 0 2H4.821A2 2 0 0 1 2.83 6.82l.092-1A2 2 0 0 1 4.912 4z"/><path fill="#090404" d="M5 10a1 1 0 1 1 0 2H2a1 1 0 1 1 0-2z"/></svg>