<svg xmlns="http://www.w3.org/2000/svg" fill="none" viewBox="0 0 24 24"><path fill="#090404" d="M20 3a1 1 0 0 1 .887 1.463c-.648 1.24-1.332 2.637-2.303 3.685-.721.78-1.603 1.371-2.73 1.659.584 1.558.248 3.167-.667 4.447C14.019 15.887 11.92 17 9.597 17c-1.45 0-2.484.135-3.205.553-.636.368-1.182 1.052-1.402 2.589A1 1 0 0 1 3 20v-4C3 8.82 8.82 3 16 3zM5 16.077a4 4 0 0 1 .39-.255C6.61 15.115 8.125 15 9.597 15c1.708 0 3.187-.824 3.963-1.91.743-1.039.847-2.293-.091-3.465A1.001 1.001 0 0 1 14.25 8c1.343 0 2.183-.472 2.866-1.21.454-.49.835-1.091 1.222-1.79H16C9.925 5 5 9.925 5 16z"/></svg>