<svg xmlns="http://www.w3.org/2000/svg" fill="none" viewBox="0 0 24 24"><path fill="#090404" d="M4 21c0-4.463.84-9.029 3.017-12.583 2.208-3.605 5.766-6.116 10.999-6.414h.206c1.028.055 1.967.953 1.748 2.147-.374 2.032-1.638 3.71-2.721 4.832-.37.385-.733.714-1.048.984l.396.296c.663.495 1.017 1.426.607 2.298-.867 1.846-3.78 6.381-11.14 6.432A32 32 0 0 0 6 21a1 1 0 1 1-2 0M17.955 4.012c-4.447.303-7.373 2.415-9.232 5.45-1.304 2.129-2.095 4.736-2.466 7.527 6.015-.122 8.354-3.682 9.083-5.17l-1.385-1.034A1 1 0 0 1 14 9.15l.004-.002.023-.016q.036-.023.106-.074a13.242 13.242 0 0 0 1.676-1.463c.923-.958 1.826-2.206 2.146-3.583"/></svg>