<svg xmlns="http://www.w3.org/2000/svg" fill="none" viewBox="0 0 24 24"><path fill="#090404" d="M11 8V2a1 1 0 1 1 2 0v6a1 1 0 1 1-2 0"/><path fill="#090404" d="M11 22v-6a1 1 0 1 1 2 0v6a1 1 0 1 1-2 0"/><path fill="#090404" d="M8 11a1 1 0 1 1 0 2H2a1 1 0 1 1 0-2z"/><path fill="#090404" d="M22 11a1 1 0 1 1 0 2h-6a1 1 0 1 1 0-2z"/><path fill="#090404" d="M5.293 5.293a1 1 0 0 1 1.414 0l1.5 1.5a1 1 0 1 1-1.414 1.414l-1.5-1.5a1 1 0 0 1 0-1.414"/><path fill="#090404" d="M17.293 5.293a1 1 0 1 1 1.414 1.414l-1.5 1.5a1 1 0 1 1-1.414-1.414z"/><path fill="#090404" d="M15.793 15.793a1 1 0 0 1 1.414 0l1.5 1.5a1 1 0 1 1-1.414 1.414l-1.5-1.5a1 1 0 0 1 0-1.414"/><path fill="#090404" d="M6.793 15.793a1 1 0 1 1 1.414 1.414l-1.5 1.5a1 1 0 1 1-1.414-1.414z"/></svg>