<svg xmlns="http://www.w3.org/2000/svg" fill="none" viewBox="0 0 24 24"><path fill="#090404" fill-rule="evenodd" d="M15.074 2a3.847 3.847 0 0 1 2.308 6.922 3.846 3.846 0 1 1-4.615 6.153v3.08a3.846 3.846 0 1 1-6.155-3.079A3.84 3.84 0 0 1 5.074 12c0-1.258.605-2.375 1.54-3.077A3.847 3.847 0 0 1 8.921 2zM8.921 15.847a2.308 2.308 0 1 0 2.308 2.307v-2.307zm0-6.155a2.308 2.308 0 0 0 0 4.616h2.308V9.692zm6.155 0a2.308 2.308 0 1 0 0 4.616 2.308 2.308 0 0 0 0-4.616m-2.31-1.538h2.32a2.307 2.307 0 0 0-.012-4.615h-2.307zM8.922 3.54a2.308 2.308 0 0 0-.013 4.614h2.32V3.54z" clip-rule="evenodd"/></svg>