<svg xmlns="http://www.w3.org/2000/svg" fill="none" viewBox="0 0 24 24"><path fill="#090404" d="M11 14a1 1 0 1 1 2 0v3.586l.793-.793a1 1 0 1 1 1.414 1.414l-2.5 2.5A1 1 0 0 1 11 20z"/><path fill="#090404" d="M8.793 16.793a1 1 0 0 1 1.414 0l2.5 2.5a1 1 0 1 1-1.414 1.414l-2.5-2.5a1 1 0 0 1 0-1.414"/><path fill="#090404" d="M4 20V4a2 2 0 0 1 2-2h6.586A2 2 0 0 1 14 2.586L19.414 8A2 2 0 0 1 20 9.414V20a2 2 0 0 1-2 2h-1.5a1 1 0 1 1 0-2H18V9.414L12.586 4H6v16h1.5a1 1 0 1 1 0 2H6a2 2 0 0 1-2-2"/><path fill="#090404" d="M12 8V3a1 1 0 1 1 2 0v5h5a1 1 0 1 1 0 2h-5a2 2 0 0 1-2-2"/></svg>