<svg xmlns="http://www.w3.org/2000/svg" fill="none" viewBox="0 0 24 24"><path fill="#090404" d="M8 15a2 2 0 1 0-4 0 1 1 0 1 1-2 0 4 4 0 0 1 8 0 1 1 0 1 1-2 0"/><path fill="#090404" d="M2 18a1 1 0 1 1 2 0 2 2 0 1 0 4 0 1 1 0 1 1 2 0 4 4 0 0 1-8 0"/><path fill="#090404" d="M5 17v-1a1 1 0 1 1 2 0v1a1 1 0 1 1-2 0"/><path fill="#090404" d="M4 8V4a2 2 0 0 1 2-2h6.586A2 2 0 0 1 14 2.586L19.414 8A2 2 0 0 1 20 9.414V20a2 2 0 0 1-2 2h-6a1 1 0 1 1 0-2h6V9.414L12.586 4H6v4a1 1 0 0 1-2 0"/><path fill="#090404" d="M12 8V3.75a1 1 0 1 1 2 0V8h4a1 1 0 1 1 0 2h-4a2 2 0 0 1-2-2"/></svg>