<svg xmlns="http://www.w3.org/2000/svg" fill="none" viewBox="0 0 24 24"><path fill="#090404" d="M12 8V3a1 1 0 1 1 2 0v5h5a1 1 0 1 1 0 2h-5a2 2 0 0 1-2-2"/><path fill="#090404" d="M4 13V4a2 2 0 0 1 2-2h7a1 1 0 0 1 .707.293l6 6A1 1 0 0 1 20 9v11a2 2 0 0 1-2 2h-3a1 1 0 1 1 0-2h3V9.414L12.586 4H6v9a1 1 0 1 1-2 0"/><path fill="#090404" d="M10 18a1 1 0 1 1 0 2H4a1 1 0 1 1 0-2z"/><path fill="#090404" d="M7.293 15.293a1 1 0 0 1 1.414 0l3 3a1 1 0 0 1 0 1.414l-3 3a1 1 0 1 1-1.414-1.414L9.586 19l-2.293-2.293a1 1 0 0 1 0-1.414"/></svg>