<svg xmlns="http://www.w3.org/2000/svg" fill="none" viewBox="0 0 24 24"><path fill="#090404" d="M4 11V5a2 2 0 0 1 2-2h8.586A2 2 0 0 1 16 3.586L19.414 7A2 2 0 0 1 20 8.414V11a1 1 0 1 1-2 0V8.414L14.586 5H6v6a1 1 0 1 1-2 0"/><path fill="#090404" d="M6.25 16.5a.5.5 0 0 0-.5-.5H5v1h.75a.5.5 0 0 0 .5-.5m2 0a2.5 2.5 0 0 1-2.5 2.5H5v1a1 1 0 1 1-2 0v-5a1 1 0 0 1 1-1h1.75a2.5 2.5 0 0 1 2.5 2.5"/><path fill="#090404" d="M9 20v-5a1 1 0 0 1 1-1h.25a1 1 0 0 1 .857.485l1.393 2.32V15a1 1 0 1 1 2 0v5a1 1 0 0 1-1 1h-.25a1 1 0 0 1-.857-.485L11 18.193V20a1 1 0 1 1-2 0"/><path fill="#090404" d="M15.25 17.534c0-1.833 1.223-3.474 2.938-3.578.284-.017.64.005.996.093.347.085.785.255 1.14.599a1 1 0 0 1-1.395 1.434c-.002-.001-.017-.015-.055-.033a1 1 0 0 0-.168-.059 1.4 1.4 0 0 0-.397-.038c-.392.024-1.059.517-1.059 1.582 0 1.054.594 1.512 1.134 1.516.289-.005.547-.068.741-.161v-.834a1 1 0 0 1 2 0v1.328a1 1 0 0 1-.265.678c-.677.734-1.686.98-2.458.99h-.011c-1.943 0-3.141-1.676-3.141-3.517"/><path fill="#090404" d="M13 8V5a1 1 0 1 1 2 0v3h3a1 1 0 1 1 0 2h-3a2 2 0 0 1-2-2"/></svg>