<svg xmlns="http://www.w3.org/2000/svg" fill="none" viewBox="0 0 24 24"><path fill="#090404" d="M10 16a1 1 0 0 1 1 1v4a1 1 0 0 1-1 1H4a1 1 0 0 1-1-1v-4a1 1 0 0 1 1-1zm-5 4h4v-2H5z"/><path fill="#090404" d="M8 16a1 1 0 1 0-2 0zm2 1a1 1 0 0 1-1 1H5a1 1 0 0 1-1-1v-1a3 3 0 1 1 6 0z"/><path fill="#090404" d="M4 10V4a2 2 0 0 1 2-2h6.586A2 2 0 0 1 14 2.586L19.414 8A2 2 0 0 1 20 9.414V20a2 2 0 0 1-2 2h-4a1 1 0 1 1 0-2h4V9.414L12.586 4H6v6a1 1 0 1 1-2 0"/><path fill="#090404" d="M12 8V3.75a1 1 0 1 1 2 0V8h4a1 1 0 1 1 0 2h-4a2 2 0 0 1-2-2"/></svg>