<svg xmlns="http://www.w3.org/2000/svg" fill="none" viewBox="0 0 24 24"><path fill="#090404" d="M4 12V4a2 2 0 0 1 2-2h6.586A2 2 0 0 1 14 2.586L19.414 8A2 2 0 0 1 20 9.414V20a2 2 0 0 1-2 2h-2a1 1 0 1 1 0-2h2V9.414L12.586 4H6v8a1 1 0 1 1-2 0"/><path fill="#090404" d="M12 8V4a1 1 0 1 1 2 0v4h4a1 1 0 1 1 0 2h-4a2 2 0 0 1-2-2"/><path fill="#090404" d="M11 18a1 1 0 1 1 0 2H5a1 1 0 1 1 0-2z"/><path fill="#090404" d="M6.293 15.293a1 1 0 1 1 1.414 1.414L5.414 19l2.293 2.293a1 1 0 1 1-1.414 1.414l-3-3a1 1 0 0 1 0-1.414z"/></svg>