<svg xmlns="http://www.w3.org/2000/svg" fill="none" viewBox="0 0 24 24"><path fill="#090404" d="m7.24 16.185-.696-1.812a.582.582 0 0 0-1.088 0l-.696 1.812a1 1 0 0 1-.575.575l-1.812.696a.582.582 0 0 0 0 1.088l1.812.697a1 1 0 0 1 .575.574l.696 1.812a.582.582 0 0 0 1.088 0l.696-1.812a1 1 0 0 1 .575-.575l1.812-.696a.582.582 0 0 0 0-1.088l-1.812-.697a1 1 0 0 1-.575-.574"/><path fill="#090404" d="M12 8V3a1 1 0 1 1 2 0v5h5a1 1 0 1 1 0 2h-5a2 2 0 0 1-2-2"/><path fill="#090404" d="M4 11V4a2 2 0 0 1 2-2h6.586A2 2 0 0 1 14 2.586L19.414 8A2 2 0 0 1 20 9.414V20a2 2 0 0 1-2 2h-6a1 1 0 1 1 0-2h6V9.414L12.586 4H6v7a1 1 0 1 1-2 0"/></svg>