<svg xmlns="http://www.w3.org/2000/svg" fill="none" viewBox="0 0 24 24"><path fill="#090404" d="M2 17.75a4.25 4.25 0 0 1 7.521-2.712A3.501 3.501 0 0 1 9 22H6.25A4.25 4.25 0 0 1 2 17.75m2 0A2.25 2.25 0 0 0 6.25 20H9a1.5 1.5 0 0 0 0-3h-.009a1 1 0 0 1-.845-.46A2.25 2.25 0 0 0 4 17.75"/><path fill="#090404" d="M4 11V4a2 2 0 0 1 2-2h6.586A2 2 0 0 1 14 2.586L19.414 8A2 2 0 0 1 20 9.414V19a2 2 0 0 1-2 2h-3a1 1 0 1 1 0-2h3V9.414L12.586 4H6v7a1 1 0 1 1-2 0"/><path fill="#090404" d="M12 8V4a1 1 0 1 1 2 0v4h4a1 1 0 1 1 0 2h-4a2 2 0 0 1-2-2"/></svg>