<svg xmlns="http://www.w3.org/2000/svg" fill="none" viewBox="0 0 24 24"><path fill="#090404" d="M4 8V4a2 2 0 0 1 2-2h6.586A2 2 0 0 1 14 2.586L19.414 8A2 2 0 0 1 20 9.414V20a2 2 0 0 1-2 2h-7a1 1 0 1 1 0-2h7V9.414L12.586 4H6v4a1 1 0 0 1-2 0"/><path fill="#090404" d="M12 8V3.75a1 1 0 1 1 2 0V8h4a1 1 0 1 1 0 2h-4a2 2 0 0 1-2-2"/><path fill="#090404" d="M6 13.559a.5.5 0 0 0-1 0v5.527l.5.5.5-.5zM8 19.5a1 1 0 0 1-.293.707l-1.5 1.5a1 1 0 0 1-1.414 0l-1.5-1.5A1 1 0 0 1 3 19.5v-5.941a2.5 2.5 0 0 1 5 0z"/></svg>