<svg xmlns="http://www.w3.org/2000/svg" fill="none" viewBox="0 0 24 24"><path fill="#090404" d="M4 11V5a2 2 0 0 1 2-2h8.586A2 2 0 0 1 16 3.586L19.414 7A2 2 0 0 1 20 8.414V11a1 1 0 1 1-2 0v-1h-3a2 2 0 0 1-2-2V5H6v6a1 1 0 1 1-2 0m13.586-3L15 5.414V8z"/><path fill="#090404" d="M6.25 16.5a.5.5 0 0 0-.5-.5H5v1h.75a.5.5 0 0 0 .5-.5m2 0a2.5 2.5 0 0 1-2.5 2.5H5v1a1 1 0 1 1-2 0v-5a1 1 0 0 1 1-1h1.75a2.5 2.5 0 0 1 2.5 2.5"/><path fill="#090404" d="M13 17.5c0-.67-.254-.985-.53-1.173-.333-.226-.803-.327-1.22-.327H11v3h.25c.417 0 .887-.101 1.22-.327.276-.188.53-.502.53-1.173m2 0c0 1.33-.58 2.265-1.407 2.827-.771.524-1.677.673-2.343.673H10a1 1 0 0 1-1-1v-5a1 1 0 0 1 1-1h1.25c.666 0 1.572.15 2.343.673C14.42 15.235 15 16.17 15 17.5"/><path fill="#090404" d="M16 20v-5a1 1 0 0 1 1-1h3a1 1 0 1 1 0 2h-2v4a1 1 0 1 1-2 0"/><path fill="#090404" d="M19 17a1 1 0 1 1 0 2h-2a1 1 0 1 1 0-2z"/></svg>