<svg xmlns="http://www.w3.org/2000/svg" fill="none" viewBox="0 0 24 24"><path fill="#090404" d="M4 20V4a2 2 0 0 1 2-2h6.586A2 2 0 0 1 14 2.586L19.414 8A2 2 0 0 1 20 9.414V12a1 1 0 1 1-2 0V9.414L12.586 4H6v16h2a1 1 0 1 1 0 2H6a2 2 0 0 1-2-2"/><path fill="#090404" d="M12 8V4a1 1 0 1 1 2 0v4h4a1 1 0 1 1 0 2h-4a2 2 0 0 1-2-2"/><path fill="#090404" d="M19 18a1 1 0 1 1 0 2h-6a1 1 0 1 1 0-2z"/><path fill="#090404" d="M16.293 15.293a1 1 0 0 1 1.414 0l3 3a1 1 0 0 1 0 1.414l-3 3a1 1 0 1 1-1.414-1.414L18.586 19l-2.293-2.293a1 1 0 0 1 0-1.414"/></svg>