<svg xmlns="http://www.w3.org/2000/svg" fill="none" viewBox="0 0 24 24"><path fill="#090404" d="M4 11V5a2 2 0 0 1 2-2h8.586A2 2 0 0 1 16 3.586L19.414 7A2 2 0 0 1 20 8.414V11a1 1 0 1 1-2 0v-1h-3a2 2 0 0 1-2-2V5H6v6a1 1 0 1 1-2 0m13.586-3L15 5.414V8z"/><path fill="#090404" d="M11.75 16.5a.5.5 0 0 0-.5-.5h-.75v1h.75a.5.5 0 0 0 .5-.5m2 0a2.5 2.5 0 0 1-2.5 2.5h-.75v1a1 1 0 1 1-2 0v-5a1 1 0 0 1 1-1h1.75a2.5 2.5 0 0 1 2.5 2.5"/><path fill="#090404" d="M5.5 18.5V15a1 1 0 1 1 2 0v3.5A2.5 2.5 0 0 1 5 21h-.5a1 1 0 1 1 0-2H5a.5.5 0 0 0 .5-.5"/><path fill="#090404" d="M14.25 17.534c0-1.833 1.223-3.474 2.938-3.578.284-.018.64.005.996.092.347.086.785.255 1.14.599a1 1 0 0 1-1.395 1.435c-.002-.002-.017-.015-.055-.034a1 1 0 0 0-.168-.058 1.4 1.4 0 0 0-.397-.038c-.392.024-1.059.516-1.059 1.582 0 1.054.594 1.512 1.134 1.515.289-.004.547-.068.741-.16v-.835a1 1 0 0 1 2 0v1.328a1 1 0 0 1-.265.678c-.677.735-1.686.981-2.458.99h-.011c-1.943 0-3.141-1.676-3.141-3.516"/></svg>