<svg xmlns="http://www.w3.org/2000/svg" fill="none" viewBox="0 0 24 24"><path fill="#090404" d="M4 20V4a2 2 0 0 1 2-2h6.586A2 2 0 0 1 14 2.586L19.414 8A2 2 0 0 1 20 9.414V20a2 2 0 0 1-2 2H6a2 2 0 0 1-2-2m2 0h12V9.414L12.586 4H6z"/><path fill="#090404" d="M12 8V3a1 1 0 1 1 2 0v5h5a1 1 0 1 1 0 2h-5a2 2 0 0 1-2-2"/><path fill="#090404" d="M7.5 17.5V16a1 1 0 1 1 2 0v1.5a1 1 0 1 1-2 0"/><path fill="#090404" d="M11 17.5V13a1 1 0 1 1 2 0v4.5a1 1 0 1 1-2 0"/><path fill="#090404" d="M14.5 17.5V15a1 1 0 1 1 2 0v2.5a1 1 0 1 1-2 0"/></svg>