<svg xmlns="http://www.w3.org/2000/svg" fill="none" viewBox="0 0 24 24"><path fill="#090404" d="M6 9.5v-2a1 1 0 0 1 2 0v2a1 1 0 1 1-2 0"/><path fill="#090404" d="M16 9.5v-2a1 1 0 1 1 2 0v2a1 1 0 1 1-2 0"/><path fill="#090404" d="M12.595 2.633a1 1 0 0 1 1.81.85C13.011 6.455 11.976 8.9 11.242 12h.559c1.261 0 2.162 1.133 2 2.32-.302 2.2-.293 4.334.025 6.538a1.001 1.001 0 0 1-1.98.285 25.1 25.1 0 0 1-.027-7.094.1.1 0 0 0 0-.023.1.1 0 0 0-.012-.02L11.801 14h-1.19a1.494 1.494 0 0 1-1.463-1.81l.152-.668c.78-3.29 1.88-5.876 3.294-8.889"/><path fill="#090404" d="M17.929 15.54a1 1 0 1 1 1.142 1.64c-2.334 1.626-4.673 2.493-7.071 2.493s-4.737-.867-7.071-2.492A1 1 0 1 1 6.07 15.54c2.092 1.457 4.04 2.133 5.929 2.133s3.836-.676 5.929-2.133"/></svg>