<svg xmlns="http://www.w3.org/2000/svg" fill="none" viewBox="0 0 24 24"><path fill="#090404" d="M5 5v14h14V5zm16 14a2 2 0 0 1-2 2H5a2 2 0 0 1-2-2V5a2 2 0 0 1 2-2h14a2 2 0 0 1 2 2z"/><path fill="#090404" d="M11.716 3.747a1 1 0 0 1 1.935.506A45 45 0 0 0 12.323 12h.927a1 1 0 1 1 0 2h-2a1 1 0 0 1-.998-1.058 47 47 0 0 1 1.463-9.195"/><path fill="#090404" d="M7 10V9a1 1 0 0 1 2 0v1a1 1 0 1 1-2 0"/><path fill="#090404" d="M15 10V9a1 1 0 1 1 2 0v1a1 1 0 1 1-2 0"/><path fill="#090404" d="M15.445 14.668a1 1 0 1 1 1.11 1.664C14.98 17.382 13.534 18 12 18s-2.98-.619-4.555-1.668a1 1 0 1 1 1.11-1.664C9.98 15.618 11.034 16 12 16s2.02-.381 3.445-1.332"/></svg>