<svg xmlns="http://www.w3.org/2000/svg" fill="none" viewBox="0 0 24 24"><path fill="#090404" d="M18.999 11A7 7 0 0 0 8.936 4.703a1 1 0 0 1-.877-1.798A9 9 0 0 1 12 2a9 9 0 0 1 9 9c0 2.13-.197 4.217-.572 6.24a1 1 0 0 1-1.966-.364c.353-1.904.538-3.868.538-5.876"/><path fill="#090404" d="M15 11a3 3 0 1 0-6 0c0 1.248-.104 2.473-.305 3.665a1 1 0 0 1-1.972-.33q.274-1.628.276-3.335a5 5 0 0 1 10 0q0 .956-.058 1.898a1 1 0 0 1-1.996-.125q.054-.879.054-1.773"/><path fill="#090404" d="M14.54 16.072a1 1 0 0 1 1.967.36 30 30 0 0 1-1.227 4.595 1 1 0 1 1-1.884-.669 28 28 0 0 0 1.143-4.286"/><path fill="#090404" d="M3.001 11c0-1.956.625-3.77 1.687-5.248A1.001 1.001 0 0 1 6.313 6.92 6.96 6.96 0 0 0 5 11c0 1.467-.176 2.893-.508 4.26a1 1 0 0 1-1.943-.472c.294-1.213.451-2.482.451-3.788"/><path fill="#090404" d="M11 11a1 1 0 0 1 2 0 26 26 0 0 1-2.066 10.172 1 1 0 1 1-1.84-.783q.376-.886.682-1.806A24 24 0 0 0 11 11"/><path fill="#090404" d="M5.96 17.379a1 1 0 0 1 1.896.636q-.242.72-.531 1.416a1 1 0 0 1-1.848-.766q.263-.632.483-1.287"/></svg>