<svg xmlns="http://www.w3.org/2000/svg" fill="none" viewBox="0 0 24 24"><path fill="#090404" d="M11 13v-2a1 1 0 1 1 2 0v2a1 1 0 1 1-2 0"/><path fill="#090404" d="M15.001 13v-2a3 3 0 0 0-4.321-2.694 1 1 0 0 1-.883-1.795A5 5 0 0 1 17.001 11v1.999q.001.105-.004.209A1 1 0 0 1 15 13.127z"/><path fill="#090404" d="M7 13v-2q0-.105.004-.21a1 1 0 0 1 1.999.083L9 11v2a3 3 0 0 0 4.321 2.694 1 1 0 0 1 .883 1.795A5 5 0 0 1 7 13"/><path fill="#090404" d="M18.5 13.5v-3a6.49 6.49 0 0 0-2.36-5.01 1 1 0 0 1 1.275-1.541A8.49 8.49 0 0 1 20.5 10.5v3a8.5 8.5 0 0 1-.907 3.823 1 1 0 1 1-1.785-.9 6.5 6.5 0 0 0 .692-2.923"/><path fill="#090404" d="M3.5 11.292V10.5a8.5 8.5 0 0 1 9.766-8.406 1 1 0 0 1-.296 1.977A6.5 6.5 0 0 0 5.5 10.5v.792a1 1 0 0 1-2 0"/><path fill="#090404" d="M4.482 14.344a1 1 0 0 1 1.212.73 6.503 6.503 0 0 0 9.759 3.936 1 1 0 0 1 1.063 1.694 8.503 8.503 0 0 1-12.764-5.148 1 1 0 0 1 .73-1.212"/></svg>