<svg xmlns="http://www.w3.org/2000/svg" fill="none" viewBox="0 0 24 24"><path fill="#090404" d="M18.5 13c0-2.197-.97-4.121-2.219-5.686-1.215-1.523-2.644-2.64-3.515-3.246L10.48 7.333a1.965 1.965 0 0 1-2.935.324C6.169 9.382 5.5 11.487 5.5 12.999c0 4.003 2.964 7 6.5 7s6.5-2.997 6.5-7m2 0c0 4.997-3.752 9-8.5 9s-8.5-4.003-8.5-9c0-2.036.874-4.636 2.577-6.712.746-.91 2.033-.854 2.785-.132l2.295-3.278.116-.149c.573-.671 1.556-.915 2.383-.465l.175.108.387.274c.972.705 2.387 1.866 3.627 3.42C19.26 7.84 20.5 10.194 20.5 13"/><path fill="#090404" d="M14 17.576c0-1.494-1.175-2.703-2-3.35-.825.647-2 1.856-2 3.35C10 19.043 11.016 20 12 20s2-.957 2-2.424m2 0C16 19.89 14.33 22 12 22s-4-2.11-4-4.424c0-2.601 2.038-4.382 2.911-5.04a1.8 1.8 0 0 1 2.054-.085l.124.086.376.297C14.44 13.652 16 15.3 16 17.577"/></svg>