<svg xmlns="http://www.w3.org/2000/svg" fill="none" viewBox="0 0 24 24"><path fill="#090404" d="M11.088 1.55a1 1 0 0 1 .926.158c1.671 1.289 2.818 2.698 3.44 4.333.284.744.45 1.515.516 2.316.382-.45.704-.838.844-1.04l.067-.086a1 1 0 0 1 1.452-.06c1.341 1.307 1.885 2.967 2.082 4.572l.05.479c.4 4.897-2.57 8.288-6.168 9.388-3.699 1.132-8.126-.154-10.104-4.618h-.001c-1.187-2.687-.797-5.36.788-7.719.534-.794 1.184-1.494 1.813-2.113h.001c1.7-1.667 3.037-2.74 3.647-4.929l.04-.117c.11-.265.331-.471.607-.563m.747 2.642c-.92 1.94-2.375 3.154-3.64 4.395-.59.579-1.131 1.17-1.556 1.802-1.245 1.853-1.497 3.802-.617 5.794H6.02c1.51 3.407 4.816 4.395 7.691 3.515 2.86-.875 5.23-3.595 4.718-7.709-.115-.932-.356-1.778-.794-2.502-.274.327-.573.675-.848.992a143 143 0 0 1-1.123 1.272l-.074.083-.02.022-.005.005-.001.002a1 1 0 0 1-1.73-.837c.29-1.688.21-3.067-.25-4.273-.336-.885-.897-1.729-1.75-2.56"/></svg>