<svg xmlns="http://www.w3.org/2000/svg" fill="none" viewBox="0 0 24 24"><path fill="#090404" d="M5 5v3h6V5zm8 3a2 2 0 0 1-2 2H5a2 2 0 0 1-2-2V5a2 2 0 0 1 2-2h6a2 2 0 0 1 2 2z"/><path fill="#090404" d="M13 5v3h6V5zm8 3a2 2 0 0 1-2 2h-6a2 2 0 0 1-2-2V5a2 2 0 0 1 2-2h6a2 2 0 0 1 2 2z"/><path fill="#090404" d="M5 16v3h6v-3zm8 3a2 2 0 0 1-2 2H5a2 2 0 0 1-2-2v-3a2 2 0 0 1 2-2h6a2 2 0 0 1 2 2z"/><path fill="#090404" d="M13 16v3h6v-3zm8 3a2 2 0 0 1-2 2h-6a2 2 0 0 1-2-2v-3a2 2 0 0 1 2-2h6a2 2 0 0 1 2 2z"/><path fill="#090404" d="M17 10v4h2v-4zm4 4a2 2 0 0 1-2 2h-2a2 2 0 0 1-2-2v-4a2 2 0 0 1 2-2h2a2 2 0 0 1 2 2z"/><path fill="#090404" d="M5 10v4h2v-4zm4 4a2 2 0 0 1-2 2H5a2 2 0 0 1-2-2v-4a2 2 0 0 1 2-2h2a2 2 0 0 1 2 2z"/><path fill="#090404" d="M9 10v4h6v-4zm8 4a2 2 0 0 1-2 2H9a2 2 0 0 1-2-2v-4a2 2 0 0 1 2-2h6a2 2 0 0 1 2 2z"/></svg>