<svg xmlns="http://www.w3.org/2000/svg" fill="none" viewBox="0 0 24 24"><path fill="#090404" d="M18.5 13.813c0-3.235-1.685-5.827-3.467-7.66A17.8 17.8 0 0 0 12 3.671a17.767 17.767 0 0 0-3.033 2.482C7.185 7.986 5.5 10.578 5.5 13.813c0 2.11.814 3.627 1.992 4.63C8.692 19.465 10.327 20 12 20s3.308-.537 4.508-1.56c1.178-1.004 1.992-2.52 1.992-4.628m2 0c0 2.68-1.061 4.758-2.695 6.15C16.192 21.337 14.077 21.999 12 22s-4.192-.66-5.805-2.034C4.561 18.574 3.5 16.496 3.5 13.812c0-3.963 2.065-7.028 4.033-9.052a20 20 0 0 1 2.717-2.32 17 17 0 0 1 1.164-.757l.073-.042.022-.012.007-.004.002-.001c.003.004.036.062.449.815l-.447-.816a1 1 0 0 1 .96 0L12 2.5l.481-.876h.003l.007.005.022.012a7 7 0 0 1 .335.199 19.773 19.773 0 0 1 3.62 2.92c1.967 2.024 4.032 5.089 4.032 9.053"/><path fill="#090404" d="M14.5 17.406c0-1.46-.709-2.644-1.49-3.506A8 8 0 0 0 12 12.97c-.284.22-.648.533-1.01.931-.781.862-1.49 2.046-1.49 3.506 0 .936.333 1.56.768 1.957.451.412 1.077.637 1.732.637s1.28-.226 1.732-.638c.436-.397.768-1.021.768-1.956m2 0c0 1.46-.543 2.632-1.42 3.433-.86.786-1.985 1.16-3.08 1.16-1.095.001-2.22-.373-3.08-1.158-.878-.801-1.42-1.974-1.42-3.435 0-2.14 1.042-3.783 2.01-4.85a10 10 0 0 1 1.788-1.545q.084-.056.135-.086l.04-.025.012-.008.005-.002.002-.001s.001-.001.508.86l-.507-.861a1 1 0 0 1 1.014 0L12 11.75l.508-.861h.002l.005.004.012.007.04.025q.052.03.135.086a9.95 9.95 0 0 1 1.788 1.546c.969 1.066 2.01 2.71 2.01 4.85"/></svg>