<svg xmlns="http://www.w3.org/2000/svg" fill="none" viewBox="0 0 24 24"><path fill="#090404" d="M13 12a2 2 0 1 0-4 0v8h4zm2 8a2 2 0 0 1-2 2H9a2 2 0 0 1-2-2v-8a4 4 0 1 1 8 0z"/><path fill="#090404" d="M10 4.25a.75.75 0 1 0-.75.75H10zM12 9a1 1 0 1 1-2 0V7h-.75A2.75 2.75 0 1 1 12 4.25z"/><path fill="#090404" d="M14 5a1 1 0 1 1 0 2h-3.975a4.555 4.555 0 0 0-4.372 3.28 1 1 0 0 1-1.92-.56A6.554 6.554 0 0 1 10.025 5z"/><path fill="#090404" d="M15.5 5.835v.33L19 6.8V5.198zM21 6.8a2 2 0 0 1-2.357 1.968l-3.5-.637A2 2 0 0 1 13.5 6.165v-.33a2 2 0 0 1 1.643-1.968l3.5-.637A2 2 0 0 1 21 5.198z"/></svg>