<svg xmlns="http://www.w3.org/2000/svg" fill="none" viewBox="0 0 24 24"><path fill="#090404" d="M4.83 9.262a3.16 3.16 0 0 1 2.52.436l.46.307a4 4 0 0 1 3.76 4.491l-.25 2A4 4 0 0 1 7.352 20H2a1 1 0 1 1 0-2h5.352a2 2 0 0 0 1.984-1.752l.25-2A2 2 0 0 0 7.602 12H7.5a1 1 0 0 1-.555-.168l-.704-.47a1.164 1.164 0 0 0-1.723.536l-.59 1.473A1 1 0 0 1 3 14H2a1 1 0 1 1 0-2h.323l.338-.845a3.16 3.16 0 0 1 2.17-1.893m11.82.436a3.162 3.162 0 0 1 4.69 1.457l.338.845H22a1 1 0 0 1 0 2h-1a1 1 0 0 1-.929-.629l-.59-1.473a1.162 1.162 0 0 0-1.722-.536l-.704.47c-.165.11-.358.168-.555.168h-.103a2 2 0 0 0-1.984 2.248l.25 2A2 2 0 0 0 16.648 18h5.353a1 1 0 0 1 0 2h-5.353a4 4 0 0 1-3.968-3.504l-.25-2a4 4 0 0 1 3.76-4.491zM6.22 5.105a1 1 0 0 1 1.409.124L8.915 6.76a1 1 0 0 1-1.532 1.286L6.098 6.515a1 1 0 0 1 .123-1.41m10.164.124a1 1 0 0 1 1.532 1.286L16.63 8.047a1 1 0 0 1-1.532-1.286zM11.002 6V4a1 1 0 1 1 2 0v2a1 1 0 0 1-2 0"/></svg>