<svg xmlns="http://www.w3.org/2000/svg" fill="none" viewBox="0 0 24 24"><path fill="#090404" d="M18 5.613a.2.2 0 0 0-.045-.042.32.32 0 0 0-.242-.045c-2.39.56-4.572-.17-6.412-.684-1.89-.527-3.517-.874-5.301-.19v8.897c2.232-.616 4.246-.082 6.02.417 2.188.617 3.972 1.151 5.98.38zm2 8.768c0 .741-.422 1.494-1.198 1.802-2.765 1.097-5.24.296-7.324-.29-1.955-.551-3.633-.947-5.478-.238V21a1 1 0 0 1-2 0V4.62c0-.741.421-1.495 1.198-1.803l.232-.088c2.388-.863 4.537-.336 6.408.187 2.002.559 3.633 1.082 5.418.663a2.32 2.32 0 0 1 1.815.333c.518.348.929.946.929 1.703z"/></svg>