<svg xmlns="http://www.w3.org/2000/svg" fill="none" viewBox="0 0 24 24"><path fill="#090404" d="m12.163 2.11 7.956.837a2 2 0 0 1 1.78 2.197l-1.15 10.94a2 2 0 0 1-2.198 1.78l-4.655-.49a1 1 0 1 1 .21-1.988l4.654.49 1.15-10.941-7.956-.836-.335 3.184a1 1 0 0 1-1.988-.21l.334-3.183a2 2 0 0 1 2.198-1.78"/><path fill="#090404" d="M11.8 6.11a2 2 0 0 1 2.198 1.78l1.15 10.94a2 2 0 0 1-1.78 2.198l-7.956.836a2 2 0 0 1-2.198-1.78l-1.15-10.94a2 2 0 0 1 1.78-2.197zM4.053 8.935l1.15 10.94 7.956-.837L12.01 8.1z"/></svg>