<svg xmlns="http://www.w3.org/2000/svg" fill="none" viewBox="0 0 24 24"><path fill="#090404" d="M12 1.786a5.61 5.61 0 0 1 4.999 3.06.38.38 0 0 0 .27.196 5.612 5.612 0 0 1 3.09 9.51.38.38 0 0 0-.103.316 5.613 5.613 0 0 1-8.09 5.877.38.38 0 0 0-.332 0 5.613 5.613 0 0 1-8.09-5.877.38.38 0 0 0-.103-.316 5.612 5.612 0 0 1 3.09-9.51.38.38 0 0 0 .27-.195A5.61 5.61 0 0 1 12 1.787m0 2c-1.402 0-2.62.799-3.219 1.97a2.38 2.38 0 0 1-1.734 1.26 3.613 3.613 0 0 0-1.99 6.124c.531.532.779 1.295.662 2.038a3.613 3.613 0 0 0 5.209 3.784c.67-.34 1.473-.34 2.144 0a3.613 3.613 0 0 0 5.208-3.784 2.38 2.38 0 0 1 .662-2.038 3.613 3.613 0 0 0-1.99-6.123 2.38 2.38 0 0 1-1.734-1.26A3.61 3.61 0 0 0 12 3.787"/></svg>