<svg xmlns="http://www.w3.org/2000/svg" fill="none" viewBox="0 0 24 24"><path fill="#090404" d="M12.185 9.29a.5.5 0 0 0 .223-.224l.645-1.29a.5.5 0 0 1 .894 0l.645 1.29a.5.5 0 0 0 .224.224l1.29.645a.5.5 0 0 1 0 .894l-1.29.645a.5.5 0 0 0-.224.224l-.645 1.29a.5.5 0 0 1-.894 0l-.645-1.29a.5.5 0 0 0-.223-.224l-1.29-.645a.5.5 0 0 1 0-.894z"/><path fill="#090404" d="M8.578 13.593a.3.3 0 0 0 .134-.134l.52-1.04a.3.3 0 0 1 .537 0l.52 1.04a.3.3 0 0 0 .134.134l1.04.52a.3.3 0 0 1 0 .537l-1.04.52a.3.3 0 0 0-.134.135l-.52 1.04a.3.3 0 0 1-.537 0l-.52-1.04a.3.3 0 0 0-.134-.134l-1.041-.52a.3.3 0 0 1 0-.537z"/><path fill="#090404" d="M3 19v-3a1 1 0 1 1 2 0v3h3a1 1 0 1 1 0 2H5a2 2 0 0 1-2-2m16 0v-3a1 1 0 1 1 2 0v3a2 2 0 0 1-2 2h-3a1 1 0 1 1 0-2zM3 8V5a2 2 0 0 1 2-2h3a1 1 0 0 1 0 2H5v3a1 1 0 0 1-2 0m16 0V5h-3a1 1 0 1 1 0-2h3a2 2 0 0 1 2 2v3a1 1 0 1 1-2 0"/></svg>