<svg xmlns="http://www.w3.org/2000/svg" fill="none" viewBox="0 0 24 24"><path fill="#090404" d="M16.5 14v2.293a.5.5 0 0 1-.854.353l-2.792-2.793a.5.5 0 0 1 .353-.853H15.5a1 1 0 0 1 1 1"/><path fill="#090404" d="M7.5 10V7.707a.5.5 0 0 1 .854-.353l2.792 2.792a.5.5 0 0 1-.353.854H8.5a1 1 0 0 1-1-1"/><path fill="#090404" d="M3 19v-3a1 1 0 1 1 2 0v3h3a1 1 0 1 1 0 2H5a2 2 0 0 1-2-2m16 0v-3a1 1 0 1 1 2 0v3a2 2 0 0 1-2 2h-3a1 1 0 1 1 0-2zM7.877 12.031a1 1 0 0 1 1.218.72A3 3 0 0 0 12 15c.765 0 1.476-.285 2.017-.755a1 1 0 0 1 1.312 1.51A5.08 5.08 0 0 1 12 17a5 5 0 0 1-4.843-3.751 1 1 0 0 1 .72-1.218M12 7a5 5 0 0 1 4.843 3.751 1 1 0 0 1-1.938.498A3 3 0 0 0 12 9c-.848 0-1.632.351-2.187.915a1 1 0 0 1-1.425-1.403A5.08 5.08 0 0 1 12 7M3 8V5a2 2 0 0 1 2-2h3a1 1 0 0 1 0 2H5v3a1 1 0 0 1-2 0m16 0V5h-3a1 1 0 1 1 0-2h3a2 2 0 0 1 2 2v3a1 1 0 1 1-2 0"/></svg>