<svg xmlns="http://www.w3.org/2000/svg" fill="none" viewBox="0 0 24 24"><path fill="#090404" d="M6 21c0-2.611.096-4.29-1.298-6.066A8 8 0 0 1 11 2c3.162 0 6.221 1.535 7.486 4.769.575 1.468 1.306 2.455 2.24 3.793.666.953.366 2.25-.61 2.836L19 14.066V17a2 2 0 0 1-2 2h-2v2a1 1 0 1 1-2 0v-2a2 2 0 0 1 2-2h2v-2.934a2 2 0 0 1 .97-1.714l1.104-.665c-.895-1.28-1.776-2.466-2.45-4.19C15.726 5.201 13.538 4 11 4a6 6 0 0 0-4.724 9.7C8.174 16.117 8 18.562 8 21a1 1 0 1 1-2 0"/><path fill="#090404" d="M11.5 9a1.5 1.5 0 0 0-3 0v1.5a1.5 1.5 0 0 0 3 0zm2 1.5a3.5 3.5 0 1 1-7 0V9a3.5 3.5 0 1 1 7 0z"/><path fill="#090404" d="M9 6.5v-4a1 1 0 0 1 2 0v4a1 1 0 1 1-2 0"/></svg>