<svg xmlns="http://www.w3.org/2000/svg" fill="none" viewBox="0 0 24 24"><path fill="#090404" d="M2 18V5a2 2 0 0 1 2-2h5.465a2 2 0 0 1 1.664.89L12.535 6H20a2 2 0 0 1 2 2 1 1 0 1 1-2 0h-7.465a2 2 0 0 1-1.664-.89L9.465 5H4v13h7a1 1 0 1 1 0 2H4a2 2 0 0 1-2-2"/><path fill="#090404" d="M18.5 12.604 16 13.778v2.177c0 1.298.835 2.45 2.068 2.853l.432.14.432-.14A3 3 0 0 0 21 15.955v-2.177zm4.5 3.351a5 5 0 0 1-3.448 4.753l-.741.242a1 1 0 0 1-.622 0l-.74-.242A5 5 0 0 1 14 15.955v-2.177a2 2 0 0 1 1.15-1.81l2.5-1.174a2 2 0 0 1 1.7 0l2.5 1.174a2 2 0 0 1 1.15 1.81z"/></svg>