<svg xmlns="http://www.w3.org/2000/svg" fill="none" viewBox="0 0 24 24"><path fill="#090404" d="m6.24 15.185-.696-1.812a.582.582 0 0 0-1.088 0l-.696 1.812a1 1 0 0 1-.575.574l-1.812.697a.582.582 0 0 0 0 1.088l1.812.697a1 1 0 0 1 .575.574l.696 1.812a.582.582 0 0 0 1.088 0l.696-1.812a1 1 0 0 1 .575-.575l1.812-.696a.582.582 0 0 0 0-1.088l-1.812-.697a1 1 0 0 1-.575-.574"/><path fill="#090404" d="M2 10V5a2 2 0 0 1 2-2h5.465a2 2 0 0 1 1.664.89L12.535 6H20a2 2 0 0 1 2 2v10a2 2 0 0 1-2 2h-8a1 1 0 1 1 0-2h8V8h-7.465a2 2 0 0 1-1.664-.89L9.465 5H4v5a1 1 0 1 1-2 0"/></svg>