<svg xmlns="http://www.w3.org/2000/svg" fill="none" viewBox="0 0 24 24"><path fill="#090404" d="M2.464 12.465a5 5 0 1 1 7.07 7.07 5 5 0 0 1-7.07-7.07m5.657 1.414a3 3 0 1 0-4.242 4.241A3 3 0 0 0 8.12 13.88"/><path fill="#090404" d="M2 9V5a2 2 0 0 1 2-2h5.465a2 2 0 0 1 1.664.89L12.535 6H20a2 2 0 0 1 2 2v10a2 2 0 0 1-2 2h-7a1 1 0 1 1 0-2h7V8h-7.465a2 2 0 0 1-1.664-.89L9.465 5H4v4a1 1 0 0 1-2 0"/><path fill="#090404" d="M2.465 12.465a1 1 0 0 1 1.414 0l5.657 5.657a1 1 0 0 1-1.414 1.414l-5.657-5.657a1 1 0 0 1 0-1.415"/></svg>