<svg xmlns="http://www.w3.org/2000/svg" fill="none" viewBox="0 0 24 24"><path fill="#090404" d="M2 10V5a2 2 0 0 1 2-2h5.465a2 2 0 0 1 1.664.89L12.535 6H20a2 2 0 0 1 2 2v10a2 2 0 0 1-2 2h-4a1 1 0 1 1 0-2h4V8h-7.465a2 2 0 0 1-1.664-.89L9.465 5H4v5a1 1 0 1 1-2 0"/><path fill="#090404" d="M1 19v-4a2 2 0 0 1 2-2h2a1 1 0 1 1 0 2H3v4h2a1 1 0 1 1 0 2H3a2 2 0 0 1-2-2m10 0v-4H9a1 1 0 1 1 0-2h2a2 2 0 0 1 2 2v4a2 2 0 0 1-2 2H9a1 1 0 1 1 0-2z"/><path fill="#090404" d="M8 16a1 1 0 1 1 0 2H6a1 1 0 1 1 0-2z"/></svg>