<svg xmlns="http://www.w3.org/2000/svg" fill="none" viewBox="0 0 24 24"><path fill="#090404" d="M5 5v2.502c0 .65-.416 1.203-.996 1.41V19h16v-7.087A1.5 1.5 0 0 1 19 10.498V7h-2a2 2 0 0 1-2-2zm14 0a2 2 0 0 1 2 2v3.086a1.5 1.5 0 0 1 1.004 1.416V19a2 2 0 0 1-2 2h-16a2 2 0 0 1-2-2V8.498c0-.651.416-1.204.996-1.41V5a2 2 0 0 1 2-2h10a2 2 0 0 1 2 2z"/><path fill="#090404" d="M8.59 7a2 2 0 0 1 1.414.586L12.418 10H15V6h2v4a2 2 0 0 1-2 2h-2.582a2 2 0 0 1-1.268-.453l-.146-.133L8.59 9H4V7z"/><path fill="#090404" d="M20 10v2h-4v-2z"/></svg>