<svg xmlns="http://www.w3.org/2000/svg" fill="none" viewBox="0 0 24 24"><path fill="#090404" d="M2 18V5a2 2 0 0 1 2-2h5.465a2 2 0 0 1 1.664.89L12.535 6H20a2 2 0 0 1 2 2v10a2 2 0 0 1-2 2h-3a1 1 0 1 1 0-2h3V8h-7.465a2 2 0 0 1-1.664-.89L9.465 5H4v13h3a1 1 0 1 1 0 2H4a2 2 0 0 1-2-2"/><path fill="#090404" d="M11 19v-5.5a1 1 0 1 1 2 0V19a1 1 0 1 1-2 0"/><path fill="#090404" d="M11.37 12.225a1 1 0 0 1 1.337.068l2.5 2.5a1 1 0 1 1-1.414 1.414L12 14.414l-1.793 1.793a1 1 0 1 1-1.414-1.414l2.5-2.5z"/></svg>