<svg xmlns="http://www.w3.org/2000/svg" fill="none" viewBox="0 0 24 24"><path fill="#090404" d="M9.5 3a1.5 1.5 0 1 1 0 3 1.5 1.5 0 0 1 0-3"/><path fill="#090404" d="M20 15a1 1 0 0 1 .832 1.555L20 16c.778.518.828.553.831.556l-.002.004-.005.006-.01.015-.032.044q-.037.052-.102.133a5 5 0 0 1-.38.418 8 8 0 0 1-1.535 1.181C17.355 19.203 15.175 20 12 20c-3.176 0-5.355-.797-6.765-1.643A8 8 0 0 1 3.7 17.176a5.4 5.4 0 0 1-.481-.551l-.031-.044-.011-.015-.005-.006-.001-.003-.001-.001c.003-.003.053-.038.831-.556l-.832.555A1 1 0 0 1 4 15zM6.935 17c1.116.53 2.755 1 5.065 1s3.949-.47 5.066-1z"/><path fill="#090404" d="M14 19a1 1 0 1 1 0 2h-4a1 1 0 1 1 0-2z"/><path fill="#090404" d="M16.25 3a1 1 0 0 1 .895.553l1.267 2.534 2.535 1.268a1 1 0 0 1 0 1.79l-2.535 1.267-1.267 2.535a1 1 0 0 1-1.79 0l-1.268-2.535-2.534-1.267a1 1 0 0 1 0-1.79l2.534-1.268 1.268-2.534.072-.121A1 1 0 0 1 16.25 3m-.523 4.28a1 1 0 0 1-.447.448l-1.045.522 1.045.522.139.083a1 1 0 0 1 .308.365l.523 1.044.523-1.044.082-.139c.095-.13.22-.236.365-.309l1.044-.522-1.044-.522a1 1 0 0 1-.447-.448l-.523-1.045z"/><path fill="#090404" d="M5.553 6.895a.5.5 0 0 1 .894 0l.812 1.623a.5.5 0 0 0 .223.223l1.623.812a.5.5 0 0 1 0 .894l-.596.298-1.027.514a.5.5 0 0 0-.223.223l-.812 1.624-.038.064a.5.5 0 0 1-.856-.065l-.812-1.623a.5.5 0 0 0-.223-.223l-1.623-.812a.5.5 0 0 1 0-.894l.595-.3 1.028-.512a.5.5 0 0 0 .181-.154l.042-.07z"/></svg>