<svg xmlns="http://www.w3.org/2000/svg" fill="none" viewBox="0 0 24 24"><path fill="#090404" d="M5 16v.5a1.5 1.5 0 0 0 3 0V16zm5 .5a3.5 3.5 0 1 1-7 0V16a2 2 0 0 1 2-2h3a2 2 0 0 1 2 2z"/><path fill="#090404" d="M16 18v.5a1.5 1.5 0 0 0 3 0V18zm5 .5a3.5 3.5 0 1 1-7 0V18a2 2 0 0 1 2-2h3a2 2 0 0 1 2 2z"/><path fill="#090404" d="M6.5 2c1.193 0 2.164.474 2.882 1.233.697.736 1.126 1.705 1.365 2.696.472 1.963.268 4.32-.495 5.99-.335.732-1.06 1.08-1.733 1.081H4.48c-.672 0-1.398-.35-1.732-1.081-.764-1.67-.968-4.027-.495-5.99.238-.99.668-1.96 1.364-2.696A3.87 3.87 0 0 1 6.5 2m0 2c-.615 0-1.069.226-1.43.607-.383.405-.687 1.019-.873 1.79-.368 1.527-.2 3.37.333 4.603h3.94c.533-1.233.7-3.076.332-4.603-.185-.771-.49-1.385-.873-1.79C7.57 4.226 7.114 4 6.5 4"/><path fill="#090404" d="M17.5 4c1.193 0 2.164.474 2.883 1.233.695.736 1.125 1.705 1.364 2.696.472 1.963.268 4.32-.495 5.99-.335.732-1.06 1.08-1.733 1.081H15.48c-.672 0-1.398-.35-1.732-1.081-.764-1.67-.968-4.027-.495-5.99.238-.99.668-1.96 1.364-2.696A3.87 3.87 0 0 1 17.5 4m0 2c-.615 0-1.069.226-1.43.607-.383.405-.687 1.019-.873 1.79-.367 1.527-.2 3.37.333 4.603h3.94c.533-1.233.7-3.076.332-4.603-.185-.771-.49-1.385-.873-1.79C18.57 6.226 18.114 6 17.5 6"/></svg>