<svg xmlns="http://www.w3.org/2000/svg" fill="none" viewBox="0 0 24 24"><path fill="#090404" d="M8 21v-1.586l-3.379-3.379a2 2 0 0 1-.579-1.58l.962-11.538a1 1 0 1 1 1.993.166l-.962 11.538 3.38 3.38A2 2 0 0 1 10 19.413V21a1 1 0 1 1-2 0"/><path fill="#090404" d="M13 13V3a1 1 0 1 1 2 0v10a1 1 0 1 1-2 0"/><path fill="#090404" d="M14 21v-1.586A2 2 0 0 1 14.586 18l3.379-3.379-.961-11.538a1 1 0 1 1 1.992-.166l.962 11.538a2 2 0 0 1-.58 1.58L16 19.415V21a1 1 0 1 1-2 0"/><path fill="#090404" d="M9 13V3a1 1 0 0 1 2 0v10a1 1 0 1 1-2 0"/></svg>