<svg xmlns="http://www.w3.org/2000/svg" fill="none" viewBox="0 0 24 24"><path fill="#090404" d="M3 9V4a1 1 0 0 1 2 0v5a2 2 0 1 0 4 0V4a1 1 0 0 1 2 0v5a4 4 0 0 1-8 0"/><path fill="#090404" d="M6 20v-8a1 1 0 1 1 2 0v8a1 1 0 1 1-2 0"/><path fill="#090404" d="M16 20v-7.5a1 1 0 1 1 2 0V20a1 1 0 1 1-2 0"/><path fill="#090404" d="M6 9V4a1 1 0 0 1 2 0v5a1 1 0 0 1-2 0"/><path fill="#090404" d="M19.25 8c0-.934-.3-1.782-.75-2.376-.45-.595-.992-.874-1.5-.874s-1.05.279-1.5.874c-.45.594-.75 1.442-.75 2.376 0 1.918 1.181 3 2.25 3s2.25-1.082 2.25-3m2 0c0 2.639-1.729 5-4.25 5s-4.25-2.361-4.25-5c0-1.344.427-2.62 1.154-3.582.726-.96 1.809-1.668 3.096-1.668s2.37.708 3.096 1.668c.727.961 1.154 2.238 1.154 3.582"/></svg>