<svg xmlns="http://www.w3.org/2000/svg" fill="none" viewBox="0 0 24 24"><path fill="#090404" d="M5.5 19v-6.086L4.586 12A2 2 0 0 1 4 10.586V4a1 1 0 0 1 2 0v6.586l.914.914a2 2 0 0 1 .586 1.414V19h1v-6.086a2 2 0 0 1 .586-1.414l.914-.914V4a1 1 0 1 1 2 0v6.586A2 2 0 0 1 11.414 12l-.914.914V19a2 2 0 0 1-2 2h-1a2 2 0 0 1-2-2"/><path fill="#090404" d="M7 9V4a1 1 0 0 1 2 0v5a1 1 0 0 1-2 0"/><path fill="#090404" d="M18.003 5.823a8 8 0 0 0-.776.997c-.94 1.423-1.9 3.728-2.223 7.157q.011.009.025.016a.1.1 0 0 0 .027.007h.947a1 1 0 0 1 1 1v4h1zm2 13.177a2 2 0 0 1-2 2h-1a2 2 0 0 1-2-2v-3.003c-1.021-.029-2.11-.891-1.996-2.142.343-3.749 1.401-6.398 2.551-8.137.573-.867 1.175-1.516 1.73-1.96.276-.22.553-.4.82-.528.252-.12.565-.23.895-.23a1 1 0 0 1 1 1z"/></svg>