<svg xmlns="http://www.w3.org/2000/svg" fill="none" viewBox="0 0 24 24"><path fill="#090404" d="M15.414 6A2 2 0 0 1 14 5.414l-2-2-2 2A2 2 0 0 1 8.586 6H6v2.586A2 2 0 0 1 5.414 10l-2 2 2 2A2 2 0 0 1 6 15.414v2.604l2.62.046a2 2 0 0 1 1.362.569L12 20.603l2.01-1.962c.373-.365.875-.57 1.397-.57H18v-2.657A2 2 0 0 1 18.586 14l2-2-2-2A2 2 0 0 1 18 8.586V6zM20 8.586l2 2a2 2 0 0 1 0 2.828l-2 2v2.657a2 2 0 0 1-2 2h-2.593l-2.01 1.962a2 2 0 0 1-2.795 0l-2.017-1.969-2.62-.046a2 2 0 0 1-1.965-2v-2.604l-2-2a2 2 0 0 1 0-2.828l2-2V6a2 2 0 0 1 2-2h2.586l2-2a2 2 0 0 1 2.828 0l2 2H18a2 2 0 0 1 2 2z"/></svg>