<svg xmlns="http://www.w3.org/2000/svg" fill="none" viewBox="0 0 24 24"><path fill="#090404" d="M20.5 12c0-1.624-.86-3.165-2.389-4.332C16.581 6.5 14.424 5.75 12 5.75s-4.581.75-6.111 1.918S3.5 10.376 3.5 12s.86 3.165 2.389 4.332C7.419 17.5 9.576 18.25 12 18.25s4.581-.75 6.111-1.918S20.5 13.624 20.5 12m2 0c0 2.38-1.267 4.465-3.176 5.922-1.908 1.456-4.501 2.328-7.324 2.328s-5.416-.872-7.324-2.328C2.766 16.465 1.5 14.38 1.5 12s1.266-4.465 3.176-5.922C6.584 4.622 9.177 3.75 12 3.75s5.416.872 7.324 2.328C21.234 7.535 22.5 9.62 22.5 12"/></svg>