<svg xmlns="http://www.w3.org/2000/svg" fill="none" viewBox="0 0 24 24"><path fill="#090404" d="M20.508 13.688q.285 0 .47.19a.64.64 0 0 1 .185.467.64.64 0 0 1-.652.655.64.64 0 0 1-.472-.19.64.64 0 0 1-.188-.468q0-.277.186-.466a.64.64 0 0 1 .471-.188m-3.002-2.441H9.529c-2 0-2.425.154-3.474 1.171L3.396 15H0l4.223-4.191C5.793 9.255 6.55 9 9.227 9H19.8zm-.343.359-2.104 2.103H9.617c-.998 0-1.218.047-1.713.542L7.155 15H4.008l2.326-2.327c.914-.913 1.23-1.067 3.244-1.067zM24 9l-6.016 6h-3.72l6-6zm-3.493 4.79a.54.54 0 0 0-.547.552.54.54 0 0 0 .157.391.52.52 0 0 0 .39.161.538.538 0 0 0 .547-.55.54.54 0 0 0-.547-.553m.001.191q.142 0 .213.053.072.052.072.16 0 .105-.03.157a.2.2 0 0 1-.097.083l.136.276h-.151l-.125-.258h-.147v.257h-.145v-.728zm-.132.358h.147q.068 0 .097-.029.03-.029.03-.094 0-.123-.154-.122h-.12z"/></svg>