<svg xmlns="http://www.w3.org/2000/svg" fill="none" viewBox="0 0 24 24"><path fill="#090404" d="M12 1.5c.836 0 1.453.537 1.86 1.08.42.56.758 1.309 1.03 2.149.01.03.035.065.086.085s.092.016.122.001c.785-.402 1.555-.693 2.249-.793.629-.09 1.385-.045 1.964.449l.114.104.104.113c.494.58.538 1.337.448 1.965-.1.694-.391 1.463-.793 2.248a.14.14 0 0 0 0 .122c.021.05.055.076.086.086.84.272 1.59.61 2.15 1.03.543.407 1.08 1.025 1.08 1.861s-.537 1.453-1.08 1.86c-.56.42-1.31.758-2.15 1.03a.14.14 0 0 0-.085.086.14.14 0 0 0 0 .122c.402.785.692 1.555.792 2.249.096.67.04 1.486-.552 2.078s-1.408.648-2.078.552c-.694-.1-1.464-.39-2.25-.792a.14.14 0 0 0-.121 0 .14.14 0 0 0-.086.085c-.272.84-.61 1.59-1.03 2.15-.407.543-1.023 1.08-1.86 1.08-.836 0-1.454-.537-1.86-1.08-.42-.56-.76-1.31-1.03-2.15a.14.14 0 0 0-.087-.085.14.14 0 0 0-.122-.001c-.785.402-1.554.693-2.248.793-.67.096-1.486.04-2.078-.552s-.649-1.408-.553-2.078c.1-.694.391-1.464.793-2.25a.14.14 0 0 0 0-.121.14.14 0 0 0-.086-.086c-.84-.272-1.59-.61-2.15-1.03C2.037 13.452 1.5 12.835 1.5 12l.006-.154c.06-.758.564-1.325 1.072-1.705.56-.42 1.31-.76 2.15-1.032a.14.14 0 0 0 .086-.086.14.14 0 0 0 .001-.122c-.401-.785-.692-1.554-.792-2.248-.096-.67-.04-1.486.552-2.078l.113-.104c.58-.494 1.337-.538 1.965-.448.694.1 1.463.39 2.248.792.03.015.072.02.122 0a.14.14 0 0 0 .086-.086c.272-.84.612-1.59 1.032-2.15C10.547 2.035 11.164 1.5 12 1.5m0 2.012c-.043.026-.131.095-.259.265-.235.314-.491.833-.728 1.567A2.16 2.16 0 0 1 7.99 6.596c-.686-.352-1.234-.537-1.622-.593-.21-.03-.32-.017-.37-.005-.012.05-.025.16.005.37.056.388.241.936.593 1.622a2.16 2.16 0 0 1-1.252 3.023c-.734.237-1.253.493-1.567.728-.17.128-.239.216-.265.259.026.043.095.131.265.259.314.235.833.49 1.567.727a2.16 2.16 0 0 1 1.252 3.023c-.352.687-.537 1.235-.593 1.623-.03.21-.017.32-.005.37.05.012.16.025.37-.005.388-.056.936-.242 1.622-.594a2.16 2.16 0 0 1 3.023 1.252c.237.735.493 1.254.728 1.568.127.17.215.238.259.264a1 1 0 0 0 .259-.264c.235-.314.49-.833.727-1.567a2.16 2.16 0 0 1 3.023-1.253c.687.352 1.235.538 1.623.594.206.03.316.018.367.006l.004-.004a1 1 0 0 0-.006-.367c-.056-.388-.242-.936-.594-1.623a2.16 2.16 0 0 1 1.253-3.023c.734-.237 1.253-.492 1.567-.727a1 1 0 0 0 .264-.259 1 1 0 0 0-.264-.259c-.314-.235-.833-.491-1.568-.728a2.16 2.16 0 0 1-1.252-3.023c.352-.686.538-1.234.594-1.622.03-.21.017-.32.005-.37a1 1 0 0 0-.37.005c-.388.056-.936.241-1.623.593a2.16 2.16 0 0 1-3.023-1.252c-.237-.734-.492-1.253-.727-1.567A1 1 0 0 0 12 3.512"/></svg>