<svg xmlns="http://www.w3.org/2000/svg" fill="none" viewBox="0 0 24 24"><path fill="#090404" d="m16.198 10.48-.392-1.02a.328.328 0 0 0-.612 0l-.392 1.02a.56.56 0 0 1-.323.322l-1.019.392a.328.328 0 0 0 0 .612l1.02.392a.56.56 0 0 1 .322.323l.392 1.019a.328.328 0 0 0 .612 0l.392-1.02a.56.56 0 0 1 .323-.322l1.019-.392a.328.328 0 0 0 0-.612l-1.02-.392a.56.56 0 0 1-.322-.323"/><path fill="#090404" d="m13.543 7.206-.305-.793a.255.255 0 0 0-.476 0l-.305.793a.44.44 0 0 1-.251.251l-.793.305a.255.255 0 0 0 0 .476l.793.305a.44.44 0 0 1 .251.251l.305.793a.255.255 0 0 0 .476 0l.305-.793a.44.44 0 0 1 .251-.251l.793-.305a.255.255 0 0 0 0-.476l-.793-.305a.44.44 0 0 1-.251-.251"/><path fill="#090404" d="M19 11.036C19 7.146 15.862 4 12 4s-7 3.146-7 7.036a7.04 7.04 0 0 0 3.508 6.099 1 1 0 0 1-1.003 1.73A9.04 9.04 0 0 1 3 11.036C3 6.05 7.025 2 12 2s9 4.05 9 9.036a9.04 9.04 0 0 1-4.505 7.83 1 1 0 0 1-1.003-1.731A7.04 7.04 0 0 0 19 11.036"/><path fill="#090404" d="M16.382 17a2 2 0 0 1 1.788 1.105l.5 1A2 2 0 0 1 16.882 22H7.118c-1.487 0-2.453-1.565-1.788-2.895l.5-1A2 2 0 0 1 7.618 17zm-9.264 3h9.764l-.5-1H7.618z"/></svg>