<svg xmlns="http://www.w3.org/2000/svg" fill="none" viewBox="0 0 24 24"><path fill="#090404" d="M14.191 3c.875 0 1.678.577 1.908 1.452l.039.179.079.518c.366 2.628.266 5.723-.795 8.242a1 1 0 1 1-1.843-.778c.927-2.199 1.005-5.101.592-7.613H3.837c-.587 3.765.084 7.558 2.43 10.357a1 1 0 0 1-1.533 1.286C1.91 13.27 1.206 8.824 1.867 4.647l.037-.18A1.97 1.97 0 0 1 3.817 3z"/><path fill="#090404" d="M7 15a1 1 0 1 1 0 2H3a1 1 0 1 1 0-2z"/><path fill="#090404" d="M20 16.5c0-.384-.337-1-1.497-1.58-1.1-.55-2.692-.92-4.503-.92s-3.402.37-4.503.92C8.337 15.5 8 16.116 8 16.5s.337 1 1.497 1.58c1.1.55 2.692.92 4.503.92s3.402-.37 4.503-.92C19.663 17.5 20 16.884 20 16.5m2 0c0 1.55-1.23 2.683-2.604 3.37C17.965 20.584 16.055 21 14 21s-3.964-.415-5.396-1.13C7.23 19.182 6 18.05 6 16.5s1.23-2.683 2.604-3.37C10.036 12.415 11.946 12 14 12s3.964.415 5.397 1.13C20.77 13.818 22 14.95 22 16.5"/><path fill="#090404" d="M14 12c1.349 0 2.618.241 3.588.672.483.215.937.497 1.283.86.35.369.629.867.629 1.468s-.278 1.1-.629 1.468c-.346.363-.8.645-1.283.86-.97.431-2.239.672-3.588.672s-2.618-.241-3.588-.672c-.483-.215-.937-.497-1.283-.86C8.779 16.099 8.5 15.6 8.5 15s.278-1.1.629-1.468c.346-.363.8-.645 1.283-.86C11.382 12.24 12.651 12 14 12m0 2c-1.136 0-2.116.207-2.775.5-.331.147-.537.296-.647.411a.5.5 0 0 0-.07.089c.012.018.032.048.07.089.11.115.316.264.647.411.659.293 1.639.5 2.775.5s2.116-.207 2.775-.5c.331-.147.537-.296.647-.411A.5.5 0 0 0 17.49 15a.5.5 0 0 0-.068-.089c-.11-.115-.316-.264-.647-.411-.659-.293-1.639-.5-2.775-.5"/><path fill="#090404" d="M10.814 3.018a1 1 0 0 1 1.168.797c.612 3.253.454 7.123-1.087 10.235a1 1 0 0 1-1.709.138 1 1 0 0 1-1.857.294C5.579 11.3 5.377 7.215 6.016 3.815a1 1 0 0 1 1.966.37c-.577 3.068-.363 6.583 1.038 9.22q.026-.124.083-.242c1.292-2.61 1.472-6.008.914-8.978a1 1 0 0 1 .797-1.167"/></svg>