<svg xmlns="http://www.w3.org/2000/svg" fill="none" viewBox="0 0 24 24"><path fill="#090404" d="M21 12c0-.798-.673-1.789-2.376-2.64C16.981 8.537 14.64 8 12 8s-4.98.538-6.624 1.36C3.673 10.21 3 11.201 3 12s.673 1.789 2.376 2.64C7.019 15.463 9.36 16 12 16s4.98-.538 6.624-1.36C20.327 13.79 21 12.799 21 12m2 0c0 1.963-1.566 3.472-3.481 4.43C17.543 17.418 14.883 18 12 18s-5.543-.582-7.519-1.57C2.566 15.472 1 13.963 1 12s1.566-3.472 3.481-4.43C6.457 6.582 9.117 6 12 6s5.543.582 7.519 1.57C21.434 8.528 23 10.037 23 12"/><path fill="#090404" d="M19 10.5c0-.152-.067-.376-.348-.667-.286-.296-.748-.608-1.396-.892C15.962 8.375 14.104 8 12 8s-3.962.375-5.256.941c-.648.284-1.11.596-1.396.892-.281.29-.348.515-.348.667s.067.376.348.667c.286.296.748.608 1.396.892C8.038 12.625 9.895 13 12 13s3.962-.375 5.256-.941c.648-.284 1.11-.596 1.396-.892.281-.29.348-.515.348-.667m2 0c0 .814-.382 1.511-.91 2.058-.524.541-1.233.983-2.032 1.333C16.456 14.59 14.314 15 12 15s-4.456-.409-6.058-1.11c-.799-.349-1.508-.79-2.032-1.332C3.382 12.01 3 11.314 3 10.5s.382-1.511.91-2.058c.524-.541 1.233-.983 2.032-1.333C7.544 6.41 9.686 6 12 6s4.456.409 6.058 1.11c.799.349 1.508.79 2.032 1.332.528.547.91 1.244.91 2.058"/><path fill="#090404" d="M20.491 16.912a1 1 0 0 1 1.018 1.722c-2.271 1.341-5.228 2.19-8.462 2.342a1 1 0 0 1-.094-1.998c2.959-.139 5.588-.914 7.538-2.066M10.953 3.024a1 1 0 0 1 .094 1.998c-2.958.139-5.588.914-7.538 2.066a1 1 0 0 1-1.018-1.722c2.272-1.341 5.228-2.19 8.462-2.342"/></svg>