<svg xmlns="http://www.w3.org/2000/svg" fill="none" viewBox="0 0 24 24"><circle cx="12.5" cy="7.5" r="1.5" fill="#090404"/><circle cx="8.1" cy="9.6" r="1.1" fill="#090404"/><path fill="#090404" d="M20 12a8 8 0 1 0-16 0 8 8 0 0 0 16 0m2 0c0 5.523-4.477 10-10 10S2 17.523 2 12 6.477 2 12 2s10 4.477 10 10"/><path fill="#090404" d="M11.1 15a1.1 1.1 0 1 0-2.2 0 1.1 1.1 0 0 0 2.2 0m1.8 0A2.9 2.9 0 1 1 7.1 15a2.9 2.9 0 0 1 5.801 0"/><path fill="#090404" d="M16 13a5 5 0 0 1 4.376-4.961l.248 1.984a3.001 3.001 0 0 0-.57 5.825l-.63 1.899A5 5 0 0 1 16 12.999"/></svg>