<svg xmlns="http://www.w3.org/2000/svg" fill="none" viewBox="0 0 24 24"><path fill="#090404" d="M21.022 12.918a1 1 0 0 1 1.957.413c-.452 2.138-1.887 3.615-3.66 4.51-1.757.888-3.89 1.234-5.925 1.145-2.033-.089-4.07-.616-5.63-1.582C6.193 16.434 5 14.941 5 12.962c0-1.168.553-2.09 1.318-2.741.746-.635 1.706-1.032 2.646-1.243.945-.211 1.945-.252 2.823-.112.831.133 1.762.465 2.302 1.196.402.545.335 1.167.088 1.605-.225.398-.6.678-.987.82l-.922.338q.12.03.262.053c.603.096 1.348.073 2.07-.089.727-.163 1.358-.449 1.786-.813.41-.349.614-.746.614-1.22 0-1.007-.567-1.886-1.675-2.573-1.12-.696-2.703-1.124-4.417-1.177-3.503-.108-6.928 1.326-7.964 4.267a1 1 0 1 1-1.887-.665c1.464-4.153 6.04-5.72 9.911-5.601 1.973.06 3.922.552 5.411 1.476C17.88 7.415 19 8.855 19 10.757c0 1.168-.552 2.09-1.317 2.741-.746.635-1.706 1.032-2.646 1.242-.945.212-1.945.253-2.823.112-.832-.133-1.762-.465-2.302-1.197-.402-.544-.335-1.165-.088-1.603.224-.399.6-.679.987-.82l.92-.34a4 4 0 0 0-.26-.051c-.603-.097-1.348-.073-2.07.089-.727.162-1.358.449-1.786.813-.41.348-.615.745-.615 1.219 0 1.065.62 2.001 1.816 2.741 1.204.745 2.887 1.207 4.666 1.285 1.777.078 3.55-.234 4.934-.932 1.368-.69 2.308-1.728 2.606-3.138"/></svg>