<svg xmlns="http://www.w3.org/2000/svg" fill="none" viewBox="0 0 24 24"><path fill="#090404" d="M14.75 14a.5.5 0 1 1 0-1 .5.5 0 0 1 0 1"/><path fill="#090404" d="M17.75 11a.5.5 0 1 1 0-1 .5.5 0 0 1 0 1"/><path fill="#090404" d="M21 8a1 1 0 0 0-1-1H4a1 1 0 0 0-1 1v8a1 1 0 0 0 1 1h16a1 1 0 0 0 1-1zm2 8a3 3 0 0 1-3 3H4a3 3 0 0 1-3-3V8a3 3 0 0 1 3-3h16a3 3 0 0 1 3 3z"/><path fill="#090404" d="M7 14v-1H6a1 1 0 1 1 0-2h1v-1a1 1 0 0 1 2 0v1h1a1 1 0 1 1 0 2H9v1a1 1 0 1 1-2 0"/><path fill="#090404" d="M15.25 13.5a.5.5 0 1 0-.6.49l.1.01a.5.5 0 0 0 .5-.5m3-3a.5.5 0 1 0-1 0 .5.5 0 0 0 1 0m-2.25 3a1.25 1.25 0 1 1-2.5 0 1.25 1.25 0 0 1 2.5 0m3-3a1.25 1.25 0 0 1-2.493.128L16.5 10.5l.007-.128A1.25 1.25 0 0 1 19 10.5"/></svg>