<svg xmlns="http://www.w3.org/2000/svg" fill="none" viewBox="0 0 24 24"><circle cx="17" cy="11.9" r="1.2" fill="#090404"/><circle cx="15" cy="9.1" r="1.2" fill="#090404"/><path fill="#090404" d="M13.32 4c2.01 0 3.29-.017 4.384.41a6 6 0 0 1 2.775 2.207c.662.971.934 2.222 1.385 4.18l.93 4.023a4.29 4.29 0 0 1-7.966 2.984L14.4 17H9.6l-.428.804a4.29 4.29 0 0 1-7.965-2.984l.929-4.023c.452-1.958.723-3.209 1.386-4.18A6 6 0 0 1 6.296 4.41C7.391 3.983 8.671 4 10.68 4zm-2.64 2c-2.182 0-2.998.017-3.656.273a4 4 0 0 0-1.85 1.472c-.398.584-.598 1.375-1.089 3.502l-.929 4.024a2.29 2.29 0 0 0 4.251 1.591l.46-.86.064-.113c.344-.55.95-.889 1.604-.889h4.93c.655 0 1.26.338 1.605.889l.064.113.459.86a2.29 2.29 0 0 0 4.25-1.591l-.928-4.024c-.49-2.127-.69-2.918-1.089-3.502a4 4 0 0 0-1.85-1.472C16.319 6.017 15.504 6 13.322 6z"/><path fill="#090404" d="M7.65 12.3v-.95H6.7a.85.85 0 0 1 0-1.7h.95V8.7a.85.85 0 1 1 1.7 0v.95h.95a.85.85 0 1 1 0 1.7h-.95v.95a.851.851 0 0 1-1.7 0"/></svg>