<svg xmlns="http://www.w3.org/2000/svg" fill="none" viewBox="0 0 24 24"><path fill="#090404" d="M9.75 21h4.5a.75.75 0 0 0 .75-.75v-2.69a.75.75 0 0 0-.22-.53l-2.426-2.426a.5.5 0 0 0-.708 0L9.22 17.03a.75.75 0 0 0-.22.53v2.69c0 .414.336.75.75.75"/><path fill="#090404" d="m14 17.664-2-2-2 2V20h4zm-6-.104c0-.463.185-.909.513-1.237l2.427-2.427a1.5 1.5 0 0 1 2.12 0l2.427 2.427c.329.328.513.773.513 1.238v2.689A1.75 1.75 0 0 1 14.25 22h-4.5A1.75 1.75 0 0 1 8 20.25z"/><path fill="#090404" d="M6.44 8c.406 0 .797.141 1.109.396l.128.117 2.427 2.427a1.5 1.5 0 0 1 0 2.12l-2.427 2.427A1.75 1.75 0 0 1 6.439 16H3.75A1.75 1.75 0 0 1 2 14.25v-4.5C2 8.784 2.784 8 3.75 8zm9.224 4 2 2H20v-4h-2.336zM4 14h2.336l2-2-2-2H4zm6-7.664 2 2 2-2V4h-4zm12 7.914A1.75 1.75 0 0 1 20.25 16h-2.69a1.75 1.75 0 0 1-1.237-.513l-2.427-2.427a1.5 1.5 0 0 1 0-2.12l2.427-2.427.128-.117A1.75 1.75 0 0 1 17.561 8h2.689c.966 0 1.75.784 1.75 1.75zm-6-7.81c0 .464-.184.909-.513 1.237l-2.427 2.427a1.5 1.5 0 0 1-2.12 0L8.513 7.677A1.75 1.75 0 0 1 8 6.439V3.75C8 2.784 8.784 2 9.75 2h4.5c.966 0 1.75.784 1.75 1.75z"/></svg>