<svg xmlns="http://www.w3.org/2000/svg" fill="none" viewBox="0 0 24 24"><path fill="#090404" d="M3 9.75v4.5c0 .414.336.75.75.75h2.69a.75.75 0 0 0 .53-.22l2.426-2.426a.5.5 0 0 0 0-.708L6.97 9.22A.75.75 0 0 0 6.44 9H3.75a.75.75 0 0 0-.75.75"/><path fill="#090404" d="M10 17.664V20h4v-2.336l-2-2zM15.664 12l2 2H20v-4h-2.336zM10 6.336l2 2 2-2V4h-4zm6 13.914A1.75 1.75 0 0 1 14.25 22h-4.5A1.75 1.75 0 0 1 8 20.25v-2.69c0-.463.185-.909.513-1.237l2.427-2.427.114-.102a1.5 1.5 0 0 1 1.892 0l.114.102 2.427 2.427c.329.328.513.773.513 1.238zm6-6A1.75 1.75 0 0 1 20.25 16h-2.69a1.75 1.75 0 0 1-1.237-.513l-2.427-2.427a1.5 1.5 0 0 1 0-2.12l2.427-2.427.128-.117A1.75 1.75 0 0 1 17.561 8h2.689c.966 0 1.75.784 1.75 1.75zm-6-7.81c0 .464-.184.909-.513 1.237l-2.427 2.427a1.5 1.5 0 0 1-2.12 0L8.513 7.677A1.75 1.75 0 0 1 8 6.439V3.75C8 2.784 8.784 2 9.75 2h4.5c.966 0 1.75.784 1.75 1.75z"/><path fill="#090404" d="m6.336 14 2-2-2-2H4v4zm.103-6c.465 0 .91.185 1.238.513l2.427 2.427a1.5 1.5 0 0 1 0 2.12l-2.427 2.427A1.75 1.75 0 0 1 6.439 16H3.75A1.75 1.75 0 0 1 2 14.25v-4.5C2 8.784 2.784 8 3.75 8z"/></svg>