<svg xmlns="http://www.w3.org/2000/svg" fill="none" viewBox="0 0 24 24"><path fill="#090404" d="M21 12a2.75 2.75 0 1 1-5.5 0 2.75 2.75 0 0 1 5.5 0"/><path fill="#090404" d="M13.75 18.25a1.75 1.75 0 1 0-3.5 0 1.75 1.75 0 0 0 3.5 0M7.5 12A1.75 1.75 0 1 0 4 12a1.75 1.75 0 0 0 3.5 0m6.25-6.25a1.75 1.75 0 1 0-3.5 0 1.75 1.75 0 0 0 3.5 0m2 12.5a3.75 3.75 0 1 1-7.5 0 3.75 3.75 0 0 1 7.5 0M9.5 12A3.75 3.75 0 1 1 2 12a3.75 3.75 0 0 1 7.5 0m6.25-6.25a3.75 3.75 0 1 1-7.5 0 3.75 3.75 0 0 1 7.5 0"/><path fill="#090404" d="M20 12a1.75 1.75 0 1 0-3.5 0 1.75 1.75 0 0 0 3.5 0m2 0a3.75 3.75 0 1 1-7.5 0 3.75 3.75 0 0 1 7.5 0"/></svg>