<svg xmlns="http://www.w3.org/2000/svg" fill="none" viewBox="0 0 24 24"><path fill="#090404" d="M11.398 1.55c1.248-.451 2.4.432 2.697 1.472.585 2.051 2.211 3.53 4.025 5.34 1.732 1.727 3.607 3.749 3.827 6.732l.003.07c0 1.47-.338 3.365-1.51 4.772-1.24 1.488-3.245 2.24-6.123 1.67l-.379-.075c-.664.28-1.42.427-2.162.42-.698-.008-1.434-.152-2.088-.493l-.001.001c-1.775.65-3.68.484-5.163-.468-1.504-.965-2.474-2.677-2.474-4.894 0-3.202 1.893-5.309 3.58-7.078C7.4 7.16 8.88 5.705 9.12 3.62c.082-.71.528-1.439 1.321-1.725zM3.95 16.097c0 1.626.687 2.707 1.602 3.295.751.482 1.72.672 2.731.487a5 5 0 0 1-.223-.706c-.184-.76-.245-1.636-.227-2.504.036-1.716.39-3.613.936-4.797l.398-.862 1.726.796-.399.862c-.4.87-.729 2.484-.762 4.041-.016.769.042 1.47.174 2.018.14.58.326.828.43.905.356.26.87.412 1.46.418a3.5 3.5 0 0 0 1.613-.365c.167-.088.396-.35.517-1.055.116-.679.092-1.568-.036-2.548-.258-1.96-.902-4.022-1.331-4.954l-.399-.863 1.726-.796.398.863c.518 1.122 1.21 3.372 1.49 5.503.14 1.066.187 2.168.025 3.115a5 5 0 0 1-.248.918c1.797.165 2.816-.414 3.429-1.148.763-.916 1.063-2.277 1.068-3.523-.176-2.19-1.534-3.758-3.27-5.49-1.665-1.661-3.757-3.526-4.51-6.163a.33.33 0 0 0-.141-.187c-.054-.032-.077-.023-.084-.02l-.955.345c-.003 0-.016.007-.033.03a.3.3 0 0 0-.046.127c-.33 2.85-2.385 4.792-4.003 6.49-1.703 1.787-3.056 3.397-3.056 5.768"/></svg>