<svg xmlns="http://www.w3.org/2000/svg" fill="none" viewBox="0 0 24 24"><circle cx="9.5" cy="10.5" r="1.5" fill="#090404"/><circle cx="14.5" cy="10.5" r="1.5" fill="#090404"/><path fill="#090404" d="M18.5 9.978C18.5 6.743 15.66 4 12 4S5.5 6.743 5.5 9.978v9.999q.004.004.013.008A.15.15 0 0 0 5.58 20q.03 0 .06-.02l1.565-1.04a2.14 2.14 0 0 1 1.969-.202l2.773 1.107a.15.15 0 0 0 .104 0l2.773-1.107a2.14 2.14 0 0 1 1.969.201l1.565 1.04q.03.021.06.021a.15.15 0 0 0 .068-.015q.009-.004.013-.008zm2 10.024c0 .85-.524 1.489-1.15 1.788a2.13 2.13 0 0 1-2.098-.145l-1.564-1.04a.14.14 0 0 0-.122-.008l-2.774 1.105a2.15 2.15 0 0 1-1.584 0l-2.774-1.105a.14.14 0 0 0-.121.008l-1.565 1.04a2.13 2.13 0 0 1-2.099.145c-.625-.3-1.149-.939-1.149-1.788V9.978C3.5 5.505 7.375 2 12 2s8.5 3.505 8.5 7.978z"/></svg>