<svg xmlns="http://www.w3.org/2000/svg" fill="none" viewBox="0 0 24 24"><path fill="#090404" d="M11 9.5c0 1.105-.582 2-1.3 2s-1.3-.895-1.3-2 .582-2 1.3-2 1.3.895 1.3 2"/><ellipse cx="14.3" cy="9.5" fill="#090404" rx="1.3" ry="2"/><path fill="#090404" d="M12 2c4.472 0 7.943 3.663 8.03 8.063.06 3.026.297 5.963.97 8.894.342 1.485-1.044 2.919-2.593 2.427l-2.591-.823-3.077 1.222a2 2 0 0 1-1.477 0l-3.077-1.222-2.59.823c-1.55.492-2.936-.941-2.594-2.427.673-2.93.91-5.868.97-8.894C4.056 5.663 7.528 2 12 2m0 2c-3.312 0-5.963 2.72-6.03 6.102-.06 3.1-.304 6.189-1.02 9.303a.05.05 0 0 0 0 .03q.005.016.021.033.011.008.016.01h.002l2.59-.823a2 2 0 0 1 1.344.047l3.078 1.222 3.077-1.222c.429-.17.904-.186 1.343-.047l2.591.822h.001q.006 0 .017-.01a.1.1 0 0 0 .02-.032.05.05 0 0 0 .001-.03c-.716-3.114-.96-6.202-1.02-9.303C17.964 6.72 15.313 4 12 4"/></svg>