<svg xmlns="http://www.w3.org/2000/svg" fill="none" viewBox="0 0 24 24"><path fill="#090404" d="M20 12a8 8 0 1 0-16 0 8 8 0 0 0 16 0m2 0c0 5.523-4.477 10-10 10S2 17.523 2 12 6.477 2 12 2s10 4.477 10 10"/><path fill="#090404" d="M22 11v2H2v-2z"/><path fill="#090404" d="M14.5 12c0-2.394-.379-4.515-.957-6.002-.29-.746-.612-1.282-.917-1.614C12.322 4.053 12.109 4 12 4s-.322.053-.626.384c-.305.332-.627.868-.917 1.614C9.879 7.485 9.5 9.606 9.5 12s.379 4.515.957 6.002c.29.746.612 1.282.917 1.614.304.331.517.384.626.384s.322-.053.626-.384c.305-.332.627-.868.917-1.614.578-1.486.957-3.608.957-6.002m2 0c0 2.577-.404 4.956-1.093 6.727-.343.882-.776 1.664-1.308 2.243C13.566 21.55 12.858 22 12 22s-1.566-.45-2.099-1.03c-.532-.579-.965-1.361-1.308-2.243C7.904 16.956 7.5 14.577 7.5 12s.404-4.956 1.093-6.727c.343-.882.776-1.664 1.308-2.243C10.434 2.45 11.142 2 12 2s1.566.45 2.099 1.03c.532.579.965 1.361 1.308 2.243C16.096 7.044 16.5 9.423 16.5 12"/></svg>