<svg xmlns="http://www.w3.org/2000/svg" fill="none" viewBox="0 0 24 24"><path fill="#090404" d="M15.908 2.574c1.354-.612 2.985-.668 4.992-.271a.95.95 0 0 1 .325 1.735h-.002l-.007.005-.058.04q-.083.058-.238.182a6.6 6.6 0 0 0-.783.747c-.593.667-1.204 1.623-1.386 2.843a1.3 1.3 0 0 0-.017.242c.058.013.15.03.294.035.205.007.43-.004.71-.016.256-.01.571-.024.87 0 .287.023.675.087 1.024.31.4.258.65.661.716 1.15.06.436-.03.903-.186 1.372-.475 1.424-1.608 2.296-2.622 2.803a8 8 0 0 1-1.787.63c-.046.392-.11.86-.218 1.287-.097.385-.243.816-.482 1.19a2.2 2.2 0 0 1-.665.677 9.6 9.6 0 0 1-1.288 2.466c-.625.852-1.597 1.82-2.845 1.938L12 21.95c-1.371 0-2.433-1.04-3.1-1.949a9.6 9.6 0 0 1-1.288-2.466 2.2 2.2 0 0 1-.664-.678c-.239-.373-.386-.805-.482-1.19a10 10 0 0 1-.22-1.285 8 8 0 0 1-1.785-.631c-1.015-.507-2.148-1.38-2.622-2.804-.157-.469-.246-.935-.187-1.37.067-.49.317-.893.717-1.15.348-.224.737-.288 1.024-.31a7 7 0 0 1 .87 0c.28.011.505.022.71.015.142-.005.235-.022.292-.035a1.2 1.2 0 0 0-.015-.242c-.183-1.22-.793-2.176-1.386-2.843a6.6 6.6 0 0 0-.783-.748 5 5 0 0 0-.305-.227.95.95 0 0 1 .324-1.734c2.007-.397 3.639-.341 4.99.272 1.365.62 2.289 1.735 3.021 3.12.284.538.643.675.877.675.236 0 .598-.14.888-.682.74-1.382 1.666-2.496 3.031-3.114m2.639 1.376c-.765.003-1.365.134-1.855.356-.84.38-1.507 1.095-2.14 2.278C14 7.62 13.057 8.27 11.99 8.271c-1.068 0-2.009-.65-2.558-1.688-.625-1.184-1.29-1.898-2.126-2.277-.488-.222-1.087-.353-1.852-.356.703.841 1.442 2.055 1.677 3.623.07.473.054.952-.143 1.38-.21.458-.57.736-.943.889-.347.141-.711.179-1.005.19-.297.01-.61-.007-.858-.017a6 6 0 0 0-.63-.005c.015.08.042.19.09.337.252.755.888 1.314 1.67 1.705a5.8 5.8 0 0 0 1.724.542l.13.013.085.008a.95.95 0 0 1 .805.822c.065.528.102 1.166.253 1.768.074.292.158.5.24.629a.4.4 0 0 0 .077.095h.003l.123.04c.277.113.488.35.564.645.145.564.55 1.49 1.116 2.262.605.824 1.17 1.174 1.569 1.174l.076-.004c.392-.041.925-.398 1.492-1.17.566-.771.971-1.698 1.116-2.262a.95.95 0 0 1 .688-.684l.002-.001a.4.4 0 0 0 .077-.095c.082-.129.167-.337.24-.629.151-.602.189-1.24.254-1.767l.015-.085a.95.95 0 0 1 .875-.746c.287-.016 1.072-.164 1.854-.555.782-.39 1.417-.95 1.67-1.705.048-.146.073-.257.088-.337a6 6 0 0 0-.629.005c-.247.01-.56.027-.857.016-.294-.01-.659-.048-1.005-.19a1.73 1.73 0 0 1-.944-.888c-.196-.428-.213-.907-.142-1.38.235-1.568.973-2.782 1.676-3.623"/></svg>