<svg xmlns="http://www.w3.org/2000/svg" fill="none" viewBox="0 0 24 24"><path fill="#090404" d="M22 15a1 1 0 1 1 0 2H2a1 1 0 1 1 0-2z"/><path fill="#090404" d="M5 5a1 1 0 0 1 2 0c0 2.046 2.06 4 5 4s5-1.954 5-4a1 1 0 1 1 2 0c0 3.477-3.312 6-7 6S5 8.477 5 5"/><path fill="#090404" d="M17 4.9a1 1 0 1 1 2 0c0 1.34 1.204 2.689 3.163 3.014a1 1 0 0 1-.326 1.972C19.232 9.455 17 7.51 17 4.9"/><path fill="#090404" d="M5 4.9a1 1 0 1 1 2 0c0 2.61-2.232 4.555-4.837 4.986a1 1 0 0 1-.326-1.972C3.797 7.589 5 6.239 5 4.9"/><path fill="#090404" d="M5 19V6a1 1 0 0 1 2 0v13a1 1 0 1 1-2 0"/><path fill="#090404" d="M17 19V6a1 1 0 1 1 2 0v13a1 1 0 1 1-2 0"/><path fill="#090404" d="M11 16v-6a1 1 0 1 1 2 0v6a1 1 0 1 1-2 0"/></svg>