<svg xmlns="http://www.w3.org/2000/svg" fill="none" viewBox="0 0 24 24"><path fill="#090404" d="M9.263 10.5a2 2 0 0 1 1.91 1.412l1.386 4.5A2 2 0 0 1 10.647 19H3.354a2 2 0 0 1-1.91-2.588l1.384-4.5A2 2 0 0 1 4.739 10.5zM3.354 17h7.293l-1.384-4.5H4.739z"/><path fill="#090404" d="M14.263 4a2 2 0 0 1 1.91 1.412l1.386 4.5a2 2 0 0 1-1.912 2.588H8.354a2 2 0 0 1-1.91-2.588l1.384-4.5A2 2 0 0 1 9.739 4zm-5.909 6.5h7.293L14.263 6H9.739z"/><path fill="#090404" d="M19.263 10.5a2 2 0 0 1 1.91 1.412l1.386 4.5A2 2 0 0 1 20.647 19h-7.293a2 2 0 0 1-1.91-2.588l1.384-4.5a2 2 0 0 1 1.911-1.412zM13.354 17h7.293l-1.384-4.5h-4.524z"/></svg>