<svg xmlns="http://www.w3.org/2000/svg" fill="none" viewBox="0 0 24 24"><path fill="#090404" d="M12.04 6a1 1 0 0 1 1 1v6.035a.965.965 0 0 1-1.93 0V7.841a.037.037 0 0 0-.056-.03l-.693.423a.715.715 0 0 1-.75-1.217l1.15-.715A2 2 0 0 1 11.817 6z"/><path fill="#090404" d="M18.5 10a6.5 6.5 0 1 0-13 0 6.5 6.5 0 0 0 13 0m2 0a8.5 8.5 0 1 1-17 0 8.5 8.5 0 0 1 17 0"/><path fill="#090404" d="M7 16.5a1 1 0 1 1 2 0v4.22l2.758-.69.12-.022a1 1 0 0 1 .364.022l2.758.69V16.5a1 1 0 1 1 2 0V22a1 1 0 0 1-1.242.97L12 22.03l-3.758.94A1 1 0 0 1 7 22z"/></svg>