<svg xmlns="http://www.w3.org/2000/svg" fill="none" viewBox="0 0 24 24"><path fill="#090404" d="M12.25 12.75a1 1 0 0 0 .975-1.225 1 1 0 1 1-1.2 1.2q.11.025.225.025"/><path fill="#090404" d="M9.725 12.25a1 1 0 0 0 .974-1.225 1 1 0 1 1-1.199 1.2q.108.025.225.025"/><path fill="#090404" d="M11.725 10.25a1 1 0 0 0 .974-1.225 1 1 0 1 1-1.199 1.2q.108.025.225.025"/><path fill="#090404" d="M13.75 8.276a1 1 0 0 0 .975-1.225 1 1 0 1 1-1.2 1.2q.11.025.225.025"/><path fill="#090404" d="M14.225 10.75a1 1 0 0 0 .974-1.225 1 1 0 1 1-1.199 1.2q.108.025.225.025"/><path fill="#090404" d="M17.5 9.5a5.5 5.5 0 1 0-11 0 5.5 5.5 0 0 0 11 0m2 0a7.5 7.5 0 1 1-15 0 7.5 7.5 0 0 1 15 0"/><path fill="#090404" d="M11 20.99c0-1.1-.891-1.99-2-1.99a1 1 0 1 1 0-2c1.194 0 2.266.522 3 1.35A4 4 0 0 1 15 17a1 1 0 1 1 0 2c-1.04 0-1.887.782-1.99 1.786l-.01.204-.005.102A1 1 0 0 1 11 20.99"/><path fill="#090404" d="M11 21v-.01a1 1 0 1 1 2 0V21a1 1 0 0 1-2 0"/></svg>