<svg xmlns="http://www.w3.org/2000/svg" fill="none" viewBox="0 0 24 24"><path fill="#090404" d="M21.5 12a2.818 2.818 0 0 0-4.24-2.433c-.717.421-1.756 1.047-2.957 1.047-1.561 0-2.8-.968-3.638-1.856A4.7 4.7 0 0 0 7.479 7.28l-.251-.007A4.73 4.73 0 0 0 2.5 12.001l.006.243a4.73 4.73 0 0 0 4.722 4.483l.251-.006a4.7 4.7 0 0 0 3.186-1.478c.838-.888 2.077-1.856 3.638-1.856 1.2 0 2.24.626 2.958 1.047A2.819 2.819 0 0 0 21.5 12m2 0a4.819 4.819 0 0 1-7.251 4.16c-.808-.474-1.378-.773-1.946-.773-.717 0-1.458.46-2.183 1.23a6.727 6.727 0 1 1 0-9.23c.725.767 1.466 1.227 2.183 1.227.567 0 1.138-.299 1.946-.772A4.818 4.818 0 0 1 23.5 12"/></svg>