<svg xmlns="http://www.w3.org/2000/svg" fill="none" viewBox="0 0 24 24"><path fill="#090404" d="M13.67 20v-8a1 1 0 1 1 2 0v8a1 1 0 1 1-2 0"/><path fill="#090404" d="M8.33 20v-8a1 1 0 1 1 2 0v8a1 1 0 0 1-2 0"/><path fill="#090404" d="M19 20v-7a7 7 0 1 0-14 0v7a1 1 0 1 1-2 0v-7a9 9 0 0 1 18 0v7a1 1 0 1 1-2 0"/><path fill="#090404" d="M11 4.5V1a1 1 0 0 1 1-1h2a1 1 0 0 1 1 1v1a1 1 0 0 1-1 1h-1v1.5a1 1 0 1 1-2 0"/><path fill="#090404" d="M21 19a1 1 0 1 1 0 2H3a1 1 0 1 1 0-2z"/><path fill="#090404" d="M21 11a1 1 0 1 1 0 2H3a1 1 0 1 1 0-2z"/></svg>