<svg xmlns="http://www.w3.org/2000/svg" fill="none" viewBox="0 0 24 24"><ellipse cx="12" cy="9" fill="#090404" rx="2.5" ry="1.4"/><path fill="#090404" d="M19.5 18h-1a.5.5 0 0 0-.5.5V21a.5.5 0 0 0 .5.5h1a.5.5 0 0 0 .5-.5v-2.5a.5.5 0 0 0-.5-.5"/><path fill="#090404" d="M11.656 3.065a1.1 1.1 0 0 1 .69 0l.11.043 10.759 4.89c.859.392.859 1.612 0 2.003l-10.76 4.89a1.1 1.1 0 0 1-.91 0L.788 10.001c-.86-.391-.86-1.611 0-2.002l10.759-4.89zM3.416 9l8.585 3.901L20.584 9 12 5.097z"/><path fill="#090404" d="M6 11v4.5H4V11z"/><path fill="#090404" d="M4 15.5a1 1 0 1 1 2 0c0 .59.429 1.321 1.547 1.96 1.09.623 2.662 1.04 4.453 1.04.811 0 1.582-.085 2.286-.24a1 1 0 0 1 .428 1.954c-.849.185-1.764.286-2.714.286-2.075 0-4.003-.479-5.446-1.304C5.139 18.387 4 17.118 4 15.5"/><path fill="#090404" d="M18.5 18.5V21h1v-2.5zm2 2.5a1 1 0 0 1-1 1h-1a1 1 0 0 1-1-1v-2.5a1 1 0 0 1 1-1h1a1 1 0 0 1 1 1z"/><path fill="#090404" d="M18 15.901a4 4 0 0 0-2.016-3.472l-4.48-2.56.992-1.737 4.48 2.56A6 6 0 0 1 20 15.902V20h-2z"/></svg>