<svg xmlns="http://www.w3.org/2000/svg" fill="none" viewBox="0 0 24 24"><path fill="#090404" d="M19.593 18.931a6 6 0 0 1-1.006.919c-.096.063-.156.153-.24.23-.444.382-.925.496-1.26.764-.457.357-2.16.782-2.644.93-.82.187-1.741.254-2.75.216-.217 0-.419 0-.604-.015-.076-.006-.151.014-.227.015h-.008q-.012 0-.04-.017a.14.14 0 0 0-.07-.022l-.02-.001c-.101-.014-.155.022-.194.041-.03.015-.062.003-.09-.015-.089-.056-.287-.183-.354-.203-.066-.02-.073.007-.108.013a.08.08 0 0 1-.066-.02c-.02-.018-.041-.044-.09-.07-.09-.048-.138.06-.271-.06-.02-.018-.03-.053-.057-.054l-.018-.002a6 6 0 0 1-.542-.126c-.192-.051-.132-.09-.216-.128-1.128-.42-2.736-1.25-3.324-1.837-.216-.217-.468-.714-.624-.842-.12-.102-.36-.306-.42-.408-.048-.09 0-.255-.084-.37-.108-.14-.324-.217-.528-.536-.228-.357-.36-.829-.588-1.314-.192-.42-.732-1.799-.732-4.312 0-1.684.78-4.018 1.116-4.337.216-.205.192-.65.348-.868 1.78-2.475 4.896-4.296 8.604-4.487q.225-.011.452-.014c.915-.01 1.832.09 2.721.306.888.217 1.737.555 2.565.939 0 0 .099.008.124.02.044.022.062.06.105.082.043.02.106.003.153.013.155.031.183.124.212.16.035.045.076.062.155.085.207.06.234.127.262.159.022.025.032.057.043.086.012.03.034.057.066.065.068.016.161.1.18.213.013.075.093.107.071.246-.007.046.041.112-.212.362s-.783.406-1.107.282c-1.116-.428-1.282-.51-1.73-.632-.82-.224-1.518-.376-2.368-.36-1.356.026-2.424.153-3.708.6-.563.2-1.626.742-2.159 1.165-.533.422-1.305 1.006-1.623 1.546a4 4 0 0 1-.502.664c-.383.42-.828 1.638-.972 2.225-.036.128.06.268.012.396-.048.14-.276.204-.3.319-.096.408-.072.931-.072 1.377 0 .243.072.574.156.766.06.127.252.217.276.344.012.09-.108.192-.108.268 0 .064.108.932.168 1.06.084.152.348.344.42.522.048.128-.084.255.012.383.06.077.252.076.324.178.096.128.3.498.396.613.072.09.204.128.264.166.18.127.024.242.192.433.528.6 1.344 1.34 2.124 1.672.12.05 1.355.522 1.428.523 1.74.256 3.697.232 5.389-.712.396-.217 2.639-1.776 3.011-3.626.084-.37.192-1.263.144-1.62-.192-1.327-1.01-3.235-2.508-3.942-.798-.376-1.404-.37-1.56-.344-.456.089-.612-.179-1.032-.14-1.284.101-2.544.459-3.528 1.492-.9.957-1.08 2.181-.624 2.96.048.102.024.23-.072.293a.3.3 0 0 0-.1.091c-.035.067.069.102.14.127.5.175.68 1.017 1.34.981h.144s.276 0 .384-.127c.089-.105.088-.227.025-.282-.028-.024-.063-.038-.071-.074a1 1 0 0 1-.014-.116c0-.026.036-.039.036-.064 0-.077-.084-.14-.072-.217.008-.04.064-.097.104-.14.03-.031.03-.072.011-.111l-.002-.005a.18.18 0 0 1-.01-.128c.008-.024.017-.05.017-.075.012-.115-.036-.166-.048-.255 0-.032.17-.107.231-.154.018-.013.02-.036.014-.058-.013-.046-.029-.06-.029-.146 0-.02.017-.049.038-.075a.5.5 0 0 0 .099-.178l.033-.116a.15.15 0 0 1 .098-.103c.083-.027.045-.162.123-.2.023-.01.08.003.173-.017.192-.038.06-.102.096-.204.017-.062.069-.056.119-.05.04.003.08-.01.109-.038s.057-.06.096-.077c.048-.021.176-.025.267-.026q.056-.002.113-.01c.102-.012.246-.005.316-.015.084-.013.132-.09.204-.09.06 0 .144.102.204.102s.12-.05.18-.05c.036 0 .048.063.108.063h.024s.552.013 1.128.37c.396.242.684.83.684.83.276.471-.03.956-.03 1.39 0 .179.06.332.024.498-.024.127-.12.23-.156.332-.036.089-.036.204-.156.37-.096.14-.144.14-.168.165-.036.038-.347.508-.55.687-.54.485-1.04.627-1.772.64-.324.012-.36.076-.408.076a10 10 0 0 1-1.176-.064s-1.068-.204-1.488-.408c-.228-.102-1.728-1.212-2.064-1.837-1.044-1.965-.804-4.057.276-5.46.78-1.02 2.064-2.348 5.112-2.603 1.548-.127 2.928.077 4.008.587 1.524.715 2.64 1.978 3.336 3.47 1.188 2.552 1.12 5.438-1.233 8.117"/></svg>