<svg xmlns="http://www.w3.org/2000/svg" fill="none" viewBox="0 0 24 24"><path fill="#090404" d="M22 18a1 1 0 1 1 0 2H2a1 1 0 1 1 0-2z"/><path fill="#090404" d="M2.256 8.832a1 1 0 0 1 1.087-.272c2.689.981 4.428 2.22 5.447 3.948C9.791 14.205 10 16.218 10 18.5H8c0-2.218-.22-3.768-.933-4.977-.45-.762-1.137-1.453-2.231-2.09.716 2.348.847 4.675.878 7.054l-2 .026c-.039-3.115-.262-5.824-1.611-8.572a1 1 0 0 1 .153-1.109"/><path fill="#090404" d="M6.248 4.84c.271-.309.704-.42 1.09-.281 3.582 1.285 5.538 3.574 6.564 6.19C14.903 13.304 15 16.133 15 18.5h-2c0-2.36-.108-4.85-.96-7.021-.604-1.543-1.593-2.94-3.252-4.004.368 1.345.63 2.856.816 4.325.315 2.494.432 5.006.455 6.686l-2 .028a61 61 0 0 0-.44-6.463c-.308-2.438-.797-4.709-1.508-6.094a1 1 0 0 1 .137-1.117"/><path fill="#090404" d="M18.252 4.34a1 1 0 0 0-1.09-.281c-1.583.567-2.767 1.223-3.696 2.064-.934.845-1.555 1.827-2.08 2.954l1.812.846c.456-.978.938-1.708 1.61-2.317.3-.27.65-.526 1.068-.772q-.063.34-.113.687c-.073.519-.13 1.063-.186 1.617-.057.56-.114 1.133-.19 1.738l1.985.248c.079-.632.138-1.23.194-1.783.057-.558.11-1.065.178-1.54.135-.954.318-1.706.645-2.344a1 1 0 0 0-.137-1.117"/><path fill="#090404" d="M21.741 7.828a1 1 0 0 0-1.111-.257c-3.05 1.214-5.028 2.565-6.2 4.402C13.262 13.803 13 15.956 13 18.5h2c0-2.456.269-4.122 1.116-5.451.586-.918 1.498-1.751 2.967-2.56-.884 2.658-1.047 5.293-1.083 7.997l2 .028c.047-3.462.305-6.486 1.889-9.556a1 1 0 0 0-.148-1.13"/></svg>