<svg xmlns="http://www.w3.org/2000/svg" fill="none" viewBox="0 0 24 24"><path fill="#090404" d="M13.518 8.272c0-.49-.6-.709-.903-.33l-2.999 3.749c-.272.34-.035.85.394.85h1.472v2.187c0 .49.6.709.903.33l2.999-3.749c.272-.34.035-.85-.394-.85h-1.472z"/><path fill="#090404" d="M5.117 6.222c2.763-3.037 7.837-4.414 14.049-2.846l.605.161.122.043a1 1 0 0 1 .572.65c1.816 6.487.45 11.802-2.685 14.654-3.01 2.739-7.384 2.962-11.35.101l-1.721 1.722a1.001 1.001 0 0 1-1.415-1.414l1.721-1.722c-2.86-3.966-2.637-8.338.102-11.35m13.567-.905c-5.734-1.452-9.967-.08-12.087 2.25-2.118 2.328-2.383 5.893.459 9.377 3.484 2.843 7.05 2.579 9.377.461 2.331-2.12 3.703-6.353 2.251-12.088"/></svg>