<svg xmlns="http://www.w3.org/2000/svg" fill="none" viewBox="0 0 24 24"><g fill="#090404" clip-path="url(#a)"><path d="m9.238 15.406 8.067-6.143c.396-.301.96-.184 1.15.284.991 2.467.548 5.431-1.425 7.467s-4.719 2.482-7.228 1.465l-2.742 1.31c3.932 2.771 8.707 2.086 11.69-.994 2.367-2.441 3.1-5.769 2.415-8.77l.006.007c-.994-4.408.244-6.17 2.78-9.774.02-.026-.016-.055-.039-.032l-3.118 3.217v-.01z"/><path d="M7.652 7.332c-2.408 2.482-2.895 6.786-.073 9.566l-.002.003L.08 23.81c-.026.024-.063-.008-.041-.037.45-.602.98-1.178 1.511-1.753l.029-.031c1.704-1.848 3.393-3.68 2.361-6.267-1.383-3.467-.577-7.53 1.984-10.171 2.662-2.745 6.584-3.437 9.86-2.046a7.8 7.8 0 0 1 1.848 1.04l-2.735 1.303c-2.546-1.102-5.464-.353-7.244 1.484"/></g><defs><clipPath id="a"><path fill="#fff" d="M0 0h24v24H0z"/></clipPath></defs></svg>