<svg xmlns="http://www.w3.org/2000/svg" fill="none" viewBox="0 0 24 24"><path fill="#090404" d="M9.999 7a2 2 0 1 0-4 0 2 2 0 0 0 4 0m2 0a4 4 0 1 1-8 0 4 4 0 0 1 8 0"/><path fill="#090404" d="M18.499 7.5a1.5 1.5 0 1 0-3 0 1.5 1.5 0 0 0 3 0m2 0a3.5 3.5 0 1 1-7 0 3.5 3.5 0 0 1 7 0"/><path fill="#090404" d="M8 12c3.18 0 6.14 2.414 6.862 6.767.206 1.24-.799 2.233-1.935 2.233H3.073c-1.136 0-2.14-.993-1.935-2.233l.074-.403C2.045 14.265 4.922 12 8.001 12m0 2c-2.022 0-4.258 1.513-4.872 5h9.744c-.613-3.487-2.849-5-4.871-5"/><path fill="#090404" d="M15.774 12.14c3.14-.726 6.442 1.354 7.222 5.614.23 1.26-.8 2.246-1.924 2.246H18a1 1 0 1 1 0-2h3.005c-.64-3.234-2.948-4.335-4.78-3.911a1 1 0 0 1-.451-1.948"/></svg>