<svg xmlns="http://www.w3.org/2000/svg" fill="none" viewBox="0 0 24 24"><path fill="#090404" d="M9.499 7a2 2 0 1 0-4 0 2 2 0 0 0 4 0m2 0a4 4 0 1 1-8 0 4 4 0 0 1 8 0"/><path fill="#090404" d="M18.499 7a2 2 0 1 0-4 0 2 2 0 0 0 4 0m2 0a4 4 0 1 1-8 0 4 4 0 0 1 8 0"/><path fill="#090404" d="M7.5 12c3.18 0 6.14 2.414 6.862 6.767.206 1.24-.799 2.233-1.935 2.233H2.573c-1.136 0-2.14-.993-1.935-2.233l.074-.403C1.545 14.265 4.422 12 7.501 12m0 2c-2.022 0-4.258 1.513-4.872 5h9.744c-.613-3.487-2.849-5-4.871-5"/><path fill="#090404" d="M15.036 12.176c3.625-.882 7.489 1.542 8.325 6.594.205 1.245-.805 2.23-1.936 2.23h-3.927a1 1 0 0 1 0-2h3.871c-.708-4.03-3.572-5.437-5.86-4.881a1 1 0 0 1-.473-1.943"/></svg>