<svg xmlns="http://www.w3.org/2000/svg" fill="none" viewBox="0 0 24 24"><path fill="#090404" d="M11.499 6.5a2.5 2.5 0 1 0-5 0 2.5 2.5 0 0 0 5 0m2 0a4.5 4.5 0 1 1-9 0 4.5 4.5 0 0 1 9 0"/><path fill="#090404" d="M17.499 6.5a2.5 2.5 0 0 0-2.5-2.5 1 1 0 1 1 0-2 4.5 4.5 0 1 1 0 9 1 1 0 1 1 0-2 2.5 2.5 0 0 0 2.5-2.5"/><path fill="#090404" d="M9 12c4.43 0 8.261 2.88 8.907 6.844C18.112 20.107 17.052 21 16 21H2C.95 21-.11 20.107.094 18.844l.07-.37C.978 14.703 4.71 12 9 12m0 2c-3.563 0-6.36 2.25-6.901 5h13.803c-.542-2.75-3.338-5-6.902-5"/><path fill="#090404" d="M17.057 13.175a1 1 0 0 1 1.276-.609c2.88 1.02 5.097 3.36 5.572 6.278C24.111 20.107 23.051 21 22 21h-1.5a1 1 0 0 1 0-2h1.403c-.395-2.014-1.99-3.753-4.237-4.549a1 1 0 0 1-.608-1.276"/></svg>