<svg xmlns="http://www.w3.org/2000/svg" fill="none" viewBox="0 0 24 24"><path fill="#090404" d="M19.5 12a7.5 7.5 0 1 0-15 0 7.5 7.5 0 0 0 15 0m2 0a9.5 9.5 0 1 1-19 0 9.5 9.5 0 0 1 19 0"/><path fill="#090404" d="M6.06 6.06c.523-.522 1.238-.6 1.847-.528.623.073 1.306.32 1.995.664 1.388.693 2.988 1.886 4.502 3.4s2.707 3.115 3.4 4.502c.345.69.59 1.373.665 1.995.072.61-.007 1.324-.53 1.847-.522.522-1.237.601-1.846.53-.623-.075-1.306-.32-1.995-.665-1.388-.694-2.989-1.886-4.502-3.4-1.514-1.514-2.707-3.115-3.4-4.502-.345-.69-.591-1.373-.665-1.995-.072-.61.007-1.324.53-1.847m1.635 1.26c-.23-.027-.328.003-.36.016-.013.032-.043.13-.016.36.04.337.19.812.486 1.402.586 1.172 1.648 2.618 3.063 4.033s2.862 2.479 4.034 3.065c.59.295 1.065.445 1.403.485.228.027.326-.004.358-.018.014-.031.045-.13.018-.358-.04-.337-.19-.812-.486-1.402-.586-1.172-1.65-2.62-3.064-4.034-1.415-1.415-2.862-2.478-4.033-3.064-.59-.295-1.065-.445-1.403-.485"/><path fill="#090404" d="M16.093 5.532c.61-.073 1.324.006 1.847.529s.601 1.237.53 1.847c-.075.622-.32 1.305-.665 1.995-.694 1.387-1.886 2.988-3.4 4.502s-3.115 2.706-4.502 3.4c-.69.345-1.373.59-1.995.664-.61.072-1.325-.007-1.847-.53-.523-.522-.602-1.236-.53-1.846.074-.622.32-1.306.665-1.995.693-1.387 1.886-2.988 3.4-4.502s3.115-2.707 4.502-3.4c.69-.345 1.373-.59 1.995-.664m.57 1.804c-.032-.014-.13-.043-.358-.016-.337.04-.812.19-1.402.485-1.172.586-2.62 1.648-4.035 3.063s-2.477 2.863-3.063 4.035c-.295.59-.445 1.065-.485 1.402-.027.228.002.326.016.358.031.014.13.045.36.018.337-.04.812-.19 1.402-.485 1.172-.586 2.618-1.65 4.033-3.065s2.479-2.861 3.065-4.033c.295-.59.445-1.065.485-1.402.027-.23-.004-.329-.018-.36"/><path fill="#090404" d="M19.793 2.793a1 1 0 1 1 1.414 1.414l-2.5 2.5a1 1 0 1 1-1.414-1.414z"/><path fill="#090404" d="M5.293 17.293a1 1 0 1 1 1.414 1.414l-2.5 2.5a1 1 0 1 1-1.414-1.414z"/></svg>