<svg xmlns="http://www.w3.org/2000/svg" fill="none" viewBox="0 0 24 24"><path fill="#090404" d="M12 19V5a1 1 0 1 1 2 0v14a1 1 0 1 1-2 0"/><path fill="#090404" d="M13 11a1 1 0 1 1 0 2H3a1 1 0 1 1 0-2z"/><path fill="#090404" d="M2 19V5a1 1 0 0 1 2 0v14a1 1 0 1 1-2 0"/><path fill="#090404" d="M21 13.24V13a1 1 0 0 0-1.867-.499 1 1 0 0 1-1.73-1.002A2.999 2.999 0 0 1 23 13v.24c0 .714-.258 1.404-.722 1.947h.002L20.062 18H22a1 1 0 1 1 0 2h-4a1 1 0 0 1-.785-1.62l3.495-4.43.037-.046c.163-.183.253-.42.253-.665"/></svg>