<svg xmlns="http://www.w3.org/2000/svg" fill="none" viewBox="0 0 24 24"><path fill="#090404" d="M12 19V5a1 1 0 1 1 2 0v14a1 1 0 1 1-2 0"/><path fill="#090404" d="M13 11a1 1 0 1 1 0 2H3a1 1 0 1 1 0-2z"/><path fill="#090404" d="M2 19V5a1 1 0 0 1 2 0v14a1 1 0 1 1-2 0"/><path fill="#090404" d="M20.998 17a1 1 0 0 0-.898-.995l-.205-.01a1 1 0 0 1 0-1.99l.206-.01a1 1 0 1 0-.97-1.494 1 1 0 0 1-1.73-1.002A2.999 2.999 0 1 1 22.228 15c.477.531.769 1.23.769 2a3 3 0 0 1-5.598 1.501 1 1 0 0 1 1.73-1.002A1 1 0 0 0 20.999 17"/></svg>