<svg xmlns="http://www.w3.org/2000/svg" fill="none" viewBox="0 0 24 24"><path fill="#090404" d="M8.64 2.114c1.966-.31 3.815-.199 5.508.422 1.813.664 3.375 1.885 4.68 3.651.103.14.195.263.294.44.376.677.375 1.404.395 1.798.023.467.063.65.172.801.062.086.127.153.218.242h.593l.099.005a1 1 0 0 1 .608.288c.215.216.507.488.67.819a2 2 0 0 1 0 1.776c-.122.248-.317.463-.497.646l-2.466 2.466a2 2 0 0 1-2.828 0l-.151-.151a1.48 1.48 0 0 1-.435-1.049.45.45 0 0 0-.537-.44l-.767.153a1 1 0 0 1-.907-.277l-3-3.033a1 1 0 0 1-.273-.88c.242-1.35.144-2.204-.17-2.848-.317-.652-.934-1.251-2.078-1.924a1.55 1.55 0 0 1-.754-1.127L7 3.685l.006-.134a1.525 1.525 0 0 1 1.24-1.37zm4.82 2.3q-1.618-.597-3.632-.43c.79.589 1.415 1.255 1.818 2.083.507 1.042.6 2.211.42 3.556l2.265 2.29.24-.047a2.45 2.45 0 0 1 2.917 2.177l.012.011 2.293-2.293a8 8 0 0 0 .277-.284l.007-.009H19.5a1 1 0 0 1-.707-.293c-.141-.14-.486-.448-.724-.777-.491-.68-.527-1.416-.55-1.875-.025-.53-.041-.737-.145-.924a2 2 0 0 0-.154-.223c-1.107-1.498-2.365-2.451-3.76-2.962"/><path fill="#090404" d="m11.707 10.707-6.5 6.507a1.12 1.12 0 0 0 1.584 1.585l6.503-6.484 1.412 1.416-6.503 6.485a3.12 3.12 0 0 1-4.41-4.415l6.5-6.508z"/></svg>