<svg xmlns="http://www.w3.org/2000/svg" fill="none" viewBox="0 0 24 24"><path fill="#090404" d="M11.996 4.495a6.766 6.766 0 0 1 9.027.486c2.452 2.453 2.694 6.432.284 9.03a89 89 0 0 1-8.034 7.64c-.739.619-1.814.619-2.552 0a89 89 0 0 1-8.034-7.64c-2.41-2.598-2.168-6.577.284-9.03a6.765 6.765 0 0 1 9.025-.486m-1.458 1.402a4.766 4.766 0 0 0-6.153.498c-1.747 1.747-1.86 4.501-.231 6.256a87 87 0 0 0 7.842 7.458 87 87 0 0 0 5.948-5.48l-3.472-3.47-.707.706a4 4 0 0 1-5.657 0l-.354-.353a2 2 0 0 1 0-2.83zm9.07.498a4.765 4.765 0 0 0-6.738 0l-3.702 3.703.354.353a2 2 0 0 0 2.829 0l.707-.707a2 2 0 0 1 2.828 0l3.446 3.446q.256-.269.508-.539c1.628-1.755 1.515-4.509-.231-6.255"/></svg>