<svg xmlns="http://www.w3.org/2000/svg" fill="none" viewBox="0 0 24 24"><path fill="#090404" d="M5.433 16.457a1.492 1.492 0 0 0 2.11 2.109l1.415 1.415a3.493 3.493 0 0 1-4.939-4.939z"/><path fill="#090404" d="M10.97 18.424c0-.53.212-1.04.587-1.415l1.7-1.7a3.23 3.23 0 0 0-4.567-4.566l-1.7 1.7a2 2 0 0 1-1.414.587H4.418l6.553 6.553zm2 1.166a1.997 1.997 0 0 1-3.408 1.413l-6.564-6.565a1.997 1.997 0 0 1 1.411-3.408h1.167l1.7-1.701a5.23 5.23 0 0 1 8.449 1.51 5.23 5.23 0 0 1-1.054 5.884l-1.7 1.701z"/><path fill="#090404" d="M16.04 3.291a3.328 3.328 0 1 1 4.67 4.668l-5.098 3.946-1.224-1.58 5.097-3.947a1.328 1.328 0 1 0-1.863-1.863l-3.946 5.097-1.582-1.224z"/></svg>