<svg xmlns="http://www.w3.org/2000/svg" fill="none" viewBox="0 0 24 24"><path fill="#090404" d="M7 5.5a2.5 2.5 0 0 1 3.388-2.335 2.497 2.497 0 0 1 4.223 0A2.493 2.493 0 0 1 17.96 5.06Q18.22 5 18.5 5A2.5 2.5 0 0 1 21 7.5v6.33a8.171 8.171 0 0 1-15.402 3.805l-2.678-5.09a2 2 0 0 1 .208-2.18l.341-.428A3 3 0 0 1 7 9.06zm6 6v-7a.5.5 0 0 0-1 0V11a1 1 0 0 1-2 0V5.5a.5.5 0 0 0-1 0V11a1 1 0 0 1-1.624.781l-.939-.75a1 1 0 0 0-1.405.155l-.342.427 2.679 5.09A6.171 6.171 0 0 0 19 13.83V7.5a.5.5 0 0 0-1 0V12a1 1 0 0 1-2 0V5.5a.5.5 0 0 0-1 0v6a1 1 0 0 1-2 0"/></svg>