<svg xmlns="http://www.w3.org/2000/svg" fill="none" viewBox="0 0 24 24"><path fill="#090404" d="M16.5 14c.59 0 1.123.199 1.561.42s.863.507 1.224.748c.385.257.708.47 1.019.624.308.153.53.208.696.208a1 1 0 1 1 0 2c-.597 0-1.136-.195-1.584-.417-.445-.22-.875-.508-1.24-.751-.388-.259-.708-.472-1.015-.627-.305-.154-.514-.205-.661-.205-.162 0-.38.055-.687.208-.31.154-.632.367-1.017.624-.362.242-.79.529-1.229.75S12.592 18 12 18c-.593 0-1.129-.196-1.571-.418-.44-.22-.869-.508-1.232-.75-.386-.258-.707-.47-1.016-.625C7.874 16.054 7.658 16 7.5 16c-.15 0-.36.052-.666.206-.308.155-.628.368-1.016.626-.364.243-.793.53-1.237.751C4.134 17.805 3.596 18 3 18a1 1 0 1 1 0-2c.164 0 .383-.055.69-.208.31-.154.633-.367 1.018-.624.362-.242.789-.529 1.227-.75.44-.22.973-.418 1.565-.418.594 0 1.13.196 1.574.418.442.22.87.508 1.234.75.386.258.707.47 1.015.625.306.153.52.207.677.207.153 0 .364-.053.67-.206.308-.155.629-.368 1.015-.626.364-.243.794-.53 1.237-.751.446-.222.983-.417 1.578-.417m0-8c.59 0 1.123.199 1.561.42s.863.507 1.224.748c.385.257.708.47 1.019.624.308.153.53.208.696.208a1 1 0 1 1 0 2c-.597 0-1.136-.195-1.584-.417-.445-.22-.875-.508-1.24-.751-.388-.259-.708-.472-1.015-.627C16.856 8.051 16.647 8 16.5 8c-.162 0-.38.055-.687.208-.31.154-.632.367-1.017.624-.362.242-.79.529-1.229.749-.44.222-.975.419-1.567.419-.593 0-1.129-.196-1.571-.418-.44-.22-.869-.508-1.232-.75-.386-.257-.707-.47-1.016-.625C7.874 8.054 7.658 8 7.5 8c-.15 0-.36.053-.666.206-.308.155-.628.368-1.016.626-.364.243-.793.53-1.237.751C4.134 9.805 3.596 10 3 10a1 1 0 0 1 0-2c.164 0 .383-.055.69-.208.31-.154.633-.367 1.018-.624.362-.242.789-.529 1.227-.75C6.375 6.199 6.908 6 7.5 6c.594 0 1.13.196 1.574.418.442.22.87.508 1.234.75.386.258.707.47 1.015.625.306.153.52.207.677.207.153 0 .364-.053.67-.206.308-.155.629-.368 1.015-.626.364-.243.794-.53 1.237-.751.446-.222.983-.417 1.578-.417"/></svg>