<svg xmlns="http://www.w3.org/2000/svg" fill="none" viewBox="0 0 24 24"><path fill="#090404" d="M4 20v-9h2v9h12v-9h2v9a2 2 0 0 1-2 2H6a2 2 0 0 1-2-2"/><path fill="#090404" d="M21 11a1 1 0 1 1 0 2H3a1 1 0 1 1 0-2z"/><path fill="#090404" d="M14.792 3.542c.941-.94 2.222-.732 3.123-.367.948.385 1.884 1.087 2.604 1.806.364.365.693.754.952 1.139.248.37.475.8.563 1.239.09.449.059 1.128-.539 1.579-.492.37-1.118.373-1.62.304l-1.085-.135c-.233.998-.617 2.187-1.458 3.448l-1.664-1.11c.883-1.324 1.139-2.536 1.35-3.634l.023-.095a1 1 0 0 1 1.083-.708l1.674.21a6 6 0 0 0-.693-.823c-.594-.593-1.313-1.112-1.943-1.367-.677-.275-.896-.13-.956-.07-1.656 1.655-1.703 3.449-1.706 7.011V12h-2v-.032c.002-3.401-.041-6.093 2.292-8.426"/><path fill="#090404" d="M7.041 1.037c.783-.17 1.411.263 1.795.659.403.416.75.994 1.045 1.635.596 1.297 1.092 3.093 1.376 5.088.182 1.276.259 2.504.24 3.599l-2-.035c.017-.98-.052-2.102-.22-3.282-.265-1.863-.719-3.461-1.213-4.534-.224-.487-.438-.816-.609-1.013l-.003.006c-.13.279-.256.727-.342 1.348-.169 1.23-.153 2.93.113 4.791.125.88.293 1.704.489 2.445l-1.934.512c-.217-.821-.4-1.723-.535-2.675-.284-1.996-.315-3.888-.114-5.345.1-.723.263-1.393.514-1.927.232-.494.655-1.11 1.398-1.272"/></svg>