<svg xmlns="http://www.w3.org/2000/svg" fill="none" viewBox="0 0 24 24"><path fill="#090404" d="M13.553 1.895a.5.5 0 0 1 .894 0l.479.956a.5.5 0 0 0 .224.223l.956.479a.5.5 0 0 1 0 .894l-.956.479a.5.5 0 0 0-.224.224l-.479.956a.5.5 0 0 1-.894 0l-.479-.956a.5.5 0 0 0-.223-.224l-.957-.479a.5.5 0 0 1 0-.894l.957-.479a.5.5 0 0 0 .223-.223z"/><path fill="#090404" d="M9.358 3.215a.4.4 0 0 0-.716 0l-.416.832a.4.4 0 0 1-.179.179l-.832.416a.4.4 0 0 0 0 .715l.832.416.056.034a.4.4 0 0 1 .123.145l.177.355.24.477a.4.4 0 0 0 .685.052l.03-.052.416-.832a.4.4 0 0 1 .179-.179l.354-.177.478-.239a.4.4 0 0 0 0-.715l-.832-.416a.4.4 0 0 1-.146-.123l-.033-.056z"/><path fill="#090404" d="M19 19.322c0 .787-.472 1.563-1.295 1.844C16.16 21.693 14.158 22 12 22s-4.159-.306-5.705-.834C5.472 20.886 5 20.109 5 19.322V13a1 1 0 1 1 2 0v6.291c1.29.43 3.042.709 5 .709s3.71-.278 5-.709V13a1 1 0 1 1 2 0z"/><path fill="#090404" d="M12 8c2.266 0 4.352.228 5.9.615.766.192 1.456.436 1.98.745.457.27 1.12.792 1.12 1.64s-.663 1.37-1.12 1.64c-.524.309-1.214.553-1.98.745-1.548.387-3.634.615-5.9.615s-4.352-.228-5.9-.615c-.765-.192-1.456-.436-1.98-.745C3.664 12.37 3 11.848 3 11s.664-1.37 1.12-1.64c.524-.309 1.215-.553 1.98-.745C7.649 8.228 9.735 8 12 8m0 2c-2.152 0-4.066.219-5.414.556-.569.142-.997.299-1.29.444.293.145.721.302 1.29.444C7.934 11.781 9.848 12 12 12s4.067-.219 5.414-.556c.568-.142.995-.299 1.288-.444-.293-.145-.72-.302-1.288-.444C16.066 10.219 14.152 10 12 10"/></svg>