<svg xmlns="http://www.w3.org/2000/svg" fill="none" viewBox="0 0 24 24"><path fill="#090404" d="M16 12a5 5 0 1 0-10 0 5 5 0 0 0 10 0m2 0a7 7 0 1 1-14 0 7 7 0 0 1 14 0"/><path fill="#090404" d="M21 12a5 5 0 0 0-7.001-4.584l-.8-1.832a7 7 0 1 1 0 12.832l.8-1.832A5 5 0 0 0 21 12"/><path fill="#090404" d="M9 12c0-1.039.228-2.027.636-2.917a1 1 0 1 1 1.817.834A5 5 0 0 0 11 12c0 .763.17 1.483.473 2.127a1 1 0 1 1-1.81.852A7 7 0 0 1 9 12"/><path fill="#090404" d="M10 22v-1a1 1 0 0 1 2 0v1a1 1 0 1 1-2 0m-6.071-4.344a1 1 0 0 1 1.414 1.415l-.707.707a1 1 0 0 1-1.414-1.415zM2 11a1 1 0 0 1 0 2H1a1 1 0 0 1 0-2zm1.222-6.778a1 1 0 0 1 1.414 0l.707.707a1 1 0 0 1-1.414 1.414l-.707-.707a1 1 0 0 1 0-1.414M10 3V2a1 1 0 0 1 2 0v1a1 1 0 0 1-2 0"/></svg>