<svg xmlns="http://www.w3.org/2000/svg" fill="none" viewBox="0 0 24 24"><path fill="#090404" d="M8 3a1 1 0 0 1 0 2H4a1 1 0 0 1 0-2z"/><path fill="#090404" d="M5 12V4a1 1 0 0 1 2 0v8a1 1 0 1 1-2 0"/><path fill="#090404" d="M8 19a1 1 0 1 1 0 2H4a1 1 0 1 1 0-2z"/><path fill="#090404" d="M5 20v-8a1 1 0 1 1 2 0v8a1 1 0 1 1-2 0"/><path fill="#090404" d="M20 3a1 1 0 1 1 0 2h-4a1 1 0 1 1 0-2z"/><path fill="#090404" d="M17 12V4a1 1 0 1 1 2 0v8a1 1 0 1 1-2 0"/><path fill="#090404" d="M20 19a1 1 0 1 1 0 2h-4a1 1 0 1 1 0-2z"/><path fill="#090404" d="M17 20v-8a1 1 0 1 1 2 0v8a1 1 0 1 1-2 0"/><path fill="#090404" d="M18 11a1 1 0 1 1 0 2H6a1 1 0 1 1 0-2z"/></svg>