<svg xmlns="http://www.w3.org/2000/svg" fill="none" viewBox="0 0 24 24"><path fill="#090404" d="M20 10c0-1.786-.554-3.029-1.292-3.816A3.7 3.7 0 0 0 16 5a5.12 5.12 0 0 0-3.11 1.053 3 3 0 0 0-.155.129l-.029.025v.002l-.003.002-.072.064a1 1 0 0 1-1.338-.068l-.028-.025a3 3 0 0 0-.155-.13A5.119 5.119 0 0 0 8 5c-.982.001-1.965.392-2.708 1.185C4.554 6.97 4 8.214 4 10c0 2.405 1.752 4.648 3.855 6.386a19.7 19.7 0 0 0 2.908 1.986c.416.232.77.404 1.029.515q.125.051.208.08.083-.029.208-.08c.26-.111.613-.283 1.03-.515a19.7 19.7 0 0 0 2.907-1.986C18.248 14.648 20 12.406 20 10m2 0c0 3.345-2.373 6.102-4.582 7.927a21.7 21.7 0 0 1-3.21 2.193c-.462.257-.877.462-1.212.606a5 5 0 0 1-.467.177A1.8 1.8 0 0 1 12 21c-.216 0-.421-.062-.53-.097a5 5 0 0 1-.466-.177c-.335-.144-.75-.35-1.212-.606a21.7 21.7 0 0 1-3.21-2.193C4.373 16.102 2 13.345 2 10c0-2.214.696-3.971 1.833-5.184A5.7 5.7 0 0 1 8 3a7.1 7.1 0 0 1 4 1.229A7.117 7.117 0 0 1 16 3c1.518 0 3.035.609 4.167 1.816C21.304 6.03 22 7.786 22 10"/></svg>