<svg xmlns="http://www.w3.org/2000/svg" fill="none" viewBox="0 0 24 24"><path fill="#090404" d="M12 4.427c1.617-1.284 3.471-1.666 5.169-1.288 1.928.43 3.563 1.822 4.342 3.764 1.604 4-.494 9.69-9.022 14.47-.304.17-.675.17-.978 0-8.528-4.78-10.626-10.47-9.022-14.47.78-1.942 2.414-3.334 4.342-3.764 1.698-.378 3.552.004 5.169 1.288m4.734.664c-1.238-.276-2.708.047-4.022 1.38a1 1 0 0 1-1.424 0c-1.314-1.333-2.784-1.656-4.022-1.38-1.263.282-2.379 1.207-2.92 2.557C3.33 10.18 4.254 14.837 12 19.345c7.746-4.508 8.67-9.165 7.654-11.697-.541-1.35-1.657-2.275-2.92-2.557"/><path fill="#090404" d="M11.15 16.5v-.505a3.7 3.7 0 0 1-.665-.212c-.538-.232-1.064-.625-1.368-1.223a.85.85 0 0 1 1.516-.77c.077.151.242.31.525.433.282.12.628.18.962.164.341-.017.6-.107.75-.211.122-.086.155-.162.155-.267 0-.205-.06-.29-.215-.394-.23-.152-.567-.259-1.08-.41-.443-.132-1.06-.307-1.547-.64-.56-.38-.967-.973-.967-1.832 0-.62.259-1.135.669-1.5.365-.323.82-.503 1.265-.586V8.3a.85.85 0 1 1 1.7 0v.344c.445.132.869.35 1.218.666a.85.85 0 0 1-1.136 1.263c-.321-.289-.908-.444-1.427-.363-.248.039-.41.121-.492.195a.27.27 0 0 0-.098.228c0 .226.069.321.224.427.226.153.564.263 1.073.414.439.13 1.053.303 1.538.625.558.37.975.953.975 1.81 0 .737-.372 1.303-.88 1.66-.3.209-.643.346-.995.427v.504a.85.85 0 1 1-1.7 0"/></svg>