<svg xmlns="http://www.w3.org/2000/svg" fill="none" viewBox="0 0 24 24"><path fill="#090404" d="M12 4.427c1.617-1.284 3.471-1.666 5.169-1.288 1.928.43 3.563 1.822 4.342 3.764 1.604 4-.494 9.69-9.022 14.47-.304.17-.675.17-.978 0-8.528-4.78-10.626-10.47-9.022-14.47.78-1.942 2.414-3.334 4.342-3.764 1.698-.378 3.552.004 5.169 1.288m4.734.664c-1.238-.276-2.708.047-4.022 1.38a1 1 0 0 1-1.424 0c-1.314-1.333-2.784-1.656-4.022-1.38-1.263.282-2.379 1.207-2.92 2.557C3.33 10.18 4.254 14.837 12 19.345c7.746-4.508 8.67-9.165 7.654-11.697-.541-1.35-1.657-2.275-2.92-2.557"/><path fill="#090404" d="M10.5 9a1 1 0 0 1 .848.47l1.726 2.763.626-.833.075-.09A1 1 0 0 1 14.5 11H16a1 1 0 1 1 0 2h-1.001l-1.2 1.6a1 1 0 0 1-1.647-.07L10.5 11.886l-.402.644a1 1 0 0 1-.848.47H8a1 1 0 1 1 0-2h.696l.956-1.53.075-.104A1 1 0 0 1 10.5 9"/></svg>