<svg xmlns="http://www.w3.org/2000/svg" fill="none" viewBox="0 0 24 24"><path fill="#090404" d="M16.586 3a2 2 0 0 1 2.829 0l1.587 1.587a2 2 0 0 1 .001 2.826l-5.984 6a2 2 0 0 1-1.416.587h-2.602a1 1 0 0 1-1-1v-2.586A2 2 0 0 1 10.586 9zm-4.585 9h1.602l5.984-5.999L18 4.414l-6 6z"/><path fill="#090404" d="M3.89 5.89c2.588-2.59 6.977-2.05 10.48.277a1 1 0 0 1-1.105 1.666c-3.184-2.114-6.379-2.112-7.961-.53-.968.968-1.35 2.496-1.007 4.327.342 1.824 1.397 3.842 3.128 5.573a12 12 0 0 0 3.029 2.191 9 9 0 0 0 1.141.488c.34.114.458.118.405.118a1 1 0 0 1 0 2c-.303 0-.693-.105-1.043-.223-.394-.133-.875-.33-1.404-.597a14 14 0 0 1-3.542-2.563c-1.98-1.979-3.255-4.35-3.68-6.62-.425-2.263-.012-4.537 1.558-6.108"/><path fill="#090404" d="M16.452 9.244a1 1 0 0 1 1.41.1c1.491 1.722 2.627 3.54 3.071 5.238.456 1.739.2 3.492-1.308 4.7-1.212.968-2.573.837-3.66.388-1.059-.437-1.998-1.219-2.642-1.84a1 1 0 0 1 1.389-1.44c.58.56 1.303 1.137 2.015 1.431.683.282 1.202.255 1.649-.102.705-.565.946-1.396.623-2.631-.335-1.277-1.253-2.822-2.649-4.433a1 1 0 0 1 .102-1.41"/></svg>