<svg xmlns="http://www.w3.org/2000/svg" fill="none" viewBox="0 0 24 24"><path fill="#090404" d="M11.554 1.855a1 1 0 0 1 1.028.082l9.5 6.801a1 1 0 1 1-1.164 1.626L12 3.98l-8.918 6.385a1 1 0 1 1-1.164-1.626l9.5-6.801z"/><path fill="#090404" d="M4 18.4V7.761a1 1 0 0 1 2 0v10.64c0 .296.001.458.01.574l.002.013.012.002c.117.01.28.01.576.01h10.8c.297 0 .46 0 .576-.01l.011-.002.002-.013c.01-.116.011-.279.011-.575V7.761a1 1 0 1 1 2 0v10.64c0 .263.001.52-.017.737a2 2 0 0 1-.2.77 2 2 0 0 1-.875.874 2 2 0 0 1-.77.201c-.216.018-.474.017-.738.017H6.6c-.264 0-.522 0-.739-.017a2 2 0 0 1-.77-.201 2 2 0 0 1-.873-.874 2 2 0 0 1-.201-.77C3.999 18.922 4 18.664 4 18.4"/></svg>