<svg xmlns="http://www.w3.org/2000/svg" fill="none" viewBox="0 0 24 24"><path fill="#090404" d="M18.997 8.982v-.004l-.004-.003a6 6 0 0 0-.215-.179l-6.4-5.2c-.191-.155-.293-.238-.37-.292L12 3.298l-.008.006c-.077.054-.179.137-.37.292l-6.4 5.2a6 6 0 0 0-.215.179l-.004.003v.004C5 9.036 5 9.112 5 9.262V18.4c0 .296.001.458.01.575l.002.013.012.002c.117.01.28.01.576.01h12.8c.297 0 .46 0 .576-.01l.011-.002.002-.013c.01-.117.011-.279.011-.575V9.26c0-.15 0-.225-.003-.28M21 18.4c0 .263.001.521-.017.738a2 2 0 0 1-.2.77 2 2 0 0 1-.875.874 2 2 0 0 1-.77.2c-.216.018-.474.018-.738.018H5.6c-.264 0-.522 0-.739-.017a2 2 0 0 1-.77-.201 2 2 0 0 1-.873-.874 2 2 0 0 1-.201-.77C2.999 18.921 3 18.663 3 18.4V9.26c0-.224-.008-.523.07-.811q.096-.347.304-.64c.175-.243.413-.425.587-.566l6.4-5.2c.168-.137.335-.275.488-.38a2 2 0 0 1 .612-.301 2 2 0 0 1 1.078 0c.25.07.45.187.612.3.152.106.32.244.489.38l6.4 5.2c.174.142.412.324.586.568q.156.218.249.469l.055.17.044.216c.03.217.026.427.026.595z"/></svg>