<svg xmlns="http://www.w3.org/2000/svg" fill="none" viewBox="0 0 24 24"><path fill="#090404" d="M19.018 14.022c0-.49-.6-.709-.903-.33l-2.999 3.749c-.272.34-.035.85.394.85h1.472v2.187c0 .49.6.709.903.33l2.999-3.749c.272-.34.035-.85-.394-.85h-1.472z"/><path fill="#090404" d="M18 9.88V7.762a1 1 0 1 1 2 0v2.12a1 1 0 1 1-2 0"/><path fill="#090404" d="M11.508 2.041c.282-.071.577-.08.862-.027l.122.027.15.046c.345.124.639.35.872.517l8.568 6.134a1 1 0 0 1-1.164 1.627L12.35 4.23a7 7 0 0 0-.343-.238L12 3.99l-.007.003a7 7 0 0 0-.342.238l-8.569 6.135a1 1 0 0 1-1.164-1.627l8.569-6.134c.266-.19.611-.459 1.021-.563"/><path fill="#090404" d="M4 18.4V7.761a1 1 0 0 1 2 0v10.64c0 .296.001.458.01.574l.002.013.012.002c.117.01.28.01.576.01H12a1 1 0 0 1 0 2H6.6c-.264 0-.522 0-.739-.017a2 2 0 0 1-.77-.201 2 2 0 0 1-.873-.874 2 2 0 0 1-.201-.77C3.999 18.922 4 18.664 4 18.4"/><path fill="#090404" d="M13.5 12a1.5 1.5 0 1 0-3 0 1.5 1.5 0 0 0 3 0m2 0a3.5 3.5 0 1 1-7 0 3.5 3.5 0 0 1 7 0"/></svg>