<svg xmlns="http://www.w3.org/2000/svg" fill="none" viewBox="0 0 24 24"><path fill="#090404" d="M10 13v2h4v-2zm8 5.4V8.525L12.35 4.48a7 7 0 0 0-.343-.238L12 4.24l-.007.003a7 7 0 0 0-.342.238L6 8.525V18.4c0 .296 0 .458.01.575v.013l.014.002c.116.01.278.01.575.01H8a1 1 0 1 1 0 2H6.6c-.264 0-.522 0-.739-.017a2 2 0 0 1-.769-.201 2 2 0 0 1-.874-.875 2 2 0 0 1-.201-.769C3.999 18.921 4 18.663 4 18.4V9.956l-.918.659a1 1 0 0 1-1.164-1.627l8.569-6.134c.266-.19.611-.459 1.021-.563.282-.071.577-.08.862-.027l.122.027.15.046c.345.124.639.35.872.517l8.568 6.134a1 1 0 0 1-1.164 1.627L20 9.956V18.4c0 .263.001.521-.016.738a2 2 0 0 1-.202.77 2 2 0 0 1-.874.874 2 2 0 0 1-.77.2c-.216.018-.474.018-.737.018H16a1 1 0 0 1 0-2h1.4c.296 0 .458 0 .575-.01l.012-.002.001-.013c.01-.117.011-.28.011-.575M16 15a2 2 0 0 1-2 2h-1v3a1 1 0 0 1-2 0v-3h-1a2 2 0 0 1-2-2v-2c0-.74.403-1.385 1-1.731V10a1 1 0 0 1 2 0v1h2v-1a1 1 0 1 1 2 0v1.269c.598.346 1 .991 1 1.731z"/></svg>