<svg xmlns="http://www.w3.org/2000/svg" fill="none" viewBox="0 0 24 24"><path fill="#090404" d="M5 7v1h14V7zm16 1a2 2 0 0 1-2 2H5a2 2 0 0 1-2-2V7a2 2 0 0 1 2-2h14a2 2 0 0 1 2 2z"/><path fill="#090404" d="M16.382 2a2 2 0 0 1 1.79 1.105l.723 1.448a1 1 0 0 1-1.79.894L16.383 4H7.618l-.723 1.447a1 1 0 0 1-1.79-.894l.724-1.448A2 2 0 0 1 7.62 2z"/><path fill="#090404" d="M19.1 8.505a1 1 0 0 1 .895 1.096L18.92 20.202A2 2 0 0 1 16.93 22H7.07a2 2 0 0 1-1.99-1.798L4.005 9.601a1 1 0 0 1 1.99-.202L7.071 20h9.859l1.075-10.6a1 1 0 0 1 1.096-.895"/></svg>