<svg xmlns="http://www.w3.org/2000/svg" fill="none" viewBox="0 0 24 24"><path fill="#090404" d="M14.703 18.5H9.297a.797.797 0 0 1-.797-.797c0-.712.472-1.338 1.156-1.533L12 15.5l2.344.67a1.594 1.594 0 0 1 1.156 1.533c0 .44-.357.797-.797.797"/><path fill="#090404" d="M19 2a1 1 0 1 1 0 2H5a1 1 0 0 1 0-2z"/><path fill="#090404" d="M19 20a1 1 0 1 1 0 2H5a1 1 0 1 1 0-2z"/><path fill="#090404" d="M5 8V3a1 1 0 0 1 2 0v5a3 3 0 0 0 3 3 1 1 0 1 1 0 2 5 5 0 0 1-5-5"/><path fill="#090404" d="M5 16v5a1 1 0 1 0 2 0v-5a3 3 0 0 1 3-3 1 1 0 1 0 0-2 5 5 0 0 0-5 5"/><path fill="#090404" d="M19 8V3a1 1 0 1 0-2 0v5a3 3 0 0 1-3 3 1 1 0 1 0 0 2 5 5 0 0 0 5-5"/><path fill="#090404" d="M19 16v5a1 1 0 1 1-2 0v-5a3 3 0 0 0-3-3 1 1 0 1 1 0-2 5 5 0 0 1 5 5"/></svg>