<svg xmlns="http://www.w3.org/2000/svg" fill="none" viewBox="0 0 24 24"><circle cx="7.223" cy="15.75" r="1" fill="#090404"/><path fill="#090404" d="M9.5 15.75a2.25 2.25 0 1 0-4.5 0 2.25 2.25 0 0 0 4.5 0m2 0a4.25 4.25 0 1 1-8.5 0 4.25 4.25 0 0 1 8.5 0"/><path fill="#090404" d="M7.094 18.086a1 1 0 0 1 .813 1.828l-4.5 2a1 1 0 0 1-.813-1.828z"/><path fill="#090404" d="M3.758 13.53a1 1 0 1 1 .484 1.94l-2 .5a1 1 0 1 1-.484-1.94z"/><path fill="#090404" d="M12.5 16.525V12a3 3 0 0 1 3-3h.18a2 2 0 0 1 1.962 1.607l.838 4.197a1 1 0 0 1-1.96.392L15.68 11h-.18a1 1 0 0 0-1 1v4.525c0 .815.66 1.475 1.475 1.475.486 0 .967.102 1.41.3l4.021 1.786a1 1 0 0 1-.812 1.828l-4.02-1.787a1.5 1.5 0 0 0-.6-.127 3.475 3.475 0 0 1-3.474-3.475"/><path fill="#090404" d="M13.5 10V5a3 3 0 0 1 3-3h.219a2 2 0 0 1 1.94 1.515l2.639 10.556 1.123.522a1 1 0 0 1-.842 1.814l-1.556-.722a1 1 0 0 1-.55-.665L16.72 4H16.5a1 1 0 0 0-1 1v5a1 1 0 1 1-2 0"/><path fill="#090404" d="M8.5 13V4H7.362L5.99 13.148a1 1 0 0 1-1.979-.296l1.373-9.149A2 2 0 0 1 7.362 2H8.5a2 2 0 0 1 2 2v9a1 1 0 0 1-2 0"/></svg>