<svg xmlns="http://www.w3.org/2000/svg" fill="none" viewBox="0 0 24 24"><path fill="#090404" d="M21 12.209a10 10 0 0 1-1.599.71C17.46 13.599 14.843 14 12 14s-5.46-.402-7.401-1.081A10 10 0 0 1 3 12.209V14.5c0 .066.037.271.424.592.38.315.992.644 1.836.94C6.938 16.617 9.32 17 12 17s5.062-.382 6.74-.969c.844-.295 1.455-.624 1.836-.94.387-.32.424-.525.424-.591zM21 9.5c0-.066-.037-.271-.424-.592-.38-.315-.992-.644-1.836-.94C17.062 7.383 14.68 7 12 7s-5.062.382-6.74.969c-.844.295-1.455.624-1.836.94-.387.32-.424.525-.424.591s.037.271.424.592c.38.315.992.644 1.836.94C6.938 11.617 9.32 12 12 12s5.062-.382 6.74-.969c.844-.295 1.455-.624 1.836-.94.387-.32.424-.525.424-.591m2 5c0 .9-.524 1.616-1.148 2.133-.631.522-1.485.948-2.45 1.286C17.46 18.599 14.842 19 12 19s-5.46-.402-7.401-1.081c-.966-.338-1.82-.764-2.45-1.286C1.523 16.116 1 15.4 1 14.5v-5c0-.9.524-1.616 1.148-2.133.632-.522 1.485-.948 2.45-1.286C6.54 5.401 9.158 5 12 5s5.46.402 7.401 1.081c.966.338 1.82.764 2.45 1.286C22.477 7.884 23 8.6 23 9.5z"/></svg>