<svg xmlns="http://www.w3.org/2000/svg" fill="none" viewBox="0 0 24 24"><path fill="#090404" d="M15.09 8.664a.5.5 0 0 1 .363.606l-.242.97a.5.5 0 0 1-.606.363l-1.03-.258a.5.5 0 0 1-.364-.606l.242-.969a.5.5 0 0 1 .606-.364zm-6.703-.63a.5.5 0 0 1-.139.693l-.832.555a.5.5 0 0 1-.693-.139l-.446-.668a.5.5 0 0 1 .14-.693l.831-.555a.5.5 0 0 1 .693.139zm10.084-.639a.5.5 0 0 1 .138.694l-.554.832a.5.5 0 0 1-.694.138l-.668-.445a.5.5 0 0 1-.138-.693l.554-.832a.5.5 0 0 1 .694-.14zm-5.915.057a.5.5 0 0 1-.224.67l-1.106.554a.5.5 0 0 1-.67-.224l-.448-.895a.5.5 0 0 1 .224-.67l1.106-.553a.5.5 0 0 1 .67.223z"/><path fill="#090404" d="M21 8.5c0-.189-.091-.47-.473-.83-.383-.363-.993-.736-1.828-1.07-1.664-.666-4.033-1.1-6.699-1.1s-5.035.434-6.7 1.1c-.834.334-1.444.707-1.827 1.07C3.09 8.03 3 8.31 3 8.5s.091.47.473.83c.383.363.993.736 1.828 1.07 1.664.666 4.033 1.1 6.699 1.1s5.035-.434 6.7-1.1c.834-.334 1.444-.707 1.827-1.07.381-.36.473-.641.473-.83m2 0c0 .916-.468 1.687-1.099 2.283-.628.595-1.484 1.084-2.459 1.474-1.954.782-4.586 1.243-7.442 1.243s-5.488-.461-7.442-1.243c-.975-.39-1.83-.88-2.46-1.474C1.469 10.187 1 9.416 1 8.5s.468-1.687 1.099-2.283c.628-.595 1.484-1.084 2.459-1.474C6.512 3.961 9.144 3.5 12 3.5s5.488.461 7.442 1.243c.975.39 1.83.88 2.46 1.474C22.531 6.813 23 7.584 23 8.5"/><path fill="#090404" d="M1 9.5v-1h2v1a9 9 0 1 0 18 0v-1h2v1c0 6.075-4.925 11-11 11S1 15.575 1 9.5"/></svg>