<svg xmlns="http://www.w3.org/2000/svg" fill="none" viewBox="0 0 24 24"><path fill="#090404" d="M13.141 7.069c.998-.237 1.876.144 1.99 1.05-.188.436-3.75 1.338-2.993 2.313 1.516.503 4.096-2.313 6-.428.702 2.253-6.144.43-6.744 2.104.55.478 4.36-.585 3.906 1.603-1.369 1.252-6.561-1.223-6.283.713.594 1.023 2.593.125 3.147 1.195.056.277.047.334-.077.587-.916 1.027-4.4-.11-5.93-.894-.24-.123-.307-.419-.173-.651.18-.313.312-.574.489-1.004-.38-.984-1.695-2.253-.447-3.549 1.124-1.167 1.479 2.66 1.938 2.744q.069-.039.133-.085c.863-.637-1.439-4.073.778-3.88 1.388.12.545 1.93 1.391 2.089 1.527-.82-.88-3.013 2.875-3.907"/><path fill="#090404" d="M17.953 13.838c1.294.714.048 3.454-1.215 3.137-2.308-.58-.385-4.038 1.215-3.138"/><path fill="#090404" d="M4 6v12h16V6zm18 12a2 2 0 0 1-2 2H4a2 2 0 0 1-2-2V6a2 2 0 0 1 2-2h16a2 2 0 0 1 2 2z"/></svg>