<svg xmlns="http://www.w3.org/2000/svg" fill="none" viewBox="0 0 24 24"><path fill="#090404" d="m19.24 3.185-.696-1.812a.582.582 0 0 0-1.088 0l-.697 1.812a1 1 0 0 1-.574.575l-1.812.696a.582.582 0 0 0 0 1.088l1.812.696a1 1 0 0 1 .575.575l.696 1.812a.582.582 0 0 0 1.088 0l.697-1.812a1 1 0 0 1 .574-.575l1.812-.696a.582.582 0 0 0 0-1.088l-1.812-.696a1 1 0 0 1-.575-.575"/><path fill="#090404" d="M13.5 10.5a1.5 1.5 0 1 0-3 0 1.5 1.5 0 0 0 3 0m2 0a3.5 3.5 0 1 1-7 0 3.5 3.5 0 0 1 7 0"/><path fill="#090404" d="M3 19V5a2 2 0 0 1 2-2h6a1 1 0 1 1 0 2H5v14h14v-7a1 1 0 1 1 2 0v7a2 2 0 0 1-2 2H5a2 2 0 0 1-2-2"/><path fill="#090404" d="M15 20a3 3 0 1 0-6 0 1 1 0 1 1-2 0 5 5 0 0 1 10 0 1 1 0 1 1-2 0"/></svg>