<svg xmlns="http://www.w3.org/2000/svg" fill="none" viewBox="0 0 24 24"><path fill="#090404" d="m7.08 3.77-.536-1.397a.582.582 0 0 0-1.088 0L4.92 3.77A2 2 0 0 1 3.77 4.92l-1.397.536a.582.582 0 0 0 0 1.088l1.397.537A2 2 0 0 1 4.92 8.23l.536 1.397a.582.582 0 0 0 1.088 0L7.08 8.23A2 2 0 0 1 8.23 7.08l1.397-.536a.582.582 0 0 0 0-1.088L8.23 4.92A2 2 0 0 1 7.08 3.77"/><path fill="#090404" d="M3.875 10.989a1 1 0 0 1 1.221.712c.134.508.399 1.039.761 1.625.375.607.773 1.15 1.215 1.817.805 1.216 1.709 2.758 1.415 4.522l-.006.03-.3 1.5a1 1 0 0 1-1.962-.39l.295-1.475c.15-.91-.29-1.845-1.11-3.082-.372-.562-.858-1.24-1.248-1.872-.404-.653-.786-1.379-.993-2.165a1 1 0 0 1 .712-1.222m7.659-8.98c1.936.065 3.413.49 4.515 1.272 1.116.791 1.739 1.87 2.11 3.022.14.429.44.771.928 1.1.513.347 1.113.602 1.813.932.873.413 1.098 1.502.548 2.236l-.84 1.119c.511 1.672.656 2.944.443 3.936-.257 1.197-.995 1.837-1.768 2.221a9 9 0 0 1-1.046.413c-.333.114-.596.202-.831.312-.422.196-.634.397-.734.788l-.457 1.877a1 1 0 0 1-1.943-.474l.46-1.888.003-.011c.298-1.165 1.073-1.756 1.828-2.107.353-.164.728-.288 1.03-.39.323-.11.579-.2.801-.31.389-.193.606-.405.702-.851.12-.556.064-1.565-.545-3.39a1 1 0 0 1 .15-.916l.77-1.027c-.486-.228-1.027-.49-1.504-.812-.704-.475-1.387-1.142-1.71-2.144-.28-.869-.697-1.53-1.365-2.004-.68-.483-1.732-.85-3.425-.906a1 1 0 1 1 .067-1.998"/></svg>