<svg xmlns="http://www.w3.org/2000/svg" fill="none" viewBox="0 0 24 24"><path fill="#090404" d="M13.256 9.595 12.61 7.92a.655.655 0 0 0-1.223 0l-.644 1.675a2 2 0 0 1-1.149 1.15l-1.675.644a.655.655 0 0 0 0 1.223l1.675.644a2 2 0 0 1 1.15 1.149l.644 1.675a.655.655 0 0 0 1.223 0l.644-1.675a2 2 0 0 1 1.149-1.15l1.675-.644a.655.655 0 0 0 0-1.223l-1.675-.644a2 2 0 0 1-1.15-1.149"/><path fill="#090404" d="M19 14.25a1 1 0 1 1 2 0v1.799c0 .713-.38 1.372-.996 1.73l-1.502.871a1 1 0 1 1-1.004-1.73L19 16.05z"/><path fill="#090404" d="M3 16.049V14.25a1 1 0 1 1 2 0v1.799l1.502.872a1 1 0 1 1-1.004 1.73l-1.502-.872A2 2 0 0 1 3 16.05"/><path fill="#090404" d="M11 2.173a2 2 0 0 1 2 0l1.5.866a1 1 0 1 1-1 1.732L12 3.904l-1.5.867a1 1 0 0 1-1-1.732z"/><path fill="#090404" d="M19 9.75v-1.8l-1.502-.87a1 1 0 0 1 1.004-1.731l1.502.872A2 2 0 0 1 21 7.95v1.8a1 1 0 0 1-2 0"/><path fill="#090404" d="M13.5 19.23a1 1 0 0 1 1 1.732l-1.5.866a2 2 0 0 1-2 0l-1.5-.866a1 1 0 0 1 1-1.733l1.5.866z"/><path fill="#090404" d="M3 9.75v-1.8a2 2 0 0 1 .996-1.73l1.502-.871a1 1 0 0 1 1.004 1.73L5 7.95v1.8a1 1 0 0 1-2 0"/></svg>