<svg xmlns="http://www.w3.org/2000/svg" fill="none" viewBox="0 0 24 24"><path fill="#090404" d="m15.43 8.139-.522-1.359a.437.437 0 0 0-.816 0l-.522 1.359a.75.75 0 0 1-.431.43l-1.359.523a.437.437 0 0 0 0 .816l1.359.522a.75.75 0 0 1 .43.431l.523 1.359a.437.437 0 0 0 .816 0l.522-1.359a.75.75 0 0 1 .431-.43l1.359-.523a.437.437 0 0 0 0-.816l-1.359-.522a.75.75 0 0 1-.43-.431"/><path fill="#090404" d="M5 5v14h14V5zm16 14a2 2 0 0 1-2 2H5a2 2 0 0 1-2-2V5a2 2 0 0 1 2-2h14a2 2 0 0 1 2 2z"/><path fill="#090404" d="M6.586 12a2 2 0 0 1 2.828 0l7.293 7.293-1.414 1.414L8 13.414l-3.293 3.293-1.414-1.414z"/></svg>