<svg xmlns="http://www.w3.org/2000/svg" fill="none" viewBox="0 0 24 24"><path fill="#090404" d="m11.906 7.945-.43-1.118a.51.51 0 0 0-.952 0l-.43 1.118a2 2 0 0 1-1.149 1.15l-1.118.43a.51.51 0 0 0 0 .95l1.118.43a2 2 0 0 1 1.15 1.15l.43 1.118a.51.51 0 0 0 .95 0l.43-1.118a2 2 0 0 1 1.15-1.15l1.118-.43a.51.51 0 0 0 0-.95l-1.118-.43a2 2 0 0 1-1.15-1.15"/><path fill="#090404" d="M6 21v-4.733c0 .004.002.002-.004-.01a.2.2 0 0 0-.044-.05 8 8 0 1 1 13.04-6.553c.002.037.012.05.008.043l1.57 2.355a1.5 1.5 0 0 1-.348 2.032L19 15v1a3 3 0 0 1-3 3h-1v2a1 1 0 1 1-2 0v-2a2 2 0 0 1 2-2h1a1 1 0 0 0 1-1v-1a2 2 0 0 1 .8-1.6l.843-.633-1.307-1.96a2.1 2.1 0 0 1-.342-1.068 6 6 0 1 0-9.78 4.916c.456.37.786.945.786 1.612V21a1 1 0 1 1-2 0"/></svg>