<svg xmlns="http://www.w3.org/2000/svg" fill="none" viewBox="0 0 24 24"><path fill="#090404" d="M9.5 7.52a.25.25 0 0 1 .406-.195l.696.556a.25.25 0 0 0 .302.008l.95-.684a.25.25 0 0 1 .292 0l.95.684a.25.25 0 0 0 .302-.008l.696-.556a.25.25 0 0 1 .406.195v2.98a2.5 2.5 0 0 1-5 0z"/><path fill="#090404" d="M12.5 17H11a4 4 0 0 1-4-4l.296-.074a4 4 0 0 1 4.801 2.731z"/><path fill="#090404" d="M11.5 17h2.01A3.49 3.49 0 0 0 17 13.51a.66.66 0 0 0-.5-.635c-1.941-.485-3.952.633-4.527 2.55z"/><path fill="#090404" d="M5 5v14h14V5zm16 14a2 2 0 0 1-2 2H5a2 2 0 0 1-2-2V5a2 2 0 0 1 2-2h14a2 2 0 0 1 2 2z"/></svg>