<svg xmlns="http://www.w3.org/2000/svg" fill="none" viewBox="0 0 24 24"><path fill="#090404" d="m19.24 4.185-.696-1.812a.582.582 0 0 0-1.088 0l-.697 1.812a1 1 0 0 1-.574.575l-1.812.696a.582.582 0 0 0 0 1.088l1.812.696a1 1 0 0 1 .575.575l.696 1.812a.582.582 0 0 0 1.088 0l.697-1.812a1 1 0 0 1 .574-.575l1.812-.696a.582.582 0 0 0 0-1.088l-1.812-.696a1 1 0 0 1-.575-.575"/><path fill="#090404" d="M6.586 12a2 2 0 0 1 2.828 0L12 14.586l.586-.586a2 2 0 0 1 2.828 0l.08.079.077.077.154.154.318.319.019.017c.04.04-.023-.021.017.019l.019.018.037.037c.039.038-.003-.002.036.037l.009.008.01.01c.024.023-.007-.006.017.018l.18.18.036.035.035.036.246.246.009.008.008.008.087.087c.015.016.02.02.035.034.023.023-.006-.005.016.018l.46.46.035.033.067.068.033.034.033.033.018.017.008.008.067.068.009.008.008.008.058.059.018.017.017.017.016.017.009.008.008.008.016.017.018.017.066.067.035.033.033.034.1.1c.015.016.003.003.018.017l.008.01.347.347c.06.06.008.007.069.067l.008.01.198.197.14.14.016.017.114.114.01.009.07.071.072.071.144.144.146.146.037.037.037.037.037.037.009.01.01.008.008.01.047.047.01.009.009.01.403.403a1 1 0 0 1-1.414 1.414l-.02-.02-.01-.01-.03-.029-.008-.01-.391-.39c-.05-.05.03.031-.02-.019l-.008-.01-.01-.008-.009-.01-.01-.009-.008-.01-.01-.008c-.05-.05.012.011-.036-.038l-.328-.327-.283-.282-.138-.14-.036-.034-.007-.008-.035-.036-.01-.008-.007-.008-.043-.043-.07-.069-.007-.008-.009-.01c-.03-.03.013.014-.018-.016-.06-.06.027.026-.033-.034l-.347-.348-.01-.007c-.044-.045.03.027-.016-.018-.03-.03.013.013-.016-.017l-.01-.007-.007-.01-.269-.268c-.03-.03.013.014-.017-.016l-.017-.018-.016-.017-.01-.007-.007-.01-.016-.016-.018-.016-.008-.01-.058-.058-.018-.016-.008-.01-.025-.024-.01-.008-.007-.01c-.03-.03-.004-.002-.034-.032l-.27-.27-.213-.215-.01-.008-.016-.017-.052-.052-.017-.017-.017-.017-.035-.035-.009-.008-.008-.009-.052-.052-.01-.008-.007-.01-.246-.245-.036-.035-.009-.01-.009-.009-.035-.035-.018-.018-.018-.018-.162-.162-.01-.01-.009-.009-.018-.018c-.022-.021-.015-.015-.036-.037l-.028-.027-.01-.009-.008-.01-.046-.045-.01-.01-.009-.009-.15-.15-.037-.036c-.079-.079.003.002-.075-.077l-.155-.153-.077-.078-.079-.08-.586.587a2 2 0 0 1-2.828 0L8 13.414l-3.293 3.293a1 1 0 1 1-1.414-1.414z"/><path fill="#090404" d="M3 19V5a2 2 0 0 1 2-2h6a1 1 0 1 1 0 2H5v14h14v-6a1 1 0 1 1 2 0v6a2 2 0 0 1-2 2H5a2 2 0 0 1-2-2"/></svg>