<svg xmlns="http://www.w3.org/2000/svg" fill="none" viewBox="0 0 24 24"><path fill="#090404" d="M5 5v14h14V5zm16 14a2 2 0 0 1-2 2H5a2 2 0 0 1-2-2V5a2 2 0 0 1 2-2h14a2 2 0 0 1 2 2z"/><path fill="#090404" d="M6.29 11.25a3 3 0 0 1 3.862.455c1.469 1.581 2.942 2.749 4.848 2.749 1.849 0 3.047-.654 4.293-1.9l1.414 1.414c-1.529 1.529-3.21 2.486-5.707 2.486-2.81 0-4.796-1.755-6.312-3.389a1 1 0 0 0-1.273-.16L4.599 15.01 3.4 13.41l2.845-2.13z"/><path fill="#090404" d="M16 9a1 1 0 1 0-2 0 1 1 0 0 0 2 0m2 0a3 3 0 1 1-6 0 3 3 0 0 1 6 0"/></svg>