<svg xmlns="http://www.w3.org/2000/svg" fill="none" viewBox="0 0 24 24"><path fill="#090404" d="M16.417 9.012c1.342-.111 2.45.803 3.324 2.031.902 1.27 1.761 3.15 2.579 5.61.104.312.206.613.265.871.063.271.106.603.015.964a2.02 2.02 0 0 1-.864 1.198c-.318.203-.653.265-.93.29-.268.026-.592.024-.932.024H4.054c-.318 0-.632.001-.894-.025a2 2 0 0 1-.918-.3 2.06 2.06 0 0 1-.858-1.239 2 2 0 0 1 .034-.94c.063-.249.17-.528.272-.802.342-.91.83-2.019 1.459-2.919.588-.841 1.513-1.803 2.79-1.803 1.242 0 2.264.672 2.972 1.14.392.259.693.463.986.615.286.147.472.192.603.192-.025 0 .121.005.51-.413.367-.394.729-.91 1.222-1.557.879-1.151 2.197-2.772 4.185-2.937m.165 1.993c-.989.082-1.812.916-2.76 2.158-.42.55-.892 1.217-1.347 1.705-.431.464-1.093 1.05-1.975 1.05-.583 0-1.1-.197-1.52-.414-.415-.214-.828-.497-1.172-.725-.765-.505-1.31-.807-1.87-.807-.22 0-.622.194-1.15.949-.487.697-.906 1.625-1.226 2.477a7 7 0 0 0-.206.586l.006.001c.138.014.332.015.691.015h15.82c.38 0 .594 0 .748-.015l.016-.003v-.01a9 9 0 0 0-.215-.689c-.793-2.384-1.577-4.048-2.311-5.08-.764-1.074-1.286-1.218-1.53-1.198M11 7a1.5 1.5 0 1 0-3 0 1.5 1.5 0 0 0 3 0m2 0a3.5 3.5 0 1 1-7 0 3.5 3.5 0 0 1 7 0"/></svg>