<svg xmlns="http://www.w3.org/2000/svg" fill="none" viewBox="0 0 24 24"><path fill="#090404" d="M17 8.5a1.5 1.5 0 1 1-3 0 1.5 1.5 0 0 1 3 0"/><path fill="#090404" d="M12 16a1 1 0 1 1 0 2H7a1 1 0 1 1 0-2z"/><path fill="#090404" d="M17 16a1 1 0 1 1 0 2h-2a1 1 0 1 1 0-2z"/><path fill="#090404" d="M16 8.5a.5.5 0 1 0-1 0 .5.5 0 0 0 1 0m2 0a2.5 2.5 0 1 1-5 0 2.5 2.5 0 0 1 5 0"/><path fill="#090404" d="M5 5v14h14V5zm16 14a2 2 0 0 1-2 2H5a2 2 0 0 1-2-2V5a2 2 0 0 1 2-2h14a2 2 0 0 1 2 2z"/><path fill="#090404" d="M6.586 8a2 2 0 0 1 2.828 0l5.043 5.043a1 1 0 1 1-1.414 1.414L8 9.414l-3.043 3.043a1 1 0 1 1-1.414-1.414z"/><path fill="#090404" d="M19.75 13a1 1 0 1 1 0 2H4.25a1 1 0 1 1 0-2z"/></svg>