<svg xmlns="http://www.w3.org/2000/svg" fill="none" viewBox="0 0 24 24"><path fill="#090404" d="M16.663 3.952a1 1 0 0 1 1.674 1.096l-6.552 10a1 1 0 0 1-1.6.099l-3.449-4.075a1 1 0 0 1 1.528-1.291l2.582 3.05z"/><path fill="#090404" d="M3 18.4V15a1 1 0 1 1 2 0v3.4c0 .297.001.46.01.576l.002.011.012.002c.117.01.28.011.576.011h12.8c.297 0 .46-.001.576-.01l.011-.003.002-.011c.01-.117.011-.28.011-.576V15a1 1 0 1 1 2 0v3.4c0 .264.001.522-.017.739a2 2 0 0 1-.2.77 2 2 0 0 1-.875.873 2 2 0 0 1-.77.201c-.216.018-.474.017-.738.017H5.6c-.264 0-.522.001-.739-.017a2 2 0 0 1-.77-.2 2 2 0 0 1-.873-.875 2 2 0 0 1-.201-.77C2.999 18.923 3 18.665 3 18.4"/></svg>