<svg xmlns="http://www.w3.org/2000/svg" fill="none" viewBox="0 0 24 24"><path fill="#090404" d="M4.37 4.224a1 1 0 0 1 1.337.069l3 3a1 1 0 1 1-1.414 1.414L5 6.414 2.707 8.707a1 1 0 1 1-1.414-1.414l3-3z"/><path fill="#090404" d="M15.293 15.293a1 1 0 0 1 1.414 0l3 3a1 1 0 0 1 0 1.414l-3 3a1 1 0 1 1-1.414-1.414L17.586 19l-2.293-2.293a1 1 0 0 1 0-1.414"/><path fill="#090404" d="M4 15V5a1 1 0 0 1 2 0v10a1 1 0 1 1-2 0"/><path fill="#090404" d="M19 18a1 1 0 1 1 0 2H9a1 1 0 1 1 0-2z"/><path fill="#090404" d="M13 4a1 1 0 1 1 0 2h-2a1 1 0 1 1 0-2z"/><path fill="#090404" d="M18 13v-2a1 1 0 1 1 2 0v2a1 1 0 1 1-2 0"/><path fill="#090404" d="M18 7V6h-1a1 1 0 1 1 0-2h1a2 2 0 0 1 2 2v1a1 1 0 1 1-2 0"/></svg>