<svg xmlns="http://www.w3.org/2000/svg" fill="none" viewBox="0 0 24 24"><path fill="#090404" d="M14.52 8.106a5.597 5.597 0 0 1 7.848 0 5.46 5.46 0 0 1 0 7.788 5.597 5.597 0 0 1-7.848 0L12 13.404l-2.52 2.489a5.597 5.597 0 0 1-7.848 0 5.46 5.46 0 0 1 0-7.788 5.597 5.597 0 0 1 7.848 0L12 10.594zM8.075 9.53a3.597 3.597 0 0 0-5.038 0 3.46 3.46 0 0 0 0 4.942 3.597 3.597 0 0 0 5.038 0L10.576 12zm12.888 0a3.597 3.597 0 0 0-5.038 0L13.423 12l2.502 2.472a3.597 3.597 0 0 0 5.038 0 3.46 3.46 0 0 0 0-4.942"/></svg>