<svg xmlns="http://www.w3.org/2000/svg" fill="none" viewBox="0 0 24 24"><path fill="#090404" d="M20 12a8 8 0 1 0-15.556 2.636 1.001 1.001 0 0 1-1.888.659A10 10 0 0 1 2 12C2 6.477 6.477 2 12 2s10 4.477 10 10a10 10 0 0 1-.556 3.295 1 1 0 1 1-1.888-.66c.287-.823.444-1.71.444-2.635"/><path fill="#090404" d="M10.256 10.57c.764-1.364 2.725-1.364 3.489 0l4.169 7.444c.986 1.761-.946 3.663-2.661 2.756l-.165-.096L12 18.689l-3.087 1.985c-1.752 1.126-3.844-.842-2.826-2.66zM7.83 18.99l3.088-1.984a2 2 0 0 1 2.163 0l3.087 1.984-4.17-7.444z"/></svg>