<svg xmlns="http://www.w3.org/2000/svg" fill="none" viewBox="0 0 24 24"><path fill="#090404" d="M17.293 2.293a1 1 0 0 1 1.414 0l3 3a1 1 0 1 1-1.414 1.414l-3-3a1 1 0 0 1 0-1.414"/><path fill="#090404" d="M18.793 3.793a1 1 0 1 1 1.414 1.414l-2.5 2.5a1 1 0 1 1-1.414-1.414z"/><path fill="#090404" d="M12.293 3.293a1 1 0 0 1 1.414 0l7 7a1 1 0 1 1-1.414 1.414l-7-7a1 1 0 0 1 0-1.414"/><path fill="#090404" d="M13.793 4.793a1 1 0 0 1 1.414 1.414L6.914 14.5 9.5 17.086l8.293-8.293a1 1 0 0 1 1.414 1.414L10.914 18.5a2 2 0 0 1-2.828 0L5.5 15.914a2 2 0 0 1 0-2.828z"/><path fill="#090404" d="M6.793 15.793a1 1 0 1 1 1.414 1.414l-4.5 4.5a1 1 0 1 1-1.414-1.414z"/></svg>