<svg xmlns="http://www.w3.org/2000/svg" fill="none" viewBox="0 0 24 24"><path fill="#090404" d="m12.354 6.146 1.792-1.792a.5.5 0 0 1 .708 0l1.792 1.792a.5.5 0 0 1 0 .708l-1.792 1.792a.5.5 0 0 1-.708 0l-1.792-1.792a.5.5 0 0 1 0-.708"/><circle cx="4" cy="18" r="2" fill="#090404"/><circle cx="9" cy="11" r="2" fill="#090404"/><circle cx="15" cy="16" r="2" fill="#090404"/><circle cx="20" cy="10" r="2" fill="#090404"/><circle cx="4.5" cy="8.5" r="1.5" fill="#090404"/><path fill="#090404" d="m20.77 10.64-5.641 6.768-5.941-4.95-4.374 6.123-1.626-1.162 5.625-7.877 6.06 5.049 4.36-5.232z"/></svg>