<svg xmlns="http://www.w3.org/2000/svg" fill="none" viewBox="0 0 24 24"><path fill="#090404" fill-rule="evenodd" d="M4.607 17.05c.426.607.925 1.16 1.487 1.642a19 19 0 0 1 2.948-.542 14 14 0 0 1-.316-1.1h.578q.143.558.312 1.045c.707-.06 1.406-.09 2.185-.09.778 0 1.55.035 2.296.102q.171-.492.317-1.058h.577q-.143.586-.32 1.116a19 19 0 0 1 2.925.552 9 9 0 0 0 1.514-1.668h.681c-1.677 2.617-4.607 4.355-7.932 4.355s-6.255-1.738-7.933-4.355zm7.193 1.517c-.665 0-1.325.027-1.968.078.579 1.396 1.315 2.236 2.026 2.236s1.445-.837 2.023-2.227a25 25 0 0 0-2.08-.087m-2.552.13c-.919.096-1.794.243-2.585.435 1.099.808 2.436 1.412 3.835 1.638-.449-.457-.903-1.186-1.25-2.072m5.217.012c-.345.88-.798 1.606-1.246 2.061 1.387-.224 2.714-.82 3.806-1.617a19 19 0 0 0-2.56-.444" clip-rule="evenodd"/><path fill="#090404" fill-rule="evenodd" d="M19.034 7.755c2.604 0 4.466 1.514 4.466 4.226s-1.86 4.227-4.466 4.227-4.466-1.516-4.466-4.227 1.861-4.226 4.466-4.226m-.023 1.92c-1.03 0-1.683.655-1.683 2.306 0 1.65.654 2.306 1.683 2.306s1.683-.657 1.683-2.306-.653-2.306-1.683-2.306" clip-rule="evenodd"/><path fill="#090404" d="M10.109 7.754c.55 0 1.1.058 1.823.145H13.9v2.452h-1.968v-.522c-.29-.154-.974-.319-1.688-.319-.917 0-1.274.271-1.274.618 0 1.438 5.248-.212 5.248 3.378 0 1.486-.993 2.701-3.974 2.701-.55 0-1.206-.057-1.93-.145H6.346v-2.45h1.968v.52c.29.155.965.32 1.737.32h.047c.988-.008 1.39-.238 1.39-.648 0-1.35-5.2.223-5.2-3.386 0-1.834 1.554-2.664 3.82-2.664"/><path fill="#090404" d="M5.758 9.943H4.436v4.11h1.322v2.026H.5v-2.025h1.322V9.943H.5V7.916h5.258z"/><path fill="#090404" fill-rule="evenodd" d="M11.859 2.591c3.325 0 6.254 1.738 7.932 4.355h-.68a9 9 0 0 0-1.488-1.643c-.898.245-1.891.428-2.947.543q.173.524.315 1.1h-.578q-.143-.56-.312-1.045c-.707.06-1.405.09-2.184.09s-1.55-.035-2.296-.102q-.172.49-.317 1.057h-.578q.143-.585.32-1.115a19 19 0 0 1-2.925-.552 9 9 0 0 0-1.514 1.667h-.68c1.677-2.617 4.606-4.355 7.932-4.355m0 .523c-.71 0-1.445.837-2.023 2.228a25.4 25.4 0 0 0 4.05.009c-.58-1.396-1.317-2.237-2.028-2.237m1.36.11c.45.46.904 1.188 1.25 2.074a20 20 0 0 0 2.585-.434c-1.099-.808-2.436-1.413-3.835-1.64m-2.72 0c-1.388.225-2.714.822-3.807 1.619a19 19 0 0 0 2.56.443c.346-.88.799-1.605 1.246-2.061" clip-rule="evenodd"/></svg>