<svg xmlns="http://www.w3.org/2000/svg" fill="none" viewBox="0 0 24 24"><path fill="#090404" fill-rule="evenodd" d="M7.161 3h9.678c.527 0 .982 0 1.356.03.395.033.789.104 1.167.297a3 3 0 0 1 1.311 1.311c.193.378.264.772.296 1.167.031.375.031.83.031 1.356v9.678c0 .527 0 .982-.03 1.356-.033.395-.104.789-.297 1.167a3 3 0 0 1-1.311 1.311c-.378.193-.772.264-1.167.296-.375.031-.83.031-1.356.031H7.16c-.527 0-.981 0-1.356-.03-.395-.033-.789-.104-1.167-.297a3 3 0 0 1-1.311-1.311c-.193-.378-.264-.772-.296-1.167A18 18 0 0 1 3 16.839V7.16c0-.527 0-.981.03-1.356.033-.395.104-.789.297-1.167a3 3 0 0 1 1.311-1.311c.378-.193.772-.264 1.167-.296C6.18 3 6.635 3 7.161 3M9.56 16.695v1.296c.252.045.54.063.837.063 1.368 0 2.232-.594 2.232-1.953v-4.563h-1.503v4.338c0 .648-.288.873-.918.873-.234 0-.396-.018-.648-.054m4.492-.828-.927 1.035c.531.738 1.701 1.197 2.772 1.197 1.431 0 2.61-.783 2.61-2.133 0-1.415-1.248-1.68-2.263-1.896l-.014-.003-.032-.007c-.807-.175-1.237-.269-1.237-.713 0-.414.396-.666.963-.666.684 0 1.215.324 1.611.828l.91-.99c-.478-.603-1.36-1.08-2.476-1.08-1.377 0-2.475.792-2.475 2.061 0 1.296 1.044 1.611 1.998 1.818l.236.051c.833.18 1.294.28 1.294.75 0 .486-.44.738-1.062.738-.693 0-1.404-.342-1.908-.99" clip-rule="evenodd"/></svg>