<svg xmlns="http://www.w3.org/2000/svg" fill="none" viewBox="0 0 24 24"><path fill="#090404" d="M13.716 0c.503.51.817 1.062.827 1.815.014.99-.517 2.373-2.61 4.016-1.277 1.014-1.654 1.84-1.625 2.557.03.727.478 1.372.94 2.033l.003.005c.267.38.536.765.711 1.164l-.155.112c-.978-.875-1.83-1.709-2.316-2.509-.243-.4-.398-.799-.426-1.195-.03-.397.07-.786.321-1.164.478-.723 1.232-1.318 1.977-1.907l.008-.006c.755-.597 1.502-1.189 1.993-1.91.641-.942.62-1.951.352-3.011"/><path fill="#090404" d="M13.08 11.01c-.019-.232-.117-.49-.353-.76-.856-.986-1.065-1.856-.867-2.607.195-.744.783-1.344 1.46-1.81.68-.469 1.463-.812 2.075-1.039a13 13 0 0 1 1.052-.336h.004l.002-.001.072.18c-1.064.614-1.823 1.122-2.348 1.56-.527.438-.812.8-.938 1.12-.124.315-.099.598.018.892.142.355.417.721.723 1.165.307.425.374.837.294 1.214-.08.374-.3.704-.551.975s-.54.49-.764.64a4 4 0 0 1-.386.234h-.003l-.106-.163.002-.001c.2-.17.369-.387.482-.622.091-.188.151-.406.132-.64"/><path fill="#090404" d="m8.706 14.078-.09-.171c-.438.147-.746.3-.934.456s-.278.338-.21.527c.063.171.246.308.484.419.244.112.57.208.956.282 2.265.432 4.677.096 6.863-.555-.416-.14-.812-.292-1.115-.628-1.846.375-3.65.468-5.522.284-.398-.04-.935-.213-.433-.613z"/><path fill="#090404" d="m18.068 17.991.102-.164c.27.122.45.28.454.485.018.952-2.466 1.238-3.024 1.337-2.464.436-6.22.582-10.335-.09-.378-.06-.649-.142-.826-.241-.177-.1-.283-.23-.275-.393.008-.15.113-.287.248-.404a2.6 2.6 0 0 1 .542-.34c.43-.21.977-.387 1.468-.477.487-.089.934-.11 1.182.063l.256.179c-.654 0-1.356.113-1.942.414-.152.078-.376.215-.118.325.5.217 1.333.37 2.347.466 1.01.095 2.191.132 3.38.119 2.383-.026 4.784-.25 5.921-.588.303-.093.485-.19.59-.276.136-.112.168-.28.034-.41l-.002-.002z"/><path fill="#090404" d="M9.563 11.759h-.002c-.526.129-1.055.274-1.555.48-.63.26-.436.447.207.53 1.02.136 3.038.102 4.927-.035a37 37 0 0 0 3.078-.41l.005-.001.056.186h-.001l-.005.003q-.158.07-.312.146c-2.232 1.09-4.955.998-7.388.86-1.023-.058-1.874-.18-2.34-.357-.54-.205-.49-.588 0-.83a7.9 7.9 0 0 1 2.332-.709c.322-.044.651-.074.977-.056h.005z"/><path fill="#090404" d="M18.462 12.75c.109.63-.349 1.578-2.267 2.571 0 0-.279.307-.348.376l.349-.09c1.298-.338 2.162-.81 2.684-1.324.524-.514.707-1.073.63-1.57-.216-1.401-2.463-1.92-3.111-.624.237-.119.42-.202.685-.26.572-.111 1.269.282 1.378.92"/><path fill="#090404" d="M16.363 20.053c-.675.125-1.386.22-2.107.288-2.518.239-5.086.203-7.584-.207 0 0 .414.348.848.47.434.123 1.172.261 2.396.33 2.79.181 6.676.022 8.54-.83.614-.28 1.041-.654 1.08-1.15l-.191-.04c-.093.159-.285.268-.438.354l-.002.002c-.404.229-1.157.527-2.542.783"/><path fill="#090404" d="m9.215 16.317-.006.003a1 1 0 0 0-.082.063c-.051.046-.087.092-.095.129a.05.05 0 0 0 .005.036.2.2 0 0 0 .074.063c.096.055.281.109.613.143h.002c1.592.203 2.44.172 4.191-.163.494.19.958.448 1.456.631l-.227.097c-2.032.869-4.33.843-5.727.486-.35-.09-.647-.2-.871-.326-.22-.123-.387-.27-.446-.44a.4.4 0 0 1 0-.269.6.6 0 0 1 .182-.242q.255-.219.853-.39z"/></svg>