<svg xmlns="http://www.w3.org/2000/svg" fill="none" viewBox="0 0 24 24"><path fill="#090404" d="M4 12a1 1 0 1 1 0 2H2a1 1 0 1 1 0-2z"/><path fill="#090404" d="M3.293 7.293a1 1 0 0 1 1.414 0l1.5 1.5a1 1 0 1 1-1.414 1.414l-1.5-1.5a1 1 0 0 1 0-1.414"/><path fill="#090404" d="M15.086 3.5a2 2 0 0 1 2.828 0L19 4.586a2 2 0 0 1 0 2.828L17.164 9.25l4.043 4.043a1 1 0 0 1-1.414 1.414l-4.043-4.043-1.836 1.836a2 2 0 0 1-2.828 0L10 11.414a2 2 0 0 1 0-2.828zM11.414 10l1.086 1.086L17.586 6 16.5 4.914z"/><path fill="#090404" d="M13.28 16a2 2 0 0 1 1.897 1.367L15.72 19H16a1 1 0 1 1 0 2H3a1 1 0 1 1 0-2h.28l.543-1.633A2 2 0 0 1 5.721 16zm-7.892 3h8.224l-.333-1H5.721z"/></svg>