<svg xmlns="http://www.w3.org/2000/svg" fill="none" viewBox="0 0 24 24"><path fill="#090404" d="M16 18a1 1 0 1 1 0 2H8a1 1 0 1 1 0-2z"/><path fill="#090404" d="M20 10V6h-4a1 1 0 1 1 0-2h5a1 1 0 0 1 1 1v5a1 1 0 1 1-2 0"/><path fill="#090404" d="M21.164 6.247c-4.477 3.98-7.705 7.755-8.168 12.844l-1.992-.182C11.54 13 15.313 8.773 19.836 4.753z"/><path fill="#090404" d="M11 19v-.088c0-2.754-1.04-5.51-2.713-7.562S4.381 8.033 2.011 8.06a1 1 0 1 1-.022-2c3.13-.034 5.898 1.633 7.849 4.026S13 15.677 13 18.912V19a1 1 0 0 1-2 0"/></svg>