<svg xmlns="http://www.w3.org/2000/svg" fill="none" viewBox="0 0 24 24"><path fill="#090404" d="M10.5 3a1 1 0 0 1 1 1v9a1 1 0 0 1-1 1h-3a1 1 0 0 1-1-1V4a1 1 0 0 1 1-1zm-2 9h1V5h-1z"/><path fill="#090404" d="M8 21v-8a1 1 0 1 1 2 0v8a1 1 0 1 1-2 0"/><path fill="#090404" d="M16.5 3a1 1 0 0 1 1 1v9a1 1 0 0 1-1 1h-3a1 1 0 0 1-1-1V4a1 1 0 0 1 1-1zm-2 9h1V5h-1z"/><path fill="#090404" d="M14 21v-8a1 1 0 1 1 2 0v8a1 1 0 1 1-2 0"/><path fill="#090404" d="M5 5v15h14V5zm16 15a2 2 0 0 1-2 2H5a2 2 0 0 1-2-2V5a2 2 0 0 1 2-2h14a2 2 0 0 1 2 2z"/></svg>