<svg xmlns="http://www.w3.org/2000/svg" fill="none" viewBox="0 0 24 24"><path fill="#090404" d="M6 7.5a.5.5 0 1 1 0-1 .5.5 0 0 1 0 1"/><path fill="#090404" d="M18 7.5a.5.5 0 1 1 0-1 .5.5 0 0 1 0 1"/><path fill="#090404" d="M14 7.5a.5.5 0 1 1 0-1 .5.5 0 0 1 0 1"/><path fill="#090404" d="M10 7.5a.5.5 0 1 1 0-1 .5.5 0 0 1 0 1"/><path fill="#090404" d="M6 11.5a.5.5 0 1 1 0-1 .5.5 0 0 1 0 1"/><path fill="#090404" d="M18 11.5a.5.5 0 1 1 0-1 .5.5 0 0 1 0 1"/><path fill="#090404" d="M13.293 18.293a1 1 0 1 1 1.414 1.414l-2 2a1 1 0 0 1-1.414 0l-2-2a1 1 0 1 1 1.414-1.414L12 19.586zM3 4v10h18V4zm11 6a1 1 0 1 1 0 2h-4a1 1 0 1 1 0-2zm9 4a2 2 0 0 1-2 2H3a2 2 0 0 1-2-2V4a2 2 0 0 1 2-2h18a2 2 0 0 1 2 2z"/><path fill="#090404" d="M6.5 11a.5.5 0 1 0-.6.49l.1.01a.5.5 0 0 0 .5-.5m12 0a.5.5 0 1 0-1 0 .5.5 0 0 0 1 0m-12-4a.5.5 0 1 0-.6.49l.1.01a.5.5 0 0 0 .5-.5m4 0a.5.5 0 1 0-1 0 .5.5 0 0 0 1 0m4 0a.5.5 0 1 0-1 0 .5.5 0 0 0 1 0m4 0a.5.5 0 1 0-1 0 .5.5 0 0 0 1 0M7.25 11a1.25 1.25 0 1 1-2.5 0 1.25 1.25 0 0 1 2.5 0m12 0a1.25 1.25 0 1 1-2.5 0 1.25 1.25 0 0 1 2.5 0m-12-4a1.25 1.25 0 0 1-2.493.128L4.75 7l.007-.128A1.25 1.25 0 0 1 7.25 7m4 0a1.25 1.25 0 0 1-2.493.128L8.75 7l.007-.128A1.25 1.25 0 0 1 11.25 7m4 0a1.25 1.25 0 0 1-2.493.128L12.75 7l.007-.128A1.25 1.25 0 0 1 15.25 7m4 0a1.25 1.25 0 0 1-2.493.128L16.75 7l.007-.128A1.25 1.25 0 0 1 19.25 7"/></svg>