<svg xmlns="http://www.w3.org/2000/svg" fill="none" viewBox="0 0 24 24"><path fill="#090404" d="M8.936 10.064a1.5 1.5 0 0 0-1.872 1.872 1.5 1.5 0 1 1 1.872-1.872"/><path fill="#090404" d="M11.936 7.064a1.5 1.5 0 0 0-1.872 1.872 1.5 1.5 0 1 1 1.872-1.872"/><path fill="#090404" d="M9.936 13.064a1.5 1.5 0 0 0-1.872 1.872 1.5 1.5 0 1 1 1.872-1.872"/><path fill="#090404" d="M12.936 10.064a1.5 1.5 0 0 0-1.872 1.872 1.5 1.5 0 1 1 1.872-1.872"/><path fill="#090404" d="M20 12a8 8 0 1 0-16 0 8 8 0 0 0 16 0m2 0c0 5.523-4.477 10-10 10S2 17.523 2 12 6.477 2 12 2s10 4.477 10 10"/></svg>