<svg xmlns="http://www.w3.org/2000/svg" fill="none" viewBox="0 0 24 24"><path fill="#090404" d="M18 17.299c0-.86-.472-1.774-1.267-2.79-.387-.494-.82-.975-1.261-1.458-.43-.472-.88-.96-1.253-1.426A1 1 0 0 1 14 11V8h-4v3a1 1 0 0 1-.219.625c-.372.466-.822.954-1.253 1.426-.44.483-.874.964-1.261 1.459C6.472 15.525 6 16.44 6 17.299A2.7 2.7 0 0 0 8.701 20H15.3A2.7 2.7 0 0 0 18 17.299m2 0A4.7 4.7 0 0 1 15.299 22H8.7A4.7 4.7 0 0 1 4 17.299c0-1.56.834-2.927 1.691-4.022a28 28 0 0 1 1.359-1.574c.353-.387.673-.736.95-1.063V7a1 1 0 0 1 1-1h6a1 1 0 0 1 1 1v3.64c.277.326.597.676.95 1.063.44.482.92 1.014 1.359 1.574C19.166 14.372 20 15.74 20 17.3"/><path fill="#090404" d="M9 6a1 1 0 0 1 0 2H8a1 1 0 0 1 0-2z"/><path fill="#090404" d="M16 6a1 1 0 1 1 0 2h-1a1 1 0 1 1 0-2z"/><path fill="#090404" d="M9.526 14.5c1.15.031 2.02.31 2.774.546.751.237 1.385.432 2.226.455.993.026 2.405-.183 3.3-.341a1 1 0 0 1 .348 1.97c-.894.157-2.484.402-3.7.37-1.15-.031-2.021-.31-2.774-.546-.752-.237-1.385-.432-2.227-.454-.993-.027-2.405.182-3.3.34a1 1 0 0 1-.347-1.97c.894-.157 2.484-.402 3.7-.37"/><path fill="#090404" d="M10.01 3a1 1 0 1 1 0 2H10a1 1 0 0 1 0-2z"/><path fill="#090404" d="M13.5 2a.5.5 0 1 0 0 1 .5.5 0 0 0 0-1m1.5.5a1.5 1.5 0 1 1-3 0 1.5 1.5 0 0 1 3 0"/><path fill="#090404" d="M13.599 1.5a1 1 0 0 1 0 2h-.2a1 1 0 0 1 0-2z"/></svg>