<svg xmlns="http://www.w3.org/2000/svg" fill="none" viewBox="0 0 24 24"><circle cx="8" cy="13.25" r="1.5" fill="#090404"/><circle cx="16" cy="13.25" r="1.5" fill="#090404"/><path fill="#090404" d="M7.793 1.793a1 1 0 0 1 1.414 0l1 1a1 1 0 1 1-1.414 1.414l-1-1a1 1 0 0 1 0-1.414"/><path fill="#090404" d="M16.207 1.793a1 1 0 0 0-1.414 0l-1 1a1 1 0 1 0 1.414 1.414l1-1a1 1 0 0 0 0-1.414"/><path fill="#090404" d="M19 14.09c0-3.278-2.572-6.063-6-6.523v6.53l2.75 5.863c2.088-1.054 3.25-3.216 3.25-5.87m-14 0c0 2.653 1.162 4.816 3.249 5.87L11 14.098v-6.53c-3.428.459-6 3.244-6 6.523m16 0c0 3.3-1.504 6.294-4.492 7.727-1.032.495-2.126-.062-2.542-.949L12 16.676l-1.966 4.192c-.416.887-1.51 1.444-2.542.95C4.504 20.383 3 17.39 3 14.09 3 9.297 7.08 5.5 12 5.5s9 3.797 9 8.59"/><path fill="#090404" d="M14.204 20.73a11 11 0 0 1-2.204.224 11 11 0 0 1-2.204-.224l.408-1.96a8.812 8.812 0 0 0 3.592 0z"/><path fill="#090404" d="M12 2a5 5 0 0 1 5 5h-2a3 3 0 1 0-6 0H7a5 5 0 0 1 5-5"/></svg>