<svg xmlns="http://www.w3.org/2000/svg" fill="none" viewBox="0 0 24 24"><path fill="#090404" d="M11 3a1 1 0 1 1 2 0v16h4a1 1 0 1 1 0 2H7a1 1 0 1 1 0-2h4z"/><path fill="#090404" d="M13.764 4c.31 0 .617.072.894.21l1.578.79H21a1 1 0 1 1 0 2h-4.764c-.31 0-.617-.072-.894-.21L13.764 6h-3.528l-1.578.79c-.277.138-.584.21-.894.21H3a1 1 0 0 1 0-2h4.764l1.578-.79c.277-.138.584-.21.894-.21z"/><path fill="#090404" d="M5.5 5a1 1 0 0 1 .948.684l2.74 8.22c.293.879-.05 1.955-1.018 2.382-1.802.796-3.539.796-5.34 0-.968-.427-1.312-1.503-1.019-2.383l2.74-8.22.062-.146A1 1 0 0 1 5.5 5m-1.778 9.491c1.226.52 2.329.52 3.554 0L5.5 9.161z"/><path fill="#090404" d="M18.5 5a1 1 0 0 1 .948.684l2.74 8.22c.293.879-.05 1.955-1.018 2.382-1.802.796-3.539.796-5.34 0-.968-.427-1.312-1.503-1.019-2.383l2.74-8.22.062-.146A1 1 0 0 1 18.5 5m-1.778 9.491c1.226.52 2.329.52 3.554 0L18.5 9.161z"/></svg>