<svg xmlns="http://www.w3.org/2000/svg" fill="none" viewBox="0 0 24 24"><path fill="#090404" d="M9.732 16.228c-.644 0-1.072-.376-1.072-.961 0-.293.088-.522.299-.797l3.72-4.916v-.047H9.575c-.574 0-.955-.317-.955-.867 0-.551.375-.868.955-.868h4.553c.662 0 1.078.387 1.078 1.002 0 .334-.152.551-.316.774l-3.686 4.898v.047h3.287c.58 0 .955.317.955.867 0 .551-.386.867-.955.867z"/><path fill="#090404" d="M20 12a8 8 0 1 0-16 0 8 8 0 0 0 16 0m2 0c0 5.523-4.477 10-10 10S2 17.523 2 12 6.477 2 12 2s10 4.477 10 10"/></svg>