<svg xmlns="http://www.w3.org/2000/svg" fill="none" viewBox="0 0 24 24"><path fill="#090404" d="M9.152 16.356c-.68 0-1.095-.386-1.095-1.025 0-.182.058-.445.152-.703l2.086-5.73c.31-.862.832-1.254 1.67-1.254.885 0 1.4.375 1.723 1.253l2.103 5.73c.1.276.14.475.14.698 0 .604-.45 1.031-1.077 1.031-.622 0-.944-.28-1.131-.972l-.288-.938h-2.894l-.287.903c-.205.715-.527 1.007-1.102 1.007m1.817-3.533h1.998l-.99-3.258h-.047z"/><path fill="#090404" d="M5 5v14h14V5zm16 14a2 2 0 0 1-2 2H5a2 2 0 0 1-2-2V5a2 2 0 0 1 2-2h14a2 2 0 0 1 2 2z"/></svg>