<svg xmlns="http://www.w3.org/2000/svg" fill="none" viewBox="0 0 24 24"><path fill="#090404" d="M9.152 16.129c-.68 0-1.095-.387-1.095-1.026 0-.181.058-.445.152-.703l2.086-5.73c.31-.861.832-1.254 1.67-1.254.885 0 1.4.375 1.723 1.254l2.103 5.73c.1.276.14.475.14.698 0 .603-.45 1.03-1.077 1.03-.622 0-.944-.28-1.131-.972l-.288-.937h-2.894l-.287.902c-.205.715-.527 1.008-1.102 1.008m1.817-3.533h1.998l-.99-3.258h-.047z"/><path fill="#090404" d="M20 12a8 8 0 1 0-16 0 8 8 0 0 0 16 0m2 0c0 5.523-4.477 10-10 10S2 17.523 2 12 6.477 2 12 2s10 4.477 10 10"/></svg>