<svg xmlns="http://www.w3.org/2000/svg" fill="none" viewBox="0 0 24 24"><path fill="#090404" d="M19 11.002h.001a.1.1 0 0 0-.02-.025.35.35 0 0 0-.176-.091c-.966-.198-1.728-.644-2.301-1.276-.561-.618-.9-1.368-1.111-2.122a8 8 0 0 1-.16-.69C14.3 7.525 13.133 7.869 12 7.869c-1.135 0-2.302-.344-3.233-1.071a8 8 0 0 1-.16.69c-.211.754-.55 1.504-1.11 2.122-.574.632-1.336 1.078-2.302 1.276a.35.35 0 0 0-.175.09.1.1 0 0 0-.021.027L5 11.002V19h14zM21 19a2 2 0 0 1-2 2H5a2 2 0 0 1-2-2v-8c0-1.15.921-1.896 1.795-2.074.564-.116.942-.355 1.22-.66q.432-.478.667-1.318C7.006 5.793 7 4.376 7 3a1 1 0 0 1 2 0c0 1.007.38 1.694.902 2.144.544.467 1.302.725 2.098.725s1.554-.258 2.098-.725C14.62 4.694 15 4.006 15 3a1 1 0 1 1 2 0c0 1.376-.006 2.793.318 3.948q.235.84.667 1.318c.278.305.656.544 1.22.66C20.08 9.104 21 9.849 21 11z"/><path fill="#090404" d="M20 15a1 1 0 1 1 0 2H4a1 1 0 1 1 0-2zm-6-4a1 1 0 1 1 0 2h-4a1 1 0 1 1 0-2z"/><path fill="#090404" d="M13 7v13h-2V7z"/></svg>