<svg xmlns="http://www.w3.org/2000/svg" fill="none" viewBox="0 0 24 24"><path fill="#090404" d="M2.18 12.139A1 1 0 1 1 2.8 14.04l-.951.31a1 1 0 0 1-.618-1.902zm18.38.642a1 1 0 0 1 1.26-.643l.951.31a1 1 0 1 1-.618 1.9l-.95-.308a1 1 0 0 1-.642-1.26M.588 6.29a1 1 0 0 1 1.26-.642l.95.31a1 1 0 1 1-.617 1.9l-.95-.308a1 1 0 0 1-.643-1.26m21.565-.641a1 1 0 1 1 .619 1.901l-.952.31a1 1 0 0 1-.618-1.903z"/><path fill="#090404" d="M18 10a6 6 0 1 0-9.092 5.144l.043.025c.592.35 1.049 1.001 1.049 1.789V19a2 2 0 1 0 4 0v-2.042c0-.788.457-1.439 1.049-1.79l.043-.024A6 6 0 0 0 18 10m2 0a8 8 0 0 1-3.876 6.856l-.058.035a.2.2 0 0 0-.06.055c-.008.014-.006.017-.006.012V19a4 4 0 0 1-8 0v-2.042c0 .005.002.002-.006-.012a.2.2 0 0 0-.06-.055l-.058-.035A8 8 0 1 1 20 10"/><path fill="#090404" d="M16 17v2H8v-2z"/></svg>