<svg xmlns="http://www.w3.org/2000/svg" fill="none" viewBox="0 0 24 24"><path fill="#090404" d="M18 12.004c0-1.095-.895-1.99-2-2h-.208a.156.156 0 0 0-.155.155q.002.072.054.122c.19.182.309.439.309.723V13.5a1 1 0 0 1-1 1H9.393c-.631 0-1.143.511-1.143 1.142 0 .74.433 1.38 1.059 1.678.218.104.441-.079.441-.32a.5.5 0 0 1 .5-.5H15a3 3 0 0 0 3-3z"/><path fill="#090404" d="M16 5.5H3.5v9H6v2H3.5a2 2 0 0 1-2-2v-9a2 2 0 0 1 2-2H16a2 2 0 0 1 2 2v3h-2z"/><path fill="#090404" d="M20.5 14A4.5 4.5 0 0 0 16 9.5h-4.5a4.5 4.5 0 1 0 0 9H16a4.5 4.5 0 0 0 4.5-4.5m2 0a6.5 6.5 0 0 1-6.5 6.5h-4.5a6.5 6.5 0 1 1 0-13H16a6.5 6.5 0 0 1 6.5 6.5"/></svg>