<svg xmlns="http://www.w3.org/2000/svg" fill="none" viewBox="0 0 24 24"><path fill="#090404" d="m18.55 13.732-.87-2.265a.728.728 0 0 0-1.36 0l-.87 2.265a1.25 1.25 0 0 1-.718.717l-2.265.871a.728.728 0 0 0 0 1.36l2.265.87c.33.127.59.388.717.718l.871 2.265a.728.728 0 0 0 1.36 0l.87-2.265a1.25 1.25 0 0 1 .718-.717l2.265-.871a.728.728 0 0 0 0-1.36l-2.265-.87a1.25 1.25 0 0 1-.717-.718"/><path fill="#090404" d="M7 17a1 1 0 1 1 0 2H4a1 1 0 1 1 0-2z"/><path fill="#090404" d="M9 11a1 1 0 1 1 0 2H4a1 1 0 1 1 0-2z"/><path fill="#090404" d="M20 5a1 1 0 1 1 0 2H4a1 1 0 0 1 0-2z"/></svg>