<svg xmlns="http://www.w3.org/2000/svg" fill="none" viewBox="0 0 24 24"><path fill="#090404" d="M2 12a9.99 9.99 0 0 1 4.443-8.316 1 1 0 0 1 1.114 1.662 8 8 0 1 0 5.333-1.298 1 1 0 0 1 .22-1.988C18.111 2.613 22 6.852 22 12c0 5.523-4.477 10-10 10S2 17.523 2 12"/><path fill="#090404" d="M5.5 12c0-.832.157-1.63.443-2.364a1 1 0 1 1 1.864.728 4.5 4.5 0 1 0 5.013-2.79 1 1 0 1 1 .36-1.967A6.502 6.502 0 0 1 12 18.5 6.5 6.5 0 0 1 5.5 12"/><path fill="#090404" d="M13 12a1 1 0 0 0-.501-.867 1 1 0 0 1 1.002-1.73A2.999 2.999 0 0 1 12 15a3 3 0 0 1-2.598-1.5 1 1 0 0 1 1.73-1.001 1 1 0 0 0 1.868-.5"/></svg>