<svg xmlns="http://www.w3.org/2000/svg" fill="none" viewBox="0 0 24 24"><path fill="#090404" d="M2 12a9.97 9.97 0 0 1 2.929-7.07 1 1 0 0 1 1.414 1.413A7.97 7.97 0 0 0 4 12c0 2.21.894 4.208 2.343 5.657a1 1 0 0 1-1.414 1.414A9.97 9.97 0 0 1 2 12m18 0c0-2.209-.894-4.208-2.343-5.657a1 1 0 1 1 1.414-1.414A9.97 9.97 0 0 1 22 12c0 2.761-1.12 5.262-2.929 7.07a1 1 0 1 1-1.414-1.413A7.97 7.97 0 0 0 20 12M6 12c0-1.656.673-3.158 1.758-4.243a1 1 0 0 1 1.414 1.414A3.99 3.99 0 0 0 8 12.001c0 1.104.447 2.103 1.172 2.828a1 1 0 0 1-1.414 1.413A5.98 5.98 0 0 1 6 12m10 0a3.99 3.99 0 0 0-1.172-2.829 1 1 0 0 1 1.414-1.414A5.99 5.99 0 0 1 18 12a5.98 5.98 0 0 1-1.758 4.243 1 1 0 0 1-1.414-1.414A3.99 3.99 0 0 0 16 12m-6 0a2 2 0 1 1 4 0 2 2 0 0 1-4 0"/></svg>