<svg xmlns="http://www.w3.org/2000/svg" fill="none" viewBox="0 0 24 24"><path fill="#090404" d="M10.602 11.269a1 1 0 0 1 .856 1.126c-.313 2.303-1.056 4.2-2.367 5.662-1.313 1.462-3.111 2.394-5.364 2.917a1 1 0 0 1-.454-1.949c1.97-.457 3.361-1.226 4.329-2.304.969-1.08 1.597-2.563 1.874-4.596a1 1 0 0 1 1.125-.857"/><path fill="#090404" d="M4.858 14.04a1 1 0 0 1 1.285.593c.851 2.309 2.482 3.71 5.297 4.395a1 1 0 0 1-.472 1.944c-3.365-.82-5.588-2.625-6.702-5.648a1 1 0 0 1 .592-1.284"/><path fill="#090404" d="M12 11a1 1 0 1 1 0 2H3a1 1 0 1 1 0-2z"/><path fill="#090404" d="M6.5 12v-1.5a1 1 0 0 1 2 0V12a1 1 0 1 1-2 0"/><path fill="#090404" d="M20 11V9a1 1 0 1 1 2 0v2a1 1 0 1 1-2 0"/><path fill="#090404" d="M16.5 16V4a1 1 0 1 1 2 0v12a1 1 0 1 1-2 0"/><path fill="#090404" d="M13 9V7a1 1 0 1 1 2 0v2a1 1 0 1 1-2 0"/><path fill="#090404" d="M9.5 7.5V5a1 1 0 0 1 2 0v2.5a1 1 0 1 1-2 0"/></svg>