<svg xmlns="http://www.w3.org/2000/svg" fill="none" viewBox="0 0 24 24"><path fill="#090404" d="m19.24 6.185-.696-1.812a.582.582 0 0 0-1.088 0l-.697 1.812a1 1 0 0 1-.574.575l-1.812.696a.582.582 0 0 0 0 1.088l1.812.696a1 1 0 0 1 .575.575l.696 1.812a.582.582 0 0 0 1.088 0l.697-1.812a1 1 0 0 1 .574-.575l1.812-.696a.582.582 0 0 0 0-1.088l-1.812-.696a1 1 0 0 1-.575-.575"/><path fill="#090404" d="M11 6a1 1 0 1 1 0 2H7a1 1 0 0 1 0-2z"/><path fill="#090404" d="M2 17.5v-11A3.5 3.5 0 0 1 5.5 3H7a1 1 0 0 1 1 1v11a1 1 0 1 1-2 0V5h-.5A1.5 1.5 0 0 0 4 6.5v11a1 1 0 1 1-2 0"/><path fill="#090404" d="M2 17.5A3.5 3.5 0 0 1 5.5 14H7a1 1 0 1 1 0 2H5.5a1.5 1.5 0 0 0 0 3H19v-4a1 1 0 1 1 2 0v4a2 2 0 0 1-2 2H5.5A3.5 3.5 0 0 1 2 17.5"/></svg>