<svg xmlns="http://www.w3.org/2000/svg" fill="none" viewBox="0 0 24 24"><path fill="#090404" d="M13.156 9.95q.086 0 .293.027.208.027.453.156.25.125.454.418a2 2 0 0 1-.114.086 1.34 1.34 0 0 0-.445.562q-.094.21-.094.504 0 .336.117.57.121.235.278.38a1.7 1.7 0 0 0 .414.277l-.102.277a2.6 2.6 0 0 1-.312.582 4 4 0 0 1-.414.512.7.7 0 0 1-.528.234.85.85 0 0 1-.34-.058 7 7 0 0 0-.273-.122.95.95 0 0 0-.379-.062q-.23 0-.387.063-.152.062-.293.124a.8.8 0 0 1-.324.063.67.67 0 0 1-.5-.227 5 5 0 0 1-.441-.543 3.7 3.7 0 0 1-.45-.914 3.4 3.4 0 0 1-.183-1.093q0-.59.223-.989.222-.402.57-.605.351-.207.726-.207.2 0 .375.066.177.063.329.13a.7.7 0 0 0 .28.066q.122 0 .282-.07a4 4 0 0 1 .36-.137 1.3 1.3 0 0 1 .425-.07m-.215-.497a1.3 1.3 0 0 1-.382.309.94.94 0 0 1-.438.12.4.4 0 0 1-.082-.007l-.008-.043a1.065 1.065 0 0 1 .098-.52q.101-.222.23-.367.165-.195.414-.324.25-.129.477-.137a.6.6 0 0 1 .012.121q0 .236-.09.457a1.5 1.5 0 0 1-.23.391"/><path fill="#090404" d="M19 8.8c0-.857 0-1.439-.037-1.889-.036-.438-.101-.663-.18-.82a2 2 0 0 0-.875-.873c-.156-.08-.38-.145-.82-.18C16.639 5 16.058 5 15.2 5H8.8c-.857 0-1.439 0-1.889.037-.438.036-.663.101-.82.18a2 2 0 0 0-.873.875c-.08.156-.145.38-.18.82C5 7.361 5 7.942 5 8.8v6.4c0 .857 0 1.439.037 1.889.036.438.101.663.18.82a2 2 0 0 0 .875.873c.156.08.38.145.82.18C7.361 19 7.942 19 8.8 19h6.4c.857 0 1.439 0 1.889-.037.438-.036.663-.101.82-.18a2 2 0 0 0 .873-.875c.08-.156.145-.38.18-.82.038-.45.038-1.031.038-1.888zm2 6.4c0 .824.001 1.502-.044 2.052-.046.562-.144 1.08-.392 1.564a4 4 0 0 1-1.748 1.749c-.485.247-1.002.345-1.564.391-.55.045-1.228.044-2.052.044H8.8c-.824 0-1.502.001-2.052-.044-.562-.046-1.08-.144-1.564-.392a4 4 0 0 1-1.748-1.748c-.248-.485-.346-1.002-.392-1.564C2.999 16.702 3 16.024 3 15.2V8.8c0-.824-.001-1.502.044-2.052.046-.562.144-1.08.392-1.564a4 4 0 0 1 1.748-1.748c.485-.248 1.002-.346 1.564-.392C7.298 2.999 7.976 3 8.8 3h6.4c.824 0 1.502-.001 2.052.044.562.046 1.08.144 1.564.392a4 4 0 0 1 1.749 1.748c.247.485.345 1.002.391 1.564.045.55.044 1.228.044 2.052z"/></svg>