<svg xmlns="http://www.w3.org/2000/svg" fill="none" viewBox="0 0 24 24"><path fill="#090404" d="M9.85 2.074a.5.5 0 0 0 .225-.223l.478-.957a.5.5 0 0 1 .894 0l.479.957a.5.5 0 0 0 .223.223l.957.479a.5.5 0 0 1 0 .894l-.957.478a.5.5 0 0 0-.223.224l-.479.956a.5.5 0 0 1-.894 0l-.479-.956a.5.5 0 0 0-.223-.224l-.957-.478a.5.5 0 0 1 0-.894z"/><path fill="#090404" d="M18.85 13.074a.5.5 0 0 0 .224-.223l.479-.957a.5.5 0 0 1 .894 0l.479.957a.5.5 0 0 0 .223.223l.957.479a.5.5 0 0 1 0 .894l-.957.478a.5.5 0 0 0-.224.224l-.478.957a.5.5 0 0 1-.894 0l-.479-.957a.5.5 0 0 0-.223-.224l-.957-.478a.5.5 0 0 1 0-.894z"/><path fill="#090404" d="M4.85 7.074a.5.5 0 0 0 .225-.223l.478-.957a.5.5 0 0 1 .894 0l.478.957a.5.5 0 0 0 .224.223l.957.479a.5.5 0 0 1 0 .894l-.957.478a.5.5 0 0 0-.224.224l-.478.957a.5.5 0 0 1-.894 0l-.478-.957a.5.5 0 0 0-.224-.224l-.957-.478a.5.5 0 0 1 0-.894z"/><path fill="#090404" d="m18.664 9.25-1.414 1.414-3.914-3.914 1.414-1.414z"/><path fill="#090404" d="M17.086 3a2 2 0 0 1 2.828 0L21 4.086a2 2 0 0 1 0 2.828L6.914 21a2 2 0 0 1-2.828 0L3 19.914a2 2 0 0 1 0-2.828zM4.414 18.5 5.5 19.586 19.586 5.5 18.5 4.414z"/></svg>