<svg xmlns="http://www.w3.org/2000/svg" fill="none" viewBox="0 0 24 24"><path fill="#090404" d="M10.683 11.903a1 1 0 1 1 1.414 1.414l-7.39 7.39a1 1 0 1 1-1.414-1.414z"/><path fill="#090404" d="M10.369 2.872a1 1 0 0 1 1.101.129l3.205 2.73 3.894-1.605a1 1 0 0 1 1.306 1.306l-1.607 3.891 2.73 3.206a1 1 0 0 1-.837 1.646l-4.2-.324-2.204 3.586a1 1 0 0 1-1.824-.289l-.99-4.092-4.092-.99a1 1 0 0 1-.288-1.823l3.586-2.206-.323-4.197a1 1 0 0 1 .543-.968m1.822 5.62c.029.374-.154.733-.474.93l-2.06 1.265 2.35.568a1 1 0 0 1 .738.737l.567 2.349 1.267-2.059.08-.113a1 1 0 0 1 .848-.36l2.41.186-1.567-1.84a1 1 0 0 1-.163-1.029l.922-2.235-2.235.921c-.346.143-.744.08-1.03-.163l-1.84-1.566z"/></svg>