<svg xmlns="http://www.w3.org/2000/svg" fill="none" viewBox="0 0 24 24"><path fill="#090404" d="m12.93 2.639-.522-1.359a.437.437 0 0 0-.816 0l-.522 1.359a.75.75 0 0 1-.431.43l-1.359.523a.437.437 0 0 0 0 .816l1.359.522a.75.75 0 0 1 .43.431l.523 1.359a.437.437 0 0 0 .816 0l.522-1.359a.75.75 0 0 1 .431-.43l1.359-.523a.437.437 0 0 0 0-.816l-1.359-.522a.75.75 0 0 1-.43-.431"/><path fill="#090404" d="M5.93 6.639 5.408 5.28a.437.437 0 0 0-.816 0L4.07 6.639a.75.75 0 0 1-.431.43l-1.359.523a.437.437 0 0 0 0 .816l1.359.522a.75.75 0 0 1 .43.431l.523 1.359a.437.437 0 0 0 .816 0l.522-1.359a.75.75 0 0 1 .431-.43l1.359-.523a.437.437 0 0 0 0-.816L6.361 7.07a.75.75 0 0 1-.43-.431"/><path fill="#090404" d="m19.93 6.639-.522-1.359a.437.437 0 0 0-.816 0l-.522 1.359a.75.75 0 0 1-.431.43l-1.359.523a.437.437 0 0 0 0 .816l1.359.522a.75.75 0 0 1 .43.431l.523 1.359a.437.437 0 0 0 .816 0l.522-1.359a.75.75 0 0 1 .431-.43l1.359-.523a.437.437 0 0 0 0-.816l-1.359-.522a.75.75 0 0 1-.43-.431"/><path fill="#090404" d="M14 22V12c0-.114-.07-.34-.434-.582C13.21 11.18 12.658 11 12 11c-.659 0-1.21.18-1.566.418-.364.243-.434.468-.434.582v10a1 1 0 1 1-2 0V12c0-.99.603-1.765 1.324-2.246C10.053 9.268 11.002 9 12 9s1.947.268 2.676.754C15.398 10.235 16 11.009 16 12v10a1 1 0 1 1-2 0"/><path fill="#090404" d="M14 12c0-.114-.07-.34-.434-.582C13.21 11.18 12.658 11 12 11c-.659 0-1.21.18-1.566.418-.364.243-.434.468-.434.582s.07.34.434.582c.357.238.908.418 1.566.418.659 0 1.21-.18 1.566-.418.364-.243.434-.468.434-.582m2 0c0 .99-.602 1.765-1.324 2.246-.729.486-1.678.754-2.676.754s-1.947-.268-2.676-.754C8.603 13.765 8 12.991 8 12c0-.99.603-1.765 1.324-2.246C10.053 9.268 11.002 9 12 9s1.947.268 2.676.754C15.398 10.235 16 11.009 16 12"/><path fill="#090404" d="M8 18a1 1 0 1 1 2 0c0 .114.07.34.434.582.357.238.908.418 1.566.418.659 0 1.21-.18 1.566-.418.364-.243.434-.468.434-.582a1 1 0 1 1 2 0c0 .99-.602 1.765-1.324 2.246-.729.486-1.678.754-2.676.754s-1.947-.268-2.676-.754C8.603 19.765 8 18.991 8 18"/></svg>