<svg xmlns="http://www.w3.org/2000/svg" fill="none" viewBox="0 0 24 24"><path fill="#090404" fill-rule="evenodd" d="M4 4a2 2 0 0 1 2-2h13a1 1 0 0 1 1 1v18a1 1 0 0 1-1 1H6a2 2 0 0 1-2-2zm2 12h12V4H6zm12 2H6v2h12z" clip-rule="evenodd"/><path fill="#090404" d="M12.185 7.408a.5.5 0 0 0 .223-.224l.645-1.29a.5.5 0 0 1 .894 0l.645 1.29a.5.5 0 0 0 .224.224l1.29.645a.5.5 0 0 1 0 .894l-1.29.645a.5.5 0 0 0-.224.224l-.645 1.29a.5.5 0 0 1-.894 0l-.645-1.29a.5.5 0 0 0-.223-.224l-1.29-.645a.5.5 0 0 1 0-.894z"/><path fill="#090404" d="M8.578 11.711a.3.3 0 0 0 .134-.134l.52-1.04a.3.3 0 0 1 .537 0l.52 1.04a.3.3 0 0 0 .134.134l1.04.52a.3.3 0 0 1 0 .537l-1.04.52a.3.3 0 0 0-.134.135l-.52 1.04a.3.3 0 0 1-.537 0l-.52-1.04a.3.3 0 0 0-.134-.134l-1.041-.52a.3.3 0 0 1 0-.537z"/></svg>