<svg xmlns="http://www.w3.org/2000/svg" fill="none" viewBox="0 0 24 24"><path fill="#090404" d="M13.362 15.693a.8.8 0 0 0-.379.667.77.77 0 0 0 .47.708 1.8 1.8 0 0 1-.24.496c-.15.216-.307.431-.545.431s-.3-.138-.574-.138c-.268 0-.363.143-.58.143-.219 0-.37-.2-.545-.445a2.15 2.15 0 0 1-.365-1.159c0-.68.442-1.041.877-1.041.232 0 .425.152.57.152.138 0 .354-.161.617-.161a.83.83 0 0 1 .694.347m-.819-.635a.78.78 0 0 0 .186-.488.3.3 0 0 0-.007-.07.784.784 0 0 0-.707.74q0 .03.006.063a.3.3 0 0 0 .048.005.68.68 0 0 0 .474-.25"/><path fill="#090404" d="M12 1.5c1.068 0 2.614-.01 3.877.63 2.023 1.027 2.335 2.897 2.454 4.378.267 3.325.158 6.651.077 9.9-.044 1.794-.238 3.433-1.276 4.562-1.062 1.154-2.754 1.52-5.03 1.53h-.205c-2.247-.01-3.932-.378-5-1.525-1.047-1.126-1.26-2.76-1.305-4.567-.08-3.249-.19-6.575.077-9.9.119-1.481.43-3.351 2.454-4.377C9.386 1.49 10.932 1.5 12 1.5m0 2c-1.174 0-2.212.03-2.973.415-1.006.51-1.252 1.36-1.364 2.753-.257 3.198-.153 6.408-.071 9.69.045 1.82.285 2.733.77 3.254.464.5 1.39.878 3.545.888h.186c2.195-.01 3.114-.391 3.567-.884.477-.518.703-1.426.748-3.258.081-3.283.186-6.492-.071-9.69-.112-1.392-.358-2.243-1.364-2.753-.762-.386-1.8-.415-2.973-.415"/></svg>