<svg xmlns="http://www.w3.org/2000/svg" fill="none" viewBox="0 0 24 24"><path fill="#090404" d="M11.5 15c2.335 0 4.295 1.6 4.846 3.764C16.687 20.106 15.51 21 14.5 21h-7c-1.012 0-2.187-.894-1.846-2.236l.056-.201A5 5 0 0 1 10.5 15zm-1 2a3 3 0 0 0-2.83 2h6.659a3 3 0 0 0-2.83-2z"/><path fill="#090404" d="M22 6c1.059 0 2.099.893 1.916 2.142-.38 2.587-2 4.801-4.02 6.347C17.88 16.034 15.355 17 13 17H8.491a4.492 4.492 0 1 1 .024-8.981l6.474.033c3.206-.043 4.064-.714 4.397-1.142.347-.446.94-.91 1.732-.91zM6 12.509A2.49 2.49 0 0 0 8.491 15H13c1.842 0 3.95-.773 5.68-2.099 1.685-1.29 2.907-3.022 3.231-4.901h-.793c.014 0 .01-.005-.02.012a.5.5 0 0 0-.133.126c-.91 1.17-2.571 1.87-5.951 1.915h-.019l-6.491-.034A2.49 2.49 0 0 0 6 12.509"/><path fill="#090404" d="M10 5V4a1 1 0 1 1 2 0v1a1 1 0 1 1-2 0"/><path fill="#090404" d="M14 9a3 3 0 1 0-6 0 1 1 0 0 1-2 0 5 5 0 0 1 10 0 1 1 0 1 1-2 0"/><path fill="#090404" d="M4 12.5V11a1 1 0 1 0-2 0c0 .245.047.415.118.56a1 1 0 0 1-1.797.88C.112 12.01 0 11.54 0 11a3 3 0 0 1 6 0v1.5a1 1 0 1 1-2 0"/></svg>