<svg xmlns="http://www.w3.org/2000/svg" fill="none" viewBox="0 0 24 24"><path fill="#090404" d="M3.755 11.528a3.25 3.25 0 0 1 4.097 1.769 2 2 0 0 1 2.077 1.305 4 4 0 1 1-7.517 2.736l-.599-1.645a3.25 3.25 0 0 1 1.942-4.165m12.391 1.769a3.25 3.25 0 0 1 6.04 2.396l-.599 1.645a4 4 0 0 1-7.517-2.736 2 2 0 0 1 2.076-1.305m-10.105.857a1.25 1.25 0 1 0-2.348.856l.598 1.644a2 2 0 0 0 3.76-1.368l-.47.171a1 1 0 0 1-1.283-.598zm13.518-.747a1.25 1.25 0 0 0-1.602.747l-.256.705a1 1 0 0 1-1.282.598l-.47-.17a2 2 0 0 0 3.76 1.367l.597-1.644a1.25 1.25 0 0 0-.747-1.603M12 6a6 6 0 0 1 5.154 2.925 1 1 0 0 1-1.717 1.026A4 4 0 0 0 11.999 8c-1.458 0-2.736.78-3.436 1.951a1 1 0 1 1-1.717-1.026A6 6 0 0 1 12 6m0-3a9 9 0 0 1 8.04 4.951 1 1 0 0 1-1.786.9A7 7 0 0 0 12 5a7 7 0 0 0-6.253 3.852 1 1 0 0 1-1.786-.9A9 9 0 0 1 12 3"/></svg>