<svg xmlns="http://www.w3.org/2000/svg" fill="none" viewBox="0 0 24 24"><path fill="#090404" d="M4.755 5.158a.285.285 0 0 0-.51 0l-.653 1.306a.3.3 0 0 1-.128.128l-1.306.653a.285.285 0 0 0 0 .51l1.306.653q.084.044.128.128l.653 1.306c.105.21.405.21.51 0l.653-1.306a.3.3 0 0 1 .128-.128l1.306-.653a.285.285 0 0 0 0-.51l-1.306-.653a.3.3 0 0 1-.128-.128z"/><path fill="#090404" d="M9.264 2.163a.296.296 0 0 0-.528 0l-.48.96a.3.3 0 0 1-.133.133l-.96.48a.296.296 0 0 0 0 .528l.96.48a.3.3 0 0 1 .133.133l.48.96c.108.217.42.217.528 0l.48-.96a.3.3 0 0 1 .133-.133l.96-.48a.296.296 0 0 0 0-.528l-.96-.48a.3.3 0 0 1-.133-.133z"/><path fill="#090404" d="M18.755 15.158a.285.285 0 0 0-.51 0l-.653 1.306a.3.3 0 0 1-.128.128l-1.306.653a.285.285 0 0 0 0 .51l1.306.653q.084.044.128.128l.653 1.306c.105.21.405.21.51 0l.653-1.306a.3.3 0 0 1 .128-.128l1.306-.653a.285.285 0 0 0 0-.51l-1.306-.653a.3.3 0 0 1-.128-.128z"/><path fill="#090404" d="M15.086 3.5a2 2 0 0 1 2.828 0L20.5 6.086a2 2 0 0 1 .138 2.676l-.138.152L9 20.414A2 2 0 0 1 7.586 21H4a1 1 0 0 1-1-1v-3.586A2 2 0 0 1 3.586 15zM5 19h2.586l11.5-11.5L16.5 4.914 5 16.414z"/></svg>