<svg xmlns="http://www.w3.org/2000/svg" fill="none" viewBox="0 0 24 24"><path fill="#090404" d="M20.002 3.998h-2.004v2.004h2.004V3.998M21.997 6A1.997 1.997 0 0 1 20 7.997h-2A1.997 1.997 0 0 1 16.003 6V4c0-1.103.894-1.997 1.997-1.997h2c1.103 0 1.997.894 1.997 1.997z"/><path fill="#090404" d="M9.295 4.81c.78-.78 2.044-.78 2.824 0l1.062 1.06c.78.78.78 2.044 0 2.824l-4.243 4.244a1.503 1.503 0 0 0 2.125 2.125l4.242-4.244c.78-.78 2.045-.78 2.825 0l1.06 1.061c.78.78.78 2.045 0 2.825l-4.242 4.243A6.98 6.98 0 0 1 10 20.998 6.998 6.998 0 0 1 5.052 9.052zm1.411 1.41-4.243 4.243a5.002 5.002 0 1 0 7.074 7.074l4.243-4.242.001-.002v.002-.004l-1.061-1.06-.002-.001-4.245 4.243a3.496 3.496 0 1 1-4.945-4.947l4.243-4.243v-.002L10.709 6.22l-.002-.001"/><path fill="#090404" d="m17.775 16.121-1.411 1.411-3.886-3.886 1.411-1.41z"/><path fill="#090404" d="m11.765 10.11-1.412 1.412-3.885-3.886 1.41-1.411z"/></svg>