<svg xmlns="http://www.w3.org/2000/svg" fill="none" viewBox="0 0 24 24"><path fill="#090404" d="m19.998 9.415-1.291 1.292a3.828 3.828 0 1 1-5.414-5.414l1.29-1.292L14.5 4a5.5 5.5 0 0 0-5.078 7.616 1 1 0 0 1-.216 1.092L3.914 18 6 20.086l5.292-5.292.113-.098a1 1 0 0 1 .979-.118A5.5 5.5 0 0 0 20 9.5zM22 9.5a7.5 7.5 0 0 1-9.744 7.157L7.414 21.5a2 2 0 0 1-2.828 0L2.5 19.414a2 2 0 0 1 0-2.828l4.842-4.843a7.5 7.5 0 0 1 9.627-9.327 1 1 0 0 1 .377 1.651l-2.64 2.64a1.829 1.829 0 0 0 2.587 2.586l2.64-2.64.095-.085a1 1 0 0 1 1.556.463c.27.775.416 1.606.416 2.469"/></svg>