<svg xmlns="http://www.w3.org/2000/svg" fill="none" viewBox="0 0 24 24"><path fill="#090404" d="M7.514 17.774a.4.4 0 0 1 .717-.062l.56.943a.4.4 0 0 0 .32.195l1.091.064a.4.4 0 0 1 .283.657l-.725.86a.4.4 0 0 0-.082.358l.281 1.092a.4.4 0 0 1-.545.467l-.994-.426a.4.4 0 0 0-.377.034l-.905.594a.4.4 0 0 1-.619-.366l.091-1.12a.4.4 0 0 0-.142-.34l-.86-.718a.4.4 0 0 1 .163-.695l1.07-.258a.4.4 0 0 0 .28-.247z"/><path fill="#090404" d="M14.767.712a.4.4 0 0 1 .717.062l.393 1.032a.4.4 0 0 0 .28.247l1.07.258a.4.4 0 0 1 .162.696l-.86.718a.4.4 0 0 0-.141.34l.09 1.119a.4.4 0 0 1-.618.366l-.905-.594a.4.4 0 0 0-.377-.034l-.994.426a.4.4 0 0 1-.545-.467l.28-1.092a.4.4 0 0 0-.08-.357l-.726-.861a.4.4 0 0 1 .283-.657l1.09-.064a.4.4 0 0 0 .32-.195z"/><path fill="#090404" d="M9.999 4.5a1.5 1.5 0 1 1-3 0 1.5 1.5 0 0 1 3 0"/><path fill="#090404" d="M16.999 19.5a1.5 1.5 0 1 1-3 0 1.5 1.5 0 0 1 3 0"/><path fill="#090404" d="m17.308 7.47 2.758.24a3.214 3.214 0 0 1-.56 6.404l-1.762-.154-.106 1.21a1 1 0 1 1-1.992-.175l.076-.875a4.319 4.319 0 0 1-8.014-1.38 3.2 3.2 0 0 1-2.04 1.278l-1.742.306.212 1.196a1.001 1.001 0 0 1-1.97.348l-1.153-6.54a1 1 0 0 1 .81-1.16l2.726-.48A3.214 3.214 0 0 1 8.18 9.902a4.32 4.32 0 0 1 7.856.642l.19-2.166.014-.102a1 1 0 0 1 1.07-.807m-5.345 2.2a2.321 2.321 0 1 0 .001 4.642 2.321 2.321 0 0 0-.002-4.642m-5.658.973A1.214 1.214 0 0 0 4.9 9.657l-1.742.307.423 2.391 1.74-.306c.66-.117 1.102-.746.985-1.406m11.613 1.324 1.761.155a1.214 1.214 0 0 0 .212-2.419L18.13 9.55z"/></svg>