<svg xmlns="http://www.w3.org/2000/svg" fill="none" viewBox="0 0 24 24"><path fill="#090404" d="M8.543.027a.897.897 0 0 0-.653 1.088c.084.335.162.621.234.884V2c.137.502.25.917.332 1.413a.897.897 0 1 0 1.77-.292c-.097-.586-.248-1.14-.399-1.697l-.004-.017q-.1-.36-.193-.727A.897.897 0 0 0 8.543.027"/><path fill="#090404" d="M4.105 3.838a.897.897 0 1 1 .79-1.61c.707.347 1.512.78 2.294 1.661a.897.897 0 1 1-1.342 1.19c-.549-.619-1.103-.927-1.742-1.24"/><path fill="#090404" fill-rule="evenodd" d="M16.178 5.517c.923.494 1.185 1.347 1.253 1.797.049.317.032.627-.02.941l-.287 1.14c-.055.28-.063.44-.06.524a.3.3 0 0 0 .016.103v.001c.012.029.04.09.147.252l.194.288q.134.195.263.392c.596.93.655 1.823.652 2.395v.025q.364.126.714.268c.09-.179.378-.639.92-.639.673 0 .948.946.948.946.265 1.762-.938 7.68-2.677 8.783-1.328.843-2.313-.41-3.044-2.336l-.523-.112c-.67-.146-1.58-.35-2.01-.492l-.03-.01-.031-.012c-.19-.07-.512-.15-1.045-.271l-.099-.023a23 23 0 0 1-1.561-.396c-.555-.168-1.241-.418-1.824-.825-.612-.427-1.307-1.181-1.346-2.312a5 5 0 0 1 .008-.488 2.6 2.6 0 0 1-.623-1.189 2.5 2.5 0 0 1 .029-1.221c.09-.34.239-.66.409-.965a12 12 0 0 1-1.086-.395c-.483-.206-1.168-.545-1.68-1.093-.73-.784-.948-1.91-.463-2.882.579-1.157 1.684-1.566 2.666-1.602.888-.032 1.832.217 2.678.513.77.27 1.874.774 2.811 1.212a14 14 0 0 1 1.101-1.54l.166-.173a3.3 3.3 0 0 1 1.974-.85c.464-.035 1.049-.004 1.46.246m2.348 9.786c-.075.23-.142.468-.21.707-.299 1.057-.597 2.11-1.485 2.425-.604.215-1.208.204-1.637.149a40 40 0 0 1-1.798-.446c-.513-.135-1.026-.27-1.545-.39h-.003c-1.261-.287-2.762-.629-3.192-1.4a.94.94 0 0 1-.12-.43c-.024-.709.224-1.344.224-1.344s-.385.001-.656-.26c-.61-.586-.038-1.513.432-1.983.113-.113.45-.355 1.089-.426a4.16 4.16 0 0 1 2.135.35c.597.264 1.01.87 1.182 1.598.084.355.1.7.063.982-.038.296-.123.445-.162.49-.048.055-.218.15-.691.05a3 3 0 0 1-.738-.258.897.897 0 0 0-.825 1.593h.001l.003.002c.372.192.779.33 1.187.417.588.125 1.677.22 2.415-.625.708-.812.728-2.07.492-3.065-.256-1.08-.934-2.264-2.2-2.825a5.95 5.95 0 0 0-3.062-.492c-.594.067-1.161.232-1.62.483l-.023-.006c-1.133-.324-3.388-.968-2.833-2.079.421-.842 1.574-.773 3.139-.224.832.292 2.09.883 3.102 1.359.35.164.933.434.933.434.665-.797.922-1.236 1.15-1.623a6.6 6.6 0 0 1 .55-.827c.529-.672 2.042-.981 1.819.209l-.285 1.128c-.271 1.329.03 1.768.525 2.492q.131.19.277.415c.395.616.377 1.208.362 1.691-.01.31-.018.577.086.775.215.408 1.017.661 1.543.827.157.05.288.094.376.127" clip-rule="evenodd"/><path fill="#090404" d="M12.436.88a.897.897 0 0 1 1.534.93 5.5 5.5 0 0 0-.734 2.117.897.897 0 0 1-1.779-.231 7.3 7.3 0 0 1 .98-2.816"/></svg>