<svg xmlns="http://www.w3.org/2000/svg" fill="none" viewBox="0 0 24 24"><path fill="#090404" d="M18.2 10.2a6.2 6.2 0 0 0-12.4 0c0 1.779.918 3.23 2.226 4.777.324.383.663.761 1.011 1.15.345.387.7.784 1.042 1.188.68.804 1.342 1.678 1.82 2.65-.002-.003 0 .004.018.015q.032.018.083.02c.04 0 .093-.024.125-.081.477-.954 1.127-1.813 1.796-2.605.341-.403.697-.8 1.042-1.186.348-.39.687-.768 1.01-1.151C17.283 13.43 18.2 11.979 18.2 10.2m2 0c0 2.529-1.333 4.453-2.7 6.069-.345.407-.702.806-1.047 1.192-.348.39-.685.766-1.005 1.145-.642.76-1.181 1.488-1.553 2.244l-.012.023-.013.022A2.15 2.15 0 0 1 12 22c-.748 0-1.523-.395-1.895-1.15-.372-.757-.912-1.485-1.554-2.245-.32-.378-.657-.755-1.005-1.144a58 58 0 0 1-1.047-1.192c-1.367-1.616-2.7-3.54-2.7-6.069a8.2 8.2 0 0 1 16.401 0"/><path fill="#090404" d="M14 10.2a2 2 0 1 0-4 0 2 2 0 0 0 4 0m2 0a4 4 0 1 1-8 0 4 4 0 0 1 8 0"/></svg>