<svg xmlns="http://www.w3.org/2000/svg" fill="none" viewBox="0 0 24 24"><path fill="#090404" d="M17.447 11.895a1 1 0 0 1-.894 0L17 11zM19 7a2 2 0 1 0-4 0c0 .836.507 1.587 1.176 2.2.292.268.588.482.824.637a6.6 6.6 0 0 0 .824-.637C18.494 8.587 19 7.836 19 7m2 0c0 1.664-.993 2.913-1.824 3.675a8.6 8.6 0 0 1-1.676 1.192l-.034.018-.018.009L17 11l-.448.895v-.001l-.018-.01-.034-.017-.117-.063a8.597 8.597 0 0 1-1.559-1.129C13.994 9.913 13 8.665 13 7a4 4 0 0 1 8 0"/><path fill="#090404" d="M2 17.5v-11A3.5 3.5 0 0 1 5.5 3H7a1 1 0 0 1 1 1v11a1 1 0 0 1-1 1H5.5A1.5 1.5 0 0 0 4 17.5a1 1 0 1 1-2 0m2-3.164A3.5 3.5 0 0 1 5.5 14H6V5h-.5A1.5 1.5 0 0 0 4 6.5z"/><path fill="#090404" d="M10 6a1 1 0 1 1 0 2H7a1 1 0 0 1 0-2z"/><path fill="#090404" d="M2 17.5a1 1 0 1 1 2 0A1.5 1.5 0 0 0 5.5 19H19v-5a1 1 0 1 1 2 0v5a2 2 0 0 1-2 2H5.5A3.5 3.5 0 0 1 2 17.5"/></svg>