<svg xmlns="http://www.w3.org/2000/svg" fill="none" viewBox="0 0 24 24"><path fill="#090404" d="M13.496 10a1.5 1.5 0 1 0-3 0 1.5 1.5 0 0 0 3 0m2 0a3.5 3.5 0 1 1-7 0 3.5 3.5 0 0 1 7 0"/><path fill="#090404" d="M18 10a6 6 0 0 0-12 0c0 2.101 1.043 4.182 2.387 5.97 1.297 1.727 2.793 3.073 3.613 3.753.82-.68 2.316-2.026 3.613-3.752C16.957 14.18 18 12.1 18 10m2 0c0 2.734-1.335 5.24-2.787 7.173-1.464 1.949-3.138 3.434-4.005 4.147a1.89 1.89 0 0 1-2.416 0c-.867-.713-2.54-2.198-4.005-4.147C5.335 15.24 4 12.733 4 10a8 8 0 1 1 16 0"/></svg>