<svg xmlns="http://www.w3.org/2000/svg" fill="none" viewBox="0 0 24 24"><path fill="#090404" d="M8.367 16.407c.41-.137.855-.137 1.266 0L15 18.196l5-1.666V5.637l-4.367 1.456c-.41.137-.855.137-1.266 0L9 5.304 4 6.971v10.892zM22 16.53a2 2 0 0 1-1.367 1.896l-5 1.667c-.41.137-.855.137-1.266 0L9 18.304 4.633 19.76A2 2 0 0 1 2 17.863V6.97a2 2 0 0 1 1.367-1.897l5-1.667c.41-.137.855-.137 1.266 0L15 5.196l4.367-1.456A2 2 0 0 1 22 5.637z"/><path fill="#090404" d="M8 17.25V4.75a1 1 0 0 1 2 0v12.5a1 1 0 1 1-2 0"/><path fill="#090404" d="M14 18.75V6.25a1 1 0 1 1 2 0v12.5a1 1 0 1 1-2 0"/></svg>