<svg xmlns="http://www.w3.org/2000/svg" fill="none" viewBox="0 0 24 24"><path fill="#090404" d="M20 12a8 8 0 1 0-16 0 8 8 0 0 0 16 0m2 0c0 5.523-4.477 10-10 10S2 17.523 2 12 6.477 2 12 2s10 4.477 10 10"/><path fill="#090404" d="m14 9.781-4 1V14H8V10.78a2 2 0 0 1 1.515-1.94l4-1A2 2 0 0 1 16 9.78V14h-2z"/><path fill="#090404" d="M15.265 13c.89 0 1.62.58 1.908 1.343.376.998.832 1.667 2.057 2.973l-1.46 1.368c-1.307-1.395-1.96-2.287-2.468-3.635a.1.1 0 0 0-.032-.045L15.263 15H8.737l-.007.004a.1.1 0 0 0-.032.045c-.508 1.348-1.161 2.24-2.469 3.635l-1.458-1.368c1.224-1.306 1.68-1.975 2.056-2.973C7.115 13.579 7.846 13 8.735 13z"/></svg>