<svg xmlns="http://www.w3.org/2000/svg" fill="none" viewBox="0 0 24 24"><path fill="#090404" d="M12.377 8.21a2 2 0 0 1 1.964-.51l2.684.768c.327.093.625.268.866.509l2.816 2.816a1 1 0 1 1-1.414 1.414l-2.817-2.816-2.685-.768-5.168 5.168.767 2.686 2.817 2.816a1 1 0 1 1-1.414 1.414l-2.817-2.816a2 2 0 0 1-.508-.865L6.7 15.34a2 2 0 0 1 .509-1.964z"/><path fill="#090404" d="M4.578 3.824c.138-1.699 2.203-2.457 3.409-1.252l5.22 5.22a1 1 0 1 1-1.414 1.415l-5.22-5.22-.539 6.633 2.173 2.173a1 1 0 1 1-1.414 1.414L4.62 12.034a2 2 0 0 1-.579-1.576z"/></svg>