<svg xmlns="http://www.w3.org/2000/svg" fill="none" viewBox="0 0 24 24"><path fill="#090404" d="M4 6v12h16V6zm18 12a2 2 0 0 1-2 2H4a2 2 0 0 1-2-2V6a2 2 0 0 1 2-2h16a2 2 0 0 1 2 2z"/><path fill="#090404" d="M15 10a1 1 0 1 1 2 0v1.884a1 1 0 0 1 1.14 1.635l-1.5 1.25A1 1 0 0 1 15 14z"/><path fill="#090404" d="M13.731 12.11a1 1 0 0 1 1.41-.129l1.5 1.25a1.001 1.001 0 0 1-1.282 1.537l-1.5-1.25a1 1 0 0 1-.128-1.409"/><path fill="#090404" d="M10.5 14v-1.774l-.586.521a1 1 0 0 1-1.328 0L8 12.226V14a1 1 0 1 1-2 0v-4a1 1 0 0 1 1.664-.747l1.586 1.41 1.586-1.41A1 1 0 0 1 12.5 10v4a1 1 0 1 1-2 0"/></svg>