<svg xmlns="http://www.w3.org/2000/svg" fill="none" viewBox="0 0 24 24"><path fill="#090404" d="M15.694 1.743a2 2 0 0 1 2.634.17l3.759 3.759a2 2 0 0 1 .17 2.633l-8.77 11.402a2 2 0 0 1-3 .195l-6.389-6.39a2 2 0 0 1 .195-3zM5.512 12.098l6.39 6.39 8.77-11.402-3.758-3.758z"/><path fill="#090404" d="M4.03 13.258a1 1 0 0 1 1.94.484c-.451 1.807-1.288 3.632-2.526 5.149a.14.14 0 0 0-.033.09q0 .015.003.018V19L5 20.586h.002l.008.001a.1.1 0 0 0 .054-.023c1.37-1.211 2.836-2.07 4.694-2.534a1 1 0 0 1 .485 1.94c-1.498.374-2.684 1.058-3.853 2.093-.778.689-2.012.73-2.804-.063L2 20.414c-.796-.796-.739-2.011-.105-2.788 1.026-1.256 1.744-2.804 2.135-4.368"/></svg>