<svg xmlns="http://www.w3.org/2000/svg" fill="none" viewBox="0 0 24 24"><path fill="#090404" d="M11 20v-7H4a1 1 0 1 1 0-2h7V4a1 1 0 1 1 2 0v7h7a1 1 0 1 1 0 2h-7v7a1 1 0 1 1-2 0"/><path fill="#090404" d="M20 4a1 1 0 1 1 0 2c-1.657 0-2.91.706-4.025 1.877-1.15 1.208-2.092 2.843-3.107 4.62-.985 1.722-2.044 3.588-3.393 5.005C8.09 18.956 6.343 20 4 20a1 1 0 1 1 0-2c1.657 0 2.91-.706 4.025-1.877 1.15-1.208 2.092-2.843 3.107-4.62.985-1.722 2.044-3.588 3.393-5.005C15.91 5.044 17.657 4 20 4"/><path fill="#090404" d="M6 9V7.414L4.793 6.207a1 1 0 1 1 1.414-1.414L7 5.586l.793-.793a1 1 0 1 1 1.414 1.414L8 7.414V9a1 1 0 1 1-2 0"/><path fill="#090404" d="M18.043 15.043a1 1 0 1 1 1.414 1.414l-.793.793.793.793a1 1 0 1 1-1.414 1.414l-.793-.793-.793.793a1 1 0 1 1-1.414-1.414l.793-.793-.793-.793a1 1 0 1 1 1.414-1.414l.793.793z"/></svg>