<svg xmlns="http://www.w3.org/2000/svg" fill="none" viewBox="0 0 24 24"><path fill="#090404" d="M7 5a1 1 0 0 1 .103 1.995l-.226.01a1.36 1.36 0 0 0-1.22 1.132L4.315 16.19A3.36 3.36 0 0 1 1 19a1 1 0 0 1-.103-1.995l.226-.01a1.36 1.36 0 0 0 1.22-1.132L3.685 7.81A3.36 3.36 0 0 1 7 5"/><path fill="#090404" d="M6.5 9.5a1 1 0 0 1 0 2h-4a1 1 0 1 1 0-2z"/><path fill="#090404" d="M10.067 6.64a1 1 0 0 1 1.866.72c-1.244 3.217-1.244 6.063 0 9.28a1 1 0 0 1-1.866.72c-1.423-3.68-1.423-7.04 0-10.72"/><path fill="#090404" d="M22.933 6.64a1 1 0 0 0-1.866.72c1.244 3.217 1.244 6.063 0 9.28a1 1 0 0 0 1.866.72c1.423-3.68 1.423-7.04 0-10.72"/><path fill="#090404" d="M17.719 8.875a1 1 0 0 1 1.562 1.25L17.781 12l1.5 1.875a1 1 0 0 1-1.562 1.25L16.5 13.602l-1.219 1.523a1 1 0 0 1-1.562-1.25l1.5-1.875-1.5-1.875a1 1 0 0 1 1.562-1.25L16.5 10.4z"/></svg>