<svg xmlns="http://www.w3.org/2000/svg" fill="none" viewBox="0 0 24 24"><path fill="#090404" d="M6 10V8H4a1 1 0 0 1 0-2h2V4a1 1 0 0 1 2 0v2h2a1 1 0 1 1 0 2H8v2a1 1 0 1 1-2 0"/><path fill="#090404" d="M8.793 13.793a1 1 0 1 1 1.414 1.414L8.414 17l1.793 1.793a1 1 0 1 1-1.414 1.414L7 18.414l-1.793 1.793a1 1 0 1 1-1.414-1.414L5.586 17l-1.793-1.793a1 1 0 1 1 1.414-1.414L7 15.586z"/><path fill="#090404" d="M20 6a1 1 0 1 1 0 2h-6a1 1 0 1 1 0-2z"/><path fill="#090404" d="M20 16a1 1 0 1 1 0 2h-6a1 1 0 1 1 0-2z"/><path fill="#090404" d="M17 12.9a1.1 1.1 0 1 1 0 2.2 1.1 1.1 0 0 1 0-2.2"/><path fill="#090404" d="M17 18.9a1.1 1.1 0 1 1 0 2.2 1.1 1.1 0 0 1 0-2.2"/></svg>