<svg xmlns="http://www.w3.org/2000/svg" fill="none" viewBox="0 0 24 24"><path fill="#090404" d="M6.769 18.82c3.738 0 6.768-3.051 6.768-6.815S10.507 5.19 6.77 5.19 0 8.24 0 12.005s3.03 6.815 6.769 6.815"/><path fill="#090404" d="M17.579 18.42c1.869 0 3.384-2.872 3.384-6.415 0-3.542-1.515-6.415-3.385-6.415s-3.384 2.873-3.384 6.415 1.515 6.415 3.384 6.415"/><path fill="#090404" d="M22.81 17.753c.657 0 1.19-2.573 1.19-5.748 0-3.174-.532-5.748-1.19-5.748s-1.19 2.574-1.19 5.748.532 5.748 1.19 5.748"/></svg>