<svg xmlns="http://www.w3.org/2000/svg" fill="none" viewBox="0 0 24 24"><path fill="#090404" d="M9.64 3.64a5.597 5.597 0 0 1 8.653 7.001 1 1 0 0 1-1.677-1.089 3.598 3.598 0 0 0-5.562-4.498l-6 6a3.595 3.595 0 0 0 4.498 5.562 1 1 0 0 1 1.089 1.677A5.597 5.597 0 0 1 3.639 9.64z"/><path fill="#090404" d="M6.793 6.793a1 1 0 0 1 1.414 0l3.5 3.5a1 1 0 1 1-1.414 1.414l-3.5-3.5a1 1 0 0 1 0-1.414"/><path fill="#090404" d="M20 15.5a4.5 4.5 0 1 0-9 0 4.5 4.5 0 0 0 9 0m2 0a6.5 6.5 0 1 1-13 0 6.5 6.5 0 0 1 13 0"/><path fill="#090404" d="M14.304 9.52a1 1 0 0 1 1.177.784l2 10a1 1 0 0 1-1.961.392l-2-10a1 1 0 0 1 .784-1.176"/></svg>