<svg xmlns="http://www.w3.org/2000/svg" fill="none" viewBox="0 0 24 24"><path fill="#090404" d="M20 9c0-.208-.096-.494-.452-.849-.36-.358-.932-.727-1.719-1.058C16.26 6.433 14.023 6 11.5 6s-4.76.432-6.33 1.093c-.786.33-1.358.7-1.718 1.058C3.096 8.506 3 8.792 3 9s.096.494.452.849c.36.358.932.727 1.719 1.058C6.74 11.567 8.977 12 11.5 12s4.76-.432 6.33-1.093c.786-.33 1.358-.7 1.718-1.058.356-.355.452-.641.452-.849m2 0c0 .897-.436 1.663-1.041 2.266-.601.598-1.421 1.091-2.354 1.484-1.869.787-4.382 1.25-7.105 1.25s-5.236-.463-7.105-1.25c-.933-.393-1.753-.886-2.354-1.484C1.436 10.663 1 9.896 1 9c0-.897.436-1.663 1.041-2.266.601-.598 1.421-1.091 2.354-1.484C6.264 4.463 8.776 4 11.5 4c2.723 0 5.236.463 7.105 1.25.933.393 1.753.886 2.354 1.484C21.564 7.337 22 8.104 22 9"/><path fill="#090404" d="M1 15V9h2v6c0 .208.096.494.452.849.36.358.932.727 1.719 1.058C6.74 17.567 8.977 18 11.5 18s4.76-.432 6.33-1.093c.786-.33 1.358-.7 1.718-1.058.356-.355.452-.641.452-.849V9h2v6c0 .897-.436 1.663-1.041 2.266-.601.598-1.421 1.091-2.354 1.484-1.869.787-4.382 1.25-7.105 1.25s-5.236-.463-7.105-1.25c-.933-.393-1.753-.886-2.354-1.484C1.436 16.663 1 15.896 1 15"/><path fill="#090404" d="m18.447 11.106-.894 1.789-12-6 .894-1.79z"/></svg>