<svg xmlns="http://www.w3.org/2000/svg" fill="none" viewBox="0 0 24 24"><path fill="#090404" d="M1.5 11.5A4.5 4.5 0 0 1 6 7h4a1 1 0 1 1 0 2H6a2.5 2.5 0 0 0 0 5h4a1 1 0 1 1 0 2H6a4.5 4.5 0 0 1-4.5-4.5"/><path fill="#090404" d="M20.5 11.5A1.5 1.5 0 0 0 19 10h-1a1 1 0 1 1 0-2h1a3.5 3.5 0 1 1 0 7h-1a1 1 0 1 1 0-2h1a1.5 1.5 0 0 0 1.5-1.5"/><path fill="#090404" d="M11 8.585v5.83l6 3.374V5.21zm8 10.06a1.5 1.5 0 0 1-2.235 1.307l-7-3.937A1.5 1.5 0 0 1 9 14.708V8.292a1.5 1.5 0 0 1 .765-1.307l7-3.937.19-.09A1.5 1.5 0 0 1 19 4.354z"/><path fill="#090404" d="M7 20v-5a1 1 0 1 1 2 0v5h2v-3.5a1 1 0 1 1 2 0V20a2 2 0 0 1-2 2H9a2 2 0 0 1-2-2"/></svg>