<svg xmlns="http://www.w3.org/2000/svg" fill="none" viewBox="0 0 24 24"><path fill="#090404" d="M19.998 11a2 2 0 0 0-2-2 1 1 0 0 1 0-2 4 4 0 1 1 0 8 1 1 0 0 1 0-2 2 2 0 0 0 2-2"/><path fill="#090404" d="M3.998 8.516v4.967l13 4.149V4.369zm15 9.116a2 2 0 0 1-2.607 1.905l-13-4.148a2 2 0 0 1-1.393-1.906V8.516a2 2 0 0 1 1.393-1.905l13-4.147a2 2 0 0 1 2.607 1.905z"/><path fill="#090404" d="M5.998 17v-1.5a1 1 0 1 1 2 0V17a2 2 0 0 0 3.887.667 1 1 0 0 1 1.886.666A4.002 4.002 0 0 1 5.998 17"/><path fill="#090404" d="M6.002 15.5v-9a1 1 0 0 1 2 0v9a1 1 0 1 1-2 0"/></svg>