<svg xmlns="http://www.w3.org/2000/svg" fill="none" viewBox="0 0 24 24"><path fill="#090404" d="M7 18a1 1 0 1 0-2 0 1 1 0 0 0 2 0m2 0a3 3 0 1 1-6 0 3 3 0 0 1 6 0"/><path fill="#090404" d="M19 18a1 1 0 1 0-2 0 1 1 0 0 0 2 0m2 0a3 3 0 1 1-6 0 3 3 0 0 1 6 0"/><path fill="#090404" d="M5 16v-4a1 1 0 1 1 2 0v4a1 1 0 1 1-2 0"/><path fill="#090404" d="M17 16V7h-5a1 1 0 1 1 0-2h5a2 2 0 0 1 2 2v9a1 1 0 1 1-2 0"/><path fill="#090404" d="M7.043 3.543a1 1 0 1 1 1.414 1.414L7.414 6l1.043 1.043a1 1 0 1 1-1.414 1.414L6 7.414 4.957 8.457a1 1 0 1 1-1.414-1.414L4.586 6 3.543 4.957a1 1 0 1 1 1.414-1.414L6 4.586z"/></svg>