<svg xmlns="http://www.w3.org/2000/svg" fill="none" viewBox="0 0 24 24"><path fill="#090404" d="M5 20.5V12a1 1 0 1 1 2 0v8.5a1 1 0 1 1-2 0"/><path fill="#090404" d="M17 15V7h-5a1 1 0 1 1 0-2h5a2 2 0 0 1 2 2v8a1 1 0 1 1-2 0"/><path fill="#090404" d="M20 18a2 2 0 1 0-4 0 2 2 0 0 0 4 0m2 0a4 4 0 1 1-8 0 4 4 0 0 1 8 0"/><path fill="#090404" d="M2.793 2.793a1 1 0 0 1 1.414 0l5 5a1 1 0 1 1-1.414 1.414l-5-5a1 1 0 0 1 0-1.414"/><path fill="#090404" d="M7.793 2.793a1 1 0 1 1 1.414 1.414l-5 5a1 1 0 1 1-1.414-1.414z"/></svg>