<svg xmlns="http://www.w3.org/2000/svg" fill="none" viewBox="0 0 24 24"><path fill="#090404" d="m17.24 5.185-.696-1.812a.582.582 0 0 0-1.088 0l-.697 1.812a1 1 0 0 1-.574.575l-1.812.696a.582.582 0 0 0 0 1.088l1.812.696a1 1 0 0 1 .574.575l.697 1.812a.582.582 0 0 0 1.088 0l.697-1.812a1 1 0 0 1 .574-.575l1.812-.696a.582.582 0 0 0 0-1.088l-1.812-.696a1 1 0 0 1-.575-.575"/><path fill="#090404" d="M11 21v-1.054c-3.553-.37-5.7-2.67-6.824-4.402a1 1 0 0 1 1.677-1.088C6.893 16.058 8.8 18 12 18s5.108-1.942 6.147-3.544a1 1 0 1 1 1.678 1.088C18.7 17.275 16.553 19.576 13 19.946V21a1 1 0 1 1-2 0"/><path fill="#090404" d="M7 11V7a5 5 0 0 1 3.751-4.843 1 1 0 0 1 .498 1.938A3 3 0 0 0 9 7v4a3 3 0 0 0 4.984 2.25 1 1 0 1 1 1.324 1.5A5 5 0 0 1 7 11"/></svg>