<svg xmlns="http://www.w3.org/2000/svg" fill="none" viewBox="0 0 24 24"><path fill="#090404" fill-rule="evenodd" d="M20.844 15.742a.421.421 0 0 1 .31.73c-1.173 1.064-2.663 2.01-4.449 2.888a.9.9 0 0 0 .39.092.95.95 0 0 0 .483-.138l.017-.01.003-.002.013-.008a3 3 0 0 0 .412-.306l.157-.13c.246-.205.382-.308.567-.414.285-.164.581-.252.905-.252s.62.088.905.252l.004.002.016.01c.176.102.312.205.548.402l.155.13c.096.08.17.138.234.185l.17.115.026.016.01.006h.002a.96.96 0 0 0 .47.142h.017a.422.422 0 0 1 .16.819.4.4 0 0 1-.16.021h-.005l-.007.001a1.8 1.8 0 0 1-.893-.252h-.001l-.083-.05-.016-.01-.03-.018-.017-.012a5 5 0 0 1-.438-.337l-.139-.117-.003-.002a3 3 0 0 0-.404-.3l-.014-.01-.016-.008-.01-.005a.95.95 0 0 0-.483-.14.95.95 0 0 0-.484.141l-.002.001-.013.006-.014.01a3 3 0 0 0-.413.307l-.138.116a5 5 0 0 1-.459.35l-.003.003-.02.012-.019.012-.003.003-.079.046a1.8 1.8 0 0 1-.907.254 1.8 1.8 0 0 1-.905-.252l-.083-.05h-.003l-.014-.01-.02-.012-.006-.004-.022-.014-.002-.002a4 4 0 0 1-.382-.292.4.4 0 0 1-.11-.09l-.082-.069-.003-.003a3 3 0 0 0-.403-.3l-.025-.015-.006-.003-.008-.005a.95.95 0 0 0-.485-.14.95.95 0 0 0-.481.14l-.016.009-.003.002-.016.007h.002a3 3 0 0 0-.412.307l-.138.116a5 5 0 0 1-.46.35l-.004.004-.02.013-.017.01-.004.003-.078.046a1.8 1.8 0 0 1-.907.254c-.324 0-.62-.088-.906-.252l-.083-.05-.016-.011-.02-.01-.007-.005-.017-.013h-.002a5 5 0 0 1-.443-.34l-.135-.115-.003-.002a3 3 0 0 0-.404-.3l-.017-.011-.016-.009-.006-.003a.95.95 0 0 0-.484-.14.95.95 0 0 0-.485.14v.001l-.016.01-.013.008a3 3 0 0 0-.412.306l-.137.114q-.219.19-.462.353l-.002.002-.019.012-.02.012-.002.003-.08.046c-.284.17-.61.257-.941.252h-.017a3.04 3.04 0 0 1-1.537-.635l-.195-.158-.03-.026-.001-.001c-.043-.037-.107-.096-.171-.155l-.172-.159h-.001l-.094-.087-.008-.008-.004-.004a1.2 1.2 0 0 0-.256-.194q-.01-.005-.02-.007a1.4 1.4 0 0 0-.24.074.4.4 0 0 1-.065.048l.001.002-.006.004-.011.006h-.001a.4.4 0 0 1-.124.038 5 5 0 0 0-.638.428l-.002.001-.363.285-.048.037a6 6 0 0 1-.29.211l-.002.002c-.275.186-.522.3-.784.3h-.009a.422.422 0 0 1-.014-.84h.023a.3.3 0 0 0 .094-.029 1.5 1.5 0 0 0 .206-.119l.035-.023c.065-.046.137-.1.228-.17l.336-.261.052-.041.001-.001q.284-.218.534-.376l-.49-.937a.42.42 0 0 1 .006-.4.42.42 0 0 1 .339-.213zM3.797 17.679l.206.395a2 2 0 0 1 .237-.056l.07-.007h.003a.9.9 0 0 1 .4.096c.116.055.222.127.339.224l.12.107.003.002.014.012.08.076.126.116.085.078c.056.052.107.098.135.122.405.349.782.543 1.273.607a.95.95 0 0 0 .448-.128l.006-.004.014-.008.015-.009.013-.008h.002c.113-.067.215-.143.41-.306l.156-.13c.246-.205.383-.308.569-.414.285-.163.58-.252.905-.252q.363.002.688.143l.216.109.003.002.018.01c.175.102.311.205.547.402l.155.129c.096.08.171.139.234.186l.171.115.003.002.014.01.016.008.005.003c.17.098.324.141.486.141a.95.95 0 0 0 .486-.14l.016-.01.013-.008a3 3 0 0 0 .413-.306l.155-.13.308-.244c.088-.065.17-.117.262-.17.285-.163.58-.252.904-.252s.619.089.904.252l.003.002.02.011.127.078c.104.07.207.15.345.263 1.414-.67 2.633-1.375 3.653-2.134z" clip-rule="evenodd"/><path fill="#090404" fill-rule="evenodd" d="M4.702 2.52h.009l.027.013h.001c2.139.914 4.445 2.573 6.304 4.614 2.032 2.23 3.442 4.797 3.995 7.531l.099.55a.42.42 0 0 1-.154.393.42.42 0 0 1-.418.062c-1.907-.768-3.69-1.051-5.36-.915l-.332.033c-1.31.15-2.528.56-3.668 1.187l-.483.28c-.399.248-.844-.246-.551-.616l.288-.384c1.385-1.93 1.922-4.064 1.73-6.33-.169-1.977-.89-3.984-1.977-5.804h-.001a.423.423 0 0 1 .27-.624.4.4 0 0 1 .221.01m.868 1.35c.79 1.595 1.314 3.298 1.458 4.997.177 2.081-.217 4.073-1.255 5.908a10.6 10.6 0 0 1 2.956-.804h.002l.046-.006.331-.033c1.602-.135 3.288.088 5.059.704-.543-2.465-1.83-4.8-3.684-6.855l-.061-.069C8.977 6.126 7.25 4.782 5.57 3.87" clip-rule="evenodd"/><path fill="#090404" fill-rule="evenodd" d="M9.95 5.396c-.395-.274-.096-.888.363-.748 1.592.486 3.462 1.873 5.124 3.756 1.748 1.98 3.132 4.348 3.835 6.688a.43.43 0 0 1-.114.426.42.42 0 0 1-.43.092l-.013-.005-.019-.009-.33-.132h-.002a9 9 0 0 0-.25-.097l-.013-.005c-.497-.18-.884-.23-1.388-.134l-.225.05a.42.42 0 0 1-.51-.296c-1.18-4.293-3.182-7.622-6.028-9.586m3.388 2.086c1.456 1.87 2.565 4.205 3.347 6.898a3.1 3.1 0 0 1 1.502.123c-.713-1.92-1.887-3.84-3.33-5.487l-.05-.057a17 17 0 0 0-1.47-1.477" clip-rule="evenodd"/></svg>