<svg xmlns="http://www.w3.org/2000/svg" fill="none" viewBox="0 0 24 24"><path fill="#090404" d="M11.051 2.793a3.564 3.564 0 0 1 5.04 0l.126.133a3.56 3.56 0 0 1 .881 2.893 3.56 3.56 0 0 1 2.897.88l.133.127.041.042.127.132a3.564 3.564 0 0 1-.127 4.908L12.878 19.2a.24.24 0 0 0 0 .336l1.497 1.497a.713.713 0 0 1-1.008 1.008l-1.497-1.498a1.663 1.663 0 0 1 0-2.351L19.16 10.9a2.14 2.14 0 0 0 .147-2.862l-.147-.163-.042-.041a2.14 2.14 0 0 0-3.024 0l-6.006 6.005c-.006.007-.014.01-.021.017l-.066.067a.713.713 0 0 1-1.008-1.008l6.09-6.09a2.139 2.139 0 0 0-3.025-3.024l-8.063 8.064a.713.713 0 0 1-1.008-1.008z"/><path fill="#090404" d="M13.076 4.81a.713.713 0 0 1 1.008 1.007L8.12 11.78a2.138 2.138 0 0 0 3.024 3.023l5.964-5.963a.713.713 0 0 1 1.008 1.008l-5.964 5.964a3.564 3.564 0 0 1-5.04-5.04z"/></svg>