<svg xmlns="http://www.w3.org/2000/svg" fill="none" viewBox="0 0 24 24"><path fill="#090404" d="M19 16c0-2.12-1.168-3.879-2.457-5.168A13 13 0 0 0 14.228 9H9.772a13.133 13.133 0 0 0-2.315 1.832C6.168 12.121 5 13.881 5 16c0 .832.203 1.45.518 1.925q.477.719 1.42 1.188c1.288.643 3.1.887 5.062.887s3.774-.244 5.061-.887q.944-.47 1.421-1.188C18.797 17.45 19 16.832 19 16M12 4a7.5 7.5 0 0 0-2.746.497L10.194 7h3.613l.938-2.503A7.5 7.5 0 0 0 12 4m9 12c0 1.178-.295 2.19-.852 3.03-.553.834-1.325 1.439-2.194 1.872C16.247 21.755 14.06 22 12 22s-4.247-.245-5.954-1.098c-.869-.433-1.641-1.038-2.194-1.872C3.295 18.19 3 17.178 3 16c0-2.88 1.582-5.121 3.043-6.582a15 15 0 0 1 2.025-1.691l.208-.141-.933-2.492c-.319-.85-.03-1.948.972-2.374l.313-.125A9.6 9.6 0 0 1 12 2c1.646 0 2.913.392 3.685.72 1.001.426 1.29 1.524.972 2.374l-.934 2.492.209.14c.55.384 1.286.953 2.025 1.692C19.418 10.879 21 13.119 21 16"/></svg>