<svg xmlns="http://www.w3.org/2000/svg" fill="none" viewBox="0 0 24 24"><path fill="#090404" d="M16 7a2 2 0 1 0-4 0 2 2 0 0 0 4 0m2 0a4 4 0 1 1-8 0 4 4 0 0 1 8 0"/><path fill="#090404" d="M6 5a4 4 0 0 1 7.773-1.333 1 1 0 0 1-1.886.666A2.002 2.002 0 0 0 8 5a2 2 0 0 0 2.667 1.887 1 1 0 1 1 .666 1.885A4 4 0 0 1 6 5"/><path fill="#090404" d="M19 16.218a.427.427 0 0 0-.55-.41l-7.163 2.15a1 1 0 0 1-.574-1.916l7.163-2.149A2.427 2.427 0 0 1 21 16.218a2.38 2.38 0 0 1-1.148 2.047 48 48 0 0 1-3.894 2.108c-1.57.749-3.388 1.475-4.858 1.622-1.375.137-3.01-.146-4.229-.43a26 26 0 0 1-2.02-.561L4.839 21H4a1 1 0 1 1 0-2h1q.083 0 .165.014l.161.04.032.011.11.037c.096.03.24.076.419.13.36.108.864.25 1.44.384 1.179.276 2.544.492 3.573.389 1.096-.11 2.643-.695 4.197-1.437a46 46 0 0 0 3.724-2.017.38.38 0 0 0 .179-.333"/><path fill="#090404" d="M7.6 12.246a4 4 0 0 1 1.596-.191l4.557.38a1.75 1.75 0 0 1 1.571 2.073 3.99 3.99 0 0 1-2.774 3.071l-1.263.379a1 1 0 0 1-.574-1.916l1.262-.378a2 2 0 0 0 1.312-1.262l-4.257-.354c-.27-.023-.541.01-.798.095L4.316 15.45a1 1 0 0 1-.633-1.897z"/></svg>