<svg xmlns="http://www.w3.org/2000/svg" fill="none" viewBox="0 0 24 24"><circle cx="5.1" cy="16" r="1.1" fill="#090404"/><circle cx="5.1" cy="20" r="1.1" fill="#090404"/><path fill="#090404" d="M11 4V2a1 1 0 1 1 2 0v2a1 1 0 1 1-2 0"/><path fill="#090404" d="M5.636 7.05 4.222 5.636a1 1 0 1 1 1.414-1.414L7.05 5.636A1 1 0 1 1 5.636 7.05"/><path fill="#090404" d="m16.95 5.636 1.414-1.414a1 1 0 0 1 1.414 1.414L18.364 7.05a1 1 0 1 1-1.414-1.414"/><path fill="#090404" d="M18 15a1 1 0 1 1 0 2H8.5a1 1 0 1 1 0-2z"/><path fill="#090404" d="M15 19a1 1 0 1 1 0 2H8.5a1 1 0 1 1 0-2z"/><path fill="#090404" d="M22 11a1 1 0 1 1 0 2H2a1 1 0 1 1 0-2z"/><path fill="#090404" d="M12 6.5a5.5 5.5 0 0 1 5.5 5.5h-2a3.5 3.5 0 1 0-7 0h-2A5.5 5.5 0 0 1 12 6.5"/></svg>