<svg xmlns="http://www.w3.org/2000/svg" fill="none" viewBox="0 0 24 24"><path fill="#090404" d="M15.256 4a2 2 0 0 1 1.916 1.426l2.786 9.287a1 1 0 0 1-1.916.574l-1.548-5.157-11.03 5.757a1 1 0 0 1-.927-1.774l5.156-2.69L7.2 8.1a1 1 0 0 1-.066-.1H7a1 1 0 1 1 0-2h3a1 1 0 1 1 0 2h-.376l1.865 2.485 4.42-2.305L15.256 6H14a1 1 0 0 1 0-2z"/><path fill="#090404" d="M22 15a3 3 0 1 0-6 0 3 3 0 0 0 6 0m2 0a5 5 0 1 1-10 0 5 5 0 0 1 10 0"/><path fill="#090404" d="M8 15a3 3 0 1 0-6 0 3 3 0 0 0 6 0m2 0a5 5 0 1 1-10 0 5 5 0 0 1 10 0"/></svg>