<svg xmlns="http://www.w3.org/2000/svg" fill="none" viewBox="0 0 24 24"><path fill="#090404" d="M12.63 15.776a1 1 0 0 1-1.337-.069l-3-3a1 1 0 1 1 1.414-1.414L12 13.586l2.293-2.293a1 1 0 1 1 1.414 1.414l-3 3z"/><path fill="#090404" d="M11 14V5a1 1 0 1 1 2 0v9a1 1 0 1 1-2 0"/><path fill="#090404" d="M1.5 14.25c0-1.79 1.353-3.18 3.021-4.089a1 1 0 0 1 .958 1.756C4.043 12.699 3.5 13.563 3.5 14.25c0 .729.617 1.658 2.23 2.465C7.282 17.49 9.497 18 12 18s4.718-.509 6.27-1.285c1.613-.807 2.23-1.736 2.23-2.465 0-.687-.543-1.551-1.979-2.333a1 1 0 0 1 .957-1.756c1.67.91 3.022 2.3 3.022 4.089 0 1.894-1.51 3.341-3.335 4.254C17.28 19.446 14.745 20 12 20s-5.28-.553-7.165-1.496C3.01 17.59 1.5 16.144 1.5 14.25"/></svg>