<svg xmlns="http://www.w3.org/2000/svg" fill="none" viewBox="0 0 24 24"><path fill="#090404" d="M15.178 4.022c1.265-.13 2.425.342 3.389.994.967.653 1.821 1.542 2.52 2.401a22 22 0 0 1 2.29 3.477l.01.017.002.006.002.002.044.1a1 1 0 0 1-.012.735l-.923-.38.923.381v.004l-.004.007-.01.022q-.012.029-.034.078-.042.097-.125.27a16.647 16.647 0 0 1-2.5 3.719c-1.817 2.032-4.693 4.145-8.75 4.145s-6.934-2.113-8.752-4.146a16.7 16.7 0 0 1-2.5-3.719 10 10 0 0 1-.124-.27l-.035-.077-.01-.022-.002-.007-.001-.003.923-.383-.907-.42.001-.002.002-.005.009-.018.028-.06q.037-.079.108-.217a20.85 20.85 0 0 1 1.88-3.055c.625-.835 1.396-1.71 2.283-2.383.883-.67 1.956-1.196 3.159-1.196 1.016 0 2.153.384 2.953.709.38.154.714.31.966.432.198-.105.446-.23.725-.36.665-.308 1.612-.687 2.472-.776m4.95 9.422q-.457.174-.96.352c-2.111.746-4.872 1.537-7.168 1.537s-5.058-.791-7.17-1.537a45 45 0 0 1-.96-.352c.255.349.544.713.869 1.076C6.332 16.3 8.707 18 11.999 18c3.293 0 5.668-1.7 7.261-3.48.325-.363.613-.728.868-1.076M12 10.667c-1.956 0-4.5.409-6.598.833q-.338.069-.656.136.36.136.75.275c2.081.734 4.57 1.422 6.504 1.422 1.935 0 4.424-.688 6.504-1.422q.39-.139.75-.275-.317-.067-.655-.136c-2.099-.424-4.642-.833-6.598-.833m-10.5.706-.923.381a1 1 0 0 1 .016-.8zm13.884-5.362c-.512.053-1.205.31-1.838.603a14 14 0 0 0-1.022.526l-.013.008h-.002a1 1 0 0 1-.989.016h-.003l-.015-.01-.067-.035c-.06-.03-.15-.077-.263-.132-.226-.112-.545-.26-.909-.409-.763-.31-1.595-.561-2.2-.561-.609 0-1.263.268-1.95.789-.683.518-1.327 1.234-1.89 1.987a17 17 0 0 0-.736 1.072c.46-.104.973-.215 1.52-.326 2.12-.428 4.826-.872 6.993-.872s4.874.444 6.995.872a72 72 0 0 1 1.406.3 18 18 0 0 0-.865-1.16c-.633-.779-1.346-1.504-2.088-2.006-.744-.503-1.435-.727-2.064-.662"/></svg>