<svg xmlns="http://www.w3.org/2000/svg" fill="none" viewBox="0 0 24 24"><path fill="#090404" d="M10 10v10h10V10zm12 10a2 2 0 0 1-2 2H10a2 2 0 0 1-2-2V10a2 2 0 0 1 2-2h10a2 2 0 0 1 2 2z"/><path fill="#090404" d="M7 6.25a.75.75 0 1 0-1.5 0 .75.75 0 0 0 1.5 0m.5 0a1.25 1.25 0 1 1-2.5 0 1.25 1.25 0 0 1 2.5 0"/><path fill="#090404" d="M13.541 12.511a1 1 0 0 1 1.038.074l2.25 1.6a1 1 0 0 1 0 1.63l-2.25 1.6A1 1 0 0 1 13 16.6v-3.2a1 1 0 0 1 .541-.889"/><path fill="#090404" d="M14 4H4v10h6v2H4a2 2 0 0 1-2-2V4a2 2 0 0 1 2-2h10a2 2 0 0 1 2 2v6h-2z"/><path fill="#090404" d="M6.26 5.25a1 1 0 0 1 0 2h-.01a1 1 0 0 1 0-2z"/><path fill="#090404" d="M5.575 9.095a1 1 0 0 1 .98.073l2.5 1.667a1 1 0 0 1-1.11 1.664L6 11.201 4.055 12.5a1 1 0 0 1-1.11-1.664l2.5-1.667z"/></svg>