<svg xmlns="http://www.w3.org/2000/svg" fill="none" viewBox="0 0 24 24"><path fill="#090404" fill-rule="evenodd" d="M3.793 14.793a1 1 0 0 1 1.414 0l.5.5a1 1 0 1 1-1.414 1.414l-.5-.5a1 1 0 0 1 0-1.414" clip-rule="evenodd"/><path fill="#090404" fill-rule="evenodd" d="M5.793 18.793a1 1 0 0 1 1.414 0l.5.5a1 1 0 1 1-1.414 1.414l-.5-.5a1 1 0 0 1 0-1.414" clip-rule="evenodd"/><path fill="#090404" fill-rule="evenodd" d="M18.207 18.793a1 1 0 0 0-1.414 0l-.5.5a1 1 0 0 0 1.414 1.414l.5-.5a1 1 0 0 0 0-1.414" clip-rule="evenodd"/><path fill="#090404" fill-rule="evenodd" d="M20.207 14.793a1 1 0 0 0-1.414 0l-.5.5a1 1 0 0 0 1.414 1.414l.5-.5a1 1 0 0 0 0-1.414" clip-rule="evenodd"/><path fill="#090404" d="M13 6c0-.729.197-1.411.537-2h-3.073A4 4 0 0 1 11 6v11.697l1 1.5 1-1.5zm2 11.697a2 2 0 0 1-.336 1.11l-1.832 2.748a1 1 0 0 1-1.664 0l-1.832-2.748A2 2 0 0 1 9 17.697V6a2 2 0 0 0-2-2h-.01a1 1 0 0 1 0-2h10.02a1 1 0 1 1 0 2H17a2 2 0 0 0-2 2z"/></svg>