<svg xmlns="http://www.w3.org/2000/svg" fill="none" viewBox="0 0 24 24"><path fill="#090404" d="M6.946 18.485h-.208l-1.037-1.037v-.208l1.585-1.585h1.098l.147.147V16.9zM5.7 6.758V6.55l1.037-1.037h.208L8.53 7.098v1.098l-.147.147H7.286z"/><path fill="#090404" d="M14.828 15.143H13.32l-.126-.126v-3.531c0-.629-.247-1.115-1.005-1.132-.39-.01-.835 0-1.312.018l-.072.073v4.57l-.126.126H9.171l-.126-.126V8.983l.126-.126h3.395c1.32 0 2.388 1.07 2.388 2.389v3.77z"/><path fill="#090404" d="M7.16 12.882H1.126L1 12.756v-1.512l.126-.126H7.16l.126.126v1.512zm15.714 0H16.84l-.126-.126v-1.512l.126-.126h6.034l.126.126v1.512zM11.13 6.972V2.447l.126-.126h1.512l.126.126v4.525l-.126.126h-1.512zm0 14.58v-4.524l.126-.126h1.512l.126.126v4.525l-.126.126h-1.512z"/></svg>