<svg xmlns="http://www.w3.org/2000/svg" fill="none" viewBox="0 0 24 24"><path fill="#090404" d="M19.999 12c0-2.24-.612-4.333-1.678-6.125a1 1 0 1 1 1.719-1.022A13.94 13.94 0 0 1 21.999 12a13.94 13.94 0 0 1-1.959 7.147 1 1 0 0 1-1.719-1.022A11.94 11.94 0 0 0 20 12m-4 0a7.96 7.96 0 0 0-.929-3.746 1 1 0 0 1 1.766-.939A9.96 9.96 0 0 1 17.999 12a9.96 9.96 0 0 1-1.163 4.685 1 1 0 1 1-1.766-.939A7.96 7.96 0 0 0 16 12M12 12a4 4 0 0 0-1.6-3.2A1 1 0 0 1 11.601 7.2 6 6 0 0 1 14 12a5.99 5.99 0 0 1-2.4 4.8 1 1 0 0 1-1.155.032l-4-2.666a1 1 0 0 1 1.11-1.664l3.356 2.237c.36-.382.646-.831.834-1.33.165-.437.255-.911.255-1.409M2 12a6 6 0 0 1 2.398-4.799l.133-.085a1 1 0 0 1 1.023.052l4 2.667a1 1 0 1 1-1.109 1.664L5.088 9.261a4 4 0 0 0-.833 1.33C4.09 11.03 4 11.504 4 12c0 1.308.627 2.47 1.6 3.201A1 1 0 0 1 4.399 16.8 6 6 0 0 1 2 12"/></svg>