<svg xmlns="http://www.w3.org/2000/svg" fill="none" viewBox="0 0 24 24"><path fill="#090404" d="M15.999 12c0-3.257-1.29-6.242-3.439-8.533a1 1 0 0 1 1.458-1.37C16.49 4.733 18 8.198 18 12s-1.51 7.267-3.98 9.901a1 1 0 1 1-1.459-1.368C14.71 18.243 16 15.258 16 12m-4 0c0-2.448-.878-4.69-2.338-6.428a1 1 0 1 1 1.531-1.286A11.96 11.96 0 0 1 14 12c0 2.936-1.055 5.628-2.807 7.713a1 1 0 1 1-1.53-1.286A9.96 9.96 0 0 0 11.998 12m-4 0a5.97 5.97 0 0 0-1.525-3.998 1 1 0 1 1 1.49-1.333A7.97 7.97 0 0 1 9.999 12c0 2.047-.77 3.917-2.035 5.331a1 1 0 1 1-1.49-1.333A5.97 5.97 0 0 0 7.999 12"/></svg>