<svg xmlns="http://www.w3.org/2000/svg" fill="none" viewBox="0 0 24 24"><path fill="#090404" d="M5.5 4.5v15h13v-15zm15 15a2 2 0 0 1-2 2h-13a2 2 0 0 1-2-2v-15a2 2 0 0 1 2-2h13a2 2 0 0 1 2 2z"/><path fill="#090404" d="M5.5 11a1 1 0 1 1 0 2h-2a1 1 0 1 1 0-2z"/><path fill="#090404" d="M12 11a1 1 0 1 1 0 2h-2a1 1 0 1 1 0-2z"/><path fill="#090404" d="M14 7a1 1 0 1 1 0 2h-4a1 1 0 0 1 0-2z"/><path fill="#090404" d="M5.5 7a1 1 0 0 1 0 2h-2a1 1 0 0 1 0-2z"/><path fill="#090404" d="M5.5 15a1 1 0 1 1 0 2h-2a1 1 0 1 1 0-2z"/></svg>