<svg xmlns="http://www.w3.org/2000/svg" fill="none" viewBox="0 0 24 24"><path fill="#090404" d="M5.5 4.5v15h13v-15zm15 15a2 2 0 0 1-2 2h-13a2 2 0 0 1-2-2v-15a2 2 0 0 1 2-2h13a2 2 0 0 1 2 2z"/><path fill="#090404" d="M15 9a1 1 0 1 1 0 2H9a1 1 0 1 1 0-2z"/><path fill="#090404" d="M13 13a1 1 0 1 1 0 2H9a1 1 0 1 1 0-2z"/><path fill="#090404" d="M11 4.5v-2a1 1 0 1 1 2 0v2a1 1 0 1 1-2 0"/><path fill="#090404" d="M15 4.5v-2a1 1 0 1 1 2 0v2a1 1 0 1 1-2 0"/><path fill="#090404" d="M7 4.5v-2a1 1 0 0 1 2 0v2a1 1 0 0 1-2 0"/></svg>