<svg xmlns="http://www.w3.org/2000/svg" fill="none" viewBox="0 0 24 24"><path fill="#090404" fill-rule="evenodd" d="M10.905 3.693a4.87 4.87 0 0 0-5.75.546.861.861 0 1 0 1.148 1.284 3.15 3.15 0 0 1 4.48.287.861.861 0 1 0 1.302-1.128 4.9 4.9 0 0 0-1.18-.989m1.8 3.051a4.872 4.872 0 0 1 8.386.044.861.861 0 0 1-1.488.869 3.15 3.15 0 0 0-5.42-.027L7.681 18.483l4.96.804a.861.861 0 0 1-.275 1.7l-6.214-1.007a.86.86 0 0 1-.602-1.292zm4.394 4.251a1.435 1.435 0 1 1-2.834-.459 1.435 1.435 0 0 1 2.834.46M9.533 9.77a1.435 1.435 0 1 1-2.834-.46 1.435 1.435 0 0 1 2.834.46" clip-rule="evenodd"/></svg>