<svg xmlns="http://www.w3.org/2000/svg" fill="none" viewBox="0 0 24 24"><path fill="#090404" d="M15.71 3c1.046 0 1.91.805 1.995 1.84.204 2.483.432 4.542.781 6.532a1 1 0 0 1-1.97.345c-.365-2.076-.597-4.203-.804-6.712v-.002L15.71 5H7.072l-.002.003v.004c-.442 5.351-.999 8.914-2.666 13.97l-.002.007v.003l.005.01.002.003h4.59a1 1 0 1 1 0 2H4.41c-1.386 0-2.328-1.363-1.904-2.648 1.603-4.863 2.139-8.262 2.571-13.51A2.006 2.006 0 0 1 7.072 3z"/><path fill="#090404" d="M20 17a5 5 0 0 0-10 0v2h10zm2 3a1 1 0 0 1-1 1H9a1 1 0 0 1-1-1v-3a7 7 0 1 1 14 0z"/><path fill="#090404" d="M20.5 15a1 1 0 1 1 0 2h-11a1 1 0 1 1 0-2z"/></svg>