<svg xmlns="http://www.w3.org/2000/svg" fill="none" viewBox="0 0 24 24"><path fill="#090404" d="M11.994 16.439c-2.144 0-3.615-1.008-3.615-2.502 0-1.143.867-1.94 2.057-2.145v-.041c-1.032-.228-1.752-.95-1.752-1.887 0-1.336 1.353-2.302 3.31-2.302 1.963 0 3.31.966 3.31 2.308 0 .92-.714 1.653-1.74 1.881v.041c1.19.205 2.051 1.008 2.051 2.15 0 1.489-1.482 2.497-3.62 2.497m0-5.297c.697 0 1.196-.434 1.196-1.055 0-.627-.505-1.055-1.196-1.055-.685 0-1.184.428-1.184 1.055 0 .621.493 1.055 1.184 1.055m0 3.82c.809 0 1.365-.498 1.365-1.184 0-.674-.556-1.16-1.365-1.16-.803 0-1.36.486-1.36 1.16 0 .686.557 1.184 1.36 1.184"/><path fill="#090404" d="M5 5v14h14V5zm16 14a2 2 0 0 1-2 2H5a2 2 0 0 1-2-2V5a2 2 0 0 1 2-2h14a2 2 0 0 1 2 2z"/></svg>