<svg xmlns="http://www.w3.org/2000/svg" fill="none" viewBox="0 0 24 24"><path fill="#090404" d="M20 16a1 1 0 1 1 0 2h-8a1 1 0 1 1 0-2z"/><path fill="#090404" d="M20 6a1 1 0 1 1 0 2h-8a1 1 0 1 1 0-2z"/><path fill="#090404" d="M5 9.5V6.118l-.552.277a1 1 0 0 1-.895-1.79l2-1A1 1 0 0 1 7 4.5v5a1 1 0 1 1-2 0"/><path fill="#090404" d="M6 15.889a.39.39 0 0 0-.389-.389c-.137 0-.317.054-.502.146a2 2 0 0 0-.2.114l-.049.033-.006.005v-.002a1 1 0 0 1-1.213-1.589l.004-.003.003-.003.013-.01.037-.027q.045-.032.12-.08c.097-.063.234-.147.4-.23.319-.157.82-.354 1.393-.354C6.931 13.5 8 14.57 8 15.889c0 .765-.33 1.353-.732 1.79-.307.333-.68.603-1.004.821h.986a1 1 0 1 1 0 2H4a1 1 0 0 1-1-1c0-.754.392-1.3.778-1.668.365-.347.837-.641 1.175-.862.385-.252.657-.445.842-.646.16-.175.205-.3.205-.435"/></svg>