<svg xmlns="http://www.w3.org/2000/svg" fill="none" viewBox="0 0 24 24"><path fill="#090404" d="M11.795 16.439c-1.43 0-2.525-.598-2.889-1.418a1.1 1.1 0 0 1-.105-.458c0-.457.304-.826.867-.826.428 0 .662.188.96.475.388.393.722.58 1.26.58 1.167 0 1.63-1.166 1.606-2.713v-.088h-.035c-.281.803-1.066 1.365-2.197 1.365-1.541 0-2.807-1.072-2.807-2.742 0-1.793 1.436-3.052 3.399-3.052 1.382 0 2.484.585 3.152 1.845.346.656.545 1.535.545 2.555 0 2.795-1.412 4.477-3.756 4.477m.07-4.6c.78 0 1.365-.533 1.365-1.283a1.33 1.33 0 0 0-1.347-1.348c-.762 0-1.36.574-1.36 1.318 0 .774.575 1.313 1.342 1.313"/><path fill="#090404" d="M5 5v14h14V5zm16 14a2 2 0 0 1-2 2H5a2 2 0 0 1-2-2V5a2 2 0 0 1 2-2h14a2 2 0 0 1 2 2z"/></svg>