<svg xmlns="http://www.w3.org/2000/svg" fill="none" viewBox="0 0 24 24"><path fill="#090404" d="M12.002 16.456c-2.203 0-3.557-1.71-3.557-4.453v-.012c0-2.742 1.354-4.447 3.557-4.447s3.55 1.705 3.55 4.447v.012c0 2.742-1.347 4.453-3.55 4.453m0-1.652c.885 0 1.377-1.014 1.377-2.801v-.012c0-1.787-.492-2.795-1.377-2.795s-1.377 1.008-1.377 2.795v.012c0 1.787.492 2.8 1.377 2.8"/><path fill="#090404" d="M20 12a8 8 0 1 0-16 0 8 8 0 0 0 16 0m2 0c0 5.523-4.477 10-10 10S2 17.523 2 12 6.477 2 12 2s10 4.477 10 10"/></svg>