<svg xmlns="http://www.w3.org/2000/svg" fill="none" viewBox="0 0 24 24"><path fill="#090404" d="M18.906 17.198c-1.73 0-2.85-.704-3.364-1.695a1.4 1.4 0 0 1-.184-.697c0-.465.294-.76.786-.76.362 0 .581.158.766.52.341.745.936 1.19 2.016 1.19 1.121 0 1.88-.643 1.88-1.538.007-1.053-.759-1.64-2.023-1.64h-.56c-.438 0-.698-.268-.698-.657 0-.39.26-.656.697-.656h.52c1.086 0 1.811-.622 1.811-1.497 0-.855-.56-1.43-1.654-1.43-.93 0-1.47.384-1.798 1.156-.191.424-.383.581-.793.581-.492 0-.752-.287-.752-.738 0-.246.048-.465.171-.704.465-.978 1.558-1.695 3.165-1.695 2.044 0 3.356 1.066 3.356 2.59 0 1.238-.881 2.065-2.07 2.31v.035c1.455.137 2.42 1.012 2.42 2.386 0 1.75-1.532 2.94-3.692 2.94"/><path fill="#090404" d="M8.62 17c-.547 0-.834-.3-.834-.745 0-.342.117-.547.493-.902l3.014-2.988c1.258-1.244 1.572-1.743 1.572-2.495 0-.882-.676-1.517-1.626-1.517-.89 0-1.511.45-1.86 1.34-.178.355-.383.54-.786.54-.479 0-.766-.295-.766-.732q.001-.195.055-.37c.267-1.066 1.45-2.193 3.37-2.193 1.976 0 3.336 1.168 3.336 2.823 0 1.155-.554 1.934-2.187 3.534l-2.263 2.228v.035h3.937c.465 0 .752.287.752.724 0 .43-.287.718-.752.718z"/><path fill="#090404" d="M5.321 17.137c-.512 0-.868-.356-.868-.889V8.845H4.42L2.826 9.952a.78.78 0 0 1-.499.171c-.369 0-.636-.267-.636-.656 0-.274.11-.479.404-.684L4.11 7.368C4.55 7.061 4.822 7 5.191 7c.622 0 .998.376.998.984v8.265c0 .533-.355.889-.868.889"/></svg>