<svg xmlns="http://www.w3.org/2000/svg" fill="none" viewBox="0 0 24 24"><path fill="#090404" d="M11.947 16.439c-1.799 0-2.83-.82-3.17-1.641a1.3 1.3 0 0 1-.105-.492c0-.54.357-.88.943-.88.41 0 .674.147.885.487.31.527.691.838 1.494.838.738 0 1.254-.434 1.254-1.043 0-.709-.527-1.09-1.465-1.09h-.205c-.51 0-.78-.293-.78-.732 0-.428.27-.727.78-.727h.194c.826 0 1.33-.404 1.33-1.02 0-.597-.422-.978-1.155-.978-.603 0-.996.246-1.254.75-.24.451-.498.621-.972.621-.586 0-.885-.351-.885-.844 0-.181.03-.328.105-.51.334-.82 1.33-1.616 2.994-1.616 1.84 0 3.165.837 3.165 2.273 0 1.084-.785 1.775-1.752 1.969v.04c1.277.13 2.086.85 2.086 1.993 0 1.582-1.366 2.602-3.487 2.602"/><path fill="#090404" d="M20 12a8 8 0 1 0-16 0 8 8 0 0 0 16 0m2 0c0 5.523-4.477 10-10 10S2 17.523 2 12 6.477 2 12 2s10 4.477 10 10"/></svg>