<svg xmlns="http://www.w3.org/2000/svg" fill="none" viewBox="0 0 24 24"><path fill="#090404" d="M9.814 16.333c-.691 0-1.007-.387-1.007-.92 0-.404.17-.691.591-1.055l2.415-2.191c.99-.902 1.26-1.29 1.26-1.84 0-.61-.47-1.043-1.143-1.043-.557 0-.938.27-1.248.832-.27.416-.522.586-.955.586-.557 0-.891-.322-.891-.85 0-.164.023-.316.088-.468.369-.973 1.494-1.717 3.035-1.717 1.928 0 3.193 1.025 3.193 2.52 0 1.084-.55 1.705-1.892 2.918l-1.682 1.535v.04h2.924c.545 0 .861.323.861.827 0 .492-.316.826-.861.826z"/><path fill="#090404" d="M5 5v14h14V5zm16 14a2 2 0 0 1-2 2H5a2 2 0 0 1-2-2V5a2 2 0 0 1 2-2h14a2 2 0 0 1 2 2z"/></svg>