<svg xmlns="http://www.w3.org/2000/svg" fill="none" viewBox="0 0 24 24"><path fill="#090404" d="M12.152 16.441c-1.388 0-2.484-.591-3.152-1.851-.352-.656-.55-1.535-.55-2.555 0-2.777 1.405-4.476 3.667-4.476 1.57 0 2.613.638 2.97 1.412.071.158.106.304.106.463 0 .457-.31.826-.873.826-.422 0-.662-.176-.96-.475-.376-.404-.733-.574-1.243-.574-1.107 0-1.623 1.107-1.611 2.695V12h.04c.323-.791 1.132-1.348 2.274-1.348 1.647 0 2.73 1.149 2.73 2.73 0 1.794-1.435 3.06-3.398 3.06m-.029-1.652c.756 0 1.348-.574 1.354-1.312.005-.774-.575-1.319-1.336-1.319-.78 0-1.371.533-1.371 1.29 0 .761.591 1.341 1.353 1.341"/><path fill="#090404" d="M5 5v14h14V5zm16 14a2 2 0 0 1-2 2H5a2 2 0 0 1-2-2V5a2 2 0 0 1 2-2h14a2 2 0 0 1 2 2z"/></svg>