<svg xmlns="http://www.w3.org/2000/svg" fill="none" viewBox="0 0 24 24"><path fill="#090404" d="M13.203 16.362c-.592 0-1.02-.34-1.02-1.025v-.55H9.302C8.527 14.786 8 14.3 8 13.584c0-.41.129-.815.428-1.342.562-1.014 1.236-2.08 2.015-3.258.65-1.007 1.149-1.347 1.998-1.347 1.079 0 1.776.591 1.776 1.511v3.967h.328c.568 0 .855.352.855.838s-.293.832-.855.832h-.328v.55c0 .687-.428 1.026-1.014 1.026m-.96-3.17V9.255H12.2c-1.02 1.476-1.717 2.56-2.402 3.879v.058z"/><path fill="#090404" d="M20 12a8 8 0 1 0-16 0 8 8 0 0 0 16 0m2 0c0 5.523-4.477 10-10 10S2 17.523 2 12 6.477 2 12 2s10 4.477 10 10"/></svg>