<svg xmlns="http://www.w3.org/2000/svg" fill="none" viewBox="0 0 24 24"><path fill="#090404" d="M9.814 15.883c-.691 0-1.007-.387-1.007-.92 0-.404.17-.691.591-1.055l2.415-2.191c.99-.902 1.26-1.29 1.26-1.84 0-.61-.47-1.043-1.143-1.043-.557 0-.938.27-1.248.832-.27.416-.522.586-.955.586-.557 0-.891-.322-.891-.85 0-.164.023-.316.088-.468.369-.973 1.494-1.717 3.035-1.717 1.928 0 3.193 1.025 3.193 2.52 0 1.083-.55 1.704-1.892 2.917l-1.682 1.536v.04h2.924c.545 0 .861.323.861.827 0 .492-.316.826-.861.826z"/><path fill="#090404" d="M20 12a8 8 0 1 0-16 0 8 8 0 0 0 16 0m2 0c0 5.523-4.477 10-10 10S2 17.523 2 12 6.477 2 12 2s10 4.477 10 10"/></svg>