<svg xmlns="http://www.w3.org/2000/svg" fill="none" viewBox="0 0 24 24"><path fill="#090404" d="M12.1 16.46c-1.4 0-2.643-.632-3.077-1.493a1.3 1.3 0 0 1-.146-.592c0-.527.322-.844.867-.844.404 0 .662.135.92.457.328.492.738.815 1.418.815.803 0 1.395-.586 1.395-1.377 0-.774-.569-1.319-1.377-1.319-.463 0-.832.211-1.102.452-.328.287-.545.392-1.014.392-.709 0-1.03-.492-.996-1.06v-.03l.223-2.97c.059-.774.48-1.096 1.201-1.096h3.803c.51 0 .844.322.844.826s-.328.826-.844.826H10.98l-.164 2.127h.041c.329-.556 1.014-.926 1.899-.926 1.6 0 2.748 1.125 2.748 2.73 0 1.858-1.395 3.083-3.404 3.083"/><path fill="#090404" d="M5 5v14h14V5zm16 14a2 2 0 0 1-2 2H5a2 2 0 0 1-2-2V5a2 2 0 0 1 2-2h14a2 2 0 0 1 2 2z"/></svg>