<svg xmlns="http://www.w3.org/2000/svg" fill="none" viewBox="0 0 24 24"><path fill="#090404" d="M9.212 8.976V7.62q.19-.015.388-.021c3.596-.117 5.957 3.184 5.957 3.184s-2.548 3.647-5.282 3.647a3.2 3.2 0 0 1-1.063-.175v-4.109c1.4.174 1.681.812 2.523 2.258l1.873-1.627a4.9 4.9 0 0 0-3.67-1.846 7 7 0 0 0-.729.044m0-4.476v2.025q.195-.016.388-.024c5.002-.174 8.261 4.226 8.261 4.226s-3.743 4.69-7.643 4.69q-.508 0-1.007-.092v1.25q.418.057.838.057c3.629 0 6.253-1.91 8.794-4.169.421.347 2.146 1.193 2.501 1.564-2.416 2.083-8.048 3.763-11.24 3.763-.308 0-.603-.02-.894-.048V19.5H23v-15H9.21zm0 9.756v1.068c-3.356-.616-4.287-4.21-4.287-4.21a7.17 7.17 0 0 1 4.287-2.138v1.172h-.005a3.18 3.18 0 0 0-2.502 1.178s.615 2.275 2.507 2.93m-5.961-3.299C4.684 9.021 6.852 7.808 9.209 7.62V6.523C4.81 6.887 1 10.723 1 10.723s2.158 6.427 8.21 7.015v-1.166C4.77 16 3.25 10.958 3.25 10.958h-.002z"/></svg>