<svg xmlns="http://www.w3.org/2000/svg" fill="none" viewBox="0 0 24 24"><path fill="#090404" d="M13 8a1 1 0 1 1 0 2h-2a1 1 0 1 1 0-2z"/><path fill="#090404" d="M16.565 5c2.938 0 5.348 2.1 5.888 4.834.383 1.943.101 4.176-.866 5.956-.985 1.812-2.726 3.21-5.189 3.21H7.6c-2.462 0-4.203-1.398-5.188-3.21-.967-1.78-1.25-4.013-.866-5.956A6 6 0 0 1 7.433 5zM7.433 7a4 4 0 0 0-3.924 3.222c-.3 1.52-.069 3.273.66 4.613C4.879 16.143 6.018 17 7.6 17h8.798c1.583 0 2.72-.857 3.432-2.165.728-1.34.96-3.094.661-4.613A4.004 4.004 0 0 0 16.565 7z"/><path fill="#090404" d="M.793 8.293a1 1 0 0 1 1.414 0L3.234 9.32a1 1 0 1 1-1.414 1.414L.793 9.707a1 1 0 0 1 0-1.414m21 0a1 1 0 1 1 1.414 1.414l-1.027 1.027a1 1 0 1 1-1.415-1.414z"/></svg>