<svg xmlns="http://www.w3.org/2000/svg" fill="none" viewBox="0 0 24 24"><path fill="#090404" fill-rule="evenodd" d="M8.274 2.082c.197.077.374.205.535.373.268.278.494.676.667 1.148.174.474.286 1 .33 1.527a4.6 4.6 0 0 1 1.862-.578l.046-.004c.791-.063 1.573.08 2.255.431q.136.072.27.155c.045-.517.156-1.031.327-1.495.173-.472.399-.87.666-1.149.15-.161.332-.289.536-.373.233-.09.482-.107.723-.038.365.104.678.335.924.67.226.307.395.7.51 1.17.21.85.245 1.967.104 3.314l.049.036.023.018c.689.523 1.168 1.27 1.421 2.136.396 1.352.197 2.868-.485 3.716l-.017.02.002.002c.38.693.61 1.425.658 2.182l.002.027c.058.968-.182 1.943-.74 2.9l-.006.01.009.021q.646 1.58.398 3.169l-.005.036a.592.592 0 0 1-1.17-.188c.152-.939.009-1.88-.437-2.839a.59.59 0 0 1 .037-.56l.003-.006c.55-.84.777-1.664.728-2.473-.042-.708-.296-1.404-.728-2.066a.585.585 0 0 1 .164-.806l.008-.005c.221-.145.425-.514.527-1.018a3.85 3.85 0 0 0-.086-1.795c-.186-.636-.527-1.167-1.004-1.53-.541-.413-1.258-.612-2.164-.554a.59.59 0 0 1-.575-.338c-.285-.604-.701-1.037-1.22-1.305a3 3 0 0 0-1.611-.302c-1.132.09-2.13.728-2.428 1.533a.59.59 0 0 1-.554.386c-.97.002-1.721.23-2.27.64-.475.354-.798.85-.97 1.443a3.7 3.7 0 0 0-.061 1.714c.102.508.3.928.529 1.154l.007.006a.586.586 0 0 1 .1.714c-.328.566-.572 1.408-.612 2.218-.046.926.169 1.73.653 2.306l.015.017a.59.59 0 0 1 .086.627c-.524 1.124-.684 2.047-.51 2.775a.593.593 0 0 1-1.154.27c-.221-.925-.071-1.985.43-3.18l.012-.031-.007-.011a4 4 0 0 1-.544-1.19l-.004-.017a5.2 5.2 0 0 1-.161-1.623c.04-.827.253-1.675.565-2.355l.011-.023-.002-.002c-.266-.38-.463-.866-.572-1.405l-.005-.021a4.9 4.9 0 0 1 .085-2.264c.238-.832.706-1.546 1.396-2.063q.083-.061.17-.12c-.145-1.357-.109-2.482.101-3.336.115-.471.285-.864.51-1.17.246-.335.56-.566.924-.67.241-.07.49-.054.724.038zm3.742 8.264c.85 0 1.636.284 2.224.777.572.479.913 1.123.913 1.764 0 .807-.369 1.436-1.03 1.838-.563.34-1.319.506-2.184.506-.918 0-1.701-.236-2.267-.667-.56-.428-.875-1.027-.875-1.678 0-.642.362-1.288.96-1.769a3.6 3.6 0 0 1 2.259-.771m0 .814a2.8 2.8 0 0 0-1.742.591c-.419.336-.656.76-.656 1.136 0 .39.19.754.554 1.031.414.316 1.022.498 1.767.498.726 0 1.339-.133 1.756-.387.42-.254.636-.623.636-1.142 0-.385-.223-.81-.62-1.142-.44-.368-1.037-.585-1.695-.585m.602 1.1.003.004a.317.317 0 0 1-.05.445l-.266.21v.405a.34.34 0 0 1-.583.24.34.34 0 0 1-.1-.24v-.418l-.247-.199a.315.315 0 0 1 .168-.56.32.32 0 0 1 .234.069l.195.156.2-.158a.32.32 0 0 1 .446.046m-4.582-1.744a.79.79 0 0 1 .557 1.35.8.8 0 0 1-.558.233.791.791 0 0 1 .001-1.583m7.915 0a.79.79 0 0 1 .558 1.35.8.8 0 0 1-.559.233.79.79 0 0 1 0-1.583m-8.1-7.334-.002.002a.6.6 0 0 0-.26.216l-.004.006c-.125.171-.234.424-.316.756-.155.63-.197 1.483-.113 2.53q.586-.176 1.276-.216l.01-.001.017-.031q.063-.112.134-.217c.112-.701.02-1.539-.23-2.222-.122-.331-.27-.591-.412-.74a.6.6 0 0 0-.097-.081zm8.34.036-.001.001a.6.6 0 0 0-.098.082c-.141.148-.29.41-.411.74-.264.722-.352 1.615-.21 2.338l.053.088.007.013h.028c.45 0 .9.065 1.332.193.079-1.022.035-1.857-.116-2.475q-.125-.497-.317-.756l-.004-.005a.6.6 0 0 0-.259-.218h-.004" clip-rule="evenodd"/></svg>