<svg xmlns="http://www.w3.org/2000/svg" fill="none" viewBox="0 0 24 24"><path fill="#090404" d="M2 12C2 6.477 6.477 2 12 2a1 1 0 1 1 0 2 8 8 0 1 0 0 16 1 1 0 1 1 0 2C6.477 22 2 17.523 2 12"/><path fill="#090404" d="M17.963 17.333a1 1 0 0 1 1.49 1.334 10 10 0 0 1-2.452 1.994 1 1 0 0 1-1.002-1.73 8 8 0 0 0 1.964-1.598"/><path fill="#090404" d="M15.635 3.703A1 1 0 0 1 17 3.339c.92.532 1.748 1.207 2.452 1.994a1 1 0 0 1-1.49 1.334 8 8 0 0 0-1.964-1.598 1 1 0 0 1-.364-1.366"/><path fill="#090404" d="M20 12q-.002-.801-.152-1.557a1 1 0 0 1 1.963-.387q.188.946.189 1.945-.002.997-.189 1.944a1 1 0 0 1-1.963-.387q.151-.756.152-1.557"/><path fill="#090404" d="M12.293 8.293a1 1 0 0 1 1.414 0l3 3a1 1 0 0 1 0 1.414l-3 3a1 1 0 1 1-1.414-1.414L14.586 12l-2.293-2.293a1 1 0 0 1 0-1.414"/><path fill="#090404" d="M15 11a1 1 0 1 1 0 2H8a1 1 0 1 1 0-2z"/></svg>