<svg xmlns="http://www.w3.org/2000/svg" fill="none" viewBox="0 0 24 24"><path fill="#090404" d="M9.67 9.304V7.421c0-.158.06-.277.2-.357l3.785-2.18c.516-.297 1.13-.436 1.764-.436 2.379 0 3.885 1.844 3.885 3.806 0 .138 0 .297-.02.456l-3.924-2.3a.66.66 0 0 0-.714 0zm8.841 7.334v-4.5a.66.66 0 0 0-.357-.614L13.18 8.63l1.626-.931a.36.36 0 0 1 .396 0l3.786 2.18c1.09.634 1.824 1.982 1.824 3.29 0 1.507-.892 2.894-2.3 3.47m-10.01-3.964-1.625-.951c-.139-.08-.198-.199-.198-.357v-4.36c0-2.122 1.625-3.727 3.826-3.727a3.7 3.7 0 0 1 2.26.773l-3.906 2.26a.66.66 0 0 0-.356.614zM12 14.696l-2.33-1.308v-2.775L12 9.304l2.329 1.309v2.775zm1.496 6.026a3.7 3.7 0 0 1-2.26-.774l3.906-2.26a.66.66 0 0 0 .356-.614v-5.748l1.646.951c.138.08.198.199.198.357v4.36c0 2.122-1.645 3.728-3.845 3.728M8.8 16.302 5.013 14.12c-1.09-.634-1.824-1.982-1.824-3.29 0-1.527.912-2.894 2.32-3.47v4.52c0 .278.118.476.356.615l4.955 2.874-1.625.931a.36.36 0 0 1-.396 0m-.218 3.25c-2.24 0-3.885-1.685-3.885-3.766 0-.159.02-.317.04-.476l3.904 2.26a.66.66 0 0 0 .714 0l4.975-2.874v1.883c0 .159-.06.277-.198.357l-3.786 2.18c-.516.297-1.13.436-1.764.436m4.916 2.359c2.398 0 4.4-1.705 4.856-3.965C20.573 17.371 22 15.29 22 13.17a5.01 5.01 0 0 0-1.665-3.706c.1-.416.159-.833.159-1.249 0-2.834-2.3-4.955-4.956-4.955-.535 0-1.05.079-1.566.257a4.97 4.97 0 0 0-3.468-1.427 4.956 4.956 0 0 0-4.857 3.965C3.427 6.628 2 8.71 2 10.83c0 1.387.595 2.735 1.665 3.706-.1.416-.159.833-.159 1.249 0 2.834 2.3 4.955 4.956 4.955.535 0 1.05-.079 1.566-.257a4.97 4.97 0 0 0 3.468 1.427"/></svg>