<svg xmlns="http://www.w3.org/2000/svg" fill="none" viewBox="0 0 24 24"><path fill="#090404" d="M20.003 14.5c0-1.382-1.119-2.5-2.496-2.5a2.5 2.5 0 0 0-2.497 2.5c0 1.382 1.12 2.5 2.497 2.5a2.5 2.5 0 0 0 2.496-2.5m2 0c0 2.484-2.012 4.5-4.496 4.5a4.5 4.5 0 0 1-4.491-4.269l-.006-.231c-.124-2.53.413-4.372 1.464-5.858 1.025-1.452 2.487-2.48 3.976-3.474a1 1 0 0 1 1.11 1.664c-1.508 1.006-2.669 1.853-3.453 2.964q-.187.262-.346.555a4.498 4.498 0 0 1 6.242 4.15"/><path fill="#090404" d="M9.01 14.5c0-1.382-1.118-2.5-2.495-2.5a2.5 2.5 0 0 0-2.497 2.5c0 1.382 1.119 2.5 2.497 2.5a2.5 2.5 0 0 0 2.496-2.5m2 0C11.01 16.984 9 19 6.516 19a4.5 4.5 0 0 1-4.491-4.269l-.006-.231c-.125-2.53.413-4.372 1.464-5.858 1.025-1.452 2.487-2.48 3.976-3.474a1 1 0 0 1 1.11 1.664C7.06 7.838 5.898 8.685 5.113 9.796q-.185.262-.345.555a4.498 4.498 0 0 1 6.242 4.15"/><path fill="#090404" d="M9.01 14.5c0-1.382-1.118-2.5-2.495-2.5a2.5 2.5 0 0 0-2.497 2.5c0 1.382 1.119 2.5 2.497 2.5a2.5 2.5 0 0 0 2.496-2.5m10.99 0c0-1.382-1.12-2.5-2.497-2.5a2.5 2.5 0 0 0-2.496 2.5c0 1.382 1.118 2.5 2.496 2.5a2.5 2.5 0 0 0 2.496-2.5m-8.99 0C11.01 16.984 9 19 6.516 19a4.5 4.5 0 0 1-4.491-4.268l-.006-.232c-.125-2.53.413-4.372 1.464-5.858 1.025-1.452 2.487-2.48 3.976-3.474a1 1 0 0 1 1.11 1.664C7.06 7.838 5.898 8.685 5.113 9.796a6 6 0 0 0-.345.555 4.498 4.498 0 0 1 6.242 4.15m10.99 0a4.497 4.497 0 0 1-8.991.053l-.019-.472c-.047-2.316.488-4.036 1.48-5.44 1.025-1.45 2.487-2.48 3.976-3.473a1 1 0 0 1 1.11 1.664c-1.507 1.006-2.669 1.853-3.453 2.964q-.187.262-.346.555a4.498 4.498 0 0 1 6.242 4.15"/></svg>