<svg xmlns="http://www.w3.org/2000/svg" fill="none" viewBox="0 0 24 24"><path fill="#090404" d="M17.648 4.064A1 1 0 0 1 19 4.999L19.003 10h1a2 2 0 0 1 2 2.001l-.002 6a2 2 0 0 1-2 2H15a2 2 0 0 1-2-2v-7c0-2.586 1.162-4.336 2.316-5.418a8.2 8.2 0 0 1 2.098-1.42q.1-.045.16-.07l.049-.019.016-.006.006-.002.002-.001s.002-.001.353.934zM15 18h5.001l.003-6h-2a1 1 0 0 1-1-.999L17 6.765a6 6 0 0 0-.317.277C15.838 7.835 15 9.086 15 11z"/><path fill="#090404" d="M2 11c0-2.585 1.162-4.335 2.316-5.417a8.2 8.2 0 0 1 2.098-1.42q.1-.045.16-.07l.05-.019.015-.006.006-.002.001-.001h.001S6.65 4.064 7 5l-.352-.936A1 1 0 0 1 8 5v5h1a2 2 0 0 1 2 2v6a2 2 0 0 1-2 2H4a2 2 0 0 1-2-1.999zm2 7h5v-6H7a1 1 0 0 1-1-1V6.766q-.157.128-.316.276C4.838 7.835 4 9.086 4 11z"/></svg>