<svg xmlns="http://www.w3.org/2000/svg" fill="none" viewBox="0 0 24 24"><path fill="#090404" d="M19 13a7 7 0 1 0-14 0 7 7 0 0 0 14 0m2 0a9 9 0 1 1-18 0 9 9 0 0 1 18 0"/><path fill="#090404" d="M14.265 1.206c1.394-.804 2.768-.77 4.148-.543a1 1 0 0 1 .808 1.226 5.46 5.46 0 0 1-2.579 3.435 5.46 5.46 0 0 1-4.263.516 1 1 0 0 1-.693-1.199 5.46 5.46 0 0 1 2.58-3.435m2.52 1.319a3.1 3.1 0 0 0-1.52.413 3.46 3.46 0 0 0-1.175 1.114 3.46 3.46 0 0 0 1.552-.46 3.46 3.46 0 0 0 1.144-1.067"/><path fill="#090404" d="M8.04 1.909a1 1 0 0 1 1.238-.684c1.907.55 3.348 1.977 3.699 3.558a1 1 0 0 1-1.953.434c-.163-.734-.957-1.683-2.301-2.07a1 1 0 0 1-.684-1.238"/><path fill="#090404" d="M15 13a1 1 0 1 1 2 0 5 5 0 0 1-5 5 1 1 0 1 1 0-2 3 3 0 0 0 3-3"/></svg>