<svg xmlns="http://www.w3.org/2000/svg" fill="none" viewBox="0 0 24 24"><path fill="#090404" d="M15.5 7.5a3.5 3.5 0 1 0-7 0 3.5 3.5 0 0 0 7 0m2 0a5.5 5.5 0 1 1-11 0 5.5 5.5 0 0 1 11 0"/><path fill="#090404" d="M6 17.5a1.5 1.5 0 1 0-3 0 1.5 1.5 0 0 0 3 0m2 0a3.5 3.5 0 1 1-7 0 3.5 3.5 0 0 1 7 0"/><path fill="#090404" d="M13.5 17.5a1.5 1.5 0 1 0-3 0 1.5 1.5 0 0 0 3 0m2 0a3.5 3.5 0 1 1-7 0 3.5 3.5 0 0 1 7 0"/><path fill="#090404" d="M21 17.5a1.5 1.5 0 1 0-3 0 1.5 1.5 0 0 0 3 0m2 0a3.5 3.5 0 1 1-7 0 3.5 3.5 0 0 1 7 0"/><path fill="#090404" d="M13 12v3h-2v-3z"/><path fill="#090404" d="M9.5 16.5v2H7v-2z"/><path fill="#090404" d="M17 16.5v2h-2.5v-2z"/></svg>