<svg xmlns="http://www.w3.org/2000/svg" fill="none" viewBox="0 0 24 24"><path fill="#090404" d="M19 17.5a2.5 2.5 0 1 0-5 0 2.5 2.5 0 0 0 5 0m2 0a4.5 4.5 0 0 1-1.286 3.15A4.5 4.5 0 1 1 21 17.5"/><path fill="#090404" d="M18 10V4H6v16h3.5a1 1 0 1 1 0 2H6a2 2 0 0 1-2-2V4a2 2 0 0 1 2-2h12a2 2 0 0 1 2 2v6a1 1 0 1 1-2 0"/><path fill="#090404" d="M18.305 19.231a1 1 0 0 1 1.414.023l1.5 1.551a1 1 0 0 1-1.438 1.39l-1.5-1.55a1 1 0 0 1 .024-1.414"/><path fill="#090404" d="M15 6a1 1 0 1 1 0 2H9a1 1 0 0 1 0-2z"/><path fill="#090404" d="M12 10a1 1 0 1 1 0 2H9a1 1 0 1 1 0-2z"/></svg>