<svg xmlns="http://www.w3.org/2000/svg" fill="none" viewBox="0 0 24 24"><path fill="#090404" d="M18 13V4H6v16h7a1 1 0 1 1 0 2H6a2 2 0 0 1-2-2V4a2 2 0 0 1 2-2h12a2 2 0 0 1 2 2v9a1 1 0 1 1-2 0"/><path fill="#090404" d="M20.414 16.172a1 1 0 0 1 1.414 1.414L20.414 19l1.414 1.414a1 1 0 0 1-1.414 1.415L19 20.414l-1.414 1.415a1 1 0 0 1-1.414-1.415L17.586 19l-1.414-1.414a1 1 0 1 1 1.414-1.414L19 17.586z"/><path fill="#090404" d="M11 10a1 1 0 1 1 0 2H9a1 1 0 1 1 0-2zm4-4a1 1 0 1 1 0 2H9a1 1 0 0 1 0-2z"/></svg>