<svg xmlns="http://www.w3.org/2000/svg" fill="none" viewBox="0 0 24 24"><path fill="#090404" d="M14.172 15.172a4 4 0 1 1 5.656 5.655 4 4 0 0 1-5.656-5.655m4.242 1.414a2 2 0 1 0-2.828 2.828 2 2 0 0 0 2.828-2.828"/><path fill="#090404" d="M18 11V4H5v16h5.5a1 1 0 1 1 0 2H5a2 2 0 0 1-2-2V4a2 2 0 0 1 2-2h13a2 2 0 0 1 2 2v7a1 1 0 1 1-2 0"/><path fill="#090404" d="M9 14a1 1 0 1 1 0 2H8a1 1 0 1 1 0-2z"/><path fill="#090404" d="M15 6a1 1 0 1 1 0 2H8a1 1 0 0 1 0-2z"/><path fill="#090404" d="M11 10a1 1 0 1 1 0 2H8a1 1 0 1 1 0-2z"/><path fill="#090404" d="M18.414 19.415a1 1 0 0 1 1.414 0l1.879 1.878a1 1 0 0 1-1.414 1.414l-1.879-1.879a1 1 0 0 1 0-1.413"/></svg>