<svg xmlns="http://www.w3.org/2000/svg" fill="none" viewBox="0 0 24 24"><path fill="#090404" d="M20 17a3 3 0 1 0-6 0 3 3 0 0 0 6 0m2 0c0 1.38-.561 2.631-1.465 3.535A5 5 0 1 1 22 17"/><path fill="#090404" d="M18 9V4H6v16h3.75a1 1 0 1 1 0 2H6a2 2 0 0 1-2-2V4a2 2 0 0 1 2-2h12a2 2 0 0 1 2 2v5a1 1 0 1 1-2 0"/><path fill="#090404" d="M16 12h2v4.586l3.242 3.242-1.414 1.414-3.535-3.535A1 1 0 0 1 16 17z"/><path fill="#090404" d="M15 6a1 1 0 1 1 0 2H9a1 1 0 0 1 0-2z"/><path fill="#090404" d="M11 10a1 1 0 1 1 0 2H9a1 1 0 1 1 0-2z"/></svg>