<svg xmlns="http://www.w3.org/2000/svg" fill="none" viewBox="0 0 24 24"><path fill="#090404" d="M18 11V4H6v16h4a1 1 0 1 1 0 2H6a2 2 0 0 1-2-2V4a2 2 0 0 1 2-2h12a2 2 0 0 1 2 2v7a1 1 0 1 1-2 0"/><path fill="#090404" d="M16.793 14.46a2.65 2.65 0 1 1 3.747 3.747l-3.5 3.5a1 1 0 0 1-.707.293H14a1 1 0 0 1-1-1v-2.333a1 1 0 0 1 .293-.707zm2.333 1.414a.65.65 0 0 0-.919 0L15 19.081v.92h.919l3.207-3.208a.65.65 0 0 0 0-.919"/><path fill="#090404" d="M15 6a1 1 0 1 1 0 2H9a1 1 0 0 1 0-2z"/><path fill="#090404" d="M11 10a1 1 0 1 1 0 2H9a1 1 0 1 1 0-2z"/></svg>