<svg xmlns="http://www.w3.org/2000/svg" fill="none" viewBox="0 0 24 24"><path fill="#090404" d="M22.5 19.6c0 1.326-1.007 2.4-2.25 2.4S18 20.926 18 19.6c0-1.387 1.337-2.775 1.95-3.338a.44.44 0 0 1 .6 0c.613.563 1.95 1.95 1.95 3.338"/><path fill="#090404" d="M9.385 2.914a2 2 0 0 1 3-.195l8.288 8.29a2 2 0 0 1-.194 2.998l-9.281 7.142a4 4 0 0 1-5.268-.342l-3.345-3.345a4 4 0 0 1-.342-5.268zm-5.557 10.5A2 2 0 0 0 4 16.047l3.345 3.346c.71.71 1.839.784 2.635.171l9.28-7.142-8.289-8.289z"/><path fill="#090404" d="M2.096 6.072a1 1 0 0 1 1.332-.475l9.5 4.5a1 1 0 1 1-.856 1.806l-9.5-4.5a1 1 0 0 1-.476-1.33"/></svg>