<svg xmlns="http://www.w3.org/2000/svg" fill="none" viewBox="0 0 24 24"><g fill="#090404" clip-path="url(#a)"><circle cx="13.5" cy="7.25" r="1"/><circle cx="9" cy="9.25" r="1"/><circle cx="4.5" cy="6" r="1"/><path d="M8.695 3.098a.9.9 0 1 1 1.61.804l-.75 1.5a.9.9 0 1 1-1.61-.804z"/><path d="M2.287 8.952a.9.9 0 0 1 1.261-.166l1.304 1a.9.9 0 1 1-1.096 1.428l-1.303-1a.9.9 0 0 1-.166-1.262"/><path d="M22.758 10.479a1 1 0 0 1 .485 1.941l-5.66 1.411.123.488a4 4 0 0 1-2.915 4.848L8 20.86a4 4 0 0 1-4.848-2.913l-.364-1.455a1 1 0 0 1 .729-1.213l12.554-3.13.044-.012zM4.97 16.978l.121.486a2 2 0 0 0 2.425 1.456l6.792-1.693a2 2 0 0 0 1.457-2.424l-.122-.486z"/></g><defs><clipPath id="a"><path fill="#fff" d="M0 0h24v24H0z"/></clipPath></defs></svg>