<svg xmlns="http://www.w3.org/2000/svg" fill="none" viewBox="0 0 24 24"><path fill="#090404" d="M2 11V9.5a2 2 0 0 1 2-2h3a1 1 0 0 1 0 2H4V11h4a1 1 0 1 1 0 2H4a2 2 0 0 1-2-2m17 0V9.5h-1a1 1 0 1 1 0-2h1a2 2 0 0 1 2 2V11a2 2 0 0 1-2 2h-3a1 1 0 1 1 0-2z"/><path fill="#090404" d="M19 7.5V6H5v1.5h2a2 2 0 0 1 2 2V14a1 1 0 1 0 2 0v-3a1 1 0 1 1 2 0v3a3 3 0 1 1-6 0V9.5H5a2 2 0 0 1-2-2V6a2 2 0 0 1 2-2h14a2 2 0 0 1 2 2v1.5a2 2 0 0 1-2 2h-1a1 1 0 1 1 0-2z"/><path fill="#090404" d="M3 14.5V13a2 2 0 0 1 2-2h3a1 1 0 1 1 0 2H5v1.5h3a1 1 0 1 1 0 2H5a2 2 0 0 1-2-2m17 0V13h-4a1 1 0 1 1 0-2h4a2 2 0 0 1 2 2v1.5a2 2 0 0 1-2 2h-8a1 1 0 1 1 0-2z"/><path fill="#090404" d="M3 18v-1.5a2 2 0 0 1 2-2h3a1 1 0 1 1 0 2H5V18h14v-1.5h-4a1 1 0 1 1 0-2h4a2 2 0 0 1 2 2V18a2 2 0 0 1-2 2H5a2 2 0 0 1-2-2"/><path fill="#090404" d="M11 11a1 1 0 0 1 1.995-.102l.01.204A1 1 0 0 0 15 11V9.5a2 2 0 0 1 2-2h2a1 1 0 1 1 0 2h-2V11a3 3 0 1 1-6 0"/><path fill="#090404" d="M22 18a1 1 0 1 1 0 2H2a1 1 0 1 1 0-2z"/></svg>