<svg xmlns="http://www.w3.org/2000/svg" fill="none" viewBox="0 0 24 24"><path fill="#090404" d="M3.043 17.98c6.095-1.81 11.82-1.81 17.914 0q.013.003.019.001a.1.1 0 0 0 .018-.008l.006-.006V5.995l-.006-.005-.017-.008a.04.04 0 0 0-.019.002c-6.121 1.794-11.795 1.794-17.916 0a.04.04 0 0 0-.019-.002.05.05 0 0 0-.023.013v11.972l.006.006a.1.1 0 0 0 .018.008q.006.002.019 0M23 17.966c0 1.381-1.343 2.308-2.612 1.931-5.724-1.7-11.053-1.7-16.776 0-1.27.377-2.612-.55-2.612-1.93V5.995C1 4.62 2.336 3.692 3.604 4.064c5.754 1.687 11.038 1.687 16.792 0C21.664 3.692 23 4.62 23 5.996z"/></svg>