<svg xmlns="http://www.w3.org/2000/svg" fill="none" viewBox="0 0 24 24"><g fill="#090404" clip-path="url(#a)"><path d="m15.636 20.294-4.337-7.511c-.525.417-1.03.936-1.542 1.586a1 1 0 0 1-.85.379c-1.35-.087-2.775.652-3.865 2.303a1 1 0 0 1-1.7-.05C.58 12.216 2.219 6.1 7.002 3.34 11.785.578 17.901 2.217 20.662 7a1 1 0 0 1-.806 1.498c-1.974.119-3.327.982-3.927 2.195a1 1 0 1 1-1.792-.886c.764-1.545 2.18-2.572 3.919-3.036a8.001 8.001 0 0 0-13.61 7.858c1.138-1.141 2.538-1.831 4.054-1.884.799-.947 1.647-1.695 2.627-2.26a1 1 0 0 1 1.366.366l4.875 8.443a1 1 0 0 1-1.732 1"/><path d="M8.104 14.25c-1.289-2.232-2.128-4.494-2.417-6.372-.144-.935-.16-1.83.011-2.597.172-.768.56-1.512 1.303-1.941s1.581-.393 2.332-.157c.75.235 1.517.696 2.255 1.288 1.482 1.19 3.021 3.047 4.31 5.28a1 1 0 0 1-.723 1.489c-1.24.178-2.21.492-3.05.977a1 1 0 0 1-1-1.732 9.3 9.3 0 0 1 2.297-.93c-1.007-1.513-2.092-2.727-3.086-3.524-.625-.501-1.17-.805-1.601-.94-.43-.134-.64-.074-.734-.02-.095.055-.252.207-.35.646-.099.44-.11 1.065.012 1.857.243 1.576.976 3.603 2.173 5.676a1 1 0 1 1-1.732 1"/></g><defs><clipPath id="a"><path fill="#fff" d="M0 0h24v24H0z"/></clipPath></defs></svg>