<svg xmlns="http://www.w3.org/2000/svg" fill="none" viewBox="0 0 24 24"><path fill="#090404" d="M11 18v2h2v-2zm4 2a2 2 0 0 1-2 2h-2a2 2 0 0 1-2-2v-2a2 2 0 0 1 2-2h2a2 2 0 0 1 2 2z"/><path fill="#090404" d="M1 13C1 6.925 5.925 2 12 2s11 4.925 11 11a1 1 0 0 1-.408.807l-7.5 5.5a1 1 0 0 1-1.184-1.614l7.077-5.19A9 9 0 0 0 3 13a1 1 0 1 1-2 0"/><path fill="#090404" d="M12 8.444c3.54 0 7.018 1.282 10.568 3.733a1 1 0 0 1-1.136 1.646c-3.316-2.289-6.405-3.379-9.432-3.379a1 1 0 0 1 0-2"/><path fill="#090404" d="M11 17v-6.514c-2.342.185-4.73 1.021-7.243 2.562l6.335 4.646a1 1 0 0 1-1.184 1.613l-7.5-5.5a1 1 0 0 1 .024-1.63C4.982 9.726 8.46 8.444 12 8.444a1 1 0 0 1 1 1V17a1 1 0 0 1-2 0"/></svg>