<svg xmlns="http://www.w3.org/2000/svg" fill="none" viewBox="0 0 24 24"><path fill="#090404" d="M18 9a2.5 2.5 0 0 0-2.604-2.497 1 1 0 0 1-1-.715 2.5 2.5 0 0 0-4.792 0 1 1 0 0 1-1 .715L8.5 6.5a2.5 2.5 0 0 0-2.194 3.698 1 1 0 0 1-.285 1.286A2.5 2.5 0 0 0 7.5 16h9a2.5 2.5 0 0 0 1.479-4.516 1 1 0 0 1-.286-1.286C17.89 9.842 18 9.435 18 9m2 0c0 .494-.081.969-.229 1.413A4.5 4.5 0 0 1 16.5 18h-9a4.5 4.5 0 0 1-3.273-7.587 4.5 4.5 0 0 1 3.725-5.879 4.5 4.5 0 0 1 8.094 0A4.5 4.5 0 0 1 20 9"/><path fill="#090404" d="M13 17v4h-2v-4z"/><path fill="#090404" d="M14 20a1 1 0 1 1 0 2h-4a1 1 0 1 1 0-2z"/></svg>