<svg xmlns="http://www.w3.org/2000/svg" fill="none" viewBox="0 0 24 24"><path fill="#090404" d="M22 16a1 1 0 1 1 0 2H2a1 1 0 1 1 0-2z"/><path fill="#090404" d="M12.32 7.55a.9.9 0 0 1 1.559.9l-.32.555h.641a.9.9 0 0 1 0 1.8h-.641l.32.555a.9.9 0 0 1-1.559.9L12 11.706l-.32.556a.9.9 0 0 1-1.559-.9l.32-.555H9.8a.9.9 0 0 1 0-1.801h.64l-.32-.555a.9.9 0 0 1 1.56-.9l.319.555z"/><path fill="#090404" d="M20.32 7.55a.9.9 0 0 1 1.559.9l-.32.555h.641a.9.9 0 0 1 0 1.8h-.641l.32.555a.9.9 0 0 1-1.559.9L20 11.706l-.32.556a.9.9 0 0 1-1.559-.9l.32-.555h-.64a.9.9 0 0 1 0-1.801h.64l-.32-.555a.9.9 0 0 1 1.56-.9l.319.555z"/><path fill="#090404" d="M4.32 7.55a.9.9 0 0 1 1.559.9l-.32.555H6.2a.9.9 0 0 1 0 1.8H5.56l.32.555a.9.9 0 0 1-1.559.9L4 11.706l-.32.556a.9.9 0 0 1-1.559-.9l.32-.555H1.8a.9.9 0 0 1 0-1.801h.64l-.32-.555a.9.9 0 0 1 1.56-.9l.319.555z"/></svg>