<svg xmlns="http://www.w3.org/2000/svg" fill="none" viewBox="0 0 24 24"><path fill="#090404" fill-rule="evenodd" d="M18 11a3 3 0 0 0-1.25 5.728v3.532a.5.5 0 0 0 .188.39l.75.6a.5.5 0 0 0 .624 0l.75-.6a.5.5 0 0 0 .188-.39v-.833l-.75-.677.75-.75v-1.272A3 3 0 0 0 18 11m-1 3a1 1 0 1 1 2 0 1 1 0 0 1-2 0" clip-rule="evenodd"/><path fill="#090404" d="M12 12a1 1 0 0 1 0 2c-3.241 0-5.61 2.098-6.32 5H14a1 1 0 0 1 0 2H5.599c-1.135 0-2.192-1.014-1.902-2.304l.087-.354C4.75 14.706 7.836 12 12 12m2.5-5.5a2.5 2.5 0 1 0-5 0 2.5 2.5 0 0 0 5 0m2 0a4.5 4.5 0 1 1-9 0 4.5 4.5 0 0 1 9 0"/></svg>