<svg xmlns="http://www.w3.org/2000/svg" fill="none" viewBox="0 0 24 24"><path fill="#090404" d="M5.96 18.338a1 1 0 0 1 1.41-.088A6.97 6.97 0 0 0 12 20q.676-.002 1.314-.123a1 1 0 0 1 .373 1.965 9 9 0 0 1-1.686.158 8.97 8.97 0 0 1-5.954-2.25 1 1 0 0 1-.088-1.412M19 13a6.97 6.97 0 0 0-1.72-4.597 1 1 0 1 1 1.508-1.313A8.97 8.97 0 0 1 21 13c0 .575-.054 1.14-.158 1.687a1 1 0 0 1-1.965-.374Q19 13.676 19 13M9.189 4.448a1 1 0 0 1 .625 1.9 7.02 7.02 0 0 0-4.464 4.465 1 1 0 0 1-1.9-.626 9.02 9.02 0 0 1 5.739-5.739"/><path fill="#090404" d="M13.5 5a1.5 1.5 0 1 0-3 0 1.5 1.5 0 0 0 3 0m2 0a3.5 3.5 0 1 1-7 0 3.5 3.5 0 0 1 7 0"/><path fill="#090404" d="M3.32 13.97a3.5 3.5 0 1 1 3.5 6.06 3.5 3.5 0 0 1-3.5-6.06m3.049 2.28a1.5 1.5 0 1 0-2.598 1.5 1.5 1.5 0 0 0 2.598-1.5"/><path fill="#090404" d="M15.891 15.25a3.5 3.5 0 1 1 6.061 3.5 3.5 3.5 0 0 1-6.06-3.5m3.78.451a1.5 1.5 0 1 0-1.5 2.598 1.5 1.5 0 0 0 1.5-2.598"/></svg>