<svg xmlns="http://www.w3.org/2000/svg" fill="none" viewBox="0 0 24 24"><path fill="#090404" d="m7.24 4.185-.696-1.812a.582.582 0 0 0-1.088 0L4.76 4.185a1 1 0 0 1-.575.575l-1.812.696a.582.582 0 0 0 0 1.088l1.812.696a1 1 0 0 1 .575.575l.696 1.812a.582.582 0 0 0 1.088 0l.696-1.812a1 1 0 0 1 .575-.575l1.812-.696a.582.582 0 0 0 0-1.088L7.815 4.76a1 1 0 0 1-.575-.575"/><path fill="#090404" d="M15.293 4.293a4.535 4.535 0 1 1 6.414 6.414L11.434 20.98a2 2 0 0 1-1.085.56l-5.685.946a1 1 0 0 1-1.15-1.15l.947-5.685a2 2 0 0 1 .558-1.085zm5 1.414a2.536 2.536 0 0 0-3.586 0L6.433 15.98l-.717 4.303 4.303-.716L20.293 9.293c.99-.99.99-2.596 0-3.586"/><path fill="#090404" d="m20.207 10.793-1.414 1.414-5-5 1.414-1.414z"/></svg>