<svg xmlns="http://www.w3.org/2000/svg" fill="none" viewBox="0 0 24 24"><path fill="#090404" d="M15.586 3a2 2 0 0 1 2.828 0L20 4.586a2 2 0 0 1 .138 2.676L20 7.414l-13 13A2 2 0 0 1 5.586 21H3a1 1 0 0 1-1-1v-2.586A2 2 0 0 1 2.586 16zM4 19h1.586l13-13L17 4.414l-13 13z"/><path fill="#090404" d="M20.243 17.346a1 1 0 0 1 1.514 1.307v.001l-.002.001-.002.003-.006.007-.017.02-.059.064a7.133 7.133 0 0 1-.93.826c-.58.43-1.503.969-2.575.969-1.041 0-1.939-.497-2.568-.831-.724-.384-1.169-.598-1.612-.598-1.056 0-1.731.558-2.26 1.117a1 1 0 0 1-1.452-1.374c.653-.692 1.824-1.743 3.713-1.743 1.03 0 1.925.5 2.548.831.718.381 1.173.598 1.631.598.429 0 .923-.234 1.384-.575a5 5 0 0 0 .69-.62l.004-.003"/></svg>