<svg xmlns="http://www.w3.org/2000/svg" fill="none" viewBox="0 0 24 24"><path fill="#090404" d="M4.184 7.408a.5.5 0 0 0 .224-.224l.645-1.29a.5.5 0 0 1 .894 0l.645 1.29a.5.5 0 0 0 .224.224l1.29.645a.5.5 0 0 1 0 .894l-1.29.645a.5.5 0 0 0-.224.224l-.645 1.29a.5.5 0 0 1-.894 0l-.645-1.29a.5.5 0 0 0-.224-.224l-1.29-.645a.5.5 0 0 1 0-.894z"/><path fill="#090404" d="M8.56 3.72a.36.36 0 0 0 .16-.16l.46-.921a.357.357 0 0 1 .64 0l.46.921q.054.106.16.16l.921.46a.357.357 0 0 1 0 .64l-.921.46a.36.36 0 0 0-.16.16l-.46.921a.357.357 0 0 1-.64 0l-.46-.921a.36.36 0 0 0-.16-.16l-.921-.46a.357.357 0 0 1 0-.64z"/><path fill="#090404" d="M10 17.5a2.5 2.5 0 0 0-5 0V20h2.5a2.5 2.5 0 0 0 2.5-2.5m2 0A4.5 4.5 0 0 1 7.5 22H4a1 1 0 0 1-1-1v-3.5a4.5 4.5 0 1 1 9 0"/><path fill="#090404" d="M17.64 3.857a2 2 0 0 1 2.726.095l.682.682a2 2 0 0 1 .095 2.726l-9.388 10.796-1.51-1.312 9.389-10.796-.682-.682-10.796 9.389-1.312-1.51z"/></svg>