<svg xmlns="http://www.w3.org/2000/svg" fill="none" viewBox="0 0 24 24"><path fill="#090404" fill-rule="evenodd" d="M19.85 14.149a.53.53 0 0 0 .662.382l.74-.212a.53.53 0 0 1 .606.245l.648 1.122a.53.53 0 0 1-.09.647l-.553.534a.53.53 0 0 0 0 .764l.553.536c.175.17.213.436.091.647l-.648 1.122a.53.53 0 0 1-.606.245l-.74-.212a.53.53 0 0 0-.662.382l-.186.746a.53.53 0 0 1-.516.403h-1.295a.53.53 0 0 1-.516-.402l-.187-.747a.53.53 0 0 0-.66-.382l-.74.212a.53.53 0 0 1-.606-.245l-.648-1.122a.53.53 0 0 1 .09-.647l.554-.536a.53.53 0 0 0 0-.764l-.552-.534a.53.53 0 0 1-.09-.647l.647-1.122a.53.53 0 0 1 .606-.245l.738.21a.53.53 0 0 0 .662-.38l.186-.747a.53.53 0 0 1 .516-.402h1.295c.244 0 .456.166.516.402zM18.5 15.75a1.5 1.5 0 1 0 0 3 1.5 1.5 0 0 0 0-3" clip-rule="evenodd"/><path fill="#090404" d="M14.501 6.5a2.5 2.5 0 1 0-5 0 2.5 2.5 0 0 0 5 0m2 0a4.5 4.5 0 1 1-9 0 4.5 4.5 0 0 1 9 0"/><path fill="#090404" d="M12 12a1 1 0 0 1 0 2c-3.241 0-5.61 2.098-6.32 5H11a1 1 0 0 1 0 2H5.599c-1.135 0-2.192-1.014-1.902-2.304l.087-.354C4.75 14.706 7.836 12 12 12"/></svg>