<svg xmlns="http://www.w3.org/2000/svg" fill="none" viewBox="0 0 24 24"><path fill="#090404" d="M14.501 6.5a2.5 2.5 0 1 0-5 0 2.5 2.5 0 0 0 5 0m2 0a4.5 4.5 0 1 1-9 0 4.5 4.5 0 0 1 9 0"/><path fill="#090404" d="M12 12c.787 0 1.54.097 2.252.282a1 1 0 0 1-.503 1.936A7 7 0 0 0 12 14c-3.242 0-5.611 2.098-6.32 5H11a1 1 0 0 1 0 2H5.598c-1.135 0-2.192-1.014-1.902-2.304l.087-.354C4.75 14.706 7.836 12 12 12"/><path fill="#090404" d="M17.001 21v-2h-2a1 1 0 1 1 0-2h2v-2a1 1 0 1 1 2 0v2h2a1 1 0 1 1 0 2h-2v2a1 1 0 1 1-2 0"/></svg>