<svg xmlns="http://www.w3.org/2000/svg" fill="none" viewBox="0 0 24 24"><path fill="#090404" d="M6.871 11.617a1 1 0 1 1-1-1.732 1 1 0 0 1 1 1.732"/><path fill="#090404" d="M8.588 1.879a1 1 0 1 1-1.532 1.285A1 1 0 0 1 8.588 1.88"/><path fill="#090404" d="M5.772 5.387a1 1 0 1 1-.347 1.97 1 1 0 0 1 .347-1.97"/><path fill="#090404" d="M13 1a1 1 0 1 1-2 0 1 1 0 0 1 2 0"/><path fill="#090404" d="M17.129 11.617a1 1 0 1 0 1-1.732 1 1 0 0 0-1 1.732"/><path fill="#090404" d="M15.412 1.879a1 1 0 1 0 1.532 1.285 1 1 0 0 0-1.532-1.285"/><path fill="#090404" d="M18.228 5.387a1 1 0 1 0 .347 1.97 1 1 0 0 0-.347-1.97"/><path fill="#090404" d="M12 13c4.3 0 7.447 2.884 8.304 6.696.29 1.29-.767 2.304-1.902 2.304H5.598c-1.135 0-2.192-1.014-1.902-2.304l.087-.354C4.75 15.706 7.836 13 12 13m0 2c-3.241 0-5.61 2.098-6.32 5h12.64c-.71-2.902-3.078-5-6.32-5"/><path fill="#090404" d="M14.25 7.5a2.25 2.25 0 1 0-4.5 0 2.25 2.25 0 0 0 4.5 0m2 0a4.25 4.25 0 1 1-8.5 0 4.25 4.25 0 0 1 8.5 0"/></svg>