<svg xmlns="http://www.w3.org/2000/svg" fill="none" viewBox="0 0 24 24"><path fill="#090404" d="M16 7V4H4v12h3a1 1 0 1 1 0 2H4a2 2 0 0 1-2-2V4a2 2 0 0 1 2-2h12a2 2 0 0 1 2 2v3a1 1 0 1 1-2 0"/><path fill="#090404" d="M8 8v12h12V8zm14 12a2 2 0 0 1-2 2H8a2 2 0 0 1-2-2V8a2 2 0 0 1 2-2h12a2 2 0 0 1 2 2z"/><path fill="#090404" d="M15 12.5a1 1 0 1 0-2 0 1 1 0 0 0 2 0m2 0a3 3 0 1 1-6 0 3 3 0 0 1 6 0"/><path fill="#090404" d="M14 16a5.5 5.5 0 0 1 5.467 4.89 1.001 1.001 0 0 1-1.988.22 3.501 3.501 0 0 0-6.957 0 1 1 0 0 1-1.989-.22A5.5 5.5 0 0 1 14 16"/></svg>