<svg xmlns="http://www.w3.org/2000/svg" fill="none" viewBox="0 0 24 24"><path fill="#090404" d="M14.501 6.5a2.5 2.5 0 1 0-5 0 2.5 2.5 0 0 0 5 0m2 0a4.5 4.5 0 1 1-9 0 4.5 4.5 0 0 1 9 0"/><path fill="#090404" d="M19.144 14.485a1 1 0 0 1 1.715 1.03l-3 5a1 1 0 0 1-1.457.285l-2-1.5a1 1 0 1 1 1.2-1.6l1.112.834z"/><path fill="#090404" d="M12 12c1.222 0 2.363.234 3.388.666a1 1 0 0 1-.776 1.844A6.7 6.7 0 0 0 12 14c-3.242 0-5.611 2.098-6.32 5H11a1 1 0 0 1 0 2H5.598c-1.135 0-2.192-1.014-1.902-2.304l.087-.354C4.75 14.706 7.836 12 12 12"/></svg>