<svg xmlns="http://www.w3.org/2000/svg" fill="none" viewBox="0 0 24 24"><path fill="#090404" d="M11.5 8.5a2.5 2.5 0 1 0-5 0 2.5 2.5 0 0 0 5 0m2 0a4.5 4.5 0 1 1-9 0 4.5 4.5 0 0 1 9 0"/><path fill="#090404" d="M17.5 8.5a2.5 2.5 0 0 0-2.317-2.494 1 1 0 0 1 .143-1.994 4.5 4.5 0 0 1 0 8.977 1 1 0 0 1-.143-1.995A2.5 2.5 0 0 0 17.5 8.5"/><path fill="#090404" d="M14 19v-1.235c0-1.118-.9-2.015-2-2.015H6c-1.1 0-2 .897-2 2.015V19a1 1 0 1 1-2 0v-1.235a4.01 4.01 0 0 1 4-4.015h6c2.214 0 4 1.802 4 4.015V19a1 1 0 1 1-2 0"/><path fill="#090404" d="M20 19v-1.235c0-1.118-.9-2.015-2-2.015h-.1a1 1 0 1 1 0-2h.1c2.214 0 4 1.802 4 4.015V19a1 1 0 1 1-2 0"/></svg>