<svg xmlns="http://www.w3.org/2000/svg" fill="none" viewBox="0 0 24 24"><path fill="#090404" d="m18.896 14.458-.785-2.038a.655.655 0 0 0-1.223 0l-.784 2.038c-.114.297-.349.532-.646.646l-2.038.785a.655.655 0 0 0 0 1.223l2.038.784c.297.114.532.349.647.646l.784 2.038a.655.655 0 0 0 1.223 0l.784-2.038c.114-.297.349-.532.646-.647l2.038-.784a.655.655 0 0 0 0-1.223l-2.038-.784a1.13 1.13 0 0 1-.647-.646"/><path fill="#090404" d="M4.89 9.035 4.408 7.78a.437.437 0 0 0-.816 0L3.11 9.035a1 1 0 0 1-.575.575l-1.255.482a.437.437 0 0 0 0 .816l1.255.482a1 1 0 0 1 .575.575l.482 1.255a.437.437 0 0 0 .816 0l.482-1.255a1 1 0 0 1 .575-.575l1.255-.482a.437.437 0 0 0 0-.816L5.465 9.61a1 1 0 0 1-.575-.575"/><path fill="#090404" d="M14.501 6.5a2.5 2.5 0 1 0-5 0 2.5 2.5 0 0 0 5 0m2 0a4.5 4.5 0 1 1-9 0 4.5 4.5 0 0 1 9 0"/><path fill="#090404" d="M12 12a1 1 0 1 1 0 2c-3.242 0-5.61 2.098-6.32 5H12a1 1 0 1 1 0 2H5.598c-1.135 0-2.192-1.014-1.902-2.304C4.553 14.884 7.7 12 12 12"/></svg>