<svg xmlns="http://www.w3.org/2000/svg" fill="none" viewBox="0 0 24 24"><path fill="#090404" d="M18 12.5a1 1 0 1 0-2 0 1 1 0 0 0 2 0m2 0a3 3 0 1 1-6 0 3 3 0 0 1 6 0"/><path fill="#090404" d="M16.852 16c2.366 0 4.11 1.572 4.748 3.635.42 1.356-.748 2.365-1.839 2.365h-5.817c-1.091 0-2.258-1.009-1.84-2.365.638-2.063 2.383-3.635 4.748-3.635m0 2c-1.285 0-2.298.778-2.759 2h5.518c-.462-1.222-1.474-2-2.759-2"/><path fill="#090404" d="M8 5a1 1 0 1 0-2 0 1 1 0 0 0 2 0m2 0a3 3 0 1 1-6 0 3 3 0 0 1 6 0"/><path fill="#090404" d="M6.852 8.5a4.8 4.8 0 0 1 2.706.812 1 1 0 1 1-1.117 1.659 2.8 2.8 0 0 0-1.589-.471c-1.285 0-2.298.778-2.759 2H8a1 1 0 1 1 0 2H3.944c-1.091 0-2.258-1.009-1.84-2.365C2.743 10.072 4.488 8.5 6.853 8.5"/><path fill="#090404" d="M14.568 2.638a1 1 0 1 1 1.864.724l-7 18a1 1 0 1 1-1.864-.724z"/></svg>