<svg xmlns="http://www.w3.org/2000/svg" fill="none" viewBox="0 0 24 24"><path fill="#090404" d="M14.5 6.5a2.5 2.5 0 1 0-5 0 2.5 2.5 0 0 0 5 0m2 0a4.5 4.5 0 1 1-9 0 4.5 4.5 0 0 1 9 0"/><path fill="#090404" d="M12 12c.809 0 1.582.103 2.311.298a1 1 0 0 1-.517 1.931A7 7 0 0 0 12 14c-3.242 0-5.611 2.098-6.32 5H10a1 1 0 0 1 0 2H5.598c-1.135 0-2.192-1.014-1.902-2.304l.087-.354C4.75 14.706 7.836 12 12 12"/><path fill="#090404" d="M17.586 14a2 2 0 0 1 2.828 0l.586.586.138.151A2 2 0 0 1 21 17.414l-4 4a2 2 0 0 1-1.414.586H14a1 1 0 0 1-1-1v-1.586A2 2 0 0 1 13.586 18zM15 20h.586l4-4-.586-.586-4 4z"/></svg>