<svg xmlns="http://www.w3.org/2000/svg" fill="none" viewBox="0 0 24 24"><path fill="#090404" d="M20.001 17.75c0-.453-.137-.696-.25-.816a.57.57 0 0 0-.417-.184 1.04 1.04 0 0 0-.626.209l-.018.016.014-.014-.072.064a1 1 0 0 1-1.262 0l-.072-.064.014.014-.018-.016a1.04 1.04 0 0 0-.626-.209.57.57 0 0 0-.417.184c-.113.12-.25.363-.25.816 0 .488.377 1.064 1.043 1.614.306.253.621.457.868.594q.047.024.089.044.041-.02.089-.044c.247-.137.562-.341.868-.594.666-.55 1.043-1.126 1.043-1.614m2 0c0 1.428-.998 2.519-1.77 3.156a8 8 0 0 1-1.17.8 5 5 0 0 1-.465.232 3 3 0 0 1-.215.082c-.04.012-.195.063-.38.063s-.34-.05-.38-.063a3 3 0 0 1-.215-.082 5 5 0 0 1-.465-.232 8 8 0 0 1-1.17-.8C14.999 20.27 14 19.178 14 17.75c0-.88.28-1.638.791-2.184a2.57 2.57 0 0 1 1.876-.816c.549 0 1 .147 1.333.309a3 3 0 0 1 1.333-.309c.685 0 1.369.276 1.876.816.512.546.791 1.303.791 2.184"/><path fill="#090404" d="M14.501 6.5a2.5 2.5 0 1 0-5 0 2.5 2.5 0 0 0 5 0m2 0a4.5 4.5 0 1 1-9 0 4.5 4.5 0 0 1 9 0"/><path fill="#090404" d="M12 12q.573 0 1.122.067a1 1 0 0 1-.243 1.986A7 7 0 0 0 12 14c-3.242 0-5.611 2.098-6.32 5h5.82a1 1 0 0 1 0 2H5.598c-1.135 0-2.192-1.014-1.902-2.304l.087-.354C4.75 14.706 7.836 12 12 12"/></svg>