<svg xmlns="http://www.w3.org/2000/svg" fill="none" viewBox="0 0 24 24"><path fill="#090404" d="M14.501 6.5a2.5 2.5 0 1 0-5 0 2.5 2.5 0 0 0 5 0m2 0a4.5 4.5 0 1 1-9 0 4.5 4.5 0 0 1 9 0"/><path fill="#090404" d="M12 12q.573 0 1.122.067a1 1 0 0 1-.243 1.986A7 7 0 0 0 12 14c-3.242 0-5.611 2.098-6.32 5H12a1 1 0 0 1 0 2H5.598c-1.135 0-2.192-1.014-1.902-2.304l.087-.354C4.75 14.706 7.836 12 12 12"/><path fill="#090404" d="M19.295 15.293a1 1 0 1 1 1.414 1.414L19.416 18l1.293 1.293a1 1 0 1 1-1.414 1.414l-1.293-1.293-1.293 1.293a1 1 0 1 1-1.414-1.414L16.588 18l-1.293-1.293a1 1 0 1 1 1.414-1.414l1.293 1.293z"/></svg>