<svg xmlns="http://www.w3.org/2000/svg" fill="none" viewBox="0 0 24 24"><circle cx="14" cy="3.25" r="1" fill="#090404"/><circle cx="14" cy="6.5" r="1" fill="#090404"/><circle cx="17" cy="5" r=".75" fill="#090404"/><circle cx="17" cy="8" r=".75" fill="#090404"/><circle cx="14" cy="9.75" r="1" fill="#090404"/><circle cx="14" cy="13" r="1" fill="#090404"/><circle cx="17" cy="13" r=".75" fill="#090404"/><circle cx="20" cy="16.5" r=".75" fill="#090404"/><circle cx="14" cy="16.5" r="1" fill="#090404"/><circle cx="17" cy="16.5" r="1" fill="#090404"/><circle cx="14" cy="20" r="1" fill="#090404"/><circle cx="17" cy="20" r="1" fill="#090404"/><circle cx="20" cy="20" r="1" fill="#090404"/><path fill="#090404" d="M7.5 6.5c0-2.04 1.357-3.76 3.215-4.313a1 1 0 1 1 .57 1.916 2.503 2.503 0 0 0 0 4.794 1 1 0 1 1-.57 1.917A4.5 4.5 0 0 1 7.5 6.5"/><path fill="#090404" d="M10.879 12.068a1 1 0 1 1 .242 1.985c-2.776.34-4.795 2.305-5.44 4.947H11a1 1 0 0 1 0 2H5.598c-1.135 0-2.192-1.015-1.902-2.304.778-3.463 3.45-6.17 7.183-6.628"/></svg>