<svg xmlns="http://www.w3.org/2000/svg" fill="none" viewBox="0 0 24 24"><path fill="#090404" d="M12 10c1.05 0 2.14.598 3.048 1.318.944.75 1.857 1.767 2.563 2.872.701 1.098 1.245 2.354 1.364 3.585.123 1.264-.206 2.555-1.311 3.502-.798.684-1.663.86-2.505.622-.732-.206-1.353-.706-1.81-1.097l-.01-.009-.01-.009c-.269-.242-.754-.42-1.313-.42-.568 0-.982.181-1.165.371l-.033.035-.037.032c-.482.413-1.13.9-1.89 1.102-.845.224-1.74.071-2.555-.627-1.106-.947-1.434-2.238-1.312-3.502.12-1.231.663-2.487 1.364-3.585.707-1.105 1.62-2.121 2.564-2.872C9.859 10.598 10.949 10 12 10m0 2c-.362 0-1.005.249-1.804.884-.761.605-1.528 1.453-2.122 2.384-.6.938-.98 1.89-1.059 2.7-.075.78.124 1.364.622 1.79.308.265.525.27.742.213.298-.08.655-.309 1.087-.677.684-.672 1.675-.93 2.55-.93.9 0 1.904.27 2.634.92.463.396.788.616 1.052.69a.5.5 0 0 0 .267.014c.08-.019.21-.072.394-.23.497-.425.697-1.01.621-1.79-.079-.81-.459-1.762-1.058-2.7-.595-.93-1.361-1.78-2.123-2.384C13.005 12.249 12.362 12 12 12"/><path fill="#090404" d="m8.95 2.002.163.014c.797.101 1.379.672 1.73 1.237.39.63.621 1.436.653 2.276.031.838-.139 1.65-.505 2.284-.36.625-1.02 1.226-1.942 1.185-.881-.04-1.518-.648-1.892-1.25-.39-.631-.622-1.437-.653-2.277-.032-.838.138-1.65.505-2.284.338-.586.938-1.15 1.772-1.185zm-.074 2.01a.6.6 0 0 0-.135.174c-.142.245-.26.668-.24 1.21.021.54.171.999.356 1.297.123.198.22.268.266.293a.6.6 0 0 0 .136-.172c.141-.245.26-.668.239-1.21-.02-.54-.17-.999-.356-1.297-.123-.2-.222-.27-.266-.294"/><path fill="#090404" d="M15.049 2.002c.923-.041 1.582.56 1.942 1.185.366.635.536 1.446.505 2.284-.032.84-.263 1.646-.653 2.276-.374.603-1.011 1.212-1.892 1.251-.923.041-1.582-.56-1.943-1.184-.366-.635-.536-1.447-.504-2.285.031-.84.262-1.646.653-2.276.374-.603 1.01-1.212 1.892-1.251m.074 2.01c-.045.026-.143.097-.266.295-.185.298-.335.757-.355 1.297-.02.542.097.965.239 1.21a.6.6 0 0 0 .135.172c.045-.025.143-.094.266-.293.185-.298.335-.757.356-1.296.02-.543-.098-.966-.24-1.211a.6.6 0 0 0-.135-.173"/><path fill="#090404" d="M4.064 6.005c.775-.062 1.435.344 1.876.818.482.518.826 1.23.977 2.006.15.775.096 1.562-.17 2.216-.261.646-.799 1.293-1.655 1.43-.843.135-1.562-.294-2.033-.799-.482-.518-.826-1.23-.976-2.006s-.097-1.562.169-2.216c.262-.646.8-1.293 1.656-1.43zm.163 2a.5.5 0 0 0-.123.2c-.097.24-.148.624-.058 1.085.089.459.283.814.477 1.023.127.137.213.171.248.18a.5.5 0 0 0 .124-.2c.097-.238.148-.623.059-1.084-.09-.459-.284-.814-.478-1.023-.128-.138-.215-.173-.249-.182"/><path fill="#090404" d="m19.935 6.005.157.019.157.032c.766.187 1.253.792 1.499 1.398.265.654.32 1.44.169 2.216-.15.777-.495 1.488-.977 2.006-.47.505-1.19.934-2.032.8-.857-.138-1.394-.785-1.656-1.43-.266-.655-.32-1.442-.17-2.217.151-.777.495-1.488.977-2.006.441-.474 1.101-.88 1.876-.818m-.164 2c-.034.009-.12.044-.248.181-.194.209-.388.564-.477 1.023-.09.46-.039.846.058 1.085.051.124.098.178.123.2.034-.01.12-.043.25-.181.193-.209.388-.564.477-1.023.09-.46.038-.846-.059-1.084a.5.5 0 0 0-.124-.202"/></svg>