<svg xmlns="http://www.w3.org/2000/svg" fill="none" viewBox="0 0 24 24"><path fill="#090404" d="M8 5v14h8V5zm10 14a2 2 0 0 1-2 2H8a2 2 0 0 1-2-2V5a2 2 0 0 1 2-2h8a2 2 0 0 1 2 2z"/><path fill="#090404" d="M13 6a1 1 0 1 1 0 2h-2a1 1 0 1 1 0-2z"/><path fill="#090404" d="M2.793 7.293a1 1 0 1 1 1.414 1.414l-1.386 1.387.529.706a2 2 0 0 1 0 2.4l-.53.706 1.387 1.387a1 1 0 1 1-1.414 1.414L1.406 15.32a2 2 0 0 1-.185-2.614L1.75 12l-.53-.706a2 2 0 0 1 .185-2.614zm17 0a1 1 0 0 1 1.414 0l1.387 1.387a2 2 0 0 1 .185 2.614L22.25 12l.53.706a2 2 0 0 1-.186 2.614l-1.387 1.387a1 1 0 1 1-1.414-1.414l1.387-1.387-.53-.706a2 2 0 0 1 0-2.4l.53-.706-1.387-1.387a1 1 0 0 1 0-1.414"/></svg>