<svg xmlns="http://www.w3.org/2000/svg" fill="none" viewBox="0 0 24 24"><path fill="#090404" fill-rule="evenodd" d="M9.818 3.175A12.5 12.5 0 0 1 11.893 3c.742-.003 1.516.053 2.262.175 1.178.195 2.17 1.069 2.17 2.233v4.089c0 1.199-.963 2.182-2.17 2.182H9.818c-1.472 0-2.712 1.25-2.712 2.667v1.962H5.613c-1.262 0-1.999-.906-2.307-2.177-.417-1.708-.399-2.729 0-4.364C3.65 8.34 4.756 7.59 6.018 7.59h5.971v-.546H7.647V5.408c0-1.24.334-1.912 2.171-2.233m.542 1.962a.82.82 0 0 0-.815-.82.818.818 0 0 0 0 1.636.816.816 0 0 0 .815-.816" clip-rule="evenodd"/><path fill="#090404" fill-rule="evenodd" d="M16.867 9.496V7.59h1.63c1.263 0 1.858.934 2.17 2.177.434 1.725.453 3.019 0 4.364-.439 1.307-.91 2.177-2.17 2.177h-6.508v.546h4.336v1.636c0 1.24-1.077 1.87-2.17 2.183-1.645.471-2.963.4-4.337 0-1.148-.334-2.171-1.019-2.171-2.183v-4.089c0-1.176.983-2.182 2.17-2.182h4.338c1.445 0 2.712-1.244 2.712-2.723m-1.625 9.265a.815.815 0 1 0-1.629 0c0 .452.366.82.815.82.45 0 .814-.368.814-.82" clip-rule="evenodd"/></svg>