<svg xmlns="http://www.w3.org/2000/svg" fill="none" viewBox="0 0 24 24"><path fill="#090404" d="M10 11.4V6.072A7 7 0 1 0 17.928 14H12.6c-.264 0-.522.001-.739-.017a2 2 0 0 1-.77-.2 2 2 0 0 1-.873-.875 2 2 0 0 1-.201-.77c-.018-.216-.017-.474-.017-.738m2 0c0 .297.001.46.01.576l.002.011.012.002c.117.01.28.011.576.011H19a1 1 0 0 1 1 1 9 9 0 1 1-9-9 1 1 0 0 1 1 1z"/><path fill="#090404" d="M15.273 2.187c.179-.026.34-.014.474.008.15.025.312.073.426.105A8.01 8.01 0 0 1 21.7 7.827c.032.114.08.276.105.427.03.179.041.405-.032.66-.1.35-.343.67-.653.862a1.5 1.5 0 0 1-.648.21c-.155.016-.33.014-.466.014H15.8c-.123 0-.276.001-.41-.01a1.5 1.5 0 0 1-.57-.153 1.5 1.5 0 0 1-.657-.655 1.5 1.5 0 0 1-.153-.572c-.011-.133-.01-.286-.01-.41V3.994c0-.136 0-.311.015-.466.017-.174.062-.41.209-.648l.078-.113a1.54 1.54 0 0 1 .785-.54zM16 8h3.658A6.02 6.02 0 0 0 16 4.34z"/></svg>