<svg xmlns="http://www.w3.org/2000/svg" fill="none" viewBox="0 0 24 24"><path fill="#090404" d="M13 19h-2a2 2 0 0 1-2 2H7a2 2 0 0 1-2-2v-1.453A5.8 5.8 0 0 1 3.452 16H3a2 2 0 0 1-2-2v-3.065a2 2 0 0 1 2-2h.325c.286-.648.656-1.291 1.175-1.851V5c0-1.047.89-2.119 2.161-1.906 1.33.222 2.248.804 2.839 1.353.211.196.378.387.508.553H14a7 7 0 0 1 7 7c0 .68-.1 1.337-.282 1.958a.996.996 0 0 0 1.148-1.457 1 1 0 0 1 1.73-1.002 3 3 0 0 1-3.715 4.284A7 7 0 0 1 19 16.886V19a2 2 0 0 1-2 2h-2a2 2 0 0 1-2-2M8.582 6.45l-.002-.002-.002-.005-.002-.003zm-.006-.012v.001q0-.002-.004-.006a2 2 0 0 0-.07-.109 2.6 2.6 0 0 0-.363-.413c-.32-.298-.841-.645-1.639-.812v2.4a1 1 0 0 1-.33.742c-.543.49-.916 1.176-1.23 2.036a1 1 0 0 1-.94.657H3V14h1a1 1 0 0 1 .865.5c.437.754.88 1.195 1.638 1.636A1 1 0 0 1 7 17v2h2a2 2 0 0 1 2-2h2a2 2 0 0 1 2 2h2v-2.537a1 1 0 0 1 .332-.744A4.98 4.98 0 0 0 19 11.999a5 5 0 0 0-5-5H9.474a1 1 0 0 1-.828-.439z"/><path fill="#090404" d="M8.312 9.503q.024 0 .05.004.013 0 .027.002l.046.007.035.005.042.007.05.013.028.008.038.01.042.015.078.031.031.014.041.02.042.023.013.006.007.005.048.03a1 1 0 0 1 .092.067q.021.015.041.033l.023.02a1 1 0 0 1 .092.091l.02.023.032.04.026.032.012.016a1 1 0 0 1 .055.086l.01.014.006.013.022.042q.013.024.024.05l.01.02.013.035.018.045.014.042.011.037v.001l.008.03q.007.024.013.05l.003.01q0 .008.002.014l.007.042a1 1 0 0 1 .015.183l.001.011-.001.01q0 .028-.002.056v.027a1 1 0 0 1-.02.138l-.005.029-.011.047-.004.016-.006.018q-.004.017-.009.034-.007.023-.015.044l-.019.046-.012.033-.011.023-.024.05-.022.041-.006.013-.01.014-.021.035-.03.044-.011.016-.03.039-.034.04-.02.023a1 1 0 0 1-.091.092l-.023.02-.04.032-.034.026-.021.015-.08.052-.013.01-.013.006-.042.022q-.024.013-.05.024l-.02.01-.035.013-.045.018-.042.014-.037.011H8.59l-.03.008q-.024.007-.05.013l-.029.005a1 1 0 0 1-.103.015l-.003.001-.016.001a1 1 0 0 1-.1.005L8.25 12l-.01-.001a1 1 0 0 1-.1-.005h-.016l-.003-.002-.056-.007q-.024-.003-.047-.008l-.028-.005-.05-.013-.03-.008-.038-.01-.042-.015-.045-.018-.035-.013-.02-.01q-.026-.011-.05-.024l-.042-.022-.013-.006-.014-.01a1 1 0 0 1-.079-.052l-.021-.015-.074-.059-.023-.02a1 1 0 0 1-.092-.091l-.02-.023-.032-.04q-.016-.019-.03-.039l-.01-.015-.032-.045-.026-.044-.038-.071-.015-.03-.015-.031-.018-.046-.013-.033-.015-.044-.01-.034-.005-.018-.004-.016-.01-.045q-.005-.021-.008-.042l-.005-.035-.007-.046-.002-.028-.005-.06L7 10.76 7 10.75l.001-.01.002-.053q0-.024.004-.05 0-.013.002-.027l.008-.054.005-.033.001-.01.005-.025.013-.05.008-.028.01-.038.015-.042.016-.04.015-.04a1.4 1.4 0 0 1 .1-.185l.027-.04.012-.016.026-.031q.015-.021.033-.041l.02-.023a1 1 0 0 1 .091-.092l.023-.02.04-.032a1 1 0 0 1 .093-.067l.048-.03.007-.005.013-.006.042-.022.04-.02.032-.015.078-.03.042-.015.037-.011h.001l.027-.008.051-.013.041-.007.035-.005.046-.007.028-.002.05-.004.051-.002.011-.001.01.001z"/></svg>