<svg xmlns="http://www.w3.org/2000/svg" fill="none" viewBox="0 0 24 24"><path fill="#090404" d="M20 6a1 1 0 0 0-1.575-.818c-.421.297-1.15.681-1.986.476C15.023 5.311 13.363 5 12 5s-3.023.31-4.438.658c-.837.205-1.566-.18-1.987-.476a1 1 0 0 0-1.416 1.36c.279.43.625 1.158.404 1.973C4.253 9.663 4 10.939 4 12s.253 2.337.563 3.485c.22.815-.125 1.543-.404 1.973a1 1 0 0 0 1.414 1.361c.421-.295 1.15-.676 1.984-.471 1.4.344 3.053.652 4.443.652s3.042-.308 4.443-.652c.834-.205 1.563.176 1.984.471a1 1 0 0 0 1.414-1.361c-.279-.43-.625-1.158-.405-1.973.31-1.148.564-2.424.564-3.485s-.253-2.337-.564-3.485c-.22-.815.126-1.543.405-1.973.1-.156.159-.34.159-.542m2 0c0 .6-.177 1.16-.481 1.63a1.1 1.1 0 0 0-.14.287c-.019.067-.01.086-.012.076C21.693 9.2 22 10.675 22 12s-.307 2.8-.633 4.007c.003-.01-.007.009.012.076.02.072.064.17.14.287a3 3 0 0 1-4.241 4.086 1.1 1.1 0 0 0-.286-.151c-.067-.021-.084-.012-.071-.015-1.451.357-3.288.71-4.921.71s-3.47-.353-4.92-.71c.011.003-.005-.006-.072.015-.072.022-.17.07-.285.151a3 3 0 0 1-4.241-4.086 1.1 1.1 0 0 0 .14-.287c.018-.067.008-.086.01-.076C2.308 14.8 2 13.325 2 12s.307-2.8.633-4.007c-.003.01.007-.009-.012-.076a1.1 1.1 0 0 0-.14-.287 3 3 0 0 1 4.247-4.082c.116.082.214.13.286.153.067.021.084.012.071.015C8.545 3.358 10.392 3 12 3s3.455.358 4.915.716c-.013-.003.004.006.071-.015.072-.022.17-.071.285-.153A3 3 0 0 1 22 6"/><path fill="#090404" d="M14 8.5a1 1 0 0 1 .781 1.625l-2.7 3.375h1.92a1 1 0 1 1 0 2h-4a1 1 0 0 1-.782-1.625l2.7-3.375H10a1 1 0 1 1 0-2z"/></svg>