<svg xmlns="http://www.w3.org/2000/svg" fill="none" viewBox="0 0 24 24"><path fill="#090404" d="M9.172 3.17a4 4 0 1 1 5.655 5.66 4 4 0 0 1-5.655-5.66m4.242 1.416a2 2 0 1 0-2.83 2.83 2 2 0 0 0 2.83-2.83"/><path fill="#090404" d="M11 17V9a1 1 0 1 1 2 0v8a1 1 0 1 1-2 0"/><path fill="#090404" d="M2 17.5c0-1.218.89-2.12 1.865-2.72 1.017-.625 2.394-1.097 3.946-1.397a1 1 0 1 1 .378 1.963c-1.411.272-2.535.681-3.277 1.137-.783.482-.912.86-.912 1.017 0 .109.053.322.384.627.332.305.868.626 1.614.916C7.485 19.621 9.606 20 12 20s4.515-.379 6.002-.957c.746-.29 1.282-.61 1.614-.916.332-.305.384-.518.384-.627 0-.156-.129-.535-.912-1.017-.742-.456-1.866-.865-3.278-1.137a1 1 0 1 1 .38-1.963c1.551.3 2.928.772 3.945 1.397.975.6 1.865 1.502 1.865 2.72 0 .858-.45 1.566-1.03 2.099-.579.532-1.361.965-2.243 1.308C16.956 21.596 14.577 22 12 22s-4.956-.404-6.727-1.093c-.882-.343-1.664-.776-2.243-1.308C2.45 19.066 2 18.358 2 17.5"/></svg>