<svg xmlns="http://www.w3.org/2000/svg" fill="none" viewBox="0 0 24 24"><path fill="#090404" d="M6.374 3.42c1.459-.87 3.309-.34 4.13 1.132l1.508 2.699 3.47-2.07c1.94-1.157 4.406-.456 5.505 1.512l.92 1.646c2.246 4.022.925 9.18-3 11.521a8.01 8.01 0 0 1-8.507-.17l-5.446-3.551a1 1 0 0 1-.443-.984l.181-1.233c.206-1.394 1.313-2.461 2.66-2.605L5.276 7.604C4.465 6.151 4.935 4.28 6.374 3.42m2.385 2.106c-.289-.515-.897-.665-1.36-.388-.485.289-.674.957-.376 1.49l3.016 5.398a1 1 0 0 1-1.028 1.476l-1.195-.188c-.518-.081-1.055.285-1.145.899l-.09.6 4.911 3.2a6.01 6.01 0 0 0 6.39.13c2.97-1.771 4.012-5.725 2.278-8.829l-.919-1.645c-.566-1.013-1.79-1.333-2.734-.77l-4.352 2.597a1 1 0 0 1-1.386-.371zM1.567 7.39a1 1 0 0 1 1.865.72c-.577 1.493-.577 2.787 0 4.28a1 1 0 0 1-1.865.72c-.756-1.956-.756-3.764 0-5.72"/></svg>