<svg xmlns="http://www.w3.org/2000/svg" fill="none" viewBox="0 0 24 24"><path fill="#090404" d="M7.39 18.244c-.22.988-.17 2.308-.075 3.302.047.491.71.617.966.212.53-.838 1.287-1.947 1.539-2.92l.784-3.024c.42.785 1.645 1.454 2.926 1.454 3.826 0 6.6-3.54 6.6-7.92C20.13 5.156 16.704 2 12.286 2c-5.49 0-8.416 3.693-8.416 7.71 0 1.876.995 4.191 2.582 4.937.23.115.364.058.421-.172.038-.172.249-1.033.344-1.435.02-.134 0-.23-.095-.364-.536-.63-.957-1.817-.957-2.908 0-2.812 2.143-5.53 5.758-5.53 3.117 0 5.317 2.144 5.317 5.186 0 3.444-1.74 5.836-3.998 5.836-1.262 0-2.2-1.034-1.893-2.297.363-1.511 1.052-3.157 1.052-4.247 0-.976-.517-1.799-1.607-1.799-1.262 0-2.295 1.32-2.295 3.1 0 1.129.382 1.894.382 1.894S7.62 17.25 7.39 18.244"/></svg>