<svg xmlns="http://www.w3.org/2000/svg" fill="none" viewBox="0 0 24 24"><path fill="#090404" d="M18.437 3.253a2 2 0 0 1 2.31 2.31L18.242 20.17c-.186 1.083-1.244 1.868-2.386 1.588a18.5 18.5 0 0 1-8.703-4.911 18.53 18.53 0 0 1-4.911-8.703c-.28-1.143.505-2.2 1.588-2.386zM4.2 7.723a16.5 16.5 0 0 0 4.369 7.709 16.5 16.5 0 0 0 7.708 4.368l2.499-14.575z"/><path fill="#090404" d="M7.454 6.134a13 13 0 0 0 3.604 6.808 13.02 13.02 0 0 0 6.81 3.604l.982.185-.373 1.966-.982-.186a15 15 0 0 1-7.851-4.155 15.02 15.02 0 0 1-4.155-7.851l-.185-.983 1.965-.37z"/><path fill="#090404" d="M12 15a4 4 0 0 1 7.225-2.367l.591.806-1.61 1.184-.593-.806a2 2 0 0 0-3.542 1.715l.265.964-1.928.53-.265-.963A4 4 0 0 1 12 15"/><path fill="#090404" d="M11 6c0-.338.056-.665.16-.97l.324-.946 1.893.646-.323.947a1 1 0 1 0 1.732-.296l-.622-.785 1.568-1.24.622.782A3 3 0 1 1 11 6"/></svg>