<svg xmlns="http://www.w3.org/2000/svg" fill="none" viewBox="0 0 24 24"><path fill="#090404" d="M16.445 17a2 2 0 1 0-4 0 2 2 0 0 0 4 0m2 0a4 4 0 1 1-8 0 4 4 0 0 1 8 0"/><path fill="#090404" d="M4.36 6.192a1 1 0 0 1 .985.174l5.308 4.453a1 1 0 0 1-.3 1.705l-6.512 2.37a1 1 0 0 1-1.326-1.113l1.203-6.823.032-.129a1 1 0 0 1 .61-.637m.425 6.23 3.255-1.185L5.386 9.01z"/><path fill="#090404" d="M13.469 4.457a2 2 0 0 1 2.45-1.414l3.863 1.035a2 2 0 0 1 1.415 2.45l-1.036 3.864a2 2 0 0 1-2.449 1.414l-3.864-1.035a2 2 0 0 1-1.414-2.45zm.896 4.382 3.865 1.035 1.035-3.864L15.4 4.975z"/></svg>