<svg xmlns="http://www.w3.org/2000/svg" fill="none" viewBox="0 0 24 24"><path fill="#090404" fill-rule="evenodd" d="m8.964 19.983 3.927 1.318V7.035c0-.495.335-1.092.733-1.092.508 0 .829.69.829 1.093v5.378c.324.189 1.084.567 1.53.567h.034c.606.001 2.721.007 2.721-3.218 0-3.288-1.735-4.53-3.183-5.002L8.964 2.7zm-1.09-.986v-1.894c-.915.34-1.754.615-2.27.696-.97.15-2.025.04-1.893-.512.113-.472 2.52-1.31 4.163-1.831V13.3C4.76 14.272 0 15.916 0 17.013c0 1.55 3.642 2.016 4.496 2.067.497.03 1.88.08 3.377-.083M24 16.342c0 1.046-6.389 3.43-10.017 4.641v-2.256a331 331 0 0 0 5.289-1.97c1.292-.518 1.524-.854.905-1.138-.401-.184-1.267-.228-2.015 0a99 99 0 0 0-4.179 1.431v-2.155c1.377-.375 2.843-.675 4.023-.723 2.31-.09 5.994.8 5.994 2.17" clip-rule="evenodd"/></svg>