<svg xmlns="http://www.w3.org/2000/svg" fill="none" viewBox="0 0 24 24"><path fill="#090404" d="M12.208 15.51a1.906 1.906 0 0 1 1.687 2.085l-.35 3.507a1.553 1.553 0 0 1-3.09 0l-.35-3.507A1.905 1.905 0 0 1 12 15.5z"/><path fill="#090404" d="M10 12a2 2 0 1 1 4 0 2 2 0 0 1-4 0"/><path fill="#090404" d="M20 12a8 8 0 1 0-12.423 6.667 1 1 0 0 1-1.107 1.666A9.99 9.99 0 0 1 2 12C2 6.477 6.477 2 12 2s10 4.477 10 10a9.99 9.99 0 0 1-4.47 8.333 1 1 0 0 1-1.107-1.666A7.99 7.99 0 0 0 20 12"/><path fill="#090404" d="M16 12a4 4 0 1 0-7.2 2.4 1 1 0 0 1-1.6 1.202 6 6 0 1 1 9.6 0 1 1 0 0 1-1.6-1.203c.502-.668.8-1.497.8-2.399"/></svg>