<svg xmlns="http://www.w3.org/2000/svg" fill="none" viewBox="0 0 24 24"><circle cx="9" cy="3" r="2" fill="#090404"/><circle cx="15" cy="3" r="2" fill="#090404"/><path fill="#090404" d="M5 8V5.535a2 2 0 0 1 .89-1.664l2.555-1.703a1 1 0 1 1 1.11 1.664L7 5.535V8a1 1 0 0 1-2 0"/><path fill="#090404" d="M19 8V5.535a2 2 0 0 0-.89-1.664l-2.555-1.703a1 1 0 1 0-1.11 1.664L17 5.535V8a1 1 0 1 0 2 0"/><path fill="#090404" d="M5 9v2h14V9zm16 2a2 2 0 0 1-2 2H5a2 2 0 0 1-2-2V9a2 2 0 0 1 2-2h14a2 2 0 0 1 2 2z"/><path fill="#090404" d="M18.563 11.002a1 1 0 0 1 .935 1.06l-.324 5.188A4 4 0 0 1 15.182 21H8.818a4 4 0 0 1-3.992-3.75l-.324-5.187a1 1 0 0 1 1.996-.126l.324 5.188A2 2 0 0 0 8.818 19h6.364a2 2 0 0 0 1.996-1.875l.324-5.187a1 1 0 0 1 1.06-.936"/></svg>