<svg xmlns="http://www.w3.org/2000/svg" fill="none" viewBox="0 0 24 24"><path fill="#090404" d="M18.364 7a2 2 0 0 1 1.984 2.254l-1.41 11A2 2 0 0 1 16.953 22H7.047a2 2 0 0 1-1.984-1.746l-1.41-11A2 2 0 0 1 5.637 7zM7.047 20h9.907l1.41-11H5.637z"/><path fill="#090404" d="M9.481 7.501a1 1 0 0 1 1.037.96l.462 12a1 1 0 0 1-1.999.077l-.46-12a1 1 0 0 1 .96-1.037"/><path fill="#090404" d="M14.52 7.501a1 1 0 0 1 .96 1.037l-.462 12a1 1 0 0 1-1.998-.076l.461-12A1 1 0 0 1 14.52 7.5"/><path fill="#090404" d="M18 8v-.254a.596.596 0 0 0-.451-.578 2.6 2.6 0 0 1-1.78-1.554l-.202-.504a.53.53 0 0 0-.619-.316 2.53 2.53 0 0 1-2.13-.43L12.6 4.2a1 1 0 0 0-1.2 0l-.218.163a2.53 2.53 0 0 1-2.13.43.53.53 0 0 0-.62.317l-.2.504a2.6 2.6 0 0 1-1.78 1.554.596.596 0 0 0-.452.578V8a1 1 0 1 1-2 0v-.254c0-1.191.81-2.23 1.966-2.519a.6.6 0 0 0 .408-.356l.202-.504a2.53 2.53 0 0 1 2.961-1.514.53.53 0 0 0 .445-.09L10.2 2.6a3 3 0 0 1 3.6 0l.218.164a.53.53 0 0 0 .445.09 2.53 2.53 0 0 1 2.96 1.513l.203.504c.071.177.223.31.408.356A2.596 2.596 0 0 1 20 7.746V8a1 1 0 1 1-2 0"/></svg>