<svg xmlns="http://www.w3.org/2000/svg" fill="none" viewBox="0 0 24 24"><path fill="#090404" d="M17 6a3 3 0 0 0-3-3h-4a3 3 0 0 0-3 3v10h10zm2 10a2 2 0 0 1-2 2H7a2 2 0 0 1-2-2V6a5 5 0 0 1 5-5h4a5 5 0 0 1 5 5z"/><path fill="#090404" d="M13 18h-2v2a1 1 0 1 0 2 0zm2 2a3 3 0 1 1-6 0v-4h6z"/><path fill="#090404" d="M17.334 8.755a1 1 0 0 1 1.406 1.418l-.076.075-.005.004q-.007.004-.016.015l-.06.051q-.077.067-.213.181c-.18.149-.432.351-.725.566-.556.408-1.37.946-2.14 1.173-1.457.43-2.626.006-3.522-.36-.954-.39-1.515-.648-2.199-.562-.451.058-1 .3-1.568.698a7.2 7.2 0 0 0-1.435 1.342 1 1 0 0 1-1.561-1.252 9.2 9.2 0 0 1 1.85-1.729c.712-.498 1.568-.93 2.462-1.043 1.32-.167 2.434.378 3.207.693.83.34 1.44.52 2.198.295.41-.121.986-.473 1.525-.868a14 14 0 0 0 .814-.646l.046-.04.01-.01z"/></svg>