<svg xmlns="http://www.w3.org/2000/svg" fill="none" viewBox="0 0 24 24"><path fill="#090404" d="M9.153 7a2 2 0 0 1 1.973 1.67l1.86 11.166A1 1 0 0 1 12 21H4a1 1 0 0 1-.986-1.164L4.874 8.67A2 2 0 0 1 6.847 7zM5.181 19h5.638L9.153 9H6.847z"/><path fill="#090404" d="M7 5a3 3 0 0 1 3-3h9a1 1 0 1 1 0 2h-9a1 1 0 0 0-.995.897l-.01.206A1 1 0 0 1 7 5"/><path fill="#090404" d="M18.64 10.232c.994-.696 2.36.015 2.36 1.228V20a1 1 0 0 1-1 1h-8a1 1 0 0 1-.986-.836l-1.078-6.449a1 1 0 0 1 .387-.965l3.278-2.453.094-.065c.982-.63 2.305.07 2.305 1.266v.582zm-3.067 4.587A1 1 0 0 1 14 14v-1.504l-1.992 1.49.839 5.014H19v-6.58z"/></svg>