<svg xmlns="http://www.w3.org/2000/svg" fill="none" viewBox="0 0 24 24"><path fill="#090404" d="M12 2.5c1.734 0 3.346.233 4.559.637.6.2 1.16.462 1.588.8.418.329.853.85.853 1.563 0 .714-.435 1.234-.852 1.563-.43.338-.988.6-1.59.8-1.212.404-2.824.637-4.558.637s-3.346-.233-4.559-.637c-.6-.2-1.16-.462-1.588-.8C5.435 6.734 5 6.213 5 5.5c0-.714.435-1.234.853-1.563.428-.338.987-.6 1.588-.8C8.654 2.733 10.266 2.5 12 2.5m0 2c-1.58 0-2.968.215-3.927.534-.476.159-.792.327-.972.466.18.14.496.307.972.466.96.32 2.348.534 3.927.534s2.968-.215 3.927-.534c.475-.159.791-.327.971-.466-.18-.139-.496-.307-.971-.466-.96-.32-2.348-.534-3.927-.534"/><path fill="#090404" d="M16.91 9.993c.189-.15.09-.155.09.007h2c0 .714-.435 1.234-.852 1.563-.43.338-.988.6-1.59.8-1.212.404-2.824.637-4.558.637s-3.346-.233-4.559-.637c-.6-.2-1.16-.461-1.588-.8C5.435 11.234 5 10.714 5 10h2c0-.162-.099-.156.09-.007.18.14.499.311.983.473.96.32 2.348.534 3.927.534s2.968-.215 3.927-.534c.484-.162.804-.332.982-.473"/><path fill="#090404" d="M7 5.5v5.22L4.84 15.4c-.51 1.103-.333 1.996.238 2.405C6.16 18.578 8.23 19.5 12 19.5s5.84-.922 6.922-1.695c.571-.41.747-1.302.238-2.406L17 10.72V5.5h2v4.78l1.976 4.28c.677 1.468.842 3.631-.89 4.87-1.48 1.06-3.978 2.07-8.086 2.07s-6.606-1.01-8.087-2.07c-1.731-1.239-1.566-3.402-.889-4.87L5 10.28V5.5z"/></svg>