<svg xmlns="http://www.w3.org/2000/svg" fill="none" viewBox="0 0 24 24"><path fill="#090404" d="M8 4v2h8V4zm10 2a2 2 0 0 1-2 2H8a2 2 0 0 1-2-2V4a2 2 0 0 1 2-2h8a2 2 0 0 1 2 2z"/><path fill="#090404" d="M16 15H8v5h8zm2 5a2 2 0 0 1-2 2H8a2 2 0 0 1-2-2v-6a1 1 0 0 1 1-1h10a1 1 0 0 1 1 1z"/><path fill="#090404" d="M17 13a1 1 0 0 1 1 1v2h2V8H4v8h2v-2a1 1 0 0 1 1-1zm5 3a2 2 0 0 1-2 2h-3a1 1 0 0 1-1-1v-2H8v2a1 1 0 0 1-1 1H4a2 2 0 0 1-2-2V8a2 2 0 0 1 2-2h16a2 2 0 0 1 2 2z"/><path fill="#090404" d="M9 10a1 1 0 1 1 0 2H7a1 1 0 1 1 0-2z"/></svg>