<svg xmlns="http://www.w3.org/2000/svg" fill="none" viewBox="0 0 24 24"><path fill="#090404" d="M2 8V6a2 2 0 0 1 2-2h2a1 1 0 0 1 0 2H4v2a1 1 0 0 1-2 0"/><path fill="#090404" d="M20 8V6h-2a1 1 0 1 1 0-2h2a2 2 0 0 1 2 2v2a1 1 0 1 1-2 0"/><path fill="#090404" d="M20 18v-2a1 1 0 1 1 2 0v2a2 2 0 0 1-2 2h-2a1 1 0 1 1 0-2z"/><path fill="#090404" d="M2 18v-2a1 1 0 1 1 2 0v2h2a1 1 0 1 1 0 2H4a2 2 0 0 1-2-2"/><path fill="#090404" d="M16 9a1 1 0 1 1 0 2H8a1 1 0 1 1 0-2z"/><path fill="#090404" d="M14 13a1 1 0 1 1 0 2H8a1 1 0 1 1 0-2z"/></svg>