<svg xmlns="http://www.w3.org/2000/svg" fill="none" viewBox="0 0 24 24"><path fill="#090404" d="M11 15.527v-5.054a.75.75 0 0 1 1.191-.607l3.475 2.527a.75.75 0 0 1 0 1.214l-3.475 2.527A.75.75 0 0 1 11 15.527"/><path fill="#090404" d="M9 5H3a1 1 0 0 1-2 0V4a1 1 0 0 1 1-1h8a1 1 0 0 1 1 1v1a1 1 0 1 1-2 0"/><path fill="#090404" d="M5 4a1 1 0 0 1 2 0v6a1 1 0 1 1 0 2H5a1 1 0 1 1 0-2z"/><path fill="#090404" d="M5 19v-3a1 1 0 1 1 2 0v3h12V7h-4a1 1 0 1 1 0-2h4a2 2 0 0 1 2 2v12a2 2 0 0 1-2 2H7a2 2 0 0 1-2-2"/></svg>