<svg xmlns="http://www.w3.org/2000/svg" fill="none" viewBox="0 0 24 24"><path fill="#090404" d="M14 12a2 2 0 1 0-4 0 2 2 0 0 0 4 0m2 0a4 4 0 1 1-8 0 4 4 0 0 1 8 0"/><path fill="#090404" d="M10.629 2.241c1.244-.387 2.726-.267 4.038.069 1.322.338 2.626.935 3.539 1.66.452.36.872.802 1.116 1.321.26.554.322 1.222-.027 1.86-.326.594-.856.924-1.33 1.13-.46.2-.993.332-1.429.445-.981.254-1.65.472-2.056.959l-1.536-1.282c.882-1.057 2.216-1.386 3.09-1.613.492-.127.85-.22 1.136-.345.251-.109.331-.197.362-.246q-.003-.018-.02-.06c-.063-.132-.225-.345-.55-.603-.643-.51-1.672-1.003-2.791-1.289-1.13-.289-2.199-.329-2.947-.096-.36.112-.613.276-.782.473-.163.191-.3.472-.337.914-.048.575.201 1.384.556 2.16a11 11 0 0 0 .625 1.173l.041.066.009.014v.002l-1.673 1.094-.003-.004-.005-.008-.015-.025-.056-.089a13.324 13.324 0 0 1-.742-1.39c-.376-.823-.823-2.036-.73-3.159.067-.807.342-1.5.812-2.049.464-.542 1.069-.884 1.705-1.082"/><path fill="#090404" d="M4.153 8.109c.678-.015 1.229.278 1.643.585.403.3.784.695 1.1 1.016.711.722 1.234 1.192 1.859 1.3l-.342 1.971c-1.357-.235-2.31-1.225-2.943-1.868-.356-.362-.616-.626-.866-.812-.22-.163-.337-.19-.394-.192a.3.3 0 0 0-.041.049c-.084.12-.187.367-.248.778-.121.812-.033 1.949.279 3.06.315 1.124.814 2.07 1.39 2.602.277.256.545.392.8.44.248.046.56.024.961-.165.522-.247 1.099-.867 1.593-1.562a11 11 0 0 0 .703-1.127l.036-.068.009-.018s.026.012.893.451c.834.423.888.45.891.453v.002l-.002.001-.004.01-.013.026q-.019.033-.05.092a13.339 13.339 0 0 1-.833 1.337c-.491.691-1.25 1.608-2.182 2.116l-.188.095c-.732.345-1.47.455-2.18.322-.702-.13-1.3-.483-1.79-.935-.957-.884-1.595-2.228-1.96-3.531-.368-1.315-.503-2.742-.331-3.895.085-.571.257-1.157.585-1.628.35-.502.897-.889 1.624-.905z"/><path fill="#090404" d="M15.377 10.942c.306.001.731.013 1.206.058.9.085 2.175.305 3.1.947.665.462 1.13 1.046 1.37 1.727.237.674.23 1.369.084 2.018-.287 1.271-1.132 2.494-2.079 3.462-.954.977-2.122 1.808-3.207 2.236-.537.212-1.13.355-1.702.306-.61-.052-1.22-.332-1.596-.954-.352-.58-.374-1.204-.315-1.716.057-.499.21-1.027.33-1.46.27-.977.415-1.665.197-2.26l1.876-.69c.475 1.293.095 2.613-.146 3.483-.135.49-.234.846-.27 1.155-.03.271.004.386.03.437q.019.008.064.012c.146.012.412-.021.798-.174.763-.3 1.703-.946 2.51-1.772.816-.834 1.386-1.74 1.558-2.505.083-.368.067-.668-.02-.913-.083-.237-.258-.496-.622-.75-.474-.328-1.3-.517-2.149-.598a11 11 0 0 0-1.405-.042l-.018.001h-.002l-.054-.999-.055-.998h.014l.03-.002.105-.004c.088-.002.214-.005.368-.005"/></svg>