<svg xmlns="http://www.w3.org/2000/svg" fill="none" viewBox="0 0 24 24"><path fill="#090404" d="M7 6a1 1 0 1 0-2 0 1 1 0 0 0 2 0m2 0a3 3 0 1 1-6 0 3 3 0 0 1 6 0"/><path fill="#090404" d="M7 18a1 1 0 1 0-2 0 1 1 0 0 0 2 0m2 0a3 3 0 1 1-6 0 3 3 0 0 1 6 0"/><path fill="#090404" d="M19 18a1 1 0 1 0-2 0 1 1 0 0 0 2 0m2 0a3 3 0 1 1-6 0 3 3 0 0 1 6 0"/><path fill="#090404" d="M5 16V8a1 1 0 0 1 2 0v8a1 1 0 1 1-2 0"/><path fill="#090404" d="M17 16V7h-4a1 1 0 1 1 0-2h4a2 2 0 0 1 2 2v9a1 1 0 1 1-2 0"/><path fill="#090404" d="M13.293 3.293a1 1 0 1 1 1.414 1.414L13.414 6l1.293 1.293a1 1 0 1 1-1.414 1.414l-2-2a1 1 0 0 1 0-1.414z"/></svg>