<svg xmlns="http://www.w3.org/2000/svg" fill="none" viewBox="0 0 24 24"><path fill="#090404" d="M20 18a2 2 0 1 0-4 0 2 2 0 0 0 4 0m2 0a4 4 0 1 1-8 0 4 4 0 0 1 8 0"/><path fill="#090404" d="M8 6a2 2 0 1 0-4 0 2 2 0 0 0 4 0m2 0a4 4 0 1 1-8 0 4 4 0 0 1 8 0"/><path fill="#090404" d="M5 20.5V9a1 1 0 0 1 2 0v11.5a1 1 0 1 1-2 0"/><path fill="#090404" d="M17 15V7h-4a1 1 0 1 1 0-2h4a2 2 0 0 1 2 2v8a1 1 0 1 1-2 0"/><path fill="#090404" d="M13.507 2.831a1 1 0 1 1 1.486 1.338l-1.648 1.83 1.648 1.832a1 1 0 1 1-1.486 1.338l-2.25-2.5a1 1 0 0 1 0-1.338z"/></svg>