<svg xmlns="http://www.w3.org/2000/svg" fill="none" viewBox="0 0 24 24"><path fill="#090404" d="M20 19a1 1 0 1 1 0 2H4a1 1 0 1 1 0-2z"/><path fill="#090404" d="M17 5a2 2 0 1 1 4 0 2 2 0 0 1-4 0"/><path fill="#090404" d="M18 20V6a1 1 0 1 1 2 0v14a1 1 0 1 1-2 0"/><path fill="#090404" d="M17.636 4.461a1 1 0 1 1 .714 1.867L5.807 11.124c.405.525.925.936 1.508 1.21a1 1 0 0 1-.85 1.81 6.1 6.1 0 0 1-3.03-3.142 6.12 6.12 0 0 1 .086-5.005 1 1 0 0 1 1.811.847 4.13 4.13 0 0 0-.33 2.446z"/><path fill="#090404" d="m12.94 7.661 4.32 12a1 1 0 0 1-1.881.678L14.177 17H9.822L8.62 20.339a1 1 0 1 1-1.88-.678l4.318-12zM10.543 15h2.913l-1.457-4.048z"/></svg>