<svg xmlns="http://www.w3.org/2000/svg" fill="none" viewBox="0 0 24 24"><path fill="#090404" d="M12 4c1.999 0 3.846.23 5.225.624.682.195 1.307.446 1.785.769.442.299.99.823.99 1.607v6.37c.675.23 1.273.502 1.749.82.604.402 1.251 1.044 1.251 1.958 0 .901-.632 1.538-1.227 1.94-.629.425-1.473.768-2.427 1.04-1.922.55-4.519.876-7.346.876s-5.424-.326-7.346-.875c-.954-.273-1.798-.616-2.427-1.041-.558-.377-1.148-.96-1.22-1.774L1 16.148l.008-.168c.073-.825.676-1.413 1.243-1.79.476-.318 1.074-.59 1.749-.82V7c0-.784.548-1.308.99-1.607.478-.323 1.103-.574 1.785-.769C8.155 4.23 10.001 4 12 4m7.408 11.282a3 3 0 0 1-.398.325c-.478.323-1.103.574-1.785.769-1.38.394-3.226.624-5.225.624s-3.846-.23-5.225-.624c-.682-.195-1.307-.446-1.785-.769a3 3 0 0 1-.4-.325c-.534.187-.945.382-1.23.572-.21.14-.302.24-.34.293.037.05.125.148.326.284.383.258 1.003.53 1.858.775 1.698.485 4.1.798 6.796.798 2.695 0 5.098-.313 6.796-.798.855-.244 1.476-.517 1.858-.775.2-.136.288-.233.325-.285-.039-.053-.13-.153-.34-.293-.284-.19-.695-.384-1.23-.57M18 9.117a9 9 0 0 1-.775.259C15.845 9.77 13.999 10 12 10s-3.846-.23-5.225-.624A9 9 0 0 1 6 9.117v4.747q.034.033.11.086c.23.156.631.336 1.215.503C8.48 14.783 10.133 15 12 15s3.52-.217 4.675-.547c.584-.167.985-.347 1.216-.503q.075-.053.109-.086zM12 6c-1.867 0-3.52.217-4.675.547-.52.148-.892.31-1.13.453.238.143.61.305 1.13.453C8.48 7.783 10.133 8 12 8s3.52-.217 4.675-.547c.519-.148.89-.31 1.13-.453-.24-.143-.611-.305-1.13-.453C15.52 6.217 13.867 6 12 6"/></svg>