<svg xmlns="http://www.w3.org/2000/svg" fill="none" viewBox="0 0 24 24"><path fill="#090404" d="M5.793 18.793a1 1 0 1 1 1.414 1.414l-1.5 1.5a1 1 0 1 1-1.414-1.414zM14 15a1 1 0 0 1 .553-.895c1.895-.947 3.334-2.08 4.264-3.723.851-1.502 1.333-3.53 1.23-6.43-2.9-.103-4.928.38-6.429 1.23-1.642.931-2.776 2.37-3.724 4.265A1 1 0 0 1 9 10H6.46l-1.78 2.075c.258.108.542.231.84.368 1.175.542 2.689 1.352 3.687 2.35s1.808 2.512 2.35 3.687c.136.297.259.58.367.838L14 17.54zM3.793 16.793a1 1 0 1 1 1.414 1.414l-2.5 2.5a1 1 0 1 1-1.414-1.414zM16 8.5a.5.5 0 1 0-1 0 .5.5 0 0 0 1 0m0 9.04a2 2 0 0 1-.698 1.519l-3.152 2.7a1 1 0 0 1-1.552-.325l-.045-.115h-.001l-.002-.006-.01-.028a14 14 0 0 0-.2-.543c-.14-.365-.344-.87-.6-1.425-.526-1.142-1.215-2.378-1.947-3.11s-1.968-1.421-3.11-1.947a24 24 0 0 0-1.968-.801l-.028-.009-.005-.002a1.002 1.002 0 0 1-.44-1.598l2.7-3.152A2 2 0 0 1 6.46 8h1.934c1.013-1.868 2.317-3.47 4.238-4.558 1.97-1.116 4.48-1.632 7.77-1.48l.67.04.091.012a1 1 0 0 1 .834.915c.259 3.622-.249 6.338-1.44 8.44-1.088 1.92-2.69 3.223-4.557 4.236zm2-9.04a2.5 2.5 0 1 1-5 0 2.5 2.5 0 0 1 5 0"/></svg>