<svg xmlns="http://www.w3.org/2000/svg" fill="none" viewBox="0 0 24 24"><path fill="#090404" d="M5 15v4h4v-4zm8 5v-.01a1 1 0 0 1 2 0V20a1 1 0 1 1-2 0m4 0v-2a1 1 0 0 1 1-1h2a1 1 0 1 1 0 2h-1v1a1 1 0 1 1-2 0m-4-6a1 1 0 1 1 2 0v1h1a1 1 0 1 1 0 2h-2a1 1 0 0 1-1-1zm7-1a1 1 0 1 1 0 2h-2a1 1 0 1 1 0-2zM5 5v4h4V5zm10 0v4h4V5zm-4 14a2 2 0 0 1-2 2H5a2 2 0 0 1-2-2v-4a2 2 0 0 1 2-2h4a2 2 0 0 1 2 2zm0-10a2 2 0 0 1-2 2H5a2 2 0 0 1-2-2V5a2 2 0 0 1 2-2h4a2 2 0 0 1 2 2zm10 0a2 2 0 0 1-2 2h-4a2 2 0 0 1-2-2V5a2 2 0 0 1 2-2h4a2 2 0 0 1 2 2z"/></svg>