<svg xmlns="http://www.w3.org/2000/svg" fill="none" viewBox="0 0 24 24"><path fill="#090404" d="M9 15H7v-2h2z"/><path fill="#090404" d="M13 15h-2v-2h2z"/><path fill="#090404" d="M17 15h-2v-2h2z"/><path fill="#090404" d="M7 13H5v-2h2z"/><path fill="#090404" d="M11 13H9v-2h2z"/><path fill="#090404" d="M15 13h-2v-2h2z"/><path fill="#090404" d="M19 13h-2v-2h2z"/><path fill="#090404" d="M9 11H7V9h2z"/><path fill="#090404" d="M13 11h-2V9h2z"/><path fill="#090404" d="M17 11h-2V9h2z"/><path fill="#090404" d="M7 9H5V7h2z"/><path fill="#090404" d="M11 9H9V7h2z"/><path fill="#090404" d="M15 9h-2V7h2z"/><path fill="#090404" d="M19 9h-2V7h2z"/><path fill="#090404" d="M9 7H7V5h2z"/><path fill="#090404" d="M13 7h-2V5h2z"/><path fill="#090404" d="M17 7h-2V5h2z"/><path fill="#090404" d="M5 5v10h14V5zm16 10a2 2 0 0 1-2 2H5v3a1 1 0 1 1-2 0V5a2 2 0 0 1 2-2h14a2 2 0 0 1 2 2z"/></svg>