<svg xmlns="http://www.w3.org/2000/svg" fill="none" viewBox="0 0 24 24"><circle cx="12" cy="12" r="1.5" fill="#090404"/><path fill="#090404" d="M2 12C2 6.477 6.477 2 12 2a9.97 9.97 0 0 1 7.048 2.906 1 1 0 1 1-1.41 1.418A7.97 7.97 0 0 0 12 4a8 8 0 1 0 7.802 6.222 1 1 0 0 1 1.95-.444c.162.716.248 1.46.248 2.222 0 5.523-4.477 10-10 10S2 17.523 2 12"/><path fill="#090404" d="M6.5 12a5.5 5.5 0 0 1 9.167-4.1 1 1 0 0 1-1.334 1.49 3.5 3.5 0 1 0 1.08 3.388 1 1 0 0 1 1.95.444A5.501 5.501 0 0 1 6.5 12"/><path fill="#090404" d="M18.793 3.793a1 1 0 1 1 1.414 1.414l-7.5 7.5a1 1 0 1 1-1.414-1.414z"/></svg>