<svg xmlns="http://www.w3.org/2000/svg" fill="none" viewBox="0 0 24 24"><path fill="#090404" d="M17 16.5a.5.5 0 1 1 0-1 .5.5 0 0 1 0 1"/><path fill="#090404" d="M13 16.5a.5.5 0 1 1 0-1 .5.5 0 0 1 0 1"/><path fill="#090404" d="M4 8v11h16V8zm18 11a2 2 0 0 1-2 2H4a2 2 0 0 1-2-2V7.693A2 2 0 0 1 3.298 5.82l11.35-4.257a1 1 0 0 1 .704 1.873L8.516 6H20a2 2 0 0 1 2 2z"/><path fill="#090404" d="M21 11a1 1 0 1 1 0 2H3a1 1 0 1 1 0-2z"/><path fill="#090404" d="M8 11.5v-4a1 1 0 0 1 2 0v4a1 1 0 1 1-2 0"/><path fill="#090404" d="M17.5 16a.5.5 0 1 0-.6.49l.1.01a.5.5 0 0 0 .5-.5m.75 0a1.25 1.25 0 0 1-2.493.128L15.75 16l.007-.128A1.25 1.25 0 0 1 18.25 16"/><path fill="#090404" d="M13.5 16a.5.5 0 1 0-.6.49l.1.01a.5.5 0 0 0 .5-.5m.75 0a1.25 1.25 0 0 1-2.493.128L11.75 16l.007-.128A1.25 1.25 0 0 1 14.25 16"/></svg>