<svg xmlns="http://www.w3.org/2000/svg" fill="none" viewBox="0 0 24 24"><path fill="#090404" d="M3 8.5a6.5 6.5 0 0 1 11.9-3.62c.066.1.235.19.425.165Q15.657 5 16 5a5 5 0 0 1 0 10H9.5A6.5 6.5 0 0 1 3 8.5m2 0A4.5 4.5 0 0 0 9.5 13H16a3 3 0 1 0-.406-5.973c-.873.118-1.823-.24-2.355-1.032A4.5 4.5 0 0 0 5 8.5"/><path fill="#090404" d="M10.606 17.553a1 1 0 0 1 1.789.894l-1 2a1 1 0 0 1-1.79-.894z"/><path fill="#090404" d="M5.606 17.553a1 1 0 0 1 1.789.894l-1 2a1 1 0 0 1-1.79-.894z"/><path fill="#090404" d="M15.606 17.553a1 1 0 0 1 1.789.894l-1 2a1 1 0 0 1-1.79-.894z"/></svg>