<svg xmlns="http://www.w3.org/2000/svg" fill="none" viewBox="0 0 24 24"><path fill="#090404" d="M11.998 6c6.26 0 11.4 4.793 11.951 10.91a1 1 0 0 1-1.992.18C21.498 11.994 17.214 8 11.998 8s-9.5 3.994-9.959 9.09a1 1 0 0 1-1.992-.18C.598 10.793 5.738 6 11.998 6"/><path fill="#090404" d="M12 10a8 8 0 0 1 7.92 6.858 1 1 0 0 1-1.981.284 6.002 6.002 0 0 0-11.878 0 1 1 0 0 1-1.98-.284A8 8 0 0 1 11.999 10"/><path fill="#090404" d="M11.997 14a4 4 0 0 1 3.772 2.667 1 1 0 0 1-1.885.666 2.002 2.002 0 0 0-3.774 0 1 1 0 1 1-1.885-.666A4 4 0 0 1 11.997 14"/></svg>