<svg xmlns="http://www.w3.org/2000/svg" fill="none" viewBox="0 0 24 24"><path fill="#090404" d="M11 9V4.75a.75.75 0 0 0-1.5 0V11a1 1 0 1 1-2 0V6.75a.75.75 0 0 0-1.5 0V14a6 6 0 0 0 12 0V9a1.997 1.997 0 0 0-2 2v.838a1.92 1.92 0 0 1-1.312 1.82A2.47 2.47 0 0 0 13 16a1 1 0 1 1-2 0 4.47 4.47 0 0 1 3-4.219V11c0-.7.182-1.361.5-1.936V5.75a.75.75 0 0 0-1.5 0V9a1 1 0 1 1-2 0m5.5-1.709C16.963 7.103 17.47 7 18 7a2 2 0 0 1 2 2v5a8 8 0 1 1-16 0V6.75a2.75 2.75 0 0 1 3.573-2.624 2.745 2.745 0 0 1 4.992-.855A2.75 2.75 0 0 1 16.5 5.75z"/></svg>