<svg xmlns="http://www.w3.org/2000/svg" fill="none" viewBox="0 0 24 24"><path fill="#090404" d="M13 10V4.5a.5.5 0 0 0-1 0V10a1 1 0 1 1-2 0V5.5a.5.5 0 0 0-1 0V11a1 1 0 1 1-2 0V7.5a.5.5 0 0 0-1 0v6a6.5 6.5 0 1 0 13 0V9c-.513 0-.979.192-1.333.509-.41.367-.667.899-.667 1.491v.838a1.92 1.92 0 0 1-1.312 1.82A2.47 2.47 0 0 0 14 16a1 1 0 1 1-2 0 4.47 4.47 0 0 1 3-4.219V11c0-1.014.379-1.94 1-2.645V5.5a.5.5 0 0 0-1 0V10a1 1 0 1 1-2 0m5-2.874q.481-.125 1-.126a2 2 0 0 1 2 2v4.5a8.5 8.5 0 0 1-17 0v-6a2.5 2.5 0 0 1 3.04-2.44 2.5 2.5 0 0 1 3.348-1.895 2.497 2.497 0 0 1 4.223 0A2.5 2.5 0 0 1 18 5.5z"/></svg>