<svg xmlns="http://www.w3.org/2000/svg" fill="none" viewBox="0 0 24 24"><path fill="#090404" d="M11 21v-3a1 1 0 1 1 2 0v3a1 1 0 1 1-2 0m0-15V3a1 1 0 1 1 2 0v3a1 1 0 1 1-2 0"/><path fill="#090404" d="m15.536 7.05 2.12-2.121a1 1 0 1 1 1.415 1.414L16.95 8.464a1 1 0 1 1-1.414-1.414"/><path fill="#090404" d="m17.657 19.07-2.121-2.12a1 1 0 0 1 1.414-1.415l2.121 2.121a1 1 0 1 1-1.414 1.415"/><path fill="#090404" d="M21 13h-3a1 1 0 1 1 0-2h3a1 1 0 1 1 0 2"/><path fill="#090404" d="M12 11a1 1 0 1 1 0 2H3a1 1 0 1 1 0-2z"/><path fill="#090404" d="M4.93 4.929a1 1 0 0 1 1.413 0l6.365 6.364a1 1 0 0 1 0 1.414L6.343 19.07a1 1 0 0 1-1.414-1.414L10.586 12 4.93 6.343a1 1 0 0 1 0-1.414"/></svg>