<svg xmlns="http://www.w3.org/2000/svg" fill="none" viewBox="0 0 24 24"><path fill="#090404" d="M12.037 9.97a2.011 2.011 0 1 1 0 4.023 2.011 2.011 0 0 1 0-4.023"/><path fill="#090404" fill-rule="evenodd" d="M12 4.25c1.951-1.562 3.882-2.135 5.249-1.346 1.221.706 1.768 2.344 1.538 4.613q-.031.299-.08.607c2.293.897 3.746 2.253 3.79 3.802L22.5 12c0 1.578-1.462 2.965-3.79 3.875.03.206.059.409.079.608.23 2.269-.318 3.907-1.539 4.612-.42.238-.896.36-1.379.353-1.158 0-2.51-.61-3.872-1.699-1.362 1.09-2.713 1.699-3.87 1.699a2.7 2.7 0 0 1-1.379-.353c-1.222-.705-1.768-2.343-1.539-4.612q.031-.3.08-.608C2.962 14.964 1.5 13.58 1.5 12c0-1.411 1.145-2.705 3.223-3.64q.276-.123.568-.234a12 12 0 0 1-.08-.61c-.23-2.268.317-3.906 1.539-4.612 1.367-.789 3.297-.216 5.25 1.346m5.752 11.956c-.969.292-1.96.5-2.964.622a18 18 0 0 1-2.021 2.26c1.613 1.247 3.089 1.66 3.984 1.14.821-.474 1.204-1.736 1.06-3.475l-.014-.17a10 10 0 0 0-.046-.377m-11.501 0a10 10 0 0 0-.045.378c-.184 1.797.184 3.113 1.004 3.621l.042.024c.895.517 2.37.106 3.984-1.141a18 18 0 0 1-2.022-2.26 17.7 17.7 0 0 1-2.963-.622m7.16.753c-.461.029-.935.045-1.411.045q-.715 0-1.408-.045.656.788 1.408 1.483.754-.695 1.411-1.483M12 8q-1.126 0-2.247.117A22 22 0 0 0 7.517 12q.458 1.027 1.02 2 .56.976 1.22 1.89 1.117.116 2.242.114 1.124 0 2.243-.114.577-.799 1.08-1.647l.139-.242A22 22 0 0 0 16.481 12a22.105 22.105 0 0 0-2.24-3.887A22 22 0 0 0 12 7.999m-4.993 5.264q-.353.961-.576 1.96.854.265 1.732.431l.251.047c-.252-.384-.5-.79-.74-1.2q-.36-.616-.667-1.239m9.988 0q-.313.622-.667 1.238-.359.624-.74 1.2a16 16 0 0 0 1.982-.478 16 16 0 0 0-.492-1.722zM5.482 9.124l-.348.149C3.464 10.026 2.5 11.02 2.5 12c0 1.034 1.094 2.106 2.982 2.88.233-.985.549-1.949.945-2.88a18 18 0 0 1-.945-2.876m13.039-.005c-.234.985-.55 1.949-.946 2.88q.558 1.313.902 2.696l.043.186C20.407 14.106 21.5 13.033 21.5 12c0-1.034-1.097-2.107-2.98-2.881m-2.94-.821q.336.504.654 1.045l.091.156q.359.616.667 1.238.351-.961.576-1.96a15.5 15.5 0 0 0-1.988-.48m-7.172.005q-1.005.176-1.977.48.195.87.488 1.713l.082.24a23.225 23.225 0 0 1 1.407-2.433m-.27-4.75a1.76 1.76 0 0 0-.89.218c-.82.474-1.206 1.737-1.059 3.475l.014.17q.018.186.044.376c.969-.29 1.96-.497 2.964-.62a18 18 0 0 1 2.024-2.259c-1.158-.895-2.245-1.36-3.098-1.36m7.723-.001c-.853 0-1.94.465-3.097 1.36a18 18 0 0 1 2.022 2.258c1.003.122 1.995.33 2.963.622q.027-.19.045-.377c.185-1.827-.195-3.155-1.044-3.645a1.75 1.75 0 0 0-.83-.218zm-3.866 2.005q-.754.695-1.408 1.482a22 22 0 0 1 2.819 0 16 16 0 0 0-1.411-1.482" clip-rule="evenodd"/></svg>