<svg xmlns="http://www.w3.org/2000/svg" fill="none" viewBox="0 0 24 24"><path fill="#090404" d="M9 12a3 3 0 1 0-6 0 3 3 0 0 0 6 0m2 0a5 5 0 1 1-10 0 5 5 0 0 1 10 0"/><path fill="#090404" d="M21 12a3 3 0 1 0-6 0 3 3 0 0 0 6 0m2 0a5 5 0 1 1-10 0 5 5 0 0 1 10 0"/><path fill="#090404" d="M2 9a1 1 0 0 1 0 2H1a1 1 0 1 1 0-2z"/><path fill="#090404" d="M23 9a1 1 0 1 1 0 2h-1a1 1 0 1 1 0-2z"/><path fill="#090404" d="M12 8c1.082 0 2.087.345 2.906.93a1 1 0 0 1-1.164 1.628A3 3 0 0 0 12 10c-.634 0-1.22.196-1.704.53a1 1 0 0 1-1.139-1.644A5 5 0 0 1 12 8"/></svg>