<svg xmlns="http://www.w3.org/2000/svg" fill="none" viewBox="0 0 24 24"><path fill="#090404" d="M6 4v14.826l.683-.585.072-.056a1 1 0 0 1 1.23.056l1.681 1.442 1.684-1.442.072-.056a1 1 0 0 1 1.228.056l1.683 1.442 1.683-1.442.072-.056a1 1 0 0 1 1.23.056l.682.585V4zm8.543 3.043a1 1 0 1 1 1.414 1.414l-6.5 6.5a1 1 0 1 1-1.414-1.414zM20 21a1 1 0 0 1-1.65.759l-1.684-1.443-1.682 1.443a1 1 0 0 1-1.301 0L12 20.315l-1.683 1.444a1 1 0 0 1-1.301 0l-1.683-1.443L5.65 21.76A1 1 0 0 1 4 21V4a2 2 0 0 1 2-2h12a2 2 0 0 1 2 2z"/><path fill="#090404" d="M9 6.75a1.25 1.25 0 1 1 0 2.5 1.25 1.25 0 0 1 0-2.5"/><path fill="#090404" d="M15 12.75a1.25 1.25 0 1 1 0 2.5 1.25 1.25 0 0 1 0-2.5"/></svg>