<svg xmlns="http://www.w3.org/2000/svg" fill="none" viewBox="0 0 24 24"><path fill="#090404" d="M20 18a1 1 0 1 1 0 2H4a1 1 0 1 1 0-2z"/><path fill="#090404" d="M11.999 14.5a1 1 0 0 1 1.001.999l.002 3.5a1 1 0 0 1-2 .002l-.002-3.5a1 1 0 0 1 .999-1.001"/><path fill="#090404" d="M11.002 7V4a1 1 0 1 1 2 0v3a1 1 0 0 1-2 0"/><path fill="#090404" d="M14 2.5a1 1 0 1 1 0 2h-4a1 1 0 0 1 0-2z"/><path fill="#090404" d="M12 6c2.772 0 5.047 1.063 6.62 2.823C20.182 10.57 21 12.943 21 15.5a1 1 0 0 1-1 1H4a1 1 0 0 1-1-1c0-2.556.818-4.93 2.38-6.677C6.953 7.063 9.228 6 12 6m0 2c-2.228 0-3.953.84-5.13 2.156-.999 1.118-1.637 2.622-1.816 4.344h13.892c-.179-1.722-.817-3.226-1.816-4.344C15.953 8.84 14.228 8 12 8"/></svg>