<svg xmlns="http://www.w3.org/2000/svg" fill="none" viewBox="0 0 24 24"><path fill="#090404" d="M6 4v14.526l1.54-.878a2 2 0 0 1 1.886-.053L12 18.882l2.574-1.287a2 2 0 0 1 1.887.053l1.539.878V4zm14 15.389a1.5 1.5 0 0 1-2.244 1.301l-2.287-1.306-2.574 1.287a2 2 0 0 1-1.79 0l-2.574-1.287-2.287 1.306A1.5 1.5 0 0 1 4 19.39V4a2 2 0 0 1 2-2h12a2 2 0 0 1 2 2z"/><path fill="#090404" d="M14 13a1 1 0 1 1 0 2h-4a1 1 0 1 1 0-2z"/><path fill="#090404" d="M13.043 6.843a1 1 0 1 1 1.414 1.414l-2.45 2.45a1 1 0 0 1-1.414 0l-1.05-1.05a1 1 0 0 1 1.414-1.413l.343.342z"/></svg>