<svg xmlns="http://www.w3.org/2000/svg" fill="none" viewBox="0 0 24 24"><path fill="#090404" d="m19.566 7.86-.59-1.533a.51.51 0 0 0-.952 0l-.59 1.533a1 1 0 0 1-.574.575l-1.533.59a.51.51 0 0 0 0 .95l1.533.59a1 1 0 0 1 .575.575l.59 1.533a.51.51 0 0 0 .95 0l.59-1.533a1 1 0 0 1 .575-.575l1.533-.59a.51.51 0 0 0 0-.95l-1.533-.59a1 1 0 0 1-.575-.575"/><path fill="#090404" d="M20 18a1 1 0 1 1 0 2H4a1 1 0 1 1 0-2z"/><path fill="#090404" d="M11.999 14.5a1 1 0 0 1 1.001.999l.002 3.5a1 1 0 0 1-2 .002l-.002-3.5a1 1 0 0 1 .999-1.001"/><path fill="#090404" d="M14 2.5a1 1 0 1 1 0 2h-4a1 1 0 0 1 0-2z"/><path fill="#090404" d="M11 3.5a1 1 0 1 1 2 0V7a1 1 0 0 1-1 1c-2.228 0-3.953.84-5.13 2.156-.999 1.118-1.637 2.622-1.816 4.344H20a1 1 0 1 1 0 2H4a1 1 0 0 1-1-1c0-2.556.818-4.93 2.38-6.677C6.76 7.28 8.679 6.271 11 6.047z"/></svg>