<svg xmlns="http://www.w3.org/2000/svg" fill="none" viewBox="0 0 24 24"><path fill="#090404" d="M4 19.25V5a3 3 0 0 1 3-3h12a1 1 0 0 1 1 1v12a1 1 0 1 1-2 0V4H7a1 1 0 0 0-1 1v14.25a1 1 0 1 1-2 0"/><path fill="#090404" d="M19 13a1 1 0 0 1 1 1v3.5a1 1 0 0 1-1 1H6.75a2.75 2.75 0 1 1 0-5.5zM6 15.75c0 .414.336.75.75.75H18V15H6.75a.75.75 0 0 0-.75.75"/><path fill="#090404" d="M4 19.25a2.75 2.75 0 0 1 2.75-2.75H19a1 1 0 0 1 1 1V20a2 2 0 0 1-2 2H6.75A2.75 2.75 0 0 1 4 19.25m2 0c0 .414.336.75.75.75H18v-1.5H6.75a.75.75 0 0 0-.75.75"/><path fill="#090404" d="M15 6a1 1 0 1 1 0 2H9a1 1 0 0 1 0-2z"/></svg>