<svg xmlns="http://www.w3.org/2000/svg" fill="none" viewBox="0 0 24 24"><path fill="#090404" d="M19 4.5a1 1 0 1 1 2 0V8a1 1 0 0 1-1 1h-3.5a1 1 0 1 1 0-2H19z"/><path fill="#090404" d="M3 19.5V16a1 1 0 0 1 1-1h3.5a1 1 0 1 1 0 2H5v2.5a1 1 0 1 1-2 0"/><path fill="#090404" d="M19.291 13.766a1 1 0 1 1 1.944.468C20.23 18.402 16.478 21.5 12 21.5a9.5 9.5 0 0 1-8.177-4.66 1 1 0 0 1 1.721-1.02 7.504 7.504 0 0 0 13.747-2.054M12 2.5c3.4 0 6.383 1.788 8.06 4.47a1 1 0 1 1-1.696 1.06 7.504 7.504 0 0 0-13.656 2.204 1 1 0 1 1-1.943-.468C3.77 5.598 7.522 2.5 12 2.5"/><path fill="#090404" d="M14.5 11a1 1 0 1 1 0 2h-5a1 1 0 1 1 0-2z"/><path fill="#090404" d="M11 14.5v-5a1 1 0 1 1 2 0v5a1 1 0 1 1-2 0"/></svg>