<svg xmlns="http://www.w3.org/2000/svg" fill="none" viewBox="0 0 24 24"><path fill="#090404" d="M3 13V6a2 2 0 0 1 2-2h14a1 1 0 1 1 0 2H5v7a1 1 0 1 1-2 0"/><path fill="#090404" d="M16.793 1.793a1 1 0 0 1 1.414 0l2.5 2.5a1 1 0 0 1 0 1.414l-2.5 2.5a1 1 0 1 1-1.414-1.414L18.586 5l-1.793-1.793a1 1 0 0 1 0-1.414"/><path fill="#090404" d="M5.793 15.793a1 1 0 1 1 1.414 1.414L5.414 19l1.793 1.793a1 1 0 1 1-1.414 1.414l-2.5-2.5a1 1 0 0 1 0-1.414z"/><path fill="#090404" d="M19 18v-7a1 1 0 1 1 2 0v7a2 2 0 0 1-2 2H5a1 1 0 1 1 0-2z"/><path fill="#090404" d="M11 15V9a1 1 0 1 1 2 0v6a1 1 0 1 1-2 0"/><path fill="#090404" d="M15 11a1 1 0 1 1 0 2H9a1 1 0 1 1 0-2z"/></svg>