<svg xmlns="http://www.w3.org/2000/svg" fill="none" viewBox="0 0 24 24"><path fill="#090404" d="M6 19a2 2 0 1 1 4 0 2 2 0 0 1-4 0m9 0a2 2 0 1 1 4 0 2 2 0 0 1-4 0M3.153 2a2 2 0 0 1 1.973 1.67L6.846 14h11.807l1.36-8.164a1 1 0 0 1 1.973.328l-1.36 8.165A2 2 0 0 1 18.653 16H6.847a2 2 0 0 1-1.973-1.67L3.154 4H2a1 1 0 0 1 0-2zm11.64 1.793a1 1 0 1 1 1.414 1.414L14.414 7l1.793 1.793a1 1 0 1 1-1.414 1.414L13 8.414l-1.793 1.793a1 1 0 1 1-1.414-1.414L11.586 7 9.793 5.207a1 1 0 1 1 1.414-1.414L13 5.586z"/></svg>