<svg xmlns="http://www.w3.org/2000/svg" fill="none" viewBox="0 0 24 24"><path fill="#090404" d="M5 5v14h14V5zm16 14a2 2 0 0 1-2 2H5a2 2 0 0 1-2-2V5a2 2 0 0 1 2-2h14a2 2 0 0 1 2 2z"/><path fill="#090404" d="M14 12a2 2 0 1 0-4 0 2 2 0 0 0 4 0m2 0a4 4 0 1 1-8 0 4 4 0 0 1 8 0"/><path fill="#090404" d="M18.293 4.293a1 1 0 1 1 1.414 1.414l-4.5 4.5a1 1 0 1 1-1.414-1.414z"/><path fill="#090404" d="M8.793 13.793a1 1 0 1 1 1.414 1.414l-4.5 4.5a1 1 0 1 1-1.414-1.414z"/><path fill="#090404" d="M10.293 3.293a1 1 0 1 1 1.414 1.414l-7 7a1 1 0 1 1-1.414-1.414z"/><path fill="#090404" d="M19.293 12.293a1 1 0 1 1 1.414 1.414l-7 7a1 1 0 1 1-1.414-1.414z"/></svg>