<svg xmlns="http://www.w3.org/2000/svg" fill="none" viewBox="0 0 24 24"><path fill="#090404" d="M18.414 15.172a1 1 0 1 1 1.414 1.414L18.414 18l1.414 1.414a1 1 0 0 1-1.414 1.414L17 19.414l-1.414 1.414a1.001 1.001 0 0 1-1.415-1.414L15.585 18l-1.414-1.414a1 1 0 0 1 1.415-1.414L17 16.586zm-3.286-12.1a1 1 0 0 1 1.3.557l1.748 4.37h1.849a2 2 0 0 1 1.96 2.401l-.369 1.8a1 1 0 0 1-1.96-.4l.369-1.8H3.975l1.84 9H10a1 1 0 0 1 0 2H5.816a2 2 0 0 1-1.96-1.6l-1.84-9A2 2 0 0 1 3.975 8h1.848l1.748-4.371a1 1 0 1 1 1.857.742L7.977 8h8.046L14.572 4.37a1 1 0 0 1 .556-1.3"/></svg>