<svg xmlns="http://www.w3.org/2000/svg" fill="none" viewBox="0 0 24 24"><path fill="#090404" d="M8 6.5a1.5 1.5 0 1 0-3 0 1.5 1.5 0 0 0 3 0m2 0a3.5 3.5 0 1 1-7 0 3.5 3.5 0 0 1 7 0"/><path fill="#090404" d="M8 17.5a1.5 1.5 0 1 0-3 0 1.5 1.5 0 0 0 3 0m2 0a3.5 3.5 0 1 1-7 0 3.5 3.5 0 0 1 7 0"/><path fill="#090404" d="M14.793 3.793a1 1 0 1 1 1.414 1.414L14.914 6.5l1.293 1.293a1 1 0 1 1-1.414 1.414l-2-2a1 1 0 0 1 0-1.414z"/><path fill="#090404" d="M19 16.5v-9h-4.5a1 1 0 1 1 0-2H19a2 2 0 0 1 2 2v9a2 2 0 0 1-2 2h-5a1 1 0 1 1 0-2z"/></svg>