<svg xmlns="http://www.w3.org/2000/svg" fill="none" viewBox="0 0 24 24"><path fill="#090404" d="M15 17.996a.996.996 0 0 0-.996-.996c-.367 0-.524.095-.6.161-.093.08-.194.231-.272.519-.105.385-.126.83-.128 1.315.486-.002.93-.022 1.316-.127.288-.078.438-.179.519-.271.066-.077.16-.234.16-.6m2 0c0 .752-.211 1.404-.652 1.911-.426.492-.985.75-1.502.89-.974.266-2.174.195-2.838.195a1 1 0 0 1-1-1c0-.664-.071-1.864.194-2.838.141-.517.399-1.076.89-1.503.508-.44 1.16-.651 1.912-.651A2.996 2.996 0 0 1 17 17.996"/><path fill="#090404" d="M18.743 10.255c.882-.46 1.924-.252 2.589.413s.874 1.707.413 2.59c-1.298 2.481-2.757 3.866-5.171 5.56a1 1 0 1 1-1.148-1.636c2.254-1.582 3.445-2.745 4.547-4.852.03-.059.03-.162-.055-.248-.086-.086-.19-.085-.248-.054-2.107 1.101-3.27 2.292-4.852 4.547a1 1 0 0 1-1.636-1.149c1.694-2.414 3.079-3.873 5.561-5.17"/><path fill="#090404" d="M3.442 12.007a1 1 0 0 1 1.11.877 7.5 7.5 0 0 0 3.922 5.737 1 1 0 0 1-.941 1.765 9.5 9.5 0 0 1-4.968-7.27 1 1 0 0 1 .877-1.11M11.999 2.5a9.49 9.49 0 0 1 7.684 3.911 1 1 0 0 1-1.617 1.178A7.49 7.49 0 0 0 12 4.5 7.48 7.48 0 0 0 6.41 7H8.5a1 1 0 0 1 0 2h-4a1 1 0 0 1-.996-.901L3.5 8V4a1 1 0 0 1 2 0v1.073A9.47 9.47 0 0 1 12 2.5"/></svg>