<svg xmlns="http://www.w3.org/2000/svg" fill="none" viewBox="0 0 24 24"><path fill="#090404" d="M7.5 6a1 1 0 1 0-2 0 1 1 0 0 0 2 0m2 0a3 3 0 1 1-6 0 3 3 0 0 1 6 0"/><path fill="#090404" d="M7.5 18a1 1 0 1 0-2 0 1 1 0 0 0 2 0m2 0a3 3 0 1 1-6 0 3 3 0 0 1 6 0"/><path fill="#090404" d="M18.5 18a1 1 0 1 0-2 0 1 1 0 0 0 2 0m2 0a3 3 0 1 1-6 0 3 3 0 0 1 6 0"/><path fill="#090404" d="M5.5 16V8a1 1 0 0 1 2 0v8a1 1 0 1 1-2 0"/><path fill="#090404" d="M16.5 16v-5a1 1 0 1 1 2 0v5a1 1 0 1 1-2 0"/><path fill="#090404" d="M18.543 3.543a1 1 0 1 1 1.414 1.414L18.914 6l1.043 1.043a1 1 0 1 1-1.414 1.414L17.5 7.414l-1.043 1.043a1 1 0 1 1-1.414-1.414L16.086 6l-1.043-1.043a1 1 0 1 1 1.414-1.414L17.5 4.586z"/></svg>