<svg xmlns="http://www.w3.org/2000/svg" fill="none" viewBox="0 0 24 24"><path fill="#090404" d="M17.985 1.433a.488.488 0 0 0-.97-.001c-.177 1.538-1.045 2.406-2.583 2.583a.488.488 0 0 0 0 .97c1.517.171 2.445 1.031 2.582 2.57a.488.488 0 0 0 .972 0c.131-1.518 1.05-2.438 2.568-2.569a.488.488 0 0 0 .001-.972c-1.539-.137-2.399-1.065-2.57-2.581"/><path fill="#090404" d="M2 21v-9c0-5.207 3.98-9.484 9.064-9.957a1 1 0 0 1 .184 1.992A8 8 0 0 0 4 12v9a1 1 0 1 1-2 0m18 0v-9c0-.925-.157-1.812-.444-2.636a1.001 1.001 0 0 1 1.888-.659A10 10 0 0 1 22 12v9a1 1 0 1 1-2 0"/><path fill="#090404" d="M16 12H8v3a4 4 0 0 0 8 0zm2 3a6 6 0 0 1-12 0v-3.182C6 10.814 6.814 10 7.818 10h8.364c1.004 0 1.818.814 1.818 1.818z"/></svg>