<svg xmlns="http://www.w3.org/2000/svg" fill="none" viewBox="0 0 24 24"><path fill="#090404" d="M11.538 7.61a.5.5 0 0 1 .924 0l.876 2.105a.5.5 0 0 0 .421.307l2.273.182a.5.5 0 0 1 .286.878l-1.732 1.484a.5.5 0 0 0-.161.496l.529 2.218a.5.5 0 0 1-.747.543l-1.946-1.189a.5.5 0 0 0-.522 0l-1.946 1.189a.5.5 0 0 1-.747-.543l.53-2.218a.5.5 0 0 0-.162-.496l-1.732-1.484a.5.5 0 0 1 .285-.878l2.274-.182a.5.5 0 0 0 .422-.307z"/><path fill="#090404" d="M5 5v14h14V5zm16 14a2 2 0 0 1-2 2H5a2 2 0 0 1-2-2V5a2 2 0 0 1 2-2h14a2 2 0 0 1 2 2z"/></svg>