<svg xmlns="http://www.w3.org/2000/svg" fill="none" viewBox="0 0 24 24"><path fill="#090404" d="m11.022 4.612-2.707-2.2A.5.5 0 0 0 7.5 2.8v4.4a.5.5 0 0 0 .815.388l2.707-2.2a.5.5 0 0 0 0-.776"/><path fill="#090404" d="m12.978 18.612 2.707-2.2a.5.5 0 0 1 .815.389V21.2a.5.5 0 0 1-.815.388l-2.707-2.2a.5.5 0 0 1 0-.776"/><path fill="#090404" d="M17.882 2.512a2 2 0 0 1 1.084-.042l.152.042.205.082c.193.091.35.209.482.32.166.141.348.324.534.51l.237.237c.187.187.37.369.51.535.149.174.308.396.402.686a2 2 0 0 1 0 1.236c-.094.29-.253.512-.402.687-.14.166-.323.348-.51.534l-6.9 6.9c-.14.139-.32.328-.545.466q-.27.165-.578.24c-.257.061-.519.055-.716.055H10a1 1 0 0 1-1-1v-1.837c0-.197-.006-.459.056-.716a2 2 0 0 1 .24-.578c.137-.225.327-.405.466-.545l6.9-6.9c.186-.186.368-.369.534-.51.174-.148.396-.308.686-.402M11 13h.837c.131 0 .197 0 .244-.002l.006-.003c.035-.032.082-.078.175-.17l6.9-6.901c.209-.21.324-.325.4-.414l.006-.01-.006-.01a8 8 0 0 0-.4-.414l-.238-.237a8 8 0 0 0-.414-.4l-.01-.008-.01.008c-.089.075-.204.19-.414.4l-6.9 6.9a6 6 0 0 0-.171.174l-.003.003v.003c-.002.048-.002.113-.002.244z"/><path fill="#090404" d="M15.293 5.293a1 1 0 0 1 1.414 0l2 2a1 1 0 1 1-1.414 1.414l-2-2a1 1 0 0 1 0-1.414"/><path fill="#090404" d="M2 17.4V6.6c0-.264-.001-.522.017-.739.018-.228.063-.498.2-.77a2 2 0 0 1 .875-.873c.271-.138.54-.183.77-.201C4.077 3.999 4.335 4 4.6 4h3.9a1 1 0 1 1 0 2H4.6a8 8 0 0 0-.576.01l-.012.002-.001.012A8 8 0 0 0 4 6.6v10.8c0 .297.001.46.01.576l.002.011.012.002c.117.01.28.011.576.011H9a1 1 0 1 1 0 2H4.6c-.264 0-.522.001-.739-.017a2 2 0 0 1-.77-.2 2 2 0 0 1-.873-.875 2 2 0 0 1-.201-.77C1.999 17.923 2 17.665 2 17.4"/><path fill="#090404" d="M20 17.4V12a1 1 0 1 1 2 0v5.4c0 .264.001.522-.017.739a2 2 0 0 1-.2.77 2 2 0 0 1-.875.873 2 2 0 0 1-.77.201c-.216.018-.474.017-.738.017h-3.9a1 1 0 1 1 0-2h3.9c.297 0 .46-.001.576-.01l.011-.003.002-.011c.01-.117.011-.28.011-.576"/></svg>