<svg xmlns="http://www.w3.org/2000/svg" fill="none" viewBox="0 0 24 24"><path fill="#090404" d="m9.522 4.612-2.707-2.2A.5.5 0 0 0 6 2.8v4.4a.5.5 0 0 0 .815.388l2.707-2.2a.5.5 0 0 0 0-.776"/><path fill="#090404" d="m14.478 18.612 2.707-2.2a.5.5 0 0 1 .815.389V21.2a.5.5 0 0 1-.815.388l-2.707-2.2a.5.5 0 0 1 0-.776"/><path fill="#090404" d="M2 17.4V6.6c0-.264-.001-.522.017-.739.018-.228.063-.498.2-.77a2 2 0 0 1 .875-.873c.271-.138.54-.183.77-.201C4.077 3.999 4.335 4 4.6 4H7a1 1 0 1 1 0 2H4.6a8 8 0 0 0-.576.01l-.012.002-.001.012A8 8 0 0 0 4 6.6v10.8c0 .297.001.46.01.576l.002.011.012.002c.117.01.28.011.576.011H11a1 1 0 1 1 0 2H4.6c-.264 0-.522.001-.739-.017a2 2 0 0 1-.77-.2 2 2 0 0 1-.873-.875 2 2 0 0 1-.201-.77C1.999 17.923 2 17.665 2 17.4"/><path fill="#090404" d="M20 17.4V6.6c0-.297-.001-.459-.01-.576l-.003-.012-.011-.001A8 8 0 0 0 19.4 6H13a1 1 0 1 1 0-2h6.4c.264 0 .522-.001.739.017.228.018.498.063.77.2.328.169.604.424.796.737l.077.138.087.203c.072.2.1.395.114.566.018.217.017.475.017.739v10.8c0 .264.001.522-.017.739a2 2 0 0 1-.2.77 2 2 0 0 1-.875.873 2 2 0 0 1-.77.201c-.216.018-.474.017-.738.017h-1.9a1 1 0 1 1 0-2h1.9c.297 0 .46-.001.576-.01l.011-.003.002-.011c.01-.117.011-.28.011-.576"/><path fill="#090404" d="M15 9a1 1 0 1 1 0 2H9a1 1 0 1 1 0-2z"/><path fill="#090404" d="M13 13a1 1 0 1 1 0 2H9a1 1 0 1 1 0-2z"/></svg>