<svg xmlns="http://www.w3.org/2000/svg" fill="none" viewBox="0 0 24 24"><path fill="#090404" d="M3.442 12.007a1 1 0 0 1 1.11.877 7.5 7.5 0 0 0 3.922 5.737 1 1 0 0 1-.941 1.765 9.5 9.5 0 0 1-4.968-7.27 1 1 0 0 1 .877-1.11M11.999 2.5a9.49 9.49 0 0 1 7.684 3.911 1 1 0 0 1-1.617 1.178A7.49 7.49 0 0 0 12 4.5 7.48 7.48 0 0 0 6.41 7H8.5a1 1 0 0 1 0 2h-4a1 1 0 0 1-.996-.901L3.5 8V4a1 1 0 0 1 2 0v1.073A9.47 9.47 0 0 1 12 2.5"/><path fill="#090404" d="M16.793 10.793a3.121 3.121 0 0 1 4.414 4.414l-4.765 4.765a2 2 0 0 1-1.13.565l-3.17.453a1 1 0 0 1-1.133-1.132l.454-3.17a2 2 0 0 1 .565-1.13zm3 1.414a1.12 1.12 0 0 0-1.586 0l-4.765 4.765-.264 1.85 1.85-.264 4.765-4.765a1.12 1.12 0 0 0 0-1.586"/><path fill="#090404" d="m20.207 14.793-1.414 1.414-3-3 1.414-1.414z"/></svg>