<svg xmlns="http://www.w3.org/2000/svg" fill="none" viewBox="0 0 24 24"><path fill="#090404" d="M6.024 9.283a1 1 0 0 1 1.953.433l-2 9a1 1 0 0 1-1.953-.433z"/><path fill="#090404" d="M13.324 14a2 2 0 0 1 1.856 1.257l1.749 4.372a1 1 0 0 1-1.857.742L13.324 16h-2.647L8.93 20.371a1 1 0 0 1-1.857-.742l1.749-4.372A2 2 0 0 1 10.677 14z"/><path fill="#090404" d="M2 12a4 4 0 0 1 4-4h5.216c.495-1.844 1.217-3.273 2.317-4.28 1.27-1.16 2.899-1.628 4.837-1.707l.142-.001a1.96 1.96 0 0 1 1.579.901l.07.115 1.847 3.326a2 2 0 0 1-.334 2.386l-.457.457a2 2 0 0 1-2.309.375l-.46-.23-.391.781 1.917 8.147a1 1 0 1 1-1.948.459L16.11 10.58a2 2 0 0 1 .159-1.352l.837-1.676.05-.086a1 1 0 0 1 1.292-.362l1.356.678.457-.457-1.842-3.314c-1.652.072-2.744.461-3.535 1.184-.815.745-1.451 1.973-1.906 4.02A1 1 0 0 1 12 10H6a2 2 0 0 0-2 2 1 1 0 0 1-2 0"/><path fill="#090404" d="M2.148 17.727a1 1 0 0 1 1.376-.33C6.376 19.15 9.205 20 12 20s5.625-.85 8.477-2.602a1 1 0 0 1 1.047 1.705C18.408 21.017 15.22 22 12 22s-6.407-.983-9.523-2.897a1 1 0 0 1-.33-1.376"/></svg>