<svg xmlns="http://www.w3.org/2000/svg" fill="none" viewBox="0 0 24 24"><path fill="#090404" d="M6 19a1 1 0 1 0-2 0v1h1a1 1 0 0 0 1-1m2 0a3 3 0 0 1-3 3H4a2 2 0 0 1-2-2v-1a3 3 0 1 1 6 0"/><path fill="#090404" d="M15 13.19c.001-.564.239-1.091.636-1.466 2.439-2.308 4.012-4.704 4.311-7.671-2.966.3-5.362 1.873-7.67 4.312A2.02 2.02 0 0 1 10.811 9H6.567l-1.8 3h1.82A2 2 0 0 1 8 12.586L11.415 16A2 2 0 0 1 12 17.414v1.82l3-1.8zm2 4.244a2 2 0 0 1-.97 1.714l-3 1.801c-1.333.8-3.03-.161-3.03-1.716v-1.819L6.588 14h-1.82c-1.554 0-2.515-1.696-1.715-3.03l1.8-3A2 2 0 0 1 6.567 7h4.244l.001-.001.012-.009c2.522-2.665 5.382-4.621 9.09-4.943a1.88 1.88 0 0 1 2.04 2.039c-.322 3.708-2.278 6.569-4.943 9.09l-.01.012v4.246"/><path fill="#090404" d="m12.012 8.647-4.25 5-1.524-1.295 4.25-5z"/><path fill="#090404" d="m16.647 13.512-5 4.25-1.295-1.524 5-4.25z"/></svg>