<svg xmlns="http://www.w3.org/2000/svg" fill="none" viewBox="0 0 24 24"><path fill="#090404" d="M18 8a6.97 6.97 0 0 0-4.669 1.786c1.625 2.325 1.677 4.985 1.671 7.407A6 6 0 0 0 18 12zM6 12a6 6 0 0 0 7 5.915c.001-3.05.057-5.497-1.75-7.545A6.98 6.98 0 0 0 6 8zm14 0a8 8 0 1 1-16 0V8a2 2 0 0 1 2-2c2.306 0 4.408.87 6 2.295A8.97 8.97 0 0 1 18 6a2 2 0 0 1 2 2z"/><path fill="#090404" d="M11 21v-2a1 1 0 1 1 2 0v2a1 1 0 1 1-2 0"/><path fill="#090404" d="M11.17 2.19a1.9 1.9 0 0 1 1.46-.083l.201.083.32.162c1.576.825 2.772 1.951 3.712 3.55a1 1 0 0 1-1.725 1.014c-.79-1.345-1.772-2.238-3.138-2.905-1.365.667-2.347 1.56-3.137 2.905a1 1 0 0 1-1.725-1.014C8.141 4.197 9.434 3.03 11.169 2.19"/></svg>