<svg xmlns="http://www.w3.org/2000/svg" fill="none" viewBox="0 0 24 24"><path fill="#090404" d="M12.793 12.793a1 1 0 1 1 1.414 1.414L12.414 16l1.793 1.793a1 1 0 1 1-1.414 1.414l-2.5-2.5a1 1 0 0 1 0-1.414z"/><path fill="#090404" d="M21 11c0-.798-.673-1.789-2.376-2.64C16.981 7.537 14.64 7 12 7s-4.98.538-6.624 1.36C3.673 9.21 3 10.201 3 11c0 .475.224 1.004.79 1.557.568.556 1.434 1.084 2.562 1.508a1 1 0 1 1-.704 1.872c-1.3-.49-2.434-1.144-3.258-1.95C1.562 13.175 1 12.16 1 11c0-1.963 1.566-3.472 3.481-4.43C6.457 5.582 9.117 5 12 5s5.543.582 7.519 1.57C21.434 7.528 23 9.037 23 11s-1.566 3.472-3.481 4.43C17.543 16.418 14.883 17 12 17a1 1 0 1 1 0-2c2.64 0 4.98-.538 6.624-1.36C20.327 12.79 21 11.799 21 11"/></svg>