<svg xmlns="http://www.w3.org/2000/svg" fill="none" viewBox="0 0 24 24"><path fill="#090404" d="M12 2c5.523 0 10 4.477 10 10s-4.477 10-10 10S2 17.523 2 12 6.477 2 12 2m.5 10a.5.5 0 1 0-1 0 .5.5 0 0 0 1 0M11 4.5v-.437a8 8 0 0 0-2.104.561l.22.38a1 1 0 0 1-1.732 1l-.219-.378c-.58.44-1.098.959-1.539 1.539l.379.219a1 1 0 0 1-1 1.732l-.381-.22A8 8 0 0 0 4.064 11H4.5a1 1 0 1 1 0 2h-.436c.092.736.282 1.442.56 2.102l.38-.218a1 1 0 0 1 1 1.732l-.378.218c.44.58.959 1.098 1.539 1.539l.219-.378a1 1 0 0 1 1.732 1l-.22.38c.661.278 1.367.469 2.104.56V19.5a1 1 0 1 1 2 0v.436a8 8 0 0 0 2.102-.561l-.218-.38a1 1 0 0 1 1.732-1l.218.378a8 8 0 0 0 1.539-1.539l-.378-.218a1 1 0 0 1 1-1.732l.38.218c.278-.66.469-1.365.56-2.102H19.5a1 1 0 1 1 0-2h.436a8 8 0 0 0-.561-2.104l-.38.22a1 1 0 0 1-1-1.732l.378-.219a8 8 0 0 0-1.539-1.539l-.218.379a1 1 0 0 1-1.732-1l.218-.381A8 8 0 0 0 13 4.064V4.5a1 1 0 1 1-2 0m3.5 7.5c0 .322-.064.629-.175.911l.132.132a1 1 0 0 1 .267.482q.135-.024.276-.025a1.5 1.5 0 1 1-1.475 1.223 1 1 0 0 1-.482-.266l-.132-.132A2.5 2.5 0 0 1 12 14.5a2.5 2.5 0 0 1-.912-.175l-.131.132a1 1 0 0 1-.483.267q.025.134.026.276a1.5 1.5 0 1 1-1.224-1.475 1 1 0 0 1 .267-.482l.13-.132a2.5 2.5 0 0 1 0-1.823l-.13-.131a1 1 0 0 1-.267-.483q-.135.025-.276.026a1.5 1.5 0 1 1 1.474-1.225c.177.04.345.13.483.268l.13.13a2.5 2.5 0 0 1 1.824 0l.132-.13a1 1 0 0 1 .482-.267 1.5 1.5 0 1 1 1.198 1.197 1 1 0 0 1-.266.484l-.132.13c.111.284.175.59.175.913"/></svg>