<svg xmlns="http://www.w3.org/2000/svg" fill="none" viewBox="0 0 24 24"><path fill="#090404" d="M14 1c1.047 0 1.903.804 1.99 1.828A10 10 0 0 1 22 12c0 5.523-4.477 10-10 10S2 17.523 2 12c0-4.105 2.473-7.631 6.009-9.172A2 2 0 0 1 10 1zm-1.293 5.707a1 1 0 0 1-1.414 0L9.12 4.534a8 8 0 0 0-2.025 1.147l1.37 1.369A1.001 1.001 0 0 1 7.05 8.465l-1.37-1.37A7.96 7.96 0 0 0 4.064 11H6a1 1 0 1 1 0 2H4.064a7.96 7.96 0 0 0 1.618 3.903l1.368-1.368a1 1 0 0 1 1.415 1.414l-1.37 1.368A7.96 7.96 0 0 0 11 19.936V18a1 1 0 1 1 2 0v1.936a7.95 7.95 0 0 0 3.903-1.619l-1.368-1.368a1 1 0 0 1 1.415-1.414l1.367 1.368A7.95 7.95 0 0 0 19.936 13H18a1 1 0 1 1 0-2h1.938a7.96 7.96 0 0 0-1.62-3.905l-1.368 1.37a1.001 1.001 0 0 1-1.415-1.415l1.37-1.37a8 8 0 0 0-2.026-1.146zM13 12a1 1 0 1 0-2 0 1 1 0 0 0 2 0m-1-7.414L13.586 3h-3.172zM15 12a3 3 0 1 1-6 0 3 3 0 0 1 6 0"/></svg>