<svg xmlns="http://www.w3.org/2000/svg" fill="none" viewBox="0 0 24 24"><path fill="#090404" fill-rule="evenodd" d="m21.25 8.536-.001-.662a26 26 0 0 0-.008-.558 8 8 0 0 0-.107-1.215 4.1 4.1 0 0 0-.38-1.156 3.9 3.9 0 0 0-1.7-1.698 4.1 4.1 0 0 0-1.155-.38 8 8 0 0 0-1.215-.108 25 25 0 0 0-.558-.008l-.663-.001H8.537l-.663.001a25 25 0 0 0-.558.008 8 8 0 0 0-1.215.108 4.1 4.1 0 0 0-1.155.38 3.9 3.9 0 0 0-1.7 1.699c-.187.37-.307.749-.38 1.156a8 8 0 0 0-.107 1.214q-.007.279-.008.559l-.001.662v6.926l.001.662q.001.28.008.559c.011.405.035.814.107 1.214.073.407.193.786.38 1.156a3.9 3.9 0 0 0 1.7 1.699c.37.188.748.307 1.155.38.4.072.81.096 1.215.107q.279.007.558.009h8.251q.28-.002.559-.009c.405-.01.814-.035 1.215-.107a4.1 4.1 0 0 0 1.155-.38 3.9 3.9 0 0 0 1.699-1.699c.188-.37.307-.749.38-1.156.072-.4.096-.81.107-1.214q.007-.28.009-.559v-.53zM7.618 17.842a1.46 1.46 0 1 0 0-2.921 1.46 1.46 0 0 0 0 2.92m4.382 0A5.84 5.84 0 0 0 6.158 12v-1.947a7.79 7.79 0 0 1 7.79 7.789zM6.158 8.105c5.377 0 9.736 4.36 9.736 9.737h1.948c0-6.453-5.231-11.684-11.684-11.684z" clip-rule="evenodd"/></svg>