<svg xmlns="http://www.w3.org/2000/svg" fill="none" viewBox="0 0 24 24"><path fill="#090404" d="M14.586 2a2 2 0 0 1 2.828 0L22 6.586a2 2 0 0 1 0 2.828L9.414 22a2 2 0 0 1-2.828 0L2 17.414a2 2 0 0 1 0-2.828zM3.414 16 8 20.586 20.586 8 16 3.414z"/><path fill="#090404" d="M8.293 8.293a1 1 0 0 1 1.414 0l2.25 2.25a1 1 0 1 1-1.414 1.414l-2.25-2.25a1 1 0 0 1 0-1.414"/><path fill="#090404" d="M11.793 4.793a1 1 0 0 1 1.414 0l1.25 1.25a1 1 0 1 1-1.414 1.414l-1.25-1.25a1 1 0 0 1 0-1.414"/><path fill="#090404" d="M4.793 11.793a1 1 0 0 1 1.414 0l1.25 1.25a1 1 0 1 1-1.414 1.414l-1.25-1.25a1 1 0 0 1 0-1.414"/></svg>