<svg xmlns="http://www.w3.org/2000/svg" fill="none" viewBox="0 0 24 24"><path fill="#090404" fill-rule="evenodd" d="M12 1.75c.102 0 .197.053.25.14l.54.87q.12.01.238.024l.7-.748.027-.026a.295.295 0 0 1 .463.123l.359.959.228.069.833-.599.032-.02a.294.294 0 0 1 .43.212l.166 1.015q.105.054.208.111l.936-.426a.294.294 0 0 1 .416.278l-.036 1.031q.09.072.178.147l1.005-.237a.294.294 0 0 1 .354.354l-.237 1.005q.075.088.147.178l1.031-.036a.294.294 0 0 1 .278.416l-.427.936q.058.103.112.208l1.015.166a.294.294 0 0 1 .192.462l-.599.832.07.23.958.358a.294.294 0 0 1 .097.49l-.747.7q.014.119.023.239l.87.539a.294.294 0 0 1 0 .5l-.87.539q-.01.12-.023.24l.747.698a.295.295 0 0 1-.097.49l-.958.36-.07.228.599.833a.294.294 0 0 1-.192.462l-1.014.165q-.055.105-.113.209l.427.936a.294.294 0 0 1-.278.416l-1.031-.036q-.072.09-.147.178l.237 1.005a.294.294 0 0 1-.354.354l-1.005-.237-.178.146.036 1.032a.294.294 0 0 1-.416.278l-.936-.427-.208.112-.166 1.015a.294.294 0 0 1-.462.192l-.833-.6-.228.07-.36.959a.295.295 0 0 1-.49.097l-.7-.748q-.118.014-.237.023l-.54.872a.294.294 0 0 1-.5 0l-.54-.872-.238-.023-.7.748a.295.295 0 0 1-.49-.097l-.36-.96-.226-.069-.834.6a.294.294 0 0 1-.462-.192l-.166-1.016-.207-.111-.937.427a.294.294 0 0 1-.416-.278l.036-1.033-.177-.145-1.006.237a.294.294 0 0 1-.354-.354l.237-1.007-.145-.177-1.033.037a.295.295 0 0 1-.278-.416l.427-.938-.11-.206-1.017-.166a.294.294 0 0 1-.192-.462l.6-.835-.069-.226-.96-.36a.294.294 0 0 1-.097-.49l.749-.7-.024-.237-.872-.54a.294.294 0 0 1 0-.5l.872-.54.023-.237-.748-.7a.295.295 0 0 1 .097-.49l.96-.36q.033-.114.069-.227l-.6-.834a.294.294 0 0 1 .192-.462l1.016-.166q.054-.104.11-.207l-.426-.937a.294.294 0 0 1 .278-.416l1.032.036.146-.177-.237-1.006a.294.294 0 0 1 .354-.354l1.006.237q.087-.074.177-.146l-.036-1.032a.295.295 0 0 1 .416-.278l.937.427q.102-.058.207-.112L7.9 2.754l.008-.037a.294.294 0 0 1 .454-.155l.833.6.228-.07.36-.959.015-.034a.294.294 0 0 1 .475-.063l.7.748q.117-.014.237-.023l.54-.872.022-.03A.3.3 0 0 1 12 1.75m-1.7 10.943-.002 1.375h1.795c.069 0 .116.013.116.076v2.17c0 .064-.047.076-.116.076H5.96q.3.406.651.77l1.261-.271c.3-.065.595.127.66.427l.306 1.428a7.51 7.51 0 0 0 6.26.03l.306-1.428c.064-.3.36-.493.66-.428l1.29.277q.375-.378.694-.805H14.88c-.5 0-.97-.706-1.085-1.06-.116-.315-.287-1.3-.363-1.602-.245-.985-1.016-1.035-1.193-1.035zm6.203 4.996a.61.61 0 1 0-.036 1.218.61.61 0 0 0 .036-1.218m-9.034-.028a.61.61 0 1 0-.035 1.219.61.61 0 0 0 .035-1.219m4.863-12.103a.553.553 0 0 1-.784-.018l-.94-.985a7.5 7.5 0 0 0-4.2 2.37h7.965c.2 0 .941.088 1.612.53.477.316 1.177.959 1.177 1.981 0 .946-.784 1.654-1.54 2.132.608.481.993.758 1.224 2.058.055.24.489.45.881.404.412-.045.88-.227.881-1.059v-.353c0-.075.031-.126.108-.126h.77q.05-.652-.015-1.302l-1.385-.614a.56.56 0 0 1-.282-.736l.72-1.624a7.5 7.5 0 0 0-5.14-3.66zm-6.47 3.639.271.61a.556.556 0 0 1-.282.733l-1.315.585a7.5 7.5 0 0 0 .244 2.866h2.146V9.197zm4.438.05-.002 1.415h2.35c.5 0 1.109-.177 1.109-.669 0-.594-.793-.745-.924-.745zm8.96-.148a.611.611 0 1 0-.036 1.221.611.611 0 0 0 .035-1.221M4.712 9.07a.61.61 0 1 0-.035 1.22.61.61 0 0 0 .035-1.22m7.274-5.52a.61.61 0 1 0-.035 1.22.61.61 0 0 0 .035-1.22" clip-rule="evenodd"/></svg>