<svg xmlns="http://www.w3.org/2000/svg" fill="none" viewBox="0 0 24 24"><path fill="#090404" d="M5 5v14h14V5zm16 14a2 2 0 0 1-2 2H5a2 2 0 0 1-2-2V5a2 2 0 0 1 2-2h14a2 2 0 0 1 2 2z"/><path fill="#090404" d="M5 7a1 1 0 0 1 0 2H3a1 1 0 0 1 0-2z"/><path fill="#090404" d="M5 15a1 1 0 1 1 0 2H3a1 1 0 1 1 0-2z"/><path fill="#090404" d="M13.75 12a1.5 1.5 0 1 0-3 0 1.5 1.5 0 0 0 3 0m2 0a3.5 3.5 0 1 1-7 0 3.5 3.5 0 0 1 7 0"/><path fill="#090404" d="M9.543 13.293a1 1 0 1 1 1.414 1.414l-1.5 1.5a1 1 0 1 1-1.414-1.414zm4 0a1 1 0 0 1 1.414 0l1.5 1.5a1 1 0 1 1-1.414 1.414l-1.5-1.5a1 1 0 0 1 0-1.414m-5.5-5.5a1 1 0 0 1 1.414 0l1.5 1.5a1 1 0 1 1-1.414 1.414l-1.5-1.5a1 1 0 0 1 0-1.414m7 0a1 1 0 1 1 1.414 1.414l-1.5 1.5a1 1 0 1 1-1.414-1.414z"/></svg>