<svg xmlns="http://www.w3.org/2000/svg" fill="none" viewBox="0 0 24 24"><path fill="#090404" d="M20 17H4v2h16zM5.662 15H17.98l-2.023-1.904-3.388.798a2 2 0 0 1-1.31-.138l-3.241-1.525zm-.16-6.652.662 2.973.328-.386a2 2 0 0 1 2.376-.514l1.646.774-.222-3.52zm1.977-3.307a1 1 0 0 0-.852 1.13l1.98-.279a1 1 0 0 0-1.128-.85m8.374.097 1.402.803 1.568-.386.185-1.31-2.972-.417zM22 19a2 2 0 0 1-2 2H4a2 2 0 0 1-2-2v-3a1 1 0 0 1 1-1h.037l1.503-1.768-.99-4.448c-.21-.941.28-1.864 1.108-2.248l-.012-.087a3 3 0 0 1 5.943-.835l.012.087a2 2 0 0 1 1.687 1.85l.27 4.29 2.955-.695.507-3.608-1.162-.665a2 2 0 0 1-.986-2.013l.184-1.31a2 2 0 0 1 2.258-1.703l2.972.418a2 2 0 0 1 1.702 2.259l-.184 1.31A2 2 0 0 1 19.3 7.496L18 7.816l-.554 3.937L20.897 15H21a1 1 0 0 1 1 1z"/></svg>