<svg xmlns="http://www.w3.org/2000/svg" fill="none" viewBox="0 0 24 24"><path fill="#090404" d="M3 19V4a1 1 0 0 1 2 0v15h15a1 1 0 1 1 0 2H5a2 2 0 0 1-2-2"/><path fill="#090404" d="M7 6c1.585 0 2.871.617 3.954 1.46 1.058.826 1.975 1.91 2.809 2.892.864 1.018 1.646 1.934 2.512 2.609C17.117 13.617 17.982 14 19 14a1 1 0 1 1 0 2c-1.585 0-2.871-.617-3.954-1.46-1.058-.826-1.975-1.91-2.809-2.892-.864-1.018-1.646-1.934-2.512-2.609C8.883 8.383 8.018 8 7 8a1 1 0 0 1 0-2"/><path fill="#090404" d="M19 5c-3.033 0-4.999 1.781-6.662 3.251C10.606 9.781 9.175 11 7 11a1 1 0 1 0 0 2c3.033 0 4.999-1.781 6.662-3.251C15.394 8.219 16.825 7 19 7a1 1 0 1 0 0-2"/><path fill="#090404" d="M19 9c-3.093 0-5.077 2.112-6.718 3.804C10.527 14.612 9.115 16 7 16a1 1 0 1 0 0 2c3.093 0 5.077-2.112 6.718-3.804C15.473 12.388 16.884 11 19 11a1 1 0 1 0 0-2"/></svg>