<svg xmlns="http://www.w3.org/2000/svg" fill="none" viewBox="0 0 24 24"><path fill="#090404" d="M4 5c3.9 0 6.433 2.281 8.662 4.251C14.96 11.281 16.957 13 20 13a1 1 0 1 1 0 2c-3.9 0-6.433-2.281-8.662-4.251C9.04 8.719 7.043 7 4 7a1 1 0 0 1 0-2"/><path fill="#090404" d="M4 11c3.51 0 6.15 1.669 8.53 3.151C14.963 15.67 17.14 17 20 17a1 1 0 1 1 0 2c-3.51 0-6.15-1.669-8.53-3.151C9.037 14.33 6.86 13 4 13a1 1 0 1 1 0-2"/><path fill="#090404" d="M20 5a1 1 0 1 1 0 2c-1.574 0-2.776.613-3.858 1.61-1.12 1.032-2.06 2.424-3.103 3.954C11.042 15.488 8.647 19 4 19a1 1 0 1 1 0-2c3.448 0 5.29-2.49 7.388-5.563 1.003-1.471 2.076-3.079 3.397-4.297C16.144 5.887 17.811 5 20 5"/></svg>