<svg xmlns="http://www.w3.org/2000/svg" fill="none" viewBox="0 0 24 24"><path fill="#090404" d="M3.814 6.273c.704-.825 1.893-.813 2.656-.2l.157.139 11.16 11.161c.797.797.83 2.236-.25 2.956-3.885 2.588-9.18 2.17-12.608-1.258S1.083 10.348 3.67 6.463zM5.266 7.68a8 8 0 0 0 1.077 9.976 8 8 0 0 0 9.976 1.078z"/><path fill="#090404" d="M20 12a8 8 0 0 0-8-8 1 1 0 1 1 0-2c5.523 0 10 4.477 10 10a1 1 0 1 1-2 0"/><path fill="#090404" d="M17 12a5 5 0 0 0-5-5 1 1 0 1 1 0-2 7 7 0 0 1 7 7 1 1 0 1 1-2 0"/><path fill="#090404" d="M12.293 10.293a1 1 0 1 1 1.414 1.414l-1 1a1 1 0 1 1-1.414-1.414z"/></svg>