<svg xmlns="http://www.w3.org/2000/svg" fill="none" viewBox="0 0 24 24"><path fill="#090404" d="M13.086 5.5a2 2 0 0 1 2.828 0L18.5 8.086a2 2 0 0 1 0 2.828l-6.293 6.293a1 1 0 0 1-1.414-1.414L17.086 9.5 14.5 6.914l-6.293 6.293a1 1 0 0 1-1.414-1.414z"/><path fill="#090404" d="M6.293 16.293a1 1 0 1 1 1.414 1.414l-2 2a1 1 0 1 1-1.414-1.414z"/><path fill="#090404" d="M6.086 1.5a2 2 0 0 1 2.828 0l4.793 4.793a1 1 0 0 1-1.414 1.414L10.25 5.664 7.164 8.75l2.043 2.043a1 1 0 0 1-1.414 1.414L3 7.414a2 2 0 0 1 0-2.828zM4.414 6 5.75 7.336 8.836 4.25 7.5 2.914z"/><path fill="#090404" d="M16.293 10.293a1 1 0 0 1 1.414 0l4.793 4.793a2 2 0 0 1 0 2.828L19.414 21a2 2 0 0 1-2.828 0l-4.793-4.793a1 1 0 1 1 1.414-1.414l2.043 2.043 3.086-3.086-2.043-2.043a1 1 0 0 1 0-1.414m.371 7.957L18 19.586l3.086-3.086-1.336-1.336z"/><path fill="#090404" d="M9.121 14.879a3 3 0 0 0-3.412-.585l3.996 3.996a3 3 0 0 0-.584-3.411m1.415-1.415a5 5 0 0 1 0 7.071 1 1 0 0 1-1.415 0L3.464 14.88a1 1 0 0 1 0-1.415 5 5 0 0 1 7.072 0"/></svg>