<svg xmlns="http://www.w3.org/2000/svg" fill="none" viewBox="0 0 24 24"><path fill="#090404" d="M7 9h1v6H7z"/><path fill="#090404" d="M9 9h2v6H9z"/><path fill="#090404" d="M12 9h1v6h-1z"/><path fill="#090404" d="M16 9h1v6h-1z"/><path fill="#090404" d="M14 9h1v6h-1z"/><path fill="#090404" d="M3 8V5a2 2 0 0 1 2-2h3a1 1 0 0 1 0 2H5v3a1 1 0 0 1-2 0"/><path fill="#090404" d="M3 19v-3a1 1 0 1 1 2 0v3h3a1 1 0 1 1 0 2H5a2 2 0 0 1-2-2"/><path fill="#090404" d="M19 8V5h-3a1 1 0 1 1 0-2h3a2 2 0 0 1 2 2v3a1 1 0 1 1-2 0"/><path fill="#090404" d="M19 19v-3a1 1 0 1 1 2 0v3a2 2 0 0 1-2 2h-3a1 1 0 1 1 0-2z"/></svg>