<svg xmlns="http://www.w3.org/2000/svg" fill="none" viewBox="0 0 24 24"><path fill="#090404" d="M3 8V5a2 2 0 0 1 2-2h3a1 1 0 0 1 0 2H5v3a1 1 0 0 1-2 0"/><path fill="#090404" d="M21 8V5a2 2 0 0 0-2-2h-3a1 1 0 1 0 0 2h3v3a1 1 0 1 0 2 0"/><path fill="#090404" d="M3 16v3a2 2 0 0 0 2 2h3a1 1 0 1 0 0-2H5v-3a1 1 0 1 0-2 0"/><path fill="#090404" d="M21 16v3a2 2 0 0 1-2 2h-3a1 1 0 1 1 0-2h3v-3a1 1 0 1 1 2 0"/><path fill="#090404" d="M6.1 13v-2a.9.9 0 0 1 1.8 0v2a.9.9 0 0 1-1.8 0"/><path fill="#090404" d="M16.1 14.5v-5a.9.9 0 0 1 1.8 0v5a.9.9 0 0 1-1.8 0"/><path fill="#090404" d="M12.77 13v-2a.9.9 0 0 1 1.8 0v2a.9.9 0 0 1-1.8 0"/><path fill="#090404" d="M9.43 16V8a.9.9 0 0 1 1.8 0v8a.9.9 0 0 1-1.8 0"/></svg>