<svg xmlns="http://www.w3.org/2000/svg" fill="none" viewBox="0 0 24 24"><path fill="#090404" d="M20 19v-9h-3a1 1 0 1 1 0-2h3a2 2 0 0 1 2 2v9a1 1 0 1 1-2 0"/><path fill="#090404" d="M16 19V6H8v13a1 1 0 1 1-2 0V6a2 2 0 0 1 2-2h8a2 2 0 0 1 2 2v13a1 1 0 1 1-2 0"/><path fill="#090404" d="M2 19v-9a2 2 0 0 1 2-2h3a1 1 0 0 1 0 2H4v9a1 1 0 1 1-2 0"/><path fill="#090404" d="M22 18a1 1 0 1 1 0 2H2a1 1 0 1 1 0-2z"/><path fill="#090404" d="M13 19v-3h-2v3a1 1 0 1 1-2 0v-3a2 2 0 0 1 2-2h2a2 2 0 0 1 2 2v3a1 1 0 1 1-2 0"/></svg>