<svg xmlns="http://www.w3.org/2000/svg" fill="none" viewBox="0 0 24 24"><path fill="#090404" d="M8 7a2 2 0 1 0-4 0 2 2 0 0 0 4 0m2 0a4 4 0 1 1-8 0 4 4 0 0 1 8 0"/><path fill="#090404" d="M8 17a2 2 0 1 0-4 0 2 2 0 0 0 4 0m2 0a4 4 0 1 1-8 0 4 4 0 0 1 8 0"/><path fill="#090404" d="M17.507 4.857a2 2 0 0 1 2.119.28l2.515 2.094a1 1 0 0 1-.258 1.693l-9.5 3.931A1 1 0 0 1 11 11.931V9.14a2 2 0 0 1 1.162-1.816zM13 10.435l6.588-2.727-1.242-1.035L13 9.14z"/><path fill="#090404" d="M11.444 11.238c.278-.186.63-.22.939-.093l9.5 3.93a1 1 0 0 1 .258 1.693l-2.515 2.096a2 2 0 0 1-2.12.28l-5.344-2.468A2 2 0 0 1 11 14.86v-2.791a1 1 0 0 1 .444-.831m6.902 6.089 1.242-1.036L13 13.565v1.295z"/><path fill="#090404" d="M11.617 11.007a1 1 0 0 1 1.383.924v.138h-.943l.326.786-.167.07-4.833 2-.766-1.85 4.834-2z"/><path fill="#090404" d="m12.216 11.076.167.069-.766 1.848-.166-.07-4.834-2 .766-1.847z"/></svg>