<svg xmlns="http://www.w3.org/2000/svg" fill="none" viewBox="0 0 24 24"><path fill="#090404" d="M2 18v-1a1 1 0 1 1 2 0v1h1a1 1 0 1 1 0 2H4a2 2 0 0 1-2-2m8 0a1 1 0 1 1 0 2H9a1 1 0 1 1 0-2zm-8-5v-2a1 1 0 1 1 2 0v2a1 1 0 1 1-2 0m0-6V6a2 2 0 0 1 2-2h1a1 1 0 0 1 0 2H4v1a1 1 0 0 1-2 0m18 0V6h-1a1 1 0 1 1 0-2h1a2 2 0 0 1 2 2v1a1 1 0 1 1-2 0M10 4a1 1 0 1 1 0 2H9a1 1 0 0 1 0-2zm5 0a1 1 0 1 1 0 2h-1a1 1 0 1 1 0-2z"/><path fill="#090404" d="M19 15.5a.5.5 0 1 0-1 0 .5.5 0 0 0 1 0m2 0a2.5 2.5 0 1 1-5 0 2.5 2.5 0 0 1 5 0"/><path fill="#090404" d="M19 15a.5.5 0 0 1 0 1h-1a.5.5 0 0 1 0-1z"/><path fill="#090404" d="M22 15.5a3.5 3.5 0 1 0-7 0 3.5 3.5 0 0 0 7 0m2 0a5.5 5.5 0 1 1-11 0 5.5 5.5 0 0 1 11 0"/></svg>