<svg xmlns="http://www.w3.org/2000/svg" fill="none" viewBox="0 0 24 24"><path fill="#090404" d="M19.5 5.75a.75.75 0 0 0-1.5 0V8h1.5zm2 2.25a2 2 0 0 1-2 2H18v8.25a2.75 2.75 0 1 1-5.5 0V17h-8v1a1 1 0 0 0 1 1H7a1 1 0 1 1 0 2H5.5a3 3 0 0 1-3-3v-1a2 2 0 0 1 2-2h8a2 2 0 0 1 2 2v1.25a.75.75 0 0 0 1.5 0V5.75a2.75 2.75 0 1 1 5.5 0z"/><path fill="#090404" d="M5 16V6a3 3 0 0 1 3-3h11a1 1 0 1 1 0 2H8a1 1 0 0 0-1 1v10a1 1 0 1 1-2 0"/><path fill="#090404" d="M15 19a1 1 0 1 1 0 2H6a1 1 0 1 1 0-2z"/><path fill="#090404" d="M10.66 7.06a1 1 0 0 1 .787.045l.79.395H13.5a1 1 0 1 1 0 2H12a1 1 0 0 1-.447-.105L11 9.118l-.553.277A1 1 0 0 1 10 9.5h-.5a1 1 0 0 1 0-2h.264l.789-.395z"/><path fill="#090404" d="M10.66 10.56a1 1 0 0 1 .787.045l.79.395H13.5a1 1 0 1 1 0 2H12a1 1 0 0 1-.447-.105L11 12.618l-.553.277A1 1 0 0 1 10 13h-.5a1 1 0 1 1 0-2h.264l.789-.395z"/></svg>