<svg xmlns="http://www.w3.org/2000/svg" fill="none" viewBox="0 0 24 24"><path fill="#090404" d="m7.08 4.77-.536-1.397a.582.582 0 0 0-1.088 0L4.92 4.77A2 2 0 0 1 3.77 5.92l-1.397.536a.582.582 0 0 0 0 1.088l1.397.537A2 2 0 0 1 4.92 9.23l.536 1.397a.582.582 0 0 0 1.088 0L7.08 9.23A2 2 0 0 1 8.23 8.08l1.397-.536a.582.582 0 0 0 0-1.088L8.23 5.92A2 2 0 0 1 7.08 4.77"/><path fill="#090404" d="M19.5 5.75a.75.75 0 0 0-1.5 0V8h1.5zm2 2.25a2 2 0 0 1-2 2H18v8.25a2.75 2.75 0 1 1-5.5 0V17h-8v1a1 1 0 0 0 1 1H7a1 1 0 1 1 0 2H5.5a3 3 0 0 1-3-3v-1a2 2 0 0 1 2-2h8a2 2 0 0 1 2 2v1.25a.75.75 0 0 0 1.5 0V5.75a2.75 2.75 0 1 1 5.5 0z"/><path fill="#090404" d="M15 19a1 1 0 1 1 0 2H6a1 1 0 1 1 0-2z"/><path fill="#090404" d="M5 16v-2.5a1 1 0 1 1 2 0V16a1 1 0 1 1-2 0M19 3a1 1 0 1 1 0 2h-8.5a1 1 0 0 1 0-2z"/></svg>