<svg xmlns="http://www.w3.org/2000/svg" fill="none" viewBox="0 0 24 24"><path fill="#090404" d="m17.24 4.185-.696-1.812a.582.582 0 0 0-1.088 0l-.697 1.812a1 1 0 0 1-.574.575l-1.812.696a.582.582 0 0 0 0 1.088l1.812.696a1 1 0 0 1 .574.575l.697 1.812a.582.582 0 0 0 1.088 0l.697-1.812a1 1 0 0 1 .574-.575l1.812-.696a.582.582 0 0 0 0-1.088l-1.812-.696a1 1 0 0 1-.575-.575"/><path fill="#090404" d="M3 11a8 8 0 0 1 5.715-7.668 1 1 0 1 1 .57 1.916 6 6 0 1 0 7.467 7.467 1 1 0 1 1 1.917.57A8 8 0 0 1 3 11"/><path fill="#090404" d="M15.343 15.343a1 1 0 0 1 1.414 0l3.95 3.95a1 1 0 0 1-1.414 1.414l-3.95-3.95a1 1 0 0 1 0-1.414"/></svg>