<svg xmlns="http://www.w3.org/2000/svg" fill="none" viewBox="0 0 24 24"><path fill="#090404" d="M13.39 19.88a1 1 0 0 1 .346 1.97 10 10 0 0 1-3.472 0 1 1 0 1 1 .345-1.97 8 8 0 0 0 2.782 0m-9.337-3.536a1 1 0 0 1 1.392.244 8 8 0 0 0 1.967 1.967 1 1 0 1 1-1.15 1.636c-.953-.669-1.784-1.5-2.453-2.454a1 1 0 0 1 .244-1.393m14.502.244a1 1 0 1 1 1.636 1.15c-.669.953-1.5 1.784-2.454 2.453a1 1 0 0 1-1.15-1.636 8 8 0 0 0 1.968-1.967M2 12q0-.888.15-1.736a1 1 0 1 1 1.97.345 8 8 0 0 0 0 2.782 1 1 0 0 1-1.97.345A10 10 0 0 1 2 12m18 0q0-.714-.12-1.39a1 1 0 0 1 1.97-.346 10 10 0 0 1 0 3.472 1 1 0 1 1-1.97-.345Q20 12.713 20 12M6.263 3.809a1 1 0 0 1 1.15 1.636 8 8 0 0 0-1.968 1.967 1 1 0 1 1-1.636-1.15A10 10 0 0 1 6.263 3.81m10.08.244a1 1 0 0 1 1.394-.244c.954.669 1.785 1.5 2.454 2.454a1 1 0 0 1-1.636 1.15 8 8 0 0 0-1.967-1.968 1 1 0 0 1-.244-1.392M12 2q.888 0 1.736.15a1 1 0 1 1-.345 1.97 8 8 0 0 0-2.782 0 1 1 0 0 1-.345-1.97Q11.112 2 12 2"/><path fill="#090404" d="M16.75 12a4.75 4.75 0 1 0-9.5 0 4.75 4.75 0 0 0 9.5 0m2 0a6.75 6.75 0 1 1-13.5 0 6.75 6.75 0 0 1 13.5 0"/><path fill="#090404" d="M11 10a1 1 0 1 1 2 0v1.586l1.207 1.207a1 1 0 1 1-1.414 1.414l-1.5-1.5A1 1 0 0 1 11 12z"/></svg>