<svg xmlns="http://www.w3.org/2000/svg" fill="none" viewBox="0 0 24 24"><path fill="#090404" d="M2 17V7a2 2 0 0 1 2-2h9a1 1 0 1 1 0 2H4v10h9a1 1 0 1 1 0 2H4a2 2 0 0 1-2-2"/><path fill="#090404" d="M12 21V3a1 1 0 1 1 2 0v18a1 1 0 1 1-2 0"/><path fill="#090404" d="M15 15V9a1 1 0 1 1 2 0v6a1 1 0 1 1-2 0"/><path fill="#090404" d="M21 13.5v-3a1 1 0 1 1 2 0v3a1 1 0 1 1-2 0"/><path fill="#090404" d="M18 18V6a1 1 0 1 1 2 0v12a1 1 0 1 1-2 0"/><path fill="#090404" d="M6.5 8a1 1 0 0 1 0 2H6a1 1 0 0 1 0-2z"/><path fill="#090404" d="M6.5 14a1 1 0 1 1 0 2H6a1 1 0 1 1 0-2z"/><path fill="#090404" d="M10 8a1 1 0 1 1 0 2h-.5a1 1 0 0 1 0-2z"/><path fill="#090404" d="M10 14a1 1 0 1 1 0 2h-.5a1 1 0 1 1 0-2z"/></svg>