<svg xmlns="http://www.w3.org/2000/svg" fill="none" viewBox="0 0 24 24"><path fill="#090404" d="M7 8.5a.5.5 0 1 1-1 0 .5.5 0 0 1 1 0"/><path fill="#090404" d="M7 15.5a.5.5 0 1 1-1 0 .5.5 0 0 1 1 0"/><path fill="#090404" d="M4 6v5h16V6zm18 6a1 1 0 0 1-1 1H3a1 1 0 0 1-1-1V6a2 2 0 0 1 2-2h16a2 2 0 0 1 2 2z"/><path fill="#090404" d="M20 13H4v5h16zm2 5a2 2 0 0 1-2 2H4a2 2 0 0 1-2-2v-6a1 1 0 0 1 1-1h18a1 1 0 0 1 1 1z"/><path fill="#090404" d="M7 15.5a.5.5 0 1 0-1 0 .5.5 0 0 0 1 0m0-7a.5.5 0 1 0-1 0 .5.5 0 0 0 1 0m.75 7a1.25 1.25 0 1 1-2.5 0 1.25 1.25 0 0 1 2.5 0m0-7a1.25 1.25 0 1 1-2.5 0 1.25 1.25 0 0 1 2.5 0"/></svg>