<svg xmlns="http://www.w3.org/2000/svg" fill="none" viewBox="0 0 24 24"><path fill="#090404" d="M12 2c2.017 0 3.886.29 5.286.79.696.249 1.33.568 1.809.973.474.4.905.983.905 1.737v13c0 .754-.43 1.337-.905 1.737-.48.405-1.113.725-1.809.973-1.4.5-3.27.79-5.286.79-2.017 0-3.886-.29-5.286-.79-.696-.248-1.33-.568-1.809-.973-.474-.4-.905-.983-.905-1.737v-13c0-.754.43-1.337.905-1.737.48-.405 1.113-.724 1.809-.973C8.114 2.29 9.984 2 12 2m6 12.416a8 8 0 0 1-.714.294c-1.4.5-3.27.79-5.286.79-2.017 0-3.886-.29-5.286-.79A8 8 0 0 1 6 14.416v4.066c.006.02.041.097.195.227.23.194.62.413 1.192.617C8.52 19.731 10.15 20 12 20s3.48-.27 4.613-.674c.571-.204.962-.423 1.192-.617.154-.13.189-.207.195-.227zm0-6.5a8 8 0 0 1-.714.294c-1.4.5-3.27.79-5.286.79-2.017 0-3.886-.29-5.286-.79A8 8 0 0 1 6 7.916v4.066c.006.02.041.097.195.227.23.194.62.413 1.192.617 1.133.405 2.764.674 4.613.674s3.48-.27 4.613-.674c.571-.204.962-.423 1.192-.617.154-.13.189-.207.195-.227zM12 4c-1.85 0-3.48.27-4.613.674-.571.204-.962.423-1.192.617a.8.8 0 0 0-.188.209.8.8 0 0 0 .188.209c.23.194.62.413 1.192.617C8.52 6.731 10.15 7 12 7s3.48-.27 4.613-.674c.571-.204.962-.423 1.192-.617a.7.7 0 0 0 .187-.209.7.7 0 0 0-.187-.209c-.23-.194-.62-.413-1.192-.617C15.48 4.269 13.85 4 12 4"/></svg>