<svg xmlns="http://www.w3.org/2000/svg" fill="none" viewBox="0 0 24 24"><path fill="#090404" d="M4.951 20.004v-6.003a1 1 0 1 1 2 0v6.003a1 1 0 0 1-2 0"/><path fill="#090404" d="M4.951 10V3.997a1 1 0 0 1 2 0V10a1 1 0 1 1-2 0"/><path fill="#090404" d="M11 20.003v-7.002a1 1 0 1 1 2 0v7.002a1 1 0 1 1-2 0"/><path fill="#090404" d="M11 8.999V3.997a1 1 0 1 1 2 0V9a1 1 0 1 1-2 0"/><path fill="#090404" d="M17.049 20.004v-4.002a1 1 0 1 1 2 0v4.002a1 1 0 0 1-2 0"/><path fill="#090404" d="M17.049 12.001V3.997a1 1 0 1 1 2 0v8.004a1 1 0 0 1-2 0"/><path fill="#090404" d="M13.955 7.999a1 1 0 1 1 0 2h-3.91a1 1 0 0 1 0-2z"/><path fill="#090404" d="M20.004 15.002a1 1 0 1 1 0 2h-3.91a1 1 0 0 1 0-2z"/><path fill="#090404" d="M7.906 13.002a1 1 0 1 1 0 2h-3.91a1 1 0 0 1 0-2z"/></svg>