<svg xmlns="http://www.w3.org/2000/svg" fill="none" viewBox="0 0 24 24"><path fill="#090404" d="M17 7a2 2 0 1 0-4 0 2 2 0 1 0 4 0m2 0a4 4 0 0 1-4 4 4 4 0 0 1-4-4 4 4 0 0 1 4-4 4 4 0 0 1 4 4"/><path fill="#090404" d="M12 6a1 1 0 1 1 0 2H4a1 1 0 0 1 0-2z"/><path fill="#090404" d="M20 6a1 1 0 1 1 0 2h-2a1 1 0 1 1 0-2z"/><path fill="#090404" d="M11 17a2 2 0 1 0-4 0 2 2 0 1 0 4 0m2 0a4 4 0 0 1-4 4 4 4 0 0 1-4-4 4 4 0 0 1 4-4 4 4 0 0 1 4 4"/><path fill="#090404" d="M6 16a1 1 0 1 1 0 2H4a1 1 0 1 1 0-2z"/><path fill="#090404" d="M20 16a1 1 0 1 1 0 2h-7.5a1 1 0 1 1 0-2z"/></svg>