<svg xmlns="http://www.w3.org/2000/svg" fill="none" viewBox="0 0 24 24"><path fill="#090404" d="M20.16 6.134a1 1 0 0 1 1 1.732l-.914.527c.356.814.597 1.69.698 2.607H22a1 1 0 1 1 0 2h-2a1 1 0 0 1-1-1c0-1.277-.34-2.471-.936-3.5a1 1 0 0 1 .365-1.366z"/><path fill="#090404" d="M20 11a1 1 0 0 1 1 1 9 9 0 0 1-.754 3.607l.914.527a1 1 0 0 1-1 1.732l-.915-.528a9 9 0 0 1-2.744 2.457 8.96 8.96 0 0 1-4.5 1.205 8.96 8.96 0 0 1-4.503-1.205 1 1 0 0 1-.365-1.365l3.001-5.197.054-.084a1 1 0 0 1 1.312-.282A1 1 0 0 0 13 12a1 1 0 0 1 1-1zm-5.175 2a3 3 0 0 1-3.374 1.948L9.401 18.5a7 7 0 0 0 2.6.501 6.96 6.96 0 0 0 3.5-.936 7.04 7.04 0 0 0 2.563-2.564c.436-.755.736-1.6.865-2.5z"/><path fill="#090404" d="M15.136 4.57a1 1 0 0 1 1.366-.364 9.04 9.04 0 0 1 3.293 3.292 1 1 0 0 1-1.73 1.002A7.04 7.04 0 0 0 15.5 5.936a1 1 0 0 1-.364-1.366"/><path fill="#090404" d="M15.5 18.063a1 1 0 0 1 1.367.367l.999 1.73a1 1 0 0 1-1.732 1l-1-1.73a1 1 0 0 1 .367-1.367"/><path fill="#090404" d="M11 22v-2a1 1 0 1 1 2 0v2a1 1 0 0 1-2 0"/><path fill="#090404" d="M3 12c0-1.281.269-2.501.753-3.606l-.913-.528a1 1 0 0 1 1-1.732l1.73.999A1.003 1.003 0 0 1 5.936 8.5 6.96 6.96 0 0 0 5 12c0 1.277.341 2.472.936 3.5A7.04 7.04 0 0 0 8.5 18.064a1 1 0 0 1 .365 1.366l-.999 1.73a1 1 0 0 1-1.732-1l.528-.916a9 9 0 0 1-2.457-2.743A8.96 8.96 0 0 1 3 12.001"/><path fill="#090404" d="M4.57 15.135a1 1 0 0 1 1 1.732l-1.73.999a1 1 0 0 1-1-1.731z"/><path fill="#090404" d="M4 11a1 1 0 0 1 0 2H2a1 1 0 1 1 0-2z"/><path fill="#090404" d="M11 2a1 1 0 1 1 2 0v2a1 1 0 0 1-1 1 6.96 6.96 0 0 0-3.5.937A7.04 7.04 0 0 0 5.936 8.5a1 1 0 1 1-1.73-1.001 9.04 9.04 0 0 1 3.292-3.294A8.95 8.95 0 0 1 11 3.055z"/><path fill="#090404" d="M12.995 11.898a1 1 0 0 0-1.494-.764 1 1 0 0 1-1.367-.366l-4-6.928a1 1 0 0 1 1.732-1l3.586 6.21A3 3 0 0 1 15 12a1 1 0 0 1-1.995.103z"/><path fill="#090404" d="M12 3c1.638 0 3.177.439 4.502 1.205A1 1 0 0 1 15.5 5.937 6.96 6.96 0 0 0 12 5a1 1 0 1 1 0-2"/><path fill="#090404" d="M16.134 2.84a1 1 0 0 1 1.732 1l-.999 1.73a1 1 0 0 1-1.732-1z"/><path fill="#090404" d="M9 12a3 3 0 0 1 1.499-2.597 1 1 0 0 1 1.002 1.73 1 1 0 0 0 0 1.734 1 1 0 0 1-1.002 1.73A3 3 0 0 1 9 12"/></svg>