<svg xmlns="http://www.w3.org/2000/svg" fill="none" viewBox="0 0 24 24"><path fill="#090404" d="M5 5v14h14V5zm16 14a2 2 0 0 1-2 2H5a2 2 0 0 1-2-2V5a2 2 0 0 1 2-2h14a2 2 0 0 1 2 2z"/><path fill="#090404" d="M12.12 3.007a1 1 0 0 1 .873 1.113c-.21 1.736.088 2.598.465 3.098.405.536 1.044.863 2.01 1.24.89.347 2.095.745 3.12 1.498 1.086.799 1.962 1.972 2.387 3.82a1 1 0 0 1-1.95.448c-.318-1.388-.927-2.145-1.621-2.655-.756-.555-1.629-.844-2.663-1.248-.962-.376-2.101-.866-2.88-1.898-.805-1.067-1.096-2.523-.854-4.542a1 1 0 0 1 1.113-.874"/><path fill="#090404" d="M6.648 10.778c1.007-.27 1.842-.093 2.546.392.61.42 1.1 1.066 1.497 1.564.435.545.856 1.05 1.41 1.466.398.3.863.514 1.418.735.517.207 1.183.442 1.774.754.622.329 1.243.779 1.74 1.48.494.699.819 1.582.96 2.707a1 1 0 1 1-1.985.248c-.11-.875-.343-1.426-.607-1.8-.264-.372-.606-.636-1.041-.866-.467-.246-.956-.415-1.582-.664-.59-.235-1.259-.53-1.878-.995-.776-.584-1.333-1.267-1.772-1.817-.477-.597-.76-.953-1.067-1.165-.214-.147-.443-.228-.894-.107-.53.142-1.33.562-2.547 1.523a1 1 0 0 1-1.24-1.57c1.282-1.012 2.339-1.635 3.268-1.885"/><path fill="#090404" d="M3.535 15.727c.776-.407 1.937-.902 3.326-.665 1.346.23 2.108 1.32 2.647 2.063.612.844 1.122 1.551 1.957 1.99a1.001 1.001 0 0 1-.93 1.77c-1.318-.69-2.082-1.809-2.645-2.584-.636-.876-.95-1.197-1.365-1.268-.728-.124-1.4.119-2.06.465a1 1 0 0 1-.93-1.771"/></svg>