<svg xmlns="http://www.w3.org/2000/svg" fill="none" viewBox="0 0 24 24"><path fill="#090404" d="M3.551 4a4 4 0 0 1 3.655 2.375l.617 1.388.47-.47 1-1a2.414 2.414 0 0 1 3.948.808 2.41 2.41 0 0 1 2.5 1.5 2.41 2.41 0 0 1 2.232 1.011l.807-.805c.95-.95 2.491-.95 3.441 0 .93.93.957 2.438.034 3.393-1.228 1.272-3.406 3.497-5.078 5.035a94 94 0 0 1-2.82 2.468c-2.48 2.1-6.156 1.748-8.263-.683L3.87 16.452a6 6 0 0 1-1.458-3.614l-.41-7.785A1 1 0 0 1 3 4zm.858 8.733a4 4 0 0 0 .971 2.41l2.225 2.566c1.412 1.629 3.841 1.838 5.462.467a92 92 0 0 0 2.757-2.411c1.623-1.494 3.765-3.681 4.993-4.953a.42.42 0 0 0-.01-.591.434.434 0 0 0-.613 0l-3.987 3.986a2.414 2.414 0 0 1-4.088-1.326 2.4 2.4 0 0 1-1.86-1.483 2.41 2.41 0 0 1-2.25-1.037 1 1 0 0 1-1.423-.455L5.378 7.187a2 2 0 0 0-1.32-1.12zm11.884-2.026a.415.415 0 0 0-.586 0l-1.5 1.5a.415.415 0 0 0 .586.586l1.5-1.5a.415.415 0 0 0 0-.586m-2.5-1.5a.415.415 0 0 0-.586 0l-1 1-.052.066a.414.414 0 0 0 .638.52l1-1a.415.415 0 0 0 0-.586m-2.5-1.5a.414.414 0 0 0-.52-.053l-.066.053-1 1a.414.414 0 0 0 .586.586l1-1a.415.415 0 0 0 0-.586"/></svg>