<svg xmlns="http://www.w3.org/2000/svg" fill="none" viewBox="0 0 24 24"><path fill="#090404" d="M9 8.5a.5.5 0 0 0-1 0v3a.5.5 0 0 0 1 0zM4.405 5a.404.404 0 0 0-.403.432l.613 8.91A5 5 0 0 0 9.602 19h1.899a6 6 0 0 0 4.8-2.4l3.342-4.456a2 2 0 0 0-2.133.052l-.857.57A2.5 2.5 0 0 1 14.501 14c-.564 0-1.082-.19-1.5-.504a2.486 2.486 0 0 1-3 0A2.5 2.5 0 0 1 8.5 14a2.5 2.5 0 0 1-2.469-2.12l-.015.003L4.801 5.33A.404.404 0 0 0 4.404 5m6.607 6.6a.5.5 0 0 0 .99-.1V9a.5.5 0 0 0-1 0v2.5zm3 0a.5.5 0 0 0 .99-.1v-2a.5.5 0 0 0-1 0v2zM17 10.202a4 4 0 0 1 4.446.831l.26.261a1 1 0 0 1 .094 1.307l-3.9 5.2a8 8 0 0 1-6.4 3.2H9.602a7 7 0 0 1-6.983-6.52l-.613-8.912a2.404 2.404 0 0 1 4.761-.603l.28 1.504a2.486 2.486 0 0 1 3.277.325 2.49 2.49 0 0 1 3 .5A2.5 2.5 0 0 1 17.001 9.5z"/></svg>