<svg xmlns="http://www.w3.org/2000/svg" fill="none" viewBox="0 0 24 24"><path fill="#090404" d="M19 7a2 2 0 1 0-4 0 2 2 0 0 0 4 0m2 0a4 4 0 1 1-8 0 4 4 0 0 1 8 0"/><path fill="#090404" d="M6 10V8H4a1 1 0 0 1 0-2h2V4a1 1 0 0 1 2 0v2h2a1 1 0 1 1 0 2H8v2a1 1 0 1 1-2 0"/><path fill="#090404" d="M18.414 14.17a1.001 1.001 0 0 1 1.415 1.415l-1.415 1.414 1.415 1.414a1 1 0 0 1-1.415 1.415l-1.415-1.415-1.413 1.415a1 1 0 0 1-1.415-1.415l1.415-1.414-1.415-1.414a1 1 0 1 1 1.415-1.414L17 15.585z"/><path fill="#090404" d="M5 15v4h4v-4zm6 4a2 2 0 0 1-2 2H5a2 2 0 0 1-2-2v-4a2 2 0 0 1 2-2h4a2 2 0 0 1 2 2z"/></svg>