<svg xmlns="http://www.w3.org/2000/svg" fill="none" viewBox="0 0 24 24"><path fill="#090404" d="m14.832 15.752-.993 1.736-5.67-3.24.992-1.736z"/><path fill="#090404" d="M8 12a2 2 0 1 0-3.999.001A2 2 0 0 0 8 12m2 0a4 4 0 1 1-8 .001A4 4 0 0 1 10 12"/><path fill="#090404" d="M19 6a2 2 0 1 0-4 0 2 2 0 0 0 4 0m2 0a4 4 0 1 1-8 0 4 4 0 0 1 8 0"/><path fill="#090404" d="M19 18a2 2 0 1 0-4 0 2 2 0 0 0 4 0m2 0a4 4 0 1 1-8 0 4 4 0 0 1 8 0"/><path fill="#090404" d="m14.832 8.248-5.671 3.24-.993-1.736 5.671-3.24z"/></svg>