<svg xmlns="http://www.w3.org/2000/svg" fill="none" viewBox="0 0 24 24"><path fill="#090404" d="M12 4.057 5 6.464v5.448c0 2.165.851 3.687 2.188 4.952 1.275 1.208 2.965 2.155 4.812 3.154 1.847-1 3.537-1.946 4.813-3.154C18.149 15.6 19 14.078 19 11.912V6.464zm9 7.855c0 2.807-1.149 4.83-2.812 6.405-1.616 1.53-3.746 2.66-5.713 3.72a1 1 0 0 1-.95 0c-1.967-1.06-4.097-2.19-5.712-3.72C4.149 16.742 3 14.72 3 11.912V6.464a2 2 0 0 1 1.35-1.892l7-2.406c.421-.145.88-.145 1.3 0l7 2.406A2 2 0 0 1 21 6.464z"/><path fill="#090404" d="M13.793 9.043a1 1 0 1 1 1.414 1.414l-3.5 3.5a1 1 0 0 1-1.414 0l-1.5-1.5a1 1 0 1 1 1.414-1.414l.793.793z"/></svg>