<svg xmlns="http://www.w3.org/2000/svg" fill="none" viewBox="0 0 24 24"><path fill="#090404" d="M18 16.5a1.5 1.5 0 1 0-3 0 1.5 1.5 0 0 0 3 0m2 0a3.5 3.5 0 1 1-7 0 3.5 3.5 0 0 1 7 0"/><path fill="#090404" d="M9 16.5a1.5 1.5 0 1 0-3 0 1.5 1.5 0 0 0 3 0m2 0a3.5 3.5 0 1 1-7 0 3.5 3.5 0 0 1 7 0"/><path fill="#090404" d="M14 15a1 1 0 1 1 0 2h-4a1 1 0 1 1 0-2z"/><path fill="#090404" d="M20 15v-4.697L18.465 8H15a1 1 0 1 1 0-2h3.465a2 2 0 0 1 1.664.89l1.535 2.303a2 2 0 0 1 .336 1.11V15a2 2 0 0 1-2 2h-.714a1 1 0 1 1 0-2z"/><path fill="#090404" d="M14 14.5V6H4v9h.818a1 1 0 0 1 0 2H4a2 2 0 0 1-2-2V6a2 2 0 0 1 2-2h10a2 2 0 0 1 2 2v8.5a1 1 0 1 1-2 0"/></svg>