<svg xmlns="http://www.w3.org/2000/svg" fill="none" viewBox="0 0 24 24"><path fill="#090404" d="M7 8v3.219l4.515-1.128c.318-.08.652-.08.97 0L17 11.219V8zm-1.879 5.75c.274 1.594.74 2.881 1.734 4.368l.211-.046c.286-.063.582-.063.868 0l4.066.904 4.066-.904c.286-.063.582-.063.868 0l.21.046c.994-1.487 1.46-2.774 1.734-4.368L12 12.031zM11 6h2V4h-2zm8 5.719.383.096c.969.242 1.652 1.187 1.475 2.229-.278 1.648-.75 3.047-1.64 4.535l1.999.444a1 1 0 0 1-.434 1.954l-4.283-.953-4.066.904a2 2 0 0 1-.868 0L7.5 20.024l-4.283.953a1 1 0 0 1-.434-1.954l1.998-.444c-.89-1.488-1.36-2.887-1.64-4.535-.176-1.042.507-1.987 1.476-2.23L5 11.72V8a2 2 0 0 1 2-2h2V3a1 1 0 0 1 1-1h4a1 1 0 0 1 1 1v3h2a2 2 0 0 1 2 2z"/></svg>