<svg xmlns="http://www.w3.org/2000/svg" fill="none" viewBox="0 0 24 24"><path fill="#090404" d="M20.001 17.418c0-.508-.154-.794-.294-.942a.7.7 0 0 0-.512-.226 1.2 1.2 0 0 0-.73.245l-.023.02.011-.012-.069.062a1 1 0 0 1-1.268 0l-.065-.058.008.008-.024-.02a1.214 1.214 0 0 0-.73-.245.7.7 0 0 0-.512.226c-.14.148-.294.434-.294.942 0 .569.435 1.214 1.16 1.813.337.278.683.502.954.653l.137.071q.063-.031.137-.071c.271-.151.618-.375.954-.653.726-.6 1.16-1.244 1.16-1.813M14.001 6a2 2 0 0 0-4 0v1h4zm8 11.418c0 1.508-1.055 2.668-1.887 3.355a8.5 8.5 0 0 1-1.255.859c-.182.1-.352.185-.498.247-.071.03-.149.061-.225.086-.043.014-.2.065-.386.065-.185 0-.342-.051-.386-.065a3 3 0 0 1-.225-.086 6 6 0 0 1-.497-.247 8.5 8.5 0 0 1-1.256-.859c-.832-.687-1.887-1.847-1.887-3.355 0-.937.297-1.736.835-2.31a2.7 2.7 0 0 1 1.97-.858c.601 0 1.092.166 1.446.344a3.2 3.2 0 0 1 1.445-.344c.72 0 1.438.29 1.971.858.538.574.835 1.373.835 2.31M16.001 7h.64a2 2 0 0 1 1.977 1.696l.409 2.652a1 1 0 0 1-1.977.304L16.642 9H7.358L5.665 20H11.5a1 1 0 0 1 0 2H5.665a2 2 0 0 1-1.976-2.304l1.692-11A2 2 0 0 1 7.358 7H8V6a4 4 0 0 1 8 0z"/></svg>