<svg xmlns="http://www.w3.org/2000/svg" fill="none" viewBox="0 0 24 24"><path fill="#090404" d="M17.116 13.001a4.99 4.99 0 0 1 3.42 1.464 4.99 4.99 0 0 1 1.462 3.651 4.99 4.99 0 0 1-1.463 3.42 4.99 4.99 0 0 1-3.419 1.463 5 5 0 0 1-3.652-1.464 4.99 4.99 0 0 1-1.463-3.419 4.99 4.99 0 0 1 1.463-3.651A5 5 0 0 1 17.116 13M14 6a2 2 0 0 0-4 0v1h4zm.292 10.707a3.002 3.002 0 0 0 2.778 4.292c.42-.01.835-.11 1.221-.294zm2.778-1.706a3 3 0 0 0-1.364.292l3.998 3.997a2.99 2.99 0 0 0-.583-3.411A2.99 2.99 0 0 0 17.07 15M16 7h.642a2 2 0 0 1 1.976 1.696l.178 1.152a1 1 0 0 1-1.976.304L16.642 9H7.358L5.665 20H9a1 1 0 0 1 0 2H5.665a2 2 0 0 1-1.976-2.304l1.692-11A2 2 0 0 1 7.358 7H8V6a4 4 0 0 1 8 0z"/></svg>