<svg xmlns="http://www.w3.org/2000/svg" fill="none" viewBox="0 0 24 24"><path fill="#090404" d="M20.002 17.418c0-.508-.155-.794-.294-.942a.7.7 0 0 0-.513-.226 1.2 1.2 0 0 0-.753.265l.011-.012-.07.062a1 1 0 0 1-1.334-.061l.002.003.006.005.002.003-.024-.02a1.212 1.212 0 0 0-.73-.245.7.7 0 0 0-.512.226c-.14.148-.294.434-.294.942 0 .569.435 1.214 1.161 1.813.336.278.682.502.953.653l.137.071q.063-.031.137-.071c.271-.151.618-.375.954-.653.726-.6 1.16-1.244 1.161-1.813M18.061 3a2 2 0 0 1 1.996 1.875l.392 6.28a1 1 0 0 1-1.996.124L18.061 5H5.94l-.875 14H11a1 1 0 1 1 0 2H5.065a2 2 0 0 1-1.997-2.125l.875-14A2 2 0 0 1 5.94 3zm.394 13.501.001-.001h.001v-.001zM8 8a1 1 0 0 1 2 0 2 2 0 1 0 4 0 1 1 0 0 1 2 0 4 4 0 0 1-8 0m14.002 9.418c0 1.508-1.056 2.668-1.888 3.355a8.5 8.5 0 0 1-1.256.859c-.181.1-.351.185-.497.247q-.108.047-.224.086c-.043.014-.201.065-.387.065s-.343-.051-.386-.065a3 3 0 0 1-.225-.086 6 6 0 0 1-.496-.247 8.5 8.5 0 0 1-1.256-.859c-.832-.687-1.888-1.847-1.888-3.355 0-.936.297-1.736.835-2.31a2.7 2.7 0 0 1 1.972-.858c.6 0 1.09.166 1.444.344a3.2 3.2 0 0 1 1.445-.344c.72 0 1.439.29 1.972.858.538.574.835 1.374.835 2.31"/></svg>