<svg xmlns="http://www.w3.org/2000/svg" fill="none" viewBox="0 0 24 24"><path fill="#090404" d="M5.73 9.882a1.984 1.984 0 0 1 2.533-.019l.152.137L14 15.586a1.983 1.983 0 0 1-.026 2.838c-1.6 1.526-3.132 2.701-4.879 3.272-1.783.583-3.67.5-5.912-.248a1 1 0 0 1-.631-.632c-.748-2.241-.832-4.128-.249-5.912.572-1.746 1.747-3.278 3.273-4.879zm1.279 1.54c-1.46 1.532-2.376 2.796-2.804 4.104-.382 1.17-.402 2.47.095 4.175 1.705.497 3.006.477 4.174.095 1.309-.428 2.571-1.346 4.104-2.805z"/><path fill="#090404" d="M14.793 7.793a1 1 0 1 1 1.414 1.414l-7 7a1 1 0 1 1-1.414-1.414z"/><path fill="#090404" d="M16.086 2.5a2 2 0 0 1 2.828 0L21.5 5.086a2 2 0 0 1 0 2.828l-1.293 1.293a3.828 3.828 0 0 1-5.414-5.414zm.121 2.707a1.829 1.829 0 0 0 2.586 2.586L20.086 6.5 17.5 3.914z"/></svg>