<svg xmlns="http://www.w3.org/2000/svg" fill="none" viewBox="0 0 24 24"><path fill="#090404" d="M21 12a1 1 0 1 1 0 2H3a1 1 0 1 1 0-2z"/><path fill="#090404" d="M18 9V4H6v5a1 1 0 0 1-2 0V4a2 2 0 0 1 2-2h12a2 2 0 0 1 2 2v5a1 1 0 1 1-2 0"/><path fill="#090404" d="M5 19v-2a1 1 0 1 1 2 0v2a1 1 0 1 1-2 0"/><path fill="#090404" d="M9 21v-4a1 1 0 1 1 2 0v4a1 1 0 1 1-2 0"/><path fill="#090404" d="M13 19v-2a1 1 0 1 1 2 0v2a1 1 0 1 1-2 0"/><path fill="#090404" d="M17 21v-4a1 1 0 1 1 2 0v4a1 1 0 1 1-2 0"/></svg>