<svg xmlns="http://www.w3.org/2000/svg" fill="none" viewBox="0 0 24 24"><path fill="#090404" d="M19 6a1 1 0 1 1 0 2h-2.586L6 18.414A2 2 0 0 1 4.586 19H3a1 1 0 1 1 0-2h1.586L15 6.586A2 2 0 0 1 16.414 6z"/><path fill="#090404" d="M4.586 5A2 2 0 0 1 6 5.586l2.707 2.707a1 1 0 1 1-1.414 1.414L4.586 7H3a1 1 0 0 1 0-2z"/><path fill="#090404" d="M13.293 14.293a1 1 0 0 1 1.414 0L16.414 16H19a1 1 0 1 1 0 2h-2.586A2 2 0 0 1 15 17.414l-1.707-1.707a1 1 0 0 1 0-1.414"/><path fill="#090404" d="M17.293 3.293a1 1 0 0 1 1.414 0l3 3a1 1 0 0 1 0 1.414l-3 3a1 1 0 1 1-1.414-1.414L19.586 7l-2.293-2.293a1 1 0 0 1 0-1.414"/><path fill="#090404" d="M17.293 13.293a1 1 0 0 1 1.414 0l3 3a1 1 0 0 1 0 1.414l-3 3a1 1 0 1 1-1.414-1.414L19.586 17l-2.293-2.293a1 1 0 0 1 0-1.414"/></svg>