<svg xmlns="http://www.w3.org/2000/svg" fill="none" viewBox="0 0 24 24"><path fill="#090404" d="M7 9.25a.5.5 0 1 1 0-1 .5.5 0 0 1 0 1"/><path fill="#090404" d="M7 12.5a.5.5 0 1 1 0-1 .5.5 0 0 1 0 1"/><path fill="#090404" d="M7 15.75a.5.5 0 1 1 0-1 .5.5 0 0 1 0 1"/><path fill="#090404" d="M4 6v12h16V6zm18 12a2 2 0 0 1-2 2H4a2 2 0 0 1-2-2V6a2 2 0 0 1 2-2h16a2 2 0 0 1 2 2z"/><path fill="#090404" d="M10 4h2v16h-2z"/><path fill="#090404" d="M7.5 15.25a.5.5 0 1 0-.6.49l.1.01a.5.5 0 0 0 .5-.5m0-3.25a.5.5 0 1 0-1 0 .5.5 0 0 0 1 0m0-3.25a.5.5 0 1 0-1 0 .5.5 0 0 0 1 0m.75 6.5a1.25 1.25 0 1 1-2.5 0 1.25 1.25 0 0 1 2.5 0m0-3.25a1.25 1.25 0 0 1-2.493.128L5.75 12l.007-.128A1.25 1.25 0 0 1 8.25 12m0-3.25a1.25 1.25 0 0 1-2.493.128L5.75 8.75l.007-.128a1.25 1.25 0 0 1 2.493.128"/></svg>