<svg xmlns="http://www.w3.org/2000/svg" fill="none" viewBox="0 0 24 24"><path fill="#090404" d="M12.5 9.5a.5.5 0 1 0-1 0 .5.5 0 0 0 1 0m2 0a2.5 2.5 0 1 1-5 0 2.5 2.5 0 0 1 5 0"/><path fill="#090404" d="M6.986 5.362a1 1 0 0 1 1.541 1.276 4.5 4.5 0 0 0 0 5.725 1 1 0 1 1-1.54 1.275 6.5 6.5 0 0 1 0-8.276m8.62-.133a1 1 0 0 1 1.408.133 6.5 6.5 0 0 1 0 8.276 1 1 0 0 1-1.541-1.275 4.5 4.5 0 0 0 0-5.725 1 1 0 0 1 .132-1.409"/><path fill="#090404" d="M4.335 2.323a1 1 0 0 1 1.46 1.368 8.5 8.5 0 0 0 .006 11.624 1 1 0 0 1-1.458 1.37C.555 12.651.553 6.358 4.335 2.322m13.908-.052a1 1 0 0 1 1.414.044c3.79 4.036 3.79 10.334 0 14.37a1 1 0 0 1-1.458-1.37 8.5 8.5 0 0 0 0-11.63 1 1 0 0 1 .044-1.414"/><path fill="#090404" d="M12.25 9a1 1 0 0 1 .946.678l3.75 11a1 1 0 0 1-1.892.644L12 12.364l-3.054 8.958a1 1 0 0 1-1.892-.644l3.75-11 .062-.146A1 1 0 0 1 11.75 9z"/><path fill="#090404" d="M14.5 17a1 1 0 1 1 0 2h-5a1 1 0 1 1 0-2z"/></svg>