<svg xmlns="http://www.w3.org/2000/svg" fill="none" viewBox="0 0 24 24"><path fill="#090404" d="M10.233 3.024c.771.095 1.462.45 2.037.912 1.133.911 1.976 2.366 2.301 3.782.2.872.332 1.98.37 3.165.06 1.918-.12 4.149-.723 6.012-.587 1.813-1.69 3.604-3.693 4.007-1.125.227-2.153.075-2.856-.655-.656-.681-.789-1.63-.752-2.425.038-.825.266-1.7.566-2.471.3-.77.7-1.509 1.131-2.046q.095-.116.19-.23C7.799 11.968 6.823 10.53 6.33 9.046c-.303-.914-.443-1.91-.225-2.879.223-.996.807-1.877 1.792-2.547.742-.505 1.545-.692 2.335-.596M9.991 5.01c-.29-.036-.61.021-.968.264-.586.399-.86.855-.966 1.332-.114.504-.058 1.116.173 1.811.465 1.406 1.56 2.886 2.622 3.896l.714.68-.67.724q-.35.378-.722.84c-.271.338-.58.883-.827 1.52-.247.634-.408 1.29-.433 1.838-.027.579.102.848.195.944.047.048.257.236 1.022.082.9-.18 1.66-1.043 2.185-2.663.507-1.57.682-3.55.625-5.332-.034-1.09-.154-2.065-.319-2.78-.237-1.032-.862-2.074-1.605-2.672-.364-.293-.715-.446-1.026-.484"/><path fill="#090404" d="M22 16a1 1 0 1 1 0 2H2a1 1 0 1 1 0-2z"/><path fill="#090404" d="M1.293 10.293a1 1 0 0 1 1.414 0l3 3a1 1 0 1 1-1.414 1.414l-3-3a1 1 0 0 1 0-1.414"/><path fill="#090404" d="M4.293 10.293a1 1 0 1 1 1.414 1.414l-3 3a1 1 0 1 1-1.414-1.414z"/><path fill="#090404" d="M14.033 9.919c1.495.137 2.576 1.239 3.355 2.757.207-.407.47-.942.728-1.332.139-.21.343-.483.618-.678.296-.21.782-.387 1.3-.162l.104.05.111.065c.532.34.706.884.766 1.255.062.378.041.801.035 1.044V13H22a1 1 0 0 1 0 2h-1.4c-.3 0-.627-.074-.915-.287a1.5 1.5 0 0 1-.516-.72 2 2 0 0 1-.07-.27c-.121.233-.253.48-.393.7-.131.208-.321.479-.574.677-.275.217-.814.474-1.41.167-.447-.23-.667-.67-.784-.96-.732-1.803-1.502-2.343-2.089-2.397-.489-.045-1.22.195-2.205 1.07q.087.063.168.117a1 1 0 1 1-1.102 1.668 9 9 0 0 1-1.237-1.003l-.715-.68.671-.724c1.466-1.583 3.02-2.585 4.604-2.44"/></svg>