<svg xmlns="http://www.w3.org/2000/svg" fill="none" viewBox="0 0 24 24"><path fill="#090404" d="M10.128 13.5a.913.913 0 0 1-.602-1.6L12 9.733q.314-.284.533-.519.22-.238.336-.477.116-.243.116-.526 0-.316-.138-.54a.93.93 0 0 0-.38-.35 1.2 1.2 0 0 0-.556-.124 1.14 1.14 0 0 0-.556.13.9.9 0 0 0-.373.37c-.16.296-.403.589-.74.589h-.265c-.483 0-.896-.402-.747-.862q.084-.258.223-.484.35-.567.985-.873.637-.31 1.48-.31.87 0 1.51.292.642.29.992.812.354.518.354 1.205 0 .435-.175.865-.175.429-.63.947-.45.519-1.283 1.242l-.913.842v.049h2.35a.744.744 0 1 1 0 1.488z"/><path fill="#090404" d="M18.5 10a6.5 6.5 0 1 0-13 0 6.5 6.5 0 0 0 13 0m2 0a8.5 8.5 0 1 1-17 0 8.5 8.5 0 0 1 17 0"/><path fill="#090404" d="M7 16.5a1 1 0 1 1 2 0v4.22l2.758-.69.12-.022a1 1 0 0 1 .364.022l2.758.69V16.5a1 1 0 1 1 2 0V22a1 1 0 0 1-1.242.97L12 22.03l-3.758.94A1 1 0 0 1 7 22z"/></svg>