<svg xmlns="http://www.w3.org/2000/svg" fill="none" viewBox="0 0 24 24"><path fill="#090404" d="M6 18v2h12v-2zm14 2a2 2 0 0 1-2 2H6a2 2 0 0 1-2-2v-2a2 2 0 0 1 2-2h12a2 2 0 0 1 2 2z"/><path fill="#090404" d="M16 17v-5a4 4 0 0 0-8 0v5a1 1 0 1 1-2 0v-5a6 6 0 1 1 12 0v5a1 1 0 1 1-2 0"/><path fill="#090404" d="M3 11a1 1 0 1 1 0 2H2a1 1 0 1 1 0-2zm19 0a1 1 0 1 1 0 2h-1a1 1 0 1 1 0-2zM4.222 4.222a1 1 0 0 1 1.414 0l.707.707a1 1 0 1 1-1.414 1.414l-.707-.707a1 1 0 0 1 0-1.414m14.142 0a1 1 0 0 1 1.414 1.414l-.707.707a1 1 0 1 1-1.414-1.414zM11 3V2a1 1 0 1 1 2 0v1a1 1 0 1 1-2 0"/><path fill="#090404" d="M11 17v-3a1 1 0 1 1 2 0v3a1 1 0 1 1-2 0"/></svg>