<svg xmlns="http://www.w3.org/2000/svg" fill="none" viewBox="0 0 24 24"><path fill="#090404" d="M6.361 14.577a2.047 2.047 0 1 1-4.095 0c0-1.133.915-2.05 2.048-2.05H6.36zm1.024 0a2.047 2.047 0 1 1 4.096 0v5.124a2.047 2.047 0 1 1-4.096 0z"/><path fill="#090404" d="M9.433 6.349a2.047 2.047 0 0 1-2.048-2.05 2.047 2.047 0 1 1 4.095 0v2.05zm0 1.04c1.132 0 2.047.916 2.047 2.05s-.915 2.049-2.047 2.049H4.298a2.047 2.047 0 0 1-2.048-2.05c0-1.133.915-2.05 2.048-2.05z"/><path fill="#090404" d="M17.639 9.438a2.047 2.047 0 1 1 4.096 0c0 1.134-.916 2.05-2.048 2.05h-2.048zm-1.024 0a2.047 2.047 0 1 1-4.095 0V4.3a2.047 2.047 0 1 1 4.095 0z"/><path fill="#090404" d="M14.567 17.651c1.133 0 2.048.916 2.048 2.05a2.047 2.047 0 1 1-4.095 0v-2.05zm0-1.024a2.047 2.047 0 0 1-2.047-2.05c0-1.133.915-2.05 2.047-2.05h5.135c1.133 0 2.048.917 2.048 2.05 0 1.134-.915 2.05-2.048 2.05z"/></svg>