<svg xmlns="http://www.w3.org/2000/svg" fill="none" viewBox="0 0 24 24"><path fill="#090404" d="M3.75 11.75a.75.75 0 0 1 1.5 0v.5a.75.75 0 0 1-1.5 0z"/><path fill="#090404" d="M8.75 11.75a.75.75 0 0 1 1.5 0v.5a.75.75 0 0 1-1.5 0z"/><path fill="#090404" d="M13.75 11.75a.75.75 0 0 1 1.5 0v.5a.75.75 0 0 1-1.5 0z"/><path fill="#090404" d="M16 17H3v2h13zm-3-2h3V9h-3zm-5 0h3V9H8zm-5 0h3V9H3zM7.991 4.13l.001-.002v-.004zm3.017-.002v.003-.007zM22 8.5a.5.5 0 1 0-1 0 .5.5 0 0 0 1 0M12 5a1 1 0 0 1-.99-.862l-.005-.023a1.588 1.588 0 0 0-.235-.549C10.595 3.313 10.266 3 9.5 3s-1.095.313-1.27.566a1.6 1.6 0 0 0-.235.55l-.005.022A1 1 0 0 1 7 5H3v2h13V5zm6 9h2.5v-3.21a2.499 2.499 0 0 1 1-4.79 2.5 2.5 0 0 1 1 4.79V14a2 2 0 0 1-2 2H18v3a2 2 0 0 1-2 2H3a2 2 0 0 1-2-2V5a2 2 0 0 1 2-2h3.268c.078-.177.18-.371.314-.566C7.095 1.687 8.016 1 9.5 1s2.405.687 2.918 1.434c.134.195.236.389.314.566H16a2 2 0 0 1 2 2z"/></svg>