<svg xmlns="http://www.w3.org/2000/svg" fill="none" viewBox="0 0 24 24"><path fill="#090404" d="M18 12a6 6 0 0 0-8.906-5.251A6 6 0 1 0 18 12m-2.706 7.29A8 8 0 0 1 12 20a8 8 0 0 1-3.295-.71l.19 1.71h6.21zM11 9a1 1 0 1 1 2 0v2.586l1.207 1.207a1 1 0 1 1-1.414 1.414l-1.5-1.5A1 1 0 0 1 11 12zM8.705 4.709A8 8 0 0 1 12 4c1.173 0 2.288.254 3.294.709L15.104 3H8.897zM20 12a7.98 7.98 0 0 1-2.531 5.836l-.376 3.385A2 2 0 0 1 15.104 23H8.897a2 2 0 0 1-1.989-1.78l-.377-3.384A7.98 7.98 0 0 1 4 12c0-2.303.974-4.378 2.53-5.837l.377-3.384A2 2 0 0 1 8.896 1h6.208a2 2 0 0 1 1.989 1.78l.376 3.383A7.98 7.98 0 0 1 20 12"/></svg>