<svg xmlns="http://www.w3.org/2000/svg" fill="none" viewBox="0 0 24 24"><path fill="#090404" d="M10.996 18.5V5.914L8.789 3.707a1 1 0 1 1 1.414-1.414L12.41 4.5a2 2 0 0 1 .586 1.414V18.5a1 1 0 1 1-2 0"/><path fill="#090404" d="M13.789 2.293a1 1 0 1 1 1.414 1.414l-2.5 2.5a1 1 0 1 1-1.414-1.414z"/><path fill="#090404" d="M10.582 18.5a2 2 0 0 1 2.828 0l1.793 1.793a1 1 0 1 1-1.414 1.414l-1.793-1.793-1.793 1.793a1 1 0 1 1-1.414-1.414z"/><path fill="#090404" d="M5.71 7.892a2 2 0 0 1 1.517.199l10.9 6.293a1 1 0 0 1-1 1.732l-10.9-6.293-3.015.808a1 1 0 1 1-.518-1.932z"/><path fill="#090404" d="M5.194 4.369a1 1 0 0 1 1.225.707l.915 3.415a1 1 0 1 1-1.932.518l-.915-3.415a1 1 0 0 1 .707-1.225"/><path fill="#090404" d="M20.784 13.369a1 1 0 1 1 .517 1.932l-2.45.656.657 2.45a1 1 0 1 1-1.932.517l-.656-2.45a2 2 0 0 1 1.414-2.449z"/><path fill="#090404" d="M17.127 7.884a1 1 0 0 1 1 1.732l-10.9 6.293-.808 3.015a1 1 0 1 1-1.932-.518l.808-3.014c.137-.513.472-.95.932-1.215z"/><path fill="#090404" d="M1.987 14.076a1 1 0 0 1 1.225-.707l3.415.915a1 1 0 1 1-.517 1.932L2.694 15.3a1 1 0 0 1-.707-1.225"/><path fill="#090404" d="M17.576 5.076a1 1 0 1 1 1.932.518l-.656 2.449 2.449.656a1 1 0 1 1-.517 1.932l-2.45-.656a2 2 0 0 1-1.414-2.45z"/></svg>