<svg xmlns="http://www.w3.org/2000/svg" fill="none" viewBox="0 0 24 24"><path fill="#090404" d="M10.827 8.618a2 2 0 0 1 2.35 0l1.678 1.219a2 2 0 0 1 .726 2.236l-.64 1.972a2 2 0 0 1-1.903 1.382h-2.073a2 2 0 0 1-1.902-1.382l-.64-1.972a2 2 0 0 1 .726-2.236zm-.502 2.837.64 1.972h2.073l.642-1.972-1.678-1.219z"/><path fill="#090404" d="M20 12c0-1.893-.656-3.63-1.754-4.999A7.981 7.981 0 0 0 12 4a7.98 7.98 0 0 0-6.246 3.001 7.96 7.96 0 0 0-1.745 5.373 7.95 7.95 0 0 0 1.304 4.02 8.02 8.02 0 0 0 4.573 3.324A8 8 0 0 0 12 20c.733 0 1.442-.099 2.114-.282a8.02 8.02 0 0 0 4.572-3.323A7.95 7.95 0 0 0 20 12m1.99.467a9.95 9.95 0 0 1-1.634 5.027 10.02 10.02 0 0 1-5.715 4.154c-.843.23-1.728.352-2.641.352s-1.798-.122-2.64-.352a10.02 10.02 0 0 1-5.716-4.154A9.95 9.95 0 0 1 2 12c0-2.364.821-4.538 2.193-6.25A9.98 9.98 0 0 1 12 2a9.98 9.98 0 0 1 7.807 3.75 9.96 9.96 0 0 1 2.182 6.717"/><path fill="#090404" d="M15.769 4.387 13.176 6.27a2 2 0 0 1-2.35 0L8.231 4.387l1.176-1.618 2.593 1.883 2.592-1.883z"/><path fill="#090404" d="m19.978 6.684-.99 3.046 2.59 1.882-1.175 1.618-2.59-1.882a2 2 0 0 1-.727-2.236l.99-3.045z"/><path fill="#090404" d="M19.52 15.944v2h-3.202l-.99 3.048-1.902-.618.99-3.048a2 2 0 0 1 1.902-1.382z"/><path fill="#090404" d="M7.682 15.944a2 2 0 0 1 1.901 1.382l.99 3.048-1.902.618-.99-3.048H4.48v-2z"/><path fill="#090404" d="M6.914 9.112a2 2 0 0 1-.726 2.236l-2.59 1.882-1.176-1.618 2.59-1.882-.99-3.046 1.903-.617z"/></svg>