<svg xmlns="http://www.w3.org/2000/svg" fill="none" viewBox="0 0 24 24"><path fill="#090404" d="M7 6a1 1 0 1 0-2 0 1 1 0 0 0 2 0m2 0a3 3 0 1 1-6 0 3 3 0 0 1 6 0"/><path fill="#090404" d="M19 6a1 1 0 1 0-2 0 1 1 0 0 0 2 0m2 0a3 3 0 1 1-6 0 3 3 0 0 1 6 0"/><path fill="#090404" d="M19 17a1 1 0 1 0-2 0 1 1 0 0 0 2 0m2 0a3 3 0 1 1-6 0 3 3 0 0 1 6 0"/><path fill="#090404" d="M10 16a3 3 0 1 0-6 0 3 3 0 0 0 6 0m2 0a5 5 0 1 1-10 0 5 5 0 0 1 10 0"/><path fill="#090404" d="m7.596 11.9-1.99.2-.4-4 1.99-.2z"/><path fill="#090404" d="m17.42 7.877-6.748 6.136-1.346-1.48 6.75-6.137z"/><path fill="#090404" d="m16.09 15.822-.182 1.992-5-.455.182-1.992z"/></svg>