<svg xmlns="http://www.w3.org/2000/svg" fill="none" viewBox="0 0 24 24"><path fill="#090404" d="M18.383 15a2 2 0 0 1 1.788 1.105l1 2A2 2 0 0 1 19.383 21H4.618c-1.487 0-2.453-1.565-1.788-2.895l1-2A2 2 0 0 1 5.618 15zM4.618 19H11v-2H5.618zM13 19h6.383l-1-2H13z"/><path fill="#090404" d="M13.888 3.667a1 1 0 0 1 1.885.666 4.002 4.002 0 0 1-7.544 0 1 1 0 1 1 1.885-.666 2.002 2.002 0 0 0 3.773 0"/><path fill="#090404" d="M11 11v-1a1 1 0 1 1 2 0v1a1 1 0 1 1-2 0"/><path fill="#090404" d="M20 3a1 1 0 1 1 0 2h-1a1 1 0 1 1 0-2z"/><path fill="#090404" d="M5 3a1 1 0 0 1 0 2H4a1 1 0 0 1 0-2z"/><path fill="#090404" d="M6.293 7.543a1 1 0 1 1 1.414 1.414l-.75.75a1 1 0 1 1-1.414-1.414z"/><path fill="#090404" d="M16.293 7.543a1 1 0 0 1 1.414 0l.75.75a1 1 0 1 1-1.414 1.414l-.75-.75a1 1 0 0 1 0-1.414"/></svg>