<svg xmlns="http://www.w3.org/2000/svg" fill="none" viewBox="0 0 24 24"><path fill="#090404" d="M10.098 2.19c5.499-1.25 12.58 4.082 12.621 4.113l-2.418 4.03-.014-.003c-.216-.162-7.174-5.329-12.61-4.095l-.487.137c-.72.232-1.287.605-1.685 1.065H5.5l2.036-3.461q.091-.175.203-.336a3.52 3.52 0 0 1 1.874-1.316z" opacity=".55"/><path fill="#090404" d="M16.113 17.01a6.02 6.02 0 0 0-6.417-2.036L1.28 17.697s7.121 5.367 12.622 4.113l.484-.134c2.253-.714 3.022-2.82 1.726-4.665"/><path fill="#090404" d="M12.325 10.268a6.01 6.01 0 0 1 6.432 2.036c.755 1.077.808 2.237.27 3.157l-2.519 4.481c.4-.883.299-1.944-.395-2.93a6.02 6.02 0 0 0-6.417-2.038l-8.413 2.723h-.002l2.644-4.706z" opacity=".85"/><path fill="#090404" d="M7.676 6.235c5.505-1.249 12.568 4.063 12.616 4.099l-2.673.87a6.02 6.02 0 0 0-5.297-.936l-5.744 1.861a6 6 0 0 1-1.115-1.08C4.17 9.203 4.94 7.098 7.19 6.37z" opacity=".7"/></svg>