<svg xmlns="http://www.w3.org/2000/svg" fill="none" viewBox="0 0 24 24"><path fill="#090404" d="M5 5v4h4V5zm6 4a2 2 0 0 1-2 2H5a2 2 0 0 1-2-2V5a2 2 0 0 1 2-2h4a2 2 0 0 1 2 2z"/><path fill="#090404" d="M5 15v4h4v-4zm6 4a2 2 0 0 1-2 2H5a2 2 0 0 1-2-2v-4a2 2 0 0 1 2-2h4a2 2 0 0 1 2 2z"/><path fill="#090404" d="M17.37 3.225a1 1 0 0 1 1.337.068l3 3a1 1 0 1 1-1.414 1.414L18 5.414l-2.293 2.293a1 1 0 1 1-1.414-1.414l3-3z"/><path fill="#090404" d="M17 19.5v-15a1 1 0 1 1 2 0v15a1 1 0 1 1-2 0"/><path fill="#090404" d="M20.293 16.293a1 1 0 1 1 1.414 1.414l-3 3a1 1 0 0 1-1.414 0l-3-3a1 1 0 1 1 1.414-1.414L18 18.586z"/></svg>