<svg xmlns="http://www.w3.org/2000/svg" fill="none" viewBox="0 0 24 24"><path fill="#090404" d="m9.288 8.534 1.342-.67a.52.52 0 0 0 .233-.234l.672-1.342a.52.52 0 0 1 .93 0l.672 1.342c.05.101.132.183.233.233l1.342.671a.52.52 0 0 1 0 .932l-1.342.67a.52.52 0 0 0-.233.234l-.671 1.342a.52.52 0 0 1-.931 0l-.672-1.342a.52.52 0 0 0-.233-.233l-1.342-.671a.52.52 0 0 1 0-.932"/><path fill="#090404" d="M20 12a8 8 0 1 0-16 0 8 8 0 0 0 16 0m2 0c0 2.56-.964 4.898-2.547 6.667A9.98 9.98 0 0 1 12 22a9.98 9.98 0 0 1-7.453-3.333A9.97 9.97 0 0 1 2 12C2 6.477 6.477 2 12 2s10 4.477 10 10"/><path fill="#090404" d="M12 14a9.98 9.98 0 0 1 7.454 3.333l-1.49 1.334A7.98 7.98 0 0 0 12 16a7.98 7.98 0 0 0-5.963 2.667l-1.49-1.334A9.98 9.98 0 0 1 12 14"/></svg>