<svg xmlns="http://www.w3.org/2000/svg" fill="none" viewBox="0 0 24 24"><path fill="#090404" d="M8 16c0-2.309-.51-3.743-1.384-4.616C5.743 10.51 4.308 10 2 10a1 1 0 0 1 0-2c2.308 0 3.743-.51 4.616-1.384C7.49 5.743 8 4.308 8 2a1 1 0 0 1 2 0c0 2.308.51 3.743 1.384 4.616C12.257 7.49 13.69 8 16 8a1 1 0 1 1 0 2c-2.309 0-3.743.51-4.616 1.384C10.51 12.257 10 13.69 10 16a1 1 0 1 1-2 0m1-9.271c-.264.48-.584.916-.97 1.301A5.7 5.7 0 0 1 6.73 9c.48.264.916.584 1.301.97.386.385.706.82.97 1.3.264-.48.584-.915.97-1.3a5.7 5.7 0 0 1 1.3-.97 5.7 5.7 0 0 1-1.3-.97A5.7 5.7 0 0 1 9 6.73"/><path fill="#090404" d="M16.5 22c0-1.44-.32-2.25-.785-2.715-.466-.465-1.275-.785-2.715-.785a1 1 0 1 1 0-2c1.44 0 2.25-.32 2.715-.785.465-.466.785-1.275.785-2.715a1 1 0 1 1 2 0c0 1.44.32 2.25.785 2.715S20.56 16.5 22 16.5a1 1 0 1 1 0 2c-1.44 0-2.25.32-2.715.785S18.5 20.56 18.5 22a1 1 0 1 1-2 0m1-5.302a4 4 0 0 1-.802.802 4 4 0 0 1 .802.8 4 4 0 0 1 .8-.8 4 4 0 0 1-.8-.802"/></svg>