<svg xmlns="http://www.w3.org/2000/svg" fill="none" viewBox="0 0 24 24"><path fill="#090404" d="M10.276 9.227a2 2 0 0 1-1.05 1.05L5.207 12l4.02 1.724a2 2 0 0 1 1.05 1.05L12 18.793l1.724-4.02a2 2 0 0 1 1.05-1.05L18.793 12l-4.02-1.724a2 2 0 0 1-1.05-1.05L12 5.207zM21 12c0 .747-.445 1.422-1.13 1.716l-4.308 1.846-1.846 4.307a1.867 1.867 0 0 1-3.432 0l-1.846-4.307-4.307-1.846a1.867 1.867 0 0 1 0-3.432l4.307-1.846 1.846-4.307a1.867 1.867 0 0 1 3.372-.125l.06.125 1.846 4.307 4.307 1.846c.686.294 1.131.97 1.131 1.716"/><path fill="#090404" d="M4.293 18.293a1 1 0 1 1 1.414 1.414l-2 2a1 1 0 1 1-1.414-1.414zm14 0a1 1 0 0 1 1.414 0l2 2a1 1 0 1 1-1.414 1.414l-2-2a1 1 0 0 1 0-1.414m-16-16a1 1 0 0 1 1.414 0l2 2a1 1 0 1 1-1.414 1.414l-2-2a1 1 0 0 1 0-1.414m18 0a1 1 0 1 1 1.414 1.414l-2 2a1 1 0 1 1-1.414-1.414z"/></svg>