<svg xmlns="http://www.w3.org/2000/svg" fill="none" viewBox="0 0 24 24"><path fill="#090404" d="M6 5.5a.5.5 0 0 0-1 0c0 .98-.217 1.573-.572 1.928S3.48 8 2.5 8a.5.5 0 0 0 0 1c.98 0 1.573.217 1.928.572S5 10.52 5 11.5a.5.5 0 0 0 1 0c0-.98.217-1.573.572-1.928S7.52 9 8.5 9a.5.5 0 0 0 0-1c-.98 0-1.573-.217-1.928-.572S6 6.48 6 5.5"/><path fill="#090404" d="M11 1.5a.5.5 0 0 0-1 0c0 .633-.14.975-.333 1.167C9.475 2.86 9.133 3 8.5 3a.5.5 0 0 0 0 1c.633 0 .975.14 1.167.333.192.192.333.534.333 1.167a.5.5 0 0 0 1 0c0-.633.14-.975.333-1.167C11.525 4.14 11.867 4 12.5 4a.5.5 0 0 0 0-1c-.633 0-.975-.14-1.167-.333C11.14 2.475 11 2.133 11 1.5"/><path fill="#090404" d="M12 22c0-2.308-.51-3.743-1.384-4.616C9.743 16.51 8.308 16 6 16a1 1 0 1 1 0-2c2.308 0 3.743-.51 4.616-1.384C11.49 11.743 12 10.31 12 8a1 1 0 1 1 2 0c0 2.309.51 3.743 1.384 4.616C16.257 13.49 17.692 14 20 14a1 1 0 1 1 0 2c-2.308 0-3.743.51-4.616 1.384C14.51 18.257 14 19.692 14 22a1 1 0 1 1-2 0m1-9.271c-.264.48-.584.916-.97 1.301a5.7 5.7 0 0 1-1.301.97c.48.264.916.584 1.301.97.386.385.706.82.97 1.3.264-.48.584-.915.97-1.3a5.7 5.7 0 0 1 1.3-.97 5.7 5.7 0 0 1-1.3-.97A5.7 5.7 0 0 1 13 12.73"/></svg>