<svg xmlns="http://www.w3.org/2000/svg" fill="none" viewBox="0 0 24 24"><path fill="#090404" d="M17.94 9.485 16.816 6.56a.874.874 0 0 0-1.63 0l-1.126 2.925a1 1 0 0 1-.574.575l-2.925 1.125a.874.874 0 0 0 0 1.63l2.925 1.126a1 1 0 0 1 .575.574l1.125 2.925a.874.874 0 0 0 1.63 0l1.125-2.925a1 1 0 0 1 .575-.575l2.925-1.125a.874.874 0 0 0 0-1.63l-2.925-1.126a1 1 0 0 1-.575-.574"/><path fill="#090404" d="m7.24 6.185-.696-1.812a.582.582 0 0 0-1.088 0L4.76 6.185a1 1 0 0 1-.575.575l-1.812.696a.582.582 0 0 0 0 1.088l1.812.696a1 1 0 0 1 .575.575l.696 1.812a.582.582 0 0 0 1.088 0l.696-1.812a1 1 0 0 1 .575-.575l1.812-.696a.582.582 0 0 0 0-1.088L7.815 6.76a1 1 0 0 1-.575-.575"/><path fill="#090404" d="m8.89 15.535-.482-1.255a.437.437 0 0 0-.816 0l-.482 1.255a1 1 0 0 1-.575.575l-1.255.482a.437.437 0 0 0 0 .816l1.255.482a1 1 0 0 1 .575.575l.482 1.255a.437.437 0 0 0 .816 0l.482-1.255a1 1 0 0 1 .575-.575l1.255-.482a.437.437 0 0 0 0-.816l-1.255-.482a1 1 0 0 1-.575-.575"/><path fill="#090404" d="M14.993 9.844a2 2 0 0 1-1.15 1.15L11.227 12l2.618 1.007c.528.203.946.621 1.15 1.15L16 16.772l1.007-2.617a2 2 0 0 1 1.15-1.15L20.772 12l-2.617-1.007a2 2 0 0 1-1.15-1.15L16 7.227zM22 12a.87.87 0 0 1-.56.815l-2.925 1.125a1 1 0 0 0-.575.575l-1.125 2.925-.057.12a.873.873 0 0 1-1.516 0l-.057-.12-1.125-2.925a1 1 0 0 0-.479-.532l-.096-.043-2.925-1.125a.874.874 0 0 1 0-1.63l2.925-1.125a1 1 0 0 0 .532-.479l.043-.096 1.125-2.925a.874.874 0 0 1 1.63 0l1.125 2.925a1 1 0 0 0 .575.575l2.925 1.125c.338.13.56.454.56.815"/></svg>