<svg xmlns="http://www.w3.org/2000/svg" fill="none" viewBox="0 0 24 24"><path fill="#090404" d="M15.206 9.943a2 2 0 0 1-1.15-1.149L12.214 4h-.426L9.943 8.794a2 2 0 0 1-1.149 1.15L4 11.786v.426l4.794 1.844c.528.203.946.62 1.15 1.15L11.786 20h.426l1.844-4.794a2 2 0 0 1 1.15-1.15L20 12.214v-.426zM22 12.213a2 2 0 0 1-1.282 1.867l-4.794 1.844-1.844 4.794A2 2 0 0 1 12.213 22h-.426a2 2 0 0 1-1.867-1.282l-1.844-4.794-4.794-1.844A2 2 0 0 1 2 12.213v-.426A2 2 0 0 1 3.282 9.92l4.794-1.844L9.92 3.282A2 2 0 0 1 11.787 2h.426a2 2 0 0 1 1.867 1.282l1.844 4.794 4.794 1.844A2 2 0 0 1 22 11.787z"/></svg>