<svg xmlns="http://www.w3.org/2000/svg" fill="none" viewBox="0 0 24 24"><path fill="#090404" d="M12 2a1 1 0 0 1 .958.713c.72 2.398 1.652 4.108 2.937 5.392s2.994 2.218 5.392 2.937a1 1 0 0 1 0 1.916c-2.398.72-4.107 1.652-5.392 2.937s-2.218 2.994-2.937 5.392a1 1 0 0 1-1.916 0c-.72-2.398-1.652-4.107-2.937-5.392s-2.994-2.218-5.392-2.937a1 1 0 0 1 0-1.916c2.398-.72 4.108-1.652 5.392-2.937s2.218-2.994 2.937-5.392A1 1 0 0 1 12 2m0 3.864c-.653 1.424-1.458 2.633-2.48 3.656-1.023 1.022-2.232 1.827-3.656 2.48 1.424.653 2.633 1.458 3.656 2.48 1.022 1.023 1.827 2.23 2.48 3.655.653-1.424 1.458-2.632 2.48-3.655s2.23-1.827 3.655-2.48c-1.424-.653-2.632-1.458-3.655-2.48S12.654 7.288 12 5.864"/></svg>