<svg xmlns="http://www.w3.org/2000/svg" fill="none" viewBox="0 0 24 24"><path fill="#090404" d="M10.766 8.18a4.5 4.5 0 0 1-2.585 2.586L4.97 12l3.21 1.234a4.5 4.5 0 0 1 2.585 2.585L12 19.03l1.234-3.21a4.5 4.5 0 0 1 2.585-2.585L19.03 12l-3.21-1.234a4.5 4.5 0 0 1-2.585-2.585L12 4.97zM22 12c0 .602-.371 1.143-.934 1.36l-4.529 1.742-.241.107a2.5 2.5 0 0 0-1.194 1.328l-1.743 4.53-.044.103a1.456 1.456 0 0 1-2.674-.104l-1.743-4.529a2.5 2.5 0 0 0-1.194-1.328l-.241-.107-4.53-1.743a1.457 1.457 0 0 1 0-2.718l4.53-1.743a2.5 2.5 0 0 0 1.435-1.435l1.743-4.53a1.457 1.457 0 0 1 2.718 0l1.743 4.53a2.5 2.5 0 0 0 1.435 1.435l4.53 1.743c.562.216.933.757.933 1.359"/></svg>