<svg xmlns="http://www.w3.org/2000/svg" fill="none" viewBox="0 0 24 24"><path fill="#090404" d="M18.886 2.345a.389.389 0 0 0-.772 0c-.106.914-.377 1.54-.803 1.966-.425.426-1.052.697-1.967.803a.389.389 0 0 0 .001.772c.899.102 1.54.374 1.977.802.434.426.71 1.052.79 1.958a.389.389 0 0 0 .775-.001c.078-.89.354-1.53.79-1.967s1.078-.714 1.968-.79a.389.389 0 0 0 0-.775c-.905-.08-1.53-.357-1.957-.791-.428-.437-.7-1.078-.802-1.977"/><path fill="#090404" d="M11.001 4a1 1 0 0 1 .992.888c.262 2.31.96 3.96 2.062 5.082 1.095 1.115 2.706 1.827 5.034 2.034a1 1 0 0 1-.003 1.992c-2.288.198-3.935.91-5.058 2.032-1.123 1.123-1.834 2.77-2.032 5.058a1 1 0 0 1-1.992.003c-.207-2.328-.919-3.939-2.034-5.034-1.122-1.102-2.771-1.8-5.082-2.062a1 1 0 0 1-.002-1.986c2.35-.271 3.963-.97 5.057-2.064s1.793-2.706 2.064-5.057l.014-.094a1 1 0 0 1 .98-.792m-.003 4.954a8.1 8.1 0 0 1-1.64 2.403 8.1 8.1 0 0 1-2.404 1.641c.916.414 1.725.95 2.417 1.63a8 8 0 0 1 1.627 2.316 8.1 8.1 0 0 1 1.616-2.33 8.1 8.1 0 0 1 2.33-1.616 8 8 0 0 1-2.316-1.627 8.3 8.3 0 0 1-1.63-2.417"/></svg>