<svg xmlns="http://www.w3.org/2000/svg" fill="none" viewBox="0 0 24 24"><path fill="#090404" d="M12 3.155 4.34 7.578v8.844L12 20.845l7.66-4.423V7.578zm9.66 13.267a2 2 0 0 1-1 1.733L13 22.577a2 2 0 0 1-2 0l-7.66-4.422a2 2 0 0 1-1-1.733V7.578a2 2 0 0 1 1-1.733L11 1.422a2 2 0 0 1 2 0l7.66 4.423a2 2 0 0 1 1 1.733z"/><path fill="#090404" d="M7 13.5V5a1 1 0 0 1 2 0v8.5a1 1 0 1 1-2 0"/><path fill="#090404" d="M15.625 4.134a1 1 0 0 1 1 1.732L9 10.27a1 1 0 0 1-1-1.733z"/><path fill="#090404" d="M11.634 7.17A1 1 0 0 1 13 6.804l7.5 4.33a1 1 0 0 1-1 1.732L12 8.536a1 1 0 0 1-.366-1.366"/><path fill="#090404" d="M15 18.929V10.5a1 1 0 1 1 2 0v8.429a1 1 0 0 1-2 0"/><path fill="#090404" d="M3.134 11.5a1 1 0 0 1 1.366-.366l7.5 4.33a1 1 0 0 1-1 1.732l-7.5-4.33a1 1 0 0 1-.366-1.366"/><path fill="#090404" d="M15 13.732a1 1 0 0 1 1 1.732l-7.5 4.33a1 1 0 0 1-1-1.732z"/></svg>