<svg xmlns="http://www.w3.org/2000/svg" fill="none" viewBox="0 0 24 24"><path fill="#090404" d="M20.502 13.556V13h-2v6h.5a1 1 0 1 1 0 2h-3a1 1 0 1 1 0-2h.5v-6h-2v.556a1 1 0 0 1-2 0V12a1 1 0 0 1 1-1h8a1 1 0 0 1 1 1v1.556a1 1 0 0 1-2 0"/><path fill="#090404" d="M2.002 11V9a1 1 0 1 1 2 0v2a1 1 0 1 1-2 0"/><path fill="#090404" d="M5.502 16V4a1 1 0 1 1 2 0v12a1 1 0 1 1-2 0"/><path fill="#090404" d="M9.002 13V7a1 1 0 1 1 2 0v6a1 1 0 1 1-2 0"/><path fill="#090404" d="M12.502 8.5V5a1 1 0 1 1 2 0v3.5a1 1 0 1 1-2 0"/></svg>