<svg xmlns="http://www.w3.org/2000/svg" fill="none" viewBox="0 0 24 24"><path fill="#090404" d="M13 11.268a2 2 0 1 1-2 3.464c-1.536-.888-3.006-2.901-3.73-3.994a.449.449 0 0 1 .408-.704c1.307.08 3.786.346 5.323 1.233"/><path fill="#090404" d="M20 12a8 8 0 1 0-13.333 5.963 1 1 0 0 1-1.334 1.49A9.98 9.98 0 0 1 2 12C2 6.477 6.477 2 12 2s10 4.477 10 10a9.98 9.98 0 0 1-3.333 7.453 1 1 0 0 1-1.334-1.49A7.98 7.98 0 0 0 20 12" opacity=".12"/><path fill="#090404" d="M2 12c0-1.152.195-2.261.556-3.294a1 1 0 0 1 1.888.658A8 8 0 0 0 4 12a7.98 7.98 0 0 0 2.667 5.962 1 1 0 0 1-1.334 1.49A9.98 9.98 0 0 1 2 12.002"/></svg>