<svg xmlns="http://www.w3.org/2000/svg" fill="none" viewBox="0 0 24 24"><path fill="#090404" d="M14 13a2 2 0 1 1-4 0c0-1.776 1.008-4.055 1.593-5.227a.449.449 0 0 1 .814 0C12.992 8.945 14 11.224 14 13"/><path fill="#090404" d="M20 12a8 8 0 1 0-13.333 5.963 1 1 0 0 1-1.334 1.49A9.98 9.98 0 0 1 2 12C2 6.477 6.477 2 12 2s10 4.477 10 10a9.98 9.98 0 0 1-3.333 7.453 1 1 0 0 1-1.334-1.49A7.98 7.98 0 0 0 20 12" opacity=".12"/><path fill="#090404" d="M2 12c0-5.148 3.889-9.386 8.89-9.94a1 1 0 0 1 .22 1.989 8.002 8.002 0 0 0-4.443 13.914 1 1 0 0 1-1.334 1.49A9.98 9.98 0 0 1 2 12"/></svg>