<svg xmlns="http://www.w3.org/2000/svg" fill="none" viewBox="0 0 24 24"><path fill="#090404" d="M4 20h10V10H4zm12 .5a1.5 1.5 0 0 1-1.5 1.5h-11A1.5 1.5 0 0 1 2 20.5v-11A1.5 1.5 0 0 1 3.5 8h11A1.5 1.5 0 0 1 16 9.5z"/><path fill="#090404" d="M8 9V8a1 1 0 0 1 2 0v1a1 1 0 0 1-2 0"/><path fill="#090404" d="M8 5V4a2 2 0 0 1 2-2h1a1 1 0 1 1 0 2h-1v1a1 1 0 0 1-2 0"/><path fill="#090404" d="M20 5V4h-1a1 1 0 1 1 0-2h1a2 2 0 0 1 2 2v1a1 1 0 1 1-2 0"/><path fill="#090404" d="M16 2a1 1 0 1 1 0 2h-2a1 1 0 1 1 0-2z"/><path fill="#090404" d="M20 10V8a1 1 0 1 1 2 0v2a1 1 0 1 1-2 0"/><path fill="#090404" d="M20 14v-1a1 1 0 1 1 2 0v1a2 2 0 0 1-2 2h-1a1 1 0 1 1 0-2z"/><path fill="#090404" d="M16 14a1 1 0 1 1 0 2h-1a1 1 0 1 1 0-2z"/></svg>