<svg xmlns="http://www.w3.org/2000/svg" fill="none" viewBox="0 0 24 24"><path fill="#090404" d="M14.172 14.172a4 4 0 0 1 6.274 4.86l1.261 1.261a1 1 0 0 1-1.414 1.415l-1.262-1.262a4 4 0 0 1-4.86-6.274M10 13a1 1 0 0 1 1 1v6a1 1 0 0 1-1 1H5.6c-.264 0-.522.001-.739-.017a2 2 0 0 1-.77-.2 2 2 0 0 1-.873-.875 2 2 0 0 1-.201-.77C2.999 18.923 3 18.665 3 18.4V14a1 1 0 0 1 1-1zm8.414 2.586a2 2 0 1 0-2.828 2.83 2 2 0 0 0 2.828-2.83M10 3a1 1 0 0 1 1 1v6a1 1 0 0 1-1 1H4a1 1 0 0 1-1-1V5.6c0-.264-.001-.522.017-.739.018-.228.063-.498.2-.77a2 2 0 0 1 .875-.873c.271-.138.54-.183.77-.201C5.077 2.999 5.335 3 5.6 3zm9 2.6c0-.297-.001-.459-.01-.576l-.003-.012-.011-.001A8 8 0 0 0 18.4 5H15v4h4zM5 18.4c0 .297.001.46.01.576l.002.011.012.002c.117.01.28.011.576.011H9v-4H5zM5 9h4V5H5.6a8 8 0 0 0-.576.01l-.012.002-.001.012C5 5.141 5 5.304 5 5.6zm16 1a1 1 0 0 1-1 1h-6a1 1 0 0 1-1-1V4a1 1 0 0 1 1-1h4.4c.264 0 .522-.001.739.017.228.018.498.063.77.2.328.169.604.424.796.737l.077.138.087.203c.072.2.1.395.114.566.018.217.017.475.017.739z"/></svg>