<svg xmlns="http://www.w3.org/2000/svg" fill="none" viewBox="0 0 24 24"><path fill="#090404" d="M9.002 4.999H4.998v4.004h4.004V4.999m1.995 4.002A1.997 1.997 0 0 1 9 10.998H5a1.997 1.997 0 0 1-1.997-1.997v-4c0-1.103.894-1.997 1.997-1.997h4c1.103 0 1.997.894 1.997 1.997z"/><path fill="#090404" d="M9.002 14.999 9 14.998H5l-.002.001v4.004h4.004v-4.004m1.995 4.002A1.997 1.997 0 0 1 9 20.998H5a1.997 1.997 0 0 1-1.997-1.997v-4c0-1.103.894-1.997 1.997-1.997h4c1.103 0 1.997.894 1.997 1.997z"/><path fill="#090404" d="M19.002 4.999h-4.004v4.004h4.004V4.999m1.995 4.002A1.997 1.997 0 0 1 19 10.998h-4a1.997 1.997 0 0 1-1.997-1.997v-4c0-1.103.894-1.997 1.997-1.997h4c1.103 0 1.997.894 1.997 1.997z"/><path fill="#090404" d="M19.003 17.001a2.003 2.003 0 1 0-4.007 0 2.003 2.003 0 0 0 4.007 0m1.994 0a3.997 3.997 0 1 1-7.993 0 3.997 3.997 0 0 1 7.993 0"/></svg>