<svg xmlns="http://www.w3.org/2000/svg" fill="none" viewBox="0 0 24 24"><path fill="#090404" d="M15 9.6c0-.297-.001-.459-.01-.576l-.003-.012-.011-.001A8 8 0 0 0 14.4 9H5.6a8 8 0 0 0-.576.01l-.012.002-.001.012C5 9.141 5 9.304 5 9.6v8.8c0 .297.001.46.01.576l.002.011.012.002c.117.01.28.011.576.011h8.8c.297 0 .46-.001.576-.01l.011-.003.002-.011c.01-.117.011-.28.011-.576zm2 8.8c0 .264.001.522-.017.739a2 2 0 0 1-.2.77 2 2 0 0 1-.875.873 2 2 0 0 1-.77.201c-.216.018-.474.017-.738.017H5.6c-.264 0-.522.001-.739-.017a2 2 0 0 1-.77-.2 2 2 0 0 1-.873-.875 2 2 0 0 1-.201-.77C2.999 18.923 3 18.665 3 18.4V9.6c0-.264-.001-.522.017-.739.018-.228.063-.498.2-.77a2 2 0 0 1 .875-.873c.271-.138.54-.183.77-.201C5.077 6.999 5.335 7 5.6 7h8.8c.264 0 .522-.001.739.017.228.018.498.063.77.2.328.169.604.424.796.737l.077.138.087.203c.072.2.1.395.114.566.018.217.017.475.017.739z"/><path fill="#090404" d="M19 14.4V5.6c0-.297-.001-.459-.01-.576l-.003-.012-.011-.001A8 8 0 0 0 18.4 5H9.6a8 8 0 0 0-.576.01l-.012.002-.001.012C9 5.141 9 5.304 9 5.6V8a1 1 0 1 1-2 0V5.6c0-.264-.001-.522.017-.739.018-.228.063-.498.2-.77a2 2 0 0 1 .875-.873c.271-.138.54-.183.77-.201C9.077 2.999 9.335 3 9.6 3h8.8c.264 0 .522-.001.739.017.228.018.498.063.77.2.328.169.604.424.796.737l.077.138.087.203c.072.2.1.395.114.566.018.217.017.475.017.739v8.8c0 .264.001.522-.017.739a2 2 0 0 1-.2.77 2 2 0 0 1-.875.873 2 2 0 0 1-.77.201c-.216.018-.474.017-.738.017H16a1 1 0 1 1 0-2h2.4c.297 0 .46-.001.576-.01l.011-.003.002-.011c.01-.117.011-.28.011-.576"/></svg>