<svg xmlns="http://www.w3.org/2000/svg" fill="none" viewBox="0 0 24 24"><path fill="#090404" d="M3 6V5a2 2 0 0 1 2-2h1a1 1 0 0 1 0 2H5v1a1 1 0 0 1-2 0"/><path fill="#090404" d="M19 6V5h-1a1 1 0 1 1 0-2h1a2 2 0 0 1 2 2v1a1 1 0 1 1-2 0"/><path fill="#090404" d="M3 19v-1a1 1 0 1 1 2 0v1h1a1 1 0 1 1 0 2H5a2 2 0 0 1-2-2"/><path fill="#090404" d="M19 19v-1a1 1 0 1 1 2 0v1a2 2 0 0 1-2 2h-1a1 1 0 1 1 0-2z"/><path fill="#090404" d="M13.5 3a1 1 0 1 1 0 2h-3a1 1 0 0 1 0-2z"/><path fill="#090404" d="M19 13.5v-3a1 1 0 1 1 2 0v3a1 1 0 1 1-2 0"/><path fill="#090404" d="M13.5 19a1 1 0 1 1 0 2h-3a1 1 0 1 1 0-2z"/><path fill="#090404" d="M3 13.5v-3a1 1 0 0 1 2 0v3a1 1 0 1 1-2 0"/></svg>