<svg xmlns="http://www.w3.org/2000/svg" fill="none" viewBox="0 0 24 24"><path fill="#090404" d="M11 20V4a1 1 0 1 1 2 0v16a1 1 0 1 1-2 0"/><path fill="#090404" d="M4.293 8.293a1 1 0 0 1 1.414 0l3 3a1 1 0 0 1 0 1.414l-3 3a1 1 0 1 1-1.414-1.414L6.586 12 4.293 9.707a1 1 0 0 1 0-1.414"/><path fill="#090404" d="M18.293 8.293a1 1 0 1 1 1.414 1.414L17.414 12l2.293 2.293a1 1 0 1 1-1.414 1.414l-3-3a1 1 0 0 1 0-1.414z"/><path fill="#090404" d="M7 11a1 1 0 1 1 0 2H2a1 1 0 1 1 0-2z"/><path fill="#090404" d="M22 11a1 1 0 1 1 0 2h-5a1 1 0 1 1 0-2z"/></svg>