<svg xmlns="http://www.w3.org/2000/svg" fill="none" viewBox="0 0 24 24"><path fill="#090404" d="M21 18a1 1 0 1 1 0 2H3a1 1 0 1 1 0-2z"/><path fill="#090404" d="M3.5 16v-2a1 1 0 1 1 2 0v2a1 1 0 1 1-2 0"/><path fill="#090404" d="M8.5 16v-3a1 1 0 1 1 2 0v3a1 1 0 1 1-2 0"/><path fill="#090404" d="M13.5 16v-5.5a1 1 0 1 1 2 0V16a1 1 0 1 1-2 0"/><path fill="#090404" d="M18.5 16v-2.5a1 1 0 1 1 2 0V16a1 1 0 1 1-2 0"/><path fill="#090404" d="M18.5 10V5a1 1 0 1 1 2 0v5a1 1 0 1 1-2 0"/><path fill="#090404" d="M13.5 7V5a1 1 0 1 1 2 0v2a1 1 0 1 1-2 0"/><path fill="#090404" d="M8.5 9.5V5a1 1 0 0 1 2 0v4.5a1 1 0 1 1-2 0"/><path fill="#090404" d="M3.5 10.5V5a1 1 0 0 1 2 0v5.5a1 1 0 1 1-2 0"/></svg>