<svg xmlns="http://www.w3.org/2000/svg" fill="none" viewBox="0 0 24 24"><path fill="#090404" d="M21 18a1 1 0 1 1 0 2H3a1 1 0 1 1 0-2z"/><path fill="#090404" d="M6 18v-5H5v5a1 1 0 1 1-2 0v-5a2 2 0 0 1 2-2h1a2 2 0 0 1 2 2v5a1 1 0 1 1-2 0"/><path fill="#090404" d="M9 18V8H8v10a1 1 0 1 1-2 0V8a2 2 0 0 1 2-2h1a2 2 0 0 1 2 2v10a1 1 0 1 1-2 0"/><path fill="#090404" d="M16 18v-7h-1v7a1 1 0 1 1-2 0v-7a2 2 0 0 1 2-2h1a2 2 0 0 1 2 2v7a1 1 0 1 1-2 0"/><path fill="#090404" d="M19 18V6h-1v12a1 1 0 1 1-2 0V6a2 2 0 0 1 2-2h1a2 2 0 0 1 2 2v12a1 1 0 1 1-2 0"/></svg>