<svg xmlns="http://www.w3.org/2000/svg" fill="none" viewBox="0 0 24 24"><path fill="#090404" d="M3 19V4a1 1 0 0 1 2 0v15h15a1 1 0 1 1 0 2H5a2 2 0 0 1-2-2"/><path fill="#090404" d="M19 15a1 1 0 1 1 0 2h-4a1 1 0 1 1 0-2z"/><path fill="#090404" d="M19 10.5a1 1 0 1 1 0 2h-5a1 1 0 1 1 0-2z"/><path fill="#090404" d="M19 6a1 1 0 1 1 0 2h-2a1 1 0 1 1 0-2z"/><path fill="#090404" d="M13 6a1 1 0 1 1 0 2H7a1 1 0 0 1 0-2z"/><path fill="#090404" d="M10 10.5a1 1 0 1 1 0 2H7a1 1 0 1 1 0-2z"/><path fill="#090404" d="M11 15a1 1 0 1 1 0 2H7a1 1 0 1 1 0-2z"/></svg>