<svg xmlns="http://www.w3.org/2000/svg" fill="none" viewBox="0 0 24 24"><path fill="#090404" d="M12.879 18.707a3 3 0 0 1 4.242 0l.293.293H19v-1.586l-.293-.293a2.997 2.997 0 0 1 0-4.242l.293-.293v-1.172l-.293-.293a3 3 0 0 1 0-4.242L19 6.586V5h-1.586l-.293.293a3 3 0 0 1-4.242 0L12.586 5h-1.172l-.293.293a3 3 0 0 1-4.242 0L6.586 5H5v1.586l.293.293a3 3 0 0 1 0 4.242L5 11.414v1.172l.293.293c.6.6.893 1.393.878 2.178a3 3 0 0 1-.878 2.064L5 17.414V19h1.586l.293-.293a3 3 0 0 1 4.242 0l.293.293h1.172zM21 6.586A2 2 0 0 1 20.414 8l-.293.293a1 1 0 0 0 0 1.414l.293.293A2 2 0 0 1 21 11.414v1.172A2 2 0 0 1 20.414 14l-.293.293a.996.996 0 0 0 0 1.414l.293.293A2 2 0 0 1 21 17.414V19a2 2 0 0 1-2 2h-1.586A2 2 0 0 1 16 20.414l-.293-.293a1 1 0 0 0-1.414 0l-.293.293a2 2 0 0 1-1.414.586h-1.172A2 2 0 0 1 10 20.414l-.293-.293a1 1 0 0 0-1.414 0L8 20.414A2 2 0 0 1 6.586 21H5a2 2 0 0 1-2-2v-1.586A2 2 0 0 1 3.586 16l.293-.293a.996.996 0 0 0 0-1.414L3.586 14A2 2 0 0 1 3 12.586v-1.172A2 2 0 0 1 3.586 10l.293-.293a1 1 0 0 0 0-1.414L3.586 8A2 2 0 0 1 3 6.586V5a2 2 0 0 1 2-2h1.586A2 2 0 0 1 8 3.586l.293.293a1 1 0 0 0 1.414 0L10 3.586A2 2 0 0 1 11.414 3h1.172A2 2 0 0 1 14 3.586l.293.293a1 1 0 0 0 1.414 0L16 3.586A2 2 0 0 1 17.414 3H19a2 2 0 0 1 2 2z"/><path fill="#090404" d="M14.5 12a2.5 2.5 0 1 0-4.948.506q.015.003.031.006c1.563.097 2.978.792 4.165 1.27A2.49 2.49 0 0 0 14.5 12m2 0c0 1.338-.585 2.54-1.51 3.363-.57.506-1.325.54-1.906.309-1.44-.573-2.444-1.09-3.625-1.164-.635-.04-1.563-.396-1.817-1.383A4.507 4.507 0 0 1 12 7.5a4.5 4.5 0 0 1 4.5 4.5"/><path fill="#090404" d="M14.27 13.985c1.283.47 2.596.743 4.3.264l.54 1.925c-2.247.632-4.013.243-5.528-.312z"/><path fill="#090404" d="M8.911 14.51c-.844.059-1.856.391-3.151 1.336L4.582 14.23c1.524-1.112 2.889-1.626 4.191-1.716z"/></svg>