<svg xmlns="http://www.w3.org/2000/svg" fill="none" viewBox="0 0 24 24"><path fill="#090404" d="M8.293 15.293a1 1 0 1 1 1.414 1.414l-4 4a1 1 0 1 1-1.414-1.414z"/><path fill="#090404" d="M6.293 10.293a1 1 0 1 1 1.414 1.414l-4 4a1 1 0 1 1-1.414-1.414z"/><path fill="#090404" d="M15.293 15.293a1 1 0 1 1 1.414 1.414l-4 4a1 1 0 1 1-1.414-1.414z"/><path fill="#090404" d="M14.215 1.696a1.5 1.5 0 0 1 2.57 0l1.492 2.48 2.821.654a1.5 1.5 0 0 1 .794 2.444L19.994 9.46l.25 2.885a1.5 1.5 0 0 1-2.078 1.51l-2.666-1.13-2.665 1.13a1.5 1.5 0 0 1-2.08-1.51l.25-2.886-1.898-2.185a1.5 1.5 0 0 1 .795-2.444l2.82-.654zm.112 3.694a1.5 1.5 0 0 1-.947.687l-2.218.513 1.492 1.72c.266.306.397.708.362 1.113l-.197 2.265 2.096-.886a1.5 1.5 0 0 1 1.17 0l2.095.887-.196-2.266a1.5 1.5 0 0 1 .361-1.114l1.492-1.72-2.217-.512a1.5 1.5 0 0 1-.946-.687L15.5 3.438z"/></svg>