<svg xmlns="http://www.w3.org/2000/svg" fill="none" viewBox="0 0 24 24"><path fill="#090404" d="M10.87 1.71c.426-.887 1.64-.943 2.164-.166l.096.167 2.506 5.224 5.774.758c1.039.136 1.47 1.421.697 2.15l-4.22 3.986 1.06 5.69c.194 1.047-.913 1.824-1.828 1.33L12 18.083l-5.12 2.764c-.914.495-2.021-.282-1.826-1.329l1.058-5.69-4.22-3.985c-.772-.73-.34-2.015.698-2.15l5.773-.759zm-.879 6.457a1.25 1.25 0 0 1-.967.7l-4.613.604 3.371 3.184c.308.291.45.72.371 1.138l-.847 4.553 4.098-2.212.143-.067c.291-.113.615-.113.906 0l.143.067 4.097 2.212-.846-4.553a1.25 1.25 0 0 1 .37-1.138l3.37-3.184-4.611-.604a1.25 1.25 0 0 1-.967-.7L12 3.979z"/></svg>