<svg xmlns="http://www.w3.org/2000/svg" fill="none" viewBox="0 0 24 24"><path fill="#090404" d="M16.067 2.226c1.456-.74 3.136.48 2.882 2.093l-.694 4.403 3.15 3.152c1.153 1.156.51 3.132-1.103 3.389l-4.4.7-2.025 3.969c-.743 1.454-2.822 1.454-3.564 0l-2.025-3.969-4.401-.7c-1.613-.257-2.255-2.233-1.101-3.389l3.15-3.152-.695-4.403c-.254-1.612 1.426-2.834 2.882-2.093l3.972 2.02zm-3.065 3.802a2 2 0 0 1-1.814 0l-3.971-2.02.694 4.402a2 2 0 0 1-.56 1.725L4.2 13.288l4.401.7a2 2 0 0 1 1.467 1.066l2.025 3.969 2.027-3.97a2 2 0 0 1 1.467-1.066l4.401-.699-3.15-3.153a2 2 0 0 1-.56-1.725l.694-4.402z"/><path fill="#090404" d="M7.96 14.867a1 1 0 0 1 1.601 1.2L5.411 21.6a1 1 0 1 1-1.6-1.2z"/></svg>