<svg xmlns="http://www.w3.org/2000/svg" fill="none" viewBox="0 0 24 24"><path fill="#090404" d="M2.537 12.204C3.69 9.253 6.509 7.49 9.412 8.13c.545.12 1.011.369 1.379.59l2.215 1.33c.307.185.551.299.776.348.596.128 1.229.12 1.941.075.665-.043 1.481-.129 2.223-.08.782.053 1.615.256 2.35.867.636.527 1.111 1.286 1.457 2.293l.14.446.025.11c.46 2.73-1.069 4.67-2.94 5.948-1.857 1.266-4.23 2.026-6 2.467-2.042.51-4.21.727-6.132.056-1.993-.696-3.55-2.283-4.447-4.996a8 8 0 0 1 .138-5.379m6.445-2.122c-1.777-.391-3.722.65-4.582 2.85a6 6 0 0 0-.102 4.024c.737 2.232 1.901 3.278 3.207 3.734 1.376.48 3.085.368 4.99-.107 1.702-.424 3.797-1.116 5.355-2.179 1.526-1.04 2.354-2.292 2.102-3.912-.283-.96-.626-1.44-.933-1.695-.302-.252-.676-.374-1.206-.41-.57-.037-1.169.029-1.962.08-.745.048-1.61.075-2.492-.116-.546-.118-1.014-.366-1.383-.587l-2.215-1.331c-.31-.186-.553-.301-.779-.351"/><path fill="#090404" d="M12.393 1.206a1 1 0 1 1 1.215 1.588c-.205.156-.295.27-.333.331-.032.051-.032.072-.032.074-.002.055.02.152.193.509.114.236.431.816.368 1.459-.077.777-.621 1.314-1.313 1.704a1 1 0 0 1-.982-1.742c.155-.088.239-.156.284-.198a5 5 0 0 0-.157-.35c-.133-.275-.423-.834-.39-1.485.039-.742.459-1.364 1.147-1.89"/><path fill="#090404" d="M7.502 2.133a1 1 0 0 1 .996 1.734q-.11.065-.175.11.023.04.053.088c.065.1.185.282.274.475.092.202.2.517.15.893-.107.81-.811 1.235-1.41 1.488a1 1 0 0 1-.78-1.842q.016-.007.03-.015c-.146-.225-.432-.703-.393-1.272.054-.772.616-1.292 1.255-1.66"/><path fill="#090404" d="M17.002 4.133a1 1 0 0 1 .996 1.734q-.11.065-.175.11.023.04.053.088c.065.1.185.282.274.475.092.202.2.517.15.893-.107.81-.811 1.235-1.41 1.488a1 1 0 0 1-.78-1.842q.016-.007.03-.015c-.146-.225-.432-.703-.393-1.272.054-.772.616-1.292 1.255-1.66"/><path fill="#090404" d="M9.821 9.017a1 1 0 0 1 1.163.804c.512 2.818.543 4.987-.098 6.895-.644 1.916-1.92 3.432-3.722 5.032a1 1 0 0 1-1.328-1.496c1.698-1.507 2.673-2.741 3.154-4.173.484-1.44.514-3.218.027-5.9a1 1 0 0 1 .804-1.162"/><path fill="#090404" d="M10.336 16.014c2.061-.344 6.006-.586 8.871 2.279a1 1 0 0 1-1.414 1.414c-2.135-2.135-5.19-2.044-7.129-1.72a1 1 0 0 1-.328-1.973"/></svg>