<svg xmlns="http://www.w3.org/2000/svg" fill="none" viewBox="0 0 24 24"><path fill="#090404" d="M11.997 2C6.744 2 2.44 6.05 2.03 11.198l5.36 2.216a2.8 2.8 0 0 1 1.75-.488l2.384-3.455v-.048a3.775 3.775 0 0 1 3.772-3.772 3.775 3.775 0 0 1 3.77 3.772 3.776 3.776 0 0 1-3.77 3.771q-.043 0-.086-.002l-3.4 2.425q.004.068.004.134c0 1.562-1.27 2.831-2.83 2.831a2.835 2.835 0 0 1-2.776-2.273l-3.833-1.584C3.563 18.923 7.419 22 11.996 22c5.524 0 10-4.477 10-10s-4.476-10-10-10"/><path fill="#090404" d="m8.298 17.173-1.228-.507c.218.453.594.833 1.094 1.041a2.127 2.127 0 0 0 2.781-2.77 2.115 2.115 0 0 0-2.713-1.176l1.27.525a1.564 1.564 0 0 1-1.204 2.887"/><path fill="#090404" fill-rule="evenodd" d="M15.296 6.91a2.516 2.516 0 0 1 2.513 2.513 2.515 2.515 0 0 1-2.513 2.512 2.516 2.516 0 0 1-2.513-2.512 2.516 2.516 0 0 1 2.513-2.513m.004.62a1.888 1.888 0 1 0 0 3.776 1.888 1.888 0 0 0 0-3.775" clip-rule="evenodd"/></svg>