<svg xmlns="http://www.w3.org/2000/svg" fill="none" viewBox="0 0 24 24"><path fill="#090404" d="M2.053 8.28C3.329 4.71 6.67 2.576 10.005 3.88l4.356 1.688.003.001c.664.26 1.315.328 2.001.342.619.013 1.471-.03 2.18.069.797.11 1.606.404 2.307 1.15.67.713 1.164 1.756 1.543 3.202q.015.05.022.102c.466 3.015-1.068 5.195-3.049 6.672-1.953 1.457-4.455 2.335-6.327 2.845-2.157.588-4.454.84-6.49.063-2.101-.802-3.712-2.614-4.64-5.682a9.8 9.8 0 0 1 .142-6.05m7.226-2.537c-1.97-.771-4.321.353-5.343 3.21a7.8 7.8 0 0 0-.11 4.799c.797 2.638 2.058 3.865 3.439 4.393 1.445.551 3.241.423 5.25-.125 1.793-.488 4.007-1.287 5.658-2.518 1.61-1.2 2.564-2.706 2.272-4.716-.336-1.26-.71-1.924-1.05-2.286-.313-.332-.655-.475-1.125-.54-.558-.077-1.088-.033-1.946-.05-.79-.017-1.71-.095-2.688-.478V7.43L9.282 5.744z"/><path fill="#090404" d="M9.29 4.522a1 1 0 0 1 1.188.767c.657 3.051.832 5.533.161 7.732-.68 2.229-2.182 4.014-4.54 5.78a1 1 0 0 1-1.198-1.602c2.168-1.624 3.314-3.089 3.825-4.763.52-1.703.432-3.776-.203-6.725a1 1 0 0 1 .766-1.189"/><path fill="#090404" d="M9.777 12.282c2.145-.49 6.176-.786 9.03 3.13a1 1 0 1 1-1.615 1.177c-2.145-2.942-5.114-2.78-6.97-2.357a1 1 0 0 1-.445-1.95"/></svg>