<svg xmlns="http://www.w3.org/2000/svg" fill="none" viewBox="0 0 24 24"><path fill="#090404" d="M20 12a8 8 0 1 0-16 0 8 8 0 0 0 16 0m2 0c0 5.523-4.477 10-10 10S2 17.523 2 12 6.477 2 12 2s10 4.477 10 10"/><path fill="#090404" d="M11.999 8.5c2.943 0 5.835.806 9.394 2.331l-.788 1.838C17.165 11.194 14.557 10.5 12 10.5s-5.165.694-8.606 2.169l-.788-1.838C6.164 9.306 9.056 8.5 12 8.5"/><path fill="#090404" d="M5.773 13.623c.708-.201 1.384-.31 2.056-.168a4 4 0 0 1 2.526 1.734c.374.578.515 1.252.58 1.989.066.734.065 1.667.065 2.822H9c0-1.192-.001-2.02-.057-2.645-.055-.622-.156-.907-.265-1.076a2 2 0 0 0-1.264-.868c-.197-.042-.498-.033-1.092.136-.597.17-1.361.463-2.463.887l-.718-1.868c1.066-.41 1.928-.742 2.632-.943"/><path fill="#090404" d="M18.227 13.623c-.707-.201-1.384-.31-2.056-.168a4 4 0 0 0-2.525 1.734c-.375.578-.516 1.252-.582 1.989C13 17.912 13 18.845 13 20h2c0-1.192.001-2.02.057-2.645.055-.622.156-.907.265-1.076.29-.445.745-.758 1.264-.868.197-.042.498-.033 1.092.136.597.17 1.361.463 2.463.887l.718-1.868c-1.066-.41-1.929-.742-2.632-.943"/></svg>