<svg xmlns="http://www.w3.org/2000/svg" fill="none" viewBox="0 0 24 24"><path fill="#090404" d="M19 12a7 7 0 1 0-14 0 7 7 0 0 0 14 0m2 0a9 9 0 1 1-18 0 9 9 0 0 1 18 0"/><path fill="#090404" d="M11.1 22V2a.9.9 0 0 1 1.8 0v20a.9.9 0 0 1-1.8 0"/><path fill="#090404" d="M22 12.9H2a.9.9 0 0 1 0-1.8h20a.9.9 0 0 1 0 1.8"/><path fill="#090404" d="M18.435 19.708 4.293 5.564a.9.9 0 0 1 1.273-1.273l14.142 14.142a.9.9 0 0 1-1.273 1.273"/><path fill="#090404" d="M4.293 18.434 18.436 4.292a.9.9 0 0 1 1.273 1.273L5.567 19.707a.9.9 0 0 1-1.274-1.273"/></svg>