<svg xmlns="http://www.w3.org/2000/svg" fill="none" viewBox="0 0 24 24"><path fill="#090404" d="M18.75 10.54c0-1.927-.649-3.619-1.785-4.821C15.836 4.524 14.169 3.75 12 3.75s-3.836.774-4.965 1.969C5.9 6.92 5.25 8.613 5.25 10.539c0 2.537.307 4.304 1.732 6.068.249.308.48.623.697.931.31.438.869 1.134 1.629 1.713.757.577 1.662.999 2.692.999s1.935-.422 2.692-.999a8 8 0 0 0 1.63-1.713c.217-.308.447-.623.696-.93 1.425-1.766 1.732-3.532 1.732-6.069m2 0c0 2.723-.33 5.039-2.176 7.324-.21.26-.413.537-.618.827a10 10 0 0 1-2.052 2.15c-.982.749-2.303 1.409-3.904 1.409s-2.922-.66-3.904-1.408a10 10 0 0 1-2.052-2.15c-.205-.291-.408-.567-.618-.828-1.846-2.285-2.176-4.6-2.176-7.325 0-2.375.804-4.578 2.332-6.194C7.118 2.72 9.325 1.75 12 1.75s4.883.97 6.418 2.595c1.527 1.616 2.332 3.819 2.332 6.194"/><path fill="#090404" d="M16.25 11a1.25 1.25 0 1 0-2.5 0 1.25 1.25 0 0 0 2.5 0m1.5 0a2.75 2.75 0 1 1-5.5 0 2.75 2.75 0 0 1 5.5 0"/><path fill="#090404" d="M10.25 11a1.25 1.25 0 1 0-2.5 0 1.25 1.25 0 0 0 2.5 0m1.5 0a2.75 2.75 0 1 1-5.5 0 2.75 2.75 0 0 1 5.5 0"/><path fill="#090404" d="M10.848 9.515a4.75 4.75 0 0 1 2.304 0l.03.008a.75.75 0 0 1-.364 1.455l-.03-.008a3.25 3.25 0 0 0-1.576 0l-.03.008a.75.75 0 0 1-.364-1.455z"/><path fill="#090404" d="M3.793 10.207a1 1 0 0 0 1.414 0c.312-.312.57-.724.783-1.123.22-.412.421-.873.602-1.327.359-.904.662-1.858.856-2.44a1 1 0 0 0-1.896-.633c-.206.617-.486 1.497-.819 2.335-.165.416-.337.803-.508 1.126-.179.334-.327.543-.432.648a1 1 0 0 0 0 1.414"/><path fill="#090404" d="M20.207 10.207a1 1 0 0 1-1.414 0c-.312-.312-.57-.724-.783-1.123a13 13 0 0 1-.602-1.327c-.359-.904-.662-1.858-.856-2.44a1 1 0 0 1 1.896-.633c.206.617.486 1.497.819 2.335.165.416.337.803.509 1.126.178.334.326.543.431.648a1 1 0 0 1 0 1.414"/><path fill="#090404" d="M13.89 2.707a1 1 0 0 1 1.22 1.586C14.133 5.043 13.107 5.5 12 5.5s-2.134-.456-3.11-1.207a1 1 0 0 1 1.22-1.586c.756.582 1.364.793 1.89.793s1.133-.21 1.89-.793"/><path fill="#090404" d="M3.53 9.758a1 1 0 0 1 1.212-.728l2 .5a1 1 0 1 1-.484 1.94l-2-.5a1 1 0 0 1-.728-1.212m15.728-.728a1 1 0 1 1 .484 1.94l-2 .5a1 1 0 1 1-.484-1.94z"/><path fill="#090404" d="M15 19v-1a1 1 0 0 0-1-1h-4a1 1 0 0 0-1 1v1a1 1 0 1 1-2 0v-1a3 3 0 0 1 3-3h4a3 3 0 0 1 3 3v1a1 1 0 1 1-2 0"/><path fill="#090404" d="M12 18.553c.694 0 1.566.168 2.164.699a1 1 0 0 1-1.328 1.496c-.073-.065-.366-.195-.836-.195s-.762.13-.836.195a1 1 0 0 1-1.328-1.496c.599-.531 1.47-.7 2.164-.7"/></svg>