<svg xmlns="http://www.w3.org/2000/svg" fill="none" viewBox="0 0 24 24"><path fill="#090404" d="M20 12q0-.277-.02-.55L12.55 4.02A8 8 0 1 0 20 12m2 0c0 5.523-4.477 10-10 10S2 17.523 2 12 6.477 2 12 2q.363 0 .722.025c.426.03.809.203 1.11.457l.123.114 7.45 7.449c.276.277.479.641.548 1.054l.022.18.018.359q.007.18.007.362"/><path fill="#090404" d="M13 2.5a1 1 0 0 1 .96 1.038c-.135 3.543 2.957 6.635 6.5 6.5a1 1 0 0 1 .078 1.998c-4.707.18-8.755-3.867-8.575-8.574A1 1 0 0 1 13 2.5"/><path fill="#090404" d="M13.793 5.293a1 1 0 0 1 1.414 0l3.5 3.5a1 1 0 1 1-1.414 1.414l-3.5-3.5a1 1 0 0 1 0-1.414"/></svg>