<svg xmlns="http://www.w3.org/2000/svg" fill="none" viewBox="0 0 24 24"><path fill="#090404" d="M15 10a1 1 0 1 0-2 0 1 1 0 0 0 2 0m2 0a3 3 0 1 1-6 0 3 3 0 0 1 6 0"/><path fill="#090404" d="M13 12a1 1 0 1 1 2 0v8a1 1 0 0 1-1 1H5a2 2 0 0 1-2-2V5a2 2 0 0 1 2-2h9a1 1 0 0 1 1 1v4a1 1 0 1 1-2 0V5H5v14h8z"/><path fill="#090404" d="M19 19V5h-5a1 1 0 1 1 0-2h5a2 2 0 0 1 2 2v14a2 2 0 0 1-2 2h-5a1 1 0 1 1 0-2z"/><path fill="#090404" d="M11.879 10.707a1 1 0 0 1 1.414 1.414l-3.586 3.586a1 1 0 0 1-1.414 0L7 14.414l-1.793 1.793a1 1 0 0 1-1.414-1.414l2.5-2.5.076-.07a1 1 0 0 1 1.338.07L9 13.586z"/></svg>