<svg xmlns="http://www.w3.org/2000/svg" fill="none" viewBox="0 0 24 24"><path fill="#090404" d="m14.5 3 .097.005a1 1 0 0 1 .9.924l.287 4.008a3.793 3.793 0 1 1-7.568 0l.287-4.008.011-.097A1 1 0 0 1 9.501 3zm-4.289 5.08a1.794 1.794 0 1 0 3.578 0L13.569 5H10.43z"/><path fill="#090404" d="M9.5 3a1 1 0 0 1 .998 1.071l-.31 4.326a3.879 3.879 0 1 1-7.71-.825l.41-2.855A2 2 0 0 1 4.867 3zM4.46 7.855a1.88 1.88 0 1 0 3.734.4L8.426 5H4.868z"/><path fill="#090404" d="M19.133 3a2 2 0 0 1 1.98 1.717l.408 2.855a3.88 3.88 0 1 1-7.71.825l-.308-4.326A1 1 0 0 1 14.5 3zm-3.326 5.255a1.879 1.879 0 1 0 3.734-.4L19.133 5h-3.56z"/><path fill="#090404" d="M13 16h-2v4a1 1 0 0 1-1 1H5a2 2 0 0 1-2-2v-9a1 1 0 0 1 2 0v9h4v-3a2 2 0 0 1 2-2h2a2 2 0 0 1 2 2v3h4v-9a1 1 0 1 1 2 0v9a2 2 0 0 1-2 2h-5a1 1 0 0 1-1-1z"/></svg>