<svg xmlns="http://www.w3.org/2000/svg" fill="none" viewBox="0 0 24 24"><path fill="#090404" d="M3 19v-8a1 1 0 1 1 2 0v8h14v-8a1 1 0 1 1 2 0v8a2 2 0 0 1-2 2H5a2 2 0 0 1-2-2"/><path fill="#090404" d="M19.246 3a2 2 0 0 1 1.922 1.45l.932 3.26c.614 2.15-1 4.29-3.235 4.29-.9 0-1.745-.335-2.363-.911a3.238 3.238 0 0 1-4.503.003 3.236 3.236 0 0 1-4.503-.004 3.46 3.46 0 0 1-2.36.912A3.365 3.365 0 0 1 1.9 7.71l.931-3.26A2 2 0 0 1 4.754 3zM3.823 8.26c-.25.872.405 1.74 1.312 1.74.82 0 1.365-.56 1.365-1.25a1 1 0 1 1 2 0 1.25 1.25 0 1 0 2.5 0 1 1 0 1 1 2 0 1.25 1.25 0 1 0 2.5 0 1 1 0 1 1 2 0c0 .69.544 1.25 1.365 1.25.906 0 1.561-.868 1.312-1.74L19.246 5H4.753z"/></svg>