<svg xmlns="http://www.w3.org/2000/svg" fill="none" viewBox="0 0 24 24"><path fill="#090404" d="M3 19v-8h2v8h14v-8h2v8a2 2 0 0 1-2 2H5a2 2 0 0 1-2-2"/><path fill="#090404" d="M18.764 3a2 2 0 0 1 1.91 1.403l1.105 3.536c.784 2.51-1.091 5.06-3.72 5.061a3.9 3.9 0 0 1-2.986-1.393A4.07 4.07 0 0 1 12 13a4.07 4.07 0 0 1-3.074-1.393A3.9 3.9 0 0 1 5.942 13c-2.63 0-4.505-2.55-3.72-5.06l1.104-3.537A2 2 0 0 1 5.236 3zM4.131 8.536a1.898 1.898 0 1 0 3.694.802L8.367 5H5.235zM10.383 5l-.457 3.65v.001a2.09 2.09 0 1 0 4.148.01L13.617 5zm5.675 3.403.001.019.115.916a1.898 1.898 0 1 0 3.696-.802L18.764 5h-3.131z"/></svg>