<svg xmlns="http://www.w3.org/2000/svg" fill="none" viewBox="0 0 24 24"><path fill="#090404" d="M16 18.5a.5.5 0 1 1 0-1 .5.5 0 0 1 0 1"/><path fill="#090404" d="M13 18.5a.5.5 0 1 1 0-1 .5.5 0 0 1 0 1"/><path fill="#090404" d="M18 16H6v4h12zM6 4v10h12V4zm14 16a2 2 0 0 1-2 2H6a2 2 0 0 1-2-2V4a2 2 0 0 1 2-2h12a2 2 0 0 1 2 2z"/><path fill="#090404" d="M13.5 18a.5.5 0 0 0-1 0l.01.1c.04.196.194.35.39.39l.1.01a.5.5 0 0 0 .5-.5m3 0a.5.5 0 0 0-1 0l.01.1a.5.5 0 0 0 .99-.1M14 18a1 1 0 1 1-2 0 1 1 0 0 1 2 0m3 0a1 1 0 1 1-2 0 1 1 0 0 1 2 0"/></svg>