<svg xmlns="http://www.w3.org/2000/svg" fill="none" viewBox="0 0 24 24"><path fill="#090404" d="M2 19v-4a1 1 0 1 1 2 0v4h8v-4a1 1 0 1 1 2 0v4a2 2 0 0 1-2 2H4a2 2 0 0 1-2-2"/><path fill="#090404" d="M12.323 9a2 2 0 0 1 1.857 1.257l.686 1.717C15.637 13.902 14.218 16 12.14 16a2.936 2.936 0 0 1-2.896-2.453L8.819 11H7.181l-.425 2.547A2.936 2.936 0 0 1 3.86 16c-2.077 0-3.498-2.098-2.726-4.026l.686-1.717A2 2 0 0 1 3.677 9zm-9.332 3.716a.936.936 0 1 0 1.792.502L5.153 11H3.677zm8.226.502a.937.937 0 1 0 1.793-.502L12.323 11h-1.476z"/><path fill="#090404" d="M9.586 9.514a1 1 0 0 1 1.15.822l.339 2.033a3.118 3.118 0 1 1-6.15 0l.338-2.033a1 1 0 0 1 1.973.328l-.339 2.034a1.118 1.118 0 1 0 2.205 0l-.339-2.034a1 1 0 0 1 .823-1.15"/><path fill="#090404" d="M17.586 3.514a1 1 0 0 1 1.15.822l.34 2.033a3.12 3.12 0 0 1-1.603 3.262 1 1 0 1 1-.945-1.762c.409-.22.656-.682.575-1.17l-.34-2.035a1 1 0 0 1 .823-1.15"/><path fill="#090404" d="M20 13V9a1 1 0 1 1 2 0v4a2 2 0 0 1-2 2h-2a1 1 0 1 1 0-2z"/><path fill="#090404" d="M20.323 3a2 2 0 0 1 1.857 1.257l.686 1.717C23.637 7.902 22.218 10 20.14 10a2.936 2.936 0 0 1-2.896-2.453L16.819 5h-1.638l-.195 1.164a1 1 0 1 1-1.973-.328l.14-.836h-1.476l-.548 1.371A1 1 0 0 1 9.27 5.63l.55-1.372A2 2 0 0 1 11.676 3zm-1.106 4.218a.937.937 0 1 0 1.793-.502L20.323 5h-1.477z"/></svg>