<svg xmlns="http://www.w3.org/2000/svg" fill="none" viewBox="0 0 24 24"><ellipse cx="12" cy="11" fill="#090404" rx="1" ry="1.5"/><ellipse cx="8" cy="11" fill="#090404" rx="1" ry="1.5"/><ellipse cx="16" cy="11" fill="#090404" rx="1" ry="1.5"/><ellipse cx="14" cy="15.5" fill="#090404" rx="1" ry="1.5"/><ellipse cx="10" cy="15.5" fill="#090404" rx="1" ry="1.5"/><path fill="#090404" d="M19 11.784c0-1.139-.196-2.077-.605-2.819-.4-.724-1.04-1.333-2.064-1.768-.298-.127-.715-.129-1.512-.008-.724.11-1.721.311-2.819.311s-2.095-.202-2.82-.311c-.796-.12-1.213-.12-1.511.008-1.024.435-1.664 1.044-2.064 1.768-.409.742-.605 1.68-.605 2.82 0 1.7.96 3.78 2.423 5.471C8.906 18.971 10.653 20 12 20s3.094-1.03 4.577-2.744C18.041 15.565 19 13.485 19 11.784m2 0c0 2.35-1.263 4.877-2.91 6.78C16.462 20.447 14.21 22 12 22s-4.462-1.554-6.09-3.435C4.263 16.66 3 14.133 3 11.785c0-1.353.23-2.655.854-3.786.633-1.148 1.632-2.048 3.032-2.643.878-.374 1.823-.261 2.593-.145.844.128 1.62.29 2.521.29.902 0 1.677-.162 2.52-.29.77-.116 1.716-.229 2.594.145 1.4.595 2.4 1.495 3.032 2.643.624 1.131.854 2.433.854 3.785"/><path fill="#090404" d="M6.488 1.793c.784-.113 2.157-.011 3.406.395 1.202.39 2.703 1.204 3.08 2.812a1 1 0 0 1-1.92.555l-.056-.198c-.169-.49-.736-.947-1.723-1.267a7.2 7.2 0 0 0-2.107-.34c.285.547.793 1.15.965 1.35a1 1 0 0 1-1.52 1.3c-.16-.186-.82-.956-1.225-1.739-.185-.357-.429-.921-.358-1.5a1.5 1.5 0 0 1 .5-.957c.288-.253.636-.365.958-.41z"/><path fill="#090404" d="M17.512 1.793c-.784-.113-2.157-.011-3.405.395-1.203.39-2.704 1.204-3.08 2.812a1 1 0 0 0 1.918.555l.057-.198c.169-.49.736-.947 1.723-1.267a7.2 7.2 0 0 1 2.107-.34c-.285.547-.793 1.15-.965 1.35a1 1 0 0 0 1.52 1.3c.16-.186.82-.956 1.225-1.739.185-.357.429-.921.358-1.5a1.5 1.5 0 0 0-.5-.957c-.288-.253-.636-.365-.958-.41z"/><path fill="#090404" d="M11 4.25V2a1 1 0 1 1 2 0v2.25a1 1 0 1 1-2 0"/></svg>