<svg xmlns="http://www.w3.org/2000/svg" fill="none" viewBox="0 0 24 24"><path fill="#090404" d="M13.25 10.75a1.25 1.25 0 1 0-2.5 0 1.25 1.25 0 0 0 2.5 0m2 0a3.25 3.25 0 1 1-6.5 0 3.25 3.25 0 0 1 6.5 0"/><path fill="#090404" d="M4 6v12h16V6zm18 12a2 2 0 0 1-2 2H4a2 2 0 0 1-2-2V6a2 2 0 0 1 2-2h16a2 2 0 0 1 2 2z"/><path fill="#090404" d="M12 14.5c2.502 0 4.396 1.6 4.893 3.777a1 1 0 0 1-1.949.446C14.657 17.465 13.58 16.5 12 16.5c-1.58 0-2.656.965-2.943 2.223a1 1 0 1 1-1.95-.446C7.604 16.1 9.497 14.5 12 14.5"/><path fill="#090404" d="M17.75 7a1.25 1.25 0 1 1 0 2.5 1.25 1.25 0 0 1 0-2.5"/></svg>