<svg xmlns="http://www.w3.org/2000/svg" fill="none" viewBox="0 0 24 24"><path fill="#090404" d="M21 11a1 1 0 1 1 0 2H3a1 1 0 1 1 0-2z"/><path fill="#090404" d="M5.826 16.047a1 1 0 0 1 1.257.65c.157.492.513 1.32 1.249 2.017C9.044 19.389 10.172 20 12 20c3.5 0 4.75-2.204 4.75-3.5a3 3 0 0 0-.022-.386 1 1 0 0 1 1.986-.228q.035.299.036.614c0 2.502-2.25 5.5-6.75 5.5-2.334 0-3.955-.803-5.043-1.835a6.86 6.86 0 0 1-1.78-2.861 1 1 0 0 1 .649-1.257M5.5 7.5c0-1.197.468-2.578 1.538-3.664C8.125 2.733 9.77 2 12 2c2.334 0 3.9.805 4.909 1.874.98 1.038 1.352 2.237 1.495 2.922a1 1 0 0 1-1.958.408c-.102-.487-.361-1.288-.992-1.957C14.85 4.61 13.827 4 12 4c-1.77 0-2.876.568-3.539 1.24-.68.69-.961 1.558-.961 2.26 0 .577.13.998.327 1.327.2.335.503.628.92.894.875.556 2.09.9 3.51 1.279a1 1 0 0 1-.515 1.933c-1.35-.36-2.885-.772-4.069-1.525-.61-.388-1.164-.89-1.562-1.554C5.709 9.184 5.5 8.401 5.5 7.5"/></svg>