<svg xmlns="http://www.w3.org/2000/svg" fill="none" viewBox="0 0 24 24"><path fill="#090404" d="M11.327 8.113a.75.75 0 0 1 1.345 0l.696 1.41a.75.75 0 0 0 .564.41l1.556.226a.75.75 0 0 1 .416 1.28l-1.126 1.097a.75.75 0 0 0-.216.664l.266 1.55a.75.75 0 0 1-1.088.79l-1.392-.731a.75.75 0 0 0-.698 0l-1.391.731a.75.75 0 0 1-1.089-.79l.266-1.55a.75.75 0 0 0-.216-.664l-1.126-1.098a.75.75 0 0 1 .416-1.279l1.556-.226a.75.75 0 0 0 .565-.41z"/><path fill="#090404" d="M10.61 1.954a2 2 0 0 1 2.781 0l1.426 1.379 1.964-.278a2 2 0 0 1 2.25 1.635l.343 1.953 1.751.93a2 2 0 0 1 .86 2.646l-.871 1.78.87 1.783a2 2 0 0 1-.859 2.645l-1.751.93-.343 1.953a2 2 0 0 1-2.25 1.635l-1.964-.278-1.426 1.379a2 2 0 0 1-2.781 0l-1.426-1.38-1.964.28a2 2 0 0 1-2.25-1.636l-.343-1.954-1.752-.93a2 2 0 0 1-.859-2.644L2.887 12l-.871-1.781a2 2 0 0 1 .86-2.646l1.751-.93.343-1.953a2 2 0 0 1 2.25-1.635l1.964.278zm-.035 2.816a2 2 0 0 1-1.671.543L6.94 5.036l-.343 1.953A2 2 0 0 1 5.565 8.41l-1.752.93.871 1.782a2 2 0 0 1 0 1.757l-.871 1.781 1.752.93c.545.289.926.814 1.033 1.422l.343 1.953 1.963-.278a2 2 0 0 1 1.67.542L12 20.61l1.426-1.38a2 2 0 0 1 1.671-.542l1.963.278.343-1.953a2 2 0 0 1 1.033-1.422l1.752-.93-.871-1.781a2 2 0 0 1 0-1.757l.87-1.782-1.751-.93a2 2 0 0 1-1.033-1.42l-.343-1.954-1.963.277a2 2 0 0 1-1.67-.543L12 3.391z"/></svg>