<svg xmlns="http://www.w3.org/2000/svg" fill="none" viewBox="0 0 24 24"><path fill="#090404" d="M10.984 2.396a1.5 1.5 0 0 1 2.032 0l.118.12 1.701 1.959 2.563-.407a1.5 1.5 0 0 1 1.736 1.457l.045 2.594 2.223 1.336c.783.47.97 1.524.395 2.233l-1.634 2.015.846 2.453a1.5 1.5 0 0 1-1.134 1.963l-2.547.494-.928 2.423a1.502 1.502 0 0 1-2.131.776L12 20.552l-2.269 1.26a1.5 1.5 0 0 1-2.13-.776l-.93-2.422-2.546-.495a1.5 1.5 0 0 1-1.133-1.963l.845-2.453-1.633-2.015a1.502 1.502 0 0 1 .394-2.233L4.82 8.12l.045-2.594c.016-.912.835-1.6 1.737-1.457l2.561.407 1.703-1.958zm-.49 3.6c-.34.39-.857.58-1.369.498l-2.27-.36-.039 2.297a1.5 1.5 0 0 1-.727 1.261l-1.97 1.182 1.446 1.785c.327.403.422.945.253 1.435l-.749 2.17 2.256.44c.445.086.823.367 1.035.76l.08.176.823 2.144 2.01-1.114.173-.082a1.5 1.5 0 0 1 1.109 0l.174.082 2.008 1.113.823-2.143.08-.176c.213-.393.591-.674 1.036-.76l2.254-.44-.747-2.17a1.5 1.5 0 0 1 .253-1.435l1.445-1.785-1.969-1.182a1.5 1.5 0 0 1-.728-1.261l-.04-2.297-2.269.36a1.5 1.5 0 0 1-1.368-.499L12 4.261z"/><path fill="#090404" d="M13.793 9.793a1 1 0 1 1 1.414 1.414l-3.5 3.5a1 1 0 0 1-1.414 0l-1.5-1.5a1 1 0 1 1 1.414-1.414l.793.793z"/></svg>