<svg xmlns="http://www.w3.org/2000/svg" fill="none" viewBox="0 0 24 24"><path fill="#090404" d="M10 4v1a2 2 0 0 1-2 2H5v12h14V7h-3a2 2 0 0 1-2-2V4zm6 1h3a2 2 0 0 1 2 2v12a2 2 0 0 1-2 2H5a2 2 0 0 1-2-2V7a2 2 0 0 1 2-2h3V4a2 2 0 0 1 2-2h4a2 2 0 0 1 2 2z"/><path fill="#090404" d="M16 21v-1a1 1 0 1 1 2 0v1a1 1 0 1 1-2 0"/><path fill="#090404" d="M6 21v-1a1 1 0 1 1 2 0v1a1 1 0 1 1-2 0"/><path fill="#090404" d="M15 5a1 1 0 1 1 0 2H9a1 1 0 0 1 0-2z"/><path fill="#090404" d="M8 16v-6a1 1 0 0 1 2 0v6a1 1 0 1 1-2 0"/><path fill="#090404" d="M14 16v-6a1 1 0 1 1 2 0v6a1 1 0 1 1-2 0"/></svg>