<svg xmlns="http://www.w3.org/2000/svg" fill="none" viewBox="0 0 24 24"><path fill="#090404" d="M15.5 17a2.5 2.5 0 0 0 2.466-2.088c.043-.261-.072-.518-.26-.705l-1.913-1.914c-.188-.188-.444-.303-.706-.26A2.5 2.5 0 0 0 15.5 17"/><path fill="#090404" d="M6.205 12.803a1 1 0 0 1 .598-1.282l2.985-1.086a1 1 0 0 1 1.282.597l.383 1.052a1 1 0 0 1-.598 1.282L7.87 14.452a1 1 0 0 1-1.282-.597z"/><path fill="#090404" d="M4 8v11h16V8zm18 11a2 2 0 0 1-2 2H4a2 2 0 0 1-2-2V8a2 2 0 0 1 2-2h16a2 2 0 0 1 2 2z"/><path fill="#090404" d="M15 4H9v3H7V4a2 2 0 0 1 2-2h6a2 2 0 0 1 2 2v3h-2z"/></svg>