<svg xmlns="http://www.w3.org/2000/svg" fill="none" viewBox="0 0 24 24"><path fill="#090404" d="M7.757 7.758a5.999 5.999 0 1 1 8.485 8.484 5.999 5.999 0 1 1-8.485-8.484m7.07 1.414a4 4 0 1 0-5.656 5.655 4 4 0 0 0 5.657-5.655"/><path fill="#090404" d="M11 21.5V21a1 1 0 1 1 2 0v.5a1 1 0 1 1-2 0m-6.071-3.843a1 1 0 1 1 1.414 1.414l-.354.354a1 1 0 0 1-1.414-1.414zm12.728 0a1 1 0 0 1 1.414 0l.354.354a1 1 0 0 1-1.414 1.414l-.354-.354a1 1 0 0 1 0-1.414M3 11a1 1 0 1 1 0 2h-.5a1 1 0 1 1 0-2zm18.5 0a1 1 0 1 1 0 2H21a1 1 0 1 1 0-2zM4.575 4.575a1 1 0 0 1 1.414 0l.354.354a1 1 0 1 1-1.414 1.414l-.354-.354a1 1 0 0 1 0-1.414m13.436 0a1 1 0 0 1 1.414 1.414l-.354.354a1 1 0 1 1-1.414-1.414zM11 3v-.5a1 1 0 1 1 2 0V3a1 1 0 1 1-2 0"/></svg>