<svg xmlns="http://www.w3.org/2000/svg" fill="none" viewBox="0 0 24 24"><g fill="#090404" clip-path="url(#a)"><path d="M7.757 7.758a5.999 5.999 0 1 1 8.485 8.484 5.999 5.999 0 1 1-8.485-8.484m7.07 1.414a4 4 0 1 0-5.656 5.655 4 4 0 0 0 5.657-5.655"/><path d="M11 23v-2a1 1 0 1 1 2 0v2a1 1 0 1 1-2 0m-6.071-5.343a1 1 0 1 1 1.414 1.414l-1.414 1.414a1 1 0 0 1-1.414-1.414zm12.728 0a1 1 0 0 1 1.414 0l1.414 1.414a1 1 0 0 1-1.414 1.414l-1.414-1.414a1 1 0 0 1 0-1.414M3 11a1 1 0 1 1 0 2H1a1 1 0 1 1 0-2zm20 0a1 1 0 1 1 0 2h-2a1 1 0 1 1 0-2zM3.515 3.515a1 1 0 0 1 1.414 0l1.414 1.414a1 1 0 1 1-1.414 1.414L3.515 4.929a1 1 0 0 1 0-1.414m15.556 0a1 1 0 0 1 1.414 1.414l-1.414 1.414a1 1 0 1 1-1.414-1.414zM11 3V1a1 1 0 1 1 2 0v2a1 1 0 1 1-2 0"/></g><defs><clipPath id="a"><path fill="#fff" d="M0 0h24v24H0z"/></clipPath></defs></svg>