<svg xmlns="http://www.w3.org/2000/svg" fill="none" viewBox="0 0 24 24"><path fill="#090404" d="M17.333 17.963a1 1 0 0 1 1.334 1.49 9.97 9.97 0 0 1-5.557 2.486 1 1 0 1 1-.22-1.988 7.97 7.97 0 0 0 4.443-1.988M7.05 15.535a1 1 0 0 1 1.414 0A4.98 4.98 0 0 0 12 17a1 1 0 0 1 0 2 6.98 6.98 0 0 1-4.95-2.05 1 1 0 0 1 0-1.415m-4.105-3.53a1 1 0 0 1 1.104.885 7.96 7.96 0 0 0 1.729 4.138 1 1 0 0 1-1.555 1.258A9.96 9.96 0 0 1 2.06 13.11a1 1 0 0 1 .884-1.104M17 12a4.98 4.98 0 0 0-1.25-3.308 1 1 0 1 1 1.5-1.323A6.98 6.98 0 0 1 19 12a6.98 6.98 0 0 1-1.75 4.63 1 1 0 0 1-1.5-1.323A4.98 4.98 0 0 0 17 12m-9 0a3.99 3.99 0 0 1 2.666-3.772 1 1 0 0 1 .667 1.885A2 2 0 0 0 10 12c0 .553.223 1.051.586 1.414S11.448 14 12 14a2.001 2.001 0 0 0 1.886-1.333 1 1 0 0 1 1.886.666 4.003 4.003 0 0 1-6.6 1.495A4 4 0 0 1 8 12m-3 0c0-1.933.784-3.684 2.05-4.95a1 1 0 0 1 1.414 1.414A4.98 4.98 0 0 0 7 12a1 1 0 0 1-2 0m13.041-6.745a1 1 0 0 1 1.412.078 9.97 9.97 0 0 1 2.486 5.558 1 1 0 1 1-1.988.218 7.97 7.97 0 0 0-1.988-4.442 1 1 0 0 1 .078-1.412M10.89 2.06a1 1 0 0 1 .22 1.988 7.97 7.97 0 0 0-4.443 1.987 1 1 0 0 1-1.334-1.49A9.97 9.97 0 0 1 10.89 2.06"/></svg>