<svg xmlns="http://www.w3.org/2000/svg" fill="none" viewBox="0 0 24 24"><path fill="#090404" d="M12 2c5.523 0 10 4.477 10 10a1 1 0 0 1-1 1h-4.1a5 5 0 0 1-.73 1.756l2.901 2.901a1 1 0 0 1 0 1.414A9.97 9.97 0 0 1 12 22a9.97 9.97 0 0 1-7.071-2.929A9.97 9.97 0 0 1 2 12a9.97 9.97 0 0 1 2.929-7.071 1 1 0 0 1 1.414 0l2.9 2.9A5 5 0 0 1 11 7.1V3a1 1 0 0 1 1-1M7.095 18.318A7.95 7.95 0 0 0 11 19.935V16.9a5 5 0 0 1-1.757-.73zm7.66-2.148c-.524.347-1.117.6-1.755.73v3.036a7.95 7.95 0 0 0 3.904-1.618zM13 7.1a5.01 5.01 0 0 1 3.9 3.9h3.036A8 8 0 0 0 13 4.063zM4 12a7.96 7.96 0 0 0 1.68 4.904l2.15-2.148A5 5 0 0 1 7 12c0-1.019.306-1.967.83-2.757L5.68 7.095A7.96 7.96 0 0 0 4 12m5 0c0 .829.335 1.577.879 2.121A2.99 2.99 0 0 0 12 15c.829 0 1.577-.335 2.121-.879A3 3 0 1 0 9 12"/></svg>