<svg xmlns="http://www.w3.org/2000/svg" fill="none" viewBox="0 0 24 24"><path fill="#090404" d="M11 4V3a1 1 0 1 1 2 0v1a1 1 0 1 1-2 0"/><path fill="#090404" d="M4 11a1 1 0 1 1 0 2H3a1 1 0 1 1 0-2z"/><path fill="#090404" d="M21 11a1 1 0 1 1 0 2h-1a1 1 0 1 1 0-2z"/><path fill="#090404" d="M17.656 4.929a1 1 0 1 1 1.414 1.414l-.707.707a1 1 0 1 1-1.414-1.414z"/><path fill="#090404" d="M21 15a1 1 0 1 1 0 2H3a1 1 0 1 1 0-2z"/><path fill="#090404" d="M17 19a1 1 0 1 1 0 2H7a1 1 0 1 1 0-2z"/><path fill="#090404" d="M4.934 4.929a1 1 0 0 1 1.414 0l.707.707A1 1 0 1 1 5.64 7.05l-.707-.707a1 1 0 0 1 0-1.414"/><path fill="#090404" d="M15 12a3 3 0 1 0-6 0 1 1 0 1 1-2 0 5 5 0 0 1 10 0 1 1 0 1 1-2 0"/></svg>