<svg xmlns="http://www.w3.org/2000/svg" fill="none" viewBox="0 0 24 24"><path fill="#090404" d="M21 19a1 1 0 1 1 0 2H3a1 1 0 1 1 0-2z"/><path fill="#090404" d="M11 8V4a1 1 0 1 1 2 0v4a1 1 0 1 1-2 0"/><path fill="#090404" d="M15 16a3 3 0 1 0-6 0 1 1 0 1 1-2 0 5 5 0 0 1 10 0 1 1 0 1 1-2 0"/><path fill="#090404" d="M4 15a1 1 0 1 1 0 2H3a1 1 0 1 1 0-2z"/><path fill="#090404" d="M21 15a1 1 0 1 1 0 2h-1a1 1 0 1 1 0-2z"/><path fill="#090404" d="M18.248 9.45a1 1 0 0 1 1.286 1.53l-.767.644a1 1 0 0 1-1.285-1.532z"/><path fill="#090404" d="M4.343 9.572a1 1 0 0 1 1.409-.123l.766.643a1 1 0 0 1-1.286 1.532l-.766-.643a1 1 0 0 1-.123-1.409"/><path fill="#090404" d="M11.37 1.225a1 1 0 0 1 1.337.068l3 3a1 1 0 1 1-1.414 1.414L12 3.414 9.707 5.707a1 1 0 1 1-1.414-1.414l3-3z"/></svg>