<svg xmlns="http://www.w3.org/2000/svg" fill="none" viewBox="0 0 24 24"><path fill="#090404" d="M20 5.93c0-.548-.379-.93-.995-.93-.494 0-.8.267-.933.665a1 1 0 0 1-1.896-.635C16.554 3.9 17.566 3 19.005 3 20.598 3 22 4.153 22 5.93c0 .836-.447 1.503-.883 1.986-.44.488-1.01.94-1.493 1.324-.345.276-.65.524-.907.76H21a1 1 0 1 1 0 2h-4a1 1 0 0 1-1-1c0-.837.444-1.505.88-1.992.442-.492 1.013-.944 1.496-1.33.518-.413.947-.759 1.257-1.102.314-.348.367-.547.367-.645"/><path fill="#090404" d="M12.232 5.36a1.001 1.001 0 0 1 1.537 1.28L9.302 12l4.467 5.36a1 1 0 0 1-1.537 1.28L8 13.563 3.77 18.641a1.001 1.001 0 0 1-1.537-1.282L6.698 12 2.232 6.642a1.001 1.001 0 0 1 1.537-1.282L8 10.436z"/></svg>