<svg xmlns="http://www.w3.org/2000/svg" fill="none" viewBox="0 0 24 24"><path fill="#090404" d="M6 9a1 1 0 0 1 1 1v6.5a1 1 0 0 1-1 1H4.5A2.5 2.5 0 0 1 2 15v-3.5A2.5 2.5 0 0 1 4.5 9zm-2 6a.5.5 0 0 0 .5.5H5V11h-.5a.5.5 0 0 0-.5.5z"/><path fill="#090404" d="M20.5 11.5a.5.5 0 0 0-.5-.5h-.5v4.5h.5a.5.5 0 0 0 .5-.5zm2 3.5a2.5 2.5 0 0 1-2.5 2.5h-1.5a1 1 0 0 1-1-1V10a1 1 0 0 1 1-1H20a2.5 2.5 0 0 1 2.5 2.5z"/><path fill="#090404" d="M18.5 9.75C18.5 6.64 15.77 4 12.25 4S6 6.64 6 9.75V10H4v-.25C4 5.404 7.762 2 12.25 2s8.25 3.404 8.25 7.75V10h-2z"/><path fill="#090404" d="M18.75 16.5a1 1 0 1 1 2 0 5.5 5.5 0 0 1-5.5 5.5H13.5a2.5 2.5 0 0 1-2.5-2.5V19a1 1 0 1 1 2 0v.5a.5.5 0 0 0 .5.5h1.75a3.5 3.5 0 0 0 3.5-3.5"/></svg>