<svg xmlns="http://www.w3.org/2000/svg" fill="none" viewBox="0 0 24 24"><path fill="#090404" d="M16.6 5.25a1.35 1.35 0 1 0-2.699 0 1.35 1.35 0 0 0 2.699 0m1.8 0a3.15 3.15 0 1 1-6.3 0 3.15 3.15 0 0 1 6.3 0"/><path fill="#090404" d="M18 19.1c.3 0 .582.15.749.401.286.428.765.615 1.309.665a3.6 3.6 0 0 0 .94-.043l.005-.002a.9.9 0 0 1 .396 1.757L21.2 21l.198.878h-.005q-.004.002-.01.003l-.03.007a4 4 0 0 1-.417.062 5.4 5.4 0 0 1-1.044.009c-.57-.053-1.296-.227-1.925-.701-.28.184-.583.327-.886.434a6.4 6.4 0 0 1-2.081.333 6.4 6.4 0 0 1-2.081-.333 4 4 0 0 1-.92-.455 4 4 0 0 1-.918.455A6.4 6.4 0 0 1 9 22.025a6.4 6.4 0 0 1-2.081-.333 4 4 0 0 1-.887-.434c-.63.474-1.355.648-1.925.701a5.4 5.4 0 0 1-1.46-.071l-.03-.007-.01-.002-.003-.001H2.6a.9.9 0 0 1 .395-1.757l.007.002.047.009q.069.013.204.027c.18.02.424.031.687.007.544-.05 1.024-.236 1.31-.665l.067-.089a.9.9 0 0 1 1.431.089c.101.152.338.342.77.494.418.148.94.23 1.481.23s1.063-.082 1.482-.23c.431-.152.668-.342.769-.494l.067-.089a.9.9 0 0 1 1.431.089c.101.152.338.342.77.494.418.148.94.23 1.481.23s1.063-.082 1.482-.23c.431-.152.668-.342.769-.494l.067-.089A.9.9 0 0 1 18 19.1"/><path fill="#090404" d="M5.718 12.662c.745-.14 1.556-.03 2.346.206 1.581.474 3.345 1.535 4.916 2.808 1.577 1.277 3.035 2.83 3.975 4.352a.9.9 0 1 1-1.532.945c-.806-1.306-2.111-2.712-3.576-3.899-1.47-1.19-3.026-2.1-4.3-2.481-.637-.19-1.137-.23-1.495-.162-.324.06-.537.206-.688.46-.172.29-.312.807-.266 1.683.046.869.27 2.017.748 3.497a.9.9 0 1 1-1.713.552c-.505-1.567-.776-2.877-.833-3.954-.056-1.07.095-1.987.516-2.696.442-.744 1.124-1.164 1.902-1.31"/><path fill="#090404" d="M8.6 13.556c0-.526.143-1.042.414-1.493l.382-.637a6.5 6.5 0 0 0-.913.238c-1.3.43-2.883-.452-2.883-2 0-.725.387-1.42 1.055-1.776 1.145-.611 2.49-1.195 3.886-1.49 1.396-.296 2.9-.315 4.307.274.719.3 1.188.693 1.588 1.08.41.397.669.698 1.11 1.034.653.498 1.73 1.021 2.607 1.402 1.08.467 1.641 1.743 1.14 2.868a2.117 2.117 0 0 1-2.7 1.113l-2.655-1.032-.343.686 1.85 1.85a2.9 2.9 0 0 1 .826 2.411l-.268 2.154-.894-.111-.892-.112.268-2.154a1.1 1.1 0 0 0-.313-.915l-2.309-2.307a.9.9 0 0 1-.168-1.04l1-2 .042-.075a.9.9 0 0 1 1.09-.36l3.417 1.327a.32.32 0 0 0 .405-.167c.072-.16 0-.392-.212-.484-.882-.383-2.139-.979-2.983-1.622-.553-.422-.968-.88-1.27-1.172-.314-.303-.598-.532-1.032-.714-.963-.403-2.068-.422-3.238-.174s-2.351.751-3.412 1.318a.21.21 0 0 0-.102.188c0 .083.04.17.144.238a.44.44 0 0 0 .375.053c.462-.153.993-.297 1.488-.349a9 9 0 0 1 1.084-.027c.16.004.3.01.4.016l.12.006.035.002h.013a.9.9 0 0 1 .713 1.362l-1.215 2.025a1.1 1.1 0 0 0-.157.566v.446H8.6z"/></svg>