<svg xmlns="http://www.w3.org/2000/svg" fill="none" viewBox="0 0 24 24"><path fill="#090404" d="M3 17v-3.5h2V17a1 1 0 0 0 1 1h12a1 1 0 0 0 1-1v-3.5h2V17a3 3 0 0 1-3 3H6a3 3 0 0 1-3-3"/><path fill="#090404" d="M9.306 12.595c-.91.292-1.78.747-2.6 1.234-.755.448-1.624 1.024-2.247 1.366-.333.182-.694.355-1.052.453-.351.095-.833.154-1.31-.07-.5-.235-.772-.676-.912-1.103-.137-.415-.185-.91-.185-1.453 0-4.595 3.414-7.69 7.78-8.673L9.22 6.3C5.472 7.144 3 9.634 3 13.022c0 .289.019.496.042.64.117-.048.267-.118.456-.221.62-.34 1.248-.775 2.187-1.331.872-.518 1.89-1.06 3.01-1.42zm6-1.904c1.118.36 2.138.901 3.01 1.419.938.556 1.566.991 2.186 1.33.188.104.338.174.455.221.023-.143.043-.35.043-.64 0-3.387-2.472-5.877-6.22-6.721l.44-1.951c4.366.983 7.78 4.078 7.78 8.673 0 .543-.048 1.038-.185 1.453-.14.427-.412.868-.913 1.103-.476.224-.958.165-1.31.07-.357-.098-.718-.271-1.051-.453-.623-.341-1.492-.918-2.246-1.366-.82-.487-1.69-.942-2.6-1.234z"/><path fill="#090404" d="M16 20h-2V5.151q-.963-.15-2-.151-1.037 0-2 .151V20H8V5.124c0-.92.643-1.78 1.627-1.938l.58-.082Q11.086 3 12 3c.812 0 1.607.063 2.373.186C15.357 3.344 16 4.204 16 5.124z"/></svg>