<svg xmlns="http://www.w3.org/2000/svg" fill="none" viewBox="0 0 24 24"><path fill="#090404" d="M7.57 12.978V8.88a.571.571 0 0 0-.976-.405l-2.05 2.05a.57.57 0 0 0 0 .808l2.05 2.049c.36.36.975.105.975-.404"/><path fill="#090404" d="M6.43 20.549V16.45c0-.51.616-.764.976-.404l2.05 2.049a.57.57 0 0 1 0 .808l-2.05 2.049a.571.571 0 0 1-.975-.404"/><path fill="#090404" d="M20 11V9a1 1 0 1 1 2 0v2a1 1 0 1 1-2 0"/><path fill="#090404" d="M16.5 16V4a1 1 0 1 1 2 0v12a1 1 0 1 1-2 0"/><path fill="#090404" d="M13 11V7a1 1 0 1 1 2 0v4a1 1 0 1 1-2 0"/><path fill="#090404" d="M9.5 7.5V5a1 1 0 0 1 2 0v2.5a1 1 0 1 1-2 0"/><path fill="#090404" d="M2.286 14.75a.964.964 0 1 1 1.928 0A2.786 2.786 0 0 0 7 17.536a.964.964 0 1 1 0 1.928 4.714 4.714 0 0 1-4.714-4.714m7.5 0A2.786 2.786 0 0 0 7 11.964a.964.964 0 1 1 0-1.928 4.714 4.714 0 0 1 4.714 4.714.964.964 0 1 1-1.928 0"/></svg>