<svg xmlns="http://www.w3.org/2000/svg" fill="none" viewBox="0 0 24 24"><path fill="#090404" d="M19 5h-4.514l-5.2 6.618-1.572-1.236 5.2-6.617c.378-.483.959-.765 1.572-.765H19a2 2 0 0 1 2 2v4.514c0 .613-.282 1.194-.765 1.573l-6.617 5.2-1.236-1.573L19 9.514z"/><path fill="#090404" d="M5.021 9.748a2 2 0 0 1 2.976-.165l6.42 6.42a2 2 0 0 1-.165 2.976l-1.057.845a2 2 0 0 1-2.358.103l-1.71-1.14L6.414 21.5a2 2 0 0 1-2.828 0L2.5 20.414a2 2 0 0 1 0-2.828l2.713-2.713-1.14-1.71a2 2 0 0 1 .103-2.358zm.716 2.306 1.14 1.709c.529.793.424 1.85-.25 2.524L3.914 19 5 20.086l2.713-2.713a2 2 0 0 1 2.524-.25l1.71 1.14 1.056-.846-6.42-6.42z"/></svg>