<svg xmlns="http://www.w3.org/2000/svg" fill="none" viewBox="0 0 24 24"><path fill="#090404" d="M8 17.5a1.5 1.5 0 1 0-3 0 1.5 1.5 0 0 0 3 0m2 0a3.5 3.5 0 1 1-7 0 3.5 3.5 0 0 1 7 0"/><path fill="#090404" d="M7.293 5.293a1 1 0 1 1 1.414 1.414L7.414 8l1.293 1.293a1 1 0 1 1-1.414 1.414L6 9.414l-1.293 1.293a1 1 0 1 1-1.414-1.414L4.586 8 3.293 6.707a1 1 0 1 1 1.414-1.414L6 6.586z"/><path fill="#090404" d="M19.293 15.293a1 1 0 1 1 1.414 1.414L19.414 18l1.293 1.293a1 1 0 1 1-1.414 1.414L18 19.414l-1.293 1.293a1 1 0 0 1-1.414-1.414L16.586 18l-1.293-1.293a1 1 0 1 1 1.414-1.414L18 16.586z"/><path fill="#090404" d="M15.804 3.02a1 1 0 0 1 .75.148l3 2a1 1 0 1 1-1.109 1.664l-2.168-1.445-1.445 2.168a1 1 0 1 1-1.664-1.11l2-3 .059-.079a1 1 0 0 1 .577-.346"/><path fill="#090404" d="M15.888 4.568a1 1 0 0 1 1.294.57c1.039 2.67.195 4.798-1.07 6.315-1.21 1.453-2.874 2.423-3.557 2.879a1 1 0 1 1-1.11-1.664c.817-.544 2.154-1.324 3.13-2.496.924-1.108 1.455-2.481.743-4.31a1 1 0 0 1 .57-1.294"/></svg>