<svg xmlns="http://www.w3.org/2000/svg" fill="none" viewBox="0 0 24 24"><path fill="#090404" d="M7 18a1 1 0 1 0-2 0 1 1 0 0 0 2 0m2 0a3 3 0 1 1-6 0 3 3 0 0 1 6 0"/><path fill="#090404" d="M7.043 3.543a1 1 0 1 1 1.414 1.414L7.414 6l1.043 1.043a1 1 0 1 1-1.414 1.414L6 7.414 4.957 8.457a1 1 0 1 1-1.414-1.414L4.586 6 3.543 4.957a1 1 0 1 1 1.414-1.414L6 4.586z"/><path fill="#090404" d="M19.043 15.543a1 1 0 1 1 1.414 1.414L19.414 18l1.043 1.043a1 1 0 1 1-1.414 1.414L18 19.414l-1.043 1.043a1 1 0 0 1-1.414-1.414L16.586 18l-1.043-1.043a1 1 0 1 1 1.414-1.414L18 16.586z"/><path fill="#090404" d="M11 17V7a2 2 0 0 1 2-2h6a1 1 0 1 1 0 2h-6v10a2 2 0 0 1-2 2H8a1 1 0 1 1 0-2z"/><path fill="#090404" d="M17.293 3.293a1 1 0 0 1 1.414 0l2 2a1 1 0 0 1 0 1.414l-2 2a1 1 0 1 1-1.414-1.414L18.586 6l-1.293-1.293a1 1 0 0 1 0-1.414"/></svg>