<svg xmlns="http://www.w3.org/2000/svg" fill="none" viewBox="0 0 24 24"><path fill="#090404" d="M12.22 4.22c1.92-1.92 5.086-1.449 7.047.512 1.962 1.962 2.433 5.128.513 7.048s-5.087 1.449-7.048-.512S10.3 6.14 12.22 4.22m5.633 1.926c-1.433-1.432-3.31-1.42-4.219-.511-.908.908-.92 2.786.512 4.219 1.433 1.432 3.31 1.42 4.219.511.908-.908.92-2.786-.512-4.219"/><path fill="#090404" d="M19.793 2.793a1 1 0 1 1 1.414 1.414l-1.5 1.5a1 1 0 1 1-1.414-1.414z"/><path fill="#090404" d="M4.793 17.793a1 1 0 1 1 1.414 1.414l-2 2a1 1 0 1 1-1.414-1.414z"/><path fill="#090404" d="M7.134 9.99a2 2 0 0 1 2.822.007l4.047 4.047a2 2 0 0 1 .006 2.821l-3.592 3.625a2 2 0 0 1-2.835.007l-4.08-4.08a2 2 0 0 1 .007-2.834l.548-.543.12-.103a1 1 0 0 1 1.024-.085h-.002l-.003-.002-.003-.002.015.006q.028.013.095.037c.09.03.211.063.344.078.27.03.485-.018.653-.183.164-.161.217-.373.19-.651a1.7 1.7 0 0 0-.11-.453l-.002-.008a1 1 0 0 1 .202-1.134zm1.282 1.544c.026.124.05.26.064.407.06.622-.028 1.535-.78 2.273-.75.734-1.656.811-2.275.742a4 4 0 0 1-.393-.068l-.115.115 4.08 4.08 3.592-3.625-4.047-4.047z"/><path fill="#090404" d="M12.293 10.293a1 1 0 1 1 1.414 1.414l-1 1a1 1 0 0 1-1.414-1.414z"/><path fill="#090404" d="M9.995 18.148a1 1 0 0 0-1.99 0l-.01.204A1 1 0 0 1 6 18.25a3 3 0 1 1 6 0 1 1 0 0 1-1.995.102z"/></svg>