<svg xmlns="http://www.w3.org/2000/svg" fill="none" viewBox="0 0 24 24"><path fill="#090404" d="M3 6v12h18V6zm20 12a2 2 0 0 1-2 2H3a2 2 0 0 1-2-2V6a2 2 0 0 1 2-2h18a2 2 0 0 1 2 2z"/><path fill="#090404" d="M6.379 9.879a3 3 0 1 1 4.242 4.241A3 3 0 0 1 6.379 9.88m2.828 1.414a1 1 0 1 0-1.414 1.414 1 1 0 0 0 1.414-1.414"/><path fill="#090404" d="M13.379 9.879a3 3 0 1 1 4.242 4.241 3 3 0 0 1-4.242-4.241m2.828 1.414a1 1 0 1 0-1.414 1.414 1 1 0 0 0 1.414-1.414"/><path fill="#090404" d="M15.5 13a1 1 0 1 1 0 2h-7a1 1 0 1 1 0-2z"/></svg>