<svg xmlns="http://www.w3.org/2000/svg" fill="none" viewBox="0 0 24 24"><path fill="#090404" d="M4 6v12h16V6zm18 12a2 2 0 0 1-2 2H4a2 2 0 0 1-2-2V6a2 2 0 0 1 2-2h16a2 2 0 0 1 2 2z"/><path fill="#090404" d="M16.5 10.5a1 1 0 0 0-1-1h-7a1 1 0 0 0 0 2h7a1 1 0 0 0 1-1m2 0a3 3 0 0 1-3 3h-7a3 3 0 1 1 0-6h7a3 3 0 0 1 3 3"/><path fill="#090404" d="M16 15a1 1 0 0 1 .895.553l1.5 3A1 1 0 0 1 17.5 20h-11a1 1 0 0 1-.895-1.447l1.5-3 .072-.121A1 1 0 0 1 8 15zm-7.882 3h7.764l-.5-1H8.618z"/><path fill="#090404" d="M9.5 10.5a1 1 0 1 0-2 0 1 1 0 0 0 2 0m2 0a3 3 0 1 1-6 0 3 3 0 0 1 6 0"/><path fill="#090404" d="M16.5 10.5a1 1 0 1 0-2 0 1 1 0 0 0 2 0m2 0a3 3 0 1 1-6 0 3 3 0 0 1 6 0"/></svg>