<svg xmlns="http://www.w3.org/2000/svg" fill="none" viewBox="0 0 24 24"><path fill="#090404" d="M2 12C2 6.477 6.477 2 12 2a1 1 0 1 1 0 2 8 8 0 1 0 8 8 1 1 0 1 1 2 0c0 5.523-4.477 10-10 10S2 17.523 2 12"/><path fill="#090404" d="M6 12a6 6 0 0 1 4.2-5.726 1 1 0 0 1 .6 1.908 4 4 0 1 0 5.018 5.018 1 1 0 1 1 1.908.598A6 6 0 0 1 6 12"/><path fill="#090404" d="M16.635 1.966a1.25 1.25 0 0 1 1.877.444l.064.157.714 2.141 2.143.715a1.25 1.25 0 0 1 .488 2.07L19 10.413a2 2 0 0 1-1.414.586H14a1 1 0 0 1-1-1V6.414a2 2 0 0 1 .586-1.415l2.92-2.92zM15 9h2.586l2.062-2.062-1.464-.488a1 1 0 0 1-.632-.633l-.49-1.466L15 6.414z"/><path fill="#090404" d="M13.293 9.293a1 1 0 1 1 1.414 1.414l-2 2a1 1 0 1 1-1.414-1.414z"/></svg>