<svg xmlns="http://www.w3.org/2000/svg" fill="none" viewBox="0 0 24 24"><path fill="#090404" d="M5 11v3a6 6 0 0 0 12 0v-3zm14 3a8 8 0 1 1-16 0v-3a2 2 0 0 1 2-2h12a2 2 0 0 1 2 2z"/><path fill="#090404" d="M21 12.5a1.5 1.5 0 0 0-1.5-1.5H17a1 1 0 1 1 0-2h2.5a3.5 3.5 0 1 1 0 7H18a1 1 0 1 1 0-2h1.5a1.5 1.5 0 0 0 1.5-1.5"/><path fill="#090404" d="M8.02 2.796a1 1 0 1 1 1.957.408 6.2 6.2 0 0 0 0 2.592 1 1 0 0 1-1.957.408 8.2 8.2 0 0 1 0-3.408"/><path fill="#090404" d="M12.02 2.796a1 1 0 0 1 1.957.408 6.2 6.2 0 0 0 0 2.592 1 1 0 0 1-1.957.408 8.2 8.2 0 0 1 0-3.408"/></svg>