<svg xmlns="http://www.w3.org/2000/svg" fill="none" viewBox="0 0 24 24"><path fill="#090404" d="M18 12a1 1 0 1 0-2 0 1 1 0 0 0 2 0m2 0a3 3 0 1 1-6 0 3 3 0 0 1 6 0"/><path fill="#090404" d="M17.002 15.5c2.174 0 4.091 1.215 4.887 3.035a1.69 1.69 0 0 1-.244 1.769c-.36.44-.914.696-1.498.696h-6.29a1.94 1.94 0 0 1-1.498-.696 1.69 1.69 0 0 1-.244-1.769l.162-.334c.874-1.633 2.686-2.701 4.725-2.701m0 2c-1.285 0-2.34.635-2.876 1.5h5.752c-.536-.865-1.591-1.5-2.876-1.5"/><path fill="#090404" d="M17 6H4v10h5a1 1 0 1 1 0 2H2a1 1 0 1 1 0-2V6a1 1 0 0 1 0-2h17a1 1 0 1 1 0 2 1 1 0 1 1-2 0"/><path fill="#090404" d="M9.5 5V4a1 1 0 0 1 2 0v1a1 1 0 1 1-2 0"/></svg>