<svg xmlns="http://www.w3.org/2000/svg" fill="none" viewBox="0 0 24 24"><path fill="#090404" d="M13.5 7a1.5 1.5 0 1 0-3 0 1.5 1.5 0 0 0 3 0m2 0a3.5 3.5 0 1 1-7 0 3.5 3.5 0 0 1 7 0"/><path fill="#090404" d="M5.5 9a1 1 0 1 0-2 0 1 1 0 0 0 2 0m2 0a3 3 0 1 1-6 0 3 3 0 0 1 6 0"/><path fill="#090404" d="M20.5 9a1 1 0 1 0-2 0 1 1 0 0 0 2 0m2 0a3 3 0 1 1-6 0 3 3 0 0 1 6 0"/><path fill="#090404" d="M16.05 17.5a4.05 4.05 0 1 0-8.1 0v.55h8.1zm1.9.571a1.88 1.88 0 0 1-1.879 1.88H7.93a1.88 1.88 0 0 1-1.88-1.88V17.5a5.95 5.95 0 0 1 11.901 0z"/><path fill="#090404" d="M19.617 13.088a4.95 4.95 0 0 1 4.18 3.688c.33 1.302-.809 2.174-1.797 2.174h-2a.95.95 0 1 1 0-1.9h1.898a3.05 3.05 0 0 0-2.516-2.077.95.95 0 1 1 .235-1.885"/><path fill="#090404" d="M4.383 13.089a.95.95 0 0 1 .235 1.884 3.05 3.05 0 0 0-2.516 2.077H4a.95.95 0 0 1 0 1.9H2c-.989 0-2.128-.873-1.797-2.174l.106-.36a4.95 4.95 0 0 1 4.074-3.328"/></svg>