<svg xmlns="http://www.w3.org/2000/svg" fill="none" viewBox="0 0 24 24"><path fill="#090404" d="M10.955 8.11c-.382.078-.575.426-.374.713.294.42.782.927 1.419.927s1.125-.508 1.42-.927c.2-.287.007-.635-.375-.713a5 5 0 0 0-2.09 0"/><path fill="#090404" d="M8.158 11.46a1 1 0 0 1 1.684 1.08c-.613.954-.932 1.976-.82 3.381a1 1 0 1 1-1.994.158c-.147-1.86.292-3.314 1.13-4.619"/><path fill="#090404" d="M15.842 11.46a1 1 0 0 0-1.684 1.08c.613.954.932 1.976.82 3.381a1 1 0 1 0 1.994.158c.147-1.86-.292-3.314-1.13-4.619"/><path fill="#090404" d="M14.185 18.05a1 1 0 0 1 .63 1.9c-1.928.64-3.7.64-5.63 0a1 1 0 0 1 .63-1.9c1.52.506 2.85.506 4.37 0"/><path fill="#090404" d="M8.5 18.5a1.5 1.5 0 1 0-3 0 1.5 1.5 0 0 0 3 0m2 0a3.5 3.5 0 1 1-7 0 3.5 3.5 0 0 1 7 0"/><path fill="#090404" d="M18.5 18.5a1.5 1.5 0 1 0-3 0 1.5 1.5 0 0 0 3 0m2 0a3.5 3.5 0 1 1-7 0 3.5 3.5 0 0 1 7 0"/><path fill="#090404" d="M19 14.064c0-.524-.325-.993-.816-1.177l-2.535-.95a1.001 1.001 0 0 1 .703-1.874l2.534.952a3.258 3.258 0 0 1 1.16 5.353l-.338.339a1 1 0 1 1-1.415-1.414l.34-.339c.235-.236.367-.556.367-.89"/><path fill="#090404" d="M3 14.064c0-1.357.843-2.573 2.114-3.05l2.534-.95a1 1 0 0 1 .704 1.873l-2.536.95a1.258 1.258 0 0 0-.448 2.067l.339.339a1 1 0 1 1-1.414 1.414l-.339-.339A3.26 3.26 0 0 1 3 14.064"/><path fill="#090404" d="M17 5.5a1.5 1.5 0 0 0-2.332-1.248c-.28.186-.634.22-.943.09A4.45 4.45 0 0 0 12 4c-.621 0-1.205.124-1.725.342-.31.13-.664.096-.943-.09A1.5 1.5 0 0 0 7.601 6.7 1 1 0 0 1 8 7.5C8 9.336 9.69 11 12 11s4-1.664 4-3.5a1 1 0 0 1 .4-.8c.366-.275.6-.71.6-1.2m2 0a3.5 3.5 0 0 1-1.023 2.47C17.714 10.869 15.049 13 12 13s-5.715-2.132-5.978-5.03A3.5 3.5 0 0 1 9.97 2.326a6.5 6.5 0 0 1 4.06 0A3.5 3.5 0 0 1 19 5.5"/></svg>