<svg xmlns="http://www.w3.org/2000/svg" fill="none" viewBox="0 0 24 24"><path fill="#090404" d="M5.792 9.893a1 1 0 1 1 .684 1.878l-3.29 1.198a.5.5 0 0 0-.298.64l.343.94a.5.5 0 0 0 .64.3l3.29-1.198a1 1 0 0 1 .683 1.88l-3.29 1.196a2.5 2.5 0 0 1-3.203-1.494l-.342-.94a2.5 2.5 0 0 1 1.494-3.203z"/><path fill="#090404" d="M11.085 6.9a1 1 0 1 1 .684 1.879l-3.76 1.368a1 1 0 0 0-.597 1.282l.685 1.88a1 1 0 0 0 1.281.597l3.759-1.368a1 1 0 0 1 .684 1.88l-3.758 1.368a3 3 0 0 1-3.846-1.793l-.684-1.88a3 3 0 0 1 1.793-3.845z"/><path fill="#090404" d="M19.198 2.882a1 1 0 0 1 1.283.598l2.736 7.517a1 1 0 0 1-.598 1.282l-6.108 2.223a3.5 3.5 0 0 1-4.485-2.092l-1.027-2.819a3.5 3.5 0 0 1 2.092-4.486zm-5.424 4.103a1.5 1.5 0 0 0-.896 1.921l1.026 2.82a1.5 1.5 0 0 0 1.923.896l5.167-1.88-2.052-5.64z"/><path fill="#090404" d="M10 20v-5.5a1 1 0 1 1 2 0V20a1 1 0 1 1-2 0"/><path fill="#090404" d="M14 19a1 1 0 1 1 0 2H8a1 1 0 1 1 0-2z"/></svg>