<svg xmlns="http://www.w3.org/2000/svg" fill="none" viewBox="0 0 24 24"><path fill="#090404" d="M2.512 10.737q8.86-3.847 11.814-5.073c5.628-2.332 6.796-2.737 7.558-2.75.168-.004.542.038.785.234.203.166.26.39.289.547.025.157.06.515.031.795-.303 3.193-1.623 10.941-2.295 14.518-.281 1.513-.842 2.02-1.383 2.07-1.177.108-2.07-.775-3.21-1.52-1.782-1.165-2.788-1.89-4.52-3.026-2-1.314-.703-2.037.437-3.216.297-.31 5.482-5.01 5.58-5.435.013-.054.026-.252-.094-.357-.117-.105-.292-.07-.418-.04-.18.04-3.026 1.916-8.547 5.629q-1.21.83-2.197.809c-.721-.016-2.114-.408-3.15-.743-1.265-.41-2.275-.628-2.187-1.327q.068-.545 1.507-1.115"/></svg>