<svg xmlns="http://www.w3.org/2000/svg" fill="none" viewBox="0 0 24 24"><path fill="#090404" d="M14 12a9.98 9.98 0 0 1 3.333-7.453l1.334 1.49A7.98 7.98 0 0 0 16 12a7.98 7.98 0 0 0 2.667 5.964l-1.334 1.49A9.98 9.98 0 0 1 14 12"/><path fill="#090404" d="M7.999 12a7.98 7.98 0 0 0-2.667-5.963l1.334-1.49A9.98 9.98 0 0 1 9.999 12a9.98 9.98 0 0 1-3.333 7.454l-1.334-1.49A7.98 7.98 0 0 0 7.999 12"/><path fill="#090404" d="M20 12a8 8 0 1 0-16 0 8 8 0 0 0 16 0m2 0c0 5.523-4.477 10-10 10S2 17.523 2 12 6.477 2 12 2s10 4.477 10 10"/></svg>