<svg xmlns="http://www.w3.org/2000/svg" fill="none" viewBox="0 0 24 24"><path fill="#090404" d="M14.667 19.545a1 1 0 0 1 .666 1.886A10 10 0 0 1 12 22c-1.167 0-2.29-.2-3.333-.57a1 1 0 0 1 .666-1.885c.833.294 1.73.455 2.667.455s1.834-.16 2.667-.455M12.857 1a2 2 0 0 1 1.983 2.265l-.787 5.901a3.5 3.5 0 0 1 1.427 2.472l5.505 2.27a2 2 0 0 1 .97 2.849l-.857 1.486a2 2 0 0 1-2.952.584l-4.718-3.632a3.49 3.49 0 0 1-2.857 0l-4.716 3.632a2 2 0 0 1-2.953-.584l-.857-1.486a2 2 0 0 1 .97-2.849l5.503-2.27a3.5 3.5 0 0 1 1.428-2.473l-.787-5.9A2 2 0 0 1 11.142 1zm-9.08 14.757.858 1.486 4.397-3.387a4 4 0 0 1-.124-.215zM15.09 13.64q-.058.11-.124.214l4.398 3.388.858-1.486zM12 10.5a1.5 1.5 0 1 0-.001 3 1.5 1.5 0 0 0 0-3M5.498 4.398a1 1 0 0 1 1.3 1.52A8 8 0 0 0 5.072 8a8 8 0 0 0-.94 2.537 1 1 0 0 1-1.966-.365A10 10 0 0 1 3.34 7 10 10 0 0 1 5.5 4.398m11.592.11a1 1 0 0 1 1.41-.11A10 10 0 0 1 20.66 7a10 10 0 0 1 1.173 3.17 1 1 0 0 1-1.967.367A8 8 0 0 0 18.927 8 8 8 0 0 0 17.2 5.918a1 1 0 0 1-.11-1.41m-5.216 3.995Q11.937 8.5 12 8.5t.124.003L12.857 3h-1.715z"/></svg>