<svg xmlns="http://www.w3.org/2000/svg" fill="none" viewBox="0 0 24 24"><path fill="#090404" d="M9.504 17v-2a1 1 0 1 1 2 0v2a1 1 0 1 1-2 0"/><path fill="#090404" d="M13.004 20V8a1 1 0 1 1 2 0v12a1 1 0 1 1-2 0"/><path fill="#090404" d="M16.504 17v-6a1 1 0 1 1 2 0v6a1 1 0 1 1-2 0"/><path fill="#090404" d="M20.004 15v-2a1 1 0 1 1 2 0v2a1 1 0 1 1-2 0"/><path fill="#090404" d="M10.004 5.777V5h-2v6h.333a1 1 0 1 1 0 2H5.671a1 1 0 1 1 0-2h.333V5h-2v.777a1 1 0 1 1-2 0V4a1 1 0 0 1 1-1h8a1 1 0 0 1 1 1v1.777a1 1 0 1 1-2 0"/></svg>