<svg xmlns="http://www.w3.org/2000/svg" fill="none" viewBox="0 0 24 24"><path fill="#090404" fill-rule="evenodd" d="M10 11a2 2 0 0 1 2-2h8a2 2 0 0 1 2 2v8a2 2 0 0 1-2 2h-8a2 2 0 0 1-2-2zm5.414 8H20v-.586l-2-2zM20 15.586 19.414 15a2 2 0 0 0-2.828 0l-4 4H12v-8h8z" clip-rule="evenodd"/><path fill="#090404" d="M15.5 13.25a1.25 1.25 0 1 1-2.5 0 1.25 1.25 0 0 1 2.5 0"/><path fill="#090404" fill-rule="evenodd" d="M1 5a2 2 0 0 1 2-2h6a2 2 0 0 1 2 2 1 1 0 1 1-2 0H7v7a1 1 0 1 1 0 2H5a1 1 0 1 1 0-2V5H3a1 1 0 0 1-2 0" clip-rule="evenodd"/><path fill="#090404" d="M20.755 2.158a.285.285 0 0 0-.51 0c-.655 1.308-.779 1.433-2.087 2.087a.285.285 0 0 0 0 .51c1.308.655 1.432.779 2.087 2.087.105.21.405.21.51 0 .655-1.308.779-1.432 2.087-2.087a.285.285 0 0 0 0-.51c-1.308-.655-1.432-.779-2.087-2.087"/><path fill="#090404" d="M15.265 4.163a.296.296 0 0 0-.53 0c-.485.972-.6 1.087-1.571 1.573a.296.296 0 0 0 0 .528c.97.486 1.086.601 1.572 1.573.108.217.42.217.528 0 .486-.972.601-1.087 1.573-1.573a.296.296 0 0 0 0-.528c-.972-.486-1.087-.601-1.572-1.573"/><path fill="#090404" d="M4.755 16.158a.285.285 0 0 0-.51 0c-.655 1.308-.779 1.432-2.087 2.087a.285.285 0 0 0 0 .51c1.308.655 1.432.779 2.087 2.087.105.21.405.21.51 0 .655-1.308.779-1.432 2.087-2.087a.285.285 0 0 0 0-.51c-1.308-.655-1.432-.779-2.087-2.087"/></svg>