<svg xmlns="http://www.w3.org/2000/svg" fill="none" viewBox="0 0 24 24"><path fill="#090404" d="M3 18V7a1 1 0 0 1 2 0v11h8a1 1 0 1 1 0 2H5a2 2 0 0 1-2-2"/><path fill="#090404" d="M19 17V6h-8a1 1 0 1 1 0-2h8a2 2 0 0 1 2 2v11a1 1 0 1 1-2 0"/><path fill="#090404" d="M5 5a1 1 0 1 0-2 0 1 1 0 0 0 2 0m2 0a3 3 0 1 1-6 0 3 3 0 0 1 6 0"/><path fill="#090404" d="M21 19a1 1 0 1 0-2 0 1 1 0 0 0 2 0m2 0a3 3 0 1 1-6 0 3 3 0 0 1 6 0"/><path fill="#090404" d="M15 9a1 1 0 1 1 0 2H9a1 1 0 1 1 0-2z"/><path fill="#090404" d="M13 13a1 1 0 1 1 0 2H9a1 1 0 1 1 0-2z"/></svg>