<svg xmlns="http://www.w3.org/2000/svg" fill="none" viewBox="0 0 24 24"><path fill="#090404" d="M5 6v2h2V6zm4 2a2 2 0 0 1-2 2H5a2 2 0 0 1-2-2V6a2 2 0 0 1 2-2h2a2 2 0 0 1 2 2z"/><path fill="#090404" d="M5 16v2h2v-2zm4 2a2 2 0 0 1-2 2H5a2 2 0 0 1-2-2v-2a2 2 0 0 1 2-2h2a2 2 0 0 1 2 2z"/><path fill="#090404" d="M20 4.5a1 1 0 1 1 0 2h-7a1 1 0 1 1 0-2z"/><path fill="#090404" d="M17 7.5a1 1 0 1 1 0 2h-4a1 1 0 1 1 0-2z"/><path fill="#090404" d="M20 14.5a1 1 0 1 1 0 2h-7a1 1 0 1 1 0-2z"/><path fill="#090404" d="M17 17.5a1 1 0 1 1 0 2h-4a1 1 0 1 1 0-2z"/></svg>