<svg xmlns="http://www.w3.org/2000/svg" fill="none" viewBox="0 0 24 24"><path fill="#090404" d="M20 7.375c0-.222-.087-.557-.294-.992-.2-.42-.477-.86-.77-1.27a14 14 0 0 0-.436-.578c-.14.176-.288.37-.436.577-.293.41-.57.85-.77 1.27-.207.436-.294.771-.294.993C17 8.247 17.74 9 18.5 9S20 8.247 20 7.375m2 0C22 9.21 20.501 11 18.5 11S15 9.21 15 7.375c0-.653.226-1.303.487-1.852.269-.563.618-1.108.95-1.573a17 17 0 0 1 1.215-1.507l.088-.094.025-.027.008-.008.001-.002.001-.001a1 1 0 0 1 1.45 0l.002.003.008.008.025.027.088.094a16.999 16.999 0 0 1 1.216 1.507c.331.465.68 1.01.949 1.573.26.55.487 1.199.487 1.852"/><path fill="#090404" d="M10 4a1 1 0 0 1 .906.577l7 15a1 1 0 0 1-1.812.846L10 7.364 3.907 20.423a1 1 0 0 1-1.813-.846l7-15A1 1 0 0 1 10 4"/><path fill="#090404" d="M14 14a1 1 0 1 1 0 2H6a1 1 0 1 1 0-2z"/></svg>