<svg xmlns="http://www.w3.org/2000/svg" fill="none" viewBox="0 0 24 24"><path fill="#090404" d="M3.5 9.215c0-3.065 2.475-5.558 5.537-5.558q.486 0 .952.082c.115.02.23-.019.303-.088A5.92 5.92 0 0 1 14.4 2c2.963 0 5.414 2.171 5.873 5.008a.28.28 0 0 0 .073.145A5.97 5.97 0 0 1 22 11.286c0 3.294-2.66 5.97-5.95 5.97q-.583 0-1.138-.108a.34.34 0 0 0-.28.075A5.5 5.5 0 0 1 11.1 18.5c-2.808 0-5.12-2.094-5.487-4.805a.33.33 0 0 0-.114-.206A5.56 5.56 0 0 1 3.5 9.215m2 0c0 1.102.497 2.085 1.28 2.738.446.372.737.9.815 1.475A3.545 3.545 0 0 0 11.1 16.5c.856 0 1.64-.305 2.254-.815a2.34 2.34 0 0 1 1.94-.5q.366.071.756.072c2.177 0 3.95-1.774 3.95-3.97a3.97 3.97 0 0 0-1.1-2.752 2.28 2.28 0 0 1-.601-1.208A3.96 3.96 0 0 0 14.4 4a3.92 3.92 0 0 0-2.724 1.096c-.543.52-1.305.74-2.03.614A3.548 3.548 0 0 0 5.5 9.215"/><path fill="#090404" d="M5 20a1 1 0 1 0-2 0 1 1 0 0 0 2 0m2 0a3 3 0 1 1-6 0 3 3 0 0 1 6 0"/></svg>