<svg xmlns="http://www.w3.org/2000/svg" fill="none" viewBox="0 0 24 24"><path fill="#090404" d="M14.862 2.25c2.017 0 4.22-.121 5.297 1.919.398.753.42 1.742.461 3.72l.072 3.357c.022 1.032.033 1.549.022 2.064q-.015.687-.07 1.373c-.04.514-.103 1.027-.229 2.052l-.012.097c-.213 1.74-.32 2.611-.728 3.267-.36.578-.88 1.04-1.498 1.326-.701.326-1.579.326-3.332.326H9.156c-1.754 0-2.63 0-3.332-.326A3.5 3.5 0 0 1 4.326 20.1c-.408-.656-.515-1.527-.728-3.267l-.012-.097c-.126-1.025-.189-1.538-.23-2.052q-.054-.686-.069-1.373c-.011-.515 0-1.032.023-2.064l.07-3.358c.043-1.977.064-2.966.462-3.72C4.92 2.129 7.123 2.252 9.14 2.252zm-6.468 3.5c-1.102 0-1.654 0-2.078.213a2 2 0 0 0-.872.857c-.22.42-.23.971-.25 2.072L5.1 14.001c0 .232 0 .348.01.448a2 2 0 0 0 1.637 1.768c.099.018.215.027.446.044l.64.05c.416.032.625.049.789.125a1 1 0 0 1 .514.555c.063.17.064.379.064.796v.113c0 .56 0 .84.109 1.054.095.188.249.341.437.437.214.11.494.11 1.054.11h2.4c.56 0 .84 0 1.054-.11a1 1 0 0 0 .436-.437c.11-.214.11-.494.11-1.054v-.055c0-.505 0-.757.094-.959.082-.177.216-.326.383-.428.19-.116.44-.146.943-.202l.73-.082.045-.002a2 2 0 0 0 1.904-1.979l.001-.044v-.148l-.09-5.108c-.02-1.102-.03-1.653-.25-2.073a2 2 0 0 0-.872-.857c-.424-.213-.977-.212-2.079-.212zm6.48 2.304c.19-.014.428-.012.637.17.14.121.244.308.255.508v.076a.6.6 0 0 1-.055.22c-.031.07-.089.153-.146.232a7 7 0 0 1-.208.265c-.156.192-.294.35-.38.457a40 40 0 0 0-1.995 2.68v.002c-.193.28-.378.571-.566.862l-.001-.001c-.102.165-.245.435-.427.628a1 1 0 0 1-.353.248.76.76 0 0 1-.484.016c-.199-.056-.388-.202-.54-.34l-.413-.403-.944-.91c-.21-.2-.511-.452-.693-.739a.75.75 0 0 1-.098-.44.65.65 0 0 1 .187-.431.86.86 0 0 1 .537-.244c.183-.01.351.05.496.13.144.082.276.191.393.298q.089.08.17.159.08.078.152.144l.8.735c.202-.305.444-.633.65-.917a40 40 0 0 1 1.903-2.417l.36-.421c.129-.145.264-.289.4-.41a.7.7 0 0 1 .338-.154l.011-.002zm-4.612 3.736.977.896-.977-.897-.202-.19q.106.102.202.19m-1.527-.43-.01.018.018-.029z"/><path fill="#090404" d="M14.852 17c-.053.186-.053.43-.053.846v.054c0 .56 0 .84-.11 1.054-.095.188-.248.34-.436.437-.214.109-.494.109-1.054.109h-2.4c-.56 0-.84 0-1.054-.11a1 1 0 0 1-.437-.436c-.11-.214-.109-.494-.109-1.054v-.113c0-.41-.002-.619-.062-.787z" opacity=".4"/></svg>