<svg xmlns="http://www.w3.org/2000/svg" fill="none" viewBox="0 0 24 24"><path fill="#090404" d="M5 4a1 1 0 0 1 1-1h12a1 1 0 0 1 1 1v16a1 1 0 0 1-1 1H6a1 1 0 0 1-1-1zm2 15h10V5H7z"/><path fill="#090404" d="M6 3a1 1 0 0 1 0 2H5a1 1 0 0 1 0-2z"/><path fill="#090404" d="M5.014 8.336a1 1 0 0 1 1.15-.822l12 2a1 1 0 0 1-.328 1.972l-12-2a1 1 0 0 1-.822-1.15"/><path fill="#090404" d="M5.014 13.336a1 1 0 0 1 1.15-.822l15 2.5a1 1 0 0 1-.328 1.972l-15-2.5a1 1 0 0 1-.822-1.15"/><path fill="#090404" d="M6 19a1 1 0 1 1 0 2H5a1 1 0 1 1 0-2z"/><path fill="#090404" d="M19 3a1 1 0 1 1 0 2h-1a1 1 0 1 1 0-2z"/><path fill="#090404" d="M19 19a1 1 0 1 1 0 2h-1a1 1 0 1 1 0-2z"/><path fill="#090404" d="M12 4a1 1 0 1 1-2 0v-.5a2 2 0 1 1 4 0V4a1 1 0 1 1-2 0"/><path fill="#090404" d="M10 20.5V20a1 1 0 1 1 2 0 1 1 0 1 1 2 0v.5a2 2 0 1 1-4 0"/></svg>