<svg xmlns="http://www.w3.org/2000/svg" fill="none" viewBox="0 0 24 24"><path fill="#090404" d="m13.124 2.008.454.056a4 4 0 0 1 3.326 5.146L16.354 9H18a4 4 0 0 1 3.902 4.878l-.844 3.755c-.436 1.936-2.008 3.538-4.098 3.72-2.726.236-5.473.039-8.124-.926C7.664 20 7 18.872 7 17.726V11.27c0-1.09.45-2.103 1.168-2.86 1.64-1.732 3.003-3.627 3.91-5.796l.075-.147a1 1 0 0 1 .971-.46M9 17.726c0 .408.23.716.52.822 2.308.84 4.749 1.03 7.267.812 1.112-.096 2.05-.966 2.32-2.167l.844-3.754A2 2 0 0 0 18 11h-3a1 1 0 0 1-.956-1.294l.95-3.084a2 2 0 0 0-1.392-2.518c-1.008 2.143-2.397 4.008-3.983 5.681-.398.42-.619.951-.619 1.485z"/><path fill="#090404" d="M4 11v8h3v-8zm5 8a2 2 0 0 1-2 2H4a2 2 0 0 1-2-2v-8a2 2 0 0 1 2-2h3a2 2 0 0 1 2 2z"/></svg>