<svg xmlns="http://www.w3.org/2000/svg" fill="none" viewBox="0 0 24 24"><path fill="#090404" d="M15 6.275c0-.408-.23-.718-.52-.823-2.308-.84-4.749-1.03-7.267-.812-1.111.096-2.05.966-2.32 2.167l-.845 3.754A2 2 0 0 0 6 13h3a1 1 0 0 1 .956 1.294l-.95 3.084a2 2 0 0 0 1.392 2.517c1.008-2.142 2.397-4.008 3.983-5.68.398-.42.618-.951.619-1.485zm2 6.455c0 1.09-.449 2.103-1.167 2.86-1.641 1.732-3.004 3.627-3.91 5.796a1 1 0 0 1-1.047.606l-.454-.056a4 4 0 0 1-3.327-5.146L7.646 15H6a4 4 0 0 1-3.903-4.878l.845-3.755c.436-1.936 2.008-3.538 4.099-3.72 2.726-.236 5.473-.04 8.124.926C16.336 4 17 5.13 17 6.275z"/><path fill="#090404" d="M17 5v8h3V5zm5 8a2 2 0 0 1-2 2h-3a2 2 0 0 1-2-2V5a2 2 0 0 1 2-2h3a2 2 0 0 1 2 2z"/></svg>