<svg xmlns="http://www.w3.org/2000/svg" fill="none" viewBox="0 0 24 24"><g clip-path="url(#a)"><path fill="#090404" d="M13.017.694c1.47-1.696 4.05-.075 3.4 1.938l-2.05 6.355h4.636c1.736 0 2.612 2.045 1.503 3.325l-9.524 10.994c-1.47 1.697-4.05.075-3.4-1.938l2.05-6.355H4.994c-1.735 0-2.611-2.045-1.502-3.325zM5.004 12.998 5 13.003l.003.01h6.003a1.002 1.002 0 0 1 .951 1.307l-2.47 7.657 9.508-10.975.005-.006-.003-.009h-6.002a1 1 0 0 1-.952-1.307l2.47-7.658z"/></g><defs><clipPath id="a"><path fill="#fff" d="M0 0h24v24H0z"/></clipPath></defs></svg>