<svg xmlns="http://www.w3.org/2000/svg" fill="none" viewBox="0 0 24 24"><path fill="#090404" d="M4 6v2.636c2.5 1.52 2.499 5.207 0 6.727V18h16v-2.637c-2.499-1.52-2.5-5.208 0-6.727V6zm18 3.25a1 1 0 0 1-.629.929c-1.661.665-1.661 2.977 0 3.642a1 1 0 0 1 .629.929V18a2 2 0 0 1-2 2H4a2 2 0 0 1-2-2v-3.25a1 1 0 0 1 .629-.929c1.661-.665 1.661-2.977 0-3.642A1 1 0 0 1 2 9.25V6a2 2 0 0 1 2-2h16a2 2 0 0 1 2 2z"/><path fill="#090404" d="M14 8.51V8.5a1 1 0 1 1 2 0v.01a1 1 0 1 1-2 0"/><path fill="#090404" d="M14 12.01V12a1 1 0 1 1 2 0v.01a1 1 0 1 1-2 0"/><path fill="#090404" d="M14 15.51v-.01a1 1 0 1 1 2 0v.01a1 1 0 1 1-2 0"/></svg>