<svg xmlns="http://www.w3.org/2000/svg" fill="none" viewBox="0 0 24 24"><path fill="#090404" d="M16.368 4.068a1 1 0 1 1-1.848-.765 1 1 0 0 1 1.848.765"/><path fill="#090404" d="M19.07 6.343a1 1 0 1 1-1.414-1.414 1 1 0 0 1 1.414 1.414"/><path fill="#090404" d="M20.719 9.556a1 1 0 1 1-.75-1.855 1 1 0 0 1 .75 1.855"/><path fill="#090404" d="M2 12C2 6.477 6.477 2 12 2a1 1 0 1 1 0 2 8 8 0 1 0 8 8 1 1 0 1 1 2 0c0 5.523-4.477 10-10 10S2 17.523 2 12"/><path fill="#090404" d="M11 7a1 1 0 1 1 2 0v4h3a1 1 0 1 1 0 2h-4a1 1 0 0 1-1-1z"/></svg>