<svg xmlns="http://www.w3.org/2000/svg" fill="none" viewBox="0 0 24 24"><path fill="#090404" d="M20 12H4v7h16zm2 7a2 2 0 0 1-2 2H4a2 2 0 0 1-2-2v-8a1 1 0 0 1 1-1h18a1 1 0 0 1 1 1z"/><path fill="#090404" d="M18 11V4h-4v7a1 1 0 1 1-2 0V4a2 2 0 0 1 2-2h4a2 2 0 0 1 2 2v7a1 1 0 1 1-2 0"/><path fill="#090404" d="M15.004 6a1 1 0 1 1 0 2h-2a1 1 0 1 1 0-2z"/><path fill="#090404" d="M9.004 11V5.85L7.524 4h-.04l-1.48 1.85V11a1 1 0 1 1-2 0V5.85a2 2 0 0 1 .438-1.248l1.48-1.851A2 2 0 0 1 7.485 2h.04a2 2 0 0 1 1.561.751l1.48 1.85a2 2 0 0 1 .439 1.25V11a1 1 0 1 1-2 0"/></svg>