<svg xmlns="http://www.w3.org/2000/svg" fill="none" viewBox="0 0 24 24"><path fill="#090404" d="M6 8a6 6 0 0 1 11.196-3.001 1 1 0 0 1-1.73 1.002A4 4 0 0 0 8 8a1 1 0 0 1-2 0"/><path fill="#090404" d="M2 10a5 5 0 0 1 5-5 1 1 0 0 1 0 2 3 3 0 0 0 0 6 1 1 0 1 1 0 2 5 5 0 0 1-5-5"/><path fill="#090404" d="M22 10a5 5 0 0 1-5 5 1 1 0 1 1 0-2 3 3 0 1 0-1.984-5.25 1 1 0 0 1-1.324-1.5A5 5 0 0 1 22 10"/><path fill="#090404" d="M5 20v-6a1 1 0 1 1 2 0v6h10v-6a1 1 0 1 1 2 0v6a2 2 0 0 1-2 2H7a2 2 0 0 1-2-2"/><path fill="#090404" d="M18 16a1 1 0 1 1 0 2H6a1 1 0 1 1 0-2z"/></svg>