<svg xmlns="http://www.w3.org/2000/svg" fill="none" viewBox="0 0 24 24"><path fill="#090404" d="M20 19a1 1 0 1 1 0 2H4a1 1 0 1 1 0-2z"/><path fill="#090404" d="M9.445 14.168a1 1 0 0 1 1.387.277c1.101 1.652 1.8 3.961 2.138 5.313a1 1 0 1 1-1.94.484c-.328-1.315-.963-3.339-1.862-4.687a1 1 0 0 1 .277-1.387"/><path fill="#090404" d="M4.072 15.629a1 1 0 0 1 1.3-.558c2.87 1.149 3.88 3.444 4.476 4.399a1 1 0 0 1-1.695 1.06c-.737-1.178-1.396-2.75-3.524-3.601a1 1 0 0 1-.557-1.3"/><path fill="#090404" d="M14 20c0-1.56.718-2.303 1.707-3.293a1 1 0 1 0-1.414-1.414C13.283 16.303 12 17.56 12 20a1 1 0 1 0 2 0"/><path fill="#090404" d="M19.948 16.184a1 1 0 0 0-1.264-.632c-1.039.346-1.817 1.149-2.364 1.892-.56.76-.968 1.583-1.225 2.131a1 1 0 0 0 1.81.85c.243-.518.585-1.197 1.026-1.795.452-.615.924-1.028 1.386-1.182a1 1 0 0 0 .631-1.264"/><path fill="#090404" d="M15 7a1 1 0 0 1 0 2h-2.058a1 1 0 0 0-.949.683l-.187.558 2.054.411a4 4 0 0 0 2.769-.45l1.875-1.07a1 1 0 0 1 .992 1.736l-1.874 1.071a6 6 0 0 1-4.154.674l-3.165-.633a1 1 0 0 1-.751-1.297l.545-1.632A3 3 0 0 1 12.942 7z"/><path fill="#090404" d="M18.001 3a1 1 0 0 1 0 2h-3.833c-.848 0-1.683.216-2.425.627L5.81 8.917c.309.432.878.619 1.394.427l3.45-1.281a1 1 0 1 1 .696 1.874l-3.45 1.282A3.2 3.2 0 0 1 3.861 9.52 1.734 1.734 0 0 1 4.605 7.3l6.169-3.421A7 7 0 0 1 14.168 3z"/></svg>