<svg xmlns="http://www.w3.org/2000/svg" fill="none" viewBox="0 0 24 24"><path fill="#090404" d="M12 9a.5.5 0 0 0-1 0v4.5a1 1 0 0 1-1.447.895l-.056-.029a1 1 0 0 0-1.373.517l2.52 3.781A3 3 0 0 0 13.142 20H14a4 4 0 0 0 4-4v-1a2 2 0 0 0-2-2h-3a1 1 0 0 1-1-1zM4.5 9a7 7 0 0 1 13.903-1.165 1 1 0 0 1-1.972.33 5.002 5.002 0 0 0-9.862 1.67 1 1 0 0 1-1.972.33A7 7 0 0 1 4.5 9m9.5 2h2a4 4 0 0 1 4 4v1a6 6 0 0 1-6 6h-.86a5 5 0 0 1-4.16-2.227l-2.812-4.218a1 1 0 0 1-.097-.926l.194-.482A3 3 0 0 1 9 12.26V9a2.5 2.5 0 0 1 5 0z"/></svg>