<svg xmlns="http://www.w3.org/2000/svg" fill="none" viewBox="0 0 24 24"><path fill="#090404" d="M15 2a1 1 0 1 1 0 2H9a1 1 0 0 1 0-2z"/><path fill="#090404" d="M11 5.5V3a1 1 0 1 1 2 0v2.5a1 1 0 1 1-2 0"/><path fill="#090404" d="M17.557 5.5a2 2 0 0 1 1.873 2.702l-.994 2.65a1 1 0 0 1-1.873-.704l.994-2.648H6.443l.993 2.648a1 1 0 0 1-1.873.704l-.993-2.65A2 2 0 0 1 6.443 5.5z"/><path fill="#090404" d="M19.461 9.5a2 2 0 0 1 1.828 2.813l-1.111 2.5A2 2 0 0 1 18.35 16H5.649a2 2 0 0 1-1.827-1.187l-1.111-2.5A2 2 0 0 1 4.539 9.5zM5.649 14h12.702l1.11-2.5H4.539z"/><path fill="#090404" d="M9 15a1 1 0 1 1 2 0v5h2v-5a1 1 0 1 1 2 0v6a1 1 0 0 1-1 1h-4a1 1 0 0 1-1-1z"/></svg>