<svg xmlns="http://www.w3.org/2000/svg" fill="none" viewBox="0 0 24 24"><path fill="#090404" d="M7.19 17a.5.5 0 0 0-.447.276l-2 4A.5.5 0 0 0 5.19 22h1.118a.5.5 0 0 0 .447-.276l1.915-3.83a.5.5 0 0 0-.224-.67l-.341-.171A.5.5 0 0 0 7.88 17z"/><path fill="#090404" d="M16.117 17a.5.5 0 0 0-.224.053l-.341.17a.5.5 0 0 0-.224.671l1.915 3.83a.5.5 0 0 0 .447.276h1.118a.5.5 0 0 0 .447-.724l-2-4a.5.5 0 0 0-.447-.276z"/><circle cx="8" cy="14" r="1" fill="#090404"/><circle cx="16" cy="14" r="1" fill="#090404"/><path fill="#090404" d="M16.638 4H7.362L5 5.969V16h14V5.969zM21 16a2 2 0 0 1-2 2H5a2 2 0 0 1-2-2V5.969c0-.594.264-1.157.72-1.537l2.362-1.968A2 2 0 0 1 7.362 2h9.276a2 2 0 0 1 1.28.464l2.362 1.968c.456.38.72.943.72 1.537z"/><path fill="#090404" d="M19 10a1 1 0 1 1 0 2H5a1 1 0 1 1 0-2z"/></svg>