<svg xmlns="http://www.w3.org/2000/svg" fill="none" viewBox="0 0 24 24"><path fill="#090404" d="M12 5a1 1 0 1 1 0 2H4a1 1 0 0 1 0-2z"/><path fill="#090404" d="M7 6V4a1 1 0 0 1 2 0v2a1 1 0 0 1-2 0"/><path fill="#090404" d="M5.415 5.386a1 1 0 0 1 1.123.86c.268 2.007.86 3.47 1.756 4.532.89 1.055 2.159 1.804 3.95 2.252a1 1 0 0 1-.486 1.94c-2.096-.524-3.77-1.455-4.992-2.902-1.216-1.44-1.91-3.303-2.21-5.559a1 1 0 0 1 .86-1.123"/><path fill="#090404" d="M10.586 5.393a1 1 0 0 0-1.124.858c-.269 2.005-.86 3.467-1.756 4.529-.89 1.054-2.159 1.802-3.948 2.25a1 1 0 0 0 .484 1.94c2.095-.524 3.77-1.453 4.991-2.9 1.216-1.439 1.91-3.3 2.211-5.553a1 1 0 0 0-.858-1.124"/><path fill="#090404" d="M15.157 11.3c.687-1.631 3-1.631 3.687 0l3.078 7.312a1 1 0 0 1-1.844.776L19.495 18h-4.987l-.585 1.388a1 1 0 0 1-1.844-.776zm.192 4.7h3.303L17 12.077z"/></svg>