<svg xmlns="http://www.w3.org/2000/svg" fill="none" viewBox="0 0 24 24"><path fill="#090404" d="M18.258 12.024a1 1 0 1 1 .388 1.961l-2.575.51a1 1 0 0 1-.389-1.961z"/><path fill="#090404" d="M9.5 16.892a1 1 0 0 1 1.414-.008l1.03 1.02a1 1 0 1 1-1.407 1.421l-1.03-1.02a1 1 0 0 1-.007-1.413"/><path fill="#090404" d="M10.612 4.066c.43-.347 1.06-.28 1.408.15l2.06 2.55a1 1 0 1 1-1.557 1.257l-2.06-2.55c-.347-.43-.28-1.06.15-1.407"/><path fill="#090404" d="M4.35 9.241a1 1 0 0 1 1.413-.007l1.038 1.027.391-.192a1 1 0 0 1 .888 1.792l-.398.197a1.99 1.99 0 0 1-2.285-.372l-1.04-1.03A1 1 0 0 1 4.35 9.24"/><path fill="#090404" d="M16.422 6.246v-.848a.03.03 0 0 0-.007-.02v-.001L14.33 4.002l-2.355 1.556c-.242.159-.515.265-.801.308l-5.506.838-.001.003-.005.009v.014l.3 2.383a2 2 0 0 1-1.097 2.043l-.858.426h-.001l-.002.003a.03.03 0 0 0-.005.018v1.868a.03.03 0 0 0 .008.021l.699.461c.494.326.816.852.89 1.435l.392 3.114q.002.009.005.013l.002.003h.001l1.65.98 2.364-1.336a2 2 0 0 1 2.54.483l1.093 1.353 2.245-.74 3.328-2.884q.003 0 .007-.015a.04.04 0 0 0-.003-.023l-1.303-2.257a2 2 0 0 1 .138-2.207l1.938-2.56.005-.01q.002-.006 0-.017-.003-.01-.005-.01 0 0-.002-.003l-2.45-1.212a2.02 2.02 0 0 1-1.12-1.814m2 0q0 .012.005.018l.003.004 2.45 1.213c1.07.53 1.425 1.855.839 2.846l-.13.194-1.939 2.558 1.302 2.258c.484.838.31 1.911-.426 2.549l-3.328 2.884a2 2 0 0 1-.681.387l-2.252.743c-.792.262-1.655 0-2.175-.643l-1.094-1.355-2.369 1.341a1.99 1.99 0 0 1-1.995-.021l-1.656-.985a2.02 2.02 0 0 1-.971-1.485l-.393-3.113c-.001-.012-.007-.017-.008-.017l-.698-.46A2.03 2.03 0 0 1 2 13.47v-1.868c0-.764.428-1.471 1.12-1.814l.86-.425-.302-2.384a2.02 2.02 0 0 1 1.687-2.252l5.508-.84 2.362-1.558.127-.078a1.99 1.99 0 0 1 2.066.078l2.089 1.378c.57.376.905 1.014.905 1.69z"/></svg>