<svg xmlns="http://www.w3.org/2000/svg" fill="none" viewBox="0 0 24 24"><path fill="#090404" d="M12 2.25c2.281 0 4.387.287 5.955.777.778.244 1.481.554 2.01.946.51.377 1.035.966 1.035 1.777s-.524 1.4-1.034 1.777c-.53.392-1.233.702-2.01.946-1.57.49-3.675.777-5.956.777s-4.387-.287-5.955-.777c-.778-.244-1.481-.554-2.01-.946C3.524 7.15 3 6.561 3 5.75s.524-1.4 1.034-1.777c.53-.392 1.233-.702 2.01-.946C7.615 2.537 9.72 2.25 12 2.25m0 2c-2.137 0-4.031.272-5.358.687-.67.209-1.14.437-1.42.644-.098.073-.155.13-.188.169.033.038.09.096.189.169.28.207.75.435 1.419.644 1.327.415 3.221.687 5.358.687s4.031-.272 5.358-.687c.67-.209 1.14-.437 1.42-.644.098-.073.154-.13.187-.169a1 1 0 0 0-.188-.169c-.28-.207-.75-.435-1.419-.644-1.327-.415-3.221-.687-5.358-.687"/><path fill="#090404" d="m20.991 5.882-1.207 9.053c-.194 1.452-.307 2.374-.633 3.146a6 6 0 0 1-3.948 3.457c-.808.22-1.737.212-3.203.212s-2.395.009-3.203-.212a6 6 0 0 1-3.948-3.457c-.326-.772-.44-1.694-.633-3.146L3.009 5.882l1.982-.264 1.207 9.053c.21 1.577.299 2.17.494 2.634a4 4 0 0 0 2.632 2.303c.485.133 1.085.142 2.676.142s2.19-.01 2.676-.142a4 4 0 0 0 2.633-2.303c.195-.464.282-1.057.493-2.634l1.207-9.053z"/></svg>