<svg xmlns="http://www.w3.org/2000/svg" fill="none" viewBox="0 0 24 24"><path fill="#090404" d="M19.068 5.502a1 1 0 0 1 .93 1.066l-.937 13.57A2 2 0 0 1 17.066 22H6.934a2 2 0 0 1-1.996-1.862l-.936-13.57a1.001 1.001 0 0 1 1.996-.136L6.934 20h10.132l.936-13.568c.038-.551.516-.968 1.066-.93"/><path fill="#090404" d="M20.5 5a1 1 0 1 1 0 2h-17a1 1 0 0 1 0-2z"/><path fill="#090404" d="M12 1.5a5 5 0 0 1 4.912 4.059 1 1 0 0 1-1.965.375 3.002 3.002 0 0 0-5.894 0 1 1 0 0 1-1.965-.375A5 5 0 0 1 12 1.5"/></svg>