<svg xmlns="http://www.w3.org/2000/svg" fill="none" viewBox="0 0 24 24"><path fill="#090404" d="M11.999 4.428c1.578-1.253 3.384-1.65 5.05-1.314 1.9.382 3.53 1.695 4.361 3.551 1.714 3.83-.065 9.367-7.891 14.108a1 1 0 0 1-1.038-1.71c7.465-4.521 8.204-9.12 7.104-11.58-.576-1.288-1.687-2.158-2.93-2.408-1.219-.245-2.656.09-3.943 1.396a1 1 0 0 1-1.424 0C10.094 5.26 8.774 4.887 7.625 5.03c-1.168.145-2.245.834-2.918 1.907-1.282 2.046-1.245 5.94 3.922 10.115a1 1 0 0 1-1.258 1.556C1.75 14.065.993 9.097 3.011 5.874c.979-1.56 2.576-2.607 4.367-2.83 1.549-.192 3.18.24 4.621 1.384"/><path fill="#090404" d="M7 14a1 1 0 1 1 2 0v4a1 1 0 0 1-1 1H4a1 1 0 1 1 0-2h3z"/></svg>