<svg xmlns="http://www.w3.org/2000/svg" fill="none" viewBox="0 0 24 24"><path fill="#090404" d="M9 16.5a1.5 1.5 0 1 0-3 0 1.5 1.5 0 0 0 3 0m2 0a3.5 3.5 0 1 1-7 0 3.5 3.5 0 0 1 7 0"/><path fill="#090404" d="M18 16.5a1.5 1.5 0 1 0-3 0 1.5 1.5 0 0 0 3 0m2 0a3.5 3.5 0 1 1-7 0 3.5 3.5 0 0 1 7 0"/><path fill="#090404" d="M14 15v2h-4v-2z"/><path fill="#090404" d="M8 8H5.535L4 10.303V15h.714v2H4a2 2 0 0 1-2-2v-4.697a2 2 0 0 1 .336-1.11L3.87 6.891A2 2 0 0 1 5.535 6H8a2 2 0 0 1 2 2v6H8z"/><path fill="#090404" d="M20 15V6H10v3H8V6a2 2 0 0 1 2-2h10a2 2 0 0 1 2 2v9a2 2 0 0 1-2 2h-1v-2z"/></svg>