<svg xmlns="http://www.w3.org/2000/svg" fill="none" viewBox="0 0 24 24"><path fill="#090404" d="M10.255 9.436a10.5 10.5 0 0 1 3.49 0c.57.094 1.041.437 1.327.89l1.442 2.28c1.402-.261 2.55-.633 3.352-1.055C20.87 11.023 21 10.61 21 10.5c0-.066-.037-.271-.424-.592-.38-.315-.992-.644-1.836-.94C17.062 8.383 14.68 8 12 8s-5.062.382-6.74.969c-.844.295-1.455.624-1.836.94-.387.32-.424.525-.424.591 0 .11.13.523 1.134 1.05.802.423 1.95.795 3.351 1.056l1.443-2.28.115-.165c.29-.37.713-.643 1.212-.725M23 10.5c0 1.321-1.099 2.24-2.203 2.821-1.186.624-2.798 1.092-4.62 1.372a1 1 0 0 1-.998-.454l-1.79-2.835a8.5 8.5 0 0 0-2.779 0L8.821 14.24a1 1 0 0 1-.998.454c-1.822-.28-3.434-.748-4.62-1.372C2.098 12.741 1 11.821 1 10.5c0-.9.524-1.616 1.148-2.133.632-.522 1.485-.948 2.45-1.286C6.54 6.401 9.158 6 12 6s5.46.402 7.401 1.081c.966.338 1.82.764 2.45 1.286C22.477 8.884 23 9.6 23 10.5"/><path fill="#090404" d="M15 7a3 3 0 1 0-6 0 1 1 0 0 1-2 0 5 5 0 0 1 10 0 1 1 0 1 1-2 0"/><path fill="#090404" d="M7.13 13.17a1 1 0 0 1 1.692 1.07l-3.976 6.294a1 1 0 0 1-1.691-1.068z"/><path fill="#090404" d="M15.49 12.86a1 1 0 0 1 1.38.31l3.975 6.296a1 1 0 0 1-1.691 1.068l-3.976-6.295a1 1 0 0 1 .312-1.38"/></svg>