<svg xmlns="http://www.w3.org/2000/svg" fill="none" viewBox="0 0 24 24"><path fill="#090404" d="M7.805 17.52a1 1 0 0 1 1.177.784l.19.954a.924.924 0 0 0 1.83-.18V16a1 1 0 1 1 2 0v3.077a2.923 2.923 0 0 1-5.791.573l-.19-.954a1 1 0 0 1 .784-1.177"/><path fill="#090404" d="M11 3a1 1 0 0 1 2 0v1.046c4.012.362 7.39 2.885 8.793 6.375.548 1.364-.575 2.579-1.81 2.579H4.017c-1.236 0-2.359-1.216-1.811-2.58l.15-.35C3.84 6.761 7.122 4.395 11 4.045zm1 3c-3.583 0-6.616 2.089-7.867 5h15.734C18.617 8.089 15.583 6 12 6"/></svg>