<svg xmlns="http://www.w3.org/2000/svg" fill="none" viewBox="0 0 24 24"><path fill="#090404" d="m16.252 7.26 5.974-3.437c.48-.277 1.003.294.668.73l-4.217 5.5a.518.518 0 0 1-.802.02L16.12 8.01a.494.494 0 0 1 .133-.75"/><path fill="#090404" d="M9.53 10.758a1 1 0 1 1 1.94.484l-.214.86a2.18 2.18 0 0 0 1.14 2.477l4.539 2.27A1.428 1.428 0 0 0 19 15.574v-.733c0-.376-.099-.746-.285-1.072l-3.583-6.272A1 1 0 0 1 15 7v-.882l-1.553.777a1 1 0 0 1-.589.095c-3.086-.44-5.503.858-7.198 3.005C3.94 12.173 3 15.198 3 18a1 1 0 1 1-2 0c0-3.198 1.06-6.674 3.09-9.245 1.999-2.532 4.971-4.21 8.733-3.785l2.73-1.365A1 1 0 0 1 17 4.5v2.234l3.452 6.041c.36.629.548 1.34.548 2.065v.733a3.427 3.427 0 0 1-4.96 3.066l-4.539-2.27a4.18 4.18 0 0 1-2.186-4.753z"/><path fill="#090404" d="M12 21c0-1.654-.236-2.942-.466-3.804a9 9 0 0 0-.31-.967 5 5 0 0 0-.095-.23l-.022-.049-.002-.003a1 1 0 0 1 1.79-.894l-.829.414.829-.413v.002l.003.004.004.009.013.027.042.09q.052.116.132.32c.106.274.242.668.377 1.174.27 1.012.534 2.474.534 4.32a1 1 0 1 1-2 0"/></svg>