<svg xmlns="http://www.w3.org/2000/svg" fill="none" viewBox="0 0 24 24"><path fill="#090404" d="M12.984 3.083a2 2 0 0 1 3.129-.385L21.3 7.887a2 2 0 0 1-.385 3.129l-2.902 1.74a1 1 0 1 1-1.028-1.714l2.901-1.741L14.7 4.112l-1.742 2.902a1 1 0 1 1-1.714-1.029z"/><path fill="#090404" d="M7.588 7.608a1 1 0 1 1 .565 1.918l-3.254.958 8.617 8.618.957-3.255a1 1 0 0 1 1.919.564l-.957 3.255c-.428 1.456-2.26 1.923-3.333.85l-8.618-8.618c-1.074-1.073-.606-2.904.85-3.333z"/><path fill="#090404" d="M7.293 15.293a1 1 0 1 1 1.414 1.414l-4 4a1 1 0 1 1-1.414-1.414z"/><path fill="#090404" d="M2.293 2.293a1 1 0 0 1 1.414 0l18 18a1 1 0 1 1-1.414 1.414l-18-18a1 1 0 0 1 0-1.414"/></svg>