<svg xmlns="http://www.w3.org/2000/svg" fill="none" viewBox="0 0 24 24"><path fill="#090404" d="M11 20.132V15h2v5.132a.5.5 0 0 1-.053.224l-.723 1.447a.25.25 0 0 1-.448 0l-.723-1.447a.5.5 0 0 1-.053-.224"/><path fill="#090404" d="M7.919 8.086a1 1 0 0 1 1.162 1.628l-.5.357-.009.006A6 6 0 0 0 6.085 14H15a1 1 0 0 1 0 2H6c-1.06 0-2.097-.893-1.92-2.139l.071-.417A8 8 0 0 1 7.42 8.442zM15 4H9a1 1 0 0 1 0-2h6a2 2 0 0 1 2 2v4.76a8 8 0 0 1 2.92 5.101 1.001 1.001 0 0 1-1.98.284 6 6 0 0 0-2.512-4.068 1 1 0 0 1-.428-.82z"/><path fill="#090404" d="M2.814 1.772a1 1 0 0 1 1.415.043l16 17a1 1 0 0 1-1.457 1.37l-16-17a1 1 0 0 1 .042-1.413"/></svg>