<svg xmlns="http://www.w3.org/2000/svg" fill="none" viewBox="0 0 24 24"><path fill="#090404" d="M11 16v-5a1 1 0 1 1 2 0v5a1 1 0 1 1-2 0"/><path fill="#090404" d="M20.808 5.414a1 1 0 0 1-.348 1.97L3.718 4.432a1 1 0 0 1 .348-1.97z"/><path fill="#090404" d="M7.503 3.635a5.001 5.001 0 0 1 9.673 1.706 1 1 0 1 1-1.999.028 3.002 3.002 0 0 0-5.805-1.024 1 1 0 1 1-1.869-.71"/><path fill="#090404" d="M11.37 9.224a1 1 0 0 1 1.337.069l2.5 2.5a1 1 0 1 1-1.414 1.414L12 11.414l-1.793 1.793a1 1 0 1 1-1.414-1.414l2.5-2.5z"/><path fill="#090404" d="M19.069 5.502a1 1 0 0 1 .929 1.066l-.936 13.57A2 2 0 0 1 17.067 22H6.934a2 2 0 0 1-1.996-1.862l-.901-13.07a1.001 1.001 0 0 1 1.996-.136L6.934 20h10.133l.935-13.568a1 1 0 0 1 1.067-.93"/></svg>