<svg xmlns="http://www.w3.org/2000/svg" fill="none" viewBox="0 0 24 24"><path fill="#090404" d="M4 19a8 8 0 0 1 8-8 1 1 0 1 1 0 2 6 6 0 0 0-6 6h5a1 1 0 1 1 0 2H6a2 2 0 0 1-2-2"/><path fill="#090404" d="M15.25 7.75a3.25 3.25 0 1 0-6.5 0 3.25 3.25 0 0 0 6.5 0m2 0a5.25 5.25 0 1 1-10.5 0 5.25 5.25 0 0 1 10.5 0"/><path fill="#090404" d="M20.253 16.69c0-.526-.255-.886-.559-1.06-.295-.169-.707-.203-1.15.083a1 1 0 0 1-1.085 0c-.443-.286-.855-.252-1.15-.083-.304.174-.559.534-.559 1.06 0 .68.484 1.323 1.227 1.882.348.262.703.466.973.605l.051.024.052-.024c.27-.139.624-.343.972-.605.743-.559 1.228-1.203 1.228-1.881m2 0c0 1.653-1.142 2.816-2.024 3.48a8.9 8.9 0 0 1-1.806 1.041q-.023.008-.036.015l-.012.005-.005.002h-.002l-.367-.93.366.93a1 1 0 0 1-.642.03l-.09-.03h-.003l-.004-.003-.012-.004-.037-.015-.124-.054a8.849 8.849 0 0 1-1.68-.987c-.883-.664-2.025-1.826-2.025-3.48 0-1.221.62-2.256 1.565-2.796.796-.455 1.77-.53 2.686-.146a3.02 3.02 0 0 1 2.686.146c.946.54 1.566 1.575 1.566 2.797"/></svg>