<svg xmlns="http://www.w3.org/2000/svg" fill="none" viewBox="0 0 24 24"><path fill="#090404" d="M14 9a2 2 0 1 0-4 0 2 2 0 0 0 4 0m2 0a4 4 0 1 1-8 0 4 4 0 0 1 8 0"/><path fill="#090404" d="M5 9.5a1 1 0 1 0-2 0 1 1 0 0 0 2 0m2 0a3 3 0 1 1-6 0 3 3 0 0 1 6 0"/><path fill="#090404" d="M21 9.5a1 1 0 1 0-2 0 1 1 0 0 0 2 0m2 0a3 3 0 1 1-6 0 3 3 0 0 1 6 0"/><path fill="#090404" d="M15.5 16.5a3.5 3.5 0 1 0-7 0v.5h7zm2 .643A1.86 1.86 0 0 1 15.643 19H8.357A1.86 1.86 0 0 1 6.5 17.143V16.5a5.5 5.5 0 1 1 11 0z"/><path fill="#090404" d="M3.547 10.678a1 1 0 0 1 .906 1.783c-.825.42-1.37.918-1.734 1.486-.354.55-.572 1.22-.665 2.053H4a1 1 0 0 1 0 2H2C.928 18-.068 17.11.05 15.903l.05-.412c.138-.951.428-1.835.936-2.625.584-.908 1.417-1.632 2.51-2.188"/><path fill="#090404" d="M19.109 11.117a1 1 0 0 1 1.344-.439c1.094.556 1.928 1.28 2.511 2.188.58.903.876 1.929.986 3.037C24.068 17.11 23.072 18 22 18h-2a1 1 0 1 1 0-2h1.947c-.094-.832-.312-1.503-.665-2.053-.365-.567-.91-1.066-1.735-1.485a1 1 0 0 1-.438-1.345"/></svg>