<svg xmlns="http://www.w3.org/2000/svg" fill="none" viewBox="0 0 24 24"><path fill="#090404" fill-rule="evenodd" d="M19.172 13.83a.75.75 0 0 0 .933.54l.26-.075a.75.75 0 0 1 .856.346l.415.717a.75.75 0 0 1-.129.915l-.193.187a.75.75 0 0 0 0 1.078l.195.19c.247.238.3.615.128.913l-.415.718a.75.75 0 0 1-.856.346l-.26-.075a.75.75 0 0 0-.934.54l-.066.262a.75.75 0 0 1-.728.568h-.828a.75.75 0 0 1-.728-.568l-.066-.262a.75.75 0 0 0-.933-.54l-.26.075a.75.75 0 0 1-.856-.346l-.414-.718a.75.75 0 0 1 .128-.914l.195-.189a.75.75 0 0 0 0-1.078l-.194-.187a.75.75 0 0 1-.128-.914l.414-.718a.75.75 0 0 1 .856-.346l.259.074a.75.75 0 0 0 .933-.539l.066-.262A.75.75 0 0 1 17.55 13h.829a.75.75 0 0 1 .727.568zm-1.209 1.758a1.412 1.412 0 1 0 0 2.824 1.412 1.412 0 0 0 0-2.824" clip-rule="evenodd"/><path fill="#090404" d="M4 19a8 8 0 0 1 8-8 1 1 0 1 1 0 2 6 6 0 0 0-6 6h5a1 1 0 1 1 0 2H6a2 2 0 0 1-2-2"/><path fill="#090404" d="M15.25 7.75a3.25 3.25 0 1 0-6.5 0 3.25 3.25 0 0 0 6.5 0m2 0a5.25 5.25 0 1 1-10.5 0 5.25 5.25 0 0 1 10.5 0"/></svg>