<svg xmlns="http://www.w3.org/2000/svg" fill="none" viewBox="0 0 24 24"><circle cx="19.1" cy="15.4" r=".9" fill="#090404"/><path fill="#090404" d="M4 19a8 8 0 0 1 8-8 1 1 0 1 1 0 2 6 6 0 0 0-6 6h4a1 1 0 1 1 0 2H6a2 2 0 0 1-2-2"/><path fill="#090404" d="M15.25 7.75a3.25 3.25 0 1 0-6.5 0 3.25 3.25 0 0 0 6.5 0m2 0a5.25 5.25 0 1 1-10.5 0 5.25 5.25 0 0 1 10.5 0"/><path fill="#090404" d="M20.95 15.65a2.101 2.101 0 0 0-4.2 0l.007.166q.02.248.095.478a1 1 0 0 1-.246 1.013L15 18.914v.586h.586l1.606-1.607.105-.092a1 1 0 0 1 .91-.153 2.095 2.095 0 0 0 2.732-1.783zm2 0a4.1 4.1 0 0 1-4.737 4.05L17 20.913a2 2 0 0 1-1.414.586H14a1 1 0 0 1-1-1v-1.586a2 2 0 0 1 .585-1.414l1.214-1.215a4.1 4.1 0 1 1 8.151-.635"/></svg>