<svg xmlns="http://www.w3.org/2000/svg" fill="none" viewBox="0 0 24 24"><path fill="#090404" d="M4 19a8 8 0 0 1 8-8 1 1 0 1 1 0 2 6 6 0 0 0-6 6h5a1 1 0 1 1 0 2H6a2 2 0 0 1-2-2"/><path fill="#090404" d="M15.25 7.75a3.25 3.25 0 1 0-6.5 0 3.25 3.25 0 0 0 6.5 0m2 0a5.25 5.25 0 1 1-10.5 0 5.25 5.25 0 0 1 10.5 0"/><path fill="#090404" d="M20.7 17.25a2.45 2.45 0 1 0-4.9 0 2.45 2.45 0 0 0 4.9 0m1.8 0a4.25 4.25 0 1 1-8.5 0 4.25 4.25 0 0 1 8.5 0"/><path fill="#090404" d="m21.137 15.637-4.5 4.5-1.274-1.274 4.5-4.5z"/></svg>