<svg xmlns="http://www.w3.org/2000/svg" fill="none" viewBox="0 0 24 24"><path fill="#090404" d="M4 19a8 8 0 0 1 8-8 1 1 0 1 1 0 2 6 6 0 0 0-6 6h4a1 1 0 1 1 0 2H6a2 2 0 0 1-2-2"/><path fill="#090404" d="M15.25 7.75a3.25 3.25 0 1 0-6.5 0 3.25 3.25 0 0 0 6.5 0m2 0a5.25 5.25 0 1 1-10.5 0 5.25 5.25 0 0 1 10.5 0"/><path fill="#090404" d="M17.043 13.043a2.767 2.767 0 1 1 3.914 3.914L17.5 20.414a2 2 0 0 1-1.414.586H14a1 1 0 0 1-1-1v-2.086a2 2 0 0 1 .586-1.414zM15 19h1.086l3.457-3.457a.768.768 0 0 0-1.086-1.086L15 17.914z"/></svg>