<svg xmlns="http://www.w3.org/2000/svg" fill="none" viewBox="0 0 24 24"><path fill="#090404" d="M4 19a8 8 0 0 1 8-8 1 1 0 1 1 0 2 6 6 0 0 0-6 6h5a1 1 0 1 1 0 2H6a2 2 0 0 1-2-2"/><path fill="#090404" d="M15.25 7.75a3.25 3.25 0 1 0-6.5 0 3.25 3.25 0 0 0 6.5 0m2 0a5.25 5.25 0 1 1-10.5 0 5.25 5.25 0 0 1 10.5 0"/><path fill="#090404" d="M19.543 14.293a1 1 0 1 1 1.414 1.414l-1.543 1.543 1.543 1.543a1 1 0 1 1-1.414 1.414L18 18.664l-1.543 1.543a1 1 0 0 1-1.414-1.414l1.543-1.543-1.543-1.543a1 1 0 1 1 1.414-1.414L18 15.836z"/></svg>