<svg xmlns="http://www.w3.org/2000/svg" fill="none" viewBox="0 0 24 24"><path fill="#090404" d="M13 18a5 5 0 0 0-10 0zm2 0a2 2 0 0 1-2 2H3a2 2 0 0 1-2-2 7 7 0 1 1 14 0"/><path fill="#090404" d="M23 17.143A1.86 1.86 0 0 1 21.143 19H18a1 1 0 1 1 0-2h2.997c-.027-1.044-.347-2.061-.875-2.805C19.581 13.434 18.861 13 18 13a1 1 0 1 1 0-2c1.639 0 2.92.863 3.753 2.036.822 1.157 1.247 2.652 1.247 4.107"/><path fill="#090404" d="M10.5 8.5a2.5 2.5 0 1 0-5 0 2.5 2.5 0 0 0 5 0m2 0a4.5 4.5 0 1 1-9 0 4.5 4.5 0 0 1 9 0"/><path fill="#090404" d="M19.5 9.25a1.75 1.75 0 1 0-3.5 0 1.75 1.75 0 0 0 3.5 0m2 0a3.75 3.75 0 1 1-7.5 0 3.75 3.75 0 0 1 7.5 0"/></svg>