<svg xmlns="http://www.w3.org/2000/svg" fill="none" viewBox="0 0 24 24"><g fill="#090404" clip-path="url(#a)"><path d="M3.207 5.957a1 1 0 0 0-1.414 0L.457 7.293a1 1 0 0 0 0 1.414l1.336 1.336a1 1 0 0 0 1.414 0l1.336-1.336a1 1 0 0 0 0-1.414z"/><path d="M21.207 5.957a1 1 0 0 0-1.414 0l-1.336 1.336a1 1 0 0 0 0 1.414l1.336 1.336a1 1 0 0 0 1.414 0l1.336-1.336a1 1 0 0 0 0-1.414z"/><path d="M15.293 8.793a1 1 0 0 1 1.414 0l.005.005.01.009.033.035.122.127c.105.11.254.268.436.471.365.406.866.988 1.415 1.699 1.09 1.41 2.408 3.376 3.208 5.51a1 1 0 0 1-1.873.701c-.7-1.866-1.882-3.65-2.917-4.989a28 28 0 0 0-1.716-2.013l-.106-.109-.025-.026-.006-.005v-.001a1 1 0 0 1 0-1.414"/><path d="M10 7v2H1.5V7z"/><path d="M20.5 7v2H15V7z"/><path d="M15 8a2 2 0 1 0-4 0 2 2 0 0 0 4 0m2 0a4 4 0 1 1-8 0 4 4 0 0 1 8 0"/><path d="M9.676 7.054a1 1 0 0 1 .648 1.892c-3.599 1.232-6.15 4.27-6.325 8.1a1 1 0 0 1-1.998-.092c.217-4.744 3.392-8.435 7.675-9.9"/></g><defs><clipPath id="a"><path fill="#fff" d="M0 0h24v24H0z"/></clipPath></defs></svg>