<svg xmlns="http://www.w3.org/2000/svg" fill="none" viewBox="0 0 24 24"><path fill="#090404" d="M5 12a1 1 0 1 0-2 0 1 1 0 0 0 2 0m2 0a3 3 0 1 1-6 0 3 3 0 0 1 6 0"/><path fill="#090404" d="M21 12a1 1 0 1 0-2 0 1 1 0 0 0 2 0m2 0a3 3 0 1 1-6 0 3 3 0 0 1 6 0"/><path fill="#090404" d="M18.5 11v2h-13v-2z"/><path fill="#090404" d="M12 2.5a9.52 9.52 0 0 1 9.219 7.125l.249.969-1.937.499-.25-.968A7.52 7.52 0 0 0 12 4.5a7.52 7.52 0 0 0-7.281 5.625l-.25.968-1.937-.5.25-.968A9.52 9.52 0 0 1 12 2.5"/><path fill="#090404" d="m21.468 13.406-.25.969A9.52 9.52 0 0 1 12 21.5a9.52 9.52 0 0 1-9.219-7.125l-.249-.969 1.937-.499.25.968A7.52 7.52 0 0 0 12 19.5a7.52 7.52 0 0 0 7.281-5.625l.25-.968z"/></svg>