<svg xmlns="http://www.w3.org/2000/svg" fill="none" viewBox="0 0 24 24"><g fill="#090404" clip-path="url(#a)"><path d="M3.207 5.957a1 1 0 0 0-1.414 0L.457 7.293a1 1 0 0 0 0 1.414l1.336 1.336a1 1 0 0 0 1.414 0l1.336-1.336a1 1 0 0 0 0-1.414z"/><path d="M18.707 11.957a1 1 0 0 0-1.414 0l-1.336 1.336a1 1 0 0 0 0 1.414l1.336 1.336a1 1 0 0 0 1.414 0l1.336-1.336a1 1 0 0 0 0-1.414z"/><path d="M8.5 7a1 1 0 0 1 0 2h-6a1 1 0 0 1 0-2z"/><path d="M13.793 9.793a1 1 0 0 1 1.414 0l6.5 6.5a1 1 0 1 1-1.414 1.414l-6.5-6.5a1 1 0 0 1 0-1.414"/><path d="M14 8a2 2 0 1 0-4 0 2 2 0 0 0 4 0m2 0a4 4 0 1 1-8 0 4 4 0 0 1 8 0"/><path d="M8.643 7.509A1 1 0 0 1 9.35 9.38C6.348 10.512 4.15 13.338 4 16.985A1 1 0 0 1 2 16.905c.184-4.451 2.892-7.98 6.642-9.395"/></g><defs><clipPath id="a"><path fill="#fff" d="M0 0h24v24H0z"/></clipPath></defs></svg>