<svg xmlns="http://www.w3.org/2000/svg" fill="none" viewBox="0 0 24 24"><path fill="#090404" d="M20 12a8 8 0 1 0-16 0 8 8 0 0 0 16 0m2 0c0 5.523-4.477 10-10 10S2 17.523 2 12 6.477 2 12 2s10 4.477 10 10"/><path fill="#090404" d="M16 10a.1.1 0 0 0-.1-.1h-1.5a.1.1 0 0 0-.1.1v1a.1.1 0 0 0 .1.1h1.5a1.9 1.9 0 0 1 1.9 1.9v1a1.9 1.9 0 0 1-1.9 1.9h-1.5a1.9 1.9 0 0 1-1.9-1.9.9.9 0 0 1 1.8 0 .1.1 0 0 0 .1.1h1.5a.1.1 0 0 0 .1-.1v-1a.1.1 0 0 0-.1-.1h-1.5a1.9 1.9 0 0 1-1.9-1.9v-1a1.9 1.9 0 0 1 1.9-1.9h1.5a1.9 1.9 0 0 1 1.9 1.9.9.9 0 0 1-1.8 0"/><path fill="#090404" d="M10.127 8.781a.9.9 0 0 1 1.746.438l-1.5 6a.9.9 0 0 1-.873.681h-1a.9.9 0 0 1-.873-.681l-1.5-6a.9.9 0 0 1 1.746-.438L9 13.29z"/></svg>