<svg xmlns="http://www.w3.org/2000/svg" fill="none" viewBox="0 0 24 24"><path fill="#090404" d="M18.985 2.433a.488.488 0 0 0-.97-.001c-.177 1.538-1.045 2.406-2.583 2.583a.488.488 0 0 0 0 .97c1.517.171 2.445 1.031 2.582 2.57a.488.488 0 0 0 .972 0c.131-1.518 1.05-2.438 2.568-2.569a.488.488 0 0 0 .001-.972c-1.539-.137-2.399-1.065-2.57-2.581"/><path fill="#090404" d="M11.25 7.5a2.5 2.5 0 1 0-5 0 2.5 2.5 0 0 0 5 0m2 0a4.5 4.5 0 1 1-9 0 4.5 4.5 0 0 1 9 0"/><path fill="#090404" d="M1 20a7 7 0 0 1 7-7h.5a1 1 0 1 1 0 2H8a5 5 0 0 0-5 5 1 1 0 1 1-2 0"/><path fill="#090404" d="M20.542 12a2.1 2.1 0 0 1 2.018 2.677L21.17 19.55A2 2 0 0 1 19.246 21H7a1 1 0 1 1 0-2h3.245l1.483-5.187A2.5 2.5 0 0 1 14.131 12zm-6.41 2a.5.5 0 0 0-.482.362L12.326 19h6.92l1.392-4.872a.1.1 0 0 0-.096-.128z"/></svg>