<svg xmlns="http://www.w3.org/2000/svg" fill="none" viewBox="0 0 24 24"><rect width="4" height="2.5" fill="#090404" rx=".5" transform="matrix(-1 0 0 1 8 6)"/><rect width="3" height="2.5" fill="#090404" rx=".5" transform="matrix(-1 0 0 1 12 6)"/><path fill="#090404" d="M1 20c0-2.543.987-4.47 2.5-5.661 1.492-1.174 3.42-1.57 5.197-1.211a1 1 0 0 1-.394 1.96c-1.238-.25-2.562.032-3.566.822C3.754 16.684 3 18.007 3 20a1 1 0 1 1-2 0"/><path fill="#090404" d="M16.26 5.672a1 1 0 0 1 1.48-1.345v.001l.001.001.002.001.004.005.013.015.042.048.136.164a7 7 0 0 1 .606.898q.292-.131.544-.205a4 4 0 0 1 .807-.151l.065-.003h.022l.01-.001H20l.001.5v-.5a1 1 0 0 1 0 2h.015l-.059.006a2 2 0 0 0-.294.064c-.256.077-.62.237-.993.573A1 1 0 0 1 17 7c0-.141-.105-.431-.34-.795a5 5 0 0 0-.376-.505l-.021-.025-.004-.004v.001"/><path fill="#090404" d="M4.905 6.745c.027-.594.146-1.188.385-1.627.242-.443.588-.717 1.21-.717.196 0 1.032-.053 2.33-.564.204-.08.387-.2.546-.328.137.168.3.343.491.49.274.212.682.43 1.186.4.291-.018.563-.122.778-.227a1.1 1.1 0 0 1-.092 1.176l-.459.612a.9.9 0 0 0-.18.54V7a3.1 3.1 0 0 1-6.2 0zM8.733 1.53l-.001.001-.01.017a3 3 0 0 1-.223.303 2 2 0 0 1-.219.23c-.072.064-.11.082-.11.082-1.03.406-1.634.435-1.67.437-1.377 0-2.282.725-2.79 1.657-.476.874-.61 1.92-.61 2.743a4.9 4.9 0 1 0 9.8 0V6.8l.28-.371a2.9 2.9 0 0 0-.27-3.791l-.273-.274a.9.9 0 0 0-1.215-.052l-.009.007-.049.038a3 3 0 0 1-.176.12q-.11.069-.197.106l-.006.002-.018-.01a1.6 1.6 0 0 1-.294-.328 4 4 0 0 1-.33-.565l-.015-.034-.003-.007v.002a.9.9 0 0 0-1.592-.112"/><path fill="#090404" d="M7.5 6a.75.75 0 0 0 0 1.5h2a.75.75 0 0 0 0-1.5z"/><path fill="#090404" d="M20.542 12a2.1 2.1 0 0 1 2.018 2.677L21.17 19.55A2 2 0 0 1 19.246 21H7a1 1 0 1 1 0-2h3.245l1.483-5.187A2.5 2.5 0 0 1 14.131 12zm-6.41 2a.5.5 0 0 0-.482.362L12.326 19h6.92l1.392-4.872a.1.1 0 0 0-.096-.128z"/></svg>