<svg xmlns="http://www.w3.org/2000/svg" fill="none" viewBox="0 0 24 24"><path fill="#090404" d="m18.24 5.185-.696-1.812a.582.582 0 0 0-1.088 0l-.697 1.812a1 1 0 0 1-.574.575l-1.812.696a.582.582 0 0 0 0 1.088l1.812.696a1 1 0 0 1 .574.575l.697 1.812a.582.582 0 0 0 1.088 0l.697-1.812a1 1 0 0 1 .574-.575l1.812-.696a.582.582 0 0 0 0-1.088l-1.812-.696a1 1 0 0 1-.575-.575"/><path fill="#090404" d="M8.308 4.278a1 1 0 0 1 1.385 1.444l-6.279 6.026 6.307 6.559a1 1 0 0 1-1.442 1.386l-7-7.28A1 1 0 0 1 1.308 11z"/><path fill="#090404" d="M22.693 11a1 1 0 0 0-1.414.027l-7 7.28a1 1 0 1 0 1.442 1.386l7-7.28A1 1 0 0 0 22.693 11"/></svg>