<svg xmlns="http://www.w3.org/2000/svg" fill="none" viewBox="0 0 24 24"><path fill="#090404" d="m11.566 11.86-.59-1.533a.51.51 0 0 0-.952 0l-.59 1.533a1 1 0 0 1-.574.575l-1.533.59a.51.51 0 0 0 0 .95l1.533.59a1 1 0 0 1 .575.575l.59 1.533a.51.51 0 0 0 .95 0l.59-1.533a1 1 0 0 1 .575-.575l1.533-.59a.51.51 0 0 0 0-.95l-1.533-.59a1 1 0 0 1-.575-.575"/><path fill="#090404" d="m14.216 7.21-.376-.977a.364.364 0 0 0-.68 0l-.376.977a1 1 0 0 1-.574.575l-.977.375a.364.364 0 0 0 0 .68l.977.375a1 1 0 0 1 .574.575l.376.977a.364.364 0 0 0 .68 0l.376-.977a1 1 0 0 1 .574-.575l.977-.375a.364.364 0 0 0 0-.68l-.977-.375a1 1 0 0 1-.574-.575"/><path fill="#090404" d="M5.219 6.375a1 1 0 0 1 1.562 1.25L3.281 12l3.5 4.375a1 1 0 0 1-1.562 1.25l-4-5a1 1 0 0 1 0-1.25z"/><path fill="#090404" d="M17.375 6.219a1 1 0 0 1 1.406.156l4 5a1 1 0 0 1 0 1.25l-4 5a1 1 0 0 1-1.562-1.25l3.5-4.375-3.5-4.375a1 1 0 0 1 .156-1.406"/></svg>