<svg xmlns="http://www.w3.org/2000/svg" fill="none" viewBox="0 0 24 24"><path fill="#090404" d="M4 6v8h16V6zm18 8a2 2 0 0 1-2 2H4a2 2 0 0 1-2-2V6a2 2 0 0 1 2-2h16a2 2 0 0 1 2 2z"/><path fill="#090404" d="M21 18a1 1 0 1 1 0 2H3a1 1 0 1 1 0-2z"/><path fill="#090404" d="M6.264 8.695a2 2 0 0 1 2.476.017l6.885 5.507a1 1 0 0 1-1.25 1.562L7.49 10.274l-3.877 3.015a1 1 0 0 1-1.228-1.579z"/><path fill="#090404" d="M16.5 8a1.5 1.5 0 1 1 0 3 1.5 1.5 0 0 1 0-3"/><path fill="#090404" d="M5 19a2 2 0 1 1 4 0 2 2 0 0 1-4 0"/></svg>