<svg xmlns="http://www.w3.org/2000/svg" fill="none" viewBox="0 0 24 24"><path fill="#090404" d="M4 6v12h10V6zm12 12a2 2 0 0 1-2 2H4a2 2 0 0 1-2-2V6a2 2 0 0 1 2-2h10a2 2 0 0 1 2 2z"/><path fill="#090404" d="M7.566 9.099c.347-.167.759-.12 1.059.12l2.5 2a1 1 0 0 1 0 1.562l-2.5 2A1.001 1.001 0 0 1 7 14.001v-4a1 1 0 0 1 .566-.902"/><path fill="#090404" d="M14 5V3a1 1 0 1 1 2 0v2a1 1 0 1 1-2 0"/><path fill="#090404" d="M14 21v-2a1 1 0 1 1 2 0v2a1 1 0 1 1-2 0"/><path fill="#090404" d="M20 18V6h-1a1 1 0 1 1 0-2h1a2 2 0 0 1 2 2v12a2 2 0 0 1-2 2h-1a1 1 0 1 1 0-2z"/></svg>