<svg xmlns="http://www.w3.org/2000/svg" fill="none" viewBox="0 0 24 24"><path fill="#090404" d="M12 7.75a.25.25 0 1 0 0 .5.25.25 0 0 0 0-.5m1.75.25a1.75 1.75 0 1 1-3.5 0 1.75 1.75 0 0 1 3.5 0"/><path fill="#090404" d="M8 11.75a.25.25 0 1 0 0 .5.25.25 0 0 0 0-.5m1.75.25a1.75 1.75 0 1 1-3.5 0 1.75 1.75 0 0 1 3.5 0"/><path fill="#090404" d="M16 11.75a.25.25 0 1 0 0 .5.25.25 0 0 0 0-.5m1.75.25a1.75 1.75 0 1 1-3.5 0 1.75 1.75 0 0 1 3.5 0"/><path fill="#090404" d="M12 15.75a.25.25 0 1 0 0 .5.25.25 0 0 0 0-.5m1.75.25a1.75 1.75 0 1 1-3.5 0 1.75 1.75 0 0 1 3.5 0"/><path fill="#090404" d="M20 12a8 8 0 1 0-16 0 8 8 0 0 0 16 0m2 0c0 5.523-4.477 10-10 10S2 17.523 2 12 6.477 2 12 2s10 4.477 10 10"/><path fill="#090404" d="M12.15 7a1 1 0 1 1 0 2h-.3a1 1 0 1 1 0-2z"/><path fill="#090404" d="M8.15 11a1 1 0 1 1 0 2h-.3a1 1 0 1 1 0-2z"/><path fill="#090404" d="M16.15 11a1 1 0 1 1 0 2h-.3a1 1 0 1 1 0-2z"/><path fill="#090404" d="M12.15 15a1 1 0 1 1 0 2h-.3a1 1 0 1 1 0-2z"/><path fill="#090404" d="M21 20a1 1 0 1 1 0 2h-8a1 1 0 1 1 0-2z"/></svg>