<svg xmlns="http://www.w3.org/2000/svg" fill="none" viewBox="0 0 24 24"><path fill="#090404" d="M12 10.75a1.25 1.25 0 1 1 0 2.5 1.25 1.25 0 0 1 0-2.5"/><path fill="#090404" d="M3.241 7.17a1 1 0 0 1 1.751.966 8.004 8.004 0 0 0 10.872 10.872 1 1 0 1 1 .967 1.75c-3.8 2.098-8.678 1.538-11.902-1.687C1.704 15.847 1.143 10.97 3.24 7.17"/><path fill="#090404" d="M7.169 3.24c3.8-2.097 8.678-1.536 11.902 1.688 3.225 3.225 3.785 8.102 1.687 11.903a1 1 0 0 1-1.75-.967A8.005 8.005 0 0 0 8.136 4.992a1 1 0 1 1-.967-1.751"/><path fill="#090404" d="M12 7.5c2.053 0 3.925 1.263 5.448 3.38.48.669.48 1.571 0 2.24-1.523 2.117-3.395 3.38-5.448 3.38s-3.925-1.263-5.447-3.38a1.92 1.92 0 0 1 0-2.24l.289-.386C8.31 8.61 10.076 7.5 12 7.5m0 2c-1.151 0-2.48.7-3.788 2.5C9.52 13.8 10.85 14.5 12 14.5s2.48-.701 3.787-2.5C14.48 10.201 13.151 9.5 12 9.5"/></svg>