<svg xmlns="http://www.w3.org/2000/svg" fill="none" viewBox="0 0 24 24"><g fill="#090404" clip-path="url(#a)"><path d="M18 17V7h-4a1 1 0 1 1 0-2h4a2 2 0 0 1 2 2v10a2 2 0 0 1-2 2h-2a1 1 0 1 1 0-2z"/><path d="M24 14.986a1.5 1.5 0 0 1-2.102 1.374L18.6 14.916a1 1 0 0 1 .8-1.832l2.6 1.137V9.78l-2.6 1.137a1 1 0 0 1-.8-1.832l3.298-1.444.188-.067A1.5 1.5 0 0 1 24 9.015z"/><path d="M0 13a1 1 0 1 1 2 0 5 5 0 0 0 10 0 1 1 0 1 1 2 0 7 7 0 1 1-14 0"/><path d="M9 8a2 2 0 1 0-4 0v5a2 2 0 1 0 4 0zm2 5a4 4 0 0 1-8 0V8a4 4 0 1 1 8 0z"/></g><defs><clipPath id="a"><path fill="#fff" d="M0 0h24v24H0z"/></clipPath></defs></svg>