<svg xmlns="http://www.w3.org/2000/svg" fill="none" viewBox="0 0 24 24"><path fill="#090404" d="M19 17v-3h-3a1 1 0 1 1 0-2h4a1 1 0 0 1 1 1v4a1 1 0 1 1-2 0"/><path fill="#090404" d="M19.119 12.687a1 1 0 0 1 1.162 1.627c-1.36.971-2.126 1.803-2.577 2.646-.45.838-.64 1.78-.684 3.074a1 1 0 1 1-1.998-.068c.05-1.45.268-2.736.919-3.95.648-1.21 1.675-2.256 3.178-3.33"/><path fill="#090404" d="M3 14v-4a1 1 0 0 1 2 0v4a1 1 0 1 1-2 0"/><path fill="#090404" d="M11 16V8a1 1 0 1 1 2 0v8a1 1 0 1 1-2 0"/><path fill="#090404" d="M15 9V6a1 1 0 1 1 2 0v3a1 1 0 1 1-2 0"/><path fill="#090404" d="M7 20V4a1 1 0 0 1 2 0v16a1 1 0 1 1-2 0"/></svg>