<svg xmlns="http://www.w3.org/2000/svg" fill="none" viewBox="0 0 24 24"><path fill="#090404" d="M20 12a8 8 0 1 0-16 0 8 8 0 0 0 16 0m2 0c0 5.523-4.477 10-10 10S2 17.523 2 12 6.477 2 12 2s10 4.477 10 10"/><path fill="#090404" d="M8.887 8.135c1.072-.034 1.975.438 2.71 1.046.729.602 1.375 1.405 1.955 2.19.621.843 1.109 1.58 1.681 2.325.553.719 1.05 1.255 1.524 1.57.44.294.792.356 1.159.25.427-.122 1.05-.52 1.87-1.563a1 1 0 1 1 1.571 1.237c-.932 1.185-1.878 1.96-2.89 2.25-1.07.307-2.026.02-2.82-.508-.758-.506-1.419-1.262-2-2.018-.56-.73-1.184-1.65-1.705-2.355-.562-.762-1.089-1.399-1.619-1.837-.522-.432-.963-.601-1.373-.588s-1 .218-1.8.977c-.805.761-1.75 2.013-2.851 3.954a1 1 0 0 1-1.74-.988c1.148-2.023 2.208-3.465 3.215-4.42 1.011-.956 2.043-1.488 3.113-1.522"/><path fill="#090404" d="M3.446 15.474c1.549-1.115 3.024-1.465 4.448-1.287 1.37.171 2.591.821 3.66 1.483 1.137.703 2.047 1.373 3.063 1.876.967.48 1.856.706 2.783.545a1 1 0 0 1 .342 1.97c-1.504.262-2.84-.141-4.013-.722-1.123-.556-2.27-1.375-3.227-1.968-1.024-.633-1.936-1.085-2.857-1.2-.868-.108-1.845.072-3.03.926a1 1 0 1 1-1.169-1.623"/></svg>