<svg xmlns="http://www.w3.org/2000/svg" fill="none" viewBox="0 0 24 24"><path fill="#090404" d="M8 1c1.241 0 1.961 1.001 2.371 1.788.44.846.78 1.942 1.083 2.914.321 1.028.608 1.932.948 2.586.372.713.59.712.598.712.23 0 .44-.093.702-.414.288-.352.537-.859.823-1.496.26-.579.57-1.312.954-1.873C15.87 4.646 16.508 4 17.5 4c1.047 0 1.683.746 2.055 1.372.38.639.677 1.475.948 2.227.287.796.561 1.555.905 2.209.346.655.708 1.095 1.107 1.335a1 1 0 0 1-.068 1.752c-.51.255-.915.7-1.261 1.32-.352.63-.608 1.37-.859 2.152-.234.73-.483 1.577-.815 2.213S18.578 20 17.5 20c-.993 0-1.63-.645-2.02-1.217-.384-.561-.694-1.294-.955-1.873-.287-.637-.535-1.144-.823-1.496C13.44 15.094 13.23 15 13 15c-.009 0-.226-.001-.598.712-.34.654-.627 1.558-.948 2.586-.304.972-.642 2.068-1.083 2.914C9.961 21.999 9.241 23 8 23c-.624 0-1.135-.273-1.525-.628-.377-.343-.677-.79-.924-1.246-.492-.906-.91-2.102-1.307-3.232-.412-1.172-.812-2.31-1.285-3.248-.487-.967-.96-1.528-1.406-1.751a1 1 0 0 1 0-1.79c.447-.223.919-.784 1.406-1.75.473-.94.873-2.077 1.285-3.249.397-1.13.815-2.326 1.307-3.232.247-.456.547-.904.924-1.246C6.865 1.273 7.375 1 8 1m0 2s-.052-.008-.18.108c-.14.129-.314.357-.511.721-.4.735-.763 1.758-1.178 2.94-.4 1.14-.844 2.41-1.387 3.486-.31.614-.684 1.232-1.151 1.745.467.513.842 1.131 1.151 1.745.543 1.077.986 2.346 1.387 3.486.415 1.182.779 2.205 1.178 2.94.197.364.37.593.511.72.128.117.18.109.18.109.009 0 .226.001.598-.712.34-.654.627-1.558.948-2.586.304-.972.642-2.068 1.083-2.914C11.039 14.001 11.759 13 13 13c1.02 0 1.748.532 2.251 1.148.478.586.823 1.33 1.099 1.942.301.67.523 1.188.78 1.564.23.336.344.346.366.345l.008-.006c.042-.035.125-.129.234-.339.23-.442.419-1.064.685-1.896.25-.78.556-1.696 1.017-2.52.258-.462.576-.916.977-1.313a6.8 6.8 0 0 1-.778-1.186c-.422-.8-.741-1.696-1.017-2.463-.292-.81-.525-1.443-.786-1.882-.126-.212-.224-.318-.286-.367a.2.2 0 0 0-.042-.026L17.507 6H17.5c-.007 0-.12-.02-.37.346-.257.376-.479.893-.78 1.564-.276.612-.62 1.356-1.099 1.942C14.748 10.468 14.02 11 13 11c-1.241 0-1.961-1.001-2.371-1.788-.44-.846-.78-1.942-1.083-2.914-.321-1.028-.608-1.932-.948-2.586C8.226 2.999 8.008 3 8 3"/></svg>