<svg xmlns="http://www.w3.org/2000/svg" fill="none" viewBox="0 0 24 24"><circle cx="8.5" cy="15.25" r="1.75" fill="#090404"/><path fill="#090404" d="M19 15V3a1 1 0 1 0-2 0v12a1 1 0 1 0 2 0m3.5-5V8a1 1 0 1 0-2 0v2a1 1 0 1 0 2 0m-7-1.75V6a1 1 0 1 0-2 0v2.25a1 1 0 1 0 2 0M12 5.5V4a1 1 0 1 0-2 0v1.5a1 1 0 1 0 2 0"/><path fill="#090404" d="M8.896 8.5a2 2 0 0 1 1.72.98l.622 1.05 1.235.01a2 2 0 0 1 1.713.995l.388.67a2 2 0 0 1 .009 1.996l-.599 1.049.599 1.049a2 2 0 0 1-.009 1.997l-.388.669c-.356.61-1.007.99-1.713.995l-1.235.01-.622 1.05a2 2 0 0 1-1.72.98h-.791a2 2 0 0 1-1.721-.98l-.623-1.05-1.234-.01a2 2 0 0 1-1.713-.995l-.388-.67a2 2 0 0 1-.009-1.996l.599-1.049-.599-1.049a2 2 0 0 1 .009-1.997l.388-.669a2 2 0 0 1 1.713-.995l1.234-.01.623-1.05a2 2 0 0 1 1.72-.98zM7.48 11.55a2 2 0 0 1-1.704.98l-1.234.01-.389.67.599 1.049a2 2 0 0 1 0 1.982l-.599 1.049.389.67 1.234.01a2 2 0 0 1 1.704.98L8.105 20h.79l.624-1.05a2 2 0 0 1 1.704-.98l1.234-.01.389-.67-.599-1.049a2 2 0 0 1 0-1.982l.599-1.049-.389-.67-1.234-.01a2 2 0 0 1-1.704-.98l-.623-1.05h-.791z"/></svg>