<svg xmlns="http://www.w3.org/2000/svg" fill="none" viewBox="0 0 24 24"><path fill="#090404" d="M20 12a8 8 0 1 0-16 0 8 8 0 0 0 16 0m2 0c0 5.523-4.477 10-10 10S2 17.523 2 12 6.477 2 12 2s10 4.477 10 10"/><path fill="#090404" d="M20.1 9.2a1 1 0 0 1 0 2c-2.444 0-4.53 1.545-6.985 3.398-.544.412-1.11.837-1.696 1.25.934.685 1.842 1.288 2.725 1.716 1.161.564 2.155.764 3.023.556a1 1 0 1 1 .466 1.944c-1.508.361-3.004-.04-4.362-.7-1.25-.607-2.488-1.485-3.655-2.367C8.165 17.81 6.576 18.4 4.8 18.4a1 1 0 0 1 0-2c1.075 0 2.078-.282 3.064-.746-.742-.57-1.449-1.1-2.137-1.546C4.585 13.371 3.692 13 3 13a1 1 0 0 1 0-2c1.308 0 2.62.659 3.812 1.428.952.616 1.95 1.39 2.926 2.145a47 47 0 0 0 2.172-1.571C14.223 11.255 16.861 9.2 20.1 9.2"/><path fill="#090404" d="M20.5 12a8.5 8.5 0 1 0-17 0 8.5 8.5 0 0 0 17 0m1.5 0c0 5.523-4.477 10-10 10S2 17.523 2 12 6.477 2 12 2s10 4.477 10 10"/><path fill="#090404" d="M20.5 9.25a.75.75 0 0 1 0 1.5c-2.699 0-4.962 1.706-7.483 3.645a56 56 0 0 1-2.097 1.56c1.086.83 2.148 1.581 3.185 2.097 1.223.608 2.31.845 3.288.605a.75.75 0 0 1 .357 1.457c-1.469.361-2.942-.037-4.313-.72-1.311-.652-2.615-1.61-3.854-2.576-1.51.889-3.148 1.532-4.98 1.532a.75.75 0 0 1 0-1.5c1.312 0 2.519-.403 3.703-1.036-.906-.718-1.77-1.397-2.606-1.95-1.182-.785-2.157-1.214-2.95-1.214a.75.75 0 0 1 0-1.5c1.266 0 2.561.656 3.78 1.463 1.02.677 2.09 1.534 3.146 2.371.797-.534 1.6-1.143 2.426-1.779C14.525 11.344 17.2 9.25 20.5 9.25"/><path fill="#090404" d="M21 12a9 9 0 1 0-18 0 9 9 0 0 0 18 0m1 0c0 5.523-4.477 10-10 10S2 17.523 2 12 6.477 2 12 2s10 4.477 10 10"/><path fill="#090404" d="M21 9.25a.5.5 0 0 1 0 1c-2.887 0-5.352 1.824-7.99 3.8a61 61 0 0 1-2.167 1.573c1.136.81 2.259 1.579 3.348 2.169 1.294.7 2.482 1.117 3.536 1.09a.5.5 0 0 1 .024 1c-1.315.033-2.689-.481-4.035-1.21-1.25-.677-2.526-1.57-3.77-2.462-1.698 1.053-3.515 1.84-5.54 1.84a.5.5 0 0 1 0-1c1.654 0 3.168-.597 4.655-1.475-1.148-.826-2.257-1.613-3.312-2.225-1.24-.72-2.329-1.15-3.249-1.15a.5.5 0 0 1 0-1c1.196 0 2.477.545 3.751 1.284 1.204.7 2.469 1.613 3.724 2.518.807-.536 1.614-1.136 2.436-1.752 2.57-1.924 5.307-4 8.589-4"/></svg>