<svg xmlns="http://www.w3.org/2000/svg" fill="none" viewBox="0 0 24 24"><path fill="#090404" d="M7 19V5a1 1 0 0 1 2 0v14a1 1 0 1 1-2 0"/><path fill="#090404" d="M3 14v-4a1 1 0 0 1 2 0v4a1 1 0 1 1-2 0"/><path fill="#090404" d="M11 14v-4a1 1 0 1 1 2 0v4a1 1 0 1 1-2 0"/><path fill="#090404" d="M15 17V7a1 1 0 1 1 2 0v10a1 1 0 1 1-2 0"/><path fill="#090404" d="M19 13v-2a1 1 0 1 1 2 0v2a1 1 0 1 1-2 0"/><path fill="#090404" d="M17 5a1 1 0 1 0-2 0 1 1 0 0 0 2 0m2 0a3 3 0 1 1-6 0 3 3 0 0 1 6 0"/><path fill="#090404" d="M17 19a1 1 0 1 0-2 0 1 1 0 0 0 2 0m2 0a3 3 0 1 1-6 0 3 3 0 0 1 6 0"/></svg>