<svg xmlns="http://www.w3.org/2000/svg" fill="none" viewBox="0 0 24 24"><path fill="#090404" d="m17.24 15.185-.696-1.812a.582.582 0 0 0-1.088 0l-.697 1.812a1 1 0 0 1-.574.574l-1.812.697a.582.582 0 0 0 0 1.088l1.812.697a1 1 0 0 1 .574.574l.697 1.812a.582.582 0 0 0 1.088 0l.697-1.812a1 1 0 0 1 .574-.575l1.812-.696a.582.582 0 0 0 0-1.088l-1.812-.697a1 1 0 0 1-.575-.574"/><path fill="#090404" d="M7 20V4a1 1 0 0 1 2 0v16a1 1 0 1 1-2 0"/><path fill="#090404" d="M3 14v-4a1 1 0 0 1 2 0v4a1 1 0 1 1-2 0"/><path fill="#090404" d="M11 13V8a1 1 0 1 1 2 0v5a1 1 0 1 1-2 0"/><path fill="#090404" d="M15 10V6a1 1 0 1 1 2 0v4a1 1 0 1 1-2 0"/><path fill="#090404" d="M19 13v-3a1 1 0 1 1 2 0v3a1 1 0 1 1-2 0"/></svg>