<svg xmlns="http://www.w3.org/2000/svg" fill="none" viewBox="0 0 24 24"><path fill="#090404" d="M11.521 2.121a1 1 0 0 1 1.356.401c.774 1.426 1.134 3.23 1.134 4.978 0 1.749-.36 3.552-1.134 4.977a1 1 0 0 1-.853.523c-1.205.032-2.622.485-3.928 1.24-1.307.753-2.409 1.754-3.038 2.782a1 1 0 0 1-1.706-1.044c.848-1.384 2.23-2.597 3.744-3.471 1.322-.764 2.817-1.31 4.255-1.465.427-.998.66-2.25.66-3.542 0-1.509-.315-2.963-.891-4.022a1 1 0 0 1 .401-1.357"/><path fill="#090404" d="M11.476 11.147a1 1 0 0 1 1.374.33c.63 1.029 1.732 2.03 3.039 2.784 1.306.754 2.724 1.208 3.93 1.239a1 1 0 0 1-.053 2c-1.622-.043-3.363-.633-4.877-1.507-1.515-.874-2.896-2.087-3.744-3.47a1 1 0 0 1 .33-1.376"/><path fill="#090404" d="M6.98 12.582a1 1 0 0 1 1.374.33c1.568 2.56 4.58 4.92 7.851 6.31a1 1 0 1 1-.782 1.841c-3.551-1.51-6.936-4.107-8.774-7.106a1 1 0 0 1 .33-1.375"/><path fill="#090404" d="M12.98 6.387a1 1 0 0 1 .052 2c-2.995.078-6.53 1.47-9.398 3.573a1 1 0 1 1-1.182-1.614C5.56 8.068 9.48 6.478 12.981 6.387"/><path fill="#090404" d="M17.037 3.636a1 1 0 0 1 1.112.874c.46 3.83-.1 8.056-1.778 11.146a1 1 0 0 1-1.757-.955c1.432-2.638 1.974-6.422 1.55-9.952a1 1 0 0 1 .872-1.113"/><path fill="#090404" d="M20 12a8 8 0 1 0-16 0 8 8 0 0 0 16 0m2 0c0 5.523-4.477 10-10 10S2 17.523 2 12 6.477 2 12 2s10 4.477 10 10"/></svg>