<svg xmlns="http://www.w3.org/2000/svg" fill="none" viewBox="0 0 24 24"><path fill="#090404" d="M20 14.107c-1.062-.56-2.486-1.336-3.969-1.983-1.313-.573-2.56-.992-3.563-1.098q-.017.03-.035.057c-.311.434-.723 1.074-.97 1.704-.268.69-.213 1.028-.134 1.153.011.01.114.094.527.125.478.034 1.044-.019 1.751-.064.637-.04 1.426-.078 2.106.089.356.087.737.243 1.066.526.342.294.576.682.69 1.142.234.932-.11 1.69-.58 2.242H20zM13.263 18a1 1 0 0 1 .378-.26c.54-.207 1.123-.492 1.517-.828.395-.336.406-.536.372-.67-.02-.082-.044-.102-.054-.11a.6.6 0 0 0-.24-.1c-.339-.083-.83-.078-1.5-.035-.6.038-1.37.11-2.026.063-.632-.047-1.52-.223-2.042-1.005-.667-1.001-.376-2.203-.066-2.995q.135-.346.3-.67c-.636.2-1.316.462-2.012.768-1.457.641-2.847 1.399-3.89 1.948V18zM4 6v5.848c.894-.472 1.973-1.031 3.084-1.52C8.664 9.633 10.464 9 12 9c1.51 0 3.275.612 4.831 1.291 1.143.499 2.253 1.073 3.169 1.557V6zm18 12a2 2 0 0 1-2 2H4a2 2 0 0 1-2-2V6a2 2 0 0 1 2-2h16a2 2 0 0 1 2 2z"/></svg>