<svg xmlns="http://www.w3.org/2000/svg" fill="none" viewBox="0 0 24 24"><path fill="#090404" d="M16 14.5a.5.5 0 1 1-1 0 .5.5 0 0 1 1 0"/><path fill="#090404" d="M6.5 10c-.537 0-1.045-.12-1.5-.337V17a2 2 0 0 0 2 2h12v-9zM5 6.5A1.5 1.5 0 0 0 6.5 8H15V5H6.5A1.5 1.5 0 0 0 5 6.5M17 8h2a2 2 0 0 1 2 2v9a2 2 0 0 1-2 2H7a4 4 0 0 1-4-4V6.5A3.5 3.5 0 0 1 6.5 3h8.75c.966 0 1.75.784 1.75 1.75z"/><path fill="#090404" d="M16 14.5a.5.5 0 1 0-1 0 .5.5 0 0 0 1 0m.75 0a1.25 1.25 0 1 1-2.5 0 1.25 1.25 0 0 1 2.5 0"/></svg>