<svg xmlns="http://www.w3.org/2000/svg" fill="none" viewBox="0 0 24 24"><path fill="#090404" d="M5 5v14h14V5zm16 14a2 2 0 0 1-2 2H5a2 2 0 0 1-2-2V5a2 2 0 0 1 2-2h14a2 2 0 0 1 2 2z"/><path fill="#090404" d="M7.25 6a1.25 1.25 0 1 1 0 2.5 1.25 1.25 0 0 1 0-2.5"/><path fill="#090404" d="M15 13a3 3 0 1 0-6 0 3 3 0 0 0 6 0m2 0a5 5 0 1 1-10 0 5 5 0 0 1 10 0"/><path fill="#090404" d="M7.848 12.242c.83-.713 1.695-.92 2.547-.79.75.115 1.452.495 1.95.748.571.29.968.466 1.342.5.298.028.661-.029 1.16-.458l.76-.653 1.303 1.517-.758.652c-.87.748-1.76 1.016-2.648.934-.81-.075-1.533-.44-2.063-.708-.602-.305-.984-.5-1.348-.555-.263-.04-.544-.012-.94.33l-.76.65-1.303-1.516z"/></svg>