<svg xmlns="http://www.w3.org/2000/svg" fill="none" viewBox="0 0 24 24"><path fill="#090404" d="M16.465 2a2 2 0 0 1 1.664.89l1.703 2.555a1 1 0 0 1 .165.626l-.75 10.5a1 1 0 1 1-1.994-.142L17.98 6.27 16.465 4h-8.93L6.021 6.271 6.936 20H15a1 1 0 1 1 0 2H6.936a2 2 0 0 1-1.995-1.867L4.002 6.066a1 1 0 0 1 .166-.62L5.871 2.89A2 2 0 0 1 7.535 2z"/><path fill="#090404" d="M20 5a1 1 0 1 1 0 2H4a1 1 0 0 1 0-2z"/><path fill="#090404" d="M18 18.75a1.5 1.5 0 1 0-3 0 1.5 1.5 0 0 0 3 0m2 0a3.5 3.5 0 1 1-7 0 3.5 3.5 0 0 1 7 0"/></svg>