<svg xmlns="http://www.w3.org/2000/svg" fill="none" viewBox="0 0 24 24"><path fill="#090404" d="M9.412 2.34c4.31-1.154 8.713.692 11 4.255.534.007 1.018.049 1.423.14.273.062.567.158.825.32.231.144.484.376.621.72l.052.154.037.191c.054.439-.116.815-.28 1.065-.192.29-.46.544-.738.763q-.226.177-.499.356c.874 5.04-2.227 10.005-7.264 11.355S4.38 20.26 2.618 15.457a7 7 0 0 1-.61-.058c-.35-.05-.71-.137-1.02-.292-.306-.154-.698-.446-.838-.966-.115-.43 0-.818.146-1.093.143-.27.348-.5.554-.69.305-.281.703-.56 1.16-.833.2-4.23 3.092-8.03 7.402-9.184m10.559 8.985c-1.893.887-4.52 1.822-7.454 2.608-2.933.786-5.674 1.29-7.756 1.468a8 8 0 0 0 9.31 4.327 8 8 0 0 0 5.9-8.403m-.99-3.237a8.004 8.004 0 0 0-14.982 4.015q.009.665.133 1.337.184-.008.38-.023c1.94-.16 4.594-.642 7.488-1.417s5.433-1.684 7.193-2.517q.178-.086.342-.17a8 8 0 0 0-.555-1.225"/></svg>