<svg xmlns="http://www.w3.org/2000/svg" fill="none" viewBox="0 0 24 24"><path fill="#090404" d="M.5 14.776c0-3.196 3.09-5.802 6.896-5.802s6.875 2.606 6.875 5.802-3.09 5.802-6.896 5.802c-.736 0-1.43-.084-2.081-.273a.95.95 0 0 0-.59.063l-1.702.925c-.105.064-.252-.042-.21-.168l.337-1.367a.51.51 0 0 0-.21-.546C1.446 18.14.5 16.562.5 14.776m9.356-.756c.525 0 .946-.42.946-.946a.94.94 0 0 0-.946-.946.94.94 0 0 0-.946.946c0 .525.42.946.946.946m-4.647 0c.526 0 .946-.42.946-.946a.94.94 0 0 0-.946-.946.94.94 0 0 0-.946.946c0 .525.442.946.946.946"/><path fill="#090404" d="M14.838 14.797c0-3.552-3.364-6.433-7.527-6.433h-.315c.673-3.217 4.079-5.677 8.179-5.677 4.604 0 8.325 3.07 8.325 6.876 0 2.102-1.157 3.994-2.965 5.255-.126.084-.168.231-.147.378l.63 2.229c.043.147-.126.294-.273.21l-2.46-1.472a.63.63 0 0 0-.546-.063c-.82.21-1.682.337-2.565.337-.19 0-.378 0-.59-.021.17-.526.254-1.072.254-1.619m-2.46-8.472c-.61 0-1.114.504-1.114 1.114s.504 1.114 1.114 1.114 1.115-.504 1.115-1.114-.506-1.114-1.115-1.114m5.593 2.228c.61 0 1.114-.504 1.114-1.114s-.504-1.114-1.114-1.114-1.114.504-1.114 1.114.483 1.114 1.114 1.114"/></svg>