<svg xmlns="http://www.w3.org/2000/svg" fill="none" viewBox="0 0 24 24"><path fill="#090404" d="M5 5v14h14V5zm16 14a2 2 0 0 1-2 2H5a2 2 0 0 1-2-2V5a2 2 0 0 1 2-2h14a2 2 0 0 1 2 2z"/><path fill="#090404" d="M12 6.5c2.126 0 4.083.739 5.623 1.973a1 1 0 0 1 .155 1.405L15.28 13a1 1 0 0 1-1.407.156A2.98 2.98 0 0 0 12 12.5c-.71 0-1.36.246-1.874.657a1 1 0 0 1-1.406-.156l-2.5-3.123a1 1 0 0 1 .157-1.405A8.97 8.97 0 0 1 12 6.5m0 2a6.96 6.96 0 0 0-3.548.965l1.267 1.584A5 5 0 0 1 12 10.5c.82 0 1.596.198 2.28.549l1.267-1.584A6.96 6.96 0 0 0 12 8.5"/></svg>