<svg xmlns="http://www.w3.org/2000/svg" fill="none" viewBox="0 0 24 24"><path fill="#090404" d="M11.116 9.927a1 1 0 1 1 1.9.621l-.929 2.838A1.25 1.25 0 0 0 13.284 15h4.436a2 2 0 0 1 1.94 2.485l-.689 2.758a1 1 0 0 1-1.94-.486L17.72 17h-4.437a3.25 3.25 0 0 1-3.11-4.192l.006-.02z"/><path fill="#090404" d="M14.5 5a1 1 0 1 0-2 0 1 1 0 0 0 2 0m2 0a3 3 0 1 1-6 0 3 3 0 0 1 6 0"/><path fill="#090404" d="M16 11a1 1 0 1 1 0 2h-4.25a1 1 0 1 1 0-2z"/><path fill="#090404" d="M4 15.5a6.5 6.5 0 0 1 4.136-6.057 1 1 0 0 1 .728 1.864A4.502 4.502 0 0 0 10.5 20a4.48 4.48 0 0 0 3.089-1.228 1 1 0 0 1 1.372 1.456A6.5 6.5 0 0 1 4 15.5"/></svg>