<svg xmlns="http://www.w3.org/2000/svg" fill="none" viewBox="0 0 24 24"><path fill="#090404" d="M10 12a2.5 2.5 0 1 0-5 0 2.5 2.5 0 0 0 5 0m2 0a4.5 4.5 0 1 1-9 0 4.5 4.5 0 0 1 9 0"/><path fill="#090404" d="M13.856 13.707a1.5 1.5 0 0 1 2.288 0l.12.162 3.085 4.822c.64.999-.077 2.309-1.262 2.309h-6.173c-1.186 0-1.903-1.31-1.264-2.309l3.087-4.822zM12.826 19h4.347L15 15.605z"/><path fill="#090404" d="M14.496 3.049c.663-.113 1.458-.06 2.132.484.384.31.684.683.846 1.128.165.453.158.899.055 1.3-.19.742-.72 1.377-1.148 1.835-.2.213-.41.419-.599.604l.35-.068c.568-.106 1.268-.212 1.963-.154.715.06 1.484.299 2.112.927.79.79.9 1.743.797 2.547-.096.74-.401 1.51-.556 1.975a1 1 0 1 1-1.896-.632c.21-.633.405-1.112.468-1.598.055-.421-.018-.669-.227-.878-.2-.2-.47-.315-.864-.348-.414-.035-.893.026-1.43.127-.47.088-1.101.235-1.575.276a2.5 2.5 0 0 1-.882-.06 1.47 1.47 0 0 1-.937-.755c-.26-.521-.113-1.019.03-1.312.14-.29.353-.55.539-.755.193-.215.42-.436.629-.641.217-.213.425-.415.618-.621.413-.442.617-.757.67-.965.02-.074.01-.103.005-.12-.01-.025-.05-.115-.224-.255-.076-.062-.219-.124-.54-.07-.332.057-.733.222-1.155.46a9.722 9.722 0 0 0-1.4.981l-.085.072-.018.018-.004.003a1 1 0 0 1-1.34-1.485v-.002l.005-.002.008-.008.032-.029.111-.094a11.6 11.6 0 0 1 1.712-1.199c.515-.289 1.145-.575 1.798-.686"/></svg>