<svg xmlns="http://www.w3.org/2000/svg" fill="none" viewBox="0 0 24 24"><path fill="#090404" d="M12 19.25a.5.5 0 1 1 0-1 .5.5 0 0 1 0 1"/><path fill="#090404" d="M6.136 12.527c3.423-2.67 8.306-2.67 11.73 0a1 1 0 0 1-1.231 1.576c-2.7-2.106-6.569-2.106-9.269 0a1 1 0 0 1-1.23-1.576M2.385 7.284c5.61-4.379 13.62-4.379 19.23 0a1 1 0 0 1-1.23 1.577c-4.888-3.814-11.883-3.814-16.77 0a1 1 0 0 1-1.23-1.577"/><path fill="#090404" d="M12.5 18.75a.5.5 0 1 0-.6.49l.1.01a.5.5 0 0 0 .5-.5m.75 0a1.25 1.25 0 0 1-2.493.128l-.006-.128.006-.128a1.25 1.25 0 0 1 2.494.128"/></svg>