<svg xmlns="http://www.w3.org/2000/svg" fill="none" viewBox="0 0 24 24"><path fill="#090404" d="M8.99 3.971a2 2 0 0 1 2-2h.521a3.5 3.5 0 0 1 3.5 3.5v3.745l.038.066 4.544 2.625a2 2 0 0 1 .732 2.731l-.262.453a3.5 3.5 0 0 1-4.781 1.282l-.944-.545.964 4.982-1.963.38-1.294-6.688-.007-.004q-.02.002-.038.003l-.04-.002-.006.004-1.292 6.687-1.964-.38.963-4.983-2.242 1.296a2 2 0 0 1-2.733-.733l-.26-.453a3.5 3.5 0 0 1 1.28-4.78L8.95 9.282l.038-.066zm-2.284 8.917a1.5 1.5 0 0 0-.549 2.049l.262.453 3.185-1.84a3.5 3.5 0 0 1-1.011-1.752zm8.701-1.09a3.5 3.5 0 0 1-1.012 1.752l1.887 1.09a1.5 1.5 0 0 0 2.05-.549l.26-.453zM12 9.5a1.496 1.496 0 0 0-1.5 1.5A1.5 1.5 0 1 0 12 9.5M10.99 7.65a3.5 3.5 0 0 1 2.021 0V5.47a1.5 1.5 0 0 0-1.5-1.5h-.522z"/><path fill="#090404" d="M19 20a1 1 0 1 1 0 2H5a1 1 0 1 1 0-2z"/></svg>