<svg xmlns="http://www.w3.org/2000/svg" fill="none" viewBox="0 0 24 24"><path fill="#090404" d="M6.75 9.25a.5.5 0 1 1 0-1 .5.5 0 0 1 0 1"/><path fill="#090404" d="M10.25 9.25a.5.5 0 1 1 0-1 .5.5 0 0 1 0 1"/><path fill="#090404" d="M13.75 9.25a.5.5 0 1 1 0-1 .5.5 0 0 1 0 1"/><path fill="#090404" d="m20.24 16.185-.696-1.812a.582.582 0 0 0-1.088 0l-.697 1.812a1 1 0 0 1-.574.575l-1.812.696a.582.582 0 0 0 0 1.088l1.812.697a1 1 0 0 1 .575.574l.696 1.812a.582.582 0 0 0 1.088 0l.697-1.812a1 1 0 0 1 .574-.575l1.812-.696a.582.582 0 0 0 0-1.088l-1.812-.697a1 1 0 0 1-.575-.574"/><path fill="#090404" d="M7.25 8.75a.5.5 0 1 0-.6.49l.1.01a.5.5 0 0 0 .5-.5m3.5 0a.5.5 0 1 0-1 0 .5.5 0 0 0 1 0m3.5 0a.5.5 0 1 0-1 0 .5.5 0 0 0 1 0M8 8.75a1.25 1.25 0 0 1-2.493.128L5.5 8.75l.007-.128A1.25 1.25 0 0 1 8 8.75m3.5 0a1.25 1.25 0 0 1-2.493.128L9 8.75l.007-.128a1.25 1.25 0 0 1 2.493.128m3.5 0a1.25 1.25 0 0 1-2.493.128L12.5 8.75l.007-.128A1.25 1.25 0 0 1 15 8.75"/><path fill="#090404" d="M20 11V6H4v13h8a1 1 0 1 1 0 2H4a2 2 0 0 1-2-2V6a2 2 0 0 1 2-2h16a2 2 0 0 1 2 2v5a1 1 0 1 1-2 0"/></svg>