<svg xmlns="http://www.w3.org/2000/svg" fill="none" viewBox="0 0 24 24"><path fill="#090404" d="M6.5 8a.5.5 0 1 1-1 0 .5.5 0 0 1 1 0"/><path fill="#090404" d="M9.5 8a.5.5 0 1 1-1 0 .5.5 0 0 1 1 0"/><path fill="#090404" d="M12.5 8a.5.5 0 1 1-1 0 .5.5 0 0 1 1 0"/><path fill="#090404" d="M4 6v12h16V6zm18 12a2 2 0 0 1-2 2H4a2 2 0 0 1-2-2V6a2 2 0 0 1 2-2h16a2 2 0 0 1 2 2z"/><path fill="#090404" d="M21 10v2H3v-2z"/><path fill="#090404" d="M6.5 8a.5.5 0 1 0-1 0 .5.5 0 0 0 1 0M7 8a1 1 0 1 1-2 0 1 1 0 0 1 2 0"/><path fill="#090404" d="M9.5 8a.5.5 0 1 0-1 0 .5.5 0 0 0 1 0m.5 0a1 1 0 1 1-2 0 1 1 0 0 1 2 0"/><path fill="#090404" d="M12.5 8a.5.5 0 1 0-1 0 .5.5 0 0 0 1 0m.5 0a1 1 0 1 1-2 0 1 1 0 0 1 2 0"/></svg>