<svg xmlns="http://www.w3.org/2000/svg" fill="none" viewBox="0 0 24 24"><path fill="#090404" d="M4 6v6h16V6zm18 6a2 2 0 0 1-2 2H4a2 2 0 0 1-2-2V6a2 2 0 0 1 2-2h16a2 2 0 0 1 2 2z"/><path fill="#090404" d="M6 13a1 1 0 1 1 2 0v7a1 1 0 1 1 0 2H6a1 1 0 1 1 0-2z"/><path fill="#090404" d="M16 13a1 1 0 1 1 2 0v7a1 1 0 1 1 0 2h-2a1 1 0 1 1 0-2z"/><path fill="#090404" d="M6 4V3a1 1 0 0 1 2 0v1a1 1 0 0 1-2 0"/><path fill="#090404" d="M16 4V3a1 1 0 1 1 2 0v1a1 1 0 1 1-2 0"/><path fill="#090404" d="M7.581 5.106a1 1 0 1 1 1.838.788l-3 7a1 1 0 1 1-1.838-.788z"/><path fill="#090404" d="M17.581 5.106a1 1 0 1 1 1.838.788l-3 7a1 1 0 1 1-1.838-.788z"/><path fill="#090404" d="M12.581 5.106a1 1 0 1 1 1.838.788l-3 7a1 1 0 1 1-1.838-.788z"/></svg>