<svg xmlns="http://www.w3.org/2000/svg" fill="none" viewBox="0 0 24 24"><path fill="#090404" d="M21 19a1 1 0 1 1 0 2H3a1 1 0 1 1 0-2z"/><path fill="#090404" d="M10.493 3.303a2 2 0 0 1 3.296-.633l4.933 5.138A1 1 0 0 1 18 9.5h-2.273l4.59 10.517-1.834.8-5.2-11.917a1 1 0 0 1 .917-1.4h1.454l-3.307-3.445L5.55 20.803l-1.854-.752z"/><path fill="#090404" d="M12.514 13.65c.093-.2.379-.2.472 0l.553 1.185c.026.055.07.1.126.126l1.185.553c.2.093.2.379 0 .472l-1.185.553a.26.26 0 0 0-.126.126l-.553 1.185a.26.26 0 0 1-.472 0l-.553-1.185a.26.26 0 0 0-.126-.126l-1.185-.553a.26.26 0 0 1 0-.472l1.185-.553a.26.26 0 0 0 .126-.126z"/><path fill="#090404" d="M9.764 9.65c.093-.2.379-.2.472 0l.553 1.185c.026.055.07.1.126.126l1.185.553c.2.093.2.379 0 .472l-1.185.553a.26.26 0 0 0-.126.126l-.553 1.185a.26.26 0 0 1-.472 0l-.553-1.185a.26.26 0 0 0-.126-.126L7.9 11.986a.26.26 0 0 1 0-.472l1.185-.553a.26.26 0 0 0 .126-.126z"/></svg>