<svg xmlns="http://www.w3.org/2000/svg" fill="none" viewBox="0 0 24 24"><path fill="#090404" d="M20 12a8 8 0 1 0-16 0 8 8 0 0 0 16 0m2 0c0 5.523-4.477 10-10 10S2 17.523 2 12 6.477 2 12 2s10 4.477 10 10"/><path fill="#090404" d="M4.927 4.929c.603-.603 1.432-.697 2.152-.612.734.087 1.544.377 2.367.788 1.655.828 3.569 2.255 5.38 4.067 1.813 1.812 3.24 3.726 4.067 5.38.412.823.701 1.635.788 2.369.086.72-.009 1.548-.611 2.15s-1.43.697-2.15.611c-.735-.086-1.546-.376-2.369-.788-1.655-.827-3.568-2.254-5.38-4.066-1.813-1.812-3.24-3.726-4.067-5.38-.411-.823-.7-1.634-.788-2.368-.085-.72.009-1.549.611-2.151m1.915 1.375a1.2 1.2 0 0 0-.418.006.3.3 0 0 0-.083.033l-.007.013a.3.3 0 0 0-.025.07 1.2 1.2 0 0 0-.007.418c.05.417.235.996.591 1.709.708 1.416 1.99 3.158 3.692 4.861s3.445 2.983 4.861 3.691c.713.357 1.292.542 1.709.591.205.024.339.012.418-.007a.3.3 0 0 0 .07-.023l.013-.009q0 0 .009-.014a.3.3 0 0 0 .023-.069c.019-.079.031-.213.007-.418-.05-.417-.234-.996-.59-1.709-.709-1.416-1.99-3.159-3.692-4.861C11.71 8.883 9.967 7.602 8.55 6.894c-.712-.356-1.291-.54-1.709-.59"/><path fill="#090404" d="M19.072 3.515a1 1 0 0 1 1.414 1.414L4.93 20.485a1 1 0 0 1-1.415-1.414z"/></svg>