<svg xmlns="http://www.w3.org/2000/svg" fill="none" viewBox="0 0 24 24"><path fill="#090404" d="M6.705 2.363c1.397.244 2.564.795 3.174 1.852s.504 2.343.016 3.674a.9.9 0 0 1-1 .578c-1.397-.244-2.564-.795-3.174-1.852s-.504-2.343-.016-3.675l.068-.145a.9.9 0 0 1 .932-.432m.466 1.962c-.139.666-.056 1.103.109 1.39s.503.575 1.148.789c.138-.666.056-1.103-.109-1.389s-.502-.577-1.148-.79"/><path fill="#090404" d="M2.98 7.164c1.412-.126 2.681.105 3.544.968.863.862 1.094 2.132.968 3.545a.9.9 0 0 1-.816.816c-1.413.126-2.683-.105-3.545-.968S2.037 9.393 2.163 7.98l.03-.157a.9.9 0 0 1 .786-.66m.958 1.775c.04.68.231 1.08.465 1.314s.634.424 1.313.464c-.04-.679-.23-1.08-.464-1.313-.234-.234-.635-.426-1.314-.465"/><path fill="#090404" d="M2.36 13.454c1.332-.488 2.618-.594 3.675.016s1.608 1.777 1.852 3.174a.9.9 0 0 1-.578 1c-1.331.488-2.618.594-3.674-.016s-1.608-1.777-1.852-3.174a.9.9 0 0 1 .577-1m2.775 1.575c-.287-.165-.724-.248-1.39-.11.213.647.503.984.79 1.149.286.165.723.247 1.389.11-.214-.646-.503-.984-.79-1.15"/><path fill="#090404" d="M17.454 2.35a.9.9 0 0 1 .84.59c.487 1.332.593 2.619-.017 3.675-.61 1.057-1.777 1.608-3.174 1.852a.9.9 0 0 1-1-.577c-.487-1.332-.593-2.618.017-3.675s1.777-1.608 3.174-1.852zm-.627 1.975c-.646.214-.983.504-1.149.79-.165.287-.247.723-.109 1.389.646-.214.983-.503 1.148-.79.166-.286.248-.722.11-1.389"/><path fill="#090404" d="M17.47 8.13c.81-.808 1.975-1.06 3.282-.986l.263.02.159.028a.9.9 0 0 1 .658.787c.126 1.413-.105 2.683-.968 3.545s-2.132 1.094-3.545.968a.9.9 0 0 1-.816-.816c-.126-1.413.105-2.682.968-3.545m2.585.808c-.678.04-1.078.232-1.312.465-.234.234-.426.634-.465 1.313.679-.04 1.08-.23 1.314-.464s.424-.635.463-1.314"/><path fill="#090404" d="M17.965 13.47c1.056-.61 2.343-.505 3.674-.017a.9.9 0 0 1 .578 1c-.244 1.397-.795 2.564-1.852 3.174s-2.343.504-3.675.016a.9.9 0 0 1-.577-1c.244-1.397.795-2.564 1.852-3.174m2.289 1.449c-.666-.138-1.103-.056-1.389.109s-.577.503-.79 1.148c.666.139 1.103.057 1.39-.109.286-.165.575-.502.789-1.148"/><path fill="#090404" d="M6.396 16.13a.9.9 0 0 1 1.272.064c1.037 1.147 2.356 1.587 3.92 2.096 1.507.49 3.27 1.05 4.6 2.629a.9.9 0 0 1-1.377 1.16c-.953-1.132-2.22-1.57-3.78-2.078-1.505-.49-3.294-1.046-4.7-2.6a.9.9 0 0 1 .065-1.271"/><path fill="#090404" d="M17.604 16.13a.9.9 0 0 0-1.272.064c-1.037 1.147-2.356 1.587-3.92 2.096-1.507.49-3.27 1.05-4.6 2.629a.9.9 0 0 0 1.377 1.16c.954-1.132 2.22-1.57 3.78-2.078 1.505-.49 3.294-1.046 4.7-2.6a.9.9 0 0 0-.065-1.271"/></svg>