<svg xmlns="http://www.w3.org/2000/svg" fill="none" viewBox="0 0 24 24"><path fill="#090404" d="M6.393 2.112a1 1 0 0 1 1.259.286c.834 1.107 1.301 2.295 1.086 3.506-.204 1.147-.976 2.064-2.045 2.8.424.985.362 2.121.005 3.297a1 1 0 0 1-.137.28c.666.638 1.087 1.535 1.331 2.57a1 1 0 0 1 .01.405 4.1 4.1 0 0 1 2.549 1.208c.697.71 1.152 1.712 1.03 2.773-.127 1.105-.852 2.052-2.074 2.659a1 1 0 1 1-.889-1.791c.604-.3.845-.639.934-.915-.734.456-1.532.688-2.38.598-1.09-.115-2.06-.739-2.918-1.646a1 1 0 0 1 .022-1.398q.264-.261.538-.474a3.5 3.5 0 0 1-1.183-.416c-1.068-.613-1.686-1.729-2.004-3.077a1 1 0 0 1 .686-1.187 8 8 0 0 1 .754-.187 3.4 3.4 0 0 1-.547-.707c-.618-1.064-.59-2.339-.187-3.663l.033-.093a1 1 0 0 1 1.15-.59q.376.086.726.206a3.5 3.5 0 0 1-.059-1.472C4.3 3.874 5.146 2.917 6.31 2.161zm10.019.211a1 1 0 0 1 1.28-.162c1.163.756 2.01 1.712 2.226 2.923.088.496.059.988-.06 1.472q.35-.12.726-.206l.096-.018c.48-.064.944.229 1.088.701.403 1.324.431 2.6-.187 3.663a3.4 3.4 0 0 1-.548.707q.373.072.755.187a1 1 0 0 1 .686 1.187c-.318 1.348-.936 2.464-2.004 3.077a3.5 3.5 0 0 1-1.184.416q.274.214.539.474a1 1 0 0 1 .022 1.398c-.858.907-1.829 1.53-2.918 1.646-.849.09-1.647-.142-2.38-.598.088.276.33.614.934.915a1 1 0 1 1-.889 1.79c-1.222-.606-1.947-1.553-2.074-2.658-.122-1.061.332-2.063 1.03-2.773a4.1 4.1 0 0 1 2.547-1.208 1 1 0 0 1 .012-.405c.244-1.035.665-1.932 1.33-2.57a1 1 0 0 1-.136-.28c-.357-1.176-.42-2.312.004-3.297-1.069-.736-1.84-1.653-2.044-2.8-.215-1.211.252-2.399 1.086-3.506zM7.563 17.237a2.3 2.3 0 0 0-1.08.265c.301.184.567.273.8.298.33.035.712-.046 1.169-.344a2.1 2.1 0 0 0-.889-.219m8.875 0c-.32.005-.622.087-.89.22.458.298.84.378 1.17.343.233-.025.498-.115.798-.298a2.3 2.3 0 0 0-1.078-.265m-12.62-3.931c.212.42.459.67.708.812.251.144.596.233 1.075.203-.212-.42-.458-.669-.707-.811-.251-.144-.597-.234-1.076-.204m16.364 0c-.479-.03-.824.06-1.075.204-.249.142-.496.391-.708.811.48.03.825-.059 1.076-.203.249-.142.495-.392.707-.812M3.947 8.633c-.03.472.06.811.203 1.057.145.25.4.498.834.711.03-.472-.06-.811-.202-1.057-.145-.249-.4-.498-.835-.711m16.106 0c-.434.213-.69.462-.834.71-.143.247-.232.586-.203 1.058.435-.213.69-.462.835-.71.143-.247.232-.586.202-1.058M6.591 4.485c-.334.348-.488.668-.538.95-.05.28-.017.63.176 1.067.334-.347.489-.666.54-.947.049-.28.016-.632-.178-1.07m10.818 0c-.193.438-.226.79-.176 1.07.05.281.204.6.538.947.193-.437.226-.787.177-1.067-.05-.282-.204-.602-.54-.95"/></svg>