<svg xmlns="http://www.w3.org/2000/svg" fill="none" viewBox="0 0 24 24"><path fill="#090404" d="M19 20a1 1 0 1 1 0 2H5a1 1 0 1 1 0-2z"/><path fill="#090404" d="M12 2.5a1 1 0 0 1 .82.427l6.689 9.556a2 2 0 0 1 .218 1.89l-2.798 6.998-1.858-.742 2.8-6.998L12 5.243l-5.871 8.388 2.8 6.998-1.858.742-2.799-6.998a2 2 0 0 1 .22-1.89l6.689-9.556A1 1 0 0 1 12 2.5"/><path fill="#090404" d="M13.1 14a1.1 1.1 0 1 0-2.2 0 1.1 1.1 0 0 0 2.2 0m1.8 0A2.9 2.9 0 1 1 9.1 14a2.9 2.9 0 0 1 5.801 0"/><path fill="#090404" d="M11 11.7V4.5a1 1 0 1 1 2 0v7.2a1 1 0 0 1-2 0"/></svg>