<svg xmlns="http://www.w3.org/2000/svg" fill="none" viewBox="0 0 24 24"><path fill="#090404" d="M9.482 13.102a1.001 1.001 0 0 1 1.415 1.414l-5.19 5.19a1 1 0 0 1-1.414-1.415z"/><path fill="#090404" d="M9.477 10.512a2.836 2.836 0 1 1 4.01 4.01 2.836 2.836 0 0 1-4.01-4.01m2.595 1.414a.836.836 0 1 0-1.181 1.182.836.836 0 0 0 1.181-1.182"/><path fill="#090404" d="M14.086 2.5a2 2 0 0 1 2.828 0L21.5 7.086a2 2 0 0 1 0 2.828l-2.793 2.793a1 1 0 0 1-1.414 0l-6-6a1 1 0 0 1 0-1.414zM13.414 6 18 10.586 20.086 8.5 15.5 3.914z"/><path fill="#090404" d="M11.658 5.06a1 1 0 0 1 1.05.233l6 6a1 1 0 0 1 .232 1.049l-1.81 4.976a2 2 0 0 1-1.472 1.275L4.204 20.979a1 1 0 0 1-1.182-1.183L5.407 8.342A2 2 0 0 1 6.682 6.87zM7.365 8.75 5.29 18.71l9.962-2.075 1.592-4.378-5.1-5.1z"/></svg>