<svg xmlns="http://www.w3.org/2000/svg" fill="none" viewBox="0 0 24 24"><path fill="#090404" d="M12.1 2.143a2 2 0 0 1 2.829 0L22 9.213a2 2 0 0 1 0 2.829l-1.086 1.086a2 2 0 0 1-2.515.256l-2.934 6.195a2 2 0 0 1-1.545 1.126L3.13 22.134a1 1 0 0 1-1.122-1.116l1.36-10.848a2 2 0 0 1 1.147-1.567l6.235-2.874a2 2 0 0 1 .265-2.5zm.329 2.5.707.707a1 1 0 0 1-.288 1.615l-7.496 3.454-1.199 9.561 9.505-1.257 3.524-7.438a1 1 0 0 1 1.61-.278l.708.707 1.086-1.086-7.071-7.071z"/><path fill="#090404" d="M8 14.12a2 2 0 1 1 4 0 2 2 0 0 1-4 0"/><path fill="#090404" d="M11.722 5.35a1 1 0 0 1 1.414 0l5.657 5.657a1 1 0 0 1-1.414 1.414l-5.657-5.657a1 1 0 0 1 0-1.414"/><path fill="#090404" d="M9.293 13.435a1 1 0 1 1 1.414 1.415l-7 7a1 1 0 1 1-1.414-1.415z"/></svg>