<svg xmlns="http://www.w3.org/2000/svg" fill="none" viewBox="0 0 24 24"><path fill="#090404" d="M11.003 21.959c-1.54-.148-3.1-.7-4.44-1.574-1.123-.732-1.377-1.033-1.377-1.634 0-1.206 1.328-3.32 3.599-5.729 1.29-1.368 3.085-2.971 3.28-2.928.378.085 3.397 3.028 4.528 4.414 1.787 2.191 2.609 3.986 2.191 4.786-.317.607-2.286 1.796-3.733 2.253-1.192.376-2.758.535-4.048.412M3.67 17.497c-.933-1.43-1.405-2.84-1.632-4.876-.075-.673-.049-1.057.17-2.438.273-1.72 1.253-3.71 2.432-4.935.502-.52.546-.534 1.158-.327.741.25 1.534.798 2.764 1.91l.718.648-.393.481c-1.82 2.233-3.74 5.4-4.463 7.358-.393 1.064-.55 2.133-.381 2.578.114.3.01.188-.374-.399m16.377.243c.092-.45-.025-1.275-.298-2.109-.591-1.804-2.57-5.16-4.385-7.441l-.572-.719.619-.567c.807-.741 1.368-1.185 1.973-1.562.477-.298 1.16-.56 1.453-.56.18 0 .817.661 1.33 1.382.797 1.115 1.382 2.47 1.679 3.877.192.91.207 2.858.03 3.766a12 12 0 0 1-.75 2.367c-.226.49-.781 1.444-1.025 1.755-.126.16-.126.159-.056-.185zm-8.88-13.3c-.837-.425-2.13-.881-2.844-1.004a5 5 0 0 0-.949-.054c-.59.03-.563 0 .382-.447a9.7 9.7 0 0 1 2.332-.776c1-.21 2.882-.212 3.867-.005 1.063.224 2.316.69 3.022 1.125l.21.128-.481-.024c-.957-.048-2.351.338-3.848 1.066-.452.22-.844.395-.873.39a16 16 0 0 1-.818-.398"/></svg>